G04 #@! TF.GenerationSoftware,KiCad,Pcbnew,(5.1.2-1)-1*
G04 #@! TF.CreationDate,2019-06-26T00:08:28-04:00*
G04 #@! TF.ProjectId,28SF8148,32385346-3831-4343-982e-6b696361645f,rev?*
G04 #@! TF.SameCoordinates,Original*
G04 #@! TF.FileFunction,Soldermask,Top*
G04 #@! TF.FilePolarity,Negative*
%FSLAX46Y46*%
G04 Gerber Fmt 4.6, Leading zero omitted, Abs format (unit mm)*
G04 Created by KiCad (PCBNEW (5.1.2-1)-1) date 2019-06-26 00:08:28*
%MOMM*%
%LPD*%
G04 APERTURE LIST*
%ADD10C,0.100000*%
G04 APERTURE END LIST*
D10*
G36*
X43493916Y-52305158D02*
G01*
X43689772Y-52386284D01*
X43689774Y-52386285D01*
X43866037Y-52504060D01*
X44015940Y-52653963D01*
X44133715Y-52830226D01*
X44133716Y-52830228D01*
X44214842Y-53026084D01*
X44256200Y-53234004D01*
X44256200Y-53445996D01*
X44214842Y-53653916D01*
X44197344Y-53696159D01*
X44133717Y-53849771D01*
X44015940Y-54026037D01*
X43866037Y-54175940D01*
X43689774Y-54293715D01*
X43689773Y-54293716D01*
X43689772Y-54293716D01*
X43493916Y-54374842D01*
X43285996Y-54416200D01*
X43074004Y-54416200D01*
X42866084Y-54374842D01*
X42670228Y-54293716D01*
X42670227Y-54293716D01*
X42670226Y-54293715D01*
X42493963Y-54175940D01*
X42344060Y-54026037D01*
X42226283Y-53849771D01*
X42162656Y-53696159D01*
X42145158Y-53653916D01*
X42103800Y-53445996D01*
X42103800Y-53234004D01*
X42145158Y-53026084D01*
X42226284Y-52830228D01*
X42226285Y-52830226D01*
X42344060Y-52653963D01*
X42493963Y-52504060D01*
X42670226Y-52386285D01*
X42670228Y-52386284D01*
X42866084Y-52305158D01*
X43074004Y-52263800D01*
X43285996Y-52263800D01*
X43493916Y-52305158D01*
X43493916Y-52305158D01*
G37*
G36*
X53631689Y-52378429D02*
G01*
X53813678Y-52453811D01*
X53977463Y-52563249D01*
X54116751Y-52702537D01*
X54226189Y-52866322D01*
X54301571Y-53048311D01*
X54340000Y-53241509D01*
X54340000Y-53438491D01*
X54301571Y-53631689D01*
X54226189Y-53813678D01*
X54116751Y-53977463D01*
X53977463Y-54116751D01*
X53813678Y-54226189D01*
X53631689Y-54301571D01*
X53438491Y-54340000D01*
X53241509Y-54340000D01*
X53048311Y-54301571D01*
X52866322Y-54226189D01*
X52702537Y-54116751D01*
X52563249Y-53977463D01*
X52453811Y-53813678D01*
X52378429Y-53631689D01*
X52340000Y-53438491D01*
X52340000Y-53241509D01*
X52378429Y-53048311D01*
X52453811Y-52866322D01*
X52563249Y-52702537D01*
X52702537Y-52563249D01*
X52866322Y-52453811D01*
X53048311Y-52378429D01*
X53241509Y-52340000D01*
X53438491Y-52340000D01*
X53631689Y-52378429D01*
X53631689Y-52378429D01*
G37*
G36*
X56061567Y-52427201D02*
G01*
X56236159Y-52480163D01*
X56397057Y-52566165D01*
X56538091Y-52681909D01*
X56653835Y-52822943D01*
X56739837Y-52983841D01*
X56792799Y-53158433D01*
X56810681Y-53340000D01*
X56792799Y-53521567D01*
X56739837Y-53696159D01*
X56653835Y-53857057D01*
X56538091Y-53998091D01*
X56397057Y-54113835D01*
X56236159Y-54199837D01*
X56061567Y-54252799D01*
X55925500Y-54266200D01*
X55834500Y-54266200D01*
X55698433Y-54252799D01*
X55523841Y-54199837D01*
X55362943Y-54113835D01*
X55221909Y-53998091D01*
X55106165Y-53857057D01*
X55020163Y-53696159D01*
X54967201Y-53521567D01*
X54949319Y-53340000D01*
X54967201Y-53158433D01*
X55020163Y-52983841D01*
X55106165Y-52822943D01*
X55221909Y-52681909D01*
X55362943Y-52566165D01*
X55523841Y-52480163D01*
X55698433Y-52427201D01*
X55834500Y-52413800D01*
X55925500Y-52413800D01*
X56061567Y-52427201D01*
X56061567Y-52427201D01*
G37*
G36*
X40821567Y-52427201D02*
G01*
X40996159Y-52480163D01*
X41157057Y-52566165D01*
X41298091Y-52681909D01*
X41413835Y-52822943D01*
X41499837Y-52983841D01*
X41552799Y-53158433D01*
X41570681Y-53340000D01*
X41552799Y-53521567D01*
X41499837Y-53696159D01*
X41413835Y-53857057D01*
X41298091Y-53998091D01*
X41157057Y-54113835D01*
X40996159Y-54199837D01*
X40821567Y-54252799D01*
X40685500Y-54266200D01*
X40594500Y-54266200D01*
X40458433Y-54252799D01*
X40283841Y-54199837D01*
X40122943Y-54113835D01*
X39981909Y-53998091D01*
X39866165Y-53857057D01*
X39780163Y-53696159D01*
X39727201Y-53521567D01*
X39709319Y-53340000D01*
X39727201Y-53158433D01*
X39780163Y-52983841D01*
X39866165Y-52822943D01*
X39981909Y-52681909D01*
X40122943Y-52566165D01*
X40283841Y-52480163D01*
X40458433Y-52427201D01*
X40594500Y-52413800D01*
X40685500Y-52413800D01*
X40821567Y-52427201D01*
X40821567Y-52427201D01*
G37*
G36*
X56061567Y-49887201D02*
G01*
X56236159Y-49940163D01*
X56397057Y-50026165D01*
X56538091Y-50141909D01*
X56653835Y-50282943D01*
X56739837Y-50443841D01*
X56792799Y-50618433D01*
X56810681Y-50800000D01*
X56792799Y-50981567D01*
X56739837Y-51156159D01*
X56653835Y-51317057D01*
X56538091Y-51458091D01*
X56397057Y-51573835D01*
X56236159Y-51659837D01*
X56061567Y-51712799D01*
X55925500Y-51726200D01*
X55834500Y-51726200D01*
X55698433Y-51712799D01*
X55523841Y-51659837D01*
X55362943Y-51573835D01*
X55221909Y-51458091D01*
X55106165Y-51317057D01*
X55020163Y-51156159D01*
X54967201Y-50981567D01*
X54949319Y-50800000D01*
X54967201Y-50618433D01*
X55020163Y-50443841D01*
X55106165Y-50282943D01*
X55221909Y-50141909D01*
X55362943Y-50026165D01*
X55523841Y-49940163D01*
X55698433Y-49887201D01*
X55834500Y-49873800D01*
X55925500Y-49873800D01*
X56061567Y-49887201D01*
X56061567Y-49887201D01*
G37*
G36*
X40821567Y-49887201D02*
G01*
X40996159Y-49940163D01*
X41157057Y-50026165D01*
X41298091Y-50141909D01*
X41413835Y-50282943D01*
X41499837Y-50443841D01*
X41552799Y-50618433D01*
X41570681Y-50800000D01*
X41552799Y-50981567D01*
X41499837Y-51156159D01*
X41413835Y-51317057D01*
X41298091Y-51458091D01*
X41157057Y-51573835D01*
X40996159Y-51659837D01*
X40821567Y-51712799D01*
X40685500Y-51726200D01*
X40594500Y-51726200D01*
X40458433Y-51712799D01*
X40283841Y-51659837D01*
X40122943Y-51573835D01*
X39981909Y-51458091D01*
X39866165Y-51317057D01*
X39780163Y-51156159D01*
X39727201Y-50981567D01*
X39709319Y-50800000D01*
X39727201Y-50618433D01*
X39780163Y-50443841D01*
X39866165Y-50282943D01*
X39981909Y-50141909D01*
X40122943Y-50026165D01*
X40283841Y-49940163D01*
X40458433Y-49887201D01*
X40594500Y-49873800D01*
X40685500Y-49873800D01*
X40821567Y-49887201D01*
X40821567Y-49887201D01*
G37*
G36*
X56061567Y-47347201D02*
G01*
X56236159Y-47400163D01*
X56397057Y-47486165D01*
X56538091Y-47601909D01*
X56653835Y-47742943D01*
X56739837Y-47903841D01*
X56792799Y-48078433D01*
X56810681Y-48260000D01*
X56792799Y-48441567D01*
X56739837Y-48616159D01*
X56653835Y-48777057D01*
X56538091Y-48918091D01*
X56397057Y-49033835D01*
X56236159Y-49119837D01*
X56061567Y-49172799D01*
X55925500Y-49186200D01*
X55834500Y-49186200D01*
X55698433Y-49172799D01*
X55523841Y-49119837D01*
X55362943Y-49033835D01*
X55221909Y-48918091D01*
X55106165Y-48777057D01*
X55020163Y-48616159D01*
X54967201Y-48441567D01*
X54949319Y-48260000D01*
X54967201Y-48078433D01*
X55020163Y-47903841D01*
X55106165Y-47742943D01*
X55221909Y-47601909D01*
X55362943Y-47486165D01*
X55523841Y-47400163D01*
X55698433Y-47347201D01*
X55834500Y-47333800D01*
X55925500Y-47333800D01*
X56061567Y-47347201D01*
X56061567Y-47347201D01*
G37*
G36*
X40821567Y-47347201D02*
G01*
X40996159Y-47400163D01*
X41157057Y-47486165D01*
X41298091Y-47601909D01*
X41413835Y-47742943D01*
X41499837Y-47903841D01*
X41552799Y-48078433D01*
X41570681Y-48260000D01*
X41552799Y-48441567D01*
X41499837Y-48616159D01*
X41413835Y-48777057D01*
X41298091Y-48918091D01*
X41157057Y-49033835D01*
X40996159Y-49119837D01*
X40821567Y-49172799D01*
X40685500Y-49186200D01*
X40594500Y-49186200D01*
X40458433Y-49172799D01*
X40283841Y-49119837D01*
X40122943Y-49033835D01*
X39981909Y-48918091D01*
X39866165Y-48777057D01*
X39780163Y-48616159D01*
X39727201Y-48441567D01*
X39709319Y-48260000D01*
X39727201Y-48078433D01*
X39780163Y-47903841D01*
X39866165Y-47742943D01*
X39981909Y-47601909D01*
X40122943Y-47486165D01*
X40283841Y-47400163D01*
X40458433Y-47347201D01*
X40594500Y-47333800D01*
X40685500Y-47333800D01*
X40821567Y-47347201D01*
X40821567Y-47347201D01*
G37*
G36*
X56061567Y-44807201D02*
G01*
X56236159Y-44860163D01*
X56397057Y-44946165D01*
X56538091Y-45061909D01*
X56653835Y-45202943D01*
X56739837Y-45363841D01*
X56792799Y-45538433D01*
X56810681Y-45720000D01*
X56792799Y-45901567D01*
X56739837Y-46076159D01*
X56653835Y-46237057D01*
X56538091Y-46378091D01*
X56397057Y-46493835D01*
X56236159Y-46579837D01*
X56061567Y-46632799D01*
X55925500Y-46646200D01*
X55834500Y-46646200D01*
X55698433Y-46632799D01*
X55523841Y-46579837D01*
X55362943Y-46493835D01*
X55221909Y-46378091D01*
X55106165Y-46237057D01*
X55020163Y-46076159D01*
X54967201Y-45901567D01*
X54949319Y-45720000D01*
X54967201Y-45538433D01*
X55020163Y-45363841D01*
X55106165Y-45202943D01*
X55221909Y-45061909D01*
X55362943Y-44946165D01*
X55523841Y-44860163D01*
X55698433Y-44807201D01*
X55834500Y-44793800D01*
X55925500Y-44793800D01*
X56061567Y-44807201D01*
X56061567Y-44807201D01*
G37*
G36*
X40821567Y-44807201D02*
G01*
X40996159Y-44860163D01*
X41157057Y-44946165D01*
X41298091Y-45061909D01*
X41413835Y-45202943D01*
X41499837Y-45363841D01*
X41552799Y-45538433D01*
X41570681Y-45720000D01*
X41552799Y-45901567D01*
X41499837Y-46076159D01*
X41413835Y-46237057D01*
X41298091Y-46378091D01*
X41157057Y-46493835D01*
X40996159Y-46579837D01*
X40821567Y-46632799D01*
X40685500Y-46646200D01*
X40594500Y-46646200D01*
X40458433Y-46632799D01*
X40283841Y-46579837D01*
X40122943Y-46493835D01*
X39981909Y-46378091D01*
X39866165Y-46237057D01*
X39780163Y-46076159D01*
X39727201Y-45901567D01*
X39709319Y-45720000D01*
X39727201Y-45538433D01*
X39780163Y-45363841D01*
X39866165Y-45202943D01*
X39981909Y-45061909D01*
X40122943Y-44946165D01*
X40283841Y-44860163D01*
X40458433Y-44807201D01*
X40594500Y-44793800D01*
X40685500Y-44793800D01*
X40821567Y-44807201D01*
X40821567Y-44807201D01*
G37*
G36*
X48515391Y-42857043D02*
G01*
X48543461Y-42865558D01*
X48569329Y-42879385D01*
X48592005Y-42897995D01*
X48610615Y-42920671D01*
X48624442Y-42946539D01*
X48632957Y-42974609D01*
X48636200Y-43007542D01*
X48636200Y-44327458D01*
X48632957Y-44360391D01*
X48624442Y-44388461D01*
X48610615Y-44414329D01*
X48592005Y-44437005D01*
X48569329Y-44455615D01*
X48543461Y-44469442D01*
X48515391Y-44477957D01*
X48482458Y-44481200D01*
X48037542Y-44481200D01*
X48004609Y-44477957D01*
X47976539Y-44469442D01*
X47950671Y-44455615D01*
X47927995Y-44437005D01*
X47909385Y-44414329D01*
X47895558Y-44388461D01*
X47887043Y-44360391D01*
X47883800Y-44327458D01*
X47883800Y-43007542D01*
X47887043Y-42974609D01*
X47895558Y-42946539D01*
X47909385Y-42920671D01*
X47927995Y-42897995D01*
X47950671Y-42879385D01*
X47976539Y-42865558D01*
X48004609Y-42857043D01*
X48037542Y-42853800D01*
X48482458Y-42853800D01*
X48515391Y-42857043D01*
X48515391Y-42857043D01*
G37*
G36*
X47245391Y-42857043D02*
G01*
X47273461Y-42865558D01*
X47299329Y-42879385D01*
X47322005Y-42897995D01*
X47340615Y-42920671D01*
X47354442Y-42946539D01*
X47362957Y-42974609D01*
X47366200Y-43007542D01*
X47366200Y-44327458D01*
X47362957Y-44360391D01*
X47354442Y-44388461D01*
X47340615Y-44414329D01*
X47322005Y-44437005D01*
X47299329Y-44455615D01*
X47273461Y-44469442D01*
X47245391Y-44477957D01*
X47212458Y-44481200D01*
X46767542Y-44481200D01*
X46734609Y-44477957D01*
X46706539Y-44469442D01*
X46680671Y-44455615D01*
X46657995Y-44437005D01*
X46639385Y-44414329D01*
X46625558Y-44388461D01*
X46617043Y-44360391D01*
X46613800Y-44327458D01*
X46613800Y-43007542D01*
X46617043Y-42974609D01*
X46625558Y-42946539D01*
X46639385Y-42920671D01*
X46657995Y-42897995D01*
X46680671Y-42879385D01*
X46706539Y-42865558D01*
X46734609Y-42857043D01*
X46767542Y-42853800D01*
X47212458Y-42853800D01*
X47245391Y-42857043D01*
X47245391Y-42857043D01*
G37*
G36*
X45975391Y-42857043D02*
G01*
X46003461Y-42865558D01*
X46029329Y-42879385D01*
X46052005Y-42897995D01*
X46070615Y-42920671D01*
X46084442Y-42946539D01*
X46092957Y-42974609D01*
X46096200Y-43007542D01*
X46096200Y-44327458D01*
X46092957Y-44360391D01*
X46084442Y-44388461D01*
X46070615Y-44414329D01*
X46052005Y-44437005D01*
X46029329Y-44455615D01*
X46003461Y-44469442D01*
X45975391Y-44477957D01*
X45942458Y-44481200D01*
X45497542Y-44481200D01*
X45464609Y-44477957D01*
X45436539Y-44469442D01*
X45410671Y-44455615D01*
X45387995Y-44437005D01*
X45369385Y-44414329D01*
X45355558Y-44388461D01*
X45347043Y-44360391D01*
X45343800Y-44327458D01*
X45343800Y-43007542D01*
X45347043Y-42974609D01*
X45355558Y-42946539D01*
X45369385Y-42920671D01*
X45387995Y-42897995D01*
X45410671Y-42879385D01*
X45436539Y-42865558D01*
X45464609Y-42857043D01*
X45497542Y-42853800D01*
X45942458Y-42853800D01*
X45975391Y-42857043D01*
X45975391Y-42857043D01*
G37*
G36*
X44705391Y-42857043D02*
G01*
X44733461Y-42865558D01*
X44759329Y-42879385D01*
X44782005Y-42897995D01*
X44800615Y-42920671D01*
X44814442Y-42946539D01*
X44822957Y-42974609D01*
X44826200Y-43007542D01*
X44826200Y-44327458D01*
X44822957Y-44360391D01*
X44814442Y-44388461D01*
X44800615Y-44414329D01*
X44782005Y-44437005D01*
X44759329Y-44455615D01*
X44733461Y-44469442D01*
X44705391Y-44477957D01*
X44672458Y-44481200D01*
X44227542Y-44481200D01*
X44194609Y-44477957D01*
X44166539Y-44469442D01*
X44140671Y-44455615D01*
X44117995Y-44437005D01*
X44099385Y-44414329D01*
X44085558Y-44388461D01*
X44077043Y-44360391D01*
X44073800Y-44327458D01*
X44073800Y-43007542D01*
X44077043Y-42974609D01*
X44085558Y-42946539D01*
X44099385Y-42920671D01*
X44117995Y-42897995D01*
X44140671Y-42879385D01*
X44166539Y-42865558D01*
X44194609Y-42857043D01*
X44227542Y-42853800D01*
X44672458Y-42853800D01*
X44705391Y-42857043D01*
X44705391Y-42857043D01*
G37*
G36*
X49785391Y-42857043D02*
G01*
X49813461Y-42865558D01*
X49839329Y-42879385D01*
X49862005Y-42897995D01*
X49880615Y-42920671D01*
X49894442Y-42946539D01*
X49902957Y-42974609D01*
X49906200Y-43007542D01*
X49906200Y-44327458D01*
X49902957Y-44360391D01*
X49894442Y-44388461D01*
X49880615Y-44414329D01*
X49862005Y-44437005D01*
X49839329Y-44455615D01*
X49813461Y-44469442D01*
X49785391Y-44477957D01*
X49752458Y-44481200D01*
X49307542Y-44481200D01*
X49274609Y-44477957D01*
X49246539Y-44469442D01*
X49220671Y-44455615D01*
X49197995Y-44437005D01*
X49179385Y-44414329D01*
X49165558Y-44388461D01*
X49157043Y-44360391D01*
X49153800Y-44327458D01*
X49153800Y-43007542D01*
X49157043Y-42974609D01*
X49165558Y-42946539D01*
X49179385Y-42920671D01*
X49197995Y-42897995D01*
X49220671Y-42879385D01*
X49246539Y-42865558D01*
X49274609Y-42857043D01*
X49307542Y-42853800D01*
X49752458Y-42853800D01*
X49785391Y-42857043D01*
X49785391Y-42857043D01*
G37*
G36*
X52325391Y-42857043D02*
G01*
X52353461Y-42865558D01*
X52379329Y-42879385D01*
X52402005Y-42897995D01*
X52420615Y-42920671D01*
X52434442Y-42946539D01*
X52442957Y-42974609D01*
X52446200Y-43007542D01*
X52446200Y-44327458D01*
X52442957Y-44360391D01*
X52434442Y-44388461D01*
X52420615Y-44414329D01*
X52402005Y-44437005D01*
X52379329Y-44455615D01*
X52353461Y-44469442D01*
X52325391Y-44477957D01*
X52292458Y-44481200D01*
X51847542Y-44481200D01*
X51814609Y-44477957D01*
X51786539Y-44469442D01*
X51760671Y-44455615D01*
X51737995Y-44437005D01*
X51719385Y-44414329D01*
X51705558Y-44388461D01*
X51697043Y-44360391D01*
X51693800Y-44327458D01*
X51693800Y-43007542D01*
X51697043Y-42974609D01*
X51705558Y-42946539D01*
X51719385Y-42920671D01*
X51737995Y-42897995D01*
X51760671Y-42879385D01*
X51786539Y-42865558D01*
X51814609Y-42857043D01*
X51847542Y-42853800D01*
X52292458Y-42853800D01*
X52325391Y-42857043D01*
X52325391Y-42857043D01*
G37*
G36*
X51055391Y-42857043D02*
G01*
X51083461Y-42865558D01*
X51109329Y-42879385D01*
X51132005Y-42897995D01*
X51150615Y-42920671D01*
X51164442Y-42946539D01*
X51172957Y-42974609D01*
X51176200Y-43007542D01*
X51176200Y-44327458D01*
X51172957Y-44360391D01*
X51164442Y-44388461D01*
X51150615Y-44414329D01*
X51132005Y-44437005D01*
X51109329Y-44455615D01*
X51083461Y-44469442D01*
X51055391Y-44477957D01*
X51022458Y-44481200D01*
X50577542Y-44481200D01*
X50544609Y-44477957D01*
X50516539Y-44469442D01*
X50490671Y-44455615D01*
X50467995Y-44437005D01*
X50449385Y-44414329D01*
X50435558Y-44388461D01*
X50427043Y-44360391D01*
X50423800Y-44327458D01*
X50423800Y-43007542D01*
X50427043Y-42974609D01*
X50435558Y-42946539D01*
X50449385Y-42920671D01*
X50467995Y-42897995D01*
X50490671Y-42879385D01*
X50516539Y-42865558D01*
X50544609Y-42857043D01*
X50577542Y-42853800D01*
X51022458Y-42853800D01*
X51055391Y-42857043D01*
X51055391Y-42857043D01*
G37*
G36*
X56061567Y-42267201D02*
G01*
X56236159Y-42320163D01*
X56397057Y-42406165D01*
X56538091Y-42521909D01*
X56653835Y-42662943D01*
X56739837Y-42823841D01*
X56792799Y-42998433D01*
X56810681Y-43180000D01*
X56792799Y-43361567D01*
X56739837Y-43536159D01*
X56653835Y-43697057D01*
X56538091Y-43838091D01*
X56397057Y-43953835D01*
X56236159Y-44039837D01*
X56061567Y-44092799D01*
X55925500Y-44106200D01*
X55834500Y-44106200D01*
X55698433Y-44092799D01*
X55523841Y-44039837D01*
X55362943Y-43953835D01*
X55221909Y-43838091D01*
X55106165Y-43697057D01*
X55020163Y-43536159D01*
X54967201Y-43361567D01*
X54949319Y-43180000D01*
X54967201Y-42998433D01*
X55020163Y-42823841D01*
X55106165Y-42662943D01*
X55221909Y-42521909D01*
X55362943Y-42406165D01*
X55523841Y-42320163D01*
X55698433Y-42267201D01*
X55834500Y-42253800D01*
X55925500Y-42253800D01*
X56061567Y-42267201D01*
X56061567Y-42267201D01*
G37*
G36*
X40821567Y-42267201D02*
G01*
X40996159Y-42320163D01*
X41157057Y-42406165D01*
X41298091Y-42521909D01*
X41413835Y-42662943D01*
X41499837Y-42823841D01*
X41552799Y-42998433D01*
X41570681Y-43180000D01*
X41552799Y-43361567D01*
X41499837Y-43536159D01*
X41413835Y-43697057D01*
X41298091Y-43838091D01*
X41157057Y-43953835D01*
X40996159Y-44039837D01*
X40821567Y-44092799D01*
X40685500Y-44106200D01*
X40594500Y-44106200D01*
X40458433Y-44092799D01*
X40283841Y-44039837D01*
X40122943Y-43953835D01*
X39981909Y-43838091D01*
X39866165Y-43697057D01*
X39780163Y-43536159D01*
X39727201Y-43361567D01*
X39709319Y-43180000D01*
X39727201Y-42998433D01*
X39780163Y-42823841D01*
X39866165Y-42662943D01*
X39981909Y-42521909D01*
X40122943Y-42406165D01*
X40283841Y-42320163D01*
X40458433Y-42267201D01*
X40594500Y-42253800D01*
X40685500Y-42253800D01*
X40821567Y-42267201D01*
X40821567Y-42267201D01*
G37*
G36*
X54515391Y-41537043D02*
G01*
X54543461Y-41545558D01*
X54569329Y-41559385D01*
X54592005Y-41577995D01*
X54610615Y-41600671D01*
X54624442Y-41626539D01*
X54632957Y-41654609D01*
X54636200Y-41687542D01*
X54636200Y-42132458D01*
X54632957Y-42165391D01*
X54624442Y-42193461D01*
X54610615Y-42219329D01*
X54592005Y-42242005D01*
X54569329Y-42260615D01*
X54543461Y-42274442D01*
X54515391Y-42282957D01*
X54482458Y-42286200D01*
X53162542Y-42286200D01*
X53129609Y-42282957D01*
X53101539Y-42274442D01*
X53075671Y-42260615D01*
X53052995Y-42242005D01*
X53034385Y-42219329D01*
X53020558Y-42193461D01*
X53012043Y-42165391D01*
X53008800Y-42132458D01*
X53008800Y-41687542D01*
X53012043Y-41654609D01*
X53020558Y-41626539D01*
X53034385Y-41600671D01*
X53052995Y-41577995D01*
X53075671Y-41559385D01*
X53101539Y-41545558D01*
X53129609Y-41537043D01*
X53162542Y-41533800D01*
X54482458Y-41533800D01*
X54515391Y-41537043D01*
X54515391Y-41537043D01*
G37*
G36*
X43390391Y-41537043D02*
G01*
X43418461Y-41545558D01*
X43444329Y-41559385D01*
X43467005Y-41577995D01*
X43485615Y-41600671D01*
X43499442Y-41626539D01*
X43507957Y-41654609D01*
X43511200Y-41687542D01*
X43511200Y-42132458D01*
X43507957Y-42165391D01*
X43499442Y-42193461D01*
X43485615Y-42219329D01*
X43467005Y-42242005D01*
X43444329Y-42260615D01*
X43418461Y-42274442D01*
X43390391Y-42282957D01*
X43357458Y-42286200D01*
X42037542Y-42286200D01*
X42004609Y-42282957D01*
X41976539Y-42274442D01*
X41950671Y-42260615D01*
X41927995Y-42242005D01*
X41909385Y-42219329D01*
X41895558Y-42193461D01*
X41887043Y-42165391D01*
X41883800Y-42132458D01*
X41883800Y-41687542D01*
X41887043Y-41654609D01*
X41895558Y-41626539D01*
X41909385Y-41600671D01*
X41927995Y-41577995D01*
X41950671Y-41559385D01*
X41976539Y-41545558D01*
X42004609Y-41537043D01*
X42037542Y-41533800D01*
X43357458Y-41533800D01*
X43390391Y-41537043D01*
X43390391Y-41537043D01*
G37*
G36*
X40821567Y-39727201D02*
G01*
X40996159Y-39780163D01*
X41157057Y-39866165D01*
X41298091Y-39981909D01*
X41413835Y-40122943D01*
X41499837Y-40283841D01*
X41552799Y-40458433D01*
X41570681Y-40640000D01*
X41552799Y-40821567D01*
X41499837Y-40996159D01*
X41413835Y-41157057D01*
X41298091Y-41298091D01*
X41157057Y-41413835D01*
X40996159Y-41499837D01*
X40821567Y-41552799D01*
X40685500Y-41566200D01*
X40594500Y-41566200D01*
X40458433Y-41552799D01*
X40283841Y-41499837D01*
X40122943Y-41413835D01*
X39981909Y-41298091D01*
X39866165Y-41157057D01*
X39780163Y-40996159D01*
X39727201Y-40821567D01*
X39709319Y-40640000D01*
X39727201Y-40458433D01*
X39780163Y-40283841D01*
X39866165Y-40122943D01*
X39981909Y-39981909D01*
X40122943Y-39866165D01*
X40283841Y-39780163D01*
X40458433Y-39727201D01*
X40594500Y-39713800D01*
X40685500Y-39713800D01*
X40821567Y-39727201D01*
X40821567Y-39727201D01*
G37*
G36*
X56061567Y-39727201D02*
G01*
X56236159Y-39780163D01*
X56397057Y-39866165D01*
X56538091Y-39981909D01*
X56653835Y-40122943D01*
X56739837Y-40283841D01*
X56792799Y-40458433D01*
X56810681Y-40640000D01*
X56792799Y-40821567D01*
X56739837Y-40996159D01*
X56653835Y-41157057D01*
X56538091Y-41298091D01*
X56397057Y-41413835D01*
X56236159Y-41499837D01*
X56061567Y-41552799D01*
X55925500Y-41566200D01*
X55834500Y-41566200D01*
X55698433Y-41552799D01*
X55523841Y-41499837D01*
X55362943Y-41413835D01*
X55221909Y-41298091D01*
X55106165Y-41157057D01*
X55020163Y-40996159D01*
X54967201Y-40821567D01*
X54949319Y-40640000D01*
X54967201Y-40458433D01*
X55020163Y-40283841D01*
X55106165Y-40122943D01*
X55221909Y-39981909D01*
X55362943Y-39866165D01*
X55523841Y-39780163D01*
X55698433Y-39727201D01*
X55834500Y-39713800D01*
X55925500Y-39713800D01*
X56061567Y-39727201D01*
X56061567Y-39727201D01*
G37*
G36*
X43390391Y-40267043D02*
G01*
X43418461Y-40275558D01*
X43444329Y-40289385D01*
X43467005Y-40307995D01*
X43485615Y-40330671D01*
X43499442Y-40356539D01*
X43507957Y-40384609D01*
X43511200Y-40417542D01*
X43511200Y-40862458D01*
X43507957Y-40895391D01*
X43499442Y-40923461D01*
X43485615Y-40949329D01*
X43467005Y-40972005D01*
X43444329Y-40990615D01*
X43418461Y-41004442D01*
X43390391Y-41012957D01*
X43357458Y-41016200D01*
X42037542Y-41016200D01*
X42004609Y-41012957D01*
X41976539Y-41004442D01*
X41950671Y-40990615D01*
X41927995Y-40972005D01*
X41909385Y-40949329D01*
X41895558Y-40923461D01*
X41887043Y-40895391D01*
X41883800Y-40862458D01*
X41883800Y-40417542D01*
X41887043Y-40384609D01*
X41895558Y-40356539D01*
X41909385Y-40330671D01*
X41927995Y-40307995D01*
X41950671Y-40289385D01*
X41976539Y-40275558D01*
X42004609Y-40267043D01*
X42037542Y-40263800D01*
X43357458Y-40263800D01*
X43390391Y-40267043D01*
X43390391Y-40267043D01*
G37*
G36*
X54515391Y-40267043D02*
G01*
X54543461Y-40275558D01*
X54569329Y-40289385D01*
X54592005Y-40307995D01*
X54610615Y-40330671D01*
X54624442Y-40356539D01*
X54632957Y-40384609D01*
X54636200Y-40417542D01*
X54636200Y-40862458D01*
X54632957Y-40895391D01*
X54624442Y-40923461D01*
X54610615Y-40949329D01*
X54592005Y-40972005D01*
X54569329Y-40990615D01*
X54543461Y-41004442D01*
X54515391Y-41012957D01*
X54482458Y-41016200D01*
X53162542Y-41016200D01*
X53129609Y-41012957D01*
X53101539Y-41004442D01*
X53075671Y-40990615D01*
X53052995Y-40972005D01*
X53034385Y-40949329D01*
X53020558Y-40923461D01*
X53012043Y-40895391D01*
X53008800Y-40862458D01*
X53008800Y-40417542D01*
X53012043Y-40384609D01*
X53020558Y-40356539D01*
X53034385Y-40330671D01*
X53052995Y-40307995D01*
X53075671Y-40289385D01*
X53101539Y-40275558D01*
X53129609Y-40267043D01*
X53162542Y-40263800D01*
X54482458Y-40263800D01*
X54515391Y-40267043D01*
X54515391Y-40267043D01*
G37*
G36*
X43390391Y-38997043D02*
G01*
X43418461Y-39005558D01*
X43444329Y-39019385D01*
X43467005Y-39037995D01*
X43485615Y-39060671D01*
X43499442Y-39086539D01*
X43507957Y-39114609D01*
X43511200Y-39147542D01*
X43511200Y-39592458D01*
X43507957Y-39625391D01*
X43499442Y-39653461D01*
X43485615Y-39679329D01*
X43467005Y-39702005D01*
X43444329Y-39720615D01*
X43418461Y-39734442D01*
X43390391Y-39742957D01*
X43357458Y-39746200D01*
X42037542Y-39746200D01*
X42004609Y-39742957D01*
X41976539Y-39734442D01*
X41950671Y-39720615D01*
X41927995Y-39702005D01*
X41909385Y-39679329D01*
X41895558Y-39653461D01*
X41887043Y-39625391D01*
X41883800Y-39592458D01*
X41883800Y-39147542D01*
X41887043Y-39114609D01*
X41895558Y-39086539D01*
X41909385Y-39060671D01*
X41927995Y-39037995D01*
X41950671Y-39019385D01*
X41976539Y-39005558D01*
X42004609Y-38997043D01*
X42037542Y-38993800D01*
X43357458Y-38993800D01*
X43390391Y-38997043D01*
X43390391Y-38997043D01*
G37*
G36*
X54515391Y-38997043D02*
G01*
X54543461Y-39005558D01*
X54569329Y-39019385D01*
X54592005Y-39037995D01*
X54610615Y-39060671D01*
X54624442Y-39086539D01*
X54632957Y-39114609D01*
X54636200Y-39147542D01*
X54636200Y-39592458D01*
X54632957Y-39625391D01*
X54624442Y-39653461D01*
X54610615Y-39679329D01*
X54592005Y-39702005D01*
X54569329Y-39720615D01*
X54543461Y-39734442D01*
X54515391Y-39742957D01*
X54482458Y-39746200D01*
X53162542Y-39746200D01*
X53129609Y-39742957D01*
X53101539Y-39734442D01*
X53075671Y-39720615D01*
X53052995Y-39702005D01*
X53034385Y-39679329D01*
X53020558Y-39653461D01*
X53012043Y-39625391D01*
X53008800Y-39592458D01*
X53008800Y-39147542D01*
X53012043Y-39114609D01*
X53020558Y-39086539D01*
X53034385Y-39060671D01*
X53052995Y-39037995D01*
X53075671Y-39019385D01*
X53101539Y-39005558D01*
X53129609Y-38997043D01*
X53162542Y-38993800D01*
X54482458Y-38993800D01*
X54515391Y-38997043D01*
X54515391Y-38997043D01*
G37*
G36*
X40821567Y-37187201D02*
G01*
X40996159Y-37240163D01*
X41157057Y-37326165D01*
X41298091Y-37441909D01*
X41413835Y-37582943D01*
X41499837Y-37743841D01*
X41552799Y-37918433D01*
X41570681Y-38100000D01*
X41552799Y-38281567D01*
X41499837Y-38456159D01*
X41413835Y-38617057D01*
X41298091Y-38758091D01*
X41157057Y-38873835D01*
X40996159Y-38959837D01*
X40821567Y-39012799D01*
X40685500Y-39026200D01*
X40594500Y-39026200D01*
X40458433Y-39012799D01*
X40283841Y-38959837D01*
X40122943Y-38873835D01*
X39981909Y-38758091D01*
X39866165Y-38617057D01*
X39780163Y-38456159D01*
X39727201Y-38281567D01*
X39709319Y-38100000D01*
X39727201Y-37918433D01*
X39780163Y-37743841D01*
X39866165Y-37582943D01*
X39981909Y-37441909D01*
X40122943Y-37326165D01*
X40283841Y-37240163D01*
X40458433Y-37187201D01*
X40594500Y-37173800D01*
X40685500Y-37173800D01*
X40821567Y-37187201D01*
X40821567Y-37187201D01*
G37*
G36*
X56061567Y-37187201D02*
G01*
X56236159Y-37240163D01*
X56397057Y-37326165D01*
X56538091Y-37441909D01*
X56653835Y-37582943D01*
X56739837Y-37743841D01*
X56792799Y-37918433D01*
X56810681Y-38100000D01*
X56792799Y-38281567D01*
X56739837Y-38456159D01*
X56653835Y-38617057D01*
X56538091Y-38758091D01*
X56397057Y-38873835D01*
X56236159Y-38959837D01*
X56061567Y-39012799D01*
X55925500Y-39026200D01*
X55834500Y-39026200D01*
X55698433Y-39012799D01*
X55523841Y-38959837D01*
X55362943Y-38873835D01*
X55221909Y-38758091D01*
X55106165Y-38617057D01*
X55020163Y-38456159D01*
X54967201Y-38281567D01*
X54949319Y-38100000D01*
X54967201Y-37918433D01*
X55020163Y-37743841D01*
X55106165Y-37582943D01*
X55221909Y-37441909D01*
X55362943Y-37326165D01*
X55523841Y-37240163D01*
X55698433Y-37187201D01*
X55834500Y-37173800D01*
X55925500Y-37173800D01*
X56061567Y-37187201D01*
X56061567Y-37187201D01*
G37*
G36*
X54515391Y-37727043D02*
G01*
X54543461Y-37735558D01*
X54569329Y-37749385D01*
X54592005Y-37767995D01*
X54610615Y-37790671D01*
X54624442Y-37816539D01*
X54632957Y-37844609D01*
X54636200Y-37877542D01*
X54636200Y-38322458D01*
X54632957Y-38355391D01*
X54624442Y-38383461D01*
X54610615Y-38409329D01*
X54592005Y-38432005D01*
X54569329Y-38450615D01*
X54543461Y-38464442D01*
X54515391Y-38472957D01*
X54482458Y-38476200D01*
X53162542Y-38476200D01*
X53129609Y-38472957D01*
X53101539Y-38464442D01*
X53075671Y-38450615D01*
X53052995Y-38432005D01*
X53034385Y-38409329D01*
X53020558Y-38383461D01*
X53012043Y-38355391D01*
X53008800Y-38322458D01*
X53008800Y-37877542D01*
X53012043Y-37844609D01*
X53020558Y-37816539D01*
X53034385Y-37790671D01*
X53052995Y-37767995D01*
X53075671Y-37749385D01*
X53101539Y-37735558D01*
X53129609Y-37727043D01*
X53162542Y-37723800D01*
X54482458Y-37723800D01*
X54515391Y-37727043D01*
X54515391Y-37727043D01*
G37*
G36*
X43390391Y-37727043D02*
G01*
X43418461Y-37735558D01*
X43444329Y-37749385D01*
X43467005Y-37767995D01*
X43485615Y-37790671D01*
X43499442Y-37816539D01*
X43507957Y-37844609D01*
X43511200Y-37877542D01*
X43511200Y-38322458D01*
X43507957Y-38355391D01*
X43499442Y-38383461D01*
X43485615Y-38409329D01*
X43467005Y-38432005D01*
X43444329Y-38450615D01*
X43418461Y-38464442D01*
X43390391Y-38472957D01*
X43357458Y-38476200D01*
X42037542Y-38476200D01*
X42004609Y-38472957D01*
X41976539Y-38464442D01*
X41950671Y-38450615D01*
X41927995Y-38432005D01*
X41909385Y-38409329D01*
X41895558Y-38383461D01*
X41887043Y-38355391D01*
X41883800Y-38322458D01*
X41883800Y-37877542D01*
X41887043Y-37844609D01*
X41895558Y-37816539D01*
X41909385Y-37790671D01*
X41927995Y-37767995D01*
X41950671Y-37749385D01*
X41976539Y-37735558D01*
X42004609Y-37727043D01*
X42037542Y-37723800D01*
X43357458Y-37723800D01*
X43390391Y-37727043D01*
X43390391Y-37727043D01*
G37*
G36*
X54515391Y-36457043D02*
G01*
X54543461Y-36465558D01*
X54569329Y-36479385D01*
X54592005Y-36497995D01*
X54610615Y-36520671D01*
X54624442Y-36546539D01*
X54632957Y-36574609D01*
X54636200Y-36607542D01*
X54636200Y-37052458D01*
X54632957Y-37085391D01*
X54624442Y-37113461D01*
X54610615Y-37139329D01*
X54592005Y-37162005D01*
X54569329Y-37180615D01*
X54543461Y-37194442D01*
X54515391Y-37202957D01*
X54482458Y-37206200D01*
X53162542Y-37206200D01*
X53129609Y-37202957D01*
X53101539Y-37194442D01*
X53075671Y-37180615D01*
X53052995Y-37162005D01*
X53034385Y-37139329D01*
X53020558Y-37113461D01*
X53012043Y-37085391D01*
X53008800Y-37052458D01*
X53008800Y-36607542D01*
X53012043Y-36574609D01*
X53020558Y-36546539D01*
X53034385Y-36520671D01*
X53052995Y-36497995D01*
X53075671Y-36479385D01*
X53101539Y-36465558D01*
X53129609Y-36457043D01*
X53162542Y-36453800D01*
X54482458Y-36453800D01*
X54515391Y-36457043D01*
X54515391Y-36457043D01*
G37*
G36*
X43390391Y-36457043D02*
G01*
X43418461Y-36465558D01*
X43444329Y-36479385D01*
X43467005Y-36497995D01*
X43485615Y-36520671D01*
X43499442Y-36546539D01*
X43507957Y-36574609D01*
X43511200Y-36607542D01*
X43511200Y-37052458D01*
X43507957Y-37085391D01*
X43499442Y-37113461D01*
X43485615Y-37139329D01*
X43467005Y-37162005D01*
X43444329Y-37180615D01*
X43418461Y-37194442D01*
X43390391Y-37202957D01*
X43357458Y-37206200D01*
X42037542Y-37206200D01*
X42004609Y-37202957D01*
X41976539Y-37194442D01*
X41950671Y-37180615D01*
X41927995Y-37162005D01*
X41909385Y-37139329D01*
X41895558Y-37113461D01*
X41887043Y-37085391D01*
X41883800Y-37052458D01*
X41883800Y-36607542D01*
X41887043Y-36574609D01*
X41895558Y-36546539D01*
X41909385Y-36520671D01*
X41927995Y-36497995D01*
X41950671Y-36479385D01*
X41976539Y-36465558D01*
X42004609Y-36457043D01*
X42037542Y-36453800D01*
X43357458Y-36453800D01*
X43390391Y-36457043D01*
X43390391Y-36457043D01*
G37*
G36*
X40821567Y-34647201D02*
G01*
X40996159Y-34700163D01*
X41157057Y-34786165D01*
X41298091Y-34901909D01*
X41413835Y-35042943D01*
X41499837Y-35203841D01*
X41552799Y-35378433D01*
X41570681Y-35560000D01*
X41552799Y-35741567D01*
X41499837Y-35916159D01*
X41413835Y-36077057D01*
X41298091Y-36218091D01*
X41157057Y-36333835D01*
X40996159Y-36419837D01*
X40821567Y-36472799D01*
X40685500Y-36486200D01*
X40594500Y-36486200D01*
X40458433Y-36472799D01*
X40283841Y-36419837D01*
X40122943Y-36333835D01*
X39981909Y-36218091D01*
X39866165Y-36077057D01*
X39780163Y-35916159D01*
X39727201Y-35741567D01*
X39709319Y-35560000D01*
X39727201Y-35378433D01*
X39780163Y-35203841D01*
X39866165Y-35042943D01*
X39981909Y-34901909D01*
X40122943Y-34786165D01*
X40283841Y-34700163D01*
X40458433Y-34647201D01*
X40594500Y-34633800D01*
X40685500Y-34633800D01*
X40821567Y-34647201D01*
X40821567Y-34647201D01*
G37*
G36*
X56061567Y-34647201D02*
G01*
X56236159Y-34700163D01*
X56397057Y-34786165D01*
X56538091Y-34901909D01*
X56653835Y-35042943D01*
X56739837Y-35203841D01*
X56792799Y-35378433D01*
X56810681Y-35560000D01*
X56792799Y-35741567D01*
X56739837Y-35916159D01*
X56653835Y-36077057D01*
X56538091Y-36218091D01*
X56397057Y-36333835D01*
X56236159Y-36419837D01*
X56061567Y-36472799D01*
X55925500Y-36486200D01*
X55834500Y-36486200D01*
X55698433Y-36472799D01*
X55523841Y-36419837D01*
X55362943Y-36333835D01*
X55221909Y-36218091D01*
X55106165Y-36077057D01*
X55020163Y-35916159D01*
X54967201Y-35741567D01*
X54949319Y-35560000D01*
X54967201Y-35378433D01*
X55020163Y-35203841D01*
X55106165Y-35042943D01*
X55221909Y-34901909D01*
X55362943Y-34786165D01*
X55523841Y-34700163D01*
X55698433Y-34647201D01*
X55834500Y-34633800D01*
X55925500Y-34633800D01*
X56061567Y-34647201D01*
X56061567Y-34647201D01*
G37*
G36*
X54515391Y-35187043D02*
G01*
X54543461Y-35195558D01*
X54569329Y-35209385D01*
X54592005Y-35227995D01*
X54610615Y-35250671D01*
X54624442Y-35276539D01*
X54632957Y-35304609D01*
X54636200Y-35337542D01*
X54636200Y-35782458D01*
X54632957Y-35815391D01*
X54624442Y-35843461D01*
X54610615Y-35869329D01*
X54592005Y-35892005D01*
X54569329Y-35910615D01*
X54543461Y-35924442D01*
X54515391Y-35932957D01*
X54482458Y-35936200D01*
X53162542Y-35936200D01*
X53129609Y-35932957D01*
X53101539Y-35924442D01*
X53075671Y-35910615D01*
X53052995Y-35892005D01*
X53034385Y-35869329D01*
X53020558Y-35843461D01*
X53012043Y-35815391D01*
X53008800Y-35782458D01*
X53008800Y-35337542D01*
X53012043Y-35304609D01*
X53020558Y-35276539D01*
X53034385Y-35250671D01*
X53052995Y-35227995D01*
X53075671Y-35209385D01*
X53101539Y-35195558D01*
X53129609Y-35187043D01*
X53162542Y-35183800D01*
X54482458Y-35183800D01*
X54515391Y-35187043D01*
X54515391Y-35187043D01*
G37*
G36*
X43390391Y-35187043D02*
G01*
X43418461Y-35195558D01*
X43444329Y-35209385D01*
X43467005Y-35227995D01*
X43485615Y-35250671D01*
X43499442Y-35276539D01*
X43507957Y-35304609D01*
X43511200Y-35337542D01*
X43511200Y-35782458D01*
X43507957Y-35815391D01*
X43499442Y-35843461D01*
X43485615Y-35869329D01*
X43467005Y-35892005D01*
X43444329Y-35910615D01*
X43418461Y-35924442D01*
X43390391Y-35932957D01*
X43357458Y-35936200D01*
X42037542Y-35936200D01*
X42004609Y-35932957D01*
X41976539Y-35924442D01*
X41950671Y-35910615D01*
X41927995Y-35892005D01*
X41909385Y-35869329D01*
X41895558Y-35843461D01*
X41887043Y-35815391D01*
X41883800Y-35782458D01*
X41883800Y-35337542D01*
X41887043Y-35304609D01*
X41895558Y-35276539D01*
X41909385Y-35250671D01*
X41927995Y-35227995D01*
X41950671Y-35209385D01*
X41976539Y-35195558D01*
X42004609Y-35187043D01*
X42037542Y-35183800D01*
X43357458Y-35183800D01*
X43390391Y-35187043D01*
X43390391Y-35187043D01*
G37*
G36*
X54515391Y-33917043D02*
G01*
X54543461Y-33925558D01*
X54569329Y-33939385D01*
X54592005Y-33957995D01*
X54610615Y-33980671D01*
X54624442Y-34006539D01*
X54632957Y-34034609D01*
X54636200Y-34067542D01*
X54636200Y-34512458D01*
X54632957Y-34545391D01*
X54624442Y-34573461D01*
X54610615Y-34599329D01*
X54592005Y-34622005D01*
X54569329Y-34640615D01*
X54543461Y-34654442D01*
X54515391Y-34662957D01*
X54482458Y-34666200D01*
X53162542Y-34666200D01*
X53129609Y-34662957D01*
X53101539Y-34654442D01*
X53075671Y-34640615D01*
X53052995Y-34622005D01*
X53034385Y-34599329D01*
X53020558Y-34573461D01*
X53012043Y-34545391D01*
X53008800Y-34512458D01*
X53008800Y-34067542D01*
X53012043Y-34034609D01*
X53020558Y-34006539D01*
X53034385Y-33980671D01*
X53052995Y-33957995D01*
X53075671Y-33939385D01*
X53101539Y-33925558D01*
X53129609Y-33917043D01*
X53162542Y-33913800D01*
X54482458Y-33913800D01*
X54515391Y-33917043D01*
X54515391Y-33917043D01*
G37*
G36*
X43390391Y-33917043D02*
G01*
X43418461Y-33925558D01*
X43444329Y-33939385D01*
X43467005Y-33957995D01*
X43485615Y-33980671D01*
X43499442Y-34006539D01*
X43507957Y-34034609D01*
X43511200Y-34067542D01*
X43511200Y-34512458D01*
X43507957Y-34545391D01*
X43499442Y-34573461D01*
X43485615Y-34599329D01*
X43467005Y-34622005D01*
X43444329Y-34640615D01*
X43418461Y-34654442D01*
X43390391Y-34662957D01*
X43357458Y-34666200D01*
X42037542Y-34666200D01*
X42004609Y-34662957D01*
X41976539Y-34654442D01*
X41950671Y-34640615D01*
X41927995Y-34622005D01*
X41909385Y-34599329D01*
X41895558Y-34573461D01*
X41887043Y-34545391D01*
X41883800Y-34512458D01*
X41883800Y-34067542D01*
X41887043Y-34034609D01*
X41895558Y-34006539D01*
X41909385Y-33980671D01*
X41927995Y-33957995D01*
X41950671Y-33939385D01*
X41976539Y-33925558D01*
X42004609Y-33917043D01*
X42037542Y-33913800D01*
X43357458Y-33913800D01*
X43390391Y-33917043D01*
X43390391Y-33917043D01*
G37*
G36*
X56061567Y-32107201D02*
G01*
X56236159Y-32160163D01*
X56397057Y-32246165D01*
X56538091Y-32361909D01*
X56653835Y-32502943D01*
X56739837Y-32663841D01*
X56792799Y-32838433D01*
X56810681Y-33020000D01*
X56792799Y-33201567D01*
X56739837Y-33376159D01*
X56653835Y-33537057D01*
X56538091Y-33678091D01*
X56397057Y-33793835D01*
X56236159Y-33879837D01*
X56061567Y-33932799D01*
X55925500Y-33946200D01*
X55834500Y-33946200D01*
X55698433Y-33932799D01*
X55523841Y-33879837D01*
X55362943Y-33793835D01*
X55221909Y-33678091D01*
X55106165Y-33537057D01*
X55020163Y-33376159D01*
X54967201Y-33201567D01*
X54949319Y-33020000D01*
X54967201Y-32838433D01*
X55020163Y-32663841D01*
X55106165Y-32502943D01*
X55221909Y-32361909D01*
X55362943Y-32246165D01*
X55523841Y-32160163D01*
X55698433Y-32107201D01*
X55834500Y-32093800D01*
X55925500Y-32093800D01*
X56061567Y-32107201D01*
X56061567Y-32107201D01*
G37*
G36*
X40821567Y-32107201D02*
G01*
X40996159Y-32160163D01*
X41157057Y-32246165D01*
X41298091Y-32361909D01*
X41413835Y-32502943D01*
X41499837Y-32663841D01*
X41552799Y-32838433D01*
X41570681Y-33020000D01*
X41552799Y-33201567D01*
X41499837Y-33376159D01*
X41413835Y-33537057D01*
X41298091Y-33678091D01*
X41157057Y-33793835D01*
X40996159Y-33879837D01*
X40821567Y-33932799D01*
X40685500Y-33946200D01*
X40594500Y-33946200D01*
X40458433Y-33932799D01*
X40283841Y-33879837D01*
X40122943Y-33793835D01*
X39981909Y-33678091D01*
X39866165Y-33537057D01*
X39780163Y-33376159D01*
X39727201Y-33201567D01*
X39709319Y-33020000D01*
X39727201Y-32838433D01*
X39780163Y-32663841D01*
X39866165Y-32502943D01*
X39981909Y-32361909D01*
X40122943Y-32246165D01*
X40283841Y-32160163D01*
X40458433Y-32107201D01*
X40594500Y-32093800D01*
X40685500Y-32093800D01*
X40821567Y-32107201D01*
X40821567Y-32107201D01*
G37*
G36*
X43390391Y-32647043D02*
G01*
X43418461Y-32655558D01*
X43444329Y-32669385D01*
X43467005Y-32687995D01*
X43485615Y-32710671D01*
X43499442Y-32736539D01*
X43507957Y-32764609D01*
X43511200Y-32797542D01*
X43511200Y-33242458D01*
X43507957Y-33275391D01*
X43499442Y-33303461D01*
X43485615Y-33329329D01*
X43467005Y-33352005D01*
X43444329Y-33370615D01*
X43418461Y-33384442D01*
X43390391Y-33392957D01*
X43357458Y-33396200D01*
X42037542Y-33396200D01*
X42004609Y-33392957D01*
X41976539Y-33384442D01*
X41950671Y-33370615D01*
X41927995Y-33352005D01*
X41909385Y-33329329D01*
X41895558Y-33303461D01*
X41887043Y-33275391D01*
X41883800Y-33242458D01*
X41883800Y-32797542D01*
X41887043Y-32764609D01*
X41895558Y-32736539D01*
X41909385Y-32710671D01*
X41927995Y-32687995D01*
X41950671Y-32669385D01*
X41976539Y-32655558D01*
X42004609Y-32647043D01*
X42037542Y-32643800D01*
X43357458Y-32643800D01*
X43390391Y-32647043D01*
X43390391Y-32647043D01*
G37*
G36*
X54515391Y-32647043D02*
G01*
X54543461Y-32655558D01*
X54569329Y-32669385D01*
X54592005Y-32687995D01*
X54610615Y-32710671D01*
X54624442Y-32736539D01*
X54632957Y-32764609D01*
X54636200Y-32797542D01*
X54636200Y-33242458D01*
X54632957Y-33275391D01*
X54624442Y-33303461D01*
X54610615Y-33329329D01*
X54592005Y-33352005D01*
X54569329Y-33370615D01*
X54543461Y-33384442D01*
X54515391Y-33392957D01*
X54482458Y-33396200D01*
X53162542Y-33396200D01*
X53129609Y-33392957D01*
X53101539Y-33384442D01*
X53075671Y-33370615D01*
X53052995Y-33352005D01*
X53034385Y-33329329D01*
X53020558Y-33303461D01*
X53012043Y-33275391D01*
X53008800Y-33242458D01*
X53008800Y-32797542D01*
X53012043Y-32764609D01*
X53020558Y-32736539D01*
X53034385Y-32710671D01*
X53052995Y-32687995D01*
X53075671Y-32669385D01*
X53101539Y-32655558D01*
X53129609Y-32647043D01*
X53162542Y-32643800D01*
X54482458Y-32643800D01*
X54515391Y-32647043D01*
X54515391Y-32647043D01*
G37*
G36*
X43390391Y-31377043D02*
G01*
X43418461Y-31385558D01*
X43444329Y-31399385D01*
X43467005Y-31417995D01*
X43485615Y-31440671D01*
X43499442Y-31466539D01*
X43507957Y-31494609D01*
X43511200Y-31527542D01*
X43511200Y-31972458D01*
X43507957Y-32005391D01*
X43499442Y-32033461D01*
X43485615Y-32059329D01*
X43467005Y-32082005D01*
X43444329Y-32100615D01*
X43418461Y-32114442D01*
X43390391Y-32122957D01*
X43357458Y-32126200D01*
X42037542Y-32126200D01*
X42004609Y-32122957D01*
X41976539Y-32114442D01*
X41950671Y-32100615D01*
X41927995Y-32082005D01*
X41909385Y-32059329D01*
X41895558Y-32033461D01*
X41887043Y-32005391D01*
X41883800Y-31972458D01*
X41883800Y-31527542D01*
X41887043Y-31494609D01*
X41895558Y-31466539D01*
X41909385Y-31440671D01*
X41927995Y-31417995D01*
X41950671Y-31399385D01*
X41976539Y-31385558D01*
X42004609Y-31377043D01*
X42037542Y-31373800D01*
X43357458Y-31373800D01*
X43390391Y-31377043D01*
X43390391Y-31377043D01*
G37*
G36*
X54515391Y-31377043D02*
G01*
X54543461Y-31385558D01*
X54569329Y-31399385D01*
X54592005Y-31417995D01*
X54610615Y-31440671D01*
X54624442Y-31466539D01*
X54632957Y-31494609D01*
X54636200Y-31527542D01*
X54636200Y-31972458D01*
X54632957Y-32005391D01*
X54624442Y-32033461D01*
X54610615Y-32059329D01*
X54592005Y-32082005D01*
X54569329Y-32100615D01*
X54543461Y-32114442D01*
X54515391Y-32122957D01*
X54482458Y-32126200D01*
X53162542Y-32126200D01*
X53129609Y-32122957D01*
X53101539Y-32114442D01*
X53075671Y-32100615D01*
X53052995Y-32082005D01*
X53034385Y-32059329D01*
X53020558Y-32033461D01*
X53012043Y-32005391D01*
X53008800Y-31972458D01*
X53008800Y-31527542D01*
X53012043Y-31494609D01*
X53020558Y-31466539D01*
X53034385Y-31440671D01*
X53052995Y-31417995D01*
X53075671Y-31399385D01*
X53101539Y-31385558D01*
X53129609Y-31377043D01*
X53162542Y-31373800D01*
X54482458Y-31373800D01*
X54515391Y-31377043D01*
X54515391Y-31377043D01*
G37*
G36*
X56061567Y-29567201D02*
G01*
X56236159Y-29620163D01*
X56397057Y-29706165D01*
X56538091Y-29821909D01*
X56653835Y-29962943D01*
X56739837Y-30123841D01*
X56792799Y-30298433D01*
X56810681Y-30480000D01*
X56792799Y-30661567D01*
X56739837Y-30836159D01*
X56653835Y-30997057D01*
X56538091Y-31138091D01*
X56397057Y-31253835D01*
X56236159Y-31339837D01*
X56061567Y-31392799D01*
X55925500Y-31406200D01*
X55834500Y-31406200D01*
X55698433Y-31392799D01*
X55523841Y-31339837D01*
X55362943Y-31253835D01*
X55221909Y-31138091D01*
X55106165Y-30997057D01*
X55020163Y-30836159D01*
X54967201Y-30661567D01*
X54949319Y-30480000D01*
X54967201Y-30298433D01*
X55020163Y-30123841D01*
X55106165Y-29962943D01*
X55221909Y-29821909D01*
X55362943Y-29706165D01*
X55523841Y-29620163D01*
X55698433Y-29567201D01*
X55834500Y-29553800D01*
X55925500Y-29553800D01*
X56061567Y-29567201D01*
X56061567Y-29567201D01*
G37*
G36*
X40821567Y-29567201D02*
G01*
X40996159Y-29620163D01*
X41157057Y-29706165D01*
X41298091Y-29821909D01*
X41413835Y-29962943D01*
X41499837Y-30123841D01*
X41552799Y-30298433D01*
X41570681Y-30480000D01*
X41552799Y-30661567D01*
X41499837Y-30836159D01*
X41413835Y-30997057D01*
X41298091Y-31138091D01*
X41157057Y-31253835D01*
X40996159Y-31339837D01*
X40821567Y-31392799D01*
X40685500Y-31406200D01*
X40594500Y-31406200D01*
X40458433Y-31392799D01*
X40283841Y-31339837D01*
X40122943Y-31253835D01*
X39981909Y-31138091D01*
X39866165Y-30997057D01*
X39780163Y-30836159D01*
X39727201Y-30661567D01*
X39709319Y-30480000D01*
X39727201Y-30298433D01*
X39780163Y-30123841D01*
X39866165Y-29962943D01*
X39981909Y-29821909D01*
X40122943Y-29706165D01*
X40283841Y-29620163D01*
X40458433Y-29567201D01*
X40594500Y-29553800D01*
X40685500Y-29553800D01*
X40821567Y-29567201D01*
X40821567Y-29567201D01*
G37*
G36*
X49785391Y-29182043D02*
G01*
X49813461Y-29190558D01*
X49839329Y-29204385D01*
X49862005Y-29222995D01*
X49880615Y-29245671D01*
X49894442Y-29271539D01*
X49902957Y-29299609D01*
X49906200Y-29332542D01*
X49906200Y-30652458D01*
X49902957Y-30685391D01*
X49894442Y-30713461D01*
X49880615Y-30739329D01*
X49862005Y-30762005D01*
X49839329Y-30780615D01*
X49813461Y-30794442D01*
X49785391Y-30802957D01*
X49752458Y-30806200D01*
X49307542Y-30806200D01*
X49274609Y-30802957D01*
X49246539Y-30794442D01*
X49220671Y-30780615D01*
X49197995Y-30762005D01*
X49179385Y-30739329D01*
X49165558Y-30713461D01*
X49157043Y-30685391D01*
X49153800Y-30652458D01*
X49153800Y-29332542D01*
X49157043Y-29299609D01*
X49165558Y-29271539D01*
X49179385Y-29245671D01*
X49197995Y-29222995D01*
X49220671Y-29204385D01*
X49246539Y-29190558D01*
X49274609Y-29182043D01*
X49307542Y-29178800D01*
X49752458Y-29178800D01*
X49785391Y-29182043D01*
X49785391Y-29182043D01*
G37*
G36*
X51055391Y-29182043D02*
G01*
X51083461Y-29190558D01*
X51109329Y-29204385D01*
X51132005Y-29222995D01*
X51150615Y-29245671D01*
X51164442Y-29271539D01*
X51172957Y-29299609D01*
X51176200Y-29332542D01*
X51176200Y-30652458D01*
X51172957Y-30685391D01*
X51164442Y-30713461D01*
X51150615Y-30739329D01*
X51132005Y-30762005D01*
X51109329Y-30780615D01*
X51083461Y-30794442D01*
X51055391Y-30802957D01*
X51022458Y-30806200D01*
X50577542Y-30806200D01*
X50544609Y-30802957D01*
X50516539Y-30794442D01*
X50490671Y-30780615D01*
X50467995Y-30762005D01*
X50449385Y-30739329D01*
X50435558Y-30713461D01*
X50427043Y-30685391D01*
X50423800Y-30652458D01*
X50423800Y-29332542D01*
X50427043Y-29299609D01*
X50435558Y-29271539D01*
X50449385Y-29245671D01*
X50467995Y-29222995D01*
X50490671Y-29204385D01*
X50516539Y-29190558D01*
X50544609Y-29182043D01*
X50577542Y-29178800D01*
X51022458Y-29178800D01*
X51055391Y-29182043D01*
X51055391Y-29182043D01*
G37*
G36*
X52325391Y-29182043D02*
G01*
X52353461Y-29190558D01*
X52379329Y-29204385D01*
X52402005Y-29222995D01*
X52420615Y-29245671D01*
X52434442Y-29271539D01*
X52442957Y-29299609D01*
X52446200Y-29332542D01*
X52446200Y-30652458D01*
X52442957Y-30685391D01*
X52434442Y-30713461D01*
X52420615Y-30739329D01*
X52402005Y-30762005D01*
X52379329Y-30780615D01*
X52353461Y-30794442D01*
X52325391Y-30802957D01*
X52292458Y-30806200D01*
X51847542Y-30806200D01*
X51814609Y-30802957D01*
X51786539Y-30794442D01*
X51760671Y-30780615D01*
X51737995Y-30762005D01*
X51719385Y-30739329D01*
X51705558Y-30713461D01*
X51697043Y-30685391D01*
X51693800Y-30652458D01*
X51693800Y-29332542D01*
X51697043Y-29299609D01*
X51705558Y-29271539D01*
X51719385Y-29245671D01*
X51737995Y-29222995D01*
X51760671Y-29204385D01*
X51786539Y-29190558D01*
X51814609Y-29182043D01*
X51847542Y-29178800D01*
X52292458Y-29178800D01*
X52325391Y-29182043D01*
X52325391Y-29182043D01*
G37*
G36*
X48515391Y-29182043D02*
G01*
X48543461Y-29190558D01*
X48569329Y-29204385D01*
X48592005Y-29222995D01*
X48610615Y-29245671D01*
X48624442Y-29271539D01*
X48632957Y-29299609D01*
X48636200Y-29332542D01*
X48636200Y-30652458D01*
X48632957Y-30685391D01*
X48624442Y-30713461D01*
X48610615Y-30739329D01*
X48592005Y-30762005D01*
X48569329Y-30780615D01*
X48543461Y-30794442D01*
X48515391Y-30802957D01*
X48482458Y-30806200D01*
X48037542Y-30806200D01*
X48004609Y-30802957D01*
X47976539Y-30794442D01*
X47950671Y-30780615D01*
X47927995Y-30762005D01*
X47909385Y-30739329D01*
X47895558Y-30713461D01*
X47887043Y-30685391D01*
X47883800Y-30652458D01*
X47883800Y-29332542D01*
X47887043Y-29299609D01*
X47895558Y-29271539D01*
X47909385Y-29245671D01*
X47927995Y-29222995D01*
X47950671Y-29204385D01*
X47976539Y-29190558D01*
X48004609Y-29182043D01*
X48037542Y-29178800D01*
X48482458Y-29178800D01*
X48515391Y-29182043D01*
X48515391Y-29182043D01*
G37*
G36*
X47245391Y-29182043D02*
G01*
X47273461Y-29190558D01*
X47299329Y-29204385D01*
X47322005Y-29222995D01*
X47340615Y-29245671D01*
X47354442Y-29271539D01*
X47362957Y-29299609D01*
X47366200Y-29332542D01*
X47366200Y-30652458D01*
X47362957Y-30685391D01*
X47354442Y-30713461D01*
X47340615Y-30739329D01*
X47322005Y-30762005D01*
X47299329Y-30780615D01*
X47273461Y-30794442D01*
X47245391Y-30802957D01*
X47212458Y-30806200D01*
X46767542Y-30806200D01*
X46734609Y-30802957D01*
X46706539Y-30794442D01*
X46680671Y-30780615D01*
X46657995Y-30762005D01*
X46639385Y-30739329D01*
X46625558Y-30713461D01*
X46617043Y-30685391D01*
X46613800Y-30652458D01*
X46613800Y-29332542D01*
X46617043Y-29299609D01*
X46625558Y-29271539D01*
X46639385Y-29245671D01*
X46657995Y-29222995D01*
X46680671Y-29204385D01*
X46706539Y-29190558D01*
X46734609Y-29182043D01*
X46767542Y-29178800D01*
X47212458Y-29178800D01*
X47245391Y-29182043D01*
X47245391Y-29182043D01*
G37*
G36*
X45975391Y-29182043D02*
G01*
X46003461Y-29190558D01*
X46029329Y-29204385D01*
X46052005Y-29222995D01*
X46070615Y-29245671D01*
X46084442Y-29271539D01*
X46092957Y-29299609D01*
X46096200Y-29332542D01*
X46096200Y-30652458D01*
X46092957Y-30685391D01*
X46084442Y-30713461D01*
X46070615Y-30739329D01*
X46052005Y-30762005D01*
X46029329Y-30780615D01*
X46003461Y-30794442D01*
X45975391Y-30802957D01*
X45942458Y-30806200D01*
X45497542Y-30806200D01*
X45464609Y-30802957D01*
X45436539Y-30794442D01*
X45410671Y-30780615D01*
X45387995Y-30762005D01*
X45369385Y-30739329D01*
X45355558Y-30713461D01*
X45347043Y-30685391D01*
X45343800Y-30652458D01*
X45343800Y-29332542D01*
X45347043Y-29299609D01*
X45355558Y-29271539D01*
X45369385Y-29245671D01*
X45387995Y-29222995D01*
X45410671Y-29204385D01*
X45436539Y-29190558D01*
X45464609Y-29182043D01*
X45497542Y-29178800D01*
X45942458Y-29178800D01*
X45975391Y-29182043D01*
X45975391Y-29182043D01*
G37*
G36*
X44705391Y-29182043D02*
G01*
X44733461Y-29190558D01*
X44759329Y-29204385D01*
X44782005Y-29222995D01*
X44800615Y-29245671D01*
X44814442Y-29271539D01*
X44822957Y-29299609D01*
X44826200Y-29332542D01*
X44826200Y-30652458D01*
X44822957Y-30685391D01*
X44814442Y-30713461D01*
X44800615Y-30739329D01*
X44782005Y-30762005D01*
X44759329Y-30780615D01*
X44733461Y-30794442D01*
X44705391Y-30802957D01*
X44672458Y-30806200D01*
X44227542Y-30806200D01*
X44194609Y-30802957D01*
X44166539Y-30794442D01*
X44140671Y-30780615D01*
X44117995Y-30762005D01*
X44099385Y-30739329D01*
X44085558Y-30713461D01*
X44077043Y-30685391D01*
X44073800Y-30652458D01*
X44073800Y-29332542D01*
X44077043Y-29299609D01*
X44085558Y-29271539D01*
X44099385Y-29245671D01*
X44117995Y-29222995D01*
X44140671Y-29204385D01*
X44166539Y-29190558D01*
X44194609Y-29182043D01*
X44227542Y-29178800D01*
X44672458Y-29178800D01*
X44705391Y-29182043D01*
X44705391Y-29182043D01*
G37*
G36*
X56061567Y-27027201D02*
G01*
X56236159Y-27080163D01*
X56397057Y-27166165D01*
X56538091Y-27281909D01*
X56653835Y-27422943D01*
X56739837Y-27583841D01*
X56792799Y-27758433D01*
X56810681Y-27940000D01*
X56792799Y-28121567D01*
X56739837Y-28296159D01*
X56653835Y-28457057D01*
X56538091Y-28598091D01*
X56397057Y-28713835D01*
X56236159Y-28799837D01*
X56061567Y-28852799D01*
X55925500Y-28866200D01*
X55834500Y-28866200D01*
X55698433Y-28852799D01*
X55523841Y-28799837D01*
X55362943Y-28713835D01*
X55221909Y-28598091D01*
X55106165Y-28457057D01*
X55020163Y-28296159D01*
X54967201Y-28121567D01*
X54949319Y-27940000D01*
X54967201Y-27758433D01*
X55020163Y-27583841D01*
X55106165Y-27422943D01*
X55221909Y-27281909D01*
X55362943Y-27166165D01*
X55523841Y-27080163D01*
X55698433Y-27027201D01*
X55834500Y-27013800D01*
X55925500Y-27013800D01*
X56061567Y-27027201D01*
X56061567Y-27027201D01*
G37*
G36*
X40821567Y-27027201D02*
G01*
X40996159Y-27080163D01*
X41157057Y-27166165D01*
X41298091Y-27281909D01*
X41413835Y-27422943D01*
X41499837Y-27583841D01*
X41552799Y-27758433D01*
X41570681Y-27940000D01*
X41552799Y-28121567D01*
X41499837Y-28296159D01*
X41413835Y-28457057D01*
X41298091Y-28598091D01*
X41157057Y-28713835D01*
X40996159Y-28799837D01*
X40821567Y-28852799D01*
X40685500Y-28866200D01*
X40594500Y-28866200D01*
X40458433Y-28852799D01*
X40283841Y-28799837D01*
X40122943Y-28713835D01*
X39981909Y-28598091D01*
X39866165Y-28457057D01*
X39780163Y-28296159D01*
X39727201Y-28121567D01*
X39709319Y-27940000D01*
X39727201Y-27758433D01*
X39780163Y-27583841D01*
X39866165Y-27422943D01*
X39981909Y-27281909D01*
X40122943Y-27166165D01*
X40283841Y-27080163D01*
X40458433Y-27027201D01*
X40594500Y-27013800D01*
X40685500Y-27013800D01*
X40821567Y-27027201D01*
X40821567Y-27027201D01*
G37*
G36*
X48219838Y-25899205D02*
G01*
X48269012Y-25914122D01*
X48314334Y-25938347D01*
X48354054Y-25970946D01*
X48386653Y-26010666D01*
X48410878Y-26055988D01*
X48425795Y-26105162D01*
X48431200Y-26160043D01*
X48431200Y-27179957D01*
X48425795Y-27234838D01*
X48410878Y-27284012D01*
X48386653Y-27329334D01*
X48354054Y-27369054D01*
X48314334Y-27401653D01*
X48269012Y-27425878D01*
X48219838Y-27440795D01*
X48164957Y-27446200D01*
X47495043Y-27446200D01*
X47440162Y-27440795D01*
X47390988Y-27425878D01*
X47345666Y-27401653D01*
X47305946Y-27369054D01*
X47273347Y-27329334D01*
X47249122Y-27284012D01*
X47234205Y-27234838D01*
X47228800Y-27179957D01*
X47228800Y-26160043D01*
X47234205Y-26105162D01*
X47249122Y-26055988D01*
X47273347Y-26010666D01*
X47305946Y-25970946D01*
X47345666Y-25938347D01*
X47390988Y-25914122D01*
X47440162Y-25899205D01*
X47495043Y-25893800D01*
X48164957Y-25893800D01*
X48219838Y-25899205D01*
X48219838Y-25899205D01*
G37*
G36*
X49919838Y-25899205D02*
G01*
X49969012Y-25914122D01*
X50014334Y-25938347D01*
X50054054Y-25970946D01*
X50086653Y-26010666D01*
X50110878Y-26055988D01*
X50125795Y-26105162D01*
X50131200Y-26160043D01*
X50131200Y-27179957D01*
X50125795Y-27234838D01*
X50110878Y-27284012D01*
X50086653Y-27329334D01*
X50054054Y-27369054D01*
X50014334Y-27401653D01*
X49969012Y-27425878D01*
X49919838Y-27440795D01*
X49864957Y-27446200D01*
X49195043Y-27446200D01*
X49140162Y-27440795D01*
X49090988Y-27425878D01*
X49045666Y-27401653D01*
X49005946Y-27369054D01*
X48973347Y-27329334D01*
X48949122Y-27284012D01*
X48934205Y-27234838D01*
X48928800Y-27179957D01*
X48928800Y-26160043D01*
X48934205Y-26105162D01*
X48949122Y-26055988D01*
X48973347Y-26010666D01*
X49005946Y-25970946D01*
X49045666Y-25938347D01*
X49090988Y-25914122D01*
X49140162Y-25899205D01*
X49195043Y-25893800D01*
X49864957Y-25893800D01*
X49919838Y-25899205D01*
X49919838Y-25899205D01*
G37*
G36*
X40821567Y-24487201D02*
G01*
X40996159Y-24540163D01*
X41157057Y-24626165D01*
X41298091Y-24741909D01*
X41413835Y-24882943D01*
X41499837Y-25043841D01*
X41552799Y-25218433D01*
X41570681Y-25400000D01*
X41552799Y-25581567D01*
X41499837Y-25756159D01*
X41413835Y-25917057D01*
X41298091Y-26058091D01*
X41157057Y-26173835D01*
X40996159Y-26259837D01*
X40821567Y-26312799D01*
X40685500Y-26326200D01*
X40594500Y-26326200D01*
X40458433Y-26312799D01*
X40283841Y-26259837D01*
X40122943Y-26173835D01*
X39981909Y-26058091D01*
X39866165Y-25917057D01*
X39780163Y-25756159D01*
X39727201Y-25581567D01*
X39709319Y-25400000D01*
X39727201Y-25218433D01*
X39780163Y-25043841D01*
X39866165Y-24882943D01*
X39981909Y-24741909D01*
X40122943Y-24626165D01*
X40283841Y-24540163D01*
X40458433Y-24487201D01*
X40594500Y-24473800D01*
X40685500Y-24473800D01*
X40821567Y-24487201D01*
X40821567Y-24487201D01*
G37*
G36*
X56061567Y-24487201D02*
G01*
X56236159Y-24540163D01*
X56397057Y-24626165D01*
X56538091Y-24741909D01*
X56653835Y-24882943D01*
X56739837Y-25043841D01*
X56792799Y-25218433D01*
X56810681Y-25400000D01*
X56792799Y-25581567D01*
X56739837Y-25756159D01*
X56653835Y-25917057D01*
X56538091Y-26058091D01*
X56397057Y-26173835D01*
X56236159Y-26259837D01*
X56061567Y-26312799D01*
X55925500Y-26326200D01*
X55834500Y-26326200D01*
X55698433Y-26312799D01*
X55523841Y-26259837D01*
X55362943Y-26173835D01*
X55221909Y-26058091D01*
X55106165Y-25917057D01*
X55020163Y-25756159D01*
X54967201Y-25581567D01*
X54949319Y-25400000D01*
X54967201Y-25218433D01*
X55020163Y-25043841D01*
X55106165Y-24882943D01*
X55221909Y-24741909D01*
X55362943Y-24626165D01*
X55523841Y-24540163D01*
X55698433Y-24487201D01*
X55834500Y-24473800D01*
X55925500Y-24473800D01*
X56061567Y-24487201D01*
X56061567Y-24487201D01*
G37*
G36*
X40821567Y-21947201D02*
G01*
X40996159Y-22000163D01*
X41157057Y-22086165D01*
X41298091Y-22201909D01*
X41413835Y-22342943D01*
X41499837Y-22503841D01*
X41552799Y-22678433D01*
X41570681Y-22860000D01*
X41552799Y-23041567D01*
X41499837Y-23216159D01*
X41413835Y-23377057D01*
X41298091Y-23518091D01*
X41157057Y-23633835D01*
X40996159Y-23719837D01*
X40821567Y-23772799D01*
X40685500Y-23786200D01*
X40594500Y-23786200D01*
X40458433Y-23772799D01*
X40283841Y-23719837D01*
X40122943Y-23633835D01*
X39981909Y-23518091D01*
X39866165Y-23377057D01*
X39780163Y-23216159D01*
X39727201Y-23041567D01*
X39709319Y-22860000D01*
X39727201Y-22678433D01*
X39780163Y-22503841D01*
X39866165Y-22342943D01*
X39981909Y-22201909D01*
X40122943Y-22086165D01*
X40283841Y-22000163D01*
X40458433Y-21947201D01*
X40594500Y-21933800D01*
X40685500Y-21933800D01*
X40821567Y-21947201D01*
X40821567Y-21947201D01*
G37*
G36*
X56061567Y-21947201D02*
G01*
X56236159Y-22000163D01*
X56397057Y-22086165D01*
X56538091Y-22201909D01*
X56653835Y-22342943D01*
X56739837Y-22503841D01*
X56792799Y-22678433D01*
X56810681Y-22860000D01*
X56792799Y-23041567D01*
X56739837Y-23216159D01*
X56653835Y-23377057D01*
X56538091Y-23518091D01*
X56397057Y-23633835D01*
X56236159Y-23719837D01*
X56061567Y-23772799D01*
X55925500Y-23786200D01*
X55834500Y-23786200D01*
X55698433Y-23772799D01*
X55523841Y-23719837D01*
X55362943Y-23633835D01*
X55221909Y-23518091D01*
X55106165Y-23377057D01*
X55020163Y-23216159D01*
X54967201Y-23041567D01*
X54949319Y-22860000D01*
X54967201Y-22678433D01*
X55020163Y-22503841D01*
X55106165Y-22342943D01*
X55221909Y-22201909D01*
X55362943Y-22086165D01*
X55523841Y-22000163D01*
X55698433Y-21947201D01*
X55834500Y-21933800D01*
X55925500Y-21933800D01*
X56061567Y-21947201D01*
X56061567Y-21947201D01*
G37*
G36*
X52383916Y-19285158D02*
G01*
X52579772Y-19366284D01*
X52579774Y-19366285D01*
X52756037Y-19484060D01*
X52905940Y-19633963D01*
X53023715Y-19810226D01*
X53023716Y-19810228D01*
X53104842Y-20006084D01*
X53146200Y-20214004D01*
X53146200Y-20425995D01*
X53104842Y-20633915D01*
X53023717Y-20829771D01*
X52905940Y-21006037D01*
X52756037Y-21155940D01*
X52579774Y-21273715D01*
X52579773Y-21273716D01*
X52579772Y-21273716D01*
X52383916Y-21354842D01*
X52175996Y-21396200D01*
X51964004Y-21396200D01*
X51756084Y-21354842D01*
X51560228Y-21273716D01*
X51560227Y-21273716D01*
X51560226Y-21273715D01*
X51383963Y-21155940D01*
X51234060Y-21006037D01*
X51116283Y-20829771D01*
X51035158Y-20633915D01*
X50993800Y-20425995D01*
X50993800Y-20214004D01*
X51035158Y-20006084D01*
X51116284Y-19810228D01*
X51116285Y-19810226D01*
X51234060Y-19633963D01*
X51383963Y-19484060D01*
X51560226Y-19366285D01*
X51560228Y-19366284D01*
X51756084Y-19285158D01*
X51964004Y-19243800D01*
X52175996Y-19243800D01*
X52383916Y-19285158D01*
X52383916Y-19285158D01*
G37*
G36*
X43471689Y-19358429D02*
G01*
X43653678Y-19433811D01*
X43817463Y-19543249D01*
X43956751Y-19682537D01*
X44066189Y-19846322D01*
X44141571Y-20028311D01*
X44180000Y-20221509D01*
X44180000Y-20418491D01*
X44141571Y-20611689D01*
X44066189Y-20793678D01*
X43956751Y-20957463D01*
X43817463Y-21096751D01*
X43653678Y-21206189D01*
X43471689Y-21281571D01*
X43278491Y-21320000D01*
X43081509Y-21320000D01*
X42888311Y-21281571D01*
X42706322Y-21206189D01*
X42542537Y-21096751D01*
X42403249Y-20957463D01*
X42293811Y-20793678D01*
X42218429Y-20611689D01*
X42180000Y-20418491D01*
X42180000Y-20221509D01*
X42218429Y-20028311D01*
X42293811Y-19846322D01*
X42403249Y-19682537D01*
X42542537Y-19543249D01*
X42706322Y-19433811D01*
X42888311Y-19358429D01*
X43081509Y-19320000D01*
X43278491Y-19320000D01*
X43471689Y-19358429D01*
X43471689Y-19358429D01*
G37*
G36*
X56806200Y-21246200D02*
G01*
X54953800Y-21246200D01*
X54953800Y-19393800D01*
X56806200Y-19393800D01*
X56806200Y-21246200D01*
X56806200Y-21246200D01*
G37*
G36*
X41566200Y-21246200D02*
G01*
X39713800Y-21246200D01*
X39713800Y-19393800D01*
X41566200Y-19393800D01*
X41566200Y-21246200D01*
X41566200Y-21246200D01*
G37*
M02*
