G04 #@! TF.GenerationSoftware,KiCad,Pcbnew,(5.1.2-1)-1*
G04 #@! TF.CreationDate,2019-06-26T00:08:28-04:00*
G04 #@! TF.ProjectId,28SF8148,32385346-3831-4343-982e-6b696361645f,rev?*
G04 #@! TF.SameCoordinates,Original*
G04 #@! TF.FileFunction,Paste,Top*
G04 #@! TF.FilePolarity,Positive*
%FSLAX46Y46*%
G04 Gerber Fmt 4.6, Leading zero omitted, Abs format (unit mm)*
G04 Created by KiCad (PCBNEW (5.1.2-1)-1) date 2019-06-26 00:08:28*
%MOMM*%
%LPD*%
G04 APERTURE LIST*
%ADD10C,0.100000*%
%ADD11C,0.950000*%
%ADD12C,0.500000*%
G04 APERTURE END LIST*
D10*
G36*
X49790779Y-26021144D02*
G01*
X49813834Y-26024563D01*
X49836443Y-26030227D01*
X49858387Y-26038079D01*
X49879457Y-26048044D01*
X49899448Y-26060026D01*
X49918168Y-26073910D01*
X49935438Y-26089562D01*
X49951090Y-26106832D01*
X49964974Y-26125552D01*
X49976956Y-26145543D01*
X49986921Y-26166613D01*
X49994773Y-26188557D01*
X50000437Y-26211166D01*
X50003856Y-26234221D01*
X50005000Y-26257500D01*
X50005000Y-27082500D01*
X50003856Y-27105779D01*
X50000437Y-27128834D01*
X49994773Y-27151443D01*
X49986921Y-27173387D01*
X49976956Y-27194457D01*
X49964974Y-27214448D01*
X49951090Y-27233168D01*
X49935438Y-27250438D01*
X49918168Y-27266090D01*
X49899448Y-27279974D01*
X49879457Y-27291956D01*
X49858387Y-27301921D01*
X49836443Y-27309773D01*
X49813834Y-27315437D01*
X49790779Y-27318856D01*
X49767500Y-27320000D01*
X49292500Y-27320000D01*
X49269221Y-27318856D01*
X49246166Y-27315437D01*
X49223557Y-27309773D01*
X49201613Y-27301921D01*
X49180543Y-27291956D01*
X49160552Y-27279974D01*
X49141832Y-27266090D01*
X49124562Y-27250438D01*
X49108910Y-27233168D01*
X49095026Y-27214448D01*
X49083044Y-27194457D01*
X49073079Y-27173387D01*
X49065227Y-27151443D01*
X49059563Y-27128834D01*
X49056144Y-27105779D01*
X49055000Y-27082500D01*
X49055000Y-26257500D01*
X49056144Y-26234221D01*
X49059563Y-26211166D01*
X49065227Y-26188557D01*
X49073079Y-26166613D01*
X49083044Y-26145543D01*
X49095026Y-26125552D01*
X49108910Y-26106832D01*
X49124562Y-26089562D01*
X49141832Y-26073910D01*
X49160552Y-26060026D01*
X49180543Y-26048044D01*
X49201613Y-26038079D01*
X49223557Y-26030227D01*
X49246166Y-26024563D01*
X49269221Y-26021144D01*
X49292500Y-26020000D01*
X49767500Y-26020000D01*
X49790779Y-26021144D01*
X49790779Y-26021144D01*
G37*
D11*
X49530000Y-26670000D03*
D10*
G36*
X48090779Y-26021144D02*
G01*
X48113834Y-26024563D01*
X48136443Y-26030227D01*
X48158387Y-26038079D01*
X48179457Y-26048044D01*
X48199448Y-26060026D01*
X48218168Y-26073910D01*
X48235438Y-26089562D01*
X48251090Y-26106832D01*
X48264974Y-26125552D01*
X48276956Y-26145543D01*
X48286921Y-26166613D01*
X48294773Y-26188557D01*
X48300437Y-26211166D01*
X48303856Y-26234221D01*
X48305000Y-26257500D01*
X48305000Y-27082500D01*
X48303856Y-27105779D01*
X48300437Y-27128834D01*
X48294773Y-27151443D01*
X48286921Y-27173387D01*
X48276956Y-27194457D01*
X48264974Y-27214448D01*
X48251090Y-27233168D01*
X48235438Y-27250438D01*
X48218168Y-27266090D01*
X48199448Y-27279974D01*
X48179457Y-27291956D01*
X48158387Y-27301921D01*
X48136443Y-27309773D01*
X48113834Y-27315437D01*
X48090779Y-27318856D01*
X48067500Y-27320000D01*
X47592500Y-27320000D01*
X47569221Y-27318856D01*
X47546166Y-27315437D01*
X47523557Y-27309773D01*
X47501613Y-27301921D01*
X47480543Y-27291956D01*
X47460552Y-27279974D01*
X47441832Y-27266090D01*
X47424562Y-27250438D01*
X47408910Y-27233168D01*
X47395026Y-27214448D01*
X47383044Y-27194457D01*
X47373079Y-27173387D01*
X47365227Y-27151443D01*
X47359563Y-27128834D01*
X47356144Y-27105779D01*
X47355000Y-27082500D01*
X47355000Y-26257500D01*
X47356144Y-26234221D01*
X47359563Y-26211166D01*
X47365227Y-26188557D01*
X47373079Y-26166613D01*
X47383044Y-26145543D01*
X47395026Y-26125552D01*
X47408910Y-26106832D01*
X47424562Y-26089562D01*
X47441832Y-26073910D01*
X47460552Y-26060026D01*
X47480543Y-26048044D01*
X47501613Y-26038079D01*
X47523557Y-26030227D01*
X47546166Y-26024563D01*
X47569221Y-26021144D01*
X47592500Y-26020000D01*
X48067500Y-26020000D01*
X48090779Y-26021144D01*
X48090779Y-26021144D01*
G37*
D11*
X47830000Y-26670000D03*
D10*
G36*
X48397252Y-29305602D02*
G01*
X48409386Y-29307402D01*
X48421286Y-29310382D01*
X48432835Y-29314515D01*
X48443925Y-29319760D01*
X48454446Y-29326066D01*
X48464299Y-29333374D01*
X48473388Y-29341612D01*
X48481626Y-29350701D01*
X48488934Y-29360554D01*
X48495240Y-29371075D01*
X48500485Y-29382165D01*
X48504618Y-29393714D01*
X48507598Y-29405614D01*
X48509398Y-29417748D01*
X48510000Y-29430000D01*
X48510000Y-30555000D01*
X48509398Y-30567252D01*
X48507598Y-30579386D01*
X48504618Y-30591286D01*
X48500485Y-30602835D01*
X48495240Y-30613925D01*
X48488934Y-30624446D01*
X48481626Y-30634299D01*
X48473388Y-30643388D01*
X48464299Y-30651626D01*
X48454446Y-30658934D01*
X48443925Y-30665240D01*
X48432835Y-30670485D01*
X48421286Y-30674618D01*
X48409386Y-30677598D01*
X48397252Y-30679398D01*
X48385000Y-30680000D01*
X48135000Y-30680000D01*
X48122748Y-30679398D01*
X48110614Y-30677598D01*
X48098714Y-30674618D01*
X48087165Y-30670485D01*
X48076075Y-30665240D01*
X48065554Y-30658934D01*
X48055701Y-30651626D01*
X48046612Y-30643388D01*
X48038374Y-30634299D01*
X48031066Y-30624446D01*
X48024760Y-30613925D01*
X48019515Y-30602835D01*
X48015382Y-30591286D01*
X48012402Y-30579386D01*
X48010602Y-30567252D01*
X48010000Y-30555000D01*
X48010000Y-29430000D01*
X48010602Y-29417748D01*
X48012402Y-29405614D01*
X48015382Y-29393714D01*
X48019515Y-29382165D01*
X48024760Y-29371075D01*
X48031066Y-29360554D01*
X48038374Y-29350701D01*
X48046612Y-29341612D01*
X48055701Y-29333374D01*
X48065554Y-29326066D01*
X48076075Y-29319760D01*
X48087165Y-29314515D01*
X48098714Y-29310382D01*
X48110614Y-29307402D01*
X48122748Y-29305602D01*
X48135000Y-29305000D01*
X48385000Y-29305000D01*
X48397252Y-29305602D01*
X48397252Y-29305602D01*
G37*
D12*
X48260000Y-29992500D03*
D10*
G36*
X47127252Y-29305602D02*
G01*
X47139386Y-29307402D01*
X47151286Y-29310382D01*
X47162835Y-29314515D01*
X47173925Y-29319760D01*
X47184446Y-29326066D01*
X47194299Y-29333374D01*
X47203388Y-29341612D01*
X47211626Y-29350701D01*
X47218934Y-29360554D01*
X47225240Y-29371075D01*
X47230485Y-29382165D01*
X47234618Y-29393714D01*
X47237598Y-29405614D01*
X47239398Y-29417748D01*
X47240000Y-29430000D01*
X47240000Y-30555000D01*
X47239398Y-30567252D01*
X47237598Y-30579386D01*
X47234618Y-30591286D01*
X47230485Y-30602835D01*
X47225240Y-30613925D01*
X47218934Y-30624446D01*
X47211626Y-30634299D01*
X47203388Y-30643388D01*
X47194299Y-30651626D01*
X47184446Y-30658934D01*
X47173925Y-30665240D01*
X47162835Y-30670485D01*
X47151286Y-30674618D01*
X47139386Y-30677598D01*
X47127252Y-30679398D01*
X47115000Y-30680000D01*
X46865000Y-30680000D01*
X46852748Y-30679398D01*
X46840614Y-30677598D01*
X46828714Y-30674618D01*
X46817165Y-30670485D01*
X46806075Y-30665240D01*
X46795554Y-30658934D01*
X46785701Y-30651626D01*
X46776612Y-30643388D01*
X46768374Y-30634299D01*
X46761066Y-30624446D01*
X46754760Y-30613925D01*
X46749515Y-30602835D01*
X46745382Y-30591286D01*
X46742402Y-30579386D01*
X46740602Y-30567252D01*
X46740000Y-30555000D01*
X46740000Y-29430000D01*
X46740602Y-29417748D01*
X46742402Y-29405614D01*
X46745382Y-29393714D01*
X46749515Y-29382165D01*
X46754760Y-29371075D01*
X46761066Y-29360554D01*
X46768374Y-29350701D01*
X46776612Y-29341612D01*
X46785701Y-29333374D01*
X46795554Y-29326066D01*
X46806075Y-29319760D01*
X46817165Y-29314515D01*
X46828714Y-29310382D01*
X46840614Y-29307402D01*
X46852748Y-29305602D01*
X46865000Y-29305000D01*
X47115000Y-29305000D01*
X47127252Y-29305602D01*
X47127252Y-29305602D01*
G37*
D12*
X46990000Y-29992500D03*
D10*
G36*
X45857252Y-29305602D02*
G01*
X45869386Y-29307402D01*
X45881286Y-29310382D01*
X45892835Y-29314515D01*
X45903925Y-29319760D01*
X45914446Y-29326066D01*
X45924299Y-29333374D01*
X45933388Y-29341612D01*
X45941626Y-29350701D01*
X45948934Y-29360554D01*
X45955240Y-29371075D01*
X45960485Y-29382165D01*
X45964618Y-29393714D01*
X45967598Y-29405614D01*
X45969398Y-29417748D01*
X45970000Y-29430000D01*
X45970000Y-30555000D01*
X45969398Y-30567252D01*
X45967598Y-30579386D01*
X45964618Y-30591286D01*
X45960485Y-30602835D01*
X45955240Y-30613925D01*
X45948934Y-30624446D01*
X45941626Y-30634299D01*
X45933388Y-30643388D01*
X45924299Y-30651626D01*
X45914446Y-30658934D01*
X45903925Y-30665240D01*
X45892835Y-30670485D01*
X45881286Y-30674618D01*
X45869386Y-30677598D01*
X45857252Y-30679398D01*
X45845000Y-30680000D01*
X45595000Y-30680000D01*
X45582748Y-30679398D01*
X45570614Y-30677598D01*
X45558714Y-30674618D01*
X45547165Y-30670485D01*
X45536075Y-30665240D01*
X45525554Y-30658934D01*
X45515701Y-30651626D01*
X45506612Y-30643388D01*
X45498374Y-30634299D01*
X45491066Y-30624446D01*
X45484760Y-30613925D01*
X45479515Y-30602835D01*
X45475382Y-30591286D01*
X45472402Y-30579386D01*
X45470602Y-30567252D01*
X45470000Y-30555000D01*
X45470000Y-29430000D01*
X45470602Y-29417748D01*
X45472402Y-29405614D01*
X45475382Y-29393714D01*
X45479515Y-29382165D01*
X45484760Y-29371075D01*
X45491066Y-29360554D01*
X45498374Y-29350701D01*
X45506612Y-29341612D01*
X45515701Y-29333374D01*
X45525554Y-29326066D01*
X45536075Y-29319760D01*
X45547165Y-29314515D01*
X45558714Y-29310382D01*
X45570614Y-29307402D01*
X45582748Y-29305602D01*
X45595000Y-29305000D01*
X45845000Y-29305000D01*
X45857252Y-29305602D01*
X45857252Y-29305602D01*
G37*
D12*
X45720000Y-29992500D03*
D10*
G36*
X44587252Y-29305602D02*
G01*
X44599386Y-29307402D01*
X44611286Y-29310382D01*
X44622835Y-29314515D01*
X44633925Y-29319760D01*
X44644446Y-29326066D01*
X44654299Y-29333374D01*
X44663388Y-29341612D01*
X44671626Y-29350701D01*
X44678934Y-29360554D01*
X44685240Y-29371075D01*
X44690485Y-29382165D01*
X44694618Y-29393714D01*
X44697598Y-29405614D01*
X44699398Y-29417748D01*
X44700000Y-29430000D01*
X44700000Y-30555000D01*
X44699398Y-30567252D01*
X44697598Y-30579386D01*
X44694618Y-30591286D01*
X44690485Y-30602835D01*
X44685240Y-30613925D01*
X44678934Y-30624446D01*
X44671626Y-30634299D01*
X44663388Y-30643388D01*
X44654299Y-30651626D01*
X44644446Y-30658934D01*
X44633925Y-30665240D01*
X44622835Y-30670485D01*
X44611286Y-30674618D01*
X44599386Y-30677598D01*
X44587252Y-30679398D01*
X44575000Y-30680000D01*
X44325000Y-30680000D01*
X44312748Y-30679398D01*
X44300614Y-30677598D01*
X44288714Y-30674618D01*
X44277165Y-30670485D01*
X44266075Y-30665240D01*
X44255554Y-30658934D01*
X44245701Y-30651626D01*
X44236612Y-30643388D01*
X44228374Y-30634299D01*
X44221066Y-30624446D01*
X44214760Y-30613925D01*
X44209515Y-30602835D01*
X44205382Y-30591286D01*
X44202402Y-30579386D01*
X44200602Y-30567252D01*
X44200000Y-30555000D01*
X44200000Y-29430000D01*
X44200602Y-29417748D01*
X44202402Y-29405614D01*
X44205382Y-29393714D01*
X44209515Y-29382165D01*
X44214760Y-29371075D01*
X44221066Y-29360554D01*
X44228374Y-29350701D01*
X44236612Y-29341612D01*
X44245701Y-29333374D01*
X44255554Y-29326066D01*
X44266075Y-29319760D01*
X44277165Y-29314515D01*
X44288714Y-29310382D01*
X44300614Y-29307402D01*
X44312748Y-29305602D01*
X44325000Y-29305000D01*
X44575000Y-29305000D01*
X44587252Y-29305602D01*
X44587252Y-29305602D01*
G37*
D12*
X44450000Y-29992500D03*
D10*
G36*
X43272252Y-31500602D02*
G01*
X43284386Y-31502402D01*
X43296286Y-31505382D01*
X43307835Y-31509515D01*
X43318925Y-31514760D01*
X43329446Y-31521066D01*
X43339299Y-31528374D01*
X43348388Y-31536612D01*
X43356626Y-31545701D01*
X43363934Y-31555554D01*
X43370240Y-31566075D01*
X43375485Y-31577165D01*
X43379618Y-31588714D01*
X43382598Y-31600614D01*
X43384398Y-31612748D01*
X43385000Y-31625000D01*
X43385000Y-31875000D01*
X43384398Y-31887252D01*
X43382598Y-31899386D01*
X43379618Y-31911286D01*
X43375485Y-31922835D01*
X43370240Y-31933925D01*
X43363934Y-31944446D01*
X43356626Y-31954299D01*
X43348388Y-31963388D01*
X43339299Y-31971626D01*
X43329446Y-31978934D01*
X43318925Y-31985240D01*
X43307835Y-31990485D01*
X43296286Y-31994618D01*
X43284386Y-31997598D01*
X43272252Y-31999398D01*
X43260000Y-32000000D01*
X42135000Y-32000000D01*
X42122748Y-31999398D01*
X42110614Y-31997598D01*
X42098714Y-31994618D01*
X42087165Y-31990485D01*
X42076075Y-31985240D01*
X42065554Y-31978934D01*
X42055701Y-31971626D01*
X42046612Y-31963388D01*
X42038374Y-31954299D01*
X42031066Y-31944446D01*
X42024760Y-31933925D01*
X42019515Y-31922835D01*
X42015382Y-31911286D01*
X42012402Y-31899386D01*
X42010602Y-31887252D01*
X42010000Y-31875000D01*
X42010000Y-31625000D01*
X42010602Y-31612748D01*
X42012402Y-31600614D01*
X42015382Y-31588714D01*
X42019515Y-31577165D01*
X42024760Y-31566075D01*
X42031066Y-31555554D01*
X42038374Y-31545701D01*
X42046612Y-31536612D01*
X42055701Y-31528374D01*
X42065554Y-31521066D01*
X42076075Y-31514760D01*
X42087165Y-31509515D01*
X42098714Y-31505382D01*
X42110614Y-31502402D01*
X42122748Y-31500602D01*
X42135000Y-31500000D01*
X43260000Y-31500000D01*
X43272252Y-31500602D01*
X43272252Y-31500602D01*
G37*
D12*
X42697500Y-31750000D03*
D10*
G36*
X43272252Y-32770602D02*
G01*
X43284386Y-32772402D01*
X43296286Y-32775382D01*
X43307835Y-32779515D01*
X43318925Y-32784760D01*
X43329446Y-32791066D01*
X43339299Y-32798374D01*
X43348388Y-32806612D01*
X43356626Y-32815701D01*
X43363934Y-32825554D01*
X43370240Y-32836075D01*
X43375485Y-32847165D01*
X43379618Y-32858714D01*
X43382598Y-32870614D01*
X43384398Y-32882748D01*
X43385000Y-32895000D01*
X43385000Y-33145000D01*
X43384398Y-33157252D01*
X43382598Y-33169386D01*
X43379618Y-33181286D01*
X43375485Y-33192835D01*
X43370240Y-33203925D01*
X43363934Y-33214446D01*
X43356626Y-33224299D01*
X43348388Y-33233388D01*
X43339299Y-33241626D01*
X43329446Y-33248934D01*
X43318925Y-33255240D01*
X43307835Y-33260485D01*
X43296286Y-33264618D01*
X43284386Y-33267598D01*
X43272252Y-33269398D01*
X43260000Y-33270000D01*
X42135000Y-33270000D01*
X42122748Y-33269398D01*
X42110614Y-33267598D01*
X42098714Y-33264618D01*
X42087165Y-33260485D01*
X42076075Y-33255240D01*
X42065554Y-33248934D01*
X42055701Y-33241626D01*
X42046612Y-33233388D01*
X42038374Y-33224299D01*
X42031066Y-33214446D01*
X42024760Y-33203925D01*
X42019515Y-33192835D01*
X42015382Y-33181286D01*
X42012402Y-33169386D01*
X42010602Y-33157252D01*
X42010000Y-33145000D01*
X42010000Y-32895000D01*
X42010602Y-32882748D01*
X42012402Y-32870614D01*
X42015382Y-32858714D01*
X42019515Y-32847165D01*
X42024760Y-32836075D01*
X42031066Y-32825554D01*
X42038374Y-32815701D01*
X42046612Y-32806612D01*
X42055701Y-32798374D01*
X42065554Y-32791066D01*
X42076075Y-32784760D01*
X42087165Y-32779515D01*
X42098714Y-32775382D01*
X42110614Y-32772402D01*
X42122748Y-32770602D01*
X42135000Y-32770000D01*
X43260000Y-32770000D01*
X43272252Y-32770602D01*
X43272252Y-32770602D01*
G37*
D12*
X42697500Y-33020000D03*
D10*
G36*
X43272252Y-34040602D02*
G01*
X43284386Y-34042402D01*
X43296286Y-34045382D01*
X43307835Y-34049515D01*
X43318925Y-34054760D01*
X43329446Y-34061066D01*
X43339299Y-34068374D01*
X43348388Y-34076612D01*
X43356626Y-34085701D01*
X43363934Y-34095554D01*
X43370240Y-34106075D01*
X43375485Y-34117165D01*
X43379618Y-34128714D01*
X43382598Y-34140614D01*
X43384398Y-34152748D01*
X43385000Y-34165000D01*
X43385000Y-34415000D01*
X43384398Y-34427252D01*
X43382598Y-34439386D01*
X43379618Y-34451286D01*
X43375485Y-34462835D01*
X43370240Y-34473925D01*
X43363934Y-34484446D01*
X43356626Y-34494299D01*
X43348388Y-34503388D01*
X43339299Y-34511626D01*
X43329446Y-34518934D01*
X43318925Y-34525240D01*
X43307835Y-34530485D01*
X43296286Y-34534618D01*
X43284386Y-34537598D01*
X43272252Y-34539398D01*
X43260000Y-34540000D01*
X42135000Y-34540000D01*
X42122748Y-34539398D01*
X42110614Y-34537598D01*
X42098714Y-34534618D01*
X42087165Y-34530485D01*
X42076075Y-34525240D01*
X42065554Y-34518934D01*
X42055701Y-34511626D01*
X42046612Y-34503388D01*
X42038374Y-34494299D01*
X42031066Y-34484446D01*
X42024760Y-34473925D01*
X42019515Y-34462835D01*
X42015382Y-34451286D01*
X42012402Y-34439386D01*
X42010602Y-34427252D01*
X42010000Y-34415000D01*
X42010000Y-34165000D01*
X42010602Y-34152748D01*
X42012402Y-34140614D01*
X42015382Y-34128714D01*
X42019515Y-34117165D01*
X42024760Y-34106075D01*
X42031066Y-34095554D01*
X42038374Y-34085701D01*
X42046612Y-34076612D01*
X42055701Y-34068374D01*
X42065554Y-34061066D01*
X42076075Y-34054760D01*
X42087165Y-34049515D01*
X42098714Y-34045382D01*
X42110614Y-34042402D01*
X42122748Y-34040602D01*
X42135000Y-34040000D01*
X43260000Y-34040000D01*
X43272252Y-34040602D01*
X43272252Y-34040602D01*
G37*
D12*
X42697500Y-34290000D03*
D10*
G36*
X43272252Y-35310602D02*
G01*
X43284386Y-35312402D01*
X43296286Y-35315382D01*
X43307835Y-35319515D01*
X43318925Y-35324760D01*
X43329446Y-35331066D01*
X43339299Y-35338374D01*
X43348388Y-35346612D01*
X43356626Y-35355701D01*
X43363934Y-35365554D01*
X43370240Y-35376075D01*
X43375485Y-35387165D01*
X43379618Y-35398714D01*
X43382598Y-35410614D01*
X43384398Y-35422748D01*
X43385000Y-35435000D01*
X43385000Y-35685000D01*
X43384398Y-35697252D01*
X43382598Y-35709386D01*
X43379618Y-35721286D01*
X43375485Y-35732835D01*
X43370240Y-35743925D01*
X43363934Y-35754446D01*
X43356626Y-35764299D01*
X43348388Y-35773388D01*
X43339299Y-35781626D01*
X43329446Y-35788934D01*
X43318925Y-35795240D01*
X43307835Y-35800485D01*
X43296286Y-35804618D01*
X43284386Y-35807598D01*
X43272252Y-35809398D01*
X43260000Y-35810000D01*
X42135000Y-35810000D01*
X42122748Y-35809398D01*
X42110614Y-35807598D01*
X42098714Y-35804618D01*
X42087165Y-35800485D01*
X42076075Y-35795240D01*
X42065554Y-35788934D01*
X42055701Y-35781626D01*
X42046612Y-35773388D01*
X42038374Y-35764299D01*
X42031066Y-35754446D01*
X42024760Y-35743925D01*
X42019515Y-35732835D01*
X42015382Y-35721286D01*
X42012402Y-35709386D01*
X42010602Y-35697252D01*
X42010000Y-35685000D01*
X42010000Y-35435000D01*
X42010602Y-35422748D01*
X42012402Y-35410614D01*
X42015382Y-35398714D01*
X42019515Y-35387165D01*
X42024760Y-35376075D01*
X42031066Y-35365554D01*
X42038374Y-35355701D01*
X42046612Y-35346612D01*
X42055701Y-35338374D01*
X42065554Y-35331066D01*
X42076075Y-35324760D01*
X42087165Y-35319515D01*
X42098714Y-35315382D01*
X42110614Y-35312402D01*
X42122748Y-35310602D01*
X42135000Y-35310000D01*
X43260000Y-35310000D01*
X43272252Y-35310602D01*
X43272252Y-35310602D01*
G37*
D12*
X42697500Y-35560000D03*
D10*
G36*
X43272252Y-36580602D02*
G01*
X43284386Y-36582402D01*
X43296286Y-36585382D01*
X43307835Y-36589515D01*
X43318925Y-36594760D01*
X43329446Y-36601066D01*
X43339299Y-36608374D01*
X43348388Y-36616612D01*
X43356626Y-36625701D01*
X43363934Y-36635554D01*
X43370240Y-36646075D01*
X43375485Y-36657165D01*
X43379618Y-36668714D01*
X43382598Y-36680614D01*
X43384398Y-36692748D01*
X43385000Y-36705000D01*
X43385000Y-36955000D01*
X43384398Y-36967252D01*
X43382598Y-36979386D01*
X43379618Y-36991286D01*
X43375485Y-37002835D01*
X43370240Y-37013925D01*
X43363934Y-37024446D01*
X43356626Y-37034299D01*
X43348388Y-37043388D01*
X43339299Y-37051626D01*
X43329446Y-37058934D01*
X43318925Y-37065240D01*
X43307835Y-37070485D01*
X43296286Y-37074618D01*
X43284386Y-37077598D01*
X43272252Y-37079398D01*
X43260000Y-37080000D01*
X42135000Y-37080000D01*
X42122748Y-37079398D01*
X42110614Y-37077598D01*
X42098714Y-37074618D01*
X42087165Y-37070485D01*
X42076075Y-37065240D01*
X42065554Y-37058934D01*
X42055701Y-37051626D01*
X42046612Y-37043388D01*
X42038374Y-37034299D01*
X42031066Y-37024446D01*
X42024760Y-37013925D01*
X42019515Y-37002835D01*
X42015382Y-36991286D01*
X42012402Y-36979386D01*
X42010602Y-36967252D01*
X42010000Y-36955000D01*
X42010000Y-36705000D01*
X42010602Y-36692748D01*
X42012402Y-36680614D01*
X42015382Y-36668714D01*
X42019515Y-36657165D01*
X42024760Y-36646075D01*
X42031066Y-36635554D01*
X42038374Y-36625701D01*
X42046612Y-36616612D01*
X42055701Y-36608374D01*
X42065554Y-36601066D01*
X42076075Y-36594760D01*
X42087165Y-36589515D01*
X42098714Y-36585382D01*
X42110614Y-36582402D01*
X42122748Y-36580602D01*
X42135000Y-36580000D01*
X43260000Y-36580000D01*
X43272252Y-36580602D01*
X43272252Y-36580602D01*
G37*
D12*
X42697500Y-36830000D03*
D10*
G36*
X43272252Y-37850602D02*
G01*
X43284386Y-37852402D01*
X43296286Y-37855382D01*
X43307835Y-37859515D01*
X43318925Y-37864760D01*
X43329446Y-37871066D01*
X43339299Y-37878374D01*
X43348388Y-37886612D01*
X43356626Y-37895701D01*
X43363934Y-37905554D01*
X43370240Y-37916075D01*
X43375485Y-37927165D01*
X43379618Y-37938714D01*
X43382598Y-37950614D01*
X43384398Y-37962748D01*
X43385000Y-37975000D01*
X43385000Y-38225000D01*
X43384398Y-38237252D01*
X43382598Y-38249386D01*
X43379618Y-38261286D01*
X43375485Y-38272835D01*
X43370240Y-38283925D01*
X43363934Y-38294446D01*
X43356626Y-38304299D01*
X43348388Y-38313388D01*
X43339299Y-38321626D01*
X43329446Y-38328934D01*
X43318925Y-38335240D01*
X43307835Y-38340485D01*
X43296286Y-38344618D01*
X43284386Y-38347598D01*
X43272252Y-38349398D01*
X43260000Y-38350000D01*
X42135000Y-38350000D01*
X42122748Y-38349398D01*
X42110614Y-38347598D01*
X42098714Y-38344618D01*
X42087165Y-38340485D01*
X42076075Y-38335240D01*
X42065554Y-38328934D01*
X42055701Y-38321626D01*
X42046612Y-38313388D01*
X42038374Y-38304299D01*
X42031066Y-38294446D01*
X42024760Y-38283925D01*
X42019515Y-38272835D01*
X42015382Y-38261286D01*
X42012402Y-38249386D01*
X42010602Y-38237252D01*
X42010000Y-38225000D01*
X42010000Y-37975000D01*
X42010602Y-37962748D01*
X42012402Y-37950614D01*
X42015382Y-37938714D01*
X42019515Y-37927165D01*
X42024760Y-37916075D01*
X42031066Y-37905554D01*
X42038374Y-37895701D01*
X42046612Y-37886612D01*
X42055701Y-37878374D01*
X42065554Y-37871066D01*
X42076075Y-37864760D01*
X42087165Y-37859515D01*
X42098714Y-37855382D01*
X42110614Y-37852402D01*
X42122748Y-37850602D01*
X42135000Y-37850000D01*
X43260000Y-37850000D01*
X43272252Y-37850602D01*
X43272252Y-37850602D01*
G37*
D12*
X42697500Y-38100000D03*
D10*
G36*
X43272252Y-39120602D02*
G01*
X43284386Y-39122402D01*
X43296286Y-39125382D01*
X43307835Y-39129515D01*
X43318925Y-39134760D01*
X43329446Y-39141066D01*
X43339299Y-39148374D01*
X43348388Y-39156612D01*
X43356626Y-39165701D01*
X43363934Y-39175554D01*
X43370240Y-39186075D01*
X43375485Y-39197165D01*
X43379618Y-39208714D01*
X43382598Y-39220614D01*
X43384398Y-39232748D01*
X43385000Y-39245000D01*
X43385000Y-39495000D01*
X43384398Y-39507252D01*
X43382598Y-39519386D01*
X43379618Y-39531286D01*
X43375485Y-39542835D01*
X43370240Y-39553925D01*
X43363934Y-39564446D01*
X43356626Y-39574299D01*
X43348388Y-39583388D01*
X43339299Y-39591626D01*
X43329446Y-39598934D01*
X43318925Y-39605240D01*
X43307835Y-39610485D01*
X43296286Y-39614618D01*
X43284386Y-39617598D01*
X43272252Y-39619398D01*
X43260000Y-39620000D01*
X42135000Y-39620000D01*
X42122748Y-39619398D01*
X42110614Y-39617598D01*
X42098714Y-39614618D01*
X42087165Y-39610485D01*
X42076075Y-39605240D01*
X42065554Y-39598934D01*
X42055701Y-39591626D01*
X42046612Y-39583388D01*
X42038374Y-39574299D01*
X42031066Y-39564446D01*
X42024760Y-39553925D01*
X42019515Y-39542835D01*
X42015382Y-39531286D01*
X42012402Y-39519386D01*
X42010602Y-39507252D01*
X42010000Y-39495000D01*
X42010000Y-39245000D01*
X42010602Y-39232748D01*
X42012402Y-39220614D01*
X42015382Y-39208714D01*
X42019515Y-39197165D01*
X42024760Y-39186075D01*
X42031066Y-39175554D01*
X42038374Y-39165701D01*
X42046612Y-39156612D01*
X42055701Y-39148374D01*
X42065554Y-39141066D01*
X42076075Y-39134760D01*
X42087165Y-39129515D01*
X42098714Y-39125382D01*
X42110614Y-39122402D01*
X42122748Y-39120602D01*
X42135000Y-39120000D01*
X43260000Y-39120000D01*
X43272252Y-39120602D01*
X43272252Y-39120602D01*
G37*
D12*
X42697500Y-39370000D03*
D10*
G36*
X43272252Y-40390602D02*
G01*
X43284386Y-40392402D01*
X43296286Y-40395382D01*
X43307835Y-40399515D01*
X43318925Y-40404760D01*
X43329446Y-40411066D01*
X43339299Y-40418374D01*
X43348388Y-40426612D01*
X43356626Y-40435701D01*
X43363934Y-40445554D01*
X43370240Y-40456075D01*
X43375485Y-40467165D01*
X43379618Y-40478714D01*
X43382598Y-40490614D01*
X43384398Y-40502748D01*
X43385000Y-40515000D01*
X43385000Y-40765000D01*
X43384398Y-40777252D01*
X43382598Y-40789386D01*
X43379618Y-40801286D01*
X43375485Y-40812835D01*
X43370240Y-40823925D01*
X43363934Y-40834446D01*
X43356626Y-40844299D01*
X43348388Y-40853388D01*
X43339299Y-40861626D01*
X43329446Y-40868934D01*
X43318925Y-40875240D01*
X43307835Y-40880485D01*
X43296286Y-40884618D01*
X43284386Y-40887598D01*
X43272252Y-40889398D01*
X43260000Y-40890000D01*
X42135000Y-40890000D01*
X42122748Y-40889398D01*
X42110614Y-40887598D01*
X42098714Y-40884618D01*
X42087165Y-40880485D01*
X42076075Y-40875240D01*
X42065554Y-40868934D01*
X42055701Y-40861626D01*
X42046612Y-40853388D01*
X42038374Y-40844299D01*
X42031066Y-40834446D01*
X42024760Y-40823925D01*
X42019515Y-40812835D01*
X42015382Y-40801286D01*
X42012402Y-40789386D01*
X42010602Y-40777252D01*
X42010000Y-40765000D01*
X42010000Y-40515000D01*
X42010602Y-40502748D01*
X42012402Y-40490614D01*
X42015382Y-40478714D01*
X42019515Y-40467165D01*
X42024760Y-40456075D01*
X42031066Y-40445554D01*
X42038374Y-40435701D01*
X42046612Y-40426612D01*
X42055701Y-40418374D01*
X42065554Y-40411066D01*
X42076075Y-40404760D01*
X42087165Y-40399515D01*
X42098714Y-40395382D01*
X42110614Y-40392402D01*
X42122748Y-40390602D01*
X42135000Y-40390000D01*
X43260000Y-40390000D01*
X43272252Y-40390602D01*
X43272252Y-40390602D01*
G37*
D12*
X42697500Y-40640000D03*
D10*
G36*
X43272252Y-41660602D02*
G01*
X43284386Y-41662402D01*
X43296286Y-41665382D01*
X43307835Y-41669515D01*
X43318925Y-41674760D01*
X43329446Y-41681066D01*
X43339299Y-41688374D01*
X43348388Y-41696612D01*
X43356626Y-41705701D01*
X43363934Y-41715554D01*
X43370240Y-41726075D01*
X43375485Y-41737165D01*
X43379618Y-41748714D01*
X43382598Y-41760614D01*
X43384398Y-41772748D01*
X43385000Y-41785000D01*
X43385000Y-42035000D01*
X43384398Y-42047252D01*
X43382598Y-42059386D01*
X43379618Y-42071286D01*
X43375485Y-42082835D01*
X43370240Y-42093925D01*
X43363934Y-42104446D01*
X43356626Y-42114299D01*
X43348388Y-42123388D01*
X43339299Y-42131626D01*
X43329446Y-42138934D01*
X43318925Y-42145240D01*
X43307835Y-42150485D01*
X43296286Y-42154618D01*
X43284386Y-42157598D01*
X43272252Y-42159398D01*
X43260000Y-42160000D01*
X42135000Y-42160000D01*
X42122748Y-42159398D01*
X42110614Y-42157598D01*
X42098714Y-42154618D01*
X42087165Y-42150485D01*
X42076075Y-42145240D01*
X42065554Y-42138934D01*
X42055701Y-42131626D01*
X42046612Y-42123388D01*
X42038374Y-42114299D01*
X42031066Y-42104446D01*
X42024760Y-42093925D01*
X42019515Y-42082835D01*
X42015382Y-42071286D01*
X42012402Y-42059386D01*
X42010602Y-42047252D01*
X42010000Y-42035000D01*
X42010000Y-41785000D01*
X42010602Y-41772748D01*
X42012402Y-41760614D01*
X42015382Y-41748714D01*
X42019515Y-41737165D01*
X42024760Y-41726075D01*
X42031066Y-41715554D01*
X42038374Y-41705701D01*
X42046612Y-41696612D01*
X42055701Y-41688374D01*
X42065554Y-41681066D01*
X42076075Y-41674760D01*
X42087165Y-41669515D01*
X42098714Y-41665382D01*
X42110614Y-41662402D01*
X42122748Y-41660602D01*
X42135000Y-41660000D01*
X43260000Y-41660000D01*
X43272252Y-41660602D01*
X43272252Y-41660602D01*
G37*
D12*
X42697500Y-41910000D03*
D10*
G36*
X44587252Y-42980602D02*
G01*
X44599386Y-42982402D01*
X44611286Y-42985382D01*
X44622835Y-42989515D01*
X44633925Y-42994760D01*
X44644446Y-43001066D01*
X44654299Y-43008374D01*
X44663388Y-43016612D01*
X44671626Y-43025701D01*
X44678934Y-43035554D01*
X44685240Y-43046075D01*
X44690485Y-43057165D01*
X44694618Y-43068714D01*
X44697598Y-43080614D01*
X44699398Y-43092748D01*
X44700000Y-43105000D01*
X44700000Y-44230000D01*
X44699398Y-44242252D01*
X44697598Y-44254386D01*
X44694618Y-44266286D01*
X44690485Y-44277835D01*
X44685240Y-44288925D01*
X44678934Y-44299446D01*
X44671626Y-44309299D01*
X44663388Y-44318388D01*
X44654299Y-44326626D01*
X44644446Y-44333934D01*
X44633925Y-44340240D01*
X44622835Y-44345485D01*
X44611286Y-44349618D01*
X44599386Y-44352598D01*
X44587252Y-44354398D01*
X44575000Y-44355000D01*
X44325000Y-44355000D01*
X44312748Y-44354398D01*
X44300614Y-44352598D01*
X44288714Y-44349618D01*
X44277165Y-44345485D01*
X44266075Y-44340240D01*
X44255554Y-44333934D01*
X44245701Y-44326626D01*
X44236612Y-44318388D01*
X44228374Y-44309299D01*
X44221066Y-44299446D01*
X44214760Y-44288925D01*
X44209515Y-44277835D01*
X44205382Y-44266286D01*
X44202402Y-44254386D01*
X44200602Y-44242252D01*
X44200000Y-44230000D01*
X44200000Y-43105000D01*
X44200602Y-43092748D01*
X44202402Y-43080614D01*
X44205382Y-43068714D01*
X44209515Y-43057165D01*
X44214760Y-43046075D01*
X44221066Y-43035554D01*
X44228374Y-43025701D01*
X44236612Y-43016612D01*
X44245701Y-43008374D01*
X44255554Y-43001066D01*
X44266075Y-42994760D01*
X44277165Y-42989515D01*
X44288714Y-42985382D01*
X44300614Y-42982402D01*
X44312748Y-42980602D01*
X44325000Y-42980000D01*
X44575000Y-42980000D01*
X44587252Y-42980602D01*
X44587252Y-42980602D01*
G37*
D12*
X44450000Y-43667500D03*
D10*
G36*
X45857252Y-42980602D02*
G01*
X45869386Y-42982402D01*
X45881286Y-42985382D01*
X45892835Y-42989515D01*
X45903925Y-42994760D01*
X45914446Y-43001066D01*
X45924299Y-43008374D01*
X45933388Y-43016612D01*
X45941626Y-43025701D01*
X45948934Y-43035554D01*
X45955240Y-43046075D01*
X45960485Y-43057165D01*
X45964618Y-43068714D01*
X45967598Y-43080614D01*
X45969398Y-43092748D01*
X45970000Y-43105000D01*
X45970000Y-44230000D01*
X45969398Y-44242252D01*
X45967598Y-44254386D01*
X45964618Y-44266286D01*
X45960485Y-44277835D01*
X45955240Y-44288925D01*
X45948934Y-44299446D01*
X45941626Y-44309299D01*
X45933388Y-44318388D01*
X45924299Y-44326626D01*
X45914446Y-44333934D01*
X45903925Y-44340240D01*
X45892835Y-44345485D01*
X45881286Y-44349618D01*
X45869386Y-44352598D01*
X45857252Y-44354398D01*
X45845000Y-44355000D01*
X45595000Y-44355000D01*
X45582748Y-44354398D01*
X45570614Y-44352598D01*
X45558714Y-44349618D01*
X45547165Y-44345485D01*
X45536075Y-44340240D01*
X45525554Y-44333934D01*
X45515701Y-44326626D01*
X45506612Y-44318388D01*
X45498374Y-44309299D01*
X45491066Y-44299446D01*
X45484760Y-44288925D01*
X45479515Y-44277835D01*
X45475382Y-44266286D01*
X45472402Y-44254386D01*
X45470602Y-44242252D01*
X45470000Y-44230000D01*
X45470000Y-43105000D01*
X45470602Y-43092748D01*
X45472402Y-43080614D01*
X45475382Y-43068714D01*
X45479515Y-43057165D01*
X45484760Y-43046075D01*
X45491066Y-43035554D01*
X45498374Y-43025701D01*
X45506612Y-43016612D01*
X45515701Y-43008374D01*
X45525554Y-43001066D01*
X45536075Y-42994760D01*
X45547165Y-42989515D01*
X45558714Y-42985382D01*
X45570614Y-42982402D01*
X45582748Y-42980602D01*
X45595000Y-42980000D01*
X45845000Y-42980000D01*
X45857252Y-42980602D01*
X45857252Y-42980602D01*
G37*
D12*
X45720000Y-43667500D03*
D10*
G36*
X47127252Y-42980602D02*
G01*
X47139386Y-42982402D01*
X47151286Y-42985382D01*
X47162835Y-42989515D01*
X47173925Y-42994760D01*
X47184446Y-43001066D01*
X47194299Y-43008374D01*
X47203388Y-43016612D01*
X47211626Y-43025701D01*
X47218934Y-43035554D01*
X47225240Y-43046075D01*
X47230485Y-43057165D01*
X47234618Y-43068714D01*
X47237598Y-43080614D01*
X47239398Y-43092748D01*
X47240000Y-43105000D01*
X47240000Y-44230000D01*
X47239398Y-44242252D01*
X47237598Y-44254386D01*
X47234618Y-44266286D01*
X47230485Y-44277835D01*
X47225240Y-44288925D01*
X47218934Y-44299446D01*
X47211626Y-44309299D01*
X47203388Y-44318388D01*
X47194299Y-44326626D01*
X47184446Y-44333934D01*
X47173925Y-44340240D01*
X47162835Y-44345485D01*
X47151286Y-44349618D01*
X47139386Y-44352598D01*
X47127252Y-44354398D01*
X47115000Y-44355000D01*
X46865000Y-44355000D01*
X46852748Y-44354398D01*
X46840614Y-44352598D01*
X46828714Y-44349618D01*
X46817165Y-44345485D01*
X46806075Y-44340240D01*
X46795554Y-44333934D01*
X46785701Y-44326626D01*
X46776612Y-44318388D01*
X46768374Y-44309299D01*
X46761066Y-44299446D01*
X46754760Y-44288925D01*
X46749515Y-44277835D01*
X46745382Y-44266286D01*
X46742402Y-44254386D01*
X46740602Y-44242252D01*
X46740000Y-44230000D01*
X46740000Y-43105000D01*
X46740602Y-43092748D01*
X46742402Y-43080614D01*
X46745382Y-43068714D01*
X46749515Y-43057165D01*
X46754760Y-43046075D01*
X46761066Y-43035554D01*
X46768374Y-43025701D01*
X46776612Y-43016612D01*
X46785701Y-43008374D01*
X46795554Y-43001066D01*
X46806075Y-42994760D01*
X46817165Y-42989515D01*
X46828714Y-42985382D01*
X46840614Y-42982402D01*
X46852748Y-42980602D01*
X46865000Y-42980000D01*
X47115000Y-42980000D01*
X47127252Y-42980602D01*
X47127252Y-42980602D01*
G37*
D12*
X46990000Y-43667500D03*
D10*
G36*
X48397252Y-42980602D02*
G01*
X48409386Y-42982402D01*
X48421286Y-42985382D01*
X48432835Y-42989515D01*
X48443925Y-42994760D01*
X48454446Y-43001066D01*
X48464299Y-43008374D01*
X48473388Y-43016612D01*
X48481626Y-43025701D01*
X48488934Y-43035554D01*
X48495240Y-43046075D01*
X48500485Y-43057165D01*
X48504618Y-43068714D01*
X48507598Y-43080614D01*
X48509398Y-43092748D01*
X48510000Y-43105000D01*
X48510000Y-44230000D01*
X48509398Y-44242252D01*
X48507598Y-44254386D01*
X48504618Y-44266286D01*
X48500485Y-44277835D01*
X48495240Y-44288925D01*
X48488934Y-44299446D01*
X48481626Y-44309299D01*
X48473388Y-44318388D01*
X48464299Y-44326626D01*
X48454446Y-44333934D01*
X48443925Y-44340240D01*
X48432835Y-44345485D01*
X48421286Y-44349618D01*
X48409386Y-44352598D01*
X48397252Y-44354398D01*
X48385000Y-44355000D01*
X48135000Y-44355000D01*
X48122748Y-44354398D01*
X48110614Y-44352598D01*
X48098714Y-44349618D01*
X48087165Y-44345485D01*
X48076075Y-44340240D01*
X48065554Y-44333934D01*
X48055701Y-44326626D01*
X48046612Y-44318388D01*
X48038374Y-44309299D01*
X48031066Y-44299446D01*
X48024760Y-44288925D01*
X48019515Y-44277835D01*
X48015382Y-44266286D01*
X48012402Y-44254386D01*
X48010602Y-44242252D01*
X48010000Y-44230000D01*
X48010000Y-43105000D01*
X48010602Y-43092748D01*
X48012402Y-43080614D01*
X48015382Y-43068714D01*
X48019515Y-43057165D01*
X48024760Y-43046075D01*
X48031066Y-43035554D01*
X48038374Y-43025701D01*
X48046612Y-43016612D01*
X48055701Y-43008374D01*
X48065554Y-43001066D01*
X48076075Y-42994760D01*
X48087165Y-42989515D01*
X48098714Y-42985382D01*
X48110614Y-42982402D01*
X48122748Y-42980602D01*
X48135000Y-42980000D01*
X48385000Y-42980000D01*
X48397252Y-42980602D01*
X48397252Y-42980602D01*
G37*
D12*
X48260000Y-43667500D03*
D10*
G36*
X49667252Y-42980602D02*
G01*
X49679386Y-42982402D01*
X49691286Y-42985382D01*
X49702835Y-42989515D01*
X49713925Y-42994760D01*
X49724446Y-43001066D01*
X49734299Y-43008374D01*
X49743388Y-43016612D01*
X49751626Y-43025701D01*
X49758934Y-43035554D01*
X49765240Y-43046075D01*
X49770485Y-43057165D01*
X49774618Y-43068714D01*
X49777598Y-43080614D01*
X49779398Y-43092748D01*
X49780000Y-43105000D01*
X49780000Y-44230000D01*
X49779398Y-44242252D01*
X49777598Y-44254386D01*
X49774618Y-44266286D01*
X49770485Y-44277835D01*
X49765240Y-44288925D01*
X49758934Y-44299446D01*
X49751626Y-44309299D01*
X49743388Y-44318388D01*
X49734299Y-44326626D01*
X49724446Y-44333934D01*
X49713925Y-44340240D01*
X49702835Y-44345485D01*
X49691286Y-44349618D01*
X49679386Y-44352598D01*
X49667252Y-44354398D01*
X49655000Y-44355000D01*
X49405000Y-44355000D01*
X49392748Y-44354398D01*
X49380614Y-44352598D01*
X49368714Y-44349618D01*
X49357165Y-44345485D01*
X49346075Y-44340240D01*
X49335554Y-44333934D01*
X49325701Y-44326626D01*
X49316612Y-44318388D01*
X49308374Y-44309299D01*
X49301066Y-44299446D01*
X49294760Y-44288925D01*
X49289515Y-44277835D01*
X49285382Y-44266286D01*
X49282402Y-44254386D01*
X49280602Y-44242252D01*
X49280000Y-44230000D01*
X49280000Y-43105000D01*
X49280602Y-43092748D01*
X49282402Y-43080614D01*
X49285382Y-43068714D01*
X49289515Y-43057165D01*
X49294760Y-43046075D01*
X49301066Y-43035554D01*
X49308374Y-43025701D01*
X49316612Y-43016612D01*
X49325701Y-43008374D01*
X49335554Y-43001066D01*
X49346075Y-42994760D01*
X49357165Y-42989515D01*
X49368714Y-42985382D01*
X49380614Y-42982402D01*
X49392748Y-42980602D01*
X49405000Y-42980000D01*
X49655000Y-42980000D01*
X49667252Y-42980602D01*
X49667252Y-42980602D01*
G37*
D12*
X49530000Y-43667500D03*
D10*
G36*
X50937252Y-42980602D02*
G01*
X50949386Y-42982402D01*
X50961286Y-42985382D01*
X50972835Y-42989515D01*
X50983925Y-42994760D01*
X50994446Y-43001066D01*
X51004299Y-43008374D01*
X51013388Y-43016612D01*
X51021626Y-43025701D01*
X51028934Y-43035554D01*
X51035240Y-43046075D01*
X51040485Y-43057165D01*
X51044618Y-43068714D01*
X51047598Y-43080614D01*
X51049398Y-43092748D01*
X51050000Y-43105000D01*
X51050000Y-44230000D01*
X51049398Y-44242252D01*
X51047598Y-44254386D01*
X51044618Y-44266286D01*
X51040485Y-44277835D01*
X51035240Y-44288925D01*
X51028934Y-44299446D01*
X51021626Y-44309299D01*
X51013388Y-44318388D01*
X51004299Y-44326626D01*
X50994446Y-44333934D01*
X50983925Y-44340240D01*
X50972835Y-44345485D01*
X50961286Y-44349618D01*
X50949386Y-44352598D01*
X50937252Y-44354398D01*
X50925000Y-44355000D01*
X50675000Y-44355000D01*
X50662748Y-44354398D01*
X50650614Y-44352598D01*
X50638714Y-44349618D01*
X50627165Y-44345485D01*
X50616075Y-44340240D01*
X50605554Y-44333934D01*
X50595701Y-44326626D01*
X50586612Y-44318388D01*
X50578374Y-44309299D01*
X50571066Y-44299446D01*
X50564760Y-44288925D01*
X50559515Y-44277835D01*
X50555382Y-44266286D01*
X50552402Y-44254386D01*
X50550602Y-44242252D01*
X50550000Y-44230000D01*
X50550000Y-43105000D01*
X50550602Y-43092748D01*
X50552402Y-43080614D01*
X50555382Y-43068714D01*
X50559515Y-43057165D01*
X50564760Y-43046075D01*
X50571066Y-43035554D01*
X50578374Y-43025701D01*
X50586612Y-43016612D01*
X50595701Y-43008374D01*
X50605554Y-43001066D01*
X50616075Y-42994760D01*
X50627165Y-42989515D01*
X50638714Y-42985382D01*
X50650614Y-42982402D01*
X50662748Y-42980602D01*
X50675000Y-42980000D01*
X50925000Y-42980000D01*
X50937252Y-42980602D01*
X50937252Y-42980602D01*
G37*
D12*
X50800000Y-43667500D03*
D10*
G36*
X52207252Y-42980602D02*
G01*
X52219386Y-42982402D01*
X52231286Y-42985382D01*
X52242835Y-42989515D01*
X52253925Y-42994760D01*
X52264446Y-43001066D01*
X52274299Y-43008374D01*
X52283388Y-43016612D01*
X52291626Y-43025701D01*
X52298934Y-43035554D01*
X52305240Y-43046075D01*
X52310485Y-43057165D01*
X52314618Y-43068714D01*
X52317598Y-43080614D01*
X52319398Y-43092748D01*
X52320000Y-43105000D01*
X52320000Y-44230000D01*
X52319398Y-44242252D01*
X52317598Y-44254386D01*
X52314618Y-44266286D01*
X52310485Y-44277835D01*
X52305240Y-44288925D01*
X52298934Y-44299446D01*
X52291626Y-44309299D01*
X52283388Y-44318388D01*
X52274299Y-44326626D01*
X52264446Y-44333934D01*
X52253925Y-44340240D01*
X52242835Y-44345485D01*
X52231286Y-44349618D01*
X52219386Y-44352598D01*
X52207252Y-44354398D01*
X52195000Y-44355000D01*
X51945000Y-44355000D01*
X51932748Y-44354398D01*
X51920614Y-44352598D01*
X51908714Y-44349618D01*
X51897165Y-44345485D01*
X51886075Y-44340240D01*
X51875554Y-44333934D01*
X51865701Y-44326626D01*
X51856612Y-44318388D01*
X51848374Y-44309299D01*
X51841066Y-44299446D01*
X51834760Y-44288925D01*
X51829515Y-44277835D01*
X51825382Y-44266286D01*
X51822402Y-44254386D01*
X51820602Y-44242252D01*
X51820000Y-44230000D01*
X51820000Y-43105000D01*
X51820602Y-43092748D01*
X51822402Y-43080614D01*
X51825382Y-43068714D01*
X51829515Y-43057165D01*
X51834760Y-43046075D01*
X51841066Y-43035554D01*
X51848374Y-43025701D01*
X51856612Y-43016612D01*
X51865701Y-43008374D01*
X51875554Y-43001066D01*
X51886075Y-42994760D01*
X51897165Y-42989515D01*
X51908714Y-42985382D01*
X51920614Y-42982402D01*
X51932748Y-42980602D01*
X51945000Y-42980000D01*
X52195000Y-42980000D01*
X52207252Y-42980602D01*
X52207252Y-42980602D01*
G37*
D12*
X52070000Y-43667500D03*
D10*
G36*
X54397252Y-41660602D02*
G01*
X54409386Y-41662402D01*
X54421286Y-41665382D01*
X54432835Y-41669515D01*
X54443925Y-41674760D01*
X54454446Y-41681066D01*
X54464299Y-41688374D01*
X54473388Y-41696612D01*
X54481626Y-41705701D01*
X54488934Y-41715554D01*
X54495240Y-41726075D01*
X54500485Y-41737165D01*
X54504618Y-41748714D01*
X54507598Y-41760614D01*
X54509398Y-41772748D01*
X54510000Y-41785000D01*
X54510000Y-42035000D01*
X54509398Y-42047252D01*
X54507598Y-42059386D01*
X54504618Y-42071286D01*
X54500485Y-42082835D01*
X54495240Y-42093925D01*
X54488934Y-42104446D01*
X54481626Y-42114299D01*
X54473388Y-42123388D01*
X54464299Y-42131626D01*
X54454446Y-42138934D01*
X54443925Y-42145240D01*
X54432835Y-42150485D01*
X54421286Y-42154618D01*
X54409386Y-42157598D01*
X54397252Y-42159398D01*
X54385000Y-42160000D01*
X53260000Y-42160000D01*
X53247748Y-42159398D01*
X53235614Y-42157598D01*
X53223714Y-42154618D01*
X53212165Y-42150485D01*
X53201075Y-42145240D01*
X53190554Y-42138934D01*
X53180701Y-42131626D01*
X53171612Y-42123388D01*
X53163374Y-42114299D01*
X53156066Y-42104446D01*
X53149760Y-42093925D01*
X53144515Y-42082835D01*
X53140382Y-42071286D01*
X53137402Y-42059386D01*
X53135602Y-42047252D01*
X53135000Y-42035000D01*
X53135000Y-41785000D01*
X53135602Y-41772748D01*
X53137402Y-41760614D01*
X53140382Y-41748714D01*
X53144515Y-41737165D01*
X53149760Y-41726075D01*
X53156066Y-41715554D01*
X53163374Y-41705701D01*
X53171612Y-41696612D01*
X53180701Y-41688374D01*
X53190554Y-41681066D01*
X53201075Y-41674760D01*
X53212165Y-41669515D01*
X53223714Y-41665382D01*
X53235614Y-41662402D01*
X53247748Y-41660602D01*
X53260000Y-41660000D01*
X54385000Y-41660000D01*
X54397252Y-41660602D01*
X54397252Y-41660602D01*
G37*
D12*
X53822500Y-41910000D03*
D10*
G36*
X54397252Y-40390602D02*
G01*
X54409386Y-40392402D01*
X54421286Y-40395382D01*
X54432835Y-40399515D01*
X54443925Y-40404760D01*
X54454446Y-40411066D01*
X54464299Y-40418374D01*
X54473388Y-40426612D01*
X54481626Y-40435701D01*
X54488934Y-40445554D01*
X54495240Y-40456075D01*
X54500485Y-40467165D01*
X54504618Y-40478714D01*
X54507598Y-40490614D01*
X54509398Y-40502748D01*
X54510000Y-40515000D01*
X54510000Y-40765000D01*
X54509398Y-40777252D01*
X54507598Y-40789386D01*
X54504618Y-40801286D01*
X54500485Y-40812835D01*
X54495240Y-40823925D01*
X54488934Y-40834446D01*
X54481626Y-40844299D01*
X54473388Y-40853388D01*
X54464299Y-40861626D01*
X54454446Y-40868934D01*
X54443925Y-40875240D01*
X54432835Y-40880485D01*
X54421286Y-40884618D01*
X54409386Y-40887598D01*
X54397252Y-40889398D01*
X54385000Y-40890000D01*
X53260000Y-40890000D01*
X53247748Y-40889398D01*
X53235614Y-40887598D01*
X53223714Y-40884618D01*
X53212165Y-40880485D01*
X53201075Y-40875240D01*
X53190554Y-40868934D01*
X53180701Y-40861626D01*
X53171612Y-40853388D01*
X53163374Y-40844299D01*
X53156066Y-40834446D01*
X53149760Y-40823925D01*
X53144515Y-40812835D01*
X53140382Y-40801286D01*
X53137402Y-40789386D01*
X53135602Y-40777252D01*
X53135000Y-40765000D01*
X53135000Y-40515000D01*
X53135602Y-40502748D01*
X53137402Y-40490614D01*
X53140382Y-40478714D01*
X53144515Y-40467165D01*
X53149760Y-40456075D01*
X53156066Y-40445554D01*
X53163374Y-40435701D01*
X53171612Y-40426612D01*
X53180701Y-40418374D01*
X53190554Y-40411066D01*
X53201075Y-40404760D01*
X53212165Y-40399515D01*
X53223714Y-40395382D01*
X53235614Y-40392402D01*
X53247748Y-40390602D01*
X53260000Y-40390000D01*
X54385000Y-40390000D01*
X54397252Y-40390602D01*
X54397252Y-40390602D01*
G37*
D12*
X53822500Y-40640000D03*
D10*
G36*
X54397252Y-39120602D02*
G01*
X54409386Y-39122402D01*
X54421286Y-39125382D01*
X54432835Y-39129515D01*
X54443925Y-39134760D01*
X54454446Y-39141066D01*
X54464299Y-39148374D01*
X54473388Y-39156612D01*
X54481626Y-39165701D01*
X54488934Y-39175554D01*
X54495240Y-39186075D01*
X54500485Y-39197165D01*
X54504618Y-39208714D01*
X54507598Y-39220614D01*
X54509398Y-39232748D01*
X54510000Y-39245000D01*
X54510000Y-39495000D01*
X54509398Y-39507252D01*
X54507598Y-39519386D01*
X54504618Y-39531286D01*
X54500485Y-39542835D01*
X54495240Y-39553925D01*
X54488934Y-39564446D01*
X54481626Y-39574299D01*
X54473388Y-39583388D01*
X54464299Y-39591626D01*
X54454446Y-39598934D01*
X54443925Y-39605240D01*
X54432835Y-39610485D01*
X54421286Y-39614618D01*
X54409386Y-39617598D01*
X54397252Y-39619398D01*
X54385000Y-39620000D01*
X53260000Y-39620000D01*
X53247748Y-39619398D01*
X53235614Y-39617598D01*
X53223714Y-39614618D01*
X53212165Y-39610485D01*
X53201075Y-39605240D01*
X53190554Y-39598934D01*
X53180701Y-39591626D01*
X53171612Y-39583388D01*
X53163374Y-39574299D01*
X53156066Y-39564446D01*
X53149760Y-39553925D01*
X53144515Y-39542835D01*
X53140382Y-39531286D01*
X53137402Y-39519386D01*
X53135602Y-39507252D01*
X53135000Y-39495000D01*
X53135000Y-39245000D01*
X53135602Y-39232748D01*
X53137402Y-39220614D01*
X53140382Y-39208714D01*
X53144515Y-39197165D01*
X53149760Y-39186075D01*
X53156066Y-39175554D01*
X53163374Y-39165701D01*
X53171612Y-39156612D01*
X53180701Y-39148374D01*
X53190554Y-39141066D01*
X53201075Y-39134760D01*
X53212165Y-39129515D01*
X53223714Y-39125382D01*
X53235614Y-39122402D01*
X53247748Y-39120602D01*
X53260000Y-39120000D01*
X54385000Y-39120000D01*
X54397252Y-39120602D01*
X54397252Y-39120602D01*
G37*
D12*
X53822500Y-39370000D03*
D10*
G36*
X54397252Y-37850602D02*
G01*
X54409386Y-37852402D01*
X54421286Y-37855382D01*
X54432835Y-37859515D01*
X54443925Y-37864760D01*
X54454446Y-37871066D01*
X54464299Y-37878374D01*
X54473388Y-37886612D01*
X54481626Y-37895701D01*
X54488934Y-37905554D01*
X54495240Y-37916075D01*
X54500485Y-37927165D01*
X54504618Y-37938714D01*
X54507598Y-37950614D01*
X54509398Y-37962748D01*
X54510000Y-37975000D01*
X54510000Y-38225000D01*
X54509398Y-38237252D01*
X54507598Y-38249386D01*
X54504618Y-38261286D01*
X54500485Y-38272835D01*
X54495240Y-38283925D01*
X54488934Y-38294446D01*
X54481626Y-38304299D01*
X54473388Y-38313388D01*
X54464299Y-38321626D01*
X54454446Y-38328934D01*
X54443925Y-38335240D01*
X54432835Y-38340485D01*
X54421286Y-38344618D01*
X54409386Y-38347598D01*
X54397252Y-38349398D01*
X54385000Y-38350000D01*
X53260000Y-38350000D01*
X53247748Y-38349398D01*
X53235614Y-38347598D01*
X53223714Y-38344618D01*
X53212165Y-38340485D01*
X53201075Y-38335240D01*
X53190554Y-38328934D01*
X53180701Y-38321626D01*
X53171612Y-38313388D01*
X53163374Y-38304299D01*
X53156066Y-38294446D01*
X53149760Y-38283925D01*
X53144515Y-38272835D01*
X53140382Y-38261286D01*
X53137402Y-38249386D01*
X53135602Y-38237252D01*
X53135000Y-38225000D01*
X53135000Y-37975000D01*
X53135602Y-37962748D01*
X53137402Y-37950614D01*
X53140382Y-37938714D01*
X53144515Y-37927165D01*
X53149760Y-37916075D01*
X53156066Y-37905554D01*
X53163374Y-37895701D01*
X53171612Y-37886612D01*
X53180701Y-37878374D01*
X53190554Y-37871066D01*
X53201075Y-37864760D01*
X53212165Y-37859515D01*
X53223714Y-37855382D01*
X53235614Y-37852402D01*
X53247748Y-37850602D01*
X53260000Y-37850000D01*
X54385000Y-37850000D01*
X54397252Y-37850602D01*
X54397252Y-37850602D01*
G37*
D12*
X53822500Y-38100000D03*
D10*
G36*
X54397252Y-36580602D02*
G01*
X54409386Y-36582402D01*
X54421286Y-36585382D01*
X54432835Y-36589515D01*
X54443925Y-36594760D01*
X54454446Y-36601066D01*
X54464299Y-36608374D01*
X54473388Y-36616612D01*
X54481626Y-36625701D01*
X54488934Y-36635554D01*
X54495240Y-36646075D01*
X54500485Y-36657165D01*
X54504618Y-36668714D01*
X54507598Y-36680614D01*
X54509398Y-36692748D01*
X54510000Y-36705000D01*
X54510000Y-36955000D01*
X54509398Y-36967252D01*
X54507598Y-36979386D01*
X54504618Y-36991286D01*
X54500485Y-37002835D01*
X54495240Y-37013925D01*
X54488934Y-37024446D01*
X54481626Y-37034299D01*
X54473388Y-37043388D01*
X54464299Y-37051626D01*
X54454446Y-37058934D01*
X54443925Y-37065240D01*
X54432835Y-37070485D01*
X54421286Y-37074618D01*
X54409386Y-37077598D01*
X54397252Y-37079398D01*
X54385000Y-37080000D01*
X53260000Y-37080000D01*
X53247748Y-37079398D01*
X53235614Y-37077598D01*
X53223714Y-37074618D01*
X53212165Y-37070485D01*
X53201075Y-37065240D01*
X53190554Y-37058934D01*
X53180701Y-37051626D01*
X53171612Y-37043388D01*
X53163374Y-37034299D01*
X53156066Y-37024446D01*
X53149760Y-37013925D01*
X53144515Y-37002835D01*
X53140382Y-36991286D01*
X53137402Y-36979386D01*
X53135602Y-36967252D01*
X53135000Y-36955000D01*
X53135000Y-36705000D01*
X53135602Y-36692748D01*
X53137402Y-36680614D01*
X53140382Y-36668714D01*
X53144515Y-36657165D01*
X53149760Y-36646075D01*
X53156066Y-36635554D01*
X53163374Y-36625701D01*
X53171612Y-36616612D01*
X53180701Y-36608374D01*
X53190554Y-36601066D01*
X53201075Y-36594760D01*
X53212165Y-36589515D01*
X53223714Y-36585382D01*
X53235614Y-36582402D01*
X53247748Y-36580602D01*
X53260000Y-36580000D01*
X54385000Y-36580000D01*
X54397252Y-36580602D01*
X54397252Y-36580602D01*
G37*
D12*
X53822500Y-36830000D03*
D10*
G36*
X54397252Y-35310602D02*
G01*
X54409386Y-35312402D01*
X54421286Y-35315382D01*
X54432835Y-35319515D01*
X54443925Y-35324760D01*
X54454446Y-35331066D01*
X54464299Y-35338374D01*
X54473388Y-35346612D01*
X54481626Y-35355701D01*
X54488934Y-35365554D01*
X54495240Y-35376075D01*
X54500485Y-35387165D01*
X54504618Y-35398714D01*
X54507598Y-35410614D01*
X54509398Y-35422748D01*
X54510000Y-35435000D01*
X54510000Y-35685000D01*
X54509398Y-35697252D01*
X54507598Y-35709386D01*
X54504618Y-35721286D01*
X54500485Y-35732835D01*
X54495240Y-35743925D01*
X54488934Y-35754446D01*
X54481626Y-35764299D01*
X54473388Y-35773388D01*
X54464299Y-35781626D01*
X54454446Y-35788934D01*
X54443925Y-35795240D01*
X54432835Y-35800485D01*
X54421286Y-35804618D01*
X54409386Y-35807598D01*
X54397252Y-35809398D01*
X54385000Y-35810000D01*
X53260000Y-35810000D01*
X53247748Y-35809398D01*
X53235614Y-35807598D01*
X53223714Y-35804618D01*
X53212165Y-35800485D01*
X53201075Y-35795240D01*
X53190554Y-35788934D01*
X53180701Y-35781626D01*
X53171612Y-35773388D01*
X53163374Y-35764299D01*
X53156066Y-35754446D01*
X53149760Y-35743925D01*
X53144515Y-35732835D01*
X53140382Y-35721286D01*
X53137402Y-35709386D01*
X53135602Y-35697252D01*
X53135000Y-35685000D01*
X53135000Y-35435000D01*
X53135602Y-35422748D01*
X53137402Y-35410614D01*
X53140382Y-35398714D01*
X53144515Y-35387165D01*
X53149760Y-35376075D01*
X53156066Y-35365554D01*
X53163374Y-35355701D01*
X53171612Y-35346612D01*
X53180701Y-35338374D01*
X53190554Y-35331066D01*
X53201075Y-35324760D01*
X53212165Y-35319515D01*
X53223714Y-35315382D01*
X53235614Y-35312402D01*
X53247748Y-35310602D01*
X53260000Y-35310000D01*
X54385000Y-35310000D01*
X54397252Y-35310602D01*
X54397252Y-35310602D01*
G37*
D12*
X53822500Y-35560000D03*
D10*
G36*
X54397252Y-34040602D02*
G01*
X54409386Y-34042402D01*
X54421286Y-34045382D01*
X54432835Y-34049515D01*
X54443925Y-34054760D01*
X54454446Y-34061066D01*
X54464299Y-34068374D01*
X54473388Y-34076612D01*
X54481626Y-34085701D01*
X54488934Y-34095554D01*
X54495240Y-34106075D01*
X54500485Y-34117165D01*
X54504618Y-34128714D01*
X54507598Y-34140614D01*
X54509398Y-34152748D01*
X54510000Y-34165000D01*
X54510000Y-34415000D01*
X54509398Y-34427252D01*
X54507598Y-34439386D01*
X54504618Y-34451286D01*
X54500485Y-34462835D01*
X54495240Y-34473925D01*
X54488934Y-34484446D01*
X54481626Y-34494299D01*
X54473388Y-34503388D01*
X54464299Y-34511626D01*
X54454446Y-34518934D01*
X54443925Y-34525240D01*
X54432835Y-34530485D01*
X54421286Y-34534618D01*
X54409386Y-34537598D01*
X54397252Y-34539398D01*
X54385000Y-34540000D01*
X53260000Y-34540000D01*
X53247748Y-34539398D01*
X53235614Y-34537598D01*
X53223714Y-34534618D01*
X53212165Y-34530485D01*
X53201075Y-34525240D01*
X53190554Y-34518934D01*
X53180701Y-34511626D01*
X53171612Y-34503388D01*
X53163374Y-34494299D01*
X53156066Y-34484446D01*
X53149760Y-34473925D01*
X53144515Y-34462835D01*
X53140382Y-34451286D01*
X53137402Y-34439386D01*
X53135602Y-34427252D01*
X53135000Y-34415000D01*
X53135000Y-34165000D01*
X53135602Y-34152748D01*
X53137402Y-34140614D01*
X53140382Y-34128714D01*
X53144515Y-34117165D01*
X53149760Y-34106075D01*
X53156066Y-34095554D01*
X53163374Y-34085701D01*
X53171612Y-34076612D01*
X53180701Y-34068374D01*
X53190554Y-34061066D01*
X53201075Y-34054760D01*
X53212165Y-34049515D01*
X53223714Y-34045382D01*
X53235614Y-34042402D01*
X53247748Y-34040602D01*
X53260000Y-34040000D01*
X54385000Y-34040000D01*
X54397252Y-34040602D01*
X54397252Y-34040602D01*
G37*
D12*
X53822500Y-34290000D03*
D10*
G36*
X54397252Y-32770602D02*
G01*
X54409386Y-32772402D01*
X54421286Y-32775382D01*
X54432835Y-32779515D01*
X54443925Y-32784760D01*
X54454446Y-32791066D01*
X54464299Y-32798374D01*
X54473388Y-32806612D01*
X54481626Y-32815701D01*
X54488934Y-32825554D01*
X54495240Y-32836075D01*
X54500485Y-32847165D01*
X54504618Y-32858714D01*
X54507598Y-32870614D01*
X54509398Y-32882748D01*
X54510000Y-32895000D01*
X54510000Y-33145000D01*
X54509398Y-33157252D01*
X54507598Y-33169386D01*
X54504618Y-33181286D01*
X54500485Y-33192835D01*
X54495240Y-33203925D01*
X54488934Y-33214446D01*
X54481626Y-33224299D01*
X54473388Y-33233388D01*
X54464299Y-33241626D01*
X54454446Y-33248934D01*
X54443925Y-33255240D01*
X54432835Y-33260485D01*
X54421286Y-33264618D01*
X54409386Y-33267598D01*
X54397252Y-33269398D01*
X54385000Y-33270000D01*
X53260000Y-33270000D01*
X53247748Y-33269398D01*
X53235614Y-33267598D01*
X53223714Y-33264618D01*
X53212165Y-33260485D01*
X53201075Y-33255240D01*
X53190554Y-33248934D01*
X53180701Y-33241626D01*
X53171612Y-33233388D01*
X53163374Y-33224299D01*
X53156066Y-33214446D01*
X53149760Y-33203925D01*
X53144515Y-33192835D01*
X53140382Y-33181286D01*
X53137402Y-33169386D01*
X53135602Y-33157252D01*
X53135000Y-33145000D01*
X53135000Y-32895000D01*
X53135602Y-32882748D01*
X53137402Y-32870614D01*
X53140382Y-32858714D01*
X53144515Y-32847165D01*
X53149760Y-32836075D01*
X53156066Y-32825554D01*
X53163374Y-32815701D01*
X53171612Y-32806612D01*
X53180701Y-32798374D01*
X53190554Y-32791066D01*
X53201075Y-32784760D01*
X53212165Y-32779515D01*
X53223714Y-32775382D01*
X53235614Y-32772402D01*
X53247748Y-32770602D01*
X53260000Y-32770000D01*
X54385000Y-32770000D01*
X54397252Y-32770602D01*
X54397252Y-32770602D01*
G37*
D12*
X53822500Y-33020000D03*
D10*
G36*
X54397252Y-31500602D02*
G01*
X54409386Y-31502402D01*
X54421286Y-31505382D01*
X54432835Y-31509515D01*
X54443925Y-31514760D01*
X54454446Y-31521066D01*
X54464299Y-31528374D01*
X54473388Y-31536612D01*
X54481626Y-31545701D01*
X54488934Y-31555554D01*
X54495240Y-31566075D01*
X54500485Y-31577165D01*
X54504618Y-31588714D01*
X54507598Y-31600614D01*
X54509398Y-31612748D01*
X54510000Y-31625000D01*
X54510000Y-31875000D01*
X54509398Y-31887252D01*
X54507598Y-31899386D01*
X54504618Y-31911286D01*
X54500485Y-31922835D01*
X54495240Y-31933925D01*
X54488934Y-31944446D01*
X54481626Y-31954299D01*
X54473388Y-31963388D01*
X54464299Y-31971626D01*
X54454446Y-31978934D01*
X54443925Y-31985240D01*
X54432835Y-31990485D01*
X54421286Y-31994618D01*
X54409386Y-31997598D01*
X54397252Y-31999398D01*
X54385000Y-32000000D01*
X53260000Y-32000000D01*
X53247748Y-31999398D01*
X53235614Y-31997598D01*
X53223714Y-31994618D01*
X53212165Y-31990485D01*
X53201075Y-31985240D01*
X53190554Y-31978934D01*
X53180701Y-31971626D01*
X53171612Y-31963388D01*
X53163374Y-31954299D01*
X53156066Y-31944446D01*
X53149760Y-31933925D01*
X53144515Y-31922835D01*
X53140382Y-31911286D01*
X53137402Y-31899386D01*
X53135602Y-31887252D01*
X53135000Y-31875000D01*
X53135000Y-31625000D01*
X53135602Y-31612748D01*
X53137402Y-31600614D01*
X53140382Y-31588714D01*
X53144515Y-31577165D01*
X53149760Y-31566075D01*
X53156066Y-31555554D01*
X53163374Y-31545701D01*
X53171612Y-31536612D01*
X53180701Y-31528374D01*
X53190554Y-31521066D01*
X53201075Y-31514760D01*
X53212165Y-31509515D01*
X53223714Y-31505382D01*
X53235614Y-31502402D01*
X53247748Y-31500602D01*
X53260000Y-31500000D01*
X54385000Y-31500000D01*
X54397252Y-31500602D01*
X54397252Y-31500602D01*
G37*
D12*
X53822500Y-31750000D03*
D10*
G36*
X52207252Y-29305602D02*
G01*
X52219386Y-29307402D01*
X52231286Y-29310382D01*
X52242835Y-29314515D01*
X52253925Y-29319760D01*
X52264446Y-29326066D01*
X52274299Y-29333374D01*
X52283388Y-29341612D01*
X52291626Y-29350701D01*
X52298934Y-29360554D01*
X52305240Y-29371075D01*
X52310485Y-29382165D01*
X52314618Y-29393714D01*
X52317598Y-29405614D01*
X52319398Y-29417748D01*
X52320000Y-29430000D01*
X52320000Y-30555000D01*
X52319398Y-30567252D01*
X52317598Y-30579386D01*
X52314618Y-30591286D01*
X52310485Y-30602835D01*
X52305240Y-30613925D01*
X52298934Y-30624446D01*
X52291626Y-30634299D01*
X52283388Y-30643388D01*
X52274299Y-30651626D01*
X52264446Y-30658934D01*
X52253925Y-30665240D01*
X52242835Y-30670485D01*
X52231286Y-30674618D01*
X52219386Y-30677598D01*
X52207252Y-30679398D01*
X52195000Y-30680000D01*
X51945000Y-30680000D01*
X51932748Y-30679398D01*
X51920614Y-30677598D01*
X51908714Y-30674618D01*
X51897165Y-30670485D01*
X51886075Y-30665240D01*
X51875554Y-30658934D01*
X51865701Y-30651626D01*
X51856612Y-30643388D01*
X51848374Y-30634299D01*
X51841066Y-30624446D01*
X51834760Y-30613925D01*
X51829515Y-30602835D01*
X51825382Y-30591286D01*
X51822402Y-30579386D01*
X51820602Y-30567252D01*
X51820000Y-30555000D01*
X51820000Y-29430000D01*
X51820602Y-29417748D01*
X51822402Y-29405614D01*
X51825382Y-29393714D01*
X51829515Y-29382165D01*
X51834760Y-29371075D01*
X51841066Y-29360554D01*
X51848374Y-29350701D01*
X51856612Y-29341612D01*
X51865701Y-29333374D01*
X51875554Y-29326066D01*
X51886075Y-29319760D01*
X51897165Y-29314515D01*
X51908714Y-29310382D01*
X51920614Y-29307402D01*
X51932748Y-29305602D01*
X51945000Y-29305000D01*
X52195000Y-29305000D01*
X52207252Y-29305602D01*
X52207252Y-29305602D01*
G37*
D12*
X52070000Y-29992500D03*
D10*
G36*
X50937252Y-29305602D02*
G01*
X50949386Y-29307402D01*
X50961286Y-29310382D01*
X50972835Y-29314515D01*
X50983925Y-29319760D01*
X50994446Y-29326066D01*
X51004299Y-29333374D01*
X51013388Y-29341612D01*
X51021626Y-29350701D01*
X51028934Y-29360554D01*
X51035240Y-29371075D01*
X51040485Y-29382165D01*
X51044618Y-29393714D01*
X51047598Y-29405614D01*
X51049398Y-29417748D01*
X51050000Y-29430000D01*
X51050000Y-30555000D01*
X51049398Y-30567252D01*
X51047598Y-30579386D01*
X51044618Y-30591286D01*
X51040485Y-30602835D01*
X51035240Y-30613925D01*
X51028934Y-30624446D01*
X51021626Y-30634299D01*
X51013388Y-30643388D01*
X51004299Y-30651626D01*
X50994446Y-30658934D01*
X50983925Y-30665240D01*
X50972835Y-30670485D01*
X50961286Y-30674618D01*
X50949386Y-30677598D01*
X50937252Y-30679398D01*
X50925000Y-30680000D01*
X50675000Y-30680000D01*
X50662748Y-30679398D01*
X50650614Y-30677598D01*
X50638714Y-30674618D01*
X50627165Y-30670485D01*
X50616075Y-30665240D01*
X50605554Y-30658934D01*
X50595701Y-30651626D01*
X50586612Y-30643388D01*
X50578374Y-30634299D01*
X50571066Y-30624446D01*
X50564760Y-30613925D01*
X50559515Y-30602835D01*
X50555382Y-30591286D01*
X50552402Y-30579386D01*
X50550602Y-30567252D01*
X50550000Y-30555000D01*
X50550000Y-29430000D01*
X50550602Y-29417748D01*
X50552402Y-29405614D01*
X50555382Y-29393714D01*
X50559515Y-29382165D01*
X50564760Y-29371075D01*
X50571066Y-29360554D01*
X50578374Y-29350701D01*
X50586612Y-29341612D01*
X50595701Y-29333374D01*
X50605554Y-29326066D01*
X50616075Y-29319760D01*
X50627165Y-29314515D01*
X50638714Y-29310382D01*
X50650614Y-29307402D01*
X50662748Y-29305602D01*
X50675000Y-29305000D01*
X50925000Y-29305000D01*
X50937252Y-29305602D01*
X50937252Y-29305602D01*
G37*
D12*
X50800000Y-29992500D03*
D10*
G36*
X49667252Y-29305602D02*
G01*
X49679386Y-29307402D01*
X49691286Y-29310382D01*
X49702835Y-29314515D01*
X49713925Y-29319760D01*
X49724446Y-29326066D01*
X49734299Y-29333374D01*
X49743388Y-29341612D01*
X49751626Y-29350701D01*
X49758934Y-29360554D01*
X49765240Y-29371075D01*
X49770485Y-29382165D01*
X49774618Y-29393714D01*
X49777598Y-29405614D01*
X49779398Y-29417748D01*
X49780000Y-29430000D01*
X49780000Y-30555000D01*
X49779398Y-30567252D01*
X49777598Y-30579386D01*
X49774618Y-30591286D01*
X49770485Y-30602835D01*
X49765240Y-30613925D01*
X49758934Y-30624446D01*
X49751626Y-30634299D01*
X49743388Y-30643388D01*
X49734299Y-30651626D01*
X49724446Y-30658934D01*
X49713925Y-30665240D01*
X49702835Y-30670485D01*
X49691286Y-30674618D01*
X49679386Y-30677598D01*
X49667252Y-30679398D01*
X49655000Y-30680000D01*
X49405000Y-30680000D01*
X49392748Y-30679398D01*
X49380614Y-30677598D01*
X49368714Y-30674618D01*
X49357165Y-30670485D01*
X49346075Y-30665240D01*
X49335554Y-30658934D01*
X49325701Y-30651626D01*
X49316612Y-30643388D01*
X49308374Y-30634299D01*
X49301066Y-30624446D01*
X49294760Y-30613925D01*
X49289515Y-30602835D01*
X49285382Y-30591286D01*
X49282402Y-30579386D01*
X49280602Y-30567252D01*
X49280000Y-30555000D01*
X49280000Y-29430000D01*
X49280602Y-29417748D01*
X49282402Y-29405614D01*
X49285382Y-29393714D01*
X49289515Y-29382165D01*
X49294760Y-29371075D01*
X49301066Y-29360554D01*
X49308374Y-29350701D01*
X49316612Y-29341612D01*
X49325701Y-29333374D01*
X49335554Y-29326066D01*
X49346075Y-29319760D01*
X49357165Y-29314515D01*
X49368714Y-29310382D01*
X49380614Y-29307402D01*
X49392748Y-29305602D01*
X49405000Y-29305000D01*
X49655000Y-29305000D01*
X49667252Y-29305602D01*
X49667252Y-29305602D01*
G37*
D12*
X49530000Y-29992500D03*
M02*
