M48
; DRILL file {KiCad (5.1.5-0-10_14)} date Friday, April 02, 2021 at 11:51:14 PM
; FORMAT={-:-/ absolute / inch / decimal}
; #@! TF.CreationDate,2021-04-02T23:51:14-04:00
; #@! TF.GenerationSoftware,Kicad,Pcbnew,(5.1.5-0-10_14)
FMAT,2
INCH
T1C0.0118
T2C0.0157
T3C0.0354
T4C0.0394
%
G90
G05
T1
X1.66Y-2.05
X1.73Y-1.3
X1.73Y-1.35
X1.73Y-1.4
X1.73Y-1.6
X1.76Y-2.125
X1.815Y-1.97
X1.85Y-1.67
X1.85Y-1.77
X1.9Y-1.23
X1.925Y-1.925
X1.94Y-1.435
X2.025Y-1.6
X2.05Y-1.13
X2.05Y-1.23
X2.07Y-1.3
X2.07Y-1.35
X2.07Y-1.4
X2.125Y-1.825
X2.125Y-1.975
T2
X1.84Y-1.05
X1.885Y-1.0
X1.885Y-1.1
T3
G00X1.6Y-0.8823
M15
G01X1.6Y-0.9177
M16
G05
G00X1.6Y-0.9823
M15
G01X1.6Y-1.0177
M16
G05
G00X1.6Y-1.0823
M15
G01X1.6Y-1.1177
M16
G05
G00X1.6Y-1.1823
M15
G01X1.6Y-1.2177
M16
G05
G00X1.6Y-1.2823
M15
G01X1.6Y-1.3177
M16
G05
G00X1.6Y-1.3823
M15
G01X1.6Y-1.4177
M16
G05
G00X1.6Y-1.4823
M15
G01X1.6Y-1.5177
M16
G05
G00X1.6Y-1.5823
M15
G01X1.6Y-1.6177
M16
G05
G00X1.6Y-1.6823
M15
G01X1.6Y-1.7177
M16
G05
G00X1.6Y-1.7823
M15
G01X1.6Y-1.8177
M16
G05
G00X1.6Y-1.8823
M15
G01X1.6Y-1.9177
M16
G05
G00X1.6Y-1.9823
M15
G01X1.6Y-2.0177
M16
G05
G00X2.2Y-0.8823
M15
G01X2.2Y-0.9177
M16
G05
G00X2.2Y-0.9823
M15
G01X2.2Y-1.0177
M16
G05
G00X2.2Y-1.0823
M15
G01X2.2Y-1.1177
M16
G05
G00X2.2Y-1.1823
M15
G01X2.2Y-1.2177
M16
G05
G00X2.2Y-1.2823
M15
G01X2.2Y-1.3177
M16
G05
G00X2.2Y-1.3823
M15
G01X2.2Y-1.4177
M16
G05
G00X2.2Y-1.4823
M15
G01X2.2Y-1.5177
M16
G05
G00X2.2Y-1.5823
M15
G01X2.2Y-1.6177
M16
G05
G00X2.2Y-1.6823
M15
G01X2.2Y-1.7177
M16
G05
G00X2.2Y-1.7823
M15
G01X2.2Y-1.8177
M16
G05
G00X2.2Y-1.8823
M15
G01X2.2Y-1.9177
M16
G05
G00X2.2Y-1.9823
M15
G01X2.2Y-2.0177
M16
G05
T4
G00X1.6Y-0.7843
M15
G01X1.6Y-0.8157
M16
G05
G00X1.6Y-2.0843
M15
G01X1.6Y-2.1157
M16
G05
G00X2.2Y-0.7843
M15
G01X2.2Y-0.8157
M16
G05
G00X2.2Y-2.0843
M15
G01X2.2Y-2.1157
M16
G05
T0
M30
