G04 #@! TF.GenerationSoftware,KiCad,Pcbnew,(5.1.5-0-10_14)*
G04 #@! TF.CreationDate,2021-03-12T10:35:43-05:00*
G04 #@! TF.ProjectId,GW28R8128,47573238-5238-4313-9238-2e6b69636164,rev?*
G04 #@! TF.SameCoordinates,Original*
G04 #@! TF.FileFunction,Soldermask,Bot*
G04 #@! TF.FilePolarity,Negative*
%FSLAX46Y46*%
G04 Gerber Fmt 4.6, Leading zero omitted, Abs format (unit mm)*
G04 Created by KiCad (PCBNEW (5.1.5-0-10_14)) date 2021-03-12 10:35:43*
%MOMM*%
%LPD*%
G04 APERTURE LIST*
%ADD10C,0.100000*%
G04 APERTURE END LIST*
D10*
G36*
X56243272Y-19117538D02*
G01*
X56374402Y-19157315D01*
X56495243Y-19221906D01*
X56601165Y-19308835D01*
X56688094Y-19414757D01*
X56752685Y-19535598D01*
X56792462Y-19666728D01*
X56806200Y-19806207D01*
X56806200Y-20833793D01*
X56792462Y-20973272D01*
X56752685Y-21104402D01*
X56688094Y-21225243D01*
X56601165Y-21331165D01*
X56495243Y-21418094D01*
X56374402Y-21482685D01*
X56243272Y-21522462D01*
X56234159Y-21523360D01*
X56221950Y-21525789D01*
X56210450Y-21530552D01*
X56200100Y-21537468D01*
X56191298Y-21546270D01*
X56184382Y-21556621D01*
X56179619Y-21568121D01*
X56177191Y-21580330D01*
X56177191Y-21592778D01*
X56179620Y-21604987D01*
X56184383Y-21616487D01*
X56191299Y-21626837D01*
X56200101Y-21635639D01*
X56210452Y-21642555D01*
X56221952Y-21647318D01*
X56234160Y-21649746D01*
X56299617Y-21656193D01*
X56417613Y-21691986D01*
X56526356Y-21750110D01*
X56621669Y-21828331D01*
X56699890Y-21923644D01*
X56758014Y-22032387D01*
X56793807Y-22150383D01*
X56806200Y-22276207D01*
X56806200Y-23443793D01*
X56793807Y-23569617D01*
X56758014Y-23687613D01*
X56699890Y-23796356D01*
X56621669Y-23891669D01*
X56526356Y-23969890D01*
X56417613Y-24028014D01*
X56299617Y-24063807D01*
X56269159Y-24066807D01*
X56256950Y-24069235D01*
X56245450Y-24073999D01*
X56235100Y-24080915D01*
X56226298Y-24089717D01*
X56219382Y-24100067D01*
X56214618Y-24111567D01*
X56212190Y-24123776D01*
X56212190Y-24136224D01*
X56214618Y-24148433D01*
X56219382Y-24159933D01*
X56226298Y-24170283D01*
X56235100Y-24179085D01*
X56245450Y-24186001D01*
X56256950Y-24190765D01*
X56269159Y-24193193D01*
X56299617Y-24196193D01*
X56417613Y-24231986D01*
X56526356Y-24290110D01*
X56621669Y-24368331D01*
X56699890Y-24463644D01*
X56758014Y-24572387D01*
X56793807Y-24690383D01*
X56806200Y-24816207D01*
X56806200Y-25983793D01*
X56793807Y-26109617D01*
X56758014Y-26227613D01*
X56699890Y-26336356D01*
X56621669Y-26431669D01*
X56526356Y-26509890D01*
X56417613Y-26568014D01*
X56299617Y-26603807D01*
X56269159Y-26606807D01*
X56256950Y-26609235D01*
X56245450Y-26613999D01*
X56235100Y-26620915D01*
X56226298Y-26629717D01*
X56219382Y-26640067D01*
X56214618Y-26651567D01*
X56212190Y-26663776D01*
X56212190Y-26676224D01*
X56214618Y-26688433D01*
X56219382Y-26699933D01*
X56226298Y-26710283D01*
X56235100Y-26719085D01*
X56245450Y-26726001D01*
X56256950Y-26730765D01*
X56269159Y-26733193D01*
X56299617Y-26736193D01*
X56417613Y-26771986D01*
X56526356Y-26830110D01*
X56621669Y-26908331D01*
X56699890Y-27003644D01*
X56758014Y-27112387D01*
X56793807Y-27230383D01*
X56806200Y-27356207D01*
X56806200Y-28523793D01*
X56793807Y-28649617D01*
X56758014Y-28767613D01*
X56699890Y-28876356D01*
X56621669Y-28971669D01*
X56526356Y-29049890D01*
X56417613Y-29108014D01*
X56299617Y-29143807D01*
X56269159Y-29146807D01*
X56256950Y-29149235D01*
X56245450Y-29153999D01*
X56235100Y-29160915D01*
X56226298Y-29169717D01*
X56219382Y-29180067D01*
X56214618Y-29191567D01*
X56212190Y-29203776D01*
X56212190Y-29216224D01*
X56214618Y-29228433D01*
X56219382Y-29239933D01*
X56226298Y-29250283D01*
X56235100Y-29259085D01*
X56245450Y-29266001D01*
X56256950Y-29270765D01*
X56269159Y-29273193D01*
X56299617Y-29276193D01*
X56417613Y-29311986D01*
X56526356Y-29370110D01*
X56621669Y-29448331D01*
X56699890Y-29543644D01*
X56758014Y-29652387D01*
X56793807Y-29770383D01*
X56806200Y-29896207D01*
X56806200Y-31063793D01*
X56793807Y-31189617D01*
X56758014Y-31307613D01*
X56699890Y-31416356D01*
X56621669Y-31511669D01*
X56526356Y-31589890D01*
X56417613Y-31648014D01*
X56299617Y-31683807D01*
X56269159Y-31686807D01*
X56256950Y-31689235D01*
X56245450Y-31693999D01*
X56235100Y-31700915D01*
X56226298Y-31709717D01*
X56219382Y-31720067D01*
X56214618Y-31731567D01*
X56212190Y-31743776D01*
X56212190Y-31756224D01*
X56214618Y-31768433D01*
X56219382Y-31779933D01*
X56226298Y-31790283D01*
X56235100Y-31799085D01*
X56245450Y-31806001D01*
X56256950Y-31810765D01*
X56269159Y-31813193D01*
X56299617Y-31816193D01*
X56417613Y-31851986D01*
X56526356Y-31910110D01*
X56621669Y-31988331D01*
X56699890Y-32083644D01*
X56758014Y-32192387D01*
X56793807Y-32310383D01*
X56806200Y-32436207D01*
X56806200Y-33603793D01*
X56793807Y-33729617D01*
X56758014Y-33847613D01*
X56699890Y-33956356D01*
X56621669Y-34051669D01*
X56526356Y-34129890D01*
X56417613Y-34188014D01*
X56299617Y-34223807D01*
X56269159Y-34226807D01*
X56256950Y-34229235D01*
X56245450Y-34233999D01*
X56235100Y-34240915D01*
X56226298Y-34249717D01*
X56219382Y-34260067D01*
X56214618Y-34271567D01*
X56212190Y-34283776D01*
X56212190Y-34296224D01*
X56214618Y-34308433D01*
X56219382Y-34319933D01*
X56226298Y-34330283D01*
X56235100Y-34339085D01*
X56245450Y-34346001D01*
X56256950Y-34350765D01*
X56269159Y-34353193D01*
X56299617Y-34356193D01*
X56417613Y-34391986D01*
X56526356Y-34450110D01*
X56621669Y-34528331D01*
X56699890Y-34623644D01*
X56758014Y-34732387D01*
X56793807Y-34850383D01*
X56806200Y-34976207D01*
X56806200Y-36143793D01*
X56793807Y-36269617D01*
X56758014Y-36387613D01*
X56699890Y-36496356D01*
X56621669Y-36591669D01*
X56526356Y-36669890D01*
X56417613Y-36728014D01*
X56299617Y-36763807D01*
X56269159Y-36766807D01*
X56256950Y-36769235D01*
X56245450Y-36773999D01*
X56235100Y-36780915D01*
X56226298Y-36789717D01*
X56219382Y-36800067D01*
X56214618Y-36811567D01*
X56212190Y-36823776D01*
X56212190Y-36836224D01*
X56214618Y-36848433D01*
X56219382Y-36859933D01*
X56226298Y-36870283D01*
X56235100Y-36879085D01*
X56245450Y-36886001D01*
X56256950Y-36890765D01*
X56269159Y-36893193D01*
X56299617Y-36896193D01*
X56417613Y-36931986D01*
X56526356Y-36990110D01*
X56621669Y-37068331D01*
X56699890Y-37163644D01*
X56758014Y-37272387D01*
X56793807Y-37390383D01*
X56806200Y-37516207D01*
X56806200Y-38683793D01*
X56793807Y-38809617D01*
X56758014Y-38927613D01*
X56699890Y-39036356D01*
X56621669Y-39131669D01*
X56526356Y-39209890D01*
X56417613Y-39268014D01*
X56299617Y-39303807D01*
X56269159Y-39306807D01*
X56256950Y-39309235D01*
X56245450Y-39313999D01*
X56235100Y-39320915D01*
X56226298Y-39329717D01*
X56219382Y-39340067D01*
X56214618Y-39351567D01*
X56212190Y-39363776D01*
X56212190Y-39376224D01*
X56214618Y-39388433D01*
X56219382Y-39399933D01*
X56226298Y-39410283D01*
X56235100Y-39419085D01*
X56245450Y-39426001D01*
X56256950Y-39430765D01*
X56269159Y-39433193D01*
X56299617Y-39436193D01*
X56417613Y-39471986D01*
X56526356Y-39530110D01*
X56621669Y-39608331D01*
X56699890Y-39703644D01*
X56758014Y-39812387D01*
X56793807Y-39930383D01*
X56806200Y-40056207D01*
X56806200Y-41223793D01*
X56793807Y-41349617D01*
X56758014Y-41467613D01*
X56699890Y-41576356D01*
X56621669Y-41671669D01*
X56526356Y-41749890D01*
X56417613Y-41808014D01*
X56299617Y-41843807D01*
X56269159Y-41846807D01*
X56256950Y-41849235D01*
X56245450Y-41853999D01*
X56235100Y-41860915D01*
X56226298Y-41869717D01*
X56219382Y-41880067D01*
X56214618Y-41891567D01*
X56212190Y-41903776D01*
X56212190Y-41916224D01*
X56214618Y-41928433D01*
X56219382Y-41939933D01*
X56226298Y-41950283D01*
X56235100Y-41959085D01*
X56245450Y-41966001D01*
X56256950Y-41970765D01*
X56269159Y-41973193D01*
X56299617Y-41976193D01*
X56417613Y-42011986D01*
X56526356Y-42070110D01*
X56621669Y-42148331D01*
X56699890Y-42243644D01*
X56758014Y-42352387D01*
X56793807Y-42470383D01*
X56806200Y-42596207D01*
X56806200Y-43763793D01*
X56793807Y-43889617D01*
X56758014Y-44007613D01*
X56699890Y-44116356D01*
X56621669Y-44211669D01*
X56526356Y-44289890D01*
X56417613Y-44348014D01*
X56299617Y-44383807D01*
X56269159Y-44386807D01*
X56256950Y-44389235D01*
X56245450Y-44393999D01*
X56235100Y-44400915D01*
X56226298Y-44409717D01*
X56219382Y-44420067D01*
X56214618Y-44431567D01*
X56212190Y-44443776D01*
X56212190Y-44456224D01*
X56214618Y-44468433D01*
X56219382Y-44479933D01*
X56226298Y-44490283D01*
X56235100Y-44499085D01*
X56245450Y-44506001D01*
X56256950Y-44510765D01*
X56269159Y-44513193D01*
X56299617Y-44516193D01*
X56417613Y-44551986D01*
X56526356Y-44610110D01*
X56621669Y-44688331D01*
X56699890Y-44783644D01*
X56758014Y-44892387D01*
X56793807Y-45010383D01*
X56806200Y-45136207D01*
X56806200Y-46303793D01*
X56793807Y-46429617D01*
X56758014Y-46547613D01*
X56699890Y-46656356D01*
X56621669Y-46751669D01*
X56526356Y-46829890D01*
X56417613Y-46888014D01*
X56299617Y-46923807D01*
X56269159Y-46926807D01*
X56256950Y-46929235D01*
X56245450Y-46933999D01*
X56235100Y-46940915D01*
X56226298Y-46949717D01*
X56219382Y-46960067D01*
X56214618Y-46971567D01*
X56212190Y-46983776D01*
X56212190Y-46996224D01*
X56214618Y-47008433D01*
X56219382Y-47019933D01*
X56226298Y-47030283D01*
X56235100Y-47039085D01*
X56245450Y-47046001D01*
X56256950Y-47050765D01*
X56269159Y-47053193D01*
X56299617Y-47056193D01*
X56417613Y-47091986D01*
X56526356Y-47150110D01*
X56621669Y-47228331D01*
X56699890Y-47323644D01*
X56758014Y-47432387D01*
X56793807Y-47550383D01*
X56806200Y-47676207D01*
X56806200Y-48843793D01*
X56793807Y-48969617D01*
X56758014Y-49087613D01*
X56699890Y-49196356D01*
X56621669Y-49291669D01*
X56526356Y-49369890D01*
X56417613Y-49428014D01*
X56299617Y-49463807D01*
X56269159Y-49466807D01*
X56256950Y-49469235D01*
X56245450Y-49473999D01*
X56235100Y-49480915D01*
X56226298Y-49489717D01*
X56219382Y-49500067D01*
X56214618Y-49511567D01*
X56212190Y-49523776D01*
X56212190Y-49536224D01*
X56214618Y-49548433D01*
X56219382Y-49559933D01*
X56226298Y-49570283D01*
X56235100Y-49579085D01*
X56245450Y-49586001D01*
X56256950Y-49590765D01*
X56269159Y-49593193D01*
X56299617Y-49596193D01*
X56417613Y-49631986D01*
X56526356Y-49690110D01*
X56621669Y-49768331D01*
X56699890Y-49863644D01*
X56758014Y-49972387D01*
X56793807Y-50090383D01*
X56806200Y-50216207D01*
X56806200Y-51383793D01*
X56793807Y-51509617D01*
X56758014Y-51627613D01*
X56699890Y-51736356D01*
X56621669Y-51831669D01*
X56526356Y-51909890D01*
X56417613Y-51968014D01*
X56299617Y-52003807D01*
X56234160Y-52010254D01*
X56221951Y-52012682D01*
X56210451Y-52017446D01*
X56200101Y-52024362D01*
X56191299Y-52033164D01*
X56184383Y-52043514D01*
X56179619Y-52055014D01*
X56177191Y-52067223D01*
X56177191Y-52079671D01*
X56179619Y-52091880D01*
X56184383Y-52103380D01*
X56191299Y-52113730D01*
X56200101Y-52122532D01*
X56210451Y-52129448D01*
X56221951Y-52134212D01*
X56234159Y-52136640D01*
X56243272Y-52137538D01*
X56374402Y-52177315D01*
X56495243Y-52241906D01*
X56601165Y-52328835D01*
X56688094Y-52434757D01*
X56752685Y-52555598D01*
X56792462Y-52686728D01*
X56806200Y-52826207D01*
X56806200Y-53853793D01*
X56792462Y-53993272D01*
X56752685Y-54124402D01*
X56688094Y-54245243D01*
X56601165Y-54351165D01*
X56495243Y-54438094D01*
X56374402Y-54502685D01*
X56243272Y-54542462D01*
X56103793Y-54556200D01*
X55456207Y-54556200D01*
X55316728Y-54542462D01*
X55185598Y-54502685D01*
X55064757Y-54438094D01*
X54958835Y-54351165D01*
X54871906Y-54245243D01*
X54807315Y-54124402D01*
X54767538Y-53993272D01*
X54753800Y-53853793D01*
X54753800Y-52826207D01*
X54767538Y-52686728D01*
X54807315Y-52555598D01*
X54871906Y-52434757D01*
X54958835Y-52328835D01*
X55064757Y-52241906D01*
X55185598Y-52177315D01*
X55316728Y-52137538D01*
X55440276Y-52125369D01*
X55452485Y-52122941D01*
X55463985Y-52118177D01*
X55474335Y-52111261D01*
X55483137Y-52102459D01*
X55490053Y-52092109D01*
X55494817Y-52080609D01*
X55497245Y-52068400D01*
X55497245Y-52055952D01*
X55494817Y-52043743D01*
X55490053Y-52032243D01*
X55483137Y-52021893D01*
X55474335Y-52013091D01*
X55463985Y-52006175D01*
X55452484Y-52001411D01*
X55342387Y-51968014D01*
X55233644Y-51909890D01*
X55138331Y-51831669D01*
X55060110Y-51736356D01*
X55001986Y-51627613D01*
X54966193Y-51509617D01*
X54953800Y-51383793D01*
X54953800Y-50216207D01*
X54966193Y-50090383D01*
X55001986Y-49972387D01*
X55060110Y-49863644D01*
X55138331Y-49768331D01*
X55233644Y-49690110D01*
X55342387Y-49631986D01*
X55460383Y-49596193D01*
X55490841Y-49593193D01*
X55503050Y-49590765D01*
X55514550Y-49586001D01*
X55524900Y-49579085D01*
X55533702Y-49570283D01*
X55540618Y-49559933D01*
X55545382Y-49548433D01*
X55547810Y-49536224D01*
X55547810Y-49523776D01*
X55545382Y-49511567D01*
X55540618Y-49500067D01*
X55533702Y-49489717D01*
X55524900Y-49480915D01*
X55514550Y-49473999D01*
X55503050Y-49469235D01*
X55490841Y-49466807D01*
X55460383Y-49463807D01*
X55342387Y-49428014D01*
X55233644Y-49369890D01*
X55138331Y-49291669D01*
X55060110Y-49196356D01*
X55001986Y-49087613D01*
X54966193Y-48969617D01*
X54953800Y-48843793D01*
X54953800Y-47676207D01*
X54966193Y-47550383D01*
X55001986Y-47432387D01*
X55060110Y-47323644D01*
X55138331Y-47228331D01*
X55233644Y-47150110D01*
X55342387Y-47091986D01*
X55460383Y-47056193D01*
X55490841Y-47053193D01*
X55503050Y-47050765D01*
X55514550Y-47046001D01*
X55524900Y-47039085D01*
X55533702Y-47030283D01*
X55540618Y-47019933D01*
X55545382Y-47008433D01*
X55547810Y-46996224D01*
X55547810Y-46983776D01*
X55545382Y-46971567D01*
X55540618Y-46960067D01*
X55533702Y-46949717D01*
X55524900Y-46940915D01*
X55514550Y-46933999D01*
X55503050Y-46929235D01*
X55490841Y-46926807D01*
X55460383Y-46923807D01*
X55342387Y-46888014D01*
X55233644Y-46829890D01*
X55138331Y-46751669D01*
X55060110Y-46656356D01*
X55001986Y-46547613D01*
X54966193Y-46429617D01*
X54953800Y-46303793D01*
X54953800Y-45136207D01*
X54966193Y-45010383D01*
X55001986Y-44892387D01*
X55060110Y-44783644D01*
X55138331Y-44688331D01*
X55233644Y-44610110D01*
X55342387Y-44551986D01*
X55460383Y-44516193D01*
X55490841Y-44513193D01*
X55503050Y-44510765D01*
X55514550Y-44506001D01*
X55524900Y-44499085D01*
X55533702Y-44490283D01*
X55540618Y-44479933D01*
X55545382Y-44468433D01*
X55547810Y-44456224D01*
X55547810Y-44443776D01*
X55545382Y-44431567D01*
X55540618Y-44420067D01*
X55533702Y-44409717D01*
X55524900Y-44400915D01*
X55514550Y-44393999D01*
X55503050Y-44389235D01*
X55490841Y-44386807D01*
X55460383Y-44383807D01*
X55342387Y-44348014D01*
X55233644Y-44289890D01*
X55138331Y-44211669D01*
X55060110Y-44116356D01*
X55001986Y-44007613D01*
X54966193Y-43889617D01*
X54953800Y-43763793D01*
X54953800Y-42596207D01*
X54966193Y-42470383D01*
X55001986Y-42352387D01*
X55060110Y-42243644D01*
X55138331Y-42148331D01*
X55233644Y-42070110D01*
X55342387Y-42011986D01*
X55460383Y-41976193D01*
X55490841Y-41973193D01*
X55503050Y-41970765D01*
X55514550Y-41966001D01*
X55524900Y-41959085D01*
X55533702Y-41950283D01*
X55540618Y-41939933D01*
X55545382Y-41928433D01*
X55547810Y-41916224D01*
X55547810Y-41903776D01*
X55545382Y-41891567D01*
X55540618Y-41880067D01*
X55533702Y-41869717D01*
X55524900Y-41860915D01*
X55514550Y-41853999D01*
X55503050Y-41849235D01*
X55490841Y-41846807D01*
X55460383Y-41843807D01*
X55342387Y-41808014D01*
X55233644Y-41749890D01*
X55138331Y-41671669D01*
X55060110Y-41576356D01*
X55001986Y-41467613D01*
X54966193Y-41349617D01*
X54953800Y-41223793D01*
X54953800Y-40056207D01*
X54966193Y-39930383D01*
X55001986Y-39812387D01*
X55060110Y-39703644D01*
X55138331Y-39608331D01*
X55233644Y-39530110D01*
X55342387Y-39471986D01*
X55460383Y-39436193D01*
X55490841Y-39433193D01*
X55503050Y-39430765D01*
X55514550Y-39426001D01*
X55524900Y-39419085D01*
X55533702Y-39410283D01*
X55540618Y-39399933D01*
X55545382Y-39388433D01*
X55547810Y-39376224D01*
X55547810Y-39363776D01*
X55545382Y-39351567D01*
X55540618Y-39340067D01*
X55533702Y-39329717D01*
X55524900Y-39320915D01*
X55514550Y-39313999D01*
X55503050Y-39309235D01*
X55490841Y-39306807D01*
X55460383Y-39303807D01*
X55342387Y-39268014D01*
X55233644Y-39209890D01*
X55138331Y-39131669D01*
X55060110Y-39036356D01*
X55001986Y-38927613D01*
X54966193Y-38809617D01*
X54953800Y-38683793D01*
X54953800Y-37516207D01*
X54966193Y-37390383D01*
X55001986Y-37272387D01*
X55060110Y-37163644D01*
X55138331Y-37068331D01*
X55233644Y-36990110D01*
X55342387Y-36931986D01*
X55460383Y-36896193D01*
X55490841Y-36893193D01*
X55503050Y-36890765D01*
X55514550Y-36886001D01*
X55524900Y-36879085D01*
X55533702Y-36870283D01*
X55540618Y-36859933D01*
X55545382Y-36848433D01*
X55547810Y-36836224D01*
X55547810Y-36823776D01*
X55545382Y-36811567D01*
X55540618Y-36800067D01*
X55533702Y-36789717D01*
X55524900Y-36780915D01*
X55514550Y-36773999D01*
X55503050Y-36769235D01*
X55490841Y-36766807D01*
X55460383Y-36763807D01*
X55342387Y-36728014D01*
X55233644Y-36669890D01*
X55138331Y-36591669D01*
X55060110Y-36496356D01*
X55001986Y-36387613D01*
X54966193Y-36269617D01*
X54953800Y-36143793D01*
X54953800Y-34976207D01*
X54966193Y-34850383D01*
X55001986Y-34732387D01*
X55060110Y-34623644D01*
X55138331Y-34528331D01*
X55233644Y-34450110D01*
X55342387Y-34391986D01*
X55460383Y-34356193D01*
X55490841Y-34353193D01*
X55503050Y-34350765D01*
X55514550Y-34346001D01*
X55524900Y-34339085D01*
X55533702Y-34330283D01*
X55540618Y-34319933D01*
X55545382Y-34308433D01*
X55547810Y-34296224D01*
X55547810Y-34283776D01*
X55545382Y-34271567D01*
X55540618Y-34260067D01*
X55533702Y-34249717D01*
X55524900Y-34240915D01*
X55514550Y-34233999D01*
X55503050Y-34229235D01*
X55490841Y-34226807D01*
X55460383Y-34223807D01*
X55342387Y-34188014D01*
X55233644Y-34129890D01*
X55138331Y-34051669D01*
X55060110Y-33956356D01*
X55001986Y-33847613D01*
X54966193Y-33729617D01*
X54953800Y-33603793D01*
X54953800Y-32436207D01*
X54966193Y-32310383D01*
X55001986Y-32192387D01*
X55060110Y-32083644D01*
X55138331Y-31988331D01*
X55233644Y-31910110D01*
X55342387Y-31851986D01*
X55460383Y-31816193D01*
X55490841Y-31813193D01*
X55503050Y-31810765D01*
X55514550Y-31806001D01*
X55524900Y-31799085D01*
X55533702Y-31790283D01*
X55540618Y-31779933D01*
X55545382Y-31768433D01*
X55547810Y-31756224D01*
X55547810Y-31743776D01*
X55545382Y-31731567D01*
X55540618Y-31720067D01*
X55533702Y-31709717D01*
X55524900Y-31700915D01*
X55514550Y-31693999D01*
X55503050Y-31689235D01*
X55490841Y-31686807D01*
X55460383Y-31683807D01*
X55342387Y-31648014D01*
X55233644Y-31589890D01*
X55138331Y-31511669D01*
X55060110Y-31416356D01*
X55001986Y-31307613D01*
X54966193Y-31189617D01*
X54953800Y-31063793D01*
X54953800Y-29896207D01*
X54966193Y-29770383D01*
X55001986Y-29652387D01*
X55060110Y-29543644D01*
X55138331Y-29448331D01*
X55233644Y-29370110D01*
X55342387Y-29311986D01*
X55460383Y-29276193D01*
X55490841Y-29273193D01*
X55503050Y-29270765D01*
X55514550Y-29266001D01*
X55524900Y-29259085D01*
X55533702Y-29250283D01*
X55540618Y-29239933D01*
X55545382Y-29228433D01*
X55547810Y-29216224D01*
X55547810Y-29203776D01*
X55545382Y-29191567D01*
X55540618Y-29180067D01*
X55533702Y-29169717D01*
X55524900Y-29160915D01*
X55514550Y-29153999D01*
X55503050Y-29149235D01*
X55490841Y-29146807D01*
X55460383Y-29143807D01*
X55342387Y-29108014D01*
X55233644Y-29049890D01*
X55138331Y-28971669D01*
X55060110Y-28876356D01*
X55001986Y-28767613D01*
X54966193Y-28649617D01*
X54953800Y-28523793D01*
X54953800Y-27356207D01*
X54966193Y-27230383D01*
X55001986Y-27112387D01*
X55060110Y-27003644D01*
X55138331Y-26908331D01*
X55233644Y-26830110D01*
X55342387Y-26771986D01*
X55460383Y-26736193D01*
X55490841Y-26733193D01*
X55503050Y-26730765D01*
X55514550Y-26726001D01*
X55524900Y-26719085D01*
X55533702Y-26710283D01*
X55540618Y-26699933D01*
X55545382Y-26688433D01*
X55547810Y-26676224D01*
X55547810Y-26663776D01*
X55545382Y-26651567D01*
X55540618Y-26640067D01*
X55533702Y-26629717D01*
X55524900Y-26620915D01*
X55514550Y-26613999D01*
X55503050Y-26609235D01*
X55490841Y-26606807D01*
X55460383Y-26603807D01*
X55342387Y-26568014D01*
X55233644Y-26509890D01*
X55138331Y-26431669D01*
X55060110Y-26336356D01*
X55001986Y-26227613D01*
X54966193Y-26109617D01*
X54953800Y-25983793D01*
X54953800Y-24816207D01*
X54966193Y-24690383D01*
X55001986Y-24572387D01*
X55060110Y-24463644D01*
X55138331Y-24368331D01*
X55233644Y-24290110D01*
X55342387Y-24231986D01*
X55460383Y-24196193D01*
X55490841Y-24193193D01*
X55503050Y-24190765D01*
X55514550Y-24186001D01*
X55524900Y-24179085D01*
X55533702Y-24170283D01*
X55540618Y-24159933D01*
X55545382Y-24148433D01*
X55547810Y-24136224D01*
X55547810Y-24123776D01*
X55545382Y-24111567D01*
X55540618Y-24100067D01*
X55533702Y-24089717D01*
X55524900Y-24080915D01*
X55514550Y-24073999D01*
X55503050Y-24069235D01*
X55490841Y-24066807D01*
X55460383Y-24063807D01*
X55342387Y-24028014D01*
X55233644Y-23969890D01*
X55138331Y-23891669D01*
X55060110Y-23796356D01*
X55001986Y-23687613D01*
X54966193Y-23569617D01*
X54953800Y-23443793D01*
X54953800Y-22276207D01*
X54966193Y-22150383D01*
X55001986Y-22032387D01*
X55060110Y-21923644D01*
X55138331Y-21828331D01*
X55233644Y-21750110D01*
X55342387Y-21691986D01*
X55452484Y-21658589D01*
X55463985Y-21653825D01*
X55474335Y-21646910D01*
X55483137Y-21638108D01*
X55490053Y-21627758D01*
X55494817Y-21616257D01*
X55497245Y-21604048D01*
X55497245Y-21591600D01*
X55494817Y-21579392D01*
X55490053Y-21567891D01*
X55483138Y-21557541D01*
X55474336Y-21548739D01*
X55463986Y-21541823D01*
X55452485Y-21537059D01*
X55440276Y-21534631D01*
X55316728Y-21522462D01*
X55185598Y-21482685D01*
X55064757Y-21418094D01*
X54958835Y-21331165D01*
X54871906Y-21225243D01*
X54807315Y-21104402D01*
X54767538Y-20973272D01*
X54753800Y-20833793D01*
X54753800Y-19806207D01*
X54767538Y-19666728D01*
X54807315Y-19535598D01*
X54871906Y-19414757D01*
X54958835Y-19308835D01*
X55064757Y-19221906D01*
X55185598Y-19157315D01*
X55316728Y-19117538D01*
X55456207Y-19103800D01*
X56103793Y-19103800D01*
X56243272Y-19117538D01*
G37*
G36*
X41203272Y-19117538D02*
G01*
X41334402Y-19157315D01*
X41455243Y-19221906D01*
X41561165Y-19308835D01*
X41648094Y-19414757D01*
X41712685Y-19535598D01*
X41752462Y-19666728D01*
X41766200Y-19806207D01*
X41766200Y-20833793D01*
X41752462Y-20973272D01*
X41712685Y-21104402D01*
X41648094Y-21225243D01*
X41561165Y-21331165D01*
X41455243Y-21418094D01*
X41334402Y-21482685D01*
X41203272Y-21522462D01*
X41079724Y-21534631D01*
X41067515Y-21537059D01*
X41056015Y-21541823D01*
X41045665Y-21548739D01*
X41036863Y-21557541D01*
X41029947Y-21567891D01*
X41025183Y-21579391D01*
X41022755Y-21591600D01*
X41022755Y-21604048D01*
X41025183Y-21616257D01*
X41029947Y-21627757D01*
X41036863Y-21638107D01*
X41045665Y-21646909D01*
X41056015Y-21653825D01*
X41067516Y-21658589D01*
X41177613Y-21691986D01*
X41286356Y-21750110D01*
X41381669Y-21828331D01*
X41459890Y-21923644D01*
X41518014Y-22032387D01*
X41553807Y-22150383D01*
X41566200Y-22276207D01*
X41566200Y-23443793D01*
X41553807Y-23569617D01*
X41518014Y-23687613D01*
X41459890Y-23796356D01*
X41381669Y-23891669D01*
X41286356Y-23969890D01*
X41177613Y-24028014D01*
X41059617Y-24063807D01*
X41029159Y-24066807D01*
X41016950Y-24069235D01*
X41005450Y-24073999D01*
X40995100Y-24080915D01*
X40986298Y-24089717D01*
X40979382Y-24100067D01*
X40974618Y-24111567D01*
X40972190Y-24123776D01*
X40972190Y-24136224D01*
X40974618Y-24148433D01*
X40979382Y-24159933D01*
X40986298Y-24170283D01*
X40995100Y-24179085D01*
X41005450Y-24186001D01*
X41016950Y-24190765D01*
X41029159Y-24193193D01*
X41059617Y-24196193D01*
X41177613Y-24231986D01*
X41286356Y-24290110D01*
X41381669Y-24368331D01*
X41459890Y-24463644D01*
X41518014Y-24572387D01*
X41553807Y-24690383D01*
X41566200Y-24816207D01*
X41566200Y-25983793D01*
X41553807Y-26109617D01*
X41518014Y-26227613D01*
X41459890Y-26336356D01*
X41381669Y-26431669D01*
X41286356Y-26509890D01*
X41177613Y-26568014D01*
X41059617Y-26603807D01*
X41029159Y-26606807D01*
X41016950Y-26609235D01*
X41005450Y-26613999D01*
X40995100Y-26620915D01*
X40986298Y-26629717D01*
X40979382Y-26640067D01*
X40974618Y-26651567D01*
X40972190Y-26663776D01*
X40972190Y-26676224D01*
X40974618Y-26688433D01*
X40979382Y-26699933D01*
X40986298Y-26710283D01*
X40995100Y-26719085D01*
X41005450Y-26726001D01*
X41016950Y-26730765D01*
X41029159Y-26733193D01*
X41059617Y-26736193D01*
X41177613Y-26771986D01*
X41286356Y-26830110D01*
X41381669Y-26908331D01*
X41459890Y-27003644D01*
X41518014Y-27112387D01*
X41553807Y-27230383D01*
X41566200Y-27356207D01*
X41566200Y-28523793D01*
X41553807Y-28649617D01*
X41518014Y-28767613D01*
X41459890Y-28876356D01*
X41381669Y-28971669D01*
X41286356Y-29049890D01*
X41177613Y-29108014D01*
X41059617Y-29143807D01*
X41029159Y-29146807D01*
X41016950Y-29149235D01*
X41005450Y-29153999D01*
X40995100Y-29160915D01*
X40986298Y-29169717D01*
X40979382Y-29180067D01*
X40974618Y-29191567D01*
X40972190Y-29203776D01*
X40972190Y-29216224D01*
X40974618Y-29228433D01*
X40979382Y-29239933D01*
X40986298Y-29250283D01*
X40995100Y-29259085D01*
X41005450Y-29266001D01*
X41016950Y-29270765D01*
X41029159Y-29273193D01*
X41059617Y-29276193D01*
X41177613Y-29311986D01*
X41286356Y-29370110D01*
X41381669Y-29448331D01*
X41459890Y-29543644D01*
X41518014Y-29652387D01*
X41553807Y-29770383D01*
X41566200Y-29896207D01*
X41566200Y-31063793D01*
X41553807Y-31189617D01*
X41518014Y-31307613D01*
X41459890Y-31416356D01*
X41381669Y-31511669D01*
X41286356Y-31589890D01*
X41177613Y-31648014D01*
X41059617Y-31683807D01*
X41029159Y-31686807D01*
X41016950Y-31689235D01*
X41005450Y-31693999D01*
X40995100Y-31700915D01*
X40986298Y-31709717D01*
X40979382Y-31720067D01*
X40974618Y-31731567D01*
X40972190Y-31743776D01*
X40972190Y-31756224D01*
X40974618Y-31768433D01*
X40979382Y-31779933D01*
X40986298Y-31790283D01*
X40995100Y-31799085D01*
X41005450Y-31806001D01*
X41016950Y-31810765D01*
X41029159Y-31813193D01*
X41059617Y-31816193D01*
X41177613Y-31851986D01*
X41286356Y-31910110D01*
X41381669Y-31988331D01*
X41459890Y-32083644D01*
X41518014Y-32192387D01*
X41553807Y-32310383D01*
X41566200Y-32436207D01*
X41566200Y-33603793D01*
X41553807Y-33729617D01*
X41518014Y-33847613D01*
X41459890Y-33956356D01*
X41381669Y-34051669D01*
X41286356Y-34129890D01*
X41177613Y-34188014D01*
X41059617Y-34223807D01*
X41029159Y-34226807D01*
X41016950Y-34229235D01*
X41005450Y-34233999D01*
X40995100Y-34240915D01*
X40986298Y-34249717D01*
X40979382Y-34260067D01*
X40974618Y-34271567D01*
X40972190Y-34283776D01*
X40972190Y-34296224D01*
X40974618Y-34308433D01*
X40979382Y-34319933D01*
X40986298Y-34330283D01*
X40995100Y-34339085D01*
X41005450Y-34346001D01*
X41016950Y-34350765D01*
X41029159Y-34353193D01*
X41059617Y-34356193D01*
X41177613Y-34391986D01*
X41286356Y-34450110D01*
X41381669Y-34528331D01*
X41459890Y-34623644D01*
X41518014Y-34732387D01*
X41553807Y-34850383D01*
X41566200Y-34976207D01*
X41566200Y-36143793D01*
X41553807Y-36269617D01*
X41518014Y-36387613D01*
X41459890Y-36496356D01*
X41381669Y-36591669D01*
X41286356Y-36669890D01*
X41177613Y-36728014D01*
X41059617Y-36763807D01*
X41029159Y-36766807D01*
X41016950Y-36769235D01*
X41005450Y-36773999D01*
X40995100Y-36780915D01*
X40986298Y-36789717D01*
X40979382Y-36800067D01*
X40974618Y-36811567D01*
X40972190Y-36823776D01*
X40972190Y-36836224D01*
X40974618Y-36848433D01*
X40979382Y-36859933D01*
X40986298Y-36870283D01*
X40995100Y-36879085D01*
X41005450Y-36886001D01*
X41016950Y-36890765D01*
X41029159Y-36893193D01*
X41059617Y-36896193D01*
X41177613Y-36931986D01*
X41286356Y-36990110D01*
X41381669Y-37068331D01*
X41459890Y-37163644D01*
X41518014Y-37272387D01*
X41553807Y-37390383D01*
X41566200Y-37516207D01*
X41566200Y-38683793D01*
X41553807Y-38809617D01*
X41518014Y-38927613D01*
X41459890Y-39036356D01*
X41381669Y-39131669D01*
X41286356Y-39209890D01*
X41177613Y-39268014D01*
X41059617Y-39303807D01*
X41029159Y-39306807D01*
X41016950Y-39309235D01*
X41005450Y-39313999D01*
X40995100Y-39320915D01*
X40986298Y-39329717D01*
X40979382Y-39340067D01*
X40974618Y-39351567D01*
X40972190Y-39363776D01*
X40972190Y-39376224D01*
X40974618Y-39388433D01*
X40979382Y-39399933D01*
X40986298Y-39410283D01*
X40995100Y-39419085D01*
X41005450Y-39426001D01*
X41016950Y-39430765D01*
X41029159Y-39433193D01*
X41059617Y-39436193D01*
X41177613Y-39471986D01*
X41286356Y-39530110D01*
X41381669Y-39608331D01*
X41459890Y-39703644D01*
X41518014Y-39812387D01*
X41553807Y-39930383D01*
X41566200Y-40056207D01*
X41566200Y-41223793D01*
X41553807Y-41349617D01*
X41518014Y-41467613D01*
X41459890Y-41576356D01*
X41381669Y-41671669D01*
X41286356Y-41749890D01*
X41177613Y-41808014D01*
X41059617Y-41843807D01*
X41029159Y-41846807D01*
X41016950Y-41849235D01*
X41005450Y-41853999D01*
X40995100Y-41860915D01*
X40986298Y-41869717D01*
X40979382Y-41880067D01*
X40974618Y-41891567D01*
X40972190Y-41903776D01*
X40972190Y-41916224D01*
X40974618Y-41928433D01*
X40979382Y-41939933D01*
X40986298Y-41950283D01*
X40995100Y-41959085D01*
X41005450Y-41966001D01*
X41016950Y-41970765D01*
X41029159Y-41973193D01*
X41059617Y-41976193D01*
X41177613Y-42011986D01*
X41286356Y-42070110D01*
X41381669Y-42148331D01*
X41459890Y-42243644D01*
X41518014Y-42352387D01*
X41553807Y-42470383D01*
X41566200Y-42596207D01*
X41566200Y-43763793D01*
X41553807Y-43889617D01*
X41518014Y-44007613D01*
X41459890Y-44116356D01*
X41381669Y-44211669D01*
X41286356Y-44289890D01*
X41177613Y-44348014D01*
X41059617Y-44383807D01*
X41029159Y-44386807D01*
X41016950Y-44389235D01*
X41005450Y-44393999D01*
X40995100Y-44400915D01*
X40986298Y-44409717D01*
X40979382Y-44420067D01*
X40974618Y-44431567D01*
X40972190Y-44443776D01*
X40972190Y-44456224D01*
X40974618Y-44468433D01*
X40979382Y-44479933D01*
X40986298Y-44490283D01*
X40995100Y-44499085D01*
X41005450Y-44506001D01*
X41016950Y-44510765D01*
X41029159Y-44513193D01*
X41059617Y-44516193D01*
X41177613Y-44551986D01*
X41286356Y-44610110D01*
X41381669Y-44688331D01*
X41459890Y-44783644D01*
X41518014Y-44892387D01*
X41553807Y-45010383D01*
X41566200Y-45136207D01*
X41566200Y-46303793D01*
X41553807Y-46429617D01*
X41518014Y-46547613D01*
X41459890Y-46656356D01*
X41381669Y-46751669D01*
X41286356Y-46829890D01*
X41177613Y-46888014D01*
X41059617Y-46923807D01*
X41029159Y-46926807D01*
X41016950Y-46929235D01*
X41005450Y-46933999D01*
X40995100Y-46940915D01*
X40986298Y-46949717D01*
X40979382Y-46960067D01*
X40974618Y-46971567D01*
X40972190Y-46983776D01*
X40972190Y-46996224D01*
X40974618Y-47008433D01*
X40979382Y-47019933D01*
X40986298Y-47030283D01*
X40995100Y-47039085D01*
X41005450Y-47046001D01*
X41016950Y-47050765D01*
X41029159Y-47053193D01*
X41059617Y-47056193D01*
X41177613Y-47091986D01*
X41286356Y-47150110D01*
X41381669Y-47228331D01*
X41459890Y-47323644D01*
X41518014Y-47432387D01*
X41553807Y-47550383D01*
X41566200Y-47676207D01*
X41566200Y-48843793D01*
X41553807Y-48969617D01*
X41518014Y-49087613D01*
X41459890Y-49196356D01*
X41381669Y-49291669D01*
X41286356Y-49369890D01*
X41177613Y-49428014D01*
X41059617Y-49463807D01*
X41029159Y-49466807D01*
X41016950Y-49469235D01*
X41005450Y-49473999D01*
X40995100Y-49480915D01*
X40986298Y-49489717D01*
X40979382Y-49500067D01*
X40974618Y-49511567D01*
X40972190Y-49523776D01*
X40972190Y-49536224D01*
X40974618Y-49548433D01*
X40979382Y-49559933D01*
X40986298Y-49570283D01*
X40995100Y-49579085D01*
X41005450Y-49586001D01*
X41016950Y-49590765D01*
X41029159Y-49593193D01*
X41059617Y-49596193D01*
X41177613Y-49631986D01*
X41286356Y-49690110D01*
X41381669Y-49768331D01*
X41459890Y-49863644D01*
X41518014Y-49972387D01*
X41553807Y-50090383D01*
X41566200Y-50216207D01*
X41566200Y-51383793D01*
X41553807Y-51509617D01*
X41518014Y-51627613D01*
X41459890Y-51736356D01*
X41381669Y-51831669D01*
X41286356Y-51909890D01*
X41177613Y-51968014D01*
X41067516Y-52001411D01*
X41056015Y-52006175D01*
X41045665Y-52013090D01*
X41036863Y-52021892D01*
X41029947Y-52032242D01*
X41025183Y-52043743D01*
X41022755Y-52055952D01*
X41022755Y-52068400D01*
X41025183Y-52080608D01*
X41029947Y-52092109D01*
X41036862Y-52102459D01*
X41045664Y-52111261D01*
X41056014Y-52118177D01*
X41067515Y-52122941D01*
X41079724Y-52125369D01*
X41203272Y-52137538D01*
X41334402Y-52177315D01*
X41455243Y-52241906D01*
X41561165Y-52328835D01*
X41648094Y-52434757D01*
X41712685Y-52555598D01*
X41752462Y-52686728D01*
X41766200Y-52826207D01*
X41766200Y-53853793D01*
X41752462Y-53993272D01*
X41712685Y-54124402D01*
X41648094Y-54245243D01*
X41561165Y-54351165D01*
X41455243Y-54438094D01*
X41334402Y-54502685D01*
X41203272Y-54542462D01*
X41063793Y-54556200D01*
X40416207Y-54556200D01*
X40276728Y-54542462D01*
X40145598Y-54502685D01*
X40024757Y-54438094D01*
X39918835Y-54351165D01*
X39831906Y-54245243D01*
X39767315Y-54124402D01*
X39727538Y-53993272D01*
X39713800Y-53853793D01*
X39713800Y-52826207D01*
X39727538Y-52686728D01*
X39767315Y-52555598D01*
X39831906Y-52434757D01*
X39918835Y-52328835D01*
X40024757Y-52241906D01*
X40145598Y-52177315D01*
X40276728Y-52137538D01*
X40285841Y-52136640D01*
X40298050Y-52134211D01*
X40309550Y-52129448D01*
X40319900Y-52122532D01*
X40328702Y-52113730D01*
X40335618Y-52103379D01*
X40340381Y-52091879D01*
X40342809Y-52079670D01*
X40342809Y-52067222D01*
X40340380Y-52055013D01*
X40335617Y-52043513D01*
X40328701Y-52033163D01*
X40319899Y-52024361D01*
X40309548Y-52017445D01*
X40298048Y-52012682D01*
X40285840Y-52010254D01*
X40220383Y-52003807D01*
X40102387Y-51968014D01*
X39993644Y-51909890D01*
X39898331Y-51831669D01*
X39820110Y-51736356D01*
X39761986Y-51627613D01*
X39726193Y-51509617D01*
X39713800Y-51383793D01*
X39713800Y-50216207D01*
X39726193Y-50090383D01*
X39761986Y-49972387D01*
X39820110Y-49863644D01*
X39898331Y-49768331D01*
X39993644Y-49690110D01*
X40102387Y-49631986D01*
X40220383Y-49596193D01*
X40250841Y-49593193D01*
X40263050Y-49590765D01*
X40274550Y-49586001D01*
X40284900Y-49579085D01*
X40293702Y-49570283D01*
X40300618Y-49559933D01*
X40305382Y-49548433D01*
X40307810Y-49536224D01*
X40307810Y-49523776D01*
X40305382Y-49511567D01*
X40300618Y-49500067D01*
X40293702Y-49489717D01*
X40284900Y-49480915D01*
X40274550Y-49473999D01*
X40263050Y-49469235D01*
X40250841Y-49466807D01*
X40220383Y-49463807D01*
X40102387Y-49428014D01*
X39993644Y-49369890D01*
X39898331Y-49291669D01*
X39820110Y-49196356D01*
X39761986Y-49087613D01*
X39726193Y-48969617D01*
X39713800Y-48843793D01*
X39713800Y-47676207D01*
X39726193Y-47550383D01*
X39761986Y-47432387D01*
X39820110Y-47323644D01*
X39898331Y-47228331D01*
X39993644Y-47150110D01*
X40102387Y-47091986D01*
X40220383Y-47056193D01*
X40250841Y-47053193D01*
X40263050Y-47050765D01*
X40274550Y-47046001D01*
X40284900Y-47039085D01*
X40293702Y-47030283D01*
X40300618Y-47019933D01*
X40305382Y-47008433D01*
X40307810Y-46996224D01*
X40307810Y-46983776D01*
X40305382Y-46971567D01*
X40300618Y-46960067D01*
X40293702Y-46949717D01*
X40284900Y-46940915D01*
X40274550Y-46933999D01*
X40263050Y-46929235D01*
X40250841Y-46926807D01*
X40220383Y-46923807D01*
X40102387Y-46888014D01*
X39993644Y-46829890D01*
X39898331Y-46751669D01*
X39820110Y-46656356D01*
X39761986Y-46547613D01*
X39726193Y-46429617D01*
X39713800Y-46303793D01*
X39713800Y-45136207D01*
X39726193Y-45010383D01*
X39761986Y-44892387D01*
X39820110Y-44783644D01*
X39898331Y-44688331D01*
X39993644Y-44610110D01*
X40102387Y-44551986D01*
X40220383Y-44516193D01*
X40250841Y-44513193D01*
X40263050Y-44510765D01*
X40274550Y-44506001D01*
X40284900Y-44499085D01*
X40293702Y-44490283D01*
X40300618Y-44479933D01*
X40305382Y-44468433D01*
X40307810Y-44456224D01*
X40307810Y-44443776D01*
X40305382Y-44431567D01*
X40300618Y-44420067D01*
X40293702Y-44409717D01*
X40284900Y-44400915D01*
X40274550Y-44393999D01*
X40263050Y-44389235D01*
X40250841Y-44386807D01*
X40220383Y-44383807D01*
X40102387Y-44348014D01*
X39993644Y-44289890D01*
X39898331Y-44211669D01*
X39820110Y-44116356D01*
X39761986Y-44007613D01*
X39726193Y-43889617D01*
X39713800Y-43763793D01*
X39713800Y-42596207D01*
X39726193Y-42470383D01*
X39761986Y-42352387D01*
X39820110Y-42243644D01*
X39898331Y-42148331D01*
X39993644Y-42070110D01*
X40102387Y-42011986D01*
X40220383Y-41976193D01*
X40250841Y-41973193D01*
X40263050Y-41970765D01*
X40274550Y-41966001D01*
X40284900Y-41959085D01*
X40293702Y-41950283D01*
X40300618Y-41939933D01*
X40305382Y-41928433D01*
X40307810Y-41916224D01*
X40307810Y-41903776D01*
X40305382Y-41891567D01*
X40300618Y-41880067D01*
X40293702Y-41869717D01*
X40284900Y-41860915D01*
X40274550Y-41853999D01*
X40263050Y-41849235D01*
X40250841Y-41846807D01*
X40220383Y-41843807D01*
X40102387Y-41808014D01*
X39993644Y-41749890D01*
X39898331Y-41671669D01*
X39820110Y-41576356D01*
X39761986Y-41467613D01*
X39726193Y-41349617D01*
X39713800Y-41223793D01*
X39713800Y-40056207D01*
X39726193Y-39930383D01*
X39761986Y-39812387D01*
X39820110Y-39703644D01*
X39898331Y-39608331D01*
X39993644Y-39530110D01*
X40102387Y-39471986D01*
X40220383Y-39436193D01*
X40250841Y-39433193D01*
X40263050Y-39430765D01*
X40274550Y-39426001D01*
X40284900Y-39419085D01*
X40293702Y-39410283D01*
X40300618Y-39399933D01*
X40305382Y-39388433D01*
X40307810Y-39376224D01*
X40307810Y-39363776D01*
X40305382Y-39351567D01*
X40300618Y-39340067D01*
X40293702Y-39329717D01*
X40284900Y-39320915D01*
X40274550Y-39313999D01*
X40263050Y-39309235D01*
X40250841Y-39306807D01*
X40220383Y-39303807D01*
X40102387Y-39268014D01*
X39993644Y-39209890D01*
X39898331Y-39131669D01*
X39820110Y-39036356D01*
X39761986Y-38927613D01*
X39726193Y-38809617D01*
X39713800Y-38683793D01*
X39713800Y-37516207D01*
X39726193Y-37390383D01*
X39761986Y-37272387D01*
X39820110Y-37163644D01*
X39898331Y-37068331D01*
X39993644Y-36990110D01*
X40102387Y-36931986D01*
X40220383Y-36896193D01*
X40250841Y-36893193D01*
X40263050Y-36890765D01*
X40274550Y-36886001D01*
X40284900Y-36879085D01*
X40293702Y-36870283D01*
X40300618Y-36859933D01*
X40305382Y-36848433D01*
X40307810Y-36836224D01*
X40307810Y-36823776D01*
X40305382Y-36811567D01*
X40300618Y-36800067D01*
X40293702Y-36789717D01*
X40284900Y-36780915D01*
X40274550Y-36773999D01*
X40263050Y-36769235D01*
X40250841Y-36766807D01*
X40220383Y-36763807D01*
X40102387Y-36728014D01*
X39993644Y-36669890D01*
X39898331Y-36591669D01*
X39820110Y-36496356D01*
X39761986Y-36387613D01*
X39726193Y-36269617D01*
X39713800Y-36143793D01*
X39713800Y-34976207D01*
X39726193Y-34850383D01*
X39761986Y-34732387D01*
X39820110Y-34623644D01*
X39898331Y-34528331D01*
X39993644Y-34450110D01*
X40102387Y-34391986D01*
X40220383Y-34356193D01*
X40250841Y-34353193D01*
X40263050Y-34350765D01*
X40274550Y-34346001D01*
X40284900Y-34339085D01*
X40293702Y-34330283D01*
X40300618Y-34319933D01*
X40305382Y-34308433D01*
X40307810Y-34296224D01*
X40307810Y-34283776D01*
X40305382Y-34271567D01*
X40300618Y-34260067D01*
X40293702Y-34249717D01*
X40284900Y-34240915D01*
X40274550Y-34233999D01*
X40263050Y-34229235D01*
X40250841Y-34226807D01*
X40220383Y-34223807D01*
X40102387Y-34188014D01*
X39993644Y-34129890D01*
X39898331Y-34051669D01*
X39820110Y-33956356D01*
X39761986Y-33847613D01*
X39726193Y-33729617D01*
X39713800Y-33603793D01*
X39713800Y-32436207D01*
X39726193Y-32310383D01*
X39761986Y-32192387D01*
X39820110Y-32083644D01*
X39898331Y-31988331D01*
X39993644Y-31910110D01*
X40102387Y-31851986D01*
X40220383Y-31816193D01*
X40250841Y-31813193D01*
X40263050Y-31810765D01*
X40274550Y-31806001D01*
X40284900Y-31799085D01*
X40293702Y-31790283D01*
X40300618Y-31779933D01*
X40305382Y-31768433D01*
X40307810Y-31756224D01*
X40307810Y-31743776D01*
X40305382Y-31731567D01*
X40300618Y-31720067D01*
X40293702Y-31709717D01*
X40284900Y-31700915D01*
X40274550Y-31693999D01*
X40263050Y-31689235D01*
X40250841Y-31686807D01*
X40220383Y-31683807D01*
X40102387Y-31648014D01*
X39993644Y-31589890D01*
X39898331Y-31511669D01*
X39820110Y-31416356D01*
X39761986Y-31307613D01*
X39726193Y-31189617D01*
X39713800Y-31063793D01*
X39713800Y-29896207D01*
X39726193Y-29770383D01*
X39761986Y-29652387D01*
X39820110Y-29543644D01*
X39898331Y-29448331D01*
X39993644Y-29370110D01*
X40102387Y-29311986D01*
X40220383Y-29276193D01*
X40250841Y-29273193D01*
X40263050Y-29270765D01*
X40274550Y-29266001D01*
X40284900Y-29259085D01*
X40293702Y-29250283D01*
X40300618Y-29239933D01*
X40305382Y-29228433D01*
X40307810Y-29216224D01*
X40307810Y-29203776D01*
X40305382Y-29191567D01*
X40300618Y-29180067D01*
X40293702Y-29169717D01*
X40284900Y-29160915D01*
X40274550Y-29153999D01*
X40263050Y-29149235D01*
X40250841Y-29146807D01*
X40220383Y-29143807D01*
X40102387Y-29108014D01*
X39993644Y-29049890D01*
X39898331Y-28971669D01*
X39820110Y-28876356D01*
X39761986Y-28767613D01*
X39726193Y-28649617D01*
X39713800Y-28523793D01*
X39713800Y-27356207D01*
X39726193Y-27230383D01*
X39761986Y-27112387D01*
X39820110Y-27003644D01*
X39898331Y-26908331D01*
X39993644Y-26830110D01*
X40102387Y-26771986D01*
X40220383Y-26736193D01*
X40250841Y-26733193D01*
X40263050Y-26730765D01*
X40274550Y-26726001D01*
X40284900Y-26719085D01*
X40293702Y-26710283D01*
X40300618Y-26699933D01*
X40305382Y-26688433D01*
X40307810Y-26676224D01*
X40307810Y-26663776D01*
X40305382Y-26651567D01*
X40300618Y-26640067D01*
X40293702Y-26629717D01*
X40284900Y-26620915D01*
X40274550Y-26613999D01*
X40263050Y-26609235D01*
X40250841Y-26606807D01*
X40220383Y-26603807D01*
X40102387Y-26568014D01*
X39993644Y-26509890D01*
X39898331Y-26431669D01*
X39820110Y-26336356D01*
X39761986Y-26227613D01*
X39726193Y-26109617D01*
X39713800Y-25983793D01*
X39713800Y-24816207D01*
X39726193Y-24690383D01*
X39761986Y-24572387D01*
X39820110Y-24463644D01*
X39898331Y-24368331D01*
X39993644Y-24290110D01*
X40102387Y-24231986D01*
X40220383Y-24196193D01*
X40250841Y-24193193D01*
X40263050Y-24190765D01*
X40274550Y-24186001D01*
X40284900Y-24179085D01*
X40293702Y-24170283D01*
X40300618Y-24159933D01*
X40305382Y-24148433D01*
X40307810Y-24136224D01*
X40307810Y-24123776D01*
X40305382Y-24111567D01*
X40300618Y-24100067D01*
X40293702Y-24089717D01*
X40284900Y-24080915D01*
X40274550Y-24073999D01*
X40263050Y-24069235D01*
X40250841Y-24066807D01*
X40220383Y-24063807D01*
X40102387Y-24028014D01*
X39993644Y-23969890D01*
X39898331Y-23891669D01*
X39820110Y-23796356D01*
X39761986Y-23687613D01*
X39726193Y-23569617D01*
X39713800Y-23443793D01*
X39713800Y-22276207D01*
X39726193Y-22150383D01*
X39761986Y-22032387D01*
X39820110Y-21923644D01*
X39898331Y-21828331D01*
X39993644Y-21750110D01*
X40102387Y-21691986D01*
X40220383Y-21656193D01*
X40285840Y-21649746D01*
X40298049Y-21647318D01*
X40309549Y-21642554D01*
X40319899Y-21635638D01*
X40328701Y-21626836D01*
X40335617Y-21616486D01*
X40340381Y-21604986D01*
X40342809Y-21592777D01*
X40342809Y-21580329D01*
X40340381Y-21568120D01*
X40335617Y-21556620D01*
X40328701Y-21546270D01*
X40319899Y-21537468D01*
X40309549Y-21530552D01*
X40298049Y-21525788D01*
X40285841Y-21523360D01*
X40276728Y-21522462D01*
X40145598Y-21482685D01*
X40024757Y-21418094D01*
X39918835Y-21331165D01*
X39831906Y-21225243D01*
X39767315Y-21104402D01*
X39727538Y-20973272D01*
X39713800Y-20833793D01*
X39713800Y-19806207D01*
X39727538Y-19666728D01*
X39767315Y-19535598D01*
X39831906Y-19414757D01*
X39918835Y-19308835D01*
X40024757Y-19221906D01*
X40145598Y-19157315D01*
X40276728Y-19117538D01*
X40416207Y-19103800D01*
X41063793Y-19103800D01*
X41203272Y-19117538D01*
G37*
M02*
