G04 #@! TF.GenerationSoftware,KiCad,Pcbnew,(5.1.5-0-10_14)*
G04 #@! TF.CreationDate,2021-04-02T23:51:13-04:00*
G04 #@! TF.ProjectId,GW28R8128,47573238-5238-4313-9238-2e6b69636164,rev?*
G04 #@! TF.SameCoordinates,Original*
G04 #@! TF.FileFunction,Legend,Top*
G04 #@! TF.FilePolarity,Positive*
%FSLAX46Y46*%
G04 Gerber Fmt 4.6, Leading zero omitted, Abs format (unit mm)*
G04 Created by KiCad (PCBNEW (5.1.5-0-10_14)) date 2021-04-02 23:51:13*
%MOMM*%
%LPD*%
G04 APERTURE LIST*
%ADD10C,0.200000*%
%ADD11C,1.280000*%
%ADD12C,0.152400*%
%ADD13C,0.127000*%
%ADD14C,0.203200*%
%ADD15C,0.100000*%
%ADD16C,2.000000*%
%ADD17R,1.852400X1.052400*%
G04 APERTURE END LIST*
D10*
X46990000Y-20066000D02*
X49530000Y-20066000D01*
X46990000Y-19177000D02*
X46990000Y-20066000D01*
X49530000Y-20066000D02*
X49530000Y-19177000D01*
D11*
X44196000Y-22860000D02*
G75*
G03X44196000Y-22860000I-381000J0D01*
G01*
D12*
X47396400Y-48095000D02*
X46583600Y-48095000D01*
X47396400Y-49695000D02*
X46583600Y-49695000D01*
X49086400Y-25870000D02*
X48273600Y-25870000D01*
X49086400Y-27470000D02*
X48273600Y-27470000D01*
X51270000Y-25628600D02*
X51270000Y-26441400D01*
X52870000Y-25628600D02*
X52870000Y-26441400D01*
X42435000Y-30907218D02*
X42435000Y-31190000D01*
X43607218Y-29735000D02*
X42435000Y-30907218D01*
X43890000Y-29735000D02*
X43607218Y-29735000D01*
X54085000Y-43925000D02*
X54085000Y-42470000D01*
X52630000Y-43925000D02*
X54085000Y-43925000D01*
X42435000Y-43925000D02*
X42435000Y-42470000D01*
X43890000Y-43925000D02*
X42435000Y-43925000D01*
X54085000Y-29735000D02*
X54085000Y-31190000D01*
X52630000Y-29735000D02*
X54085000Y-29735000D01*
D13*
X50134000Y-52543000D02*
X49434000Y-52543000D01*
X49434000Y-51343000D02*
X50134000Y-51343000D01*
X46386000Y-51343000D02*
X47086000Y-51343000D01*
X47086000Y-52543000D02*
X46386000Y-52543000D01*
D14*
X47640723Y-36384895D02*
X47640723Y-37042876D01*
X47679428Y-37120285D01*
X47718133Y-37158990D01*
X47795542Y-37197695D01*
X47950361Y-37197695D01*
X48027771Y-37158990D01*
X48066476Y-37120285D01*
X48105180Y-37042876D01*
X48105180Y-36384895D01*
X48917980Y-37197695D02*
X48453523Y-37197695D01*
X48685752Y-37197695D02*
X48685752Y-36384895D01*
X48608342Y-36501009D01*
X48530933Y-36578419D01*
X48453523Y-36617123D01*
%LPC*%
D15*
G36*
X46300779Y-48146144D02*
G01*
X46323834Y-48149563D01*
X46346443Y-48155227D01*
X46368387Y-48163079D01*
X46389457Y-48173044D01*
X46409448Y-48185026D01*
X46428168Y-48198910D01*
X46445438Y-48214562D01*
X46461090Y-48231832D01*
X46474974Y-48250552D01*
X46486956Y-48270543D01*
X46496921Y-48291613D01*
X46504773Y-48313557D01*
X46510437Y-48336166D01*
X46513856Y-48359221D01*
X46515000Y-48382500D01*
X46515000Y-49407500D01*
X46513856Y-49430779D01*
X46510437Y-49453834D01*
X46504773Y-49476443D01*
X46496921Y-49498387D01*
X46486956Y-49519457D01*
X46474974Y-49539448D01*
X46461090Y-49558168D01*
X46445438Y-49575438D01*
X46428168Y-49591090D01*
X46409448Y-49604974D01*
X46389457Y-49616956D01*
X46368387Y-49626921D01*
X46346443Y-49634773D01*
X46323834Y-49640437D01*
X46300779Y-49643856D01*
X46277500Y-49645000D01*
X45802500Y-49645000D01*
X45779221Y-49643856D01*
X45756166Y-49640437D01*
X45733557Y-49634773D01*
X45711613Y-49626921D01*
X45690543Y-49616956D01*
X45670552Y-49604974D01*
X45651832Y-49591090D01*
X45634562Y-49575438D01*
X45618910Y-49558168D01*
X45605026Y-49539448D01*
X45593044Y-49519457D01*
X45583079Y-49498387D01*
X45575227Y-49476443D01*
X45569563Y-49453834D01*
X45566144Y-49430779D01*
X45565000Y-49407500D01*
X45565000Y-48382500D01*
X45566144Y-48359221D01*
X45569563Y-48336166D01*
X45575227Y-48313557D01*
X45583079Y-48291613D01*
X45593044Y-48270543D01*
X45605026Y-48250552D01*
X45618910Y-48231832D01*
X45634562Y-48214562D01*
X45651832Y-48198910D01*
X45670552Y-48185026D01*
X45690543Y-48173044D01*
X45711613Y-48163079D01*
X45733557Y-48155227D01*
X45756166Y-48149563D01*
X45779221Y-48146144D01*
X45802500Y-48145000D01*
X46277500Y-48145000D01*
X46300779Y-48146144D01*
G37*
G36*
X48200779Y-48146144D02*
G01*
X48223834Y-48149563D01*
X48246443Y-48155227D01*
X48268387Y-48163079D01*
X48289457Y-48173044D01*
X48309448Y-48185026D01*
X48328168Y-48198910D01*
X48345438Y-48214562D01*
X48361090Y-48231832D01*
X48374974Y-48250552D01*
X48386956Y-48270543D01*
X48396921Y-48291613D01*
X48404773Y-48313557D01*
X48410437Y-48336166D01*
X48413856Y-48359221D01*
X48415000Y-48382500D01*
X48415000Y-49407500D01*
X48413856Y-49430779D01*
X48410437Y-49453834D01*
X48404773Y-49476443D01*
X48396921Y-49498387D01*
X48386956Y-49519457D01*
X48374974Y-49539448D01*
X48361090Y-49558168D01*
X48345438Y-49575438D01*
X48328168Y-49591090D01*
X48309448Y-49604974D01*
X48289457Y-49616956D01*
X48268387Y-49626921D01*
X48246443Y-49634773D01*
X48223834Y-49640437D01*
X48200779Y-49643856D01*
X48177500Y-49645000D01*
X47702500Y-49645000D01*
X47679221Y-49643856D01*
X47656166Y-49640437D01*
X47633557Y-49634773D01*
X47611613Y-49626921D01*
X47590543Y-49616956D01*
X47570552Y-49604974D01*
X47551832Y-49591090D01*
X47534562Y-49575438D01*
X47518910Y-49558168D01*
X47505026Y-49539448D01*
X47493044Y-49519457D01*
X47483079Y-49498387D01*
X47475227Y-49476443D01*
X47469563Y-49453834D01*
X47466144Y-49430779D01*
X47465000Y-49407500D01*
X47465000Y-48382500D01*
X47466144Y-48359221D01*
X47469563Y-48336166D01*
X47475227Y-48313557D01*
X47483079Y-48291613D01*
X47493044Y-48270543D01*
X47505026Y-48250552D01*
X47518910Y-48231832D01*
X47534562Y-48214562D01*
X47551832Y-48198910D01*
X47570552Y-48185026D01*
X47590543Y-48173044D01*
X47611613Y-48163079D01*
X47633557Y-48155227D01*
X47656166Y-48149563D01*
X47679221Y-48146144D01*
X47702500Y-48145000D01*
X48177500Y-48145000D01*
X48200779Y-48146144D01*
G37*
G36*
X48145680Y-25921384D02*
G01*
X48173588Y-25925524D01*
X48200957Y-25932380D01*
X48227521Y-25941885D01*
X48253027Y-25953948D01*
X48277226Y-25968452D01*
X48299888Y-25985259D01*
X48320793Y-26004207D01*
X48339741Y-26025112D01*
X48356548Y-26047774D01*
X48371052Y-26071973D01*
X48383115Y-26097479D01*
X48392620Y-26124043D01*
X48399476Y-26151412D01*
X48403616Y-26179320D01*
X48405000Y-26207500D01*
X48405000Y-27132500D01*
X48403616Y-27160680D01*
X48399476Y-27188588D01*
X48392620Y-27215957D01*
X48383115Y-27242521D01*
X48371052Y-27268027D01*
X48356548Y-27292226D01*
X48339741Y-27314888D01*
X48320793Y-27335793D01*
X48299888Y-27354741D01*
X48277226Y-27371548D01*
X48253027Y-27386052D01*
X48227521Y-27398115D01*
X48200957Y-27407620D01*
X48173588Y-27414476D01*
X48145680Y-27418616D01*
X48117500Y-27420000D01*
X47542500Y-27420000D01*
X47514320Y-27418616D01*
X47486412Y-27414476D01*
X47459043Y-27407620D01*
X47432479Y-27398115D01*
X47406973Y-27386052D01*
X47382774Y-27371548D01*
X47360112Y-27354741D01*
X47339207Y-27335793D01*
X47320259Y-27314888D01*
X47303452Y-27292226D01*
X47288948Y-27268027D01*
X47276885Y-27242521D01*
X47267380Y-27215957D01*
X47260524Y-27188588D01*
X47256384Y-27160680D01*
X47255000Y-27132500D01*
X47255000Y-26207500D01*
X47256384Y-26179320D01*
X47260524Y-26151412D01*
X47267380Y-26124043D01*
X47276885Y-26097479D01*
X47288948Y-26071973D01*
X47303452Y-26047774D01*
X47320259Y-26025112D01*
X47339207Y-26004207D01*
X47360112Y-25985259D01*
X47382774Y-25968452D01*
X47406973Y-25953948D01*
X47432479Y-25941885D01*
X47459043Y-25932380D01*
X47486412Y-25925524D01*
X47514320Y-25921384D01*
X47542500Y-25920000D01*
X48117500Y-25920000D01*
X48145680Y-25921384D01*
G37*
G36*
X49845680Y-25921384D02*
G01*
X49873588Y-25925524D01*
X49900957Y-25932380D01*
X49927521Y-25941885D01*
X49953027Y-25953948D01*
X49977226Y-25968452D01*
X49999888Y-25985259D01*
X50020793Y-26004207D01*
X50039741Y-26025112D01*
X50056548Y-26047774D01*
X50071052Y-26071973D01*
X50083115Y-26097479D01*
X50092620Y-26124043D01*
X50099476Y-26151412D01*
X50103616Y-26179320D01*
X50105000Y-26207500D01*
X50105000Y-27132500D01*
X50103616Y-27160680D01*
X50099476Y-27188588D01*
X50092620Y-27215957D01*
X50083115Y-27242521D01*
X50071052Y-27268027D01*
X50056548Y-27292226D01*
X50039741Y-27314888D01*
X50020793Y-27335793D01*
X49999888Y-27354741D01*
X49977226Y-27371548D01*
X49953027Y-27386052D01*
X49927521Y-27398115D01*
X49900957Y-27407620D01*
X49873588Y-27414476D01*
X49845680Y-27418616D01*
X49817500Y-27420000D01*
X49242500Y-27420000D01*
X49214320Y-27418616D01*
X49186412Y-27414476D01*
X49159043Y-27407620D01*
X49132479Y-27398115D01*
X49106973Y-27386052D01*
X49082774Y-27371548D01*
X49060112Y-27354741D01*
X49039207Y-27335793D01*
X49020259Y-27314888D01*
X49003452Y-27292226D01*
X48988948Y-27268027D01*
X48976885Y-27242521D01*
X48967380Y-27215957D01*
X48960524Y-27188588D01*
X48956384Y-27160680D01*
X48955000Y-27132500D01*
X48955000Y-26207500D01*
X48956384Y-26179320D01*
X48960524Y-26151412D01*
X48967380Y-26124043D01*
X48976885Y-26097479D01*
X48988948Y-26071973D01*
X49003452Y-26047774D01*
X49020259Y-26025112D01*
X49039207Y-26004207D01*
X49060112Y-25985259D01*
X49082774Y-25968452D01*
X49106973Y-25953948D01*
X49132479Y-25941885D01*
X49159043Y-25932380D01*
X49186412Y-25925524D01*
X49214320Y-25921384D01*
X49242500Y-25920000D01*
X49817500Y-25920000D01*
X49845680Y-25921384D01*
G37*
G36*
X52605779Y-26511144D02*
G01*
X52628834Y-26514563D01*
X52651443Y-26520227D01*
X52673387Y-26528079D01*
X52694457Y-26538044D01*
X52714448Y-26550026D01*
X52733168Y-26563910D01*
X52750438Y-26579562D01*
X52766090Y-26596832D01*
X52779974Y-26615552D01*
X52791956Y-26635543D01*
X52801921Y-26656613D01*
X52809773Y-26678557D01*
X52815437Y-26701166D01*
X52818856Y-26724221D01*
X52820000Y-26747500D01*
X52820000Y-27222500D01*
X52818856Y-27245779D01*
X52815437Y-27268834D01*
X52809773Y-27291443D01*
X52801921Y-27313387D01*
X52791956Y-27334457D01*
X52779974Y-27354448D01*
X52766090Y-27373168D01*
X52750438Y-27390438D01*
X52733168Y-27406090D01*
X52714448Y-27419974D01*
X52694457Y-27431956D01*
X52673387Y-27441921D01*
X52651443Y-27449773D01*
X52628834Y-27455437D01*
X52605779Y-27458856D01*
X52582500Y-27460000D01*
X51557500Y-27460000D01*
X51534221Y-27458856D01*
X51511166Y-27455437D01*
X51488557Y-27449773D01*
X51466613Y-27441921D01*
X51445543Y-27431956D01*
X51425552Y-27419974D01*
X51406832Y-27406090D01*
X51389562Y-27390438D01*
X51373910Y-27373168D01*
X51360026Y-27354448D01*
X51348044Y-27334457D01*
X51338079Y-27313387D01*
X51330227Y-27291443D01*
X51324563Y-27268834D01*
X51321144Y-27245779D01*
X51320000Y-27222500D01*
X51320000Y-26747500D01*
X51321144Y-26724221D01*
X51324563Y-26701166D01*
X51330227Y-26678557D01*
X51338079Y-26656613D01*
X51348044Y-26635543D01*
X51360026Y-26615552D01*
X51373910Y-26596832D01*
X51389562Y-26579562D01*
X51406832Y-26563910D01*
X51425552Y-26550026D01*
X51445543Y-26538044D01*
X51466613Y-26528079D01*
X51488557Y-26520227D01*
X51511166Y-26514563D01*
X51534221Y-26511144D01*
X51557500Y-26510000D01*
X52582500Y-26510000D01*
X52605779Y-26511144D01*
G37*
G36*
X52605779Y-24611144D02*
G01*
X52628834Y-24614563D01*
X52651443Y-24620227D01*
X52673387Y-24628079D01*
X52694457Y-24638044D01*
X52714448Y-24650026D01*
X52733168Y-24663910D01*
X52750438Y-24679562D01*
X52766090Y-24696832D01*
X52779974Y-24715552D01*
X52791956Y-24735543D01*
X52801921Y-24756613D01*
X52809773Y-24778557D01*
X52815437Y-24801166D01*
X52818856Y-24824221D01*
X52820000Y-24847500D01*
X52820000Y-25322500D01*
X52818856Y-25345779D01*
X52815437Y-25368834D01*
X52809773Y-25391443D01*
X52801921Y-25413387D01*
X52791956Y-25434457D01*
X52779974Y-25454448D01*
X52766090Y-25473168D01*
X52750438Y-25490438D01*
X52733168Y-25506090D01*
X52714448Y-25519974D01*
X52694457Y-25531956D01*
X52673387Y-25541921D01*
X52651443Y-25549773D01*
X52628834Y-25555437D01*
X52605779Y-25558856D01*
X52582500Y-25560000D01*
X51557500Y-25560000D01*
X51534221Y-25558856D01*
X51511166Y-25555437D01*
X51488557Y-25549773D01*
X51466613Y-25541921D01*
X51445543Y-25531956D01*
X51425552Y-25519974D01*
X51406832Y-25506090D01*
X51389562Y-25490438D01*
X51373910Y-25473168D01*
X51360026Y-25454448D01*
X51348044Y-25434457D01*
X51338079Y-25413387D01*
X51330227Y-25391443D01*
X51324563Y-25368834D01*
X51321144Y-25345779D01*
X51320000Y-25322500D01*
X51320000Y-24847500D01*
X51321144Y-24824221D01*
X51324563Y-24801166D01*
X51330227Y-24778557D01*
X51338079Y-24756613D01*
X51348044Y-24735543D01*
X51360026Y-24715552D01*
X51373910Y-24696832D01*
X51389562Y-24679562D01*
X51406832Y-24663910D01*
X51425552Y-24650026D01*
X51445543Y-24638044D01*
X51466613Y-24628079D01*
X51488557Y-24620227D01*
X51511166Y-24614563D01*
X51534221Y-24611144D01*
X51557500Y-24610000D01*
X52582500Y-24610000D01*
X52605779Y-24611144D01*
G37*
G36*
X56140650Y-19154898D02*
G01*
X56207133Y-19164760D01*
X56272330Y-19181091D01*
X56335612Y-19203733D01*
X56396370Y-19232470D01*
X56454019Y-19267023D01*
X56508003Y-19307061D01*
X56557803Y-19352197D01*
X56602939Y-19401997D01*
X56642977Y-19455981D01*
X56677530Y-19513630D01*
X56706267Y-19574388D01*
X56728909Y-19637670D01*
X56745240Y-19702867D01*
X56755102Y-19769350D01*
X56758400Y-19836480D01*
X56758400Y-20803520D01*
X56755102Y-20870650D01*
X56745240Y-20937133D01*
X56728909Y-21002330D01*
X56706267Y-21065612D01*
X56677530Y-21126370D01*
X56642977Y-21184019D01*
X56602939Y-21238003D01*
X56557803Y-21287803D01*
X56508003Y-21332939D01*
X56454019Y-21372977D01*
X56396370Y-21407530D01*
X56335612Y-21436267D01*
X56272330Y-21458909D01*
X56207133Y-21475240D01*
X56140650Y-21485102D01*
X56073520Y-21488400D01*
X55486480Y-21488400D01*
X55419350Y-21485102D01*
X55352867Y-21475240D01*
X55287670Y-21458909D01*
X55224388Y-21436267D01*
X55163630Y-21407530D01*
X55105981Y-21372977D01*
X55051997Y-21332939D01*
X55002197Y-21287803D01*
X54957061Y-21238003D01*
X54917023Y-21184019D01*
X54882470Y-21126370D01*
X54853733Y-21065612D01*
X54831091Y-21002330D01*
X54814760Y-20937133D01*
X54804898Y-20870650D01*
X54801600Y-20803520D01*
X54801600Y-19836480D01*
X54804898Y-19769350D01*
X54814760Y-19702867D01*
X54831091Y-19637670D01*
X54853733Y-19574388D01*
X54882470Y-19513630D01*
X54917023Y-19455981D01*
X54957061Y-19401997D01*
X55002197Y-19352197D01*
X55051997Y-19307061D01*
X55105981Y-19267023D01*
X55163630Y-19232470D01*
X55224388Y-19203733D01*
X55287670Y-19181091D01*
X55352867Y-19164760D01*
X55419350Y-19154898D01*
X55486480Y-19151600D01*
X56073520Y-19151600D01*
X56140650Y-19154898D01*
G37*
G36*
X41100650Y-52174898D02*
G01*
X41167133Y-52184760D01*
X41232330Y-52201091D01*
X41295612Y-52223733D01*
X41356370Y-52252470D01*
X41414019Y-52287023D01*
X41468003Y-52327061D01*
X41517803Y-52372197D01*
X41562939Y-52421997D01*
X41602977Y-52475981D01*
X41637530Y-52533630D01*
X41666267Y-52594388D01*
X41688909Y-52657670D01*
X41705240Y-52722867D01*
X41715102Y-52789350D01*
X41718400Y-52856480D01*
X41718400Y-53823520D01*
X41715102Y-53890650D01*
X41705240Y-53957133D01*
X41688909Y-54022330D01*
X41666267Y-54085612D01*
X41637530Y-54146370D01*
X41602977Y-54204019D01*
X41562939Y-54258003D01*
X41517803Y-54307803D01*
X41468003Y-54352939D01*
X41414019Y-54392977D01*
X41356370Y-54427530D01*
X41295612Y-54456267D01*
X41232330Y-54478909D01*
X41167133Y-54495240D01*
X41100650Y-54505102D01*
X41033520Y-54508400D01*
X40446480Y-54508400D01*
X40379350Y-54505102D01*
X40312867Y-54495240D01*
X40247670Y-54478909D01*
X40184388Y-54456267D01*
X40123630Y-54427530D01*
X40065981Y-54392977D01*
X40011997Y-54352939D01*
X39962197Y-54307803D01*
X39917061Y-54258003D01*
X39877023Y-54204019D01*
X39842470Y-54146370D01*
X39813733Y-54085612D01*
X39791091Y-54022330D01*
X39774760Y-53957133D01*
X39764898Y-53890650D01*
X39761600Y-53823520D01*
X39761600Y-52856480D01*
X39764898Y-52789350D01*
X39774760Y-52722867D01*
X39791091Y-52657670D01*
X39813733Y-52594388D01*
X39842470Y-52533630D01*
X39877023Y-52475981D01*
X39917061Y-52421997D01*
X39962197Y-52372197D01*
X40011997Y-52327061D01*
X40065981Y-52287023D01*
X40123630Y-52252470D01*
X40184388Y-52223733D01*
X40247670Y-52201091D01*
X40312867Y-52184760D01*
X40379350Y-52174898D01*
X40446480Y-52171600D01*
X41033520Y-52171600D01*
X41100650Y-52174898D01*
G37*
G36*
X56203789Y-21694561D02*
G01*
X56263477Y-21703415D01*
X56322010Y-21718077D01*
X56378824Y-21738405D01*
X56433372Y-21764204D01*
X56485129Y-21795226D01*
X56533596Y-21831171D01*
X56578306Y-21871694D01*
X56618829Y-21916404D01*
X56654774Y-21964871D01*
X56685796Y-22016628D01*
X56711595Y-22071176D01*
X56731923Y-22127990D01*
X56746585Y-22186523D01*
X56755439Y-22246211D01*
X56758400Y-22306480D01*
X56758400Y-23413520D01*
X56755439Y-23473789D01*
X56746585Y-23533477D01*
X56731923Y-23592010D01*
X56711595Y-23648824D01*
X56685796Y-23703372D01*
X56654774Y-23755129D01*
X56618829Y-23803596D01*
X56578306Y-23848306D01*
X56533596Y-23888829D01*
X56485129Y-23924774D01*
X56433372Y-23955796D01*
X56378824Y-23981595D01*
X56322010Y-24001923D01*
X56263477Y-24016585D01*
X56203789Y-24025439D01*
X56143520Y-24028400D01*
X55616480Y-24028400D01*
X55556211Y-24025439D01*
X55496523Y-24016585D01*
X55437990Y-24001923D01*
X55381176Y-23981595D01*
X55326628Y-23955796D01*
X55274871Y-23924774D01*
X55226404Y-23888829D01*
X55181694Y-23848306D01*
X55141171Y-23803596D01*
X55105226Y-23755129D01*
X55074204Y-23703372D01*
X55048405Y-23648824D01*
X55028077Y-23592010D01*
X55013415Y-23533477D01*
X55004561Y-23473789D01*
X55001600Y-23413520D01*
X55001600Y-22306480D01*
X55004561Y-22246211D01*
X55013415Y-22186523D01*
X55028077Y-22127990D01*
X55048405Y-22071176D01*
X55074204Y-22016628D01*
X55105226Y-21964871D01*
X55141171Y-21916404D01*
X55181694Y-21871694D01*
X55226404Y-21831171D01*
X55274871Y-21795226D01*
X55326628Y-21764204D01*
X55381176Y-21738405D01*
X55437990Y-21718077D01*
X55496523Y-21703415D01*
X55556211Y-21694561D01*
X55616480Y-21691600D01*
X56143520Y-21691600D01*
X56203789Y-21694561D01*
G37*
G36*
X40963789Y-49634561D02*
G01*
X41023477Y-49643415D01*
X41082010Y-49658077D01*
X41138824Y-49678405D01*
X41193372Y-49704204D01*
X41245129Y-49735226D01*
X41293596Y-49771171D01*
X41338306Y-49811694D01*
X41378829Y-49856404D01*
X41414774Y-49904871D01*
X41445796Y-49956628D01*
X41471595Y-50011176D01*
X41491923Y-50067990D01*
X41506585Y-50126523D01*
X41515439Y-50186211D01*
X41518400Y-50246480D01*
X41518400Y-51353520D01*
X41515439Y-51413789D01*
X41506585Y-51473477D01*
X41491923Y-51532010D01*
X41471595Y-51588824D01*
X41445796Y-51643372D01*
X41414774Y-51695129D01*
X41378829Y-51743596D01*
X41338306Y-51788306D01*
X41293596Y-51828829D01*
X41245129Y-51864774D01*
X41193372Y-51895796D01*
X41138824Y-51921595D01*
X41082010Y-51941923D01*
X41023477Y-51956585D01*
X40963789Y-51965439D01*
X40903520Y-51968400D01*
X40376480Y-51968400D01*
X40316211Y-51965439D01*
X40256523Y-51956585D01*
X40197990Y-51941923D01*
X40141176Y-51921595D01*
X40086628Y-51895796D01*
X40034871Y-51864774D01*
X39986404Y-51828829D01*
X39941694Y-51788306D01*
X39901171Y-51743596D01*
X39865226Y-51695129D01*
X39834204Y-51643372D01*
X39808405Y-51588824D01*
X39788077Y-51532010D01*
X39773415Y-51473477D01*
X39764561Y-51413789D01*
X39761600Y-51353520D01*
X39761600Y-50246480D01*
X39764561Y-50186211D01*
X39773415Y-50126523D01*
X39788077Y-50067990D01*
X39808405Y-50011176D01*
X39834204Y-49956628D01*
X39865226Y-49904871D01*
X39901171Y-49856404D01*
X39941694Y-49811694D01*
X39986404Y-49771171D01*
X40034871Y-49735226D01*
X40086628Y-49704204D01*
X40141176Y-49678405D01*
X40197990Y-49658077D01*
X40256523Y-49643415D01*
X40316211Y-49634561D01*
X40376480Y-49631600D01*
X40903520Y-49631600D01*
X40963789Y-49634561D01*
G37*
G36*
X56203789Y-24234561D02*
G01*
X56263477Y-24243415D01*
X56322010Y-24258077D01*
X56378824Y-24278405D01*
X56433372Y-24304204D01*
X56485129Y-24335226D01*
X56533596Y-24371171D01*
X56578306Y-24411694D01*
X56618829Y-24456404D01*
X56654774Y-24504871D01*
X56685796Y-24556628D01*
X56711595Y-24611176D01*
X56731923Y-24667990D01*
X56746585Y-24726523D01*
X56755439Y-24786211D01*
X56758400Y-24846480D01*
X56758400Y-25953520D01*
X56755439Y-26013789D01*
X56746585Y-26073477D01*
X56731923Y-26132010D01*
X56711595Y-26188824D01*
X56685796Y-26243372D01*
X56654774Y-26295129D01*
X56618829Y-26343596D01*
X56578306Y-26388306D01*
X56533596Y-26428829D01*
X56485129Y-26464774D01*
X56433372Y-26495796D01*
X56378824Y-26521595D01*
X56322010Y-26541923D01*
X56263477Y-26556585D01*
X56203789Y-26565439D01*
X56143520Y-26568400D01*
X55616480Y-26568400D01*
X55556211Y-26565439D01*
X55496523Y-26556585D01*
X55437990Y-26541923D01*
X55381176Y-26521595D01*
X55326628Y-26495796D01*
X55274871Y-26464774D01*
X55226404Y-26428829D01*
X55181694Y-26388306D01*
X55141171Y-26343596D01*
X55105226Y-26295129D01*
X55074204Y-26243372D01*
X55048405Y-26188824D01*
X55028077Y-26132010D01*
X55013415Y-26073477D01*
X55004561Y-26013789D01*
X55001600Y-25953520D01*
X55001600Y-24846480D01*
X55004561Y-24786211D01*
X55013415Y-24726523D01*
X55028077Y-24667990D01*
X55048405Y-24611176D01*
X55074204Y-24556628D01*
X55105226Y-24504871D01*
X55141171Y-24456404D01*
X55181694Y-24411694D01*
X55226404Y-24371171D01*
X55274871Y-24335226D01*
X55326628Y-24304204D01*
X55381176Y-24278405D01*
X55437990Y-24258077D01*
X55496523Y-24243415D01*
X55556211Y-24234561D01*
X55616480Y-24231600D01*
X56143520Y-24231600D01*
X56203789Y-24234561D01*
G37*
G36*
X40963789Y-47094561D02*
G01*
X41023477Y-47103415D01*
X41082010Y-47118077D01*
X41138824Y-47138405D01*
X41193372Y-47164204D01*
X41245129Y-47195226D01*
X41293596Y-47231171D01*
X41338306Y-47271694D01*
X41378829Y-47316404D01*
X41414774Y-47364871D01*
X41445796Y-47416628D01*
X41471595Y-47471176D01*
X41491923Y-47527990D01*
X41506585Y-47586523D01*
X41515439Y-47646211D01*
X41518400Y-47706480D01*
X41518400Y-48813520D01*
X41515439Y-48873789D01*
X41506585Y-48933477D01*
X41491923Y-48992010D01*
X41471595Y-49048824D01*
X41445796Y-49103372D01*
X41414774Y-49155129D01*
X41378829Y-49203596D01*
X41338306Y-49248306D01*
X41293596Y-49288829D01*
X41245129Y-49324774D01*
X41193372Y-49355796D01*
X41138824Y-49381595D01*
X41082010Y-49401923D01*
X41023477Y-49416585D01*
X40963789Y-49425439D01*
X40903520Y-49428400D01*
X40376480Y-49428400D01*
X40316211Y-49425439D01*
X40256523Y-49416585D01*
X40197990Y-49401923D01*
X40141176Y-49381595D01*
X40086628Y-49355796D01*
X40034871Y-49324774D01*
X39986404Y-49288829D01*
X39941694Y-49248306D01*
X39901171Y-49203596D01*
X39865226Y-49155129D01*
X39834204Y-49103372D01*
X39808405Y-49048824D01*
X39788077Y-48992010D01*
X39773415Y-48933477D01*
X39764561Y-48873789D01*
X39761600Y-48813520D01*
X39761600Y-47706480D01*
X39764561Y-47646211D01*
X39773415Y-47586523D01*
X39788077Y-47527990D01*
X39808405Y-47471176D01*
X39834204Y-47416628D01*
X39865226Y-47364871D01*
X39901171Y-47316404D01*
X39941694Y-47271694D01*
X39986404Y-47231171D01*
X40034871Y-47195226D01*
X40086628Y-47164204D01*
X40141176Y-47138405D01*
X40197990Y-47118077D01*
X40256523Y-47103415D01*
X40316211Y-47094561D01*
X40376480Y-47091600D01*
X40903520Y-47091600D01*
X40963789Y-47094561D01*
G37*
G36*
X56203789Y-26774561D02*
G01*
X56263477Y-26783415D01*
X56322010Y-26798077D01*
X56378824Y-26818405D01*
X56433372Y-26844204D01*
X56485129Y-26875226D01*
X56533596Y-26911171D01*
X56578306Y-26951694D01*
X56618829Y-26996404D01*
X56654774Y-27044871D01*
X56685796Y-27096628D01*
X56711595Y-27151176D01*
X56731923Y-27207990D01*
X56746585Y-27266523D01*
X56755439Y-27326211D01*
X56758400Y-27386480D01*
X56758400Y-28493520D01*
X56755439Y-28553789D01*
X56746585Y-28613477D01*
X56731923Y-28672010D01*
X56711595Y-28728824D01*
X56685796Y-28783372D01*
X56654774Y-28835129D01*
X56618829Y-28883596D01*
X56578306Y-28928306D01*
X56533596Y-28968829D01*
X56485129Y-29004774D01*
X56433372Y-29035796D01*
X56378824Y-29061595D01*
X56322010Y-29081923D01*
X56263477Y-29096585D01*
X56203789Y-29105439D01*
X56143520Y-29108400D01*
X55616480Y-29108400D01*
X55556211Y-29105439D01*
X55496523Y-29096585D01*
X55437990Y-29081923D01*
X55381176Y-29061595D01*
X55326628Y-29035796D01*
X55274871Y-29004774D01*
X55226404Y-28968829D01*
X55181694Y-28928306D01*
X55141171Y-28883596D01*
X55105226Y-28835129D01*
X55074204Y-28783372D01*
X55048405Y-28728824D01*
X55028077Y-28672010D01*
X55013415Y-28613477D01*
X55004561Y-28553789D01*
X55001600Y-28493520D01*
X55001600Y-27386480D01*
X55004561Y-27326211D01*
X55013415Y-27266523D01*
X55028077Y-27207990D01*
X55048405Y-27151176D01*
X55074204Y-27096628D01*
X55105226Y-27044871D01*
X55141171Y-26996404D01*
X55181694Y-26951694D01*
X55226404Y-26911171D01*
X55274871Y-26875226D01*
X55326628Y-26844204D01*
X55381176Y-26818405D01*
X55437990Y-26798077D01*
X55496523Y-26783415D01*
X55556211Y-26774561D01*
X55616480Y-26771600D01*
X56143520Y-26771600D01*
X56203789Y-26774561D01*
G37*
G36*
X40963789Y-44554561D02*
G01*
X41023477Y-44563415D01*
X41082010Y-44578077D01*
X41138824Y-44598405D01*
X41193372Y-44624204D01*
X41245129Y-44655226D01*
X41293596Y-44691171D01*
X41338306Y-44731694D01*
X41378829Y-44776404D01*
X41414774Y-44824871D01*
X41445796Y-44876628D01*
X41471595Y-44931176D01*
X41491923Y-44987990D01*
X41506585Y-45046523D01*
X41515439Y-45106211D01*
X41518400Y-45166480D01*
X41518400Y-46273520D01*
X41515439Y-46333789D01*
X41506585Y-46393477D01*
X41491923Y-46452010D01*
X41471595Y-46508824D01*
X41445796Y-46563372D01*
X41414774Y-46615129D01*
X41378829Y-46663596D01*
X41338306Y-46708306D01*
X41293596Y-46748829D01*
X41245129Y-46784774D01*
X41193372Y-46815796D01*
X41138824Y-46841595D01*
X41082010Y-46861923D01*
X41023477Y-46876585D01*
X40963789Y-46885439D01*
X40903520Y-46888400D01*
X40376480Y-46888400D01*
X40316211Y-46885439D01*
X40256523Y-46876585D01*
X40197990Y-46861923D01*
X40141176Y-46841595D01*
X40086628Y-46815796D01*
X40034871Y-46784774D01*
X39986404Y-46748829D01*
X39941694Y-46708306D01*
X39901171Y-46663596D01*
X39865226Y-46615129D01*
X39834204Y-46563372D01*
X39808405Y-46508824D01*
X39788077Y-46452010D01*
X39773415Y-46393477D01*
X39764561Y-46333789D01*
X39761600Y-46273520D01*
X39761600Y-45166480D01*
X39764561Y-45106211D01*
X39773415Y-45046523D01*
X39788077Y-44987990D01*
X39808405Y-44931176D01*
X39834204Y-44876628D01*
X39865226Y-44824871D01*
X39901171Y-44776404D01*
X39941694Y-44731694D01*
X39986404Y-44691171D01*
X40034871Y-44655226D01*
X40086628Y-44624204D01*
X40141176Y-44598405D01*
X40197990Y-44578077D01*
X40256523Y-44563415D01*
X40316211Y-44554561D01*
X40376480Y-44551600D01*
X40903520Y-44551600D01*
X40963789Y-44554561D01*
G37*
G36*
X56203789Y-29314561D02*
G01*
X56263477Y-29323415D01*
X56322010Y-29338077D01*
X56378824Y-29358405D01*
X56433372Y-29384204D01*
X56485129Y-29415226D01*
X56533596Y-29451171D01*
X56578306Y-29491694D01*
X56618829Y-29536404D01*
X56654774Y-29584871D01*
X56685796Y-29636628D01*
X56711595Y-29691176D01*
X56731923Y-29747990D01*
X56746585Y-29806523D01*
X56755439Y-29866211D01*
X56758400Y-29926480D01*
X56758400Y-31033520D01*
X56755439Y-31093789D01*
X56746585Y-31153477D01*
X56731923Y-31212010D01*
X56711595Y-31268824D01*
X56685796Y-31323372D01*
X56654774Y-31375129D01*
X56618829Y-31423596D01*
X56578306Y-31468306D01*
X56533596Y-31508829D01*
X56485129Y-31544774D01*
X56433372Y-31575796D01*
X56378824Y-31601595D01*
X56322010Y-31621923D01*
X56263477Y-31636585D01*
X56203789Y-31645439D01*
X56143520Y-31648400D01*
X55616480Y-31648400D01*
X55556211Y-31645439D01*
X55496523Y-31636585D01*
X55437990Y-31621923D01*
X55381176Y-31601595D01*
X55326628Y-31575796D01*
X55274871Y-31544774D01*
X55226404Y-31508829D01*
X55181694Y-31468306D01*
X55141171Y-31423596D01*
X55105226Y-31375129D01*
X55074204Y-31323372D01*
X55048405Y-31268824D01*
X55028077Y-31212010D01*
X55013415Y-31153477D01*
X55004561Y-31093789D01*
X55001600Y-31033520D01*
X55001600Y-29926480D01*
X55004561Y-29866211D01*
X55013415Y-29806523D01*
X55028077Y-29747990D01*
X55048405Y-29691176D01*
X55074204Y-29636628D01*
X55105226Y-29584871D01*
X55141171Y-29536404D01*
X55181694Y-29491694D01*
X55226404Y-29451171D01*
X55274871Y-29415226D01*
X55326628Y-29384204D01*
X55381176Y-29358405D01*
X55437990Y-29338077D01*
X55496523Y-29323415D01*
X55556211Y-29314561D01*
X55616480Y-29311600D01*
X56143520Y-29311600D01*
X56203789Y-29314561D01*
G37*
G36*
X40963789Y-42014561D02*
G01*
X41023477Y-42023415D01*
X41082010Y-42038077D01*
X41138824Y-42058405D01*
X41193372Y-42084204D01*
X41245129Y-42115226D01*
X41293596Y-42151171D01*
X41338306Y-42191694D01*
X41378829Y-42236404D01*
X41414774Y-42284871D01*
X41445796Y-42336628D01*
X41471595Y-42391176D01*
X41491923Y-42447990D01*
X41506585Y-42506523D01*
X41515439Y-42566211D01*
X41518400Y-42626480D01*
X41518400Y-43733520D01*
X41515439Y-43793789D01*
X41506585Y-43853477D01*
X41491923Y-43912010D01*
X41471595Y-43968824D01*
X41445796Y-44023372D01*
X41414774Y-44075129D01*
X41378829Y-44123596D01*
X41338306Y-44168306D01*
X41293596Y-44208829D01*
X41245129Y-44244774D01*
X41193372Y-44275796D01*
X41138824Y-44301595D01*
X41082010Y-44321923D01*
X41023477Y-44336585D01*
X40963789Y-44345439D01*
X40903520Y-44348400D01*
X40376480Y-44348400D01*
X40316211Y-44345439D01*
X40256523Y-44336585D01*
X40197990Y-44321923D01*
X40141176Y-44301595D01*
X40086628Y-44275796D01*
X40034871Y-44244774D01*
X39986404Y-44208829D01*
X39941694Y-44168306D01*
X39901171Y-44123596D01*
X39865226Y-44075129D01*
X39834204Y-44023372D01*
X39808405Y-43968824D01*
X39788077Y-43912010D01*
X39773415Y-43853477D01*
X39764561Y-43793789D01*
X39761600Y-43733520D01*
X39761600Y-42626480D01*
X39764561Y-42566211D01*
X39773415Y-42506523D01*
X39788077Y-42447990D01*
X39808405Y-42391176D01*
X39834204Y-42336628D01*
X39865226Y-42284871D01*
X39901171Y-42236404D01*
X39941694Y-42191694D01*
X39986404Y-42151171D01*
X40034871Y-42115226D01*
X40086628Y-42084204D01*
X40141176Y-42058405D01*
X40197990Y-42038077D01*
X40256523Y-42023415D01*
X40316211Y-42014561D01*
X40376480Y-42011600D01*
X40903520Y-42011600D01*
X40963789Y-42014561D01*
G37*
G36*
X56203789Y-31854561D02*
G01*
X56263477Y-31863415D01*
X56322010Y-31878077D01*
X56378824Y-31898405D01*
X56433372Y-31924204D01*
X56485129Y-31955226D01*
X56533596Y-31991171D01*
X56578306Y-32031694D01*
X56618829Y-32076404D01*
X56654774Y-32124871D01*
X56685796Y-32176628D01*
X56711595Y-32231176D01*
X56731923Y-32287990D01*
X56746585Y-32346523D01*
X56755439Y-32406211D01*
X56758400Y-32466480D01*
X56758400Y-33573520D01*
X56755439Y-33633789D01*
X56746585Y-33693477D01*
X56731923Y-33752010D01*
X56711595Y-33808824D01*
X56685796Y-33863372D01*
X56654774Y-33915129D01*
X56618829Y-33963596D01*
X56578306Y-34008306D01*
X56533596Y-34048829D01*
X56485129Y-34084774D01*
X56433372Y-34115796D01*
X56378824Y-34141595D01*
X56322010Y-34161923D01*
X56263477Y-34176585D01*
X56203789Y-34185439D01*
X56143520Y-34188400D01*
X55616480Y-34188400D01*
X55556211Y-34185439D01*
X55496523Y-34176585D01*
X55437990Y-34161923D01*
X55381176Y-34141595D01*
X55326628Y-34115796D01*
X55274871Y-34084774D01*
X55226404Y-34048829D01*
X55181694Y-34008306D01*
X55141171Y-33963596D01*
X55105226Y-33915129D01*
X55074204Y-33863372D01*
X55048405Y-33808824D01*
X55028077Y-33752010D01*
X55013415Y-33693477D01*
X55004561Y-33633789D01*
X55001600Y-33573520D01*
X55001600Y-32466480D01*
X55004561Y-32406211D01*
X55013415Y-32346523D01*
X55028077Y-32287990D01*
X55048405Y-32231176D01*
X55074204Y-32176628D01*
X55105226Y-32124871D01*
X55141171Y-32076404D01*
X55181694Y-32031694D01*
X55226404Y-31991171D01*
X55274871Y-31955226D01*
X55326628Y-31924204D01*
X55381176Y-31898405D01*
X55437990Y-31878077D01*
X55496523Y-31863415D01*
X55556211Y-31854561D01*
X55616480Y-31851600D01*
X56143520Y-31851600D01*
X56203789Y-31854561D01*
G37*
G36*
X40963789Y-39474561D02*
G01*
X41023477Y-39483415D01*
X41082010Y-39498077D01*
X41138824Y-39518405D01*
X41193372Y-39544204D01*
X41245129Y-39575226D01*
X41293596Y-39611171D01*
X41338306Y-39651694D01*
X41378829Y-39696404D01*
X41414774Y-39744871D01*
X41445796Y-39796628D01*
X41471595Y-39851176D01*
X41491923Y-39907990D01*
X41506585Y-39966523D01*
X41515439Y-40026211D01*
X41518400Y-40086480D01*
X41518400Y-41193520D01*
X41515439Y-41253789D01*
X41506585Y-41313477D01*
X41491923Y-41372010D01*
X41471595Y-41428824D01*
X41445796Y-41483372D01*
X41414774Y-41535129D01*
X41378829Y-41583596D01*
X41338306Y-41628306D01*
X41293596Y-41668829D01*
X41245129Y-41704774D01*
X41193372Y-41735796D01*
X41138824Y-41761595D01*
X41082010Y-41781923D01*
X41023477Y-41796585D01*
X40963789Y-41805439D01*
X40903520Y-41808400D01*
X40376480Y-41808400D01*
X40316211Y-41805439D01*
X40256523Y-41796585D01*
X40197990Y-41781923D01*
X40141176Y-41761595D01*
X40086628Y-41735796D01*
X40034871Y-41704774D01*
X39986404Y-41668829D01*
X39941694Y-41628306D01*
X39901171Y-41583596D01*
X39865226Y-41535129D01*
X39834204Y-41483372D01*
X39808405Y-41428824D01*
X39788077Y-41372010D01*
X39773415Y-41313477D01*
X39764561Y-41253789D01*
X39761600Y-41193520D01*
X39761600Y-40086480D01*
X39764561Y-40026211D01*
X39773415Y-39966523D01*
X39788077Y-39907990D01*
X39808405Y-39851176D01*
X39834204Y-39796628D01*
X39865226Y-39744871D01*
X39901171Y-39696404D01*
X39941694Y-39651694D01*
X39986404Y-39611171D01*
X40034871Y-39575226D01*
X40086628Y-39544204D01*
X40141176Y-39518405D01*
X40197990Y-39498077D01*
X40256523Y-39483415D01*
X40316211Y-39474561D01*
X40376480Y-39471600D01*
X40903520Y-39471600D01*
X40963789Y-39474561D01*
G37*
G36*
X56203789Y-34394561D02*
G01*
X56263477Y-34403415D01*
X56322010Y-34418077D01*
X56378824Y-34438405D01*
X56433372Y-34464204D01*
X56485129Y-34495226D01*
X56533596Y-34531171D01*
X56578306Y-34571694D01*
X56618829Y-34616404D01*
X56654774Y-34664871D01*
X56685796Y-34716628D01*
X56711595Y-34771176D01*
X56731923Y-34827990D01*
X56746585Y-34886523D01*
X56755439Y-34946211D01*
X56758400Y-35006480D01*
X56758400Y-36113520D01*
X56755439Y-36173789D01*
X56746585Y-36233477D01*
X56731923Y-36292010D01*
X56711595Y-36348824D01*
X56685796Y-36403372D01*
X56654774Y-36455129D01*
X56618829Y-36503596D01*
X56578306Y-36548306D01*
X56533596Y-36588829D01*
X56485129Y-36624774D01*
X56433372Y-36655796D01*
X56378824Y-36681595D01*
X56322010Y-36701923D01*
X56263477Y-36716585D01*
X56203789Y-36725439D01*
X56143520Y-36728400D01*
X55616480Y-36728400D01*
X55556211Y-36725439D01*
X55496523Y-36716585D01*
X55437990Y-36701923D01*
X55381176Y-36681595D01*
X55326628Y-36655796D01*
X55274871Y-36624774D01*
X55226404Y-36588829D01*
X55181694Y-36548306D01*
X55141171Y-36503596D01*
X55105226Y-36455129D01*
X55074204Y-36403372D01*
X55048405Y-36348824D01*
X55028077Y-36292010D01*
X55013415Y-36233477D01*
X55004561Y-36173789D01*
X55001600Y-36113520D01*
X55001600Y-35006480D01*
X55004561Y-34946211D01*
X55013415Y-34886523D01*
X55028077Y-34827990D01*
X55048405Y-34771176D01*
X55074204Y-34716628D01*
X55105226Y-34664871D01*
X55141171Y-34616404D01*
X55181694Y-34571694D01*
X55226404Y-34531171D01*
X55274871Y-34495226D01*
X55326628Y-34464204D01*
X55381176Y-34438405D01*
X55437990Y-34418077D01*
X55496523Y-34403415D01*
X55556211Y-34394561D01*
X55616480Y-34391600D01*
X56143520Y-34391600D01*
X56203789Y-34394561D01*
G37*
G36*
X40963789Y-36934561D02*
G01*
X41023477Y-36943415D01*
X41082010Y-36958077D01*
X41138824Y-36978405D01*
X41193372Y-37004204D01*
X41245129Y-37035226D01*
X41293596Y-37071171D01*
X41338306Y-37111694D01*
X41378829Y-37156404D01*
X41414774Y-37204871D01*
X41445796Y-37256628D01*
X41471595Y-37311176D01*
X41491923Y-37367990D01*
X41506585Y-37426523D01*
X41515439Y-37486211D01*
X41518400Y-37546480D01*
X41518400Y-38653520D01*
X41515439Y-38713789D01*
X41506585Y-38773477D01*
X41491923Y-38832010D01*
X41471595Y-38888824D01*
X41445796Y-38943372D01*
X41414774Y-38995129D01*
X41378829Y-39043596D01*
X41338306Y-39088306D01*
X41293596Y-39128829D01*
X41245129Y-39164774D01*
X41193372Y-39195796D01*
X41138824Y-39221595D01*
X41082010Y-39241923D01*
X41023477Y-39256585D01*
X40963789Y-39265439D01*
X40903520Y-39268400D01*
X40376480Y-39268400D01*
X40316211Y-39265439D01*
X40256523Y-39256585D01*
X40197990Y-39241923D01*
X40141176Y-39221595D01*
X40086628Y-39195796D01*
X40034871Y-39164774D01*
X39986404Y-39128829D01*
X39941694Y-39088306D01*
X39901171Y-39043596D01*
X39865226Y-38995129D01*
X39834204Y-38943372D01*
X39808405Y-38888824D01*
X39788077Y-38832010D01*
X39773415Y-38773477D01*
X39764561Y-38713789D01*
X39761600Y-38653520D01*
X39761600Y-37546480D01*
X39764561Y-37486211D01*
X39773415Y-37426523D01*
X39788077Y-37367990D01*
X39808405Y-37311176D01*
X39834204Y-37256628D01*
X39865226Y-37204871D01*
X39901171Y-37156404D01*
X39941694Y-37111694D01*
X39986404Y-37071171D01*
X40034871Y-37035226D01*
X40086628Y-37004204D01*
X40141176Y-36978405D01*
X40197990Y-36958077D01*
X40256523Y-36943415D01*
X40316211Y-36934561D01*
X40376480Y-36931600D01*
X40903520Y-36931600D01*
X40963789Y-36934561D01*
G37*
G36*
X56203789Y-36934561D02*
G01*
X56263477Y-36943415D01*
X56322010Y-36958077D01*
X56378824Y-36978405D01*
X56433372Y-37004204D01*
X56485129Y-37035226D01*
X56533596Y-37071171D01*
X56578306Y-37111694D01*
X56618829Y-37156404D01*
X56654774Y-37204871D01*
X56685796Y-37256628D01*
X56711595Y-37311176D01*
X56731923Y-37367990D01*
X56746585Y-37426523D01*
X56755439Y-37486211D01*
X56758400Y-37546480D01*
X56758400Y-38653520D01*
X56755439Y-38713789D01*
X56746585Y-38773477D01*
X56731923Y-38832010D01*
X56711595Y-38888824D01*
X56685796Y-38943372D01*
X56654774Y-38995129D01*
X56618829Y-39043596D01*
X56578306Y-39088306D01*
X56533596Y-39128829D01*
X56485129Y-39164774D01*
X56433372Y-39195796D01*
X56378824Y-39221595D01*
X56322010Y-39241923D01*
X56263477Y-39256585D01*
X56203789Y-39265439D01*
X56143520Y-39268400D01*
X55616480Y-39268400D01*
X55556211Y-39265439D01*
X55496523Y-39256585D01*
X55437990Y-39241923D01*
X55381176Y-39221595D01*
X55326628Y-39195796D01*
X55274871Y-39164774D01*
X55226404Y-39128829D01*
X55181694Y-39088306D01*
X55141171Y-39043596D01*
X55105226Y-38995129D01*
X55074204Y-38943372D01*
X55048405Y-38888824D01*
X55028077Y-38832010D01*
X55013415Y-38773477D01*
X55004561Y-38713789D01*
X55001600Y-38653520D01*
X55001600Y-37546480D01*
X55004561Y-37486211D01*
X55013415Y-37426523D01*
X55028077Y-37367990D01*
X55048405Y-37311176D01*
X55074204Y-37256628D01*
X55105226Y-37204871D01*
X55141171Y-37156404D01*
X55181694Y-37111694D01*
X55226404Y-37071171D01*
X55274871Y-37035226D01*
X55326628Y-37004204D01*
X55381176Y-36978405D01*
X55437990Y-36958077D01*
X55496523Y-36943415D01*
X55556211Y-36934561D01*
X55616480Y-36931600D01*
X56143520Y-36931600D01*
X56203789Y-36934561D01*
G37*
G36*
X40963789Y-34394561D02*
G01*
X41023477Y-34403415D01*
X41082010Y-34418077D01*
X41138824Y-34438405D01*
X41193372Y-34464204D01*
X41245129Y-34495226D01*
X41293596Y-34531171D01*
X41338306Y-34571694D01*
X41378829Y-34616404D01*
X41414774Y-34664871D01*
X41445796Y-34716628D01*
X41471595Y-34771176D01*
X41491923Y-34827990D01*
X41506585Y-34886523D01*
X41515439Y-34946211D01*
X41518400Y-35006480D01*
X41518400Y-36113520D01*
X41515439Y-36173789D01*
X41506585Y-36233477D01*
X41491923Y-36292010D01*
X41471595Y-36348824D01*
X41445796Y-36403372D01*
X41414774Y-36455129D01*
X41378829Y-36503596D01*
X41338306Y-36548306D01*
X41293596Y-36588829D01*
X41245129Y-36624774D01*
X41193372Y-36655796D01*
X41138824Y-36681595D01*
X41082010Y-36701923D01*
X41023477Y-36716585D01*
X40963789Y-36725439D01*
X40903520Y-36728400D01*
X40376480Y-36728400D01*
X40316211Y-36725439D01*
X40256523Y-36716585D01*
X40197990Y-36701923D01*
X40141176Y-36681595D01*
X40086628Y-36655796D01*
X40034871Y-36624774D01*
X39986404Y-36588829D01*
X39941694Y-36548306D01*
X39901171Y-36503596D01*
X39865226Y-36455129D01*
X39834204Y-36403372D01*
X39808405Y-36348824D01*
X39788077Y-36292010D01*
X39773415Y-36233477D01*
X39764561Y-36173789D01*
X39761600Y-36113520D01*
X39761600Y-35006480D01*
X39764561Y-34946211D01*
X39773415Y-34886523D01*
X39788077Y-34827990D01*
X39808405Y-34771176D01*
X39834204Y-34716628D01*
X39865226Y-34664871D01*
X39901171Y-34616404D01*
X39941694Y-34571694D01*
X39986404Y-34531171D01*
X40034871Y-34495226D01*
X40086628Y-34464204D01*
X40141176Y-34438405D01*
X40197990Y-34418077D01*
X40256523Y-34403415D01*
X40316211Y-34394561D01*
X40376480Y-34391600D01*
X40903520Y-34391600D01*
X40963789Y-34394561D01*
G37*
G36*
X56203789Y-39474561D02*
G01*
X56263477Y-39483415D01*
X56322010Y-39498077D01*
X56378824Y-39518405D01*
X56433372Y-39544204D01*
X56485129Y-39575226D01*
X56533596Y-39611171D01*
X56578306Y-39651694D01*
X56618829Y-39696404D01*
X56654774Y-39744871D01*
X56685796Y-39796628D01*
X56711595Y-39851176D01*
X56731923Y-39907990D01*
X56746585Y-39966523D01*
X56755439Y-40026211D01*
X56758400Y-40086480D01*
X56758400Y-41193520D01*
X56755439Y-41253789D01*
X56746585Y-41313477D01*
X56731923Y-41372010D01*
X56711595Y-41428824D01*
X56685796Y-41483372D01*
X56654774Y-41535129D01*
X56618829Y-41583596D01*
X56578306Y-41628306D01*
X56533596Y-41668829D01*
X56485129Y-41704774D01*
X56433372Y-41735796D01*
X56378824Y-41761595D01*
X56322010Y-41781923D01*
X56263477Y-41796585D01*
X56203789Y-41805439D01*
X56143520Y-41808400D01*
X55616480Y-41808400D01*
X55556211Y-41805439D01*
X55496523Y-41796585D01*
X55437990Y-41781923D01*
X55381176Y-41761595D01*
X55326628Y-41735796D01*
X55274871Y-41704774D01*
X55226404Y-41668829D01*
X55181694Y-41628306D01*
X55141171Y-41583596D01*
X55105226Y-41535129D01*
X55074204Y-41483372D01*
X55048405Y-41428824D01*
X55028077Y-41372010D01*
X55013415Y-41313477D01*
X55004561Y-41253789D01*
X55001600Y-41193520D01*
X55001600Y-40086480D01*
X55004561Y-40026211D01*
X55013415Y-39966523D01*
X55028077Y-39907990D01*
X55048405Y-39851176D01*
X55074204Y-39796628D01*
X55105226Y-39744871D01*
X55141171Y-39696404D01*
X55181694Y-39651694D01*
X55226404Y-39611171D01*
X55274871Y-39575226D01*
X55326628Y-39544204D01*
X55381176Y-39518405D01*
X55437990Y-39498077D01*
X55496523Y-39483415D01*
X55556211Y-39474561D01*
X55616480Y-39471600D01*
X56143520Y-39471600D01*
X56203789Y-39474561D01*
G37*
G36*
X40963789Y-31854561D02*
G01*
X41023477Y-31863415D01*
X41082010Y-31878077D01*
X41138824Y-31898405D01*
X41193372Y-31924204D01*
X41245129Y-31955226D01*
X41293596Y-31991171D01*
X41338306Y-32031694D01*
X41378829Y-32076404D01*
X41414774Y-32124871D01*
X41445796Y-32176628D01*
X41471595Y-32231176D01*
X41491923Y-32287990D01*
X41506585Y-32346523D01*
X41515439Y-32406211D01*
X41518400Y-32466480D01*
X41518400Y-33573520D01*
X41515439Y-33633789D01*
X41506585Y-33693477D01*
X41491923Y-33752010D01*
X41471595Y-33808824D01*
X41445796Y-33863372D01*
X41414774Y-33915129D01*
X41378829Y-33963596D01*
X41338306Y-34008306D01*
X41293596Y-34048829D01*
X41245129Y-34084774D01*
X41193372Y-34115796D01*
X41138824Y-34141595D01*
X41082010Y-34161923D01*
X41023477Y-34176585D01*
X40963789Y-34185439D01*
X40903520Y-34188400D01*
X40376480Y-34188400D01*
X40316211Y-34185439D01*
X40256523Y-34176585D01*
X40197990Y-34161923D01*
X40141176Y-34141595D01*
X40086628Y-34115796D01*
X40034871Y-34084774D01*
X39986404Y-34048829D01*
X39941694Y-34008306D01*
X39901171Y-33963596D01*
X39865226Y-33915129D01*
X39834204Y-33863372D01*
X39808405Y-33808824D01*
X39788077Y-33752010D01*
X39773415Y-33693477D01*
X39764561Y-33633789D01*
X39761600Y-33573520D01*
X39761600Y-32466480D01*
X39764561Y-32406211D01*
X39773415Y-32346523D01*
X39788077Y-32287990D01*
X39808405Y-32231176D01*
X39834204Y-32176628D01*
X39865226Y-32124871D01*
X39901171Y-32076404D01*
X39941694Y-32031694D01*
X39986404Y-31991171D01*
X40034871Y-31955226D01*
X40086628Y-31924204D01*
X40141176Y-31898405D01*
X40197990Y-31878077D01*
X40256523Y-31863415D01*
X40316211Y-31854561D01*
X40376480Y-31851600D01*
X40903520Y-31851600D01*
X40963789Y-31854561D01*
G37*
G36*
X56203789Y-42014561D02*
G01*
X56263477Y-42023415D01*
X56322010Y-42038077D01*
X56378824Y-42058405D01*
X56433372Y-42084204D01*
X56485129Y-42115226D01*
X56533596Y-42151171D01*
X56578306Y-42191694D01*
X56618829Y-42236404D01*
X56654774Y-42284871D01*
X56685796Y-42336628D01*
X56711595Y-42391176D01*
X56731923Y-42447990D01*
X56746585Y-42506523D01*
X56755439Y-42566211D01*
X56758400Y-42626480D01*
X56758400Y-43733520D01*
X56755439Y-43793789D01*
X56746585Y-43853477D01*
X56731923Y-43912010D01*
X56711595Y-43968824D01*
X56685796Y-44023372D01*
X56654774Y-44075129D01*
X56618829Y-44123596D01*
X56578306Y-44168306D01*
X56533596Y-44208829D01*
X56485129Y-44244774D01*
X56433372Y-44275796D01*
X56378824Y-44301595D01*
X56322010Y-44321923D01*
X56263477Y-44336585D01*
X56203789Y-44345439D01*
X56143520Y-44348400D01*
X55616480Y-44348400D01*
X55556211Y-44345439D01*
X55496523Y-44336585D01*
X55437990Y-44321923D01*
X55381176Y-44301595D01*
X55326628Y-44275796D01*
X55274871Y-44244774D01*
X55226404Y-44208829D01*
X55181694Y-44168306D01*
X55141171Y-44123596D01*
X55105226Y-44075129D01*
X55074204Y-44023372D01*
X55048405Y-43968824D01*
X55028077Y-43912010D01*
X55013415Y-43853477D01*
X55004561Y-43793789D01*
X55001600Y-43733520D01*
X55001600Y-42626480D01*
X55004561Y-42566211D01*
X55013415Y-42506523D01*
X55028077Y-42447990D01*
X55048405Y-42391176D01*
X55074204Y-42336628D01*
X55105226Y-42284871D01*
X55141171Y-42236404D01*
X55181694Y-42191694D01*
X55226404Y-42151171D01*
X55274871Y-42115226D01*
X55326628Y-42084204D01*
X55381176Y-42058405D01*
X55437990Y-42038077D01*
X55496523Y-42023415D01*
X55556211Y-42014561D01*
X55616480Y-42011600D01*
X56143520Y-42011600D01*
X56203789Y-42014561D01*
G37*
G36*
X40963789Y-29314561D02*
G01*
X41023477Y-29323415D01*
X41082010Y-29338077D01*
X41138824Y-29358405D01*
X41193372Y-29384204D01*
X41245129Y-29415226D01*
X41293596Y-29451171D01*
X41338306Y-29491694D01*
X41378829Y-29536404D01*
X41414774Y-29584871D01*
X41445796Y-29636628D01*
X41471595Y-29691176D01*
X41491923Y-29747990D01*
X41506585Y-29806523D01*
X41515439Y-29866211D01*
X41518400Y-29926480D01*
X41518400Y-31033520D01*
X41515439Y-31093789D01*
X41506585Y-31153477D01*
X41491923Y-31212010D01*
X41471595Y-31268824D01*
X41445796Y-31323372D01*
X41414774Y-31375129D01*
X41378829Y-31423596D01*
X41338306Y-31468306D01*
X41293596Y-31508829D01*
X41245129Y-31544774D01*
X41193372Y-31575796D01*
X41138824Y-31601595D01*
X41082010Y-31621923D01*
X41023477Y-31636585D01*
X40963789Y-31645439D01*
X40903520Y-31648400D01*
X40376480Y-31648400D01*
X40316211Y-31645439D01*
X40256523Y-31636585D01*
X40197990Y-31621923D01*
X40141176Y-31601595D01*
X40086628Y-31575796D01*
X40034871Y-31544774D01*
X39986404Y-31508829D01*
X39941694Y-31468306D01*
X39901171Y-31423596D01*
X39865226Y-31375129D01*
X39834204Y-31323372D01*
X39808405Y-31268824D01*
X39788077Y-31212010D01*
X39773415Y-31153477D01*
X39764561Y-31093789D01*
X39761600Y-31033520D01*
X39761600Y-29926480D01*
X39764561Y-29866211D01*
X39773415Y-29806523D01*
X39788077Y-29747990D01*
X39808405Y-29691176D01*
X39834204Y-29636628D01*
X39865226Y-29584871D01*
X39901171Y-29536404D01*
X39941694Y-29491694D01*
X39986404Y-29451171D01*
X40034871Y-29415226D01*
X40086628Y-29384204D01*
X40141176Y-29358405D01*
X40197990Y-29338077D01*
X40256523Y-29323415D01*
X40316211Y-29314561D01*
X40376480Y-29311600D01*
X40903520Y-29311600D01*
X40963789Y-29314561D01*
G37*
G36*
X56203789Y-44554561D02*
G01*
X56263477Y-44563415D01*
X56322010Y-44578077D01*
X56378824Y-44598405D01*
X56433372Y-44624204D01*
X56485129Y-44655226D01*
X56533596Y-44691171D01*
X56578306Y-44731694D01*
X56618829Y-44776404D01*
X56654774Y-44824871D01*
X56685796Y-44876628D01*
X56711595Y-44931176D01*
X56731923Y-44987990D01*
X56746585Y-45046523D01*
X56755439Y-45106211D01*
X56758400Y-45166480D01*
X56758400Y-46273520D01*
X56755439Y-46333789D01*
X56746585Y-46393477D01*
X56731923Y-46452010D01*
X56711595Y-46508824D01*
X56685796Y-46563372D01*
X56654774Y-46615129D01*
X56618829Y-46663596D01*
X56578306Y-46708306D01*
X56533596Y-46748829D01*
X56485129Y-46784774D01*
X56433372Y-46815796D01*
X56378824Y-46841595D01*
X56322010Y-46861923D01*
X56263477Y-46876585D01*
X56203789Y-46885439D01*
X56143520Y-46888400D01*
X55616480Y-46888400D01*
X55556211Y-46885439D01*
X55496523Y-46876585D01*
X55437990Y-46861923D01*
X55381176Y-46841595D01*
X55326628Y-46815796D01*
X55274871Y-46784774D01*
X55226404Y-46748829D01*
X55181694Y-46708306D01*
X55141171Y-46663596D01*
X55105226Y-46615129D01*
X55074204Y-46563372D01*
X55048405Y-46508824D01*
X55028077Y-46452010D01*
X55013415Y-46393477D01*
X55004561Y-46333789D01*
X55001600Y-46273520D01*
X55001600Y-45166480D01*
X55004561Y-45106211D01*
X55013415Y-45046523D01*
X55028077Y-44987990D01*
X55048405Y-44931176D01*
X55074204Y-44876628D01*
X55105226Y-44824871D01*
X55141171Y-44776404D01*
X55181694Y-44731694D01*
X55226404Y-44691171D01*
X55274871Y-44655226D01*
X55326628Y-44624204D01*
X55381176Y-44598405D01*
X55437990Y-44578077D01*
X55496523Y-44563415D01*
X55556211Y-44554561D01*
X55616480Y-44551600D01*
X56143520Y-44551600D01*
X56203789Y-44554561D01*
G37*
G36*
X40963789Y-26774561D02*
G01*
X41023477Y-26783415D01*
X41082010Y-26798077D01*
X41138824Y-26818405D01*
X41193372Y-26844204D01*
X41245129Y-26875226D01*
X41293596Y-26911171D01*
X41338306Y-26951694D01*
X41378829Y-26996404D01*
X41414774Y-27044871D01*
X41445796Y-27096628D01*
X41471595Y-27151176D01*
X41491923Y-27207990D01*
X41506585Y-27266523D01*
X41515439Y-27326211D01*
X41518400Y-27386480D01*
X41518400Y-28493520D01*
X41515439Y-28553789D01*
X41506585Y-28613477D01*
X41491923Y-28672010D01*
X41471595Y-28728824D01*
X41445796Y-28783372D01*
X41414774Y-28835129D01*
X41378829Y-28883596D01*
X41338306Y-28928306D01*
X41293596Y-28968829D01*
X41245129Y-29004774D01*
X41193372Y-29035796D01*
X41138824Y-29061595D01*
X41082010Y-29081923D01*
X41023477Y-29096585D01*
X40963789Y-29105439D01*
X40903520Y-29108400D01*
X40376480Y-29108400D01*
X40316211Y-29105439D01*
X40256523Y-29096585D01*
X40197990Y-29081923D01*
X40141176Y-29061595D01*
X40086628Y-29035796D01*
X40034871Y-29004774D01*
X39986404Y-28968829D01*
X39941694Y-28928306D01*
X39901171Y-28883596D01*
X39865226Y-28835129D01*
X39834204Y-28783372D01*
X39808405Y-28728824D01*
X39788077Y-28672010D01*
X39773415Y-28613477D01*
X39764561Y-28553789D01*
X39761600Y-28493520D01*
X39761600Y-27386480D01*
X39764561Y-27326211D01*
X39773415Y-27266523D01*
X39788077Y-27207990D01*
X39808405Y-27151176D01*
X39834204Y-27096628D01*
X39865226Y-27044871D01*
X39901171Y-26996404D01*
X39941694Y-26951694D01*
X39986404Y-26911171D01*
X40034871Y-26875226D01*
X40086628Y-26844204D01*
X40141176Y-26818405D01*
X40197990Y-26798077D01*
X40256523Y-26783415D01*
X40316211Y-26774561D01*
X40376480Y-26771600D01*
X40903520Y-26771600D01*
X40963789Y-26774561D01*
G37*
G36*
X56203789Y-47094561D02*
G01*
X56263477Y-47103415D01*
X56322010Y-47118077D01*
X56378824Y-47138405D01*
X56433372Y-47164204D01*
X56485129Y-47195226D01*
X56533596Y-47231171D01*
X56578306Y-47271694D01*
X56618829Y-47316404D01*
X56654774Y-47364871D01*
X56685796Y-47416628D01*
X56711595Y-47471176D01*
X56731923Y-47527990D01*
X56746585Y-47586523D01*
X56755439Y-47646211D01*
X56758400Y-47706480D01*
X56758400Y-48813520D01*
X56755439Y-48873789D01*
X56746585Y-48933477D01*
X56731923Y-48992010D01*
X56711595Y-49048824D01*
X56685796Y-49103372D01*
X56654774Y-49155129D01*
X56618829Y-49203596D01*
X56578306Y-49248306D01*
X56533596Y-49288829D01*
X56485129Y-49324774D01*
X56433372Y-49355796D01*
X56378824Y-49381595D01*
X56322010Y-49401923D01*
X56263477Y-49416585D01*
X56203789Y-49425439D01*
X56143520Y-49428400D01*
X55616480Y-49428400D01*
X55556211Y-49425439D01*
X55496523Y-49416585D01*
X55437990Y-49401923D01*
X55381176Y-49381595D01*
X55326628Y-49355796D01*
X55274871Y-49324774D01*
X55226404Y-49288829D01*
X55181694Y-49248306D01*
X55141171Y-49203596D01*
X55105226Y-49155129D01*
X55074204Y-49103372D01*
X55048405Y-49048824D01*
X55028077Y-48992010D01*
X55013415Y-48933477D01*
X55004561Y-48873789D01*
X55001600Y-48813520D01*
X55001600Y-47706480D01*
X55004561Y-47646211D01*
X55013415Y-47586523D01*
X55028077Y-47527990D01*
X55048405Y-47471176D01*
X55074204Y-47416628D01*
X55105226Y-47364871D01*
X55141171Y-47316404D01*
X55181694Y-47271694D01*
X55226404Y-47231171D01*
X55274871Y-47195226D01*
X55326628Y-47164204D01*
X55381176Y-47138405D01*
X55437990Y-47118077D01*
X55496523Y-47103415D01*
X55556211Y-47094561D01*
X55616480Y-47091600D01*
X56143520Y-47091600D01*
X56203789Y-47094561D01*
G37*
G36*
X40963789Y-24234561D02*
G01*
X41023477Y-24243415D01*
X41082010Y-24258077D01*
X41138824Y-24278405D01*
X41193372Y-24304204D01*
X41245129Y-24335226D01*
X41293596Y-24371171D01*
X41338306Y-24411694D01*
X41378829Y-24456404D01*
X41414774Y-24504871D01*
X41445796Y-24556628D01*
X41471595Y-24611176D01*
X41491923Y-24667990D01*
X41506585Y-24726523D01*
X41515439Y-24786211D01*
X41518400Y-24846480D01*
X41518400Y-25953520D01*
X41515439Y-26013789D01*
X41506585Y-26073477D01*
X41491923Y-26132010D01*
X41471595Y-26188824D01*
X41445796Y-26243372D01*
X41414774Y-26295129D01*
X41378829Y-26343596D01*
X41338306Y-26388306D01*
X41293596Y-26428829D01*
X41245129Y-26464774D01*
X41193372Y-26495796D01*
X41138824Y-26521595D01*
X41082010Y-26541923D01*
X41023477Y-26556585D01*
X40963789Y-26565439D01*
X40903520Y-26568400D01*
X40376480Y-26568400D01*
X40316211Y-26565439D01*
X40256523Y-26556585D01*
X40197990Y-26541923D01*
X40141176Y-26521595D01*
X40086628Y-26495796D01*
X40034871Y-26464774D01*
X39986404Y-26428829D01*
X39941694Y-26388306D01*
X39901171Y-26343596D01*
X39865226Y-26295129D01*
X39834204Y-26243372D01*
X39808405Y-26188824D01*
X39788077Y-26132010D01*
X39773415Y-26073477D01*
X39764561Y-26013789D01*
X39761600Y-25953520D01*
X39761600Y-24846480D01*
X39764561Y-24786211D01*
X39773415Y-24726523D01*
X39788077Y-24667990D01*
X39808405Y-24611176D01*
X39834204Y-24556628D01*
X39865226Y-24504871D01*
X39901171Y-24456404D01*
X39941694Y-24411694D01*
X39986404Y-24371171D01*
X40034871Y-24335226D01*
X40086628Y-24304204D01*
X40141176Y-24278405D01*
X40197990Y-24258077D01*
X40256523Y-24243415D01*
X40316211Y-24234561D01*
X40376480Y-24231600D01*
X40903520Y-24231600D01*
X40963789Y-24234561D01*
G37*
G36*
X56203789Y-49634561D02*
G01*
X56263477Y-49643415D01*
X56322010Y-49658077D01*
X56378824Y-49678405D01*
X56433372Y-49704204D01*
X56485129Y-49735226D01*
X56533596Y-49771171D01*
X56578306Y-49811694D01*
X56618829Y-49856404D01*
X56654774Y-49904871D01*
X56685796Y-49956628D01*
X56711595Y-50011176D01*
X56731923Y-50067990D01*
X56746585Y-50126523D01*
X56755439Y-50186211D01*
X56758400Y-50246480D01*
X56758400Y-51353520D01*
X56755439Y-51413789D01*
X56746585Y-51473477D01*
X56731923Y-51532010D01*
X56711595Y-51588824D01*
X56685796Y-51643372D01*
X56654774Y-51695129D01*
X56618829Y-51743596D01*
X56578306Y-51788306D01*
X56533596Y-51828829D01*
X56485129Y-51864774D01*
X56433372Y-51895796D01*
X56378824Y-51921595D01*
X56322010Y-51941923D01*
X56263477Y-51956585D01*
X56203789Y-51965439D01*
X56143520Y-51968400D01*
X55616480Y-51968400D01*
X55556211Y-51965439D01*
X55496523Y-51956585D01*
X55437990Y-51941923D01*
X55381176Y-51921595D01*
X55326628Y-51895796D01*
X55274871Y-51864774D01*
X55226404Y-51828829D01*
X55181694Y-51788306D01*
X55141171Y-51743596D01*
X55105226Y-51695129D01*
X55074204Y-51643372D01*
X55048405Y-51588824D01*
X55028077Y-51532010D01*
X55013415Y-51473477D01*
X55004561Y-51413789D01*
X55001600Y-51353520D01*
X55001600Y-50246480D01*
X55004561Y-50186211D01*
X55013415Y-50126523D01*
X55028077Y-50067990D01*
X55048405Y-50011176D01*
X55074204Y-49956628D01*
X55105226Y-49904871D01*
X55141171Y-49856404D01*
X55181694Y-49811694D01*
X55226404Y-49771171D01*
X55274871Y-49735226D01*
X55326628Y-49704204D01*
X55381176Y-49678405D01*
X55437990Y-49658077D01*
X55496523Y-49643415D01*
X55556211Y-49634561D01*
X55616480Y-49631600D01*
X56143520Y-49631600D01*
X56203789Y-49634561D01*
G37*
G36*
X40963789Y-21694561D02*
G01*
X41023477Y-21703415D01*
X41082010Y-21718077D01*
X41138824Y-21738405D01*
X41193372Y-21764204D01*
X41245129Y-21795226D01*
X41293596Y-21831171D01*
X41338306Y-21871694D01*
X41378829Y-21916404D01*
X41414774Y-21964871D01*
X41445796Y-22016628D01*
X41471595Y-22071176D01*
X41491923Y-22127990D01*
X41506585Y-22186523D01*
X41515439Y-22246211D01*
X41518400Y-22306480D01*
X41518400Y-23413520D01*
X41515439Y-23473789D01*
X41506585Y-23533477D01*
X41491923Y-23592010D01*
X41471595Y-23648824D01*
X41445796Y-23703372D01*
X41414774Y-23755129D01*
X41378829Y-23803596D01*
X41338306Y-23848306D01*
X41293596Y-23888829D01*
X41245129Y-23924774D01*
X41193372Y-23955796D01*
X41138824Y-23981595D01*
X41082010Y-24001923D01*
X41023477Y-24016585D01*
X40963789Y-24025439D01*
X40903520Y-24028400D01*
X40376480Y-24028400D01*
X40316211Y-24025439D01*
X40256523Y-24016585D01*
X40197990Y-24001923D01*
X40141176Y-23981595D01*
X40086628Y-23955796D01*
X40034871Y-23924774D01*
X39986404Y-23888829D01*
X39941694Y-23848306D01*
X39901171Y-23803596D01*
X39865226Y-23755129D01*
X39834204Y-23703372D01*
X39808405Y-23648824D01*
X39788077Y-23592010D01*
X39773415Y-23533477D01*
X39764561Y-23473789D01*
X39761600Y-23413520D01*
X39761600Y-22306480D01*
X39764561Y-22246211D01*
X39773415Y-22186523D01*
X39788077Y-22127990D01*
X39808405Y-22071176D01*
X39834204Y-22016628D01*
X39865226Y-21964871D01*
X39901171Y-21916404D01*
X39941694Y-21871694D01*
X39986404Y-21831171D01*
X40034871Y-21795226D01*
X40086628Y-21764204D01*
X40141176Y-21738405D01*
X40197990Y-21718077D01*
X40256523Y-21703415D01*
X40316211Y-21694561D01*
X40376480Y-21691600D01*
X40903520Y-21691600D01*
X40963789Y-21694561D01*
G37*
G36*
X56140650Y-52174898D02*
G01*
X56207133Y-52184760D01*
X56272330Y-52201091D01*
X56335612Y-52223733D01*
X56396370Y-52252470D01*
X56454019Y-52287023D01*
X56508003Y-52327061D01*
X56557803Y-52372197D01*
X56602939Y-52421997D01*
X56642977Y-52475981D01*
X56677530Y-52533630D01*
X56706267Y-52594388D01*
X56728909Y-52657670D01*
X56745240Y-52722867D01*
X56755102Y-52789350D01*
X56758400Y-52856480D01*
X56758400Y-53823520D01*
X56755102Y-53890650D01*
X56745240Y-53957133D01*
X56728909Y-54022330D01*
X56706267Y-54085612D01*
X56677530Y-54146370D01*
X56642977Y-54204019D01*
X56602939Y-54258003D01*
X56557803Y-54307803D01*
X56508003Y-54352939D01*
X56454019Y-54392977D01*
X56396370Y-54427530D01*
X56335612Y-54456267D01*
X56272330Y-54478909D01*
X56207133Y-54495240D01*
X56140650Y-54505102D01*
X56073520Y-54508400D01*
X55486480Y-54508400D01*
X55419350Y-54505102D01*
X55352867Y-54495240D01*
X55287670Y-54478909D01*
X55224388Y-54456267D01*
X55163630Y-54427530D01*
X55105981Y-54392977D01*
X55051997Y-54352939D01*
X55002197Y-54307803D01*
X54957061Y-54258003D01*
X54917023Y-54204019D01*
X54882470Y-54146370D01*
X54853733Y-54085612D01*
X54831091Y-54022330D01*
X54814760Y-53957133D01*
X54804898Y-53890650D01*
X54801600Y-53823520D01*
X54801600Y-52856480D01*
X54804898Y-52789350D01*
X54814760Y-52722867D01*
X54831091Y-52657670D01*
X54853733Y-52594388D01*
X54882470Y-52533630D01*
X54917023Y-52475981D01*
X54957061Y-52421997D01*
X55002197Y-52372197D01*
X55051997Y-52327061D01*
X55105981Y-52287023D01*
X55163630Y-52252470D01*
X55224388Y-52223733D01*
X55287670Y-52201091D01*
X55352867Y-52184760D01*
X55419350Y-52174898D01*
X55486480Y-52171600D01*
X56073520Y-52171600D01*
X56140650Y-52174898D01*
G37*
G36*
X41100650Y-19154898D02*
G01*
X41167133Y-19164760D01*
X41232330Y-19181091D01*
X41295612Y-19203733D01*
X41356370Y-19232470D01*
X41414019Y-19267023D01*
X41468003Y-19307061D01*
X41517803Y-19352197D01*
X41562939Y-19401997D01*
X41602977Y-19455981D01*
X41637530Y-19513630D01*
X41666267Y-19574388D01*
X41688909Y-19637670D01*
X41705240Y-19702867D01*
X41715102Y-19769350D01*
X41718400Y-19836480D01*
X41718400Y-20803520D01*
X41715102Y-20870650D01*
X41705240Y-20937133D01*
X41688909Y-21002330D01*
X41666267Y-21065612D01*
X41637530Y-21126370D01*
X41602977Y-21184019D01*
X41562939Y-21238003D01*
X41517803Y-21287803D01*
X41468003Y-21332939D01*
X41414019Y-21372977D01*
X41356370Y-21407530D01*
X41295612Y-21436267D01*
X41232330Y-21458909D01*
X41167133Y-21475240D01*
X41100650Y-21485102D01*
X41033520Y-21488400D01*
X40446480Y-21488400D01*
X40379350Y-21485102D01*
X40312867Y-21475240D01*
X40247670Y-21458909D01*
X40184388Y-21436267D01*
X40123630Y-21407530D01*
X40065981Y-21372977D01*
X40011997Y-21332939D01*
X39962197Y-21287803D01*
X39917061Y-21238003D01*
X39877023Y-21184019D01*
X39842470Y-21126370D01*
X39813733Y-21065612D01*
X39791091Y-21002330D01*
X39774760Y-20937133D01*
X39764898Y-20870650D01*
X39761600Y-20803520D01*
X39761600Y-19836480D01*
X39764898Y-19769350D01*
X39774760Y-19702867D01*
X39791091Y-19637670D01*
X39813733Y-19574388D01*
X39842470Y-19513630D01*
X39877023Y-19455981D01*
X39917061Y-19401997D01*
X39962197Y-19352197D01*
X40011997Y-19307061D01*
X40065981Y-19267023D01*
X40123630Y-19232470D01*
X40184388Y-19203733D01*
X40247670Y-19181091D01*
X40312867Y-19164760D01*
X40379350Y-19154898D01*
X40446480Y-19151600D01*
X41033520Y-19151600D01*
X41100650Y-19154898D01*
G37*
G36*
X49736537Y-29179706D02*
G01*
X49754796Y-29182414D01*
X49772703Y-29186900D01*
X49790083Y-29193118D01*
X49806770Y-29201011D01*
X49822603Y-29210501D01*
X49837429Y-29221497D01*
X49851107Y-29233893D01*
X49863503Y-29247571D01*
X49874499Y-29262397D01*
X49883989Y-29278230D01*
X49891882Y-29294917D01*
X49898100Y-29312297D01*
X49902586Y-29330204D01*
X49905294Y-29348463D01*
X49906200Y-29366900D01*
X49906200Y-30618100D01*
X49905294Y-30636537D01*
X49902586Y-30654796D01*
X49898100Y-30672703D01*
X49891882Y-30690083D01*
X49883989Y-30706770D01*
X49874499Y-30722603D01*
X49863503Y-30737429D01*
X49851107Y-30751107D01*
X49837429Y-30763503D01*
X49822603Y-30774499D01*
X49806770Y-30783989D01*
X49790083Y-30791882D01*
X49772703Y-30798100D01*
X49754796Y-30802586D01*
X49736537Y-30805294D01*
X49718100Y-30806200D01*
X49341900Y-30806200D01*
X49323463Y-30805294D01*
X49305204Y-30802586D01*
X49287297Y-30798100D01*
X49269917Y-30791882D01*
X49253230Y-30783989D01*
X49237397Y-30774499D01*
X49222571Y-30763503D01*
X49208893Y-30751107D01*
X49196497Y-30737429D01*
X49185501Y-30722603D01*
X49176011Y-30706770D01*
X49168118Y-30690083D01*
X49161900Y-30672703D01*
X49157414Y-30654796D01*
X49154706Y-30636537D01*
X49153800Y-30618100D01*
X49153800Y-29366900D01*
X49154706Y-29348463D01*
X49157414Y-29330204D01*
X49161900Y-29312297D01*
X49168118Y-29294917D01*
X49176011Y-29278230D01*
X49185501Y-29262397D01*
X49196497Y-29247571D01*
X49208893Y-29233893D01*
X49222571Y-29221497D01*
X49237397Y-29210501D01*
X49253230Y-29201011D01*
X49269917Y-29193118D01*
X49287297Y-29186900D01*
X49305204Y-29182414D01*
X49323463Y-29179706D01*
X49341900Y-29178800D01*
X49718100Y-29178800D01*
X49736537Y-29179706D01*
G37*
G36*
X51006537Y-29179706D02*
G01*
X51024796Y-29182414D01*
X51042703Y-29186900D01*
X51060083Y-29193118D01*
X51076770Y-29201011D01*
X51092603Y-29210501D01*
X51107429Y-29221497D01*
X51121107Y-29233893D01*
X51133503Y-29247571D01*
X51144499Y-29262397D01*
X51153989Y-29278230D01*
X51161882Y-29294917D01*
X51168100Y-29312297D01*
X51172586Y-29330204D01*
X51175294Y-29348463D01*
X51176200Y-29366900D01*
X51176200Y-30618100D01*
X51175294Y-30636537D01*
X51172586Y-30654796D01*
X51168100Y-30672703D01*
X51161882Y-30690083D01*
X51153989Y-30706770D01*
X51144499Y-30722603D01*
X51133503Y-30737429D01*
X51121107Y-30751107D01*
X51107429Y-30763503D01*
X51092603Y-30774499D01*
X51076770Y-30783989D01*
X51060083Y-30791882D01*
X51042703Y-30798100D01*
X51024796Y-30802586D01*
X51006537Y-30805294D01*
X50988100Y-30806200D01*
X50611900Y-30806200D01*
X50593463Y-30805294D01*
X50575204Y-30802586D01*
X50557297Y-30798100D01*
X50539917Y-30791882D01*
X50523230Y-30783989D01*
X50507397Y-30774499D01*
X50492571Y-30763503D01*
X50478893Y-30751107D01*
X50466497Y-30737429D01*
X50455501Y-30722603D01*
X50446011Y-30706770D01*
X50438118Y-30690083D01*
X50431900Y-30672703D01*
X50427414Y-30654796D01*
X50424706Y-30636537D01*
X50423800Y-30618100D01*
X50423800Y-29366900D01*
X50424706Y-29348463D01*
X50427414Y-29330204D01*
X50431900Y-29312297D01*
X50438118Y-29294917D01*
X50446011Y-29278230D01*
X50455501Y-29262397D01*
X50466497Y-29247571D01*
X50478893Y-29233893D01*
X50492571Y-29221497D01*
X50507397Y-29210501D01*
X50523230Y-29201011D01*
X50539917Y-29193118D01*
X50557297Y-29186900D01*
X50575204Y-29182414D01*
X50593463Y-29179706D01*
X50611900Y-29178800D01*
X50988100Y-29178800D01*
X51006537Y-29179706D01*
G37*
G36*
X52276537Y-29179706D02*
G01*
X52294796Y-29182414D01*
X52312703Y-29186900D01*
X52330083Y-29193118D01*
X52346770Y-29201011D01*
X52362603Y-29210501D01*
X52377429Y-29221497D01*
X52391107Y-29233893D01*
X52403503Y-29247571D01*
X52414499Y-29262397D01*
X52423989Y-29278230D01*
X52431882Y-29294917D01*
X52438100Y-29312297D01*
X52442586Y-29330204D01*
X52445294Y-29348463D01*
X52446200Y-29366900D01*
X52446200Y-30618100D01*
X52445294Y-30636537D01*
X52442586Y-30654796D01*
X52438100Y-30672703D01*
X52431882Y-30690083D01*
X52423989Y-30706770D01*
X52414499Y-30722603D01*
X52403503Y-30737429D01*
X52391107Y-30751107D01*
X52377429Y-30763503D01*
X52362603Y-30774499D01*
X52346770Y-30783989D01*
X52330083Y-30791882D01*
X52312703Y-30798100D01*
X52294796Y-30802586D01*
X52276537Y-30805294D01*
X52258100Y-30806200D01*
X51881900Y-30806200D01*
X51863463Y-30805294D01*
X51845204Y-30802586D01*
X51827297Y-30798100D01*
X51809917Y-30791882D01*
X51793230Y-30783989D01*
X51777397Y-30774499D01*
X51762571Y-30763503D01*
X51748893Y-30751107D01*
X51736497Y-30737429D01*
X51725501Y-30722603D01*
X51716011Y-30706770D01*
X51708118Y-30690083D01*
X51701900Y-30672703D01*
X51697414Y-30654796D01*
X51694706Y-30636537D01*
X51693800Y-30618100D01*
X51693800Y-29366900D01*
X51694706Y-29348463D01*
X51697414Y-29330204D01*
X51701900Y-29312297D01*
X51708118Y-29294917D01*
X51716011Y-29278230D01*
X51725501Y-29262397D01*
X51736497Y-29247571D01*
X51748893Y-29233893D01*
X51762571Y-29221497D01*
X51777397Y-29210501D01*
X51793230Y-29201011D01*
X51809917Y-29193118D01*
X51827297Y-29186900D01*
X51845204Y-29182414D01*
X51863463Y-29179706D01*
X51881900Y-29178800D01*
X52258100Y-29178800D01*
X52276537Y-29179706D01*
G37*
G36*
X54466537Y-31374706D02*
G01*
X54484796Y-31377414D01*
X54502703Y-31381900D01*
X54520083Y-31388118D01*
X54536770Y-31396011D01*
X54552603Y-31405501D01*
X54567429Y-31416497D01*
X54581107Y-31428893D01*
X54593503Y-31442571D01*
X54604499Y-31457397D01*
X54613989Y-31473230D01*
X54621882Y-31489917D01*
X54628100Y-31507297D01*
X54632586Y-31525204D01*
X54635294Y-31543463D01*
X54636200Y-31561900D01*
X54636200Y-31938100D01*
X54635294Y-31956537D01*
X54632586Y-31974796D01*
X54628100Y-31992703D01*
X54621882Y-32010083D01*
X54613989Y-32026770D01*
X54604499Y-32042603D01*
X54593503Y-32057429D01*
X54581107Y-32071107D01*
X54567429Y-32083503D01*
X54552603Y-32094499D01*
X54536770Y-32103989D01*
X54520083Y-32111882D01*
X54502703Y-32118100D01*
X54484796Y-32122586D01*
X54466537Y-32125294D01*
X54448100Y-32126200D01*
X53196900Y-32126200D01*
X53178463Y-32125294D01*
X53160204Y-32122586D01*
X53142297Y-32118100D01*
X53124917Y-32111882D01*
X53108230Y-32103989D01*
X53092397Y-32094499D01*
X53077571Y-32083503D01*
X53063893Y-32071107D01*
X53051497Y-32057429D01*
X53040501Y-32042603D01*
X53031011Y-32026770D01*
X53023118Y-32010083D01*
X53016900Y-31992703D01*
X53012414Y-31974796D01*
X53009706Y-31956537D01*
X53008800Y-31938100D01*
X53008800Y-31561900D01*
X53009706Y-31543463D01*
X53012414Y-31525204D01*
X53016900Y-31507297D01*
X53023118Y-31489917D01*
X53031011Y-31473230D01*
X53040501Y-31457397D01*
X53051497Y-31442571D01*
X53063893Y-31428893D01*
X53077571Y-31416497D01*
X53092397Y-31405501D01*
X53108230Y-31396011D01*
X53124917Y-31388118D01*
X53142297Y-31381900D01*
X53160204Y-31377414D01*
X53178463Y-31374706D01*
X53196900Y-31373800D01*
X54448100Y-31373800D01*
X54466537Y-31374706D01*
G37*
G36*
X54466537Y-32644706D02*
G01*
X54484796Y-32647414D01*
X54502703Y-32651900D01*
X54520083Y-32658118D01*
X54536770Y-32666011D01*
X54552603Y-32675501D01*
X54567429Y-32686497D01*
X54581107Y-32698893D01*
X54593503Y-32712571D01*
X54604499Y-32727397D01*
X54613989Y-32743230D01*
X54621882Y-32759917D01*
X54628100Y-32777297D01*
X54632586Y-32795204D01*
X54635294Y-32813463D01*
X54636200Y-32831900D01*
X54636200Y-33208100D01*
X54635294Y-33226537D01*
X54632586Y-33244796D01*
X54628100Y-33262703D01*
X54621882Y-33280083D01*
X54613989Y-33296770D01*
X54604499Y-33312603D01*
X54593503Y-33327429D01*
X54581107Y-33341107D01*
X54567429Y-33353503D01*
X54552603Y-33364499D01*
X54536770Y-33373989D01*
X54520083Y-33381882D01*
X54502703Y-33388100D01*
X54484796Y-33392586D01*
X54466537Y-33395294D01*
X54448100Y-33396200D01*
X53196900Y-33396200D01*
X53178463Y-33395294D01*
X53160204Y-33392586D01*
X53142297Y-33388100D01*
X53124917Y-33381882D01*
X53108230Y-33373989D01*
X53092397Y-33364499D01*
X53077571Y-33353503D01*
X53063893Y-33341107D01*
X53051497Y-33327429D01*
X53040501Y-33312603D01*
X53031011Y-33296770D01*
X53023118Y-33280083D01*
X53016900Y-33262703D01*
X53012414Y-33244796D01*
X53009706Y-33226537D01*
X53008800Y-33208100D01*
X53008800Y-32831900D01*
X53009706Y-32813463D01*
X53012414Y-32795204D01*
X53016900Y-32777297D01*
X53023118Y-32759917D01*
X53031011Y-32743230D01*
X53040501Y-32727397D01*
X53051497Y-32712571D01*
X53063893Y-32698893D01*
X53077571Y-32686497D01*
X53092397Y-32675501D01*
X53108230Y-32666011D01*
X53124917Y-32658118D01*
X53142297Y-32651900D01*
X53160204Y-32647414D01*
X53178463Y-32644706D01*
X53196900Y-32643800D01*
X54448100Y-32643800D01*
X54466537Y-32644706D01*
G37*
G36*
X54466537Y-33914706D02*
G01*
X54484796Y-33917414D01*
X54502703Y-33921900D01*
X54520083Y-33928118D01*
X54536770Y-33936011D01*
X54552603Y-33945501D01*
X54567429Y-33956497D01*
X54581107Y-33968893D01*
X54593503Y-33982571D01*
X54604499Y-33997397D01*
X54613989Y-34013230D01*
X54621882Y-34029917D01*
X54628100Y-34047297D01*
X54632586Y-34065204D01*
X54635294Y-34083463D01*
X54636200Y-34101900D01*
X54636200Y-34478100D01*
X54635294Y-34496537D01*
X54632586Y-34514796D01*
X54628100Y-34532703D01*
X54621882Y-34550083D01*
X54613989Y-34566770D01*
X54604499Y-34582603D01*
X54593503Y-34597429D01*
X54581107Y-34611107D01*
X54567429Y-34623503D01*
X54552603Y-34634499D01*
X54536770Y-34643989D01*
X54520083Y-34651882D01*
X54502703Y-34658100D01*
X54484796Y-34662586D01*
X54466537Y-34665294D01*
X54448100Y-34666200D01*
X53196900Y-34666200D01*
X53178463Y-34665294D01*
X53160204Y-34662586D01*
X53142297Y-34658100D01*
X53124917Y-34651882D01*
X53108230Y-34643989D01*
X53092397Y-34634499D01*
X53077571Y-34623503D01*
X53063893Y-34611107D01*
X53051497Y-34597429D01*
X53040501Y-34582603D01*
X53031011Y-34566770D01*
X53023118Y-34550083D01*
X53016900Y-34532703D01*
X53012414Y-34514796D01*
X53009706Y-34496537D01*
X53008800Y-34478100D01*
X53008800Y-34101900D01*
X53009706Y-34083463D01*
X53012414Y-34065204D01*
X53016900Y-34047297D01*
X53023118Y-34029917D01*
X53031011Y-34013230D01*
X53040501Y-33997397D01*
X53051497Y-33982571D01*
X53063893Y-33968893D01*
X53077571Y-33956497D01*
X53092397Y-33945501D01*
X53108230Y-33936011D01*
X53124917Y-33928118D01*
X53142297Y-33921900D01*
X53160204Y-33917414D01*
X53178463Y-33914706D01*
X53196900Y-33913800D01*
X54448100Y-33913800D01*
X54466537Y-33914706D01*
G37*
G36*
X54466537Y-35184706D02*
G01*
X54484796Y-35187414D01*
X54502703Y-35191900D01*
X54520083Y-35198118D01*
X54536770Y-35206011D01*
X54552603Y-35215501D01*
X54567429Y-35226497D01*
X54581107Y-35238893D01*
X54593503Y-35252571D01*
X54604499Y-35267397D01*
X54613989Y-35283230D01*
X54621882Y-35299917D01*
X54628100Y-35317297D01*
X54632586Y-35335204D01*
X54635294Y-35353463D01*
X54636200Y-35371900D01*
X54636200Y-35748100D01*
X54635294Y-35766537D01*
X54632586Y-35784796D01*
X54628100Y-35802703D01*
X54621882Y-35820083D01*
X54613989Y-35836770D01*
X54604499Y-35852603D01*
X54593503Y-35867429D01*
X54581107Y-35881107D01*
X54567429Y-35893503D01*
X54552603Y-35904499D01*
X54536770Y-35913989D01*
X54520083Y-35921882D01*
X54502703Y-35928100D01*
X54484796Y-35932586D01*
X54466537Y-35935294D01*
X54448100Y-35936200D01*
X53196900Y-35936200D01*
X53178463Y-35935294D01*
X53160204Y-35932586D01*
X53142297Y-35928100D01*
X53124917Y-35921882D01*
X53108230Y-35913989D01*
X53092397Y-35904499D01*
X53077571Y-35893503D01*
X53063893Y-35881107D01*
X53051497Y-35867429D01*
X53040501Y-35852603D01*
X53031011Y-35836770D01*
X53023118Y-35820083D01*
X53016900Y-35802703D01*
X53012414Y-35784796D01*
X53009706Y-35766537D01*
X53008800Y-35748100D01*
X53008800Y-35371900D01*
X53009706Y-35353463D01*
X53012414Y-35335204D01*
X53016900Y-35317297D01*
X53023118Y-35299917D01*
X53031011Y-35283230D01*
X53040501Y-35267397D01*
X53051497Y-35252571D01*
X53063893Y-35238893D01*
X53077571Y-35226497D01*
X53092397Y-35215501D01*
X53108230Y-35206011D01*
X53124917Y-35198118D01*
X53142297Y-35191900D01*
X53160204Y-35187414D01*
X53178463Y-35184706D01*
X53196900Y-35183800D01*
X54448100Y-35183800D01*
X54466537Y-35184706D01*
G37*
G36*
X54466537Y-36454706D02*
G01*
X54484796Y-36457414D01*
X54502703Y-36461900D01*
X54520083Y-36468118D01*
X54536770Y-36476011D01*
X54552603Y-36485501D01*
X54567429Y-36496497D01*
X54581107Y-36508893D01*
X54593503Y-36522571D01*
X54604499Y-36537397D01*
X54613989Y-36553230D01*
X54621882Y-36569917D01*
X54628100Y-36587297D01*
X54632586Y-36605204D01*
X54635294Y-36623463D01*
X54636200Y-36641900D01*
X54636200Y-37018100D01*
X54635294Y-37036537D01*
X54632586Y-37054796D01*
X54628100Y-37072703D01*
X54621882Y-37090083D01*
X54613989Y-37106770D01*
X54604499Y-37122603D01*
X54593503Y-37137429D01*
X54581107Y-37151107D01*
X54567429Y-37163503D01*
X54552603Y-37174499D01*
X54536770Y-37183989D01*
X54520083Y-37191882D01*
X54502703Y-37198100D01*
X54484796Y-37202586D01*
X54466537Y-37205294D01*
X54448100Y-37206200D01*
X53196900Y-37206200D01*
X53178463Y-37205294D01*
X53160204Y-37202586D01*
X53142297Y-37198100D01*
X53124917Y-37191882D01*
X53108230Y-37183989D01*
X53092397Y-37174499D01*
X53077571Y-37163503D01*
X53063893Y-37151107D01*
X53051497Y-37137429D01*
X53040501Y-37122603D01*
X53031011Y-37106770D01*
X53023118Y-37090083D01*
X53016900Y-37072703D01*
X53012414Y-37054796D01*
X53009706Y-37036537D01*
X53008800Y-37018100D01*
X53008800Y-36641900D01*
X53009706Y-36623463D01*
X53012414Y-36605204D01*
X53016900Y-36587297D01*
X53023118Y-36569917D01*
X53031011Y-36553230D01*
X53040501Y-36537397D01*
X53051497Y-36522571D01*
X53063893Y-36508893D01*
X53077571Y-36496497D01*
X53092397Y-36485501D01*
X53108230Y-36476011D01*
X53124917Y-36468118D01*
X53142297Y-36461900D01*
X53160204Y-36457414D01*
X53178463Y-36454706D01*
X53196900Y-36453800D01*
X54448100Y-36453800D01*
X54466537Y-36454706D01*
G37*
G36*
X54466537Y-37724706D02*
G01*
X54484796Y-37727414D01*
X54502703Y-37731900D01*
X54520083Y-37738118D01*
X54536770Y-37746011D01*
X54552603Y-37755501D01*
X54567429Y-37766497D01*
X54581107Y-37778893D01*
X54593503Y-37792571D01*
X54604499Y-37807397D01*
X54613989Y-37823230D01*
X54621882Y-37839917D01*
X54628100Y-37857297D01*
X54632586Y-37875204D01*
X54635294Y-37893463D01*
X54636200Y-37911900D01*
X54636200Y-38288100D01*
X54635294Y-38306537D01*
X54632586Y-38324796D01*
X54628100Y-38342703D01*
X54621882Y-38360083D01*
X54613989Y-38376770D01*
X54604499Y-38392603D01*
X54593503Y-38407429D01*
X54581107Y-38421107D01*
X54567429Y-38433503D01*
X54552603Y-38444499D01*
X54536770Y-38453989D01*
X54520083Y-38461882D01*
X54502703Y-38468100D01*
X54484796Y-38472586D01*
X54466537Y-38475294D01*
X54448100Y-38476200D01*
X53196900Y-38476200D01*
X53178463Y-38475294D01*
X53160204Y-38472586D01*
X53142297Y-38468100D01*
X53124917Y-38461882D01*
X53108230Y-38453989D01*
X53092397Y-38444499D01*
X53077571Y-38433503D01*
X53063893Y-38421107D01*
X53051497Y-38407429D01*
X53040501Y-38392603D01*
X53031011Y-38376770D01*
X53023118Y-38360083D01*
X53016900Y-38342703D01*
X53012414Y-38324796D01*
X53009706Y-38306537D01*
X53008800Y-38288100D01*
X53008800Y-37911900D01*
X53009706Y-37893463D01*
X53012414Y-37875204D01*
X53016900Y-37857297D01*
X53023118Y-37839917D01*
X53031011Y-37823230D01*
X53040501Y-37807397D01*
X53051497Y-37792571D01*
X53063893Y-37778893D01*
X53077571Y-37766497D01*
X53092397Y-37755501D01*
X53108230Y-37746011D01*
X53124917Y-37738118D01*
X53142297Y-37731900D01*
X53160204Y-37727414D01*
X53178463Y-37724706D01*
X53196900Y-37723800D01*
X54448100Y-37723800D01*
X54466537Y-37724706D01*
G37*
G36*
X54466537Y-38994706D02*
G01*
X54484796Y-38997414D01*
X54502703Y-39001900D01*
X54520083Y-39008118D01*
X54536770Y-39016011D01*
X54552603Y-39025501D01*
X54567429Y-39036497D01*
X54581107Y-39048893D01*
X54593503Y-39062571D01*
X54604499Y-39077397D01*
X54613989Y-39093230D01*
X54621882Y-39109917D01*
X54628100Y-39127297D01*
X54632586Y-39145204D01*
X54635294Y-39163463D01*
X54636200Y-39181900D01*
X54636200Y-39558100D01*
X54635294Y-39576537D01*
X54632586Y-39594796D01*
X54628100Y-39612703D01*
X54621882Y-39630083D01*
X54613989Y-39646770D01*
X54604499Y-39662603D01*
X54593503Y-39677429D01*
X54581107Y-39691107D01*
X54567429Y-39703503D01*
X54552603Y-39714499D01*
X54536770Y-39723989D01*
X54520083Y-39731882D01*
X54502703Y-39738100D01*
X54484796Y-39742586D01*
X54466537Y-39745294D01*
X54448100Y-39746200D01*
X53196900Y-39746200D01*
X53178463Y-39745294D01*
X53160204Y-39742586D01*
X53142297Y-39738100D01*
X53124917Y-39731882D01*
X53108230Y-39723989D01*
X53092397Y-39714499D01*
X53077571Y-39703503D01*
X53063893Y-39691107D01*
X53051497Y-39677429D01*
X53040501Y-39662603D01*
X53031011Y-39646770D01*
X53023118Y-39630083D01*
X53016900Y-39612703D01*
X53012414Y-39594796D01*
X53009706Y-39576537D01*
X53008800Y-39558100D01*
X53008800Y-39181900D01*
X53009706Y-39163463D01*
X53012414Y-39145204D01*
X53016900Y-39127297D01*
X53023118Y-39109917D01*
X53031011Y-39093230D01*
X53040501Y-39077397D01*
X53051497Y-39062571D01*
X53063893Y-39048893D01*
X53077571Y-39036497D01*
X53092397Y-39025501D01*
X53108230Y-39016011D01*
X53124917Y-39008118D01*
X53142297Y-39001900D01*
X53160204Y-38997414D01*
X53178463Y-38994706D01*
X53196900Y-38993800D01*
X54448100Y-38993800D01*
X54466537Y-38994706D01*
G37*
G36*
X54466537Y-40264706D02*
G01*
X54484796Y-40267414D01*
X54502703Y-40271900D01*
X54520083Y-40278118D01*
X54536770Y-40286011D01*
X54552603Y-40295501D01*
X54567429Y-40306497D01*
X54581107Y-40318893D01*
X54593503Y-40332571D01*
X54604499Y-40347397D01*
X54613989Y-40363230D01*
X54621882Y-40379917D01*
X54628100Y-40397297D01*
X54632586Y-40415204D01*
X54635294Y-40433463D01*
X54636200Y-40451900D01*
X54636200Y-40828100D01*
X54635294Y-40846537D01*
X54632586Y-40864796D01*
X54628100Y-40882703D01*
X54621882Y-40900083D01*
X54613989Y-40916770D01*
X54604499Y-40932603D01*
X54593503Y-40947429D01*
X54581107Y-40961107D01*
X54567429Y-40973503D01*
X54552603Y-40984499D01*
X54536770Y-40993989D01*
X54520083Y-41001882D01*
X54502703Y-41008100D01*
X54484796Y-41012586D01*
X54466537Y-41015294D01*
X54448100Y-41016200D01*
X53196900Y-41016200D01*
X53178463Y-41015294D01*
X53160204Y-41012586D01*
X53142297Y-41008100D01*
X53124917Y-41001882D01*
X53108230Y-40993989D01*
X53092397Y-40984499D01*
X53077571Y-40973503D01*
X53063893Y-40961107D01*
X53051497Y-40947429D01*
X53040501Y-40932603D01*
X53031011Y-40916770D01*
X53023118Y-40900083D01*
X53016900Y-40882703D01*
X53012414Y-40864796D01*
X53009706Y-40846537D01*
X53008800Y-40828100D01*
X53008800Y-40451900D01*
X53009706Y-40433463D01*
X53012414Y-40415204D01*
X53016900Y-40397297D01*
X53023118Y-40379917D01*
X53031011Y-40363230D01*
X53040501Y-40347397D01*
X53051497Y-40332571D01*
X53063893Y-40318893D01*
X53077571Y-40306497D01*
X53092397Y-40295501D01*
X53108230Y-40286011D01*
X53124917Y-40278118D01*
X53142297Y-40271900D01*
X53160204Y-40267414D01*
X53178463Y-40264706D01*
X53196900Y-40263800D01*
X54448100Y-40263800D01*
X54466537Y-40264706D01*
G37*
G36*
X54466537Y-41534706D02*
G01*
X54484796Y-41537414D01*
X54502703Y-41541900D01*
X54520083Y-41548118D01*
X54536770Y-41556011D01*
X54552603Y-41565501D01*
X54567429Y-41576497D01*
X54581107Y-41588893D01*
X54593503Y-41602571D01*
X54604499Y-41617397D01*
X54613989Y-41633230D01*
X54621882Y-41649917D01*
X54628100Y-41667297D01*
X54632586Y-41685204D01*
X54635294Y-41703463D01*
X54636200Y-41721900D01*
X54636200Y-42098100D01*
X54635294Y-42116537D01*
X54632586Y-42134796D01*
X54628100Y-42152703D01*
X54621882Y-42170083D01*
X54613989Y-42186770D01*
X54604499Y-42202603D01*
X54593503Y-42217429D01*
X54581107Y-42231107D01*
X54567429Y-42243503D01*
X54552603Y-42254499D01*
X54536770Y-42263989D01*
X54520083Y-42271882D01*
X54502703Y-42278100D01*
X54484796Y-42282586D01*
X54466537Y-42285294D01*
X54448100Y-42286200D01*
X53196900Y-42286200D01*
X53178463Y-42285294D01*
X53160204Y-42282586D01*
X53142297Y-42278100D01*
X53124917Y-42271882D01*
X53108230Y-42263989D01*
X53092397Y-42254499D01*
X53077571Y-42243503D01*
X53063893Y-42231107D01*
X53051497Y-42217429D01*
X53040501Y-42202603D01*
X53031011Y-42186770D01*
X53023118Y-42170083D01*
X53016900Y-42152703D01*
X53012414Y-42134796D01*
X53009706Y-42116537D01*
X53008800Y-42098100D01*
X53008800Y-41721900D01*
X53009706Y-41703463D01*
X53012414Y-41685204D01*
X53016900Y-41667297D01*
X53023118Y-41649917D01*
X53031011Y-41633230D01*
X53040501Y-41617397D01*
X53051497Y-41602571D01*
X53063893Y-41588893D01*
X53077571Y-41576497D01*
X53092397Y-41565501D01*
X53108230Y-41556011D01*
X53124917Y-41548118D01*
X53142297Y-41541900D01*
X53160204Y-41537414D01*
X53178463Y-41534706D01*
X53196900Y-41533800D01*
X54448100Y-41533800D01*
X54466537Y-41534706D01*
G37*
G36*
X52276537Y-42854706D02*
G01*
X52294796Y-42857414D01*
X52312703Y-42861900D01*
X52330083Y-42868118D01*
X52346770Y-42876011D01*
X52362603Y-42885501D01*
X52377429Y-42896497D01*
X52391107Y-42908893D01*
X52403503Y-42922571D01*
X52414499Y-42937397D01*
X52423989Y-42953230D01*
X52431882Y-42969917D01*
X52438100Y-42987297D01*
X52442586Y-43005204D01*
X52445294Y-43023463D01*
X52446200Y-43041900D01*
X52446200Y-44293100D01*
X52445294Y-44311537D01*
X52442586Y-44329796D01*
X52438100Y-44347703D01*
X52431882Y-44365083D01*
X52423989Y-44381770D01*
X52414499Y-44397603D01*
X52403503Y-44412429D01*
X52391107Y-44426107D01*
X52377429Y-44438503D01*
X52362603Y-44449499D01*
X52346770Y-44458989D01*
X52330083Y-44466882D01*
X52312703Y-44473100D01*
X52294796Y-44477586D01*
X52276537Y-44480294D01*
X52258100Y-44481200D01*
X51881900Y-44481200D01*
X51863463Y-44480294D01*
X51845204Y-44477586D01*
X51827297Y-44473100D01*
X51809917Y-44466882D01*
X51793230Y-44458989D01*
X51777397Y-44449499D01*
X51762571Y-44438503D01*
X51748893Y-44426107D01*
X51736497Y-44412429D01*
X51725501Y-44397603D01*
X51716011Y-44381770D01*
X51708118Y-44365083D01*
X51701900Y-44347703D01*
X51697414Y-44329796D01*
X51694706Y-44311537D01*
X51693800Y-44293100D01*
X51693800Y-43041900D01*
X51694706Y-43023463D01*
X51697414Y-43005204D01*
X51701900Y-42987297D01*
X51708118Y-42969917D01*
X51716011Y-42953230D01*
X51725501Y-42937397D01*
X51736497Y-42922571D01*
X51748893Y-42908893D01*
X51762571Y-42896497D01*
X51777397Y-42885501D01*
X51793230Y-42876011D01*
X51809917Y-42868118D01*
X51827297Y-42861900D01*
X51845204Y-42857414D01*
X51863463Y-42854706D01*
X51881900Y-42853800D01*
X52258100Y-42853800D01*
X52276537Y-42854706D01*
G37*
G36*
X51006537Y-42854706D02*
G01*
X51024796Y-42857414D01*
X51042703Y-42861900D01*
X51060083Y-42868118D01*
X51076770Y-42876011D01*
X51092603Y-42885501D01*
X51107429Y-42896497D01*
X51121107Y-42908893D01*
X51133503Y-42922571D01*
X51144499Y-42937397D01*
X51153989Y-42953230D01*
X51161882Y-42969917D01*
X51168100Y-42987297D01*
X51172586Y-43005204D01*
X51175294Y-43023463D01*
X51176200Y-43041900D01*
X51176200Y-44293100D01*
X51175294Y-44311537D01*
X51172586Y-44329796D01*
X51168100Y-44347703D01*
X51161882Y-44365083D01*
X51153989Y-44381770D01*
X51144499Y-44397603D01*
X51133503Y-44412429D01*
X51121107Y-44426107D01*
X51107429Y-44438503D01*
X51092603Y-44449499D01*
X51076770Y-44458989D01*
X51060083Y-44466882D01*
X51042703Y-44473100D01*
X51024796Y-44477586D01*
X51006537Y-44480294D01*
X50988100Y-44481200D01*
X50611900Y-44481200D01*
X50593463Y-44480294D01*
X50575204Y-44477586D01*
X50557297Y-44473100D01*
X50539917Y-44466882D01*
X50523230Y-44458989D01*
X50507397Y-44449499D01*
X50492571Y-44438503D01*
X50478893Y-44426107D01*
X50466497Y-44412429D01*
X50455501Y-44397603D01*
X50446011Y-44381770D01*
X50438118Y-44365083D01*
X50431900Y-44347703D01*
X50427414Y-44329796D01*
X50424706Y-44311537D01*
X50423800Y-44293100D01*
X50423800Y-43041900D01*
X50424706Y-43023463D01*
X50427414Y-43005204D01*
X50431900Y-42987297D01*
X50438118Y-42969917D01*
X50446011Y-42953230D01*
X50455501Y-42937397D01*
X50466497Y-42922571D01*
X50478893Y-42908893D01*
X50492571Y-42896497D01*
X50507397Y-42885501D01*
X50523230Y-42876011D01*
X50539917Y-42868118D01*
X50557297Y-42861900D01*
X50575204Y-42857414D01*
X50593463Y-42854706D01*
X50611900Y-42853800D01*
X50988100Y-42853800D01*
X51006537Y-42854706D01*
G37*
G36*
X49736537Y-42854706D02*
G01*
X49754796Y-42857414D01*
X49772703Y-42861900D01*
X49790083Y-42868118D01*
X49806770Y-42876011D01*
X49822603Y-42885501D01*
X49837429Y-42896497D01*
X49851107Y-42908893D01*
X49863503Y-42922571D01*
X49874499Y-42937397D01*
X49883989Y-42953230D01*
X49891882Y-42969917D01*
X49898100Y-42987297D01*
X49902586Y-43005204D01*
X49905294Y-43023463D01*
X49906200Y-43041900D01*
X49906200Y-44293100D01*
X49905294Y-44311537D01*
X49902586Y-44329796D01*
X49898100Y-44347703D01*
X49891882Y-44365083D01*
X49883989Y-44381770D01*
X49874499Y-44397603D01*
X49863503Y-44412429D01*
X49851107Y-44426107D01*
X49837429Y-44438503D01*
X49822603Y-44449499D01*
X49806770Y-44458989D01*
X49790083Y-44466882D01*
X49772703Y-44473100D01*
X49754796Y-44477586D01*
X49736537Y-44480294D01*
X49718100Y-44481200D01*
X49341900Y-44481200D01*
X49323463Y-44480294D01*
X49305204Y-44477586D01*
X49287297Y-44473100D01*
X49269917Y-44466882D01*
X49253230Y-44458989D01*
X49237397Y-44449499D01*
X49222571Y-44438503D01*
X49208893Y-44426107D01*
X49196497Y-44412429D01*
X49185501Y-44397603D01*
X49176011Y-44381770D01*
X49168118Y-44365083D01*
X49161900Y-44347703D01*
X49157414Y-44329796D01*
X49154706Y-44311537D01*
X49153800Y-44293100D01*
X49153800Y-43041900D01*
X49154706Y-43023463D01*
X49157414Y-43005204D01*
X49161900Y-42987297D01*
X49168118Y-42969917D01*
X49176011Y-42953230D01*
X49185501Y-42937397D01*
X49196497Y-42922571D01*
X49208893Y-42908893D01*
X49222571Y-42896497D01*
X49237397Y-42885501D01*
X49253230Y-42876011D01*
X49269917Y-42868118D01*
X49287297Y-42861900D01*
X49305204Y-42857414D01*
X49323463Y-42854706D01*
X49341900Y-42853800D01*
X49718100Y-42853800D01*
X49736537Y-42854706D01*
G37*
G36*
X48466537Y-42854706D02*
G01*
X48484796Y-42857414D01*
X48502703Y-42861900D01*
X48520083Y-42868118D01*
X48536770Y-42876011D01*
X48552603Y-42885501D01*
X48567429Y-42896497D01*
X48581107Y-42908893D01*
X48593503Y-42922571D01*
X48604499Y-42937397D01*
X48613989Y-42953230D01*
X48621882Y-42969917D01*
X48628100Y-42987297D01*
X48632586Y-43005204D01*
X48635294Y-43023463D01*
X48636200Y-43041900D01*
X48636200Y-44293100D01*
X48635294Y-44311537D01*
X48632586Y-44329796D01*
X48628100Y-44347703D01*
X48621882Y-44365083D01*
X48613989Y-44381770D01*
X48604499Y-44397603D01*
X48593503Y-44412429D01*
X48581107Y-44426107D01*
X48567429Y-44438503D01*
X48552603Y-44449499D01*
X48536770Y-44458989D01*
X48520083Y-44466882D01*
X48502703Y-44473100D01*
X48484796Y-44477586D01*
X48466537Y-44480294D01*
X48448100Y-44481200D01*
X48071900Y-44481200D01*
X48053463Y-44480294D01*
X48035204Y-44477586D01*
X48017297Y-44473100D01*
X47999917Y-44466882D01*
X47983230Y-44458989D01*
X47967397Y-44449499D01*
X47952571Y-44438503D01*
X47938893Y-44426107D01*
X47926497Y-44412429D01*
X47915501Y-44397603D01*
X47906011Y-44381770D01*
X47898118Y-44365083D01*
X47891900Y-44347703D01*
X47887414Y-44329796D01*
X47884706Y-44311537D01*
X47883800Y-44293100D01*
X47883800Y-43041900D01*
X47884706Y-43023463D01*
X47887414Y-43005204D01*
X47891900Y-42987297D01*
X47898118Y-42969917D01*
X47906011Y-42953230D01*
X47915501Y-42937397D01*
X47926497Y-42922571D01*
X47938893Y-42908893D01*
X47952571Y-42896497D01*
X47967397Y-42885501D01*
X47983230Y-42876011D01*
X47999917Y-42868118D01*
X48017297Y-42861900D01*
X48035204Y-42857414D01*
X48053463Y-42854706D01*
X48071900Y-42853800D01*
X48448100Y-42853800D01*
X48466537Y-42854706D01*
G37*
G36*
X47196537Y-42854706D02*
G01*
X47214796Y-42857414D01*
X47232703Y-42861900D01*
X47250083Y-42868118D01*
X47266770Y-42876011D01*
X47282603Y-42885501D01*
X47297429Y-42896497D01*
X47311107Y-42908893D01*
X47323503Y-42922571D01*
X47334499Y-42937397D01*
X47343989Y-42953230D01*
X47351882Y-42969917D01*
X47358100Y-42987297D01*
X47362586Y-43005204D01*
X47365294Y-43023463D01*
X47366200Y-43041900D01*
X47366200Y-44293100D01*
X47365294Y-44311537D01*
X47362586Y-44329796D01*
X47358100Y-44347703D01*
X47351882Y-44365083D01*
X47343989Y-44381770D01*
X47334499Y-44397603D01*
X47323503Y-44412429D01*
X47311107Y-44426107D01*
X47297429Y-44438503D01*
X47282603Y-44449499D01*
X47266770Y-44458989D01*
X47250083Y-44466882D01*
X47232703Y-44473100D01*
X47214796Y-44477586D01*
X47196537Y-44480294D01*
X47178100Y-44481200D01*
X46801900Y-44481200D01*
X46783463Y-44480294D01*
X46765204Y-44477586D01*
X46747297Y-44473100D01*
X46729917Y-44466882D01*
X46713230Y-44458989D01*
X46697397Y-44449499D01*
X46682571Y-44438503D01*
X46668893Y-44426107D01*
X46656497Y-44412429D01*
X46645501Y-44397603D01*
X46636011Y-44381770D01*
X46628118Y-44365083D01*
X46621900Y-44347703D01*
X46617414Y-44329796D01*
X46614706Y-44311537D01*
X46613800Y-44293100D01*
X46613800Y-43041900D01*
X46614706Y-43023463D01*
X46617414Y-43005204D01*
X46621900Y-42987297D01*
X46628118Y-42969917D01*
X46636011Y-42953230D01*
X46645501Y-42937397D01*
X46656497Y-42922571D01*
X46668893Y-42908893D01*
X46682571Y-42896497D01*
X46697397Y-42885501D01*
X46713230Y-42876011D01*
X46729917Y-42868118D01*
X46747297Y-42861900D01*
X46765204Y-42857414D01*
X46783463Y-42854706D01*
X46801900Y-42853800D01*
X47178100Y-42853800D01*
X47196537Y-42854706D01*
G37*
G36*
X45926537Y-42854706D02*
G01*
X45944796Y-42857414D01*
X45962703Y-42861900D01*
X45980083Y-42868118D01*
X45996770Y-42876011D01*
X46012603Y-42885501D01*
X46027429Y-42896497D01*
X46041107Y-42908893D01*
X46053503Y-42922571D01*
X46064499Y-42937397D01*
X46073989Y-42953230D01*
X46081882Y-42969917D01*
X46088100Y-42987297D01*
X46092586Y-43005204D01*
X46095294Y-43023463D01*
X46096200Y-43041900D01*
X46096200Y-44293100D01*
X46095294Y-44311537D01*
X46092586Y-44329796D01*
X46088100Y-44347703D01*
X46081882Y-44365083D01*
X46073989Y-44381770D01*
X46064499Y-44397603D01*
X46053503Y-44412429D01*
X46041107Y-44426107D01*
X46027429Y-44438503D01*
X46012603Y-44449499D01*
X45996770Y-44458989D01*
X45980083Y-44466882D01*
X45962703Y-44473100D01*
X45944796Y-44477586D01*
X45926537Y-44480294D01*
X45908100Y-44481200D01*
X45531900Y-44481200D01*
X45513463Y-44480294D01*
X45495204Y-44477586D01*
X45477297Y-44473100D01*
X45459917Y-44466882D01*
X45443230Y-44458989D01*
X45427397Y-44449499D01*
X45412571Y-44438503D01*
X45398893Y-44426107D01*
X45386497Y-44412429D01*
X45375501Y-44397603D01*
X45366011Y-44381770D01*
X45358118Y-44365083D01*
X45351900Y-44347703D01*
X45347414Y-44329796D01*
X45344706Y-44311537D01*
X45343800Y-44293100D01*
X45343800Y-43041900D01*
X45344706Y-43023463D01*
X45347414Y-43005204D01*
X45351900Y-42987297D01*
X45358118Y-42969917D01*
X45366011Y-42953230D01*
X45375501Y-42937397D01*
X45386497Y-42922571D01*
X45398893Y-42908893D01*
X45412571Y-42896497D01*
X45427397Y-42885501D01*
X45443230Y-42876011D01*
X45459917Y-42868118D01*
X45477297Y-42861900D01*
X45495204Y-42857414D01*
X45513463Y-42854706D01*
X45531900Y-42853800D01*
X45908100Y-42853800D01*
X45926537Y-42854706D01*
G37*
G36*
X44656537Y-42854706D02*
G01*
X44674796Y-42857414D01*
X44692703Y-42861900D01*
X44710083Y-42868118D01*
X44726770Y-42876011D01*
X44742603Y-42885501D01*
X44757429Y-42896497D01*
X44771107Y-42908893D01*
X44783503Y-42922571D01*
X44794499Y-42937397D01*
X44803989Y-42953230D01*
X44811882Y-42969917D01*
X44818100Y-42987297D01*
X44822586Y-43005204D01*
X44825294Y-43023463D01*
X44826200Y-43041900D01*
X44826200Y-44293100D01*
X44825294Y-44311537D01*
X44822586Y-44329796D01*
X44818100Y-44347703D01*
X44811882Y-44365083D01*
X44803989Y-44381770D01*
X44794499Y-44397603D01*
X44783503Y-44412429D01*
X44771107Y-44426107D01*
X44757429Y-44438503D01*
X44742603Y-44449499D01*
X44726770Y-44458989D01*
X44710083Y-44466882D01*
X44692703Y-44473100D01*
X44674796Y-44477586D01*
X44656537Y-44480294D01*
X44638100Y-44481200D01*
X44261900Y-44481200D01*
X44243463Y-44480294D01*
X44225204Y-44477586D01*
X44207297Y-44473100D01*
X44189917Y-44466882D01*
X44173230Y-44458989D01*
X44157397Y-44449499D01*
X44142571Y-44438503D01*
X44128893Y-44426107D01*
X44116497Y-44412429D01*
X44105501Y-44397603D01*
X44096011Y-44381770D01*
X44088118Y-44365083D01*
X44081900Y-44347703D01*
X44077414Y-44329796D01*
X44074706Y-44311537D01*
X44073800Y-44293100D01*
X44073800Y-43041900D01*
X44074706Y-43023463D01*
X44077414Y-43005204D01*
X44081900Y-42987297D01*
X44088118Y-42969917D01*
X44096011Y-42953230D01*
X44105501Y-42937397D01*
X44116497Y-42922571D01*
X44128893Y-42908893D01*
X44142571Y-42896497D01*
X44157397Y-42885501D01*
X44173230Y-42876011D01*
X44189917Y-42868118D01*
X44207297Y-42861900D01*
X44225204Y-42857414D01*
X44243463Y-42854706D01*
X44261900Y-42853800D01*
X44638100Y-42853800D01*
X44656537Y-42854706D01*
G37*
G36*
X43341537Y-41534706D02*
G01*
X43359796Y-41537414D01*
X43377703Y-41541900D01*
X43395083Y-41548118D01*
X43411770Y-41556011D01*
X43427603Y-41565501D01*
X43442429Y-41576497D01*
X43456107Y-41588893D01*
X43468503Y-41602571D01*
X43479499Y-41617397D01*
X43488989Y-41633230D01*
X43496882Y-41649917D01*
X43503100Y-41667297D01*
X43507586Y-41685204D01*
X43510294Y-41703463D01*
X43511200Y-41721900D01*
X43511200Y-42098100D01*
X43510294Y-42116537D01*
X43507586Y-42134796D01*
X43503100Y-42152703D01*
X43496882Y-42170083D01*
X43488989Y-42186770D01*
X43479499Y-42202603D01*
X43468503Y-42217429D01*
X43456107Y-42231107D01*
X43442429Y-42243503D01*
X43427603Y-42254499D01*
X43411770Y-42263989D01*
X43395083Y-42271882D01*
X43377703Y-42278100D01*
X43359796Y-42282586D01*
X43341537Y-42285294D01*
X43323100Y-42286200D01*
X42071900Y-42286200D01*
X42053463Y-42285294D01*
X42035204Y-42282586D01*
X42017297Y-42278100D01*
X41999917Y-42271882D01*
X41983230Y-42263989D01*
X41967397Y-42254499D01*
X41952571Y-42243503D01*
X41938893Y-42231107D01*
X41926497Y-42217429D01*
X41915501Y-42202603D01*
X41906011Y-42186770D01*
X41898118Y-42170083D01*
X41891900Y-42152703D01*
X41887414Y-42134796D01*
X41884706Y-42116537D01*
X41883800Y-42098100D01*
X41883800Y-41721900D01*
X41884706Y-41703463D01*
X41887414Y-41685204D01*
X41891900Y-41667297D01*
X41898118Y-41649917D01*
X41906011Y-41633230D01*
X41915501Y-41617397D01*
X41926497Y-41602571D01*
X41938893Y-41588893D01*
X41952571Y-41576497D01*
X41967397Y-41565501D01*
X41983230Y-41556011D01*
X41999917Y-41548118D01*
X42017297Y-41541900D01*
X42035204Y-41537414D01*
X42053463Y-41534706D01*
X42071900Y-41533800D01*
X43323100Y-41533800D01*
X43341537Y-41534706D01*
G37*
G36*
X43341537Y-40264706D02*
G01*
X43359796Y-40267414D01*
X43377703Y-40271900D01*
X43395083Y-40278118D01*
X43411770Y-40286011D01*
X43427603Y-40295501D01*
X43442429Y-40306497D01*
X43456107Y-40318893D01*
X43468503Y-40332571D01*
X43479499Y-40347397D01*
X43488989Y-40363230D01*
X43496882Y-40379917D01*
X43503100Y-40397297D01*
X43507586Y-40415204D01*
X43510294Y-40433463D01*
X43511200Y-40451900D01*
X43511200Y-40828100D01*
X43510294Y-40846537D01*
X43507586Y-40864796D01*
X43503100Y-40882703D01*
X43496882Y-40900083D01*
X43488989Y-40916770D01*
X43479499Y-40932603D01*
X43468503Y-40947429D01*
X43456107Y-40961107D01*
X43442429Y-40973503D01*
X43427603Y-40984499D01*
X43411770Y-40993989D01*
X43395083Y-41001882D01*
X43377703Y-41008100D01*
X43359796Y-41012586D01*
X43341537Y-41015294D01*
X43323100Y-41016200D01*
X42071900Y-41016200D01*
X42053463Y-41015294D01*
X42035204Y-41012586D01*
X42017297Y-41008100D01*
X41999917Y-41001882D01*
X41983230Y-40993989D01*
X41967397Y-40984499D01*
X41952571Y-40973503D01*
X41938893Y-40961107D01*
X41926497Y-40947429D01*
X41915501Y-40932603D01*
X41906011Y-40916770D01*
X41898118Y-40900083D01*
X41891900Y-40882703D01*
X41887414Y-40864796D01*
X41884706Y-40846537D01*
X41883800Y-40828100D01*
X41883800Y-40451900D01*
X41884706Y-40433463D01*
X41887414Y-40415204D01*
X41891900Y-40397297D01*
X41898118Y-40379917D01*
X41906011Y-40363230D01*
X41915501Y-40347397D01*
X41926497Y-40332571D01*
X41938893Y-40318893D01*
X41952571Y-40306497D01*
X41967397Y-40295501D01*
X41983230Y-40286011D01*
X41999917Y-40278118D01*
X42017297Y-40271900D01*
X42035204Y-40267414D01*
X42053463Y-40264706D01*
X42071900Y-40263800D01*
X43323100Y-40263800D01*
X43341537Y-40264706D01*
G37*
G36*
X43341537Y-38994706D02*
G01*
X43359796Y-38997414D01*
X43377703Y-39001900D01*
X43395083Y-39008118D01*
X43411770Y-39016011D01*
X43427603Y-39025501D01*
X43442429Y-39036497D01*
X43456107Y-39048893D01*
X43468503Y-39062571D01*
X43479499Y-39077397D01*
X43488989Y-39093230D01*
X43496882Y-39109917D01*
X43503100Y-39127297D01*
X43507586Y-39145204D01*
X43510294Y-39163463D01*
X43511200Y-39181900D01*
X43511200Y-39558100D01*
X43510294Y-39576537D01*
X43507586Y-39594796D01*
X43503100Y-39612703D01*
X43496882Y-39630083D01*
X43488989Y-39646770D01*
X43479499Y-39662603D01*
X43468503Y-39677429D01*
X43456107Y-39691107D01*
X43442429Y-39703503D01*
X43427603Y-39714499D01*
X43411770Y-39723989D01*
X43395083Y-39731882D01*
X43377703Y-39738100D01*
X43359796Y-39742586D01*
X43341537Y-39745294D01*
X43323100Y-39746200D01*
X42071900Y-39746200D01*
X42053463Y-39745294D01*
X42035204Y-39742586D01*
X42017297Y-39738100D01*
X41999917Y-39731882D01*
X41983230Y-39723989D01*
X41967397Y-39714499D01*
X41952571Y-39703503D01*
X41938893Y-39691107D01*
X41926497Y-39677429D01*
X41915501Y-39662603D01*
X41906011Y-39646770D01*
X41898118Y-39630083D01*
X41891900Y-39612703D01*
X41887414Y-39594796D01*
X41884706Y-39576537D01*
X41883800Y-39558100D01*
X41883800Y-39181900D01*
X41884706Y-39163463D01*
X41887414Y-39145204D01*
X41891900Y-39127297D01*
X41898118Y-39109917D01*
X41906011Y-39093230D01*
X41915501Y-39077397D01*
X41926497Y-39062571D01*
X41938893Y-39048893D01*
X41952571Y-39036497D01*
X41967397Y-39025501D01*
X41983230Y-39016011D01*
X41999917Y-39008118D01*
X42017297Y-39001900D01*
X42035204Y-38997414D01*
X42053463Y-38994706D01*
X42071900Y-38993800D01*
X43323100Y-38993800D01*
X43341537Y-38994706D01*
G37*
G36*
X43341537Y-37724706D02*
G01*
X43359796Y-37727414D01*
X43377703Y-37731900D01*
X43395083Y-37738118D01*
X43411770Y-37746011D01*
X43427603Y-37755501D01*
X43442429Y-37766497D01*
X43456107Y-37778893D01*
X43468503Y-37792571D01*
X43479499Y-37807397D01*
X43488989Y-37823230D01*
X43496882Y-37839917D01*
X43503100Y-37857297D01*
X43507586Y-37875204D01*
X43510294Y-37893463D01*
X43511200Y-37911900D01*
X43511200Y-38288100D01*
X43510294Y-38306537D01*
X43507586Y-38324796D01*
X43503100Y-38342703D01*
X43496882Y-38360083D01*
X43488989Y-38376770D01*
X43479499Y-38392603D01*
X43468503Y-38407429D01*
X43456107Y-38421107D01*
X43442429Y-38433503D01*
X43427603Y-38444499D01*
X43411770Y-38453989D01*
X43395083Y-38461882D01*
X43377703Y-38468100D01*
X43359796Y-38472586D01*
X43341537Y-38475294D01*
X43323100Y-38476200D01*
X42071900Y-38476200D01*
X42053463Y-38475294D01*
X42035204Y-38472586D01*
X42017297Y-38468100D01*
X41999917Y-38461882D01*
X41983230Y-38453989D01*
X41967397Y-38444499D01*
X41952571Y-38433503D01*
X41938893Y-38421107D01*
X41926497Y-38407429D01*
X41915501Y-38392603D01*
X41906011Y-38376770D01*
X41898118Y-38360083D01*
X41891900Y-38342703D01*
X41887414Y-38324796D01*
X41884706Y-38306537D01*
X41883800Y-38288100D01*
X41883800Y-37911900D01*
X41884706Y-37893463D01*
X41887414Y-37875204D01*
X41891900Y-37857297D01*
X41898118Y-37839917D01*
X41906011Y-37823230D01*
X41915501Y-37807397D01*
X41926497Y-37792571D01*
X41938893Y-37778893D01*
X41952571Y-37766497D01*
X41967397Y-37755501D01*
X41983230Y-37746011D01*
X41999917Y-37738118D01*
X42017297Y-37731900D01*
X42035204Y-37727414D01*
X42053463Y-37724706D01*
X42071900Y-37723800D01*
X43323100Y-37723800D01*
X43341537Y-37724706D01*
G37*
G36*
X43341537Y-36454706D02*
G01*
X43359796Y-36457414D01*
X43377703Y-36461900D01*
X43395083Y-36468118D01*
X43411770Y-36476011D01*
X43427603Y-36485501D01*
X43442429Y-36496497D01*
X43456107Y-36508893D01*
X43468503Y-36522571D01*
X43479499Y-36537397D01*
X43488989Y-36553230D01*
X43496882Y-36569917D01*
X43503100Y-36587297D01*
X43507586Y-36605204D01*
X43510294Y-36623463D01*
X43511200Y-36641900D01*
X43511200Y-37018100D01*
X43510294Y-37036537D01*
X43507586Y-37054796D01*
X43503100Y-37072703D01*
X43496882Y-37090083D01*
X43488989Y-37106770D01*
X43479499Y-37122603D01*
X43468503Y-37137429D01*
X43456107Y-37151107D01*
X43442429Y-37163503D01*
X43427603Y-37174499D01*
X43411770Y-37183989D01*
X43395083Y-37191882D01*
X43377703Y-37198100D01*
X43359796Y-37202586D01*
X43341537Y-37205294D01*
X43323100Y-37206200D01*
X42071900Y-37206200D01*
X42053463Y-37205294D01*
X42035204Y-37202586D01*
X42017297Y-37198100D01*
X41999917Y-37191882D01*
X41983230Y-37183989D01*
X41967397Y-37174499D01*
X41952571Y-37163503D01*
X41938893Y-37151107D01*
X41926497Y-37137429D01*
X41915501Y-37122603D01*
X41906011Y-37106770D01*
X41898118Y-37090083D01*
X41891900Y-37072703D01*
X41887414Y-37054796D01*
X41884706Y-37036537D01*
X41883800Y-37018100D01*
X41883800Y-36641900D01*
X41884706Y-36623463D01*
X41887414Y-36605204D01*
X41891900Y-36587297D01*
X41898118Y-36569917D01*
X41906011Y-36553230D01*
X41915501Y-36537397D01*
X41926497Y-36522571D01*
X41938893Y-36508893D01*
X41952571Y-36496497D01*
X41967397Y-36485501D01*
X41983230Y-36476011D01*
X41999917Y-36468118D01*
X42017297Y-36461900D01*
X42035204Y-36457414D01*
X42053463Y-36454706D01*
X42071900Y-36453800D01*
X43323100Y-36453800D01*
X43341537Y-36454706D01*
G37*
G36*
X43341537Y-35184706D02*
G01*
X43359796Y-35187414D01*
X43377703Y-35191900D01*
X43395083Y-35198118D01*
X43411770Y-35206011D01*
X43427603Y-35215501D01*
X43442429Y-35226497D01*
X43456107Y-35238893D01*
X43468503Y-35252571D01*
X43479499Y-35267397D01*
X43488989Y-35283230D01*
X43496882Y-35299917D01*
X43503100Y-35317297D01*
X43507586Y-35335204D01*
X43510294Y-35353463D01*
X43511200Y-35371900D01*
X43511200Y-35748100D01*
X43510294Y-35766537D01*
X43507586Y-35784796D01*
X43503100Y-35802703D01*
X43496882Y-35820083D01*
X43488989Y-35836770D01*
X43479499Y-35852603D01*
X43468503Y-35867429D01*
X43456107Y-35881107D01*
X43442429Y-35893503D01*
X43427603Y-35904499D01*
X43411770Y-35913989D01*
X43395083Y-35921882D01*
X43377703Y-35928100D01*
X43359796Y-35932586D01*
X43341537Y-35935294D01*
X43323100Y-35936200D01*
X42071900Y-35936200D01*
X42053463Y-35935294D01*
X42035204Y-35932586D01*
X42017297Y-35928100D01*
X41999917Y-35921882D01*
X41983230Y-35913989D01*
X41967397Y-35904499D01*
X41952571Y-35893503D01*
X41938893Y-35881107D01*
X41926497Y-35867429D01*
X41915501Y-35852603D01*
X41906011Y-35836770D01*
X41898118Y-35820083D01*
X41891900Y-35802703D01*
X41887414Y-35784796D01*
X41884706Y-35766537D01*
X41883800Y-35748100D01*
X41883800Y-35371900D01*
X41884706Y-35353463D01*
X41887414Y-35335204D01*
X41891900Y-35317297D01*
X41898118Y-35299917D01*
X41906011Y-35283230D01*
X41915501Y-35267397D01*
X41926497Y-35252571D01*
X41938893Y-35238893D01*
X41952571Y-35226497D01*
X41967397Y-35215501D01*
X41983230Y-35206011D01*
X41999917Y-35198118D01*
X42017297Y-35191900D01*
X42035204Y-35187414D01*
X42053463Y-35184706D01*
X42071900Y-35183800D01*
X43323100Y-35183800D01*
X43341537Y-35184706D01*
G37*
G36*
X43341537Y-33914706D02*
G01*
X43359796Y-33917414D01*
X43377703Y-33921900D01*
X43395083Y-33928118D01*
X43411770Y-33936011D01*
X43427603Y-33945501D01*
X43442429Y-33956497D01*
X43456107Y-33968893D01*
X43468503Y-33982571D01*
X43479499Y-33997397D01*
X43488989Y-34013230D01*
X43496882Y-34029917D01*
X43503100Y-34047297D01*
X43507586Y-34065204D01*
X43510294Y-34083463D01*
X43511200Y-34101900D01*
X43511200Y-34478100D01*
X43510294Y-34496537D01*
X43507586Y-34514796D01*
X43503100Y-34532703D01*
X43496882Y-34550083D01*
X43488989Y-34566770D01*
X43479499Y-34582603D01*
X43468503Y-34597429D01*
X43456107Y-34611107D01*
X43442429Y-34623503D01*
X43427603Y-34634499D01*
X43411770Y-34643989D01*
X43395083Y-34651882D01*
X43377703Y-34658100D01*
X43359796Y-34662586D01*
X43341537Y-34665294D01*
X43323100Y-34666200D01*
X42071900Y-34666200D01*
X42053463Y-34665294D01*
X42035204Y-34662586D01*
X42017297Y-34658100D01*
X41999917Y-34651882D01*
X41983230Y-34643989D01*
X41967397Y-34634499D01*
X41952571Y-34623503D01*
X41938893Y-34611107D01*
X41926497Y-34597429D01*
X41915501Y-34582603D01*
X41906011Y-34566770D01*
X41898118Y-34550083D01*
X41891900Y-34532703D01*
X41887414Y-34514796D01*
X41884706Y-34496537D01*
X41883800Y-34478100D01*
X41883800Y-34101900D01*
X41884706Y-34083463D01*
X41887414Y-34065204D01*
X41891900Y-34047297D01*
X41898118Y-34029917D01*
X41906011Y-34013230D01*
X41915501Y-33997397D01*
X41926497Y-33982571D01*
X41938893Y-33968893D01*
X41952571Y-33956497D01*
X41967397Y-33945501D01*
X41983230Y-33936011D01*
X41999917Y-33928118D01*
X42017297Y-33921900D01*
X42035204Y-33917414D01*
X42053463Y-33914706D01*
X42071900Y-33913800D01*
X43323100Y-33913800D01*
X43341537Y-33914706D01*
G37*
G36*
X43341537Y-32644706D02*
G01*
X43359796Y-32647414D01*
X43377703Y-32651900D01*
X43395083Y-32658118D01*
X43411770Y-32666011D01*
X43427603Y-32675501D01*
X43442429Y-32686497D01*
X43456107Y-32698893D01*
X43468503Y-32712571D01*
X43479499Y-32727397D01*
X43488989Y-32743230D01*
X43496882Y-32759917D01*
X43503100Y-32777297D01*
X43507586Y-32795204D01*
X43510294Y-32813463D01*
X43511200Y-32831900D01*
X43511200Y-33208100D01*
X43510294Y-33226537D01*
X43507586Y-33244796D01*
X43503100Y-33262703D01*
X43496882Y-33280083D01*
X43488989Y-33296770D01*
X43479499Y-33312603D01*
X43468503Y-33327429D01*
X43456107Y-33341107D01*
X43442429Y-33353503D01*
X43427603Y-33364499D01*
X43411770Y-33373989D01*
X43395083Y-33381882D01*
X43377703Y-33388100D01*
X43359796Y-33392586D01*
X43341537Y-33395294D01*
X43323100Y-33396200D01*
X42071900Y-33396200D01*
X42053463Y-33395294D01*
X42035204Y-33392586D01*
X42017297Y-33388100D01*
X41999917Y-33381882D01*
X41983230Y-33373989D01*
X41967397Y-33364499D01*
X41952571Y-33353503D01*
X41938893Y-33341107D01*
X41926497Y-33327429D01*
X41915501Y-33312603D01*
X41906011Y-33296770D01*
X41898118Y-33280083D01*
X41891900Y-33262703D01*
X41887414Y-33244796D01*
X41884706Y-33226537D01*
X41883800Y-33208100D01*
X41883800Y-32831900D01*
X41884706Y-32813463D01*
X41887414Y-32795204D01*
X41891900Y-32777297D01*
X41898118Y-32759917D01*
X41906011Y-32743230D01*
X41915501Y-32727397D01*
X41926497Y-32712571D01*
X41938893Y-32698893D01*
X41952571Y-32686497D01*
X41967397Y-32675501D01*
X41983230Y-32666011D01*
X41999917Y-32658118D01*
X42017297Y-32651900D01*
X42035204Y-32647414D01*
X42053463Y-32644706D01*
X42071900Y-32643800D01*
X43323100Y-32643800D01*
X43341537Y-32644706D01*
G37*
G36*
X43341537Y-31374706D02*
G01*
X43359796Y-31377414D01*
X43377703Y-31381900D01*
X43395083Y-31388118D01*
X43411770Y-31396011D01*
X43427603Y-31405501D01*
X43442429Y-31416497D01*
X43456107Y-31428893D01*
X43468503Y-31442571D01*
X43479499Y-31457397D01*
X43488989Y-31473230D01*
X43496882Y-31489917D01*
X43503100Y-31507297D01*
X43507586Y-31525204D01*
X43510294Y-31543463D01*
X43511200Y-31561900D01*
X43511200Y-31938100D01*
X43510294Y-31956537D01*
X43507586Y-31974796D01*
X43503100Y-31992703D01*
X43496882Y-32010083D01*
X43488989Y-32026770D01*
X43479499Y-32042603D01*
X43468503Y-32057429D01*
X43456107Y-32071107D01*
X43442429Y-32083503D01*
X43427603Y-32094499D01*
X43411770Y-32103989D01*
X43395083Y-32111882D01*
X43377703Y-32118100D01*
X43359796Y-32122586D01*
X43341537Y-32125294D01*
X43323100Y-32126200D01*
X42071900Y-32126200D01*
X42053463Y-32125294D01*
X42035204Y-32122586D01*
X42017297Y-32118100D01*
X41999917Y-32111882D01*
X41983230Y-32103989D01*
X41967397Y-32094499D01*
X41952571Y-32083503D01*
X41938893Y-32071107D01*
X41926497Y-32057429D01*
X41915501Y-32042603D01*
X41906011Y-32026770D01*
X41898118Y-32010083D01*
X41891900Y-31992703D01*
X41887414Y-31974796D01*
X41884706Y-31956537D01*
X41883800Y-31938100D01*
X41883800Y-31561900D01*
X41884706Y-31543463D01*
X41887414Y-31525204D01*
X41891900Y-31507297D01*
X41898118Y-31489917D01*
X41906011Y-31473230D01*
X41915501Y-31457397D01*
X41926497Y-31442571D01*
X41938893Y-31428893D01*
X41952571Y-31416497D01*
X41967397Y-31405501D01*
X41983230Y-31396011D01*
X41999917Y-31388118D01*
X42017297Y-31381900D01*
X42035204Y-31377414D01*
X42053463Y-31374706D01*
X42071900Y-31373800D01*
X43323100Y-31373800D01*
X43341537Y-31374706D01*
G37*
G36*
X44656537Y-29179706D02*
G01*
X44674796Y-29182414D01*
X44692703Y-29186900D01*
X44710083Y-29193118D01*
X44726770Y-29201011D01*
X44742603Y-29210501D01*
X44757429Y-29221497D01*
X44771107Y-29233893D01*
X44783503Y-29247571D01*
X44794499Y-29262397D01*
X44803989Y-29278230D01*
X44811882Y-29294917D01*
X44818100Y-29312297D01*
X44822586Y-29330204D01*
X44825294Y-29348463D01*
X44826200Y-29366900D01*
X44826200Y-30618100D01*
X44825294Y-30636537D01*
X44822586Y-30654796D01*
X44818100Y-30672703D01*
X44811882Y-30690083D01*
X44803989Y-30706770D01*
X44794499Y-30722603D01*
X44783503Y-30737429D01*
X44771107Y-30751107D01*
X44757429Y-30763503D01*
X44742603Y-30774499D01*
X44726770Y-30783989D01*
X44710083Y-30791882D01*
X44692703Y-30798100D01*
X44674796Y-30802586D01*
X44656537Y-30805294D01*
X44638100Y-30806200D01*
X44261900Y-30806200D01*
X44243463Y-30805294D01*
X44225204Y-30802586D01*
X44207297Y-30798100D01*
X44189917Y-30791882D01*
X44173230Y-30783989D01*
X44157397Y-30774499D01*
X44142571Y-30763503D01*
X44128893Y-30751107D01*
X44116497Y-30737429D01*
X44105501Y-30722603D01*
X44096011Y-30706770D01*
X44088118Y-30690083D01*
X44081900Y-30672703D01*
X44077414Y-30654796D01*
X44074706Y-30636537D01*
X44073800Y-30618100D01*
X44073800Y-29366900D01*
X44074706Y-29348463D01*
X44077414Y-29330204D01*
X44081900Y-29312297D01*
X44088118Y-29294917D01*
X44096011Y-29278230D01*
X44105501Y-29262397D01*
X44116497Y-29247571D01*
X44128893Y-29233893D01*
X44142571Y-29221497D01*
X44157397Y-29210501D01*
X44173230Y-29201011D01*
X44189917Y-29193118D01*
X44207297Y-29186900D01*
X44225204Y-29182414D01*
X44243463Y-29179706D01*
X44261900Y-29178800D01*
X44638100Y-29178800D01*
X44656537Y-29179706D01*
G37*
G36*
X45926537Y-29179706D02*
G01*
X45944796Y-29182414D01*
X45962703Y-29186900D01*
X45980083Y-29193118D01*
X45996770Y-29201011D01*
X46012603Y-29210501D01*
X46027429Y-29221497D01*
X46041107Y-29233893D01*
X46053503Y-29247571D01*
X46064499Y-29262397D01*
X46073989Y-29278230D01*
X46081882Y-29294917D01*
X46088100Y-29312297D01*
X46092586Y-29330204D01*
X46095294Y-29348463D01*
X46096200Y-29366900D01*
X46096200Y-30618100D01*
X46095294Y-30636537D01*
X46092586Y-30654796D01*
X46088100Y-30672703D01*
X46081882Y-30690083D01*
X46073989Y-30706770D01*
X46064499Y-30722603D01*
X46053503Y-30737429D01*
X46041107Y-30751107D01*
X46027429Y-30763503D01*
X46012603Y-30774499D01*
X45996770Y-30783989D01*
X45980083Y-30791882D01*
X45962703Y-30798100D01*
X45944796Y-30802586D01*
X45926537Y-30805294D01*
X45908100Y-30806200D01*
X45531900Y-30806200D01*
X45513463Y-30805294D01*
X45495204Y-30802586D01*
X45477297Y-30798100D01*
X45459917Y-30791882D01*
X45443230Y-30783989D01*
X45427397Y-30774499D01*
X45412571Y-30763503D01*
X45398893Y-30751107D01*
X45386497Y-30737429D01*
X45375501Y-30722603D01*
X45366011Y-30706770D01*
X45358118Y-30690083D01*
X45351900Y-30672703D01*
X45347414Y-30654796D01*
X45344706Y-30636537D01*
X45343800Y-30618100D01*
X45343800Y-29366900D01*
X45344706Y-29348463D01*
X45347414Y-29330204D01*
X45351900Y-29312297D01*
X45358118Y-29294917D01*
X45366011Y-29278230D01*
X45375501Y-29262397D01*
X45386497Y-29247571D01*
X45398893Y-29233893D01*
X45412571Y-29221497D01*
X45427397Y-29210501D01*
X45443230Y-29201011D01*
X45459917Y-29193118D01*
X45477297Y-29186900D01*
X45495204Y-29182414D01*
X45513463Y-29179706D01*
X45531900Y-29178800D01*
X45908100Y-29178800D01*
X45926537Y-29179706D01*
G37*
G36*
X47196537Y-29179706D02*
G01*
X47214796Y-29182414D01*
X47232703Y-29186900D01*
X47250083Y-29193118D01*
X47266770Y-29201011D01*
X47282603Y-29210501D01*
X47297429Y-29221497D01*
X47311107Y-29233893D01*
X47323503Y-29247571D01*
X47334499Y-29262397D01*
X47343989Y-29278230D01*
X47351882Y-29294917D01*
X47358100Y-29312297D01*
X47362586Y-29330204D01*
X47365294Y-29348463D01*
X47366200Y-29366900D01*
X47366200Y-30618100D01*
X47365294Y-30636537D01*
X47362586Y-30654796D01*
X47358100Y-30672703D01*
X47351882Y-30690083D01*
X47343989Y-30706770D01*
X47334499Y-30722603D01*
X47323503Y-30737429D01*
X47311107Y-30751107D01*
X47297429Y-30763503D01*
X47282603Y-30774499D01*
X47266770Y-30783989D01*
X47250083Y-30791882D01*
X47232703Y-30798100D01*
X47214796Y-30802586D01*
X47196537Y-30805294D01*
X47178100Y-30806200D01*
X46801900Y-30806200D01*
X46783463Y-30805294D01*
X46765204Y-30802586D01*
X46747297Y-30798100D01*
X46729917Y-30791882D01*
X46713230Y-30783989D01*
X46697397Y-30774499D01*
X46682571Y-30763503D01*
X46668893Y-30751107D01*
X46656497Y-30737429D01*
X46645501Y-30722603D01*
X46636011Y-30706770D01*
X46628118Y-30690083D01*
X46621900Y-30672703D01*
X46617414Y-30654796D01*
X46614706Y-30636537D01*
X46613800Y-30618100D01*
X46613800Y-29366900D01*
X46614706Y-29348463D01*
X46617414Y-29330204D01*
X46621900Y-29312297D01*
X46628118Y-29294917D01*
X46636011Y-29278230D01*
X46645501Y-29262397D01*
X46656497Y-29247571D01*
X46668893Y-29233893D01*
X46682571Y-29221497D01*
X46697397Y-29210501D01*
X46713230Y-29201011D01*
X46729917Y-29193118D01*
X46747297Y-29186900D01*
X46765204Y-29182414D01*
X46783463Y-29179706D01*
X46801900Y-29178800D01*
X47178100Y-29178800D01*
X47196537Y-29179706D01*
G37*
G36*
X48466537Y-29179706D02*
G01*
X48484796Y-29182414D01*
X48502703Y-29186900D01*
X48520083Y-29193118D01*
X48536770Y-29201011D01*
X48552603Y-29210501D01*
X48567429Y-29221497D01*
X48581107Y-29233893D01*
X48593503Y-29247571D01*
X48604499Y-29262397D01*
X48613989Y-29278230D01*
X48621882Y-29294917D01*
X48628100Y-29312297D01*
X48632586Y-29330204D01*
X48635294Y-29348463D01*
X48636200Y-29366900D01*
X48636200Y-30618100D01*
X48635294Y-30636537D01*
X48632586Y-30654796D01*
X48628100Y-30672703D01*
X48621882Y-30690083D01*
X48613989Y-30706770D01*
X48604499Y-30722603D01*
X48593503Y-30737429D01*
X48581107Y-30751107D01*
X48567429Y-30763503D01*
X48552603Y-30774499D01*
X48536770Y-30783989D01*
X48520083Y-30791882D01*
X48502703Y-30798100D01*
X48484796Y-30802586D01*
X48466537Y-30805294D01*
X48448100Y-30806200D01*
X48071900Y-30806200D01*
X48053463Y-30805294D01*
X48035204Y-30802586D01*
X48017297Y-30798100D01*
X47999917Y-30791882D01*
X47983230Y-30783989D01*
X47967397Y-30774499D01*
X47952571Y-30763503D01*
X47938893Y-30751107D01*
X47926497Y-30737429D01*
X47915501Y-30722603D01*
X47906011Y-30706770D01*
X47898118Y-30690083D01*
X47891900Y-30672703D01*
X47887414Y-30654796D01*
X47884706Y-30636537D01*
X47883800Y-30618100D01*
X47883800Y-29366900D01*
X47884706Y-29348463D01*
X47887414Y-29330204D01*
X47891900Y-29312297D01*
X47898118Y-29294917D01*
X47906011Y-29278230D01*
X47915501Y-29262397D01*
X47926497Y-29247571D01*
X47938893Y-29233893D01*
X47952571Y-29221497D01*
X47967397Y-29210501D01*
X47983230Y-29201011D01*
X47999917Y-29193118D01*
X48017297Y-29186900D01*
X48035204Y-29182414D01*
X48053463Y-29179706D01*
X48071900Y-29178800D01*
X48448100Y-29178800D01*
X48466537Y-29179706D01*
G37*
D16*
X43180000Y-53340000D03*
X53340000Y-53340000D03*
X43180000Y-20320000D03*
D17*
X49784000Y-51943000D03*
X46736000Y-51943000D03*
M02*
