G04 #@! TF.GenerationSoftware,KiCad,Pcbnew,7.0.10*
G04 #@! TF.CreationDate,2024-03-05T04:01:16-05:00*
G04 #@! TF.ProjectId,GW28R8128,47573238-5238-4313-9238-2e6b69636164,rev?*
G04 #@! TF.SameCoordinates,Original*
G04 #@! TF.FileFunction,Legend,Top*
G04 #@! TF.FilePolarity,Positive*
%FSLAX46Y46*%
G04 Gerber Fmt 4.6, Leading zero omitted, Abs format (unit mm)*
G04 Created by KiCad (PCBNEW 7.0.10) date 2024-03-05 04:01:16*
%MOMM*%
%LPD*%
G01*
G04 APERTURE LIST*
G04 Aperture macros list*
%AMRoundRect*
0 Rectangle with rounded corners*
0 $1 Rounding radius*
0 $2 $3 $4 $5 $6 $7 $8 $9 X,Y pos of 4 corners*
0 Add a 4 corners polygon primitive as box body*
4,1,4,$2,$3,$4,$5,$6,$7,$8,$9,$2,$3,0*
0 Add four circle primitives for the rounded corners*
1,1,$1+$1,$2,$3*
1,1,$1+$1,$4,$5*
1,1,$1+$1,$6,$7*
1,1,$1+$1,$8,$9*
0 Add four rect primitives between the rounded corners*
20,1,$1+$1,$2,$3,$4,$5,0*
20,1,$1+$1,$4,$5,$6,$7,0*
20,1,$1+$1,$6,$7,$8,$9,0*
20,1,$1+$1,$8,$9,$2,$3,0*%
G04 Aperture macros list end*
%ADD10C,0.200000*%
%ADD11C,1.280000*%
%ADD12C,0.203200*%
%ADD13C,0.152400*%
%ADD14C,0.127000*%
%ADD15RoundRect,0.175000X-0.175000X-0.612500X0.175000X-0.612500X0.175000X0.612500X-0.175000X0.612500X0*%
%ADD16RoundRect,0.175000X-0.612500X-0.175000X0.612500X-0.175000X0.612500X0.175000X-0.612500X0.175000X0*%
%ADD17RoundRect,0.287500X-0.462500X0.287500X-0.462500X-0.287500X0.462500X-0.287500X0.462500X0.287500X0*%
%ADD18RoundRect,0.237500X0.237500X0.512500X-0.237500X0.512500X-0.237500X-0.512500X0.237500X-0.512500X0*%
%ADD19RoundRect,0.237500X-0.237500X-0.512500X0.237500X-0.512500X0.237500X0.512500X-0.237500X0.512500X0*%
%ADD20RoundRect,0.630000X-0.270000X-0.560000X0.270000X-0.560000X0.270000X0.560000X-0.270000X0.560000X0*%
%ADD21RoundRect,0.250000X-0.650000X-0.250000X0.650000X-0.250000X0.650000X0.250000X-0.650000X0.250000X0*%
%ADD22RoundRect,0.325000X0.325000X1.125000X-0.325000X1.125000X-0.325000X-1.125000X0.325000X-1.125000X0*%
%ADD23RoundRect,0.330000X0.770000X0.970000X-0.770000X0.970000X-0.770000X-0.970000X0.770000X-0.970000X0*%
%ADD24RoundRect,0.287500X-0.287500X-0.462500X0.287500X-0.462500X0.287500X0.462500X-0.287500X0.462500X0*%
G04 APERTURE END LIST*
D10*
X46990000Y-20066000D02*
X49530000Y-20066000D01*
X49530000Y-20066000D02*
X49530000Y-19177000D01*
X46990000Y-19177000D02*
X46990000Y-20066000D01*
D11*
X44196000Y-22352000D02*
G75*
G03*
X43434000Y-22352000I-381000J0D01*
G01*
X43434000Y-22352000D02*
G75*
G03*
X44196000Y-22352000I381000J0D01*
G01*
D12*
X47640723Y-36382649D02*
X47640723Y-37040630D01*
X47640723Y-37040630D02*
X47679428Y-37118040D01*
X47679428Y-37118040D02*
X47718133Y-37156745D01*
X47718133Y-37156745D02*
X47795542Y-37195449D01*
X47795542Y-37195449D02*
X47950361Y-37195449D01*
X47950361Y-37195449D02*
X48027771Y-37156745D01*
X48027771Y-37156745D02*
X48066476Y-37118040D01*
X48066476Y-37118040D02*
X48105180Y-37040630D01*
X48105180Y-37040630D02*
X48105180Y-36382649D01*
X48917981Y-37195449D02*
X48453524Y-37195449D01*
X48685752Y-37195449D02*
X48685752Y-36382649D01*
X48685752Y-36382649D02*
X48608343Y-36498764D01*
X48608343Y-36498764D02*
X48530933Y-36576173D01*
X48530933Y-36576173D02*
X48453524Y-36614878D01*
X48199697Y-22432432D02*
X48199697Y-22703366D01*
X48625449Y-22703366D02*
X47812649Y-22703366D01*
X47812649Y-22703366D02*
X47812649Y-22316318D01*
X48625449Y-21580927D02*
X48625449Y-22045384D01*
X48625449Y-21813156D02*
X47812649Y-21813156D01*
X47812649Y-21813156D02*
X47928764Y-21890565D01*
X47928764Y-21890565D02*
X48006173Y-21967975D01*
X48006173Y-21967975D02*
X48044878Y-22045384D01*
X46244449Y-27142923D02*
X45431649Y-27142923D01*
X45431649Y-27142923D02*
X45431649Y-26949399D01*
X45431649Y-26949399D02*
X45470354Y-26833285D01*
X45470354Y-26833285D02*
X45547764Y-26755875D01*
X45547764Y-26755875D02*
X45625173Y-26717170D01*
X45625173Y-26717170D02*
X45779992Y-26678466D01*
X45779992Y-26678466D02*
X45896106Y-26678466D01*
X45896106Y-26678466D02*
X46050925Y-26717170D01*
X46050925Y-26717170D02*
X46128335Y-26755875D01*
X46128335Y-26755875D02*
X46205745Y-26833285D01*
X46205745Y-26833285D02*
X46244449Y-26949399D01*
X46244449Y-26949399D02*
X46244449Y-27142923D01*
X46244449Y-25904370D02*
X46244449Y-26368827D01*
X46244449Y-26136599D02*
X45431649Y-26136599D01*
X45431649Y-26136599D02*
X45547764Y-26214008D01*
X45547764Y-26214008D02*
X45625173Y-26291418D01*
X45625173Y-26291418D02*
X45663878Y-26368827D01*
D13*
X54085000Y-29735000D02*
X54085000Y-31190000D01*
X52630000Y-29735000D02*
X54085000Y-29735000D01*
X43890000Y-29735000D02*
X43607218Y-29735000D01*
X43607218Y-29735000D02*
X42435000Y-30907218D01*
X42435000Y-30907218D02*
X42435000Y-31190000D01*
X54085000Y-43925000D02*
X54085000Y-42470000D01*
X52630000Y-43925000D02*
X54085000Y-43925000D01*
X43890000Y-43925000D02*
X42435000Y-43925000D01*
X42435000Y-43925000D02*
X42435000Y-42470000D01*
X54013000Y-20763600D02*
X54013000Y-21576400D01*
X52413000Y-20763600D02*
X52413000Y-21576400D01*
X47396400Y-49695000D02*
X46583600Y-49695000D01*
X47396400Y-48095000D02*
X46583600Y-48095000D01*
X50899100Y-24092000D02*
X51711900Y-24092000D01*
X50899100Y-25692000D02*
X51711900Y-25692000D01*
D14*
X49434000Y-51343000D02*
X50134000Y-51343000D01*
X50134000Y-52543000D02*
X49434000Y-52543000D01*
X46386000Y-51343000D02*
X47086000Y-51343000D01*
X47086000Y-52543000D02*
X46386000Y-52543000D01*
X49960000Y-23711500D02*
X46560000Y-23711500D01*
X49960000Y-20611500D02*
X46560000Y-20611500D01*
X48329000Y-28693000D02*
X48329000Y-28003500D01*
X48329000Y-28693000D02*
X44379000Y-28693000D01*
X48329000Y-25082500D02*
X48329000Y-24393000D01*
X48329000Y-24393000D02*
X44379000Y-24393000D01*
D13*
X50838100Y-26441500D02*
X51650900Y-26441500D01*
X50838100Y-28041500D02*
X51650900Y-28041500D01*
%LPC*%
D15*
X48260000Y-29992500D03*
X46990000Y-29992500D03*
X45720000Y-29992500D03*
X44450000Y-29992500D03*
D16*
X42697500Y-31750000D03*
X42697500Y-33020000D03*
X42697500Y-34290000D03*
X42697500Y-35560000D03*
X42697500Y-36830000D03*
X42697500Y-38100000D03*
X42697500Y-39370000D03*
X42697500Y-40640000D03*
X42697500Y-41910000D03*
D15*
X44450000Y-43667500D03*
X45720000Y-43667500D03*
X46990000Y-43667500D03*
X48260000Y-43667500D03*
X49530000Y-43667500D03*
X50800000Y-43667500D03*
X52070000Y-43667500D03*
D16*
X53822500Y-41910000D03*
X53822500Y-40640000D03*
X53822500Y-39370000D03*
X53822500Y-38100000D03*
X53822500Y-36830000D03*
X53822500Y-35560000D03*
X53822500Y-34290000D03*
X53822500Y-33020000D03*
X53822500Y-31750000D03*
D15*
X52070000Y-29992500D03*
X50800000Y-29992500D03*
X49530000Y-29992500D03*
D17*
X53213000Y-20320000D03*
X53213000Y-22020000D03*
D18*
X47940000Y-48895000D03*
X46040000Y-48895000D03*
D19*
X50355500Y-24892000D03*
X52255500Y-24892000D03*
D20*
X40640000Y-20320000D03*
X40640000Y-22860000D03*
X40640000Y-25400000D03*
X40640000Y-27940000D03*
X40640000Y-30480000D03*
X40640000Y-33020000D03*
X40640000Y-35560000D03*
X40640000Y-38100000D03*
X40640000Y-40640000D03*
X40640000Y-43180000D03*
X40640000Y-45720000D03*
X40640000Y-48260000D03*
X40640000Y-50800000D03*
X40640000Y-53340000D03*
X55880000Y-53340000D03*
X55880000Y-50800000D03*
X55880000Y-48260000D03*
X55880000Y-45720000D03*
X55880000Y-43180000D03*
X55880000Y-40640000D03*
X55880000Y-38100000D03*
X55880000Y-35560000D03*
X55880000Y-33020000D03*
X55880000Y-30480000D03*
X55880000Y-27940000D03*
X55880000Y-25400000D03*
X55880000Y-22860000D03*
X55880000Y-20320000D03*
D21*
X49784000Y-51943000D03*
X46736000Y-51943000D03*
D22*
X49760000Y-22161500D03*
X46760000Y-22161500D03*
D23*
X47879000Y-26543000D03*
X43879000Y-26543000D03*
D24*
X50394500Y-27241500D03*
X52094500Y-27241500D03*
%LPD*%
M02*
