G04 #@! TF.GenerationSoftware,KiCad,Pcbnew,7.0.1-0*
G04 #@! TF.CreationDate,2023-12-28T18:54:55-05:00*
G04 #@! TF.ProjectId,GW28R8128,47573238-5238-4313-9238-2e6b69636164,rev?*
G04 #@! TF.SameCoordinates,Original*
G04 #@! TF.FileFunction,Copper,L2,Bot*
G04 #@! TF.FilePolarity,Positive*
%FSLAX46Y46*%
G04 Gerber Fmt 4.6, Leading zero omitted, Abs format (unit mm)*
G04 Created by KiCad (PCBNEW 7.0.1-0) date 2023-12-28 18:54:55*
%MOMM*%
%LPD*%
G01*
G04 APERTURE LIST*
G04 Aperture macros list*
%AMRoundRect*
0 Rectangle with rounded corners*
0 $1 Rounding radius*
0 $2 $3 $4 $5 $6 $7 $8 $9 X,Y pos of 4 corners*
0 Add a 4 corners polygon primitive as box body*
4,1,4,$2,$3,$4,$5,$6,$7,$8,$9,$2,$3,0*
0 Add four circle primitives for the rounded corners*
1,1,$1+$1,$2,$3*
1,1,$1+$1,$4,$5*
1,1,$1+$1,$6,$7*
1,1,$1+$1,$8,$9*
0 Add four rect primitives between the rounded corners*
20,1,$1+$1,$2,$3,$4,$5,0*
20,1,$1+$1,$4,$5,$6,$7,0*
20,1,$1+$1,$6,$7,$8,$9,0*
20,1,$1+$1,$8,$9,$2,$3,0*%
G04 Aperture macros list end*
G04 #@! TA.AperFunction,ComponentPad*
%ADD10RoundRect,0.595000X-0.255000X-0.545000X0.255000X-0.545000X0.255000X0.545000X-0.255000X0.545000X0*%
G04 #@! TD*
G04 #@! TA.AperFunction,ViaPad*
%ADD11C,0.600000*%
G04 #@! TD*
G04 #@! TA.AperFunction,ViaPad*
%ADD12C,0.800000*%
G04 #@! TD*
G04 #@! TA.AperFunction,ViaPad*
%ADD13C,1.000000*%
G04 #@! TD*
G04 #@! TA.AperFunction,Conductor*
%ADD14C,0.152400*%
G04 #@! TD*
G04 #@! TA.AperFunction,Conductor*
%ADD15C,0.150000*%
G04 #@! TD*
G04 APERTURE END LIST*
D10*
X40640000Y-20320000D03*
X40640000Y-22860000D03*
X40640000Y-25400000D03*
X40640000Y-27940000D03*
X40640000Y-30480000D03*
X40640000Y-33020000D03*
X40640000Y-35560000D03*
X40640000Y-38100000D03*
X40640000Y-40640000D03*
X40640000Y-43180000D03*
X40640000Y-45720000D03*
X40640000Y-48260000D03*
X40640000Y-50800000D03*
X40640000Y-53340000D03*
X55880000Y-53340000D03*
X55880000Y-50800000D03*
X55880000Y-48260000D03*
X55880000Y-45720000D03*
X55880000Y-43180000D03*
X55880000Y-40640000D03*
X55880000Y-38100000D03*
X55880000Y-35560000D03*
X55880000Y-33020000D03*
X55880000Y-30480000D03*
X55880000Y-27940000D03*
X55880000Y-25400000D03*
X55880000Y-22860000D03*
X55880000Y-20320000D03*
D11*
X53975000Y-50165000D03*
X53975000Y-46355000D03*
X51435000Y-40640000D03*
X42291000Y-53340000D03*
X46990000Y-44958000D03*
X54356000Y-30226000D03*
X54356000Y-26098500D03*
X45974000Y-36258500D03*
X52070000Y-31242000D03*
D12*
X53149500Y-27178000D03*
D13*
X51870000Y-22020000D03*
X53213000Y-23177500D03*
D11*
X54356000Y-28194000D03*
X52070000Y-26105500D03*
X46101000Y-50038000D03*
D13*
X43878500Y-28448000D03*
D11*
X48260000Y-31242000D03*
X46990000Y-42418000D03*
X52070000Y-28702000D03*
D13*
X43878500Y-24638000D03*
D11*
X43942000Y-35560000D03*
X52578000Y-34290000D03*
X42418000Y-30734000D03*
X43942000Y-33020000D03*
X43942000Y-34290000D03*
X43942000Y-40640000D03*
X52578000Y-35560000D03*
X42735500Y-29464000D03*
X52578000Y-33020000D03*
X44386500Y-31623000D03*
X49276000Y-36639500D03*
X53149500Y-24892000D03*
X50800000Y-31178500D03*
D14*
X43180000Y-35560000D02*
X43942000Y-35560000D01*
X40640000Y-33020000D02*
X43180000Y-35560000D01*
X53467000Y-33401000D02*
X53467000Y-30353000D01*
X52578000Y-34290000D02*
X53467000Y-33401000D01*
X53467000Y-30353000D02*
X55880000Y-27940000D01*
D15*
X41846500Y-28702000D02*
X41846500Y-26606500D01*
X42418000Y-30734000D02*
X42164000Y-30480000D01*
X42164000Y-30480000D02*
X42164000Y-29019500D01*
X42164000Y-29019500D02*
X41846500Y-28702000D01*
X41846500Y-26606500D02*
X40640000Y-25400000D01*
D14*
X41846500Y-30924500D02*
X43942000Y-33020000D01*
X40640000Y-27940000D02*
X41846500Y-29146500D01*
X41846500Y-29146500D02*
X41846500Y-30924500D01*
X42672000Y-32766000D02*
X42672000Y-33528000D01*
X42672000Y-33528000D02*
X43434000Y-34290000D01*
X43434000Y-34290000D02*
X43942000Y-34290000D01*
X40640000Y-30480000D02*
X40640000Y-30734000D01*
X40640000Y-30734000D02*
X42672000Y-32766000D01*
X43942000Y-40640000D02*
X43180000Y-40640000D01*
X43180000Y-40640000D02*
X40640000Y-43180000D01*
X52578000Y-35560000D02*
X54229000Y-33909000D01*
X54229000Y-33909000D02*
X54229000Y-32131000D01*
X54229000Y-32131000D02*
X55880000Y-30480000D01*
D15*
X42735500Y-29464000D02*
X42735500Y-29146500D01*
X42735500Y-29146500D02*
X42164000Y-28575000D01*
X42164000Y-28575000D02*
X42164000Y-26479500D01*
X41846500Y-24066500D02*
X40640000Y-22860000D01*
X41846500Y-26162000D02*
X41846500Y-24066500D01*
X42164000Y-26479500D02*
X41846500Y-26162000D01*
D14*
X52705000Y-32893000D02*
X52705000Y-28575000D01*
X52578000Y-33020000D02*
X52705000Y-32893000D01*
X52705000Y-28575000D02*
X55880000Y-25400000D01*
D15*
X41846500Y-21526500D02*
X41846500Y-23622000D01*
X42481500Y-26352500D02*
X42481500Y-28448000D01*
X42164000Y-23939500D02*
X42164000Y-26035000D01*
X40640000Y-20320000D02*
X41846500Y-21526500D01*
X42164000Y-26035000D02*
X42481500Y-26352500D01*
X44386500Y-30353000D02*
X44386500Y-31623000D01*
X42481500Y-28448000D02*
X44386500Y-30353000D01*
X41846500Y-23622000D02*
X42164000Y-23939500D01*
D14*
X49466500Y-36449000D02*
X54991000Y-36449000D01*
X54991000Y-36449000D02*
X55880000Y-35560000D01*
X49276000Y-36639500D02*
X49466500Y-36449000D01*
D15*
X50800000Y-31178500D02*
X50800000Y-28606750D01*
X50800000Y-28606750D02*
X53149500Y-26257250D01*
X53149500Y-26257250D02*
X53149500Y-24892000D01*
G04 #@! TA.AperFunction,Conductor*
G36*
X54953400Y-19111375D02*
G01*
X54980925Y-19138900D01*
X54991000Y-19176500D01*
X54991000Y-19356910D01*
X54979804Y-19396388D01*
X54942558Y-19456771D01*
X54887565Y-19622730D01*
X54877100Y-19725171D01*
X54877100Y-20914829D01*
X54887565Y-21017269D01*
X54942558Y-21183228D01*
X54979804Y-21243612D01*
X54991000Y-21283090D01*
X54991000Y-21896910D01*
X54979804Y-21936388D01*
X54942558Y-21996771D01*
X54887565Y-22162730D01*
X54877100Y-22265171D01*
X54877100Y-23454829D01*
X54887565Y-23557269D01*
X54942558Y-23723228D01*
X54979804Y-23783612D01*
X54991000Y-23823090D01*
X54991000Y-24436910D01*
X54979804Y-24476388D01*
X54942558Y-24536771D01*
X54887565Y-24702730D01*
X54877100Y-24805171D01*
X54877100Y-25994830D01*
X54881261Y-26035562D01*
X54877300Y-26068409D01*
X54859624Y-26096377D01*
X52548631Y-28407370D01*
X52545778Y-28410079D01*
X52515514Y-28437330D01*
X52505447Y-28459938D01*
X52499821Y-28470299D01*
X52486338Y-28491064D01*
X52484986Y-28499597D01*
X52479414Y-28518409D01*
X52475900Y-28526303D01*
X52475900Y-28551054D01*
X52474974Y-28562819D01*
X52471102Y-28587257D01*
X52473338Y-28595599D01*
X52475900Y-28615062D01*
X52475900Y-32521665D01*
X52460901Y-32566730D01*
X52421887Y-32593819D01*
X52387921Y-32603792D01*
X52278365Y-32674199D01*
X52193078Y-32772626D01*
X52138977Y-32891089D01*
X52120443Y-33020000D01*
X52138977Y-33148910D01*
X52193078Y-33267373D01*
X52193079Y-33267374D01*
X52278364Y-33365799D01*
X52387924Y-33436208D01*
X52512883Y-33472900D01*
X52643116Y-33472900D01*
X52643117Y-33472900D01*
X52768076Y-33436208D01*
X52877636Y-33365799D01*
X52962921Y-33267374D01*
X53017023Y-33148909D01*
X53035557Y-33020000D01*
X53017023Y-32891091D01*
X53017022Y-32891088D01*
X52962922Y-32772626D01*
X52952468Y-32760562D01*
X52938841Y-32737596D01*
X52934100Y-32711316D01*
X52934100Y-28701044D01*
X52939824Y-28672266D01*
X52956126Y-28647870D01*
X54862626Y-26741371D01*
X54901129Y-26720790D01*
X54944578Y-26725069D01*
X54978327Y-26752766D01*
X54991000Y-26794545D01*
X54991000Y-26976910D01*
X54979804Y-27016388D01*
X54942558Y-27076771D01*
X54887565Y-27242730D01*
X54877100Y-27345171D01*
X54877100Y-28534830D01*
X54881261Y-28575562D01*
X54877300Y-28608409D01*
X54859624Y-28636377D01*
X53310631Y-30185370D01*
X53307778Y-30188079D01*
X53277514Y-30215330D01*
X53267447Y-30237938D01*
X53261821Y-30248299D01*
X53248338Y-30269064D01*
X53246986Y-30277597D01*
X53241414Y-30296409D01*
X53237900Y-30304303D01*
X53237900Y-30329054D01*
X53236974Y-30340819D01*
X53233102Y-30365257D01*
X53235338Y-30373599D01*
X53237900Y-30393062D01*
X53237900Y-33274955D01*
X53232176Y-33303733D01*
X53215874Y-33328130D01*
X52723973Y-33820028D01*
X52689397Y-33839717D01*
X52649615Y-33839007D01*
X52643120Y-33837100D01*
X52643117Y-33837100D01*
X52512883Y-33837100D01*
X52476192Y-33847873D01*
X52387925Y-33873791D01*
X52352214Y-33896741D01*
X52278364Y-33944201D01*
X52278363Y-33944201D01*
X52278363Y-33944202D01*
X52193078Y-34042626D01*
X52138977Y-34161089D01*
X52120443Y-34290000D01*
X52138977Y-34418910D01*
X52193078Y-34537373D01*
X52193079Y-34537374D01*
X52278364Y-34635799D01*
X52387924Y-34706208D01*
X52512883Y-34742900D01*
X52643116Y-34742900D01*
X52643117Y-34742900D01*
X52768076Y-34706208D01*
X52877636Y-34635799D01*
X52962921Y-34537374D01*
X53017023Y-34418909D01*
X53035557Y-34290000D01*
X53024124Y-34210482D01*
X53027207Y-34176036D01*
X53045383Y-34146612D01*
X53623383Y-33568612D01*
X53626199Y-33565939D01*
X53656486Y-33538670D01*
X53666550Y-33516063D01*
X53672175Y-33505702D01*
X53685662Y-33484936D01*
X53687013Y-33476400D01*
X53692589Y-33457580D01*
X53696100Y-33449697D01*
X53696100Y-33424947D01*
X53697026Y-33413183D01*
X53700897Y-33388741D01*
X53698662Y-33380399D01*
X53696100Y-33360936D01*
X53696100Y-30479044D01*
X53701824Y-30450266D01*
X53718126Y-30425870D01*
X54862626Y-29281370D01*
X54901129Y-29260789D01*
X54944578Y-29265068D01*
X54978327Y-29292765D01*
X54991000Y-29334544D01*
X54991000Y-29516910D01*
X54979804Y-29556388D01*
X54942558Y-29616771D01*
X54887565Y-29782730D01*
X54887564Y-29782732D01*
X54887565Y-29782732D01*
X54880360Y-29853262D01*
X54877100Y-29885171D01*
X54877100Y-31074830D01*
X54881261Y-31115562D01*
X54877300Y-31148409D01*
X54859624Y-31176377D01*
X54072631Y-31963370D01*
X54069778Y-31966079D01*
X54039514Y-31993330D01*
X54029447Y-32015938D01*
X54023821Y-32026299D01*
X54010338Y-32047064D01*
X54008986Y-32055597D01*
X54003414Y-32074409D01*
X53999900Y-32082303D01*
X53999900Y-32107054D01*
X53998974Y-32118819D01*
X53995102Y-32143257D01*
X53997338Y-32151599D01*
X53999900Y-32171062D01*
X53999900Y-33782956D01*
X53994176Y-33811734D01*
X53977874Y-33836130D01*
X52723974Y-35090027D01*
X52689399Y-35109717D01*
X52649617Y-35109008D01*
X52643118Y-35107100D01*
X52643117Y-35107100D01*
X52512883Y-35107100D01*
X52476191Y-35117873D01*
X52387925Y-35143791D01*
X52333144Y-35178996D01*
X52278364Y-35214201D01*
X52278363Y-35214201D01*
X52278363Y-35214202D01*
X52193078Y-35312626D01*
X52138977Y-35431089D01*
X52120443Y-35560000D01*
X52138977Y-35688910D01*
X52193078Y-35807373D01*
X52193079Y-35807374D01*
X52278364Y-35905799D01*
X52387924Y-35976208D01*
X52512883Y-36012900D01*
X52643116Y-36012900D01*
X52643117Y-36012900D01*
X52768076Y-35976208D01*
X52877636Y-35905799D01*
X52962921Y-35807374D01*
X53017023Y-35688909D01*
X53035557Y-35560000D01*
X53024124Y-35480481D01*
X53027207Y-35446035D01*
X53045383Y-35416611D01*
X54385373Y-34076621D01*
X54388189Y-34073948D01*
X54418486Y-34046670D01*
X54428554Y-34024056D01*
X54434183Y-34013691D01*
X54436319Y-34010402D01*
X54447662Y-33992936D01*
X54449013Y-33984400D01*
X54454589Y-33965580D01*
X54458100Y-33957697D01*
X54458100Y-33932947D01*
X54459026Y-33921183D01*
X54462897Y-33896741D01*
X54460662Y-33888399D01*
X54458100Y-33868936D01*
X54458100Y-32257044D01*
X54463824Y-32228266D01*
X54480126Y-32203870D01*
X54862626Y-31821370D01*
X54901129Y-31800789D01*
X54944578Y-31805068D01*
X54978327Y-31832765D01*
X54991000Y-31874544D01*
X54991000Y-32056910D01*
X54979804Y-32096386D01*
X54966272Y-32118326D01*
X54942558Y-32156771D01*
X54887565Y-32322730D01*
X54877100Y-32425171D01*
X54877100Y-33614829D01*
X54887565Y-33717269D01*
X54919653Y-33814104D01*
X54942558Y-33883228D01*
X54973225Y-33932947D01*
X54979804Y-33943612D01*
X54991000Y-33983090D01*
X54991000Y-34596910D01*
X54979804Y-34636388D01*
X54942558Y-34696771D01*
X54887565Y-34862730D01*
X54877100Y-34965171D01*
X54877101Y-36144700D01*
X54867026Y-36182300D01*
X54839501Y-36209825D01*
X54801901Y-36219900D01*
X49474470Y-36219900D01*
X49470534Y-36219797D01*
X49465788Y-36219548D01*
X49459415Y-36219214D01*
X49442167Y-36216271D01*
X49341117Y-36186600D01*
X49210883Y-36186600D01*
X49174191Y-36197373D01*
X49085925Y-36223291D01*
X49033056Y-36257268D01*
X48976364Y-36293701D01*
X48976363Y-36293701D01*
X48976363Y-36293702D01*
X48891078Y-36392126D01*
X48836977Y-36510589D01*
X48818443Y-36639499D01*
X48836977Y-36768410D01*
X48891078Y-36886873D01*
X48891079Y-36886874D01*
X48976364Y-36985299D01*
X49085924Y-37055708D01*
X49210883Y-37092400D01*
X49341116Y-37092400D01*
X49341117Y-37092400D01*
X49466076Y-37055708D01*
X49575636Y-36985299D01*
X49660921Y-36886874D01*
X49715023Y-36768409D01*
X49718734Y-36742596D01*
X49731913Y-36709679D01*
X49758710Y-36686460D01*
X49793169Y-36678100D01*
X54915800Y-36678100D01*
X54953400Y-36688175D01*
X54980925Y-36715700D01*
X54991000Y-36753300D01*
X54991000Y-37136910D01*
X54979804Y-37176388D01*
X54942558Y-37236771D01*
X54887565Y-37402730D01*
X54877100Y-37505171D01*
X54877100Y-38694829D01*
X54887565Y-38797269D01*
X54942558Y-38963228D01*
X54979804Y-39023612D01*
X54991000Y-39063090D01*
X54991000Y-39676910D01*
X54979804Y-39716388D01*
X54942558Y-39776771D01*
X54887565Y-39942730D01*
X54877100Y-40045171D01*
X54877100Y-41234829D01*
X54887565Y-41337269D01*
X54942558Y-41503228D01*
X54979804Y-41563612D01*
X54991000Y-41603090D01*
X54991000Y-42216910D01*
X54979804Y-42256388D01*
X54942558Y-42316771D01*
X54887565Y-42482730D01*
X54877100Y-42585171D01*
X54877100Y-43774829D01*
X54887565Y-43877269D01*
X54942558Y-44043228D01*
X54979804Y-44103612D01*
X54991000Y-44143090D01*
X54991000Y-44756910D01*
X54979804Y-44796388D01*
X54942558Y-44856771D01*
X54887565Y-45022730D01*
X54877100Y-45125171D01*
X54877100Y-46314829D01*
X54887565Y-46417269D01*
X54942558Y-46583228D01*
X54979804Y-46643612D01*
X54991000Y-46683090D01*
X54991000Y-47296910D01*
X54979804Y-47336388D01*
X54942558Y-47396771D01*
X54887565Y-47562730D01*
X54877100Y-47665171D01*
X54877100Y-48854829D01*
X54887565Y-48957269D01*
X54942558Y-49123228D01*
X54979804Y-49183612D01*
X54991000Y-49223090D01*
X54991000Y-49836910D01*
X54979804Y-49876388D01*
X54942558Y-49936771D01*
X54887565Y-50102730D01*
X54877100Y-50205171D01*
X54877100Y-51394829D01*
X54887565Y-51497269D01*
X54942558Y-51663228D01*
X54979804Y-51723612D01*
X54991000Y-51763090D01*
X54991000Y-52376910D01*
X54979804Y-52416386D01*
X54965521Y-52439542D01*
X54942558Y-52476771D01*
X54887565Y-52642730D01*
X54877100Y-52745171D01*
X54877100Y-53934829D01*
X54887555Y-54037167D01*
X54887565Y-54037268D01*
X54942558Y-54203228D01*
X54979216Y-54262660D01*
X54979804Y-54263612D01*
X54991000Y-54303090D01*
X54991000Y-54483500D01*
X54980925Y-54521100D01*
X54953400Y-54548625D01*
X54915800Y-54558700D01*
X41604200Y-54558700D01*
X41566600Y-54548625D01*
X41539075Y-54521100D01*
X41529000Y-54483500D01*
X41529000Y-54302138D01*
X41540196Y-54262660D01*
X41576985Y-54203015D01*
X41631941Y-54037167D01*
X41642400Y-53934798D01*
X41642400Y-53590000D01*
X41604200Y-53590000D01*
X41566600Y-53579925D01*
X41539075Y-53552400D01*
X41529000Y-53514800D01*
X41529000Y-53165200D01*
X41539075Y-53127600D01*
X41566600Y-53100075D01*
X41604200Y-53090000D01*
X41642400Y-53090000D01*
X41642400Y-52745202D01*
X41631941Y-52642832D01*
X41576985Y-52476984D01*
X41540196Y-52417340D01*
X41529000Y-52377862D01*
X41529000Y-51763090D01*
X41540196Y-51723612D01*
X41577442Y-51663228D01*
X41632435Y-51497268D01*
X41642900Y-51394833D01*
X41642899Y-50205168D01*
X41632435Y-50102732D01*
X41577442Y-49936772D01*
X41540195Y-49876386D01*
X41529000Y-49836910D01*
X41529000Y-49223090D01*
X41540196Y-49183612D01*
X41577442Y-49123228D01*
X41632435Y-48957268D01*
X41642900Y-48854833D01*
X41642899Y-47665168D01*
X41632435Y-47562732D01*
X41577442Y-47396772D01*
X41540195Y-47336386D01*
X41529000Y-47296910D01*
X41529000Y-46683090D01*
X41540196Y-46643612D01*
X41577442Y-46583228D01*
X41632435Y-46417268D01*
X41642900Y-46314833D01*
X41642899Y-45125168D01*
X41632435Y-45022732D01*
X41577442Y-44856772D01*
X41540195Y-44796386D01*
X41529000Y-44756910D01*
X41529000Y-44143090D01*
X41540196Y-44103612D01*
X41577442Y-44043228D01*
X41632435Y-43877268D01*
X41642900Y-43774833D01*
X41642899Y-42585168D01*
X41638737Y-42544433D01*
X41642698Y-42511589D01*
X41660372Y-42483622D01*
X43252869Y-40891126D01*
X43277266Y-40874824D01*
X43306044Y-40869100D01*
X43506902Y-40869100D01*
X43538141Y-40875896D01*
X43563733Y-40895054D01*
X43642364Y-40985799D01*
X43751924Y-41056208D01*
X43876883Y-41092900D01*
X44007116Y-41092900D01*
X44007117Y-41092900D01*
X44132076Y-41056208D01*
X44241636Y-40985799D01*
X44326921Y-40887374D01*
X44381023Y-40768909D01*
X44399557Y-40640000D01*
X44381023Y-40511091D01*
X44326921Y-40392626D01*
X44241636Y-40294201D01*
X44132076Y-40223792D01*
X44132075Y-40223791D01*
X44132074Y-40223791D01*
X44059060Y-40202352D01*
X44007117Y-40187100D01*
X43876883Y-40187100D01*
X43840192Y-40197873D01*
X43751925Y-40223791D01*
X43642363Y-40294201D01*
X43563735Y-40384945D01*
X43538141Y-40404104D01*
X43506902Y-40410900D01*
X43187959Y-40410900D01*
X43184024Y-40410797D01*
X43143361Y-40408666D01*
X43143360Y-40408666D01*
X43120248Y-40417536D01*
X43108945Y-40420884D01*
X43084733Y-40426031D01*
X43077746Y-40431107D01*
X43060501Y-40440471D01*
X43052435Y-40443567D01*
X43034929Y-40461072D01*
X43025961Y-40468731D01*
X43005941Y-40483276D01*
X43001624Y-40490755D01*
X42989674Y-40506327D01*
X41657374Y-41838629D01*
X41618871Y-41859210D01*
X41575422Y-41854931D01*
X41541673Y-41827234D01*
X41529000Y-41785455D01*
X41529000Y-41603090D01*
X41540196Y-41563612D01*
X41577442Y-41503228D01*
X41632435Y-41337268D01*
X41642900Y-41234833D01*
X41642899Y-40045168D01*
X41632435Y-39942732D01*
X41577442Y-39776772D01*
X41540195Y-39716386D01*
X41529000Y-39676910D01*
X41529000Y-39063090D01*
X41540196Y-39023612D01*
X41577442Y-38963228D01*
X41632435Y-38797268D01*
X41642900Y-38694833D01*
X41642899Y-37505168D01*
X41632435Y-37402732D01*
X41577442Y-37236772D01*
X41540195Y-37176386D01*
X41529000Y-37136910D01*
X41529000Y-36523090D01*
X41540196Y-36483612D01*
X41577442Y-36423228D01*
X41632435Y-36257268D01*
X41642900Y-36154833D01*
X41642899Y-34965168D01*
X41632435Y-34862732D01*
X41577442Y-34696772D01*
X41540195Y-34636386D01*
X41529000Y-34596910D01*
X41529000Y-34414544D01*
X41541673Y-34372765D01*
X41575422Y-34345068D01*
X41618871Y-34340789D01*
X41657374Y-34361370D01*
X43012359Y-35716355D01*
X43015069Y-35719210D01*
X43042330Y-35749486D01*
X43064946Y-35759555D01*
X43075302Y-35765179D01*
X43096063Y-35778661D01*
X43104586Y-35780011D01*
X43123411Y-35785586D01*
X43131303Y-35789100D01*
X43156060Y-35789100D01*
X43167822Y-35790025D01*
X43192258Y-35793896D01*
X43200595Y-35791662D01*
X43220057Y-35789100D01*
X43506902Y-35789100D01*
X43538141Y-35795896D01*
X43563733Y-35815054D01*
X43642364Y-35905799D01*
X43751924Y-35976208D01*
X43876883Y-36012900D01*
X44007116Y-36012900D01*
X44007117Y-36012900D01*
X44132076Y-35976208D01*
X44241636Y-35905799D01*
X44326921Y-35807374D01*
X44381023Y-35688909D01*
X44399557Y-35560000D01*
X44381023Y-35431091D01*
X44326921Y-35312626D01*
X44241636Y-35214201D01*
X44132076Y-35143792D01*
X44132075Y-35143791D01*
X44132074Y-35143791D01*
X44056424Y-35121578D01*
X44007117Y-35107100D01*
X43876883Y-35107100D01*
X43840191Y-35117873D01*
X43751925Y-35143791D01*
X43642363Y-35214201D01*
X43563735Y-35304945D01*
X43538141Y-35324104D01*
X43506902Y-35330900D01*
X43306045Y-35330900D01*
X43277267Y-35325176D01*
X43252871Y-35308874D01*
X41660375Y-33716378D01*
X41642699Y-33688409D01*
X41638739Y-33655560D01*
X41642900Y-33614833D01*
X41642899Y-32425168D01*
X41632435Y-32322732D01*
X41597290Y-32216670D01*
X41598008Y-32167298D01*
X41629195Y-32129014D01*
X41677403Y-32118326D01*
X41721847Y-32139844D01*
X42420874Y-32838871D01*
X42437176Y-32863267D01*
X42442900Y-32892045D01*
X42442900Y-33520041D01*
X42442797Y-33523976D01*
X42440666Y-33564639D01*
X42449533Y-33587740D01*
X42452883Y-33599050D01*
X42458030Y-33623263D01*
X42463108Y-33630253D01*
X42472472Y-33647500D01*
X42475567Y-33655563D01*
X42475568Y-33655564D01*
X42493069Y-33673065D01*
X42500728Y-33682032D01*
X42515278Y-33702059D01*
X42522756Y-33706376D01*
X42538331Y-33718327D01*
X43266368Y-34446365D01*
X43269079Y-34449221D01*
X43296328Y-34479485D01*
X43296329Y-34479485D01*
X43296330Y-34479486D01*
X43318940Y-34489552D01*
X43329302Y-34495179D01*
X43350064Y-34508662D01*
X43358593Y-34510013D01*
X43377416Y-34515588D01*
X43385303Y-34519100D01*
X43410053Y-34519100D01*
X43421817Y-34520026D01*
X43446258Y-34523897D01*
X43446258Y-34523896D01*
X43446259Y-34523897D01*
X43451158Y-34522584D01*
X43454601Y-34521662D01*
X43474064Y-34519100D01*
X43506902Y-34519100D01*
X43538141Y-34525896D01*
X43563733Y-34545054D01*
X43642364Y-34635799D01*
X43751924Y-34706208D01*
X43876883Y-34742900D01*
X44007116Y-34742900D01*
X44007117Y-34742900D01*
X44132076Y-34706208D01*
X44241636Y-34635799D01*
X44326921Y-34537374D01*
X44381023Y-34418909D01*
X44399557Y-34290000D01*
X44381023Y-34161091D01*
X44326921Y-34042626D01*
X44241636Y-33944201D01*
X44132076Y-33873792D01*
X44132075Y-33873791D01*
X44132074Y-33873791D01*
X44056424Y-33851578D01*
X44007117Y-33837100D01*
X43876883Y-33837100D01*
X43840192Y-33847873D01*
X43751925Y-33873791D01*
X43642360Y-33944203D01*
X43588404Y-34006473D01*
X43554469Y-34028857D01*
X43513843Y-34030308D01*
X43478398Y-34010402D01*
X42923126Y-33455129D01*
X42906824Y-33430733D01*
X42901100Y-33401955D01*
X42901100Y-32773959D01*
X42901203Y-32770024D01*
X42901699Y-32760562D01*
X42903334Y-32729361D01*
X42894463Y-32706253D01*
X42891114Y-32694944D01*
X42885969Y-32670735D01*
X42880891Y-32663746D01*
X42871526Y-32646497D01*
X42868432Y-32638436D01*
X42850925Y-32620929D01*
X42843267Y-32611962D01*
X42828722Y-32591942D01*
X42821239Y-32587621D01*
X42805669Y-32575673D01*
X41609191Y-31379194D01*
X41589192Y-31343362D01*
X41590982Y-31302367D01*
X41614597Y-31231100D01*
X41629637Y-31185710D01*
X41660308Y-31146138D01*
X41709025Y-31134591D01*
X41754194Y-31156190D01*
X43474613Y-32876609D01*
X43492790Y-32906034D01*
X43495874Y-32940483D01*
X43484443Y-33019998D01*
X43502977Y-33148910D01*
X43557078Y-33267373D01*
X43557079Y-33267374D01*
X43642364Y-33365799D01*
X43751924Y-33436208D01*
X43876883Y-33472900D01*
X44007116Y-33472900D01*
X44007117Y-33472900D01*
X44132076Y-33436208D01*
X44241636Y-33365799D01*
X44326921Y-33267374D01*
X44381023Y-33148909D01*
X44399557Y-33020000D01*
X44381023Y-32891091D01*
X44326921Y-32772626D01*
X44241636Y-32674201D01*
X44132076Y-32603792D01*
X44132075Y-32603791D01*
X44132074Y-32603791D01*
X44056424Y-32581578D01*
X44007117Y-32567100D01*
X43876883Y-32567100D01*
X43876882Y-32567100D01*
X43870383Y-32569008D01*
X43830600Y-32569718D01*
X43796024Y-32550028D01*
X42533916Y-31287919D01*
X42512231Y-31241893D01*
X42524813Y-31192595D01*
X42565904Y-31162591D01*
X42608076Y-31150208D01*
X42717636Y-31079799D01*
X42802921Y-30981374D01*
X42857023Y-30862909D01*
X42875557Y-30734000D01*
X42857023Y-30605091D01*
X42802921Y-30486626D01*
X42717636Y-30388201D01*
X42608076Y-30317792D01*
X42608075Y-30317791D01*
X42608074Y-30317791D01*
X42504463Y-30287368D01*
X42483117Y-30281100D01*
X42483116Y-30281100D01*
X42467100Y-30281100D01*
X42429500Y-30271025D01*
X42401975Y-30243500D01*
X42391900Y-30205900D01*
X42391900Y-29919263D01*
X42402427Y-29880891D01*
X42431060Y-29853262D01*
X42469784Y-29844111D01*
X42507754Y-29855999D01*
X42545424Y-29880208D01*
X42670383Y-29916900D01*
X42800616Y-29916900D01*
X42800617Y-29916900D01*
X42925576Y-29880208D01*
X43035136Y-29809799D01*
X43120421Y-29711374D01*
X43170157Y-29602468D01*
X43202522Y-29567706D01*
X43249263Y-29559273D01*
X43291735Y-29580534D01*
X44136574Y-30425374D01*
X44152876Y-30449770D01*
X44158600Y-30478548D01*
X44158600Y-31190037D01*
X44149401Y-31226077D01*
X44124056Y-31253299D01*
X44086864Y-31277201D01*
X44086863Y-31277201D01*
X44086863Y-31277202D01*
X44001578Y-31375626D01*
X43947477Y-31494089D01*
X43928943Y-31623000D01*
X43947477Y-31751910D01*
X44001578Y-31870373D01*
X44001579Y-31870374D01*
X44086864Y-31968799D01*
X44196424Y-32039208D01*
X44321383Y-32075900D01*
X44451616Y-32075900D01*
X44451617Y-32075900D01*
X44576576Y-32039208D01*
X44686136Y-31968799D01*
X44771421Y-31870374D01*
X44825523Y-31751909D01*
X44844057Y-31623000D01*
X44825523Y-31494091D01*
X44771421Y-31375626D01*
X44686136Y-31277201D01*
X44648943Y-31253299D01*
X44623599Y-31226077D01*
X44614400Y-31190037D01*
X44614400Y-31178500D01*
X50342443Y-31178500D01*
X50360977Y-31307410D01*
X50415078Y-31425873D01*
X50415079Y-31425874D01*
X50500364Y-31524299D01*
X50609924Y-31594708D01*
X50734883Y-31631400D01*
X50865116Y-31631400D01*
X50865117Y-31631400D01*
X50990076Y-31594708D01*
X51099636Y-31524299D01*
X51184921Y-31425874D01*
X51239023Y-31307409D01*
X51257557Y-31178500D01*
X51239023Y-31049591D01*
X51184921Y-30931126D01*
X51099636Y-30832701D01*
X51062443Y-30808799D01*
X51037099Y-30781577D01*
X51027900Y-30745537D01*
X51027900Y-28732297D01*
X51033624Y-28703519D01*
X51049926Y-28679123D01*
X51406597Y-28322452D01*
X53305058Y-26423990D01*
X53307874Y-26421316D01*
X53337994Y-26394199D01*
X53337995Y-26394197D01*
X53347997Y-26371732D01*
X53353630Y-26361358D01*
X53357431Y-26355503D01*
X53367016Y-26340746D01*
X53368352Y-26332309D01*
X53373928Y-26313489D01*
X53377400Y-26305692D01*
X53377400Y-26281103D01*
X53378326Y-26269338D01*
X53382172Y-26245056D01*
X53379962Y-26236808D01*
X53377400Y-26217345D01*
X53377400Y-25324963D01*
X53386599Y-25288923D01*
X53411943Y-25261700D01*
X53449136Y-25237799D01*
X53534421Y-25139374D01*
X53588523Y-25020909D01*
X53607057Y-24892000D01*
X53588523Y-24763091D01*
X53534421Y-24644626D01*
X53449136Y-24546201D01*
X53339576Y-24475792D01*
X53339575Y-24475791D01*
X53339574Y-24475791D01*
X53266560Y-24454352D01*
X53214617Y-24439100D01*
X53084383Y-24439100D01*
X53047691Y-24449873D01*
X52959425Y-24475791D01*
X52904643Y-24510996D01*
X52849864Y-24546201D01*
X52849863Y-24546201D01*
X52849863Y-24546202D01*
X52764578Y-24644626D01*
X52710477Y-24763089D01*
X52691943Y-24892000D01*
X52710477Y-25020910D01*
X52764578Y-25139373D01*
X52764579Y-25139374D01*
X52849864Y-25237799D01*
X52887056Y-25261700D01*
X52912401Y-25288923D01*
X52921600Y-25324963D01*
X52921600Y-26131703D01*
X52915876Y-26160481D01*
X52899574Y-26184877D01*
X50644456Y-28439992D01*
X50641602Y-28442702D01*
X50611505Y-28469801D01*
X50601506Y-28492260D01*
X50595878Y-28502625D01*
X50582483Y-28523252D01*
X50581148Y-28531685D01*
X50575574Y-28550504D01*
X50572100Y-28558307D01*
X50572100Y-28582902D01*
X50571174Y-28594666D01*
X50567328Y-28618943D01*
X50569538Y-28627189D01*
X50572100Y-28646652D01*
X50572100Y-30745537D01*
X50562901Y-30781577D01*
X50537556Y-30808799D01*
X50500364Y-30832701D01*
X50500363Y-30832701D01*
X50500363Y-30832702D01*
X50415078Y-30931126D01*
X50360977Y-31049589D01*
X50342443Y-31178500D01*
X44614400Y-31178500D01*
X44614400Y-30360936D01*
X44614503Y-30357000D01*
X44616623Y-30316551D01*
X44607810Y-30293595D01*
X44604457Y-30282275D01*
X44604207Y-30281100D01*
X44599348Y-30258234D01*
X44594328Y-30251325D01*
X44584963Y-30234075D01*
X44581902Y-30226102D01*
X44564518Y-30208718D01*
X44556855Y-30199747D01*
X44542401Y-30179854D01*
X44535003Y-30175582D01*
X44519433Y-30163634D01*
X42731426Y-28375626D01*
X42715124Y-28351230D01*
X42709400Y-28322452D01*
X42709400Y-26360436D01*
X42709503Y-26356500D01*
X42711623Y-26316051D01*
X42702810Y-26293095D01*
X42699457Y-26281775D01*
X42699314Y-26281103D01*
X42694348Y-26257734D01*
X42689328Y-26250825D01*
X42679963Y-26233575D01*
X42676903Y-26225605D01*
X42676903Y-26225604D01*
X42659512Y-26208213D01*
X42651854Y-26199246D01*
X42637401Y-26179354D01*
X42630009Y-26175086D01*
X42614434Y-26163135D01*
X42413925Y-25962625D01*
X42397624Y-25938229D01*
X42391900Y-25909451D01*
X42391900Y-23947436D01*
X42392003Y-23943500D01*
X42394123Y-23903051D01*
X42385310Y-23880095D01*
X42381957Y-23868775D01*
X42376848Y-23844734D01*
X42371828Y-23837825D01*
X42362463Y-23820575D01*
X42359403Y-23812605D01*
X42359403Y-23812604D01*
X42342012Y-23795213D01*
X42334354Y-23786246D01*
X42319901Y-23766354D01*
X42312509Y-23762086D01*
X42296934Y-23750135D01*
X42096425Y-23549625D01*
X42080124Y-23525229D01*
X42074400Y-23496451D01*
X42074400Y-21534436D01*
X42074503Y-21530500D01*
X42076623Y-21490052D01*
X42076622Y-21490051D01*
X42067808Y-21467089D01*
X42064458Y-21455778D01*
X42059348Y-21431736D01*
X42059348Y-21431734D01*
X42054330Y-21424827D01*
X42044964Y-21407576D01*
X42041903Y-21399602D01*
X42024513Y-21382212D01*
X42016849Y-21373240D01*
X42002401Y-21353354D01*
X41995006Y-21349084D01*
X41979434Y-21337134D01*
X41660218Y-21017918D01*
X41642542Y-20989949D01*
X41638581Y-20957104D01*
X41642900Y-20914833D01*
X41642899Y-19725168D01*
X41632435Y-19622732D01*
X41577442Y-19456772D01*
X41540195Y-19396386D01*
X41529000Y-19356910D01*
X41529000Y-19176500D01*
X41539075Y-19138900D01*
X41566600Y-19111375D01*
X41604200Y-19101300D01*
X54915800Y-19101300D01*
X54953400Y-19111375D01*
G37*
G04 #@! TD.AperFunction*
M02*
