G04 #@! TF.GenerationSoftware,KiCad,Pcbnew,7.0.10*
G04 #@! TF.CreationDate,2024-02-16T16:10:31-05:00*
G04 #@! TF.ProjectId,GW28R8128,47573238-5238-4313-9238-2e6b69636164,rev?*
G04 #@! TF.SameCoordinates,Original*
G04 #@! TF.FileFunction,Copper,L1,Top*
G04 #@! TF.FilePolarity,Positive*
%FSLAX46Y46*%
G04 Gerber Fmt 4.6, Leading zero omitted, Abs format (unit mm)*
G04 Created by KiCad (PCBNEW 7.0.10) date 2024-02-16 16:10:31*
%MOMM*%
%LPD*%
G01*
G04 APERTURE LIST*
G04 Aperture macros list*
%AMRoundRect*
0 Rectangle with rounded corners*
0 $1 Rounding radius*
0 $2 $3 $4 $5 $6 $7 $8 $9 X,Y pos of 4 corners*
0 Add a 4 corners polygon primitive as box body*
4,1,4,$2,$3,$4,$5,$6,$7,$8,$9,$2,$3,0*
0 Add four circle primitives for the rounded corners*
1,1,$1+$1,$2,$3*
1,1,$1+$1,$4,$5*
1,1,$1+$1,$6,$7*
1,1,$1+$1,$8,$9*
0 Add four rect primitives between the rounded corners*
20,1,$1+$1,$2,$3,$4,$5,0*
20,1,$1+$1,$4,$5,$6,$7,0*
20,1,$1+$1,$6,$7,$8,$9,0*
20,1,$1+$1,$8,$9,$2,$3,0*%
G04 Aperture macros list end*
G04 #@! TA.AperFunction,SMDPad,CuDef*
%ADD10RoundRect,0.150000X-0.150000X-0.587500X0.150000X-0.587500X0.150000X0.587500X-0.150000X0.587500X0*%
G04 #@! TD*
G04 #@! TA.AperFunction,SMDPad,CuDef*
%ADD11RoundRect,0.150000X-0.587500X-0.150000X0.587500X-0.150000X0.587500X0.150000X-0.587500X0.150000X0*%
G04 #@! TD*
G04 #@! TA.AperFunction,SMDPad,CuDef*
%ADD12RoundRect,0.262500X-0.437500X0.262500X-0.437500X-0.262500X0.437500X-0.262500X0.437500X0.262500X0*%
G04 #@! TD*
G04 #@! TA.AperFunction,SMDPad,CuDef*
%ADD13RoundRect,0.212500X0.212500X0.487500X-0.212500X0.487500X-0.212500X-0.487500X0.212500X-0.487500X0*%
G04 #@! TD*
G04 #@! TA.AperFunction,SMDPad,CuDef*
%ADD14RoundRect,0.212500X-0.212500X-0.487500X0.212500X-0.487500X0.212500X0.487500X-0.212500X0.487500X0*%
G04 #@! TD*
G04 #@! TA.AperFunction,ComponentPad*
%ADD15RoundRect,0.595000X-0.255000X-0.545000X0.255000X-0.545000X0.255000X0.545000X-0.255000X0.545000X0*%
G04 #@! TD*
G04 #@! TA.AperFunction,SMDPad,CuDef*
%ADD16RoundRect,0.225000X-0.625000X-0.225000X0.625000X-0.225000X0.625000X0.225000X-0.625000X0.225000X0*%
G04 #@! TD*
G04 #@! TA.AperFunction,SMDPad,CuDef*
%ADD17RoundRect,0.300000X0.300000X1.100000X-0.300000X1.100000X-0.300000X-1.100000X0.300000X-1.100000X0*%
G04 #@! TD*
G04 #@! TA.AperFunction,SMDPad,CuDef*
%ADD18RoundRect,0.315000X0.735000X0.935000X-0.735000X0.935000X-0.735000X-0.935000X0.735000X-0.935000X0*%
G04 #@! TD*
G04 #@! TA.AperFunction,SMDPad,CuDef*
%ADD19RoundRect,0.262500X-0.262500X-0.437500X0.262500X-0.437500X0.262500X0.437500X-0.262500X0.437500X0*%
G04 #@! TD*
G04 #@! TA.AperFunction,ViaPad*
%ADD20C,0.600000*%
G04 #@! TD*
G04 #@! TA.AperFunction,ViaPad*
%ADD21C,0.800000*%
G04 #@! TD*
G04 #@! TA.AperFunction,ViaPad*
%ADD22C,1.000000*%
G04 #@! TD*
G04 #@! TA.AperFunction,Conductor*
%ADD23C,0.600000*%
G04 #@! TD*
G04 #@! TA.AperFunction,Conductor*
%ADD24C,1.000000*%
G04 #@! TD*
G04 #@! TA.AperFunction,Conductor*
%ADD25C,0.152400*%
G04 #@! TD*
G04 #@! TA.AperFunction,Conductor*
%ADD26C,0.508000*%
G04 #@! TD*
G04 #@! TA.AperFunction,Conductor*
%ADD27C,0.800000*%
G04 #@! TD*
G04 #@! TA.AperFunction,Conductor*
%ADD28C,0.500000*%
G04 #@! TD*
G04 #@! TA.AperFunction,Conductor*
%ADD29C,0.150000*%
G04 #@! TD*
G04 #@! TA.AperFunction,Conductor*
%ADD30C,0.300000*%
G04 #@! TD*
G04 APERTURE END LIST*
D10*
X48260000Y-29992500D03*
X46990000Y-29992500D03*
X45720000Y-29992500D03*
X44450000Y-29992500D03*
D11*
X42697500Y-31750000D03*
X42697500Y-33020000D03*
X42697500Y-34290000D03*
X42697500Y-35560000D03*
X42697500Y-36830000D03*
X42697500Y-38100000D03*
X42697500Y-39370000D03*
X42697500Y-40640000D03*
X42697500Y-41910000D03*
D10*
X44450000Y-43667500D03*
X45720000Y-43667500D03*
X46990000Y-43667500D03*
X48260000Y-43667500D03*
X49530000Y-43667500D03*
X50800000Y-43667500D03*
X52070000Y-43667500D03*
D11*
X53822500Y-41910000D03*
X53822500Y-40640000D03*
X53822500Y-39370000D03*
X53822500Y-38100000D03*
X53822500Y-36830000D03*
X53822500Y-35560000D03*
X53822500Y-34290000D03*
X53822500Y-33020000D03*
X53822500Y-31750000D03*
D10*
X52070000Y-29992500D03*
X50800000Y-29992500D03*
X49530000Y-29992500D03*
D12*
X53213000Y-20320000D03*
X53213000Y-22020000D03*
D13*
X47940000Y-48895000D03*
X46040000Y-48895000D03*
D14*
X50355500Y-24892000D03*
X52255500Y-24892000D03*
D15*
X40640000Y-20320000D03*
X40640000Y-22860000D03*
X40640000Y-25400000D03*
X40640000Y-27940000D03*
X40640000Y-30480000D03*
X40640000Y-33020000D03*
X40640000Y-35560000D03*
X40640000Y-38100000D03*
X40640000Y-40640000D03*
X40640000Y-43180000D03*
X40640000Y-45720000D03*
X40640000Y-48260000D03*
X40640000Y-50800000D03*
X40640000Y-53340000D03*
X55880000Y-53340000D03*
X55880000Y-50800000D03*
X55880000Y-48260000D03*
X55880000Y-45720000D03*
X55880000Y-43180000D03*
X55880000Y-40640000D03*
X55880000Y-38100000D03*
X55880000Y-35560000D03*
X55880000Y-33020000D03*
X55880000Y-30480000D03*
X55880000Y-27940000D03*
X55880000Y-25400000D03*
X55880000Y-22860000D03*
X55880000Y-20320000D03*
D16*
X49784000Y-51943000D03*
X46736000Y-51943000D03*
D17*
X49760000Y-22161500D03*
X46760000Y-22161500D03*
D18*
X47879000Y-26543000D03*
X43879000Y-26543000D03*
D19*
X50394500Y-27241500D03*
X52094500Y-27241500D03*
D20*
X53975000Y-50165000D03*
X53975000Y-46355000D03*
X51435000Y-40640000D03*
X42291000Y-53340000D03*
X46990000Y-44958000D03*
X54356000Y-30226000D03*
X54356000Y-26098500D03*
X45974000Y-36258500D03*
X52070000Y-31242000D03*
D21*
X53149500Y-27178000D03*
D22*
X51870000Y-22020000D03*
X53213000Y-23177500D03*
D20*
X54356000Y-28194000D03*
X52070000Y-26105500D03*
X46101000Y-50038000D03*
D22*
X43878500Y-28448000D03*
D20*
X48260000Y-31242000D03*
X46990000Y-42418000D03*
X52070000Y-28702000D03*
D22*
X43878500Y-24638000D03*
D20*
X43942000Y-35560000D03*
X52578000Y-34290000D03*
X42418000Y-30734000D03*
X43942000Y-33020000D03*
X43942000Y-34290000D03*
X43942000Y-40640000D03*
X52578000Y-35560000D03*
X42735500Y-29464000D03*
X52578000Y-33020000D03*
X44386500Y-31623000D03*
X49276000Y-36639500D03*
X53149500Y-24892000D03*
X50800000Y-31178500D03*
D23*
X50355500Y-24892000D02*
X50355500Y-27202500D01*
D24*
X46760000Y-23836500D02*
X47879000Y-24955500D01*
X46760000Y-22161500D02*
X46760000Y-23836500D01*
X47879000Y-24955500D02*
X47879000Y-26543000D01*
X48577500Y-27241500D02*
X47879000Y-26543000D01*
D23*
X50355500Y-27202500D02*
X50394500Y-27241500D01*
X49530000Y-29019500D02*
X50394500Y-28155000D01*
X49530000Y-29992500D02*
X49530000Y-29019500D01*
X50394500Y-28155000D02*
X50394500Y-27241500D01*
D24*
X50394500Y-27241500D02*
X48577500Y-27241500D01*
D25*
X46040000Y-48895000D02*
X46040000Y-49977000D01*
D26*
X46990000Y-43667500D02*
X46990000Y-42418000D01*
D25*
X46040000Y-49977000D02*
X46101000Y-50038000D01*
D24*
X53213000Y-22020000D02*
X53213000Y-23177500D01*
D26*
X48260000Y-29992500D02*
X48260000Y-31242000D01*
D24*
X43878500Y-26543500D02*
X43878500Y-28448000D01*
D23*
X52070000Y-29992500D02*
X52070000Y-28702000D01*
D24*
X43879000Y-26543000D02*
X43878500Y-26542500D01*
D23*
X52070000Y-27266000D02*
X52094500Y-27241500D01*
D27*
X52158000Y-27178000D02*
X53149500Y-27178000D01*
D24*
X53213000Y-22020000D02*
X51870000Y-22020000D01*
D23*
X52094500Y-27241500D02*
X52070000Y-27217000D01*
D26*
X46990000Y-43667500D02*
X46990000Y-44958000D01*
D23*
X52070000Y-27217000D02*
X52070000Y-26105500D01*
D26*
X52070000Y-29992500D02*
X52070000Y-31242000D01*
D27*
X52094500Y-27241500D02*
X52158000Y-27178000D01*
D24*
X43878500Y-26542500D02*
X43878500Y-24638000D01*
X43879000Y-26543000D02*
X43878500Y-26543500D01*
D23*
X52070000Y-28702000D02*
X52070000Y-27266000D01*
D28*
X40640000Y-53340000D02*
X42291000Y-53340000D01*
D25*
X42697500Y-35560000D02*
X43942000Y-35560000D01*
X54991000Y-41910000D02*
X55880000Y-42799000D01*
X55880000Y-42799000D02*
X55880000Y-43180000D01*
X53822500Y-41910000D02*
X54991000Y-41910000D01*
X52070000Y-43667500D02*
X53827500Y-43667500D01*
X53827500Y-43667500D02*
X55880000Y-45720000D01*
X53822500Y-34290000D02*
X52578000Y-34290000D01*
D29*
X42697500Y-31013500D02*
X42697500Y-31750000D01*
X42418000Y-30734000D02*
X42697500Y-31013500D01*
D25*
X42697500Y-33020000D02*
X43942000Y-33020000D01*
X42697500Y-34290000D02*
X43942000Y-34290000D01*
X42697500Y-36830000D02*
X41529000Y-36830000D01*
X40640000Y-35941000D02*
X40640000Y-35560000D01*
X41529000Y-36830000D02*
X40640000Y-35941000D01*
X40640000Y-38100000D02*
X42697500Y-38100000D01*
X42697500Y-39370000D02*
X41656000Y-39370000D01*
X41656000Y-39370000D02*
X40640000Y-40386000D01*
X40640000Y-40386000D02*
X40640000Y-40640000D01*
X42697500Y-40640000D02*
X43942000Y-40640000D01*
X53822500Y-35560000D02*
X52578000Y-35560000D01*
X41021000Y-48260000D02*
X44450000Y-44831000D01*
X44450000Y-44831000D02*
X44450000Y-43667500D01*
X40640000Y-48260000D02*
X41021000Y-48260000D01*
X50800000Y-44831000D02*
X54229000Y-48260000D01*
X50800000Y-43667500D02*
X50800000Y-44831000D01*
X54229000Y-48260000D02*
X55880000Y-48260000D01*
X42697500Y-43662500D02*
X40640000Y-45720000D01*
X42697500Y-41910000D02*
X42697500Y-43662500D01*
X45720000Y-45720000D02*
X45720000Y-43667500D01*
X40640000Y-50800000D02*
X45720000Y-45720000D01*
X48260000Y-45720000D02*
X55880000Y-53340000D01*
X48260000Y-43667500D02*
X48260000Y-45720000D01*
X49530000Y-44831000D02*
X55499000Y-50800000D01*
X49530000Y-43667500D02*
X49530000Y-44831000D01*
X55499000Y-50800000D02*
X55880000Y-50800000D01*
X54991000Y-39370000D02*
X55880000Y-38481000D01*
X53822500Y-39370000D02*
X54991000Y-39370000D01*
X55880000Y-38481000D02*
X55880000Y-38100000D01*
X55245000Y-33655000D02*
X52070000Y-33655000D01*
X52070000Y-36830000D02*
X53822500Y-36830000D01*
X51689000Y-34036000D02*
X51689000Y-36449000D01*
X55880000Y-33020000D02*
X55245000Y-33655000D01*
X52070000Y-33655000D02*
X51689000Y-34036000D01*
X51689000Y-36449000D02*
X52070000Y-36830000D01*
D29*
X43264000Y-29992500D02*
X44450000Y-29992500D01*
X42735500Y-29464000D02*
X43264000Y-29992500D01*
D25*
X53822500Y-33020000D02*
X52578000Y-33020000D01*
X54229000Y-25463500D02*
X54229000Y-24384000D01*
X54229000Y-24384000D02*
X55753000Y-22860000D01*
X53822500Y-25870000D02*
X54229000Y-25463500D01*
X55753000Y-22860000D02*
X55880000Y-22860000D01*
X53822500Y-31750000D02*
X53822500Y-25870000D01*
D29*
X45720000Y-30988000D02*
X45720000Y-29992500D01*
X44386500Y-31623000D02*
X45085000Y-31623000D01*
X45085000Y-31623000D02*
X45720000Y-30988000D01*
D25*
X49784000Y-51943000D02*
X49784000Y-51054000D01*
X47940000Y-47686000D02*
X47625000Y-47371000D01*
X52070000Y-38100000D02*
X53822500Y-38100000D01*
X48387000Y-50546000D02*
X47940000Y-50099000D01*
X47940000Y-48895000D02*
X47940000Y-47686000D01*
X49276000Y-50546000D02*
X48387000Y-50546000D01*
X49784000Y-51054000D02*
X49276000Y-50546000D01*
X47940000Y-50099000D02*
X47940000Y-48895000D01*
X47625000Y-42545000D02*
X52070000Y-38100000D01*
X47625000Y-47371000D02*
X47625000Y-42545000D01*
X46990000Y-34163000D02*
X46990000Y-29992500D01*
X49276000Y-36449000D02*
X46990000Y-34163000D01*
X49276000Y-36639500D02*
X49276000Y-36449000D01*
X53822500Y-40640000D02*
X55880000Y-40640000D01*
X46736000Y-51943000D02*
X45466000Y-51943000D01*
X50800000Y-37846000D02*
X50800000Y-29992500D01*
X44958000Y-47498000D02*
X46355000Y-46101000D01*
D30*
X52255500Y-24892000D02*
X53149500Y-24892000D01*
D25*
X46355000Y-42291000D02*
X50800000Y-37846000D01*
X46355000Y-46101000D02*
X46355000Y-42291000D01*
X44958000Y-51435000D02*
X44958000Y-47498000D01*
X45466000Y-51943000D02*
X44958000Y-51435000D01*
D24*
X51601500Y-20320000D02*
X49760000Y-22161500D01*
X53213000Y-20320000D02*
X51601500Y-20320000D01*
X53213000Y-20320000D02*
X55880000Y-20320000D01*
G04 #@! TA.AperFunction,Conductor*
G36*
X54964138Y-19118893D02*
G01*
X54989858Y-19163442D01*
X54991000Y-19176500D01*
X54991000Y-19356908D01*
X54979804Y-19396385D01*
X54942559Y-19456769D01*
X54889944Y-19615554D01*
X54858039Y-19655904D01*
X54818561Y-19667100D01*
X53817347Y-19667100D01*
X53783206Y-19658903D01*
X53780470Y-19657509D01*
X53780469Y-19657508D01*
X53780466Y-19657507D01*
X53780464Y-19657506D01*
X53780463Y-19657506D01*
X53683194Y-19642100D01*
X53683192Y-19642100D01*
X52742808Y-19642100D01*
X52742805Y-19642100D01*
X52645536Y-19657506D01*
X52645529Y-19657509D01*
X52642794Y-19658903D01*
X52608653Y-19667100D01*
X51681880Y-19667100D01*
X51665477Y-19665289D01*
X51663438Y-19664833D01*
X51663432Y-19664832D01*
X51663431Y-19664832D01*
X51663430Y-19664832D01*
X51592432Y-19667063D01*
X51590071Y-19667100D01*
X51560425Y-19667100D01*
X51556142Y-19667640D01*
X51553723Y-19667946D01*
X51546675Y-19668500D01*
X51498551Y-19670013D01*
X51474366Y-19677038D01*
X51462820Y-19679428D01*
X51437847Y-19682584D01*
X51437843Y-19682585D01*
X51393072Y-19700309D01*
X51386375Y-19702601D01*
X51340148Y-19716033D01*
X51340138Y-19716037D01*
X51318464Y-19728854D01*
X51307874Y-19734042D01*
X51284463Y-19743311D01*
X51245509Y-19771612D01*
X51239592Y-19775499D01*
X51198156Y-19800005D01*
X51198149Y-19800010D01*
X51180344Y-19817814D01*
X51171379Y-19825471D01*
X51151007Y-19840274D01*
X51120315Y-19877373D01*
X51115547Y-19882611D01*
X50357475Y-20640683D01*
X50310855Y-20662423D01*
X50280089Y-20656267D01*
X50279336Y-20658422D01*
X50228640Y-20640683D01*
X50145150Y-20611469D01*
X50145145Y-20611468D01*
X50145143Y-20611468D01*
X50114564Y-20608600D01*
X50114556Y-20608600D01*
X49405444Y-20608600D01*
X49405436Y-20608600D01*
X49374856Y-20611468D01*
X49374852Y-20611468D01*
X49374850Y-20611469D01*
X49374847Y-20611469D01*
X49374847Y-20611470D01*
X49245985Y-20656559D01*
X49245982Y-20656561D01*
X49136133Y-20737633D01*
X49055061Y-20847482D01*
X49055059Y-20847485D01*
X49009970Y-20976347D01*
X49009968Y-20976356D01*
X49007100Y-21006935D01*
X49007100Y-23316064D01*
X49009968Y-23346643D01*
X49009969Y-23346650D01*
X49009970Y-23346652D01*
X49055059Y-23475514D01*
X49055061Y-23475517D01*
X49136133Y-23585366D01*
X49245982Y-23666438D01*
X49245985Y-23666440D01*
X49276919Y-23677263D01*
X49374850Y-23711531D01*
X49405435Y-23714399D01*
X49405437Y-23714400D01*
X49405444Y-23714400D01*
X50114563Y-23714400D01*
X50114563Y-23714399D01*
X50145150Y-23711531D01*
X50274017Y-23666439D01*
X50383866Y-23585366D01*
X50464939Y-23475517D01*
X50510031Y-23346650D01*
X50512899Y-23316063D01*
X50512900Y-23316063D01*
X50512900Y-22363088D01*
X50530493Y-22314750D01*
X50534926Y-22309914D01*
X50574840Y-22270000D01*
X52360600Y-22270000D01*
X52360600Y-22315156D01*
X52375988Y-22412310D01*
X52435656Y-22529414D01*
X52528585Y-22622343D01*
X52645690Y-22682011D01*
X52645688Y-22682011D01*
X52742843Y-22697399D01*
X52742850Y-22697400D01*
X52963000Y-22697400D01*
X52963000Y-22270000D01*
X53463000Y-22270000D01*
X53463000Y-22697400D01*
X53683150Y-22697400D01*
X53683156Y-22697399D01*
X53780310Y-22682011D01*
X53897414Y-22622343D01*
X53990343Y-22529414D01*
X54050011Y-22412310D01*
X54065399Y-22315156D01*
X54065400Y-22315149D01*
X54065400Y-22270000D01*
X53463000Y-22270000D01*
X52963000Y-22270000D01*
X52360600Y-22270000D01*
X50574840Y-22270000D01*
X51074840Y-21770000D01*
X52360600Y-21770000D01*
X52963000Y-21770000D01*
X52963000Y-21342600D01*
X53463000Y-21342600D01*
X53463000Y-21770000D01*
X54065400Y-21770000D01*
X54065400Y-21724850D01*
X54065399Y-21724843D01*
X54050011Y-21627689D01*
X53990343Y-21510585D01*
X53897414Y-21417656D01*
X53780309Y-21357988D01*
X53780311Y-21357988D01*
X53683156Y-21342600D01*
X53463000Y-21342600D01*
X52963000Y-21342600D01*
X52742843Y-21342600D01*
X52645689Y-21357988D01*
X52528585Y-21417656D01*
X52435656Y-21510585D01*
X52375988Y-21627689D01*
X52360600Y-21724843D01*
X52360600Y-21770000D01*
X51074840Y-21770000D01*
X51849914Y-20994926D01*
X51896534Y-20973186D01*
X51903088Y-20972900D01*
X52608653Y-20972900D01*
X52642794Y-20981097D01*
X52645534Y-20982493D01*
X52742808Y-20997900D01*
X52742812Y-20997900D01*
X53683188Y-20997900D01*
X53683192Y-20997900D01*
X53780466Y-20982493D01*
X53783206Y-20981097D01*
X53817347Y-20972900D01*
X54818560Y-20972900D01*
X54866898Y-20990493D01*
X54889943Y-21024446D01*
X54922162Y-21121677D01*
X54942558Y-21183228D01*
X54979804Y-21243614D01*
X54991000Y-21283090D01*
X54991000Y-21896908D01*
X54979804Y-21936385D01*
X54942559Y-21996769D01*
X54942558Y-21996771D01*
X54942558Y-21996772D01*
X54887565Y-22162732D01*
X54877100Y-22265167D01*
X54877100Y-22265172D01*
X54877100Y-22265173D01*
X54877100Y-23380754D01*
X54859507Y-23429092D01*
X54855074Y-23433928D01*
X54072631Y-24216370D01*
X54069778Y-24219078D01*
X54039514Y-24246329D01*
X54039512Y-24246333D01*
X54029446Y-24268939D01*
X54023821Y-24279300D01*
X54010338Y-24300065D01*
X54008986Y-24308599D01*
X54003414Y-24327409D01*
X53999900Y-24335303D01*
X53999900Y-24360053D01*
X53998974Y-24371818D01*
X53995103Y-24396256D01*
X53995103Y-24396257D01*
X53997337Y-24404594D01*
X53999900Y-24424059D01*
X53999900Y-25337453D01*
X53982307Y-25385791D01*
X53977874Y-25390628D01*
X53666121Y-25702380D01*
X53663268Y-25705087D01*
X53633014Y-25732329D01*
X53633012Y-25732333D01*
X53622946Y-25754939D01*
X53617321Y-25765300D01*
X53603838Y-25786065D01*
X53602486Y-25794599D01*
X53596914Y-25813409D01*
X53593400Y-25821303D01*
X53593400Y-25846053D01*
X53592474Y-25857818D01*
X53588603Y-25882256D01*
X53588603Y-25882257D01*
X53590837Y-25890594D01*
X53593400Y-25910059D01*
X53593400Y-31221900D01*
X53575807Y-31270238D01*
X53531258Y-31295958D01*
X53518200Y-31297100D01*
X53189774Y-31297100D01*
X53184510Y-31297710D01*
X53164451Y-31300037D01*
X53060854Y-31345780D01*
X53060851Y-31345782D01*
X52980782Y-31425851D01*
X52980780Y-31425854D01*
X52935037Y-31529451D01*
X52932100Y-31554776D01*
X52932100Y-31945223D01*
X52935037Y-31970548D01*
X52980780Y-32074145D01*
X52980782Y-32074148D01*
X53060851Y-32154217D01*
X53060854Y-32154219D01*
X53060855Y-32154220D01*
X53164450Y-32199962D01*
X53189774Y-32202900D01*
X53189776Y-32202900D01*
X54455224Y-32202900D01*
X54455226Y-32202900D01*
X54480550Y-32199962D01*
X54584145Y-32154220D01*
X54664220Y-32074145D01*
X54709962Y-31970550D01*
X54712900Y-31945226D01*
X54712900Y-31554774D01*
X54709962Y-31529450D01*
X54664220Y-31425855D01*
X54664219Y-31425854D01*
X54664217Y-31425851D01*
X54584148Y-31345782D01*
X54584145Y-31345780D01*
X54480548Y-31300037D01*
X54461100Y-31297781D01*
X54455226Y-31297100D01*
X54455224Y-31297100D01*
X54126800Y-31297100D01*
X54078462Y-31279507D01*
X54052742Y-31234958D01*
X54051600Y-31221900D01*
X54051600Y-25996044D01*
X54069193Y-25947706D01*
X54073614Y-25942881D01*
X54385402Y-25631093D01*
X54388199Y-25628439D01*
X54418486Y-25601170D01*
X54428555Y-25578553D01*
X54434177Y-25568198D01*
X54447662Y-25547436D01*
X54449013Y-25538900D01*
X54454588Y-25520082D01*
X54458100Y-25512197D01*
X54458100Y-25487446D01*
X54459026Y-25475681D01*
X54462897Y-25451241D01*
X54462419Y-25449459D01*
X54460662Y-25442897D01*
X54458100Y-25423437D01*
X54458100Y-24510044D01*
X54475693Y-24461706D01*
X54480126Y-24456870D01*
X54862626Y-24074370D01*
X54909246Y-24052630D01*
X54958933Y-24065944D01*
X54988438Y-24108081D01*
X54991000Y-24127544D01*
X54991000Y-24436908D01*
X54979804Y-24476385D01*
X54942559Y-24536769D01*
X54942558Y-24536771D01*
X54942558Y-24536772D01*
X54887565Y-24702732D01*
X54877100Y-24805167D01*
X54877100Y-24805172D01*
X54877100Y-24805173D01*
X54877100Y-25994827D01*
X54881838Y-26041207D01*
X54887565Y-26097268D01*
X54942558Y-26263228D01*
X54979804Y-26323614D01*
X54991000Y-26363090D01*
X54991000Y-26976908D01*
X54979804Y-27016385D01*
X54942559Y-27076769D01*
X54942558Y-27076771D01*
X54942558Y-27076772D01*
X54887565Y-27242732D01*
X54877100Y-27345167D01*
X54877100Y-27345172D01*
X54877100Y-27345173D01*
X54877100Y-28534827D01*
X54877101Y-28534832D01*
X54887565Y-28637268D01*
X54887565Y-28637270D01*
X54887566Y-28637272D01*
X54902144Y-28681265D01*
X54942558Y-28803228D01*
X54979804Y-28863614D01*
X54991000Y-28903090D01*
X54991000Y-29516908D01*
X54979804Y-29556385D01*
X54942559Y-29616769D01*
X54942558Y-29616771D01*
X54942558Y-29616772D01*
X54887565Y-29782732D01*
X54877100Y-29885167D01*
X54877100Y-29885172D01*
X54877100Y-29885173D01*
X54877100Y-31074827D01*
X54881838Y-31121207D01*
X54887565Y-31177268D01*
X54887565Y-31177270D01*
X54887566Y-31177272D01*
X54897347Y-31206790D01*
X54942558Y-31343228D01*
X54979804Y-31403614D01*
X54991000Y-31443090D01*
X54991000Y-32056908D01*
X54979804Y-32096385D01*
X54942559Y-32156769D01*
X54942558Y-32156771D01*
X54942558Y-32156772D01*
X54887565Y-32322732D01*
X54877100Y-32425167D01*
X54877100Y-32891091D01*
X54877101Y-33350700D01*
X54859508Y-33399038D01*
X54814959Y-33424758D01*
X54801901Y-33425900D01*
X54743530Y-33425900D01*
X54695192Y-33408307D01*
X54669472Y-33363758D01*
X54674738Y-33320325D01*
X54709961Y-33240552D01*
X54709962Y-33240550D01*
X54712900Y-33215226D01*
X54712900Y-32824774D01*
X54709962Y-32799450D01*
X54664220Y-32695855D01*
X54664219Y-32695854D01*
X54664217Y-32695851D01*
X54584148Y-32615782D01*
X54584145Y-32615780D01*
X54480548Y-32570037D01*
X54461100Y-32567781D01*
X54455226Y-32567100D01*
X53189774Y-32567100D01*
X53184510Y-32567710D01*
X53164451Y-32570037D01*
X53060854Y-32615780D01*
X52992684Y-32683950D01*
X52946064Y-32705689D01*
X52896377Y-32692375D01*
X52882681Y-32680024D01*
X52877636Y-32674201D01*
X52877632Y-32674198D01*
X52768073Y-32603790D01*
X52643117Y-32567100D01*
X52512883Y-32567100D01*
X52387926Y-32603790D01*
X52278366Y-32674198D01*
X52193080Y-32772623D01*
X52193078Y-32772626D01*
X52138977Y-32891088D01*
X52120443Y-33020000D01*
X52138977Y-33148911D01*
X52193078Y-33267373D01*
X52193080Y-33267376D01*
X52222609Y-33301454D01*
X52240968Y-33349507D01*
X52224143Y-33398117D01*
X52180009Y-33424541D01*
X52165777Y-33425900D01*
X52077960Y-33425900D01*
X52074024Y-33425797D01*
X52033361Y-33423665D01*
X52033360Y-33423665D01*
X52010252Y-33432535D01*
X51998945Y-33435884D01*
X51974735Y-33441030D01*
X51967748Y-33446107D01*
X51950502Y-33455471D01*
X51942439Y-33458566D01*
X51942434Y-33458569D01*
X51924931Y-33476071D01*
X51915965Y-33483729D01*
X51895940Y-33498279D01*
X51891620Y-33505761D01*
X51879673Y-33521328D01*
X51532631Y-33868370D01*
X51529778Y-33871078D01*
X51499514Y-33898329D01*
X51499512Y-33898333D01*
X51489446Y-33920939D01*
X51483821Y-33931300D01*
X51470338Y-33952065D01*
X51468986Y-33960599D01*
X51463414Y-33979409D01*
X51459900Y-33987303D01*
X51459900Y-34012053D01*
X51458974Y-34023818D01*
X51455103Y-34048256D01*
X51455103Y-34048257D01*
X51457337Y-34056594D01*
X51459900Y-34076059D01*
X51459900Y-36441039D01*
X51459797Y-36444975D01*
X51457665Y-36485638D01*
X51466533Y-36508740D01*
X51469883Y-36520050D01*
X51475030Y-36544263D01*
X51475031Y-36544265D01*
X51480108Y-36551253D01*
X51489473Y-36568501D01*
X51492569Y-36576566D01*
X51510064Y-36594061D01*
X51517726Y-36603031D01*
X51532276Y-36623056D01*
X51532278Y-36623058D01*
X51539759Y-36627377D01*
X51555330Y-36639326D01*
X51902359Y-36986355D01*
X51905069Y-36989210D01*
X51932330Y-37019486D01*
X51954936Y-37029551D01*
X51965304Y-37035181D01*
X51984997Y-37047969D01*
X51986063Y-37048661D01*
X51994591Y-37050011D01*
X52013412Y-37055587D01*
X52021302Y-37059100D01*
X52021303Y-37059100D01*
X52046053Y-37059100D01*
X52057817Y-37060025D01*
X52082258Y-37063897D01*
X52089506Y-37061955D01*
X52090600Y-37061662D01*
X52110061Y-37059100D01*
X52889813Y-37059100D01*
X52938151Y-37076693D01*
X52958604Y-37103923D01*
X52973169Y-37136908D01*
X52980780Y-37154145D01*
X52980782Y-37154148D01*
X53060851Y-37234217D01*
X53060854Y-37234219D01*
X53060855Y-37234220D01*
X53164450Y-37279962D01*
X53189774Y-37282900D01*
X53189776Y-37282900D01*
X54455224Y-37282900D01*
X54455226Y-37282900D01*
X54480550Y-37279962D01*
X54584145Y-37234220D01*
X54664220Y-37154145D01*
X54709962Y-37050550D01*
X54712900Y-37025226D01*
X54712900Y-36634774D01*
X54709962Y-36609450D01*
X54664220Y-36505855D01*
X54664219Y-36505854D01*
X54664217Y-36505851D01*
X54584148Y-36425782D01*
X54584145Y-36425780D01*
X54480548Y-36380037D01*
X54461100Y-36377781D01*
X54455226Y-36377100D01*
X53189774Y-36377100D01*
X53184510Y-36377710D01*
X53164451Y-36380037D01*
X53060854Y-36425780D01*
X53060851Y-36425782D01*
X52980782Y-36505851D01*
X52980780Y-36505854D01*
X52974512Y-36520050D01*
X52958604Y-36556076D01*
X52922987Y-36593187D01*
X52889813Y-36600900D01*
X52196045Y-36600900D01*
X52147707Y-36583307D01*
X52142870Y-36578874D01*
X51940125Y-36376128D01*
X51918386Y-36329508D01*
X51918100Y-36322954D01*
X51918100Y-35560000D01*
X52120443Y-35560000D01*
X52138977Y-35688911D01*
X52193078Y-35807373D01*
X52193080Y-35807376D01*
X52203703Y-35819635D01*
X52269917Y-35896051D01*
X52278366Y-35905801D01*
X52356668Y-35956121D01*
X52369265Y-35964217D01*
X52387926Y-35976209D01*
X52512883Y-36012900D01*
X52643117Y-36012900D01*
X52768073Y-35976209D01*
X52768073Y-35976208D01*
X52768076Y-35976208D01*
X52877636Y-35905799D01*
X52882677Y-35899980D01*
X52927627Y-35874970D01*
X52978138Y-35884703D01*
X52992685Y-35896051D01*
X53060851Y-35964217D01*
X53060854Y-35964219D01*
X53060855Y-35964220D01*
X53164450Y-36009962D01*
X53189774Y-36012900D01*
X53189776Y-36012900D01*
X54455224Y-36012900D01*
X54455226Y-36012900D01*
X54480550Y-36009962D01*
X54584145Y-35964220D01*
X54664220Y-35884145D01*
X54709962Y-35780550D01*
X54712900Y-35755226D01*
X54712900Y-35364774D01*
X54709962Y-35339450D01*
X54664220Y-35235855D01*
X54664219Y-35235854D01*
X54664217Y-35235851D01*
X54584148Y-35155782D01*
X54584145Y-35155780D01*
X54480548Y-35110037D01*
X54461100Y-35107781D01*
X54455226Y-35107100D01*
X53189774Y-35107100D01*
X53184510Y-35107710D01*
X53164451Y-35110037D01*
X53060854Y-35155780D01*
X52992684Y-35223950D01*
X52946064Y-35245689D01*
X52896377Y-35232375D01*
X52882681Y-35220024D01*
X52877636Y-35214201D01*
X52877632Y-35214198D01*
X52768073Y-35143790D01*
X52643117Y-35107100D01*
X52512883Y-35107100D01*
X52387926Y-35143790D01*
X52278366Y-35214198D01*
X52193080Y-35312623D01*
X52193078Y-35312626D01*
X52138977Y-35431088D01*
X52120443Y-35560000D01*
X51918100Y-35560000D01*
X51918100Y-34162044D01*
X51935693Y-34113706D01*
X51940114Y-34108881D01*
X52055293Y-33993702D01*
X52101911Y-33971964D01*
X52151598Y-33985278D01*
X52181103Y-34027414D01*
X52176869Y-34078117D01*
X52138978Y-34161085D01*
X52138978Y-34161087D01*
X52138978Y-34161088D01*
X52138977Y-34161091D01*
X52129319Y-34228265D01*
X52120443Y-34290000D01*
X52138977Y-34418911D01*
X52193078Y-34537373D01*
X52193080Y-34537376D01*
X52203703Y-34549635D01*
X52269917Y-34626051D01*
X52278366Y-34635801D01*
X52356668Y-34686121D01*
X52373236Y-34696769D01*
X52387926Y-34706209D01*
X52512883Y-34742900D01*
X52643117Y-34742900D01*
X52768073Y-34706209D01*
X52768073Y-34706208D01*
X52768076Y-34706208D01*
X52877636Y-34635799D01*
X52882677Y-34629980D01*
X52927627Y-34604970D01*
X52978138Y-34614703D01*
X52992685Y-34626051D01*
X53060851Y-34694217D01*
X53060854Y-34694219D01*
X53060855Y-34694220D01*
X53164450Y-34739962D01*
X53189774Y-34742900D01*
X53189776Y-34742900D01*
X54455224Y-34742900D01*
X54455226Y-34742900D01*
X54480550Y-34739962D01*
X54584145Y-34694220D01*
X54664220Y-34614145D01*
X54709962Y-34510550D01*
X54712900Y-34485226D01*
X54712900Y-34094774D01*
X54709962Y-34069450D01*
X54709961Y-34069447D01*
X54674738Y-33989675D01*
X54671307Y-33938350D01*
X54701671Y-33896827D01*
X54743530Y-33884100D01*
X54901126Y-33884100D01*
X54949464Y-33901693D01*
X54965129Y-33919820D01*
X54972209Y-33931300D01*
X54979804Y-33943612D01*
X54991000Y-33983090D01*
X54991000Y-34596908D01*
X54979804Y-34636385D01*
X54942559Y-34696769D01*
X54942558Y-34696771D01*
X54942558Y-34696772D01*
X54887565Y-34862732D01*
X54877100Y-34965167D01*
X54877100Y-34965172D01*
X54877100Y-34965173D01*
X54877100Y-36154827D01*
X54877101Y-36154832D01*
X54887565Y-36257268D01*
X54887565Y-36257270D01*
X54887566Y-36257272D01*
X54909331Y-36322954D01*
X54942558Y-36423228D01*
X54979804Y-36483614D01*
X54991000Y-36523090D01*
X54991000Y-37136908D01*
X54979804Y-37176385D01*
X54942559Y-37236769D01*
X54942558Y-37236771D01*
X54942558Y-37236772D01*
X54887565Y-37402732D01*
X54877100Y-37505167D01*
X54877100Y-37505172D01*
X54877100Y-37505173D01*
X54877100Y-38694827D01*
X54877101Y-38694832D01*
X54887565Y-38797268D01*
X54928246Y-38920038D01*
X54942559Y-38963230D01*
X54942559Y-38963231D01*
X54961401Y-38993777D01*
X54971804Y-39044154D01*
X54950573Y-39086430D01*
X54918128Y-39118874D01*
X54871510Y-39140614D01*
X54864955Y-39140900D01*
X54755187Y-39140900D01*
X54706849Y-39123307D01*
X54686395Y-39096076D01*
X54664220Y-39045855D01*
X54664219Y-39045854D01*
X54664217Y-39045851D01*
X54584148Y-38965782D01*
X54584145Y-38965780D01*
X54480548Y-38920037D01*
X54461100Y-38917781D01*
X54455226Y-38917100D01*
X53189774Y-38917100D01*
X53184510Y-38917710D01*
X53164451Y-38920037D01*
X53060854Y-38965780D01*
X53060851Y-38965782D01*
X52980782Y-39045851D01*
X52980780Y-39045854D01*
X52935037Y-39149451D01*
X52932100Y-39174776D01*
X52932100Y-39565223D01*
X52935037Y-39590548D01*
X52980780Y-39694145D01*
X52980782Y-39694148D01*
X53060851Y-39774217D01*
X53060854Y-39774219D01*
X53060855Y-39774220D01*
X53164450Y-39819962D01*
X53189774Y-39822900D01*
X53189776Y-39822900D01*
X54455224Y-39822900D01*
X54455226Y-39822900D01*
X54480550Y-39819962D01*
X54584145Y-39774220D01*
X54664220Y-39694145D01*
X54686395Y-39643923D01*
X54722013Y-39606813D01*
X54755187Y-39599100D01*
X54915800Y-39599100D01*
X54964138Y-39616693D01*
X54989858Y-39661242D01*
X54991000Y-39674300D01*
X54991000Y-39676908D01*
X54979804Y-39716385D01*
X54942559Y-39776769D01*
X54942558Y-39776771D01*
X54942558Y-39776772D01*
X54887565Y-39942732D01*
X54877100Y-40045167D01*
X54877100Y-40045172D01*
X54877100Y-40045173D01*
X54877100Y-40335700D01*
X54859507Y-40384038D01*
X54814958Y-40409758D01*
X54801900Y-40410900D01*
X54755187Y-40410900D01*
X54706849Y-40393307D01*
X54686395Y-40366076D01*
X54664220Y-40315855D01*
X54664219Y-40315854D01*
X54664217Y-40315851D01*
X54584148Y-40235782D01*
X54584145Y-40235780D01*
X54480548Y-40190037D01*
X54461100Y-40187781D01*
X54455226Y-40187100D01*
X53189774Y-40187100D01*
X53184510Y-40187710D01*
X53164451Y-40190037D01*
X53060854Y-40235780D01*
X53060851Y-40235782D01*
X52980782Y-40315851D01*
X52980780Y-40315854D01*
X52935037Y-40419451D01*
X52932100Y-40444776D01*
X52932100Y-40835223D01*
X52935037Y-40860548D01*
X52980780Y-40964145D01*
X52980782Y-40964148D01*
X53060851Y-41044217D01*
X53060854Y-41044219D01*
X53060855Y-41044220D01*
X53164450Y-41089962D01*
X53189774Y-41092900D01*
X53189776Y-41092900D01*
X54455224Y-41092900D01*
X54455226Y-41092900D01*
X54480550Y-41089962D01*
X54584145Y-41044220D01*
X54664220Y-40964145D01*
X54686395Y-40913923D01*
X54722013Y-40876813D01*
X54755187Y-40869100D01*
X54801901Y-40869100D01*
X54850239Y-40886693D01*
X54875959Y-40931242D01*
X54877101Y-40944300D01*
X54877101Y-41234832D01*
X54887565Y-41337268D01*
X54942558Y-41503228D01*
X54979804Y-41563614D01*
X54991000Y-41603090D01*
X54991000Y-41605700D01*
X54973407Y-41654038D01*
X54928858Y-41679758D01*
X54915800Y-41680900D01*
X54755187Y-41680900D01*
X54706849Y-41663307D01*
X54686395Y-41636076D01*
X54664220Y-41585855D01*
X54664219Y-41585854D01*
X54664217Y-41585851D01*
X54584148Y-41505782D01*
X54584145Y-41505780D01*
X54480548Y-41460037D01*
X54461100Y-41457781D01*
X54455226Y-41457100D01*
X53189774Y-41457100D01*
X53184510Y-41457710D01*
X53164451Y-41460037D01*
X53060854Y-41505780D01*
X53060851Y-41505782D01*
X52980782Y-41585851D01*
X52980780Y-41585854D01*
X52935037Y-41689451D01*
X52932100Y-41714776D01*
X52932100Y-42105223D01*
X52935037Y-42130548D01*
X52980780Y-42234145D01*
X52980782Y-42234148D01*
X53060851Y-42314217D01*
X53060854Y-42314219D01*
X53060855Y-42314220D01*
X53164450Y-42359962D01*
X53189774Y-42362900D01*
X53189776Y-42362900D01*
X54455224Y-42362900D01*
X54455226Y-42362900D01*
X54480550Y-42359962D01*
X54584145Y-42314220D01*
X54664220Y-42234145D01*
X54686395Y-42183923D01*
X54722013Y-42146813D01*
X54755187Y-42139100D01*
X54864956Y-42139100D01*
X54913294Y-42156693D01*
X54918130Y-42161126D01*
X54950572Y-42193568D01*
X54972312Y-42240188D01*
X54961403Y-42286219D01*
X54945752Y-42311594D01*
X54942558Y-42316772D01*
X54887565Y-42482732D01*
X54877100Y-42585167D01*
X54877100Y-42585172D01*
X54877100Y-42585173D01*
X54877100Y-43774827D01*
X54877101Y-43774832D01*
X54887565Y-43877268D01*
X54887565Y-43877270D01*
X54887566Y-43877272D01*
X54902872Y-43923462D01*
X54942558Y-44043228D01*
X54979804Y-44103614D01*
X54991000Y-44143090D01*
X54991000Y-44325455D01*
X54973407Y-44373793D01*
X54928858Y-44399513D01*
X54878200Y-44390580D01*
X54862626Y-44378629D01*
X53995130Y-43511133D01*
X53992420Y-43508278D01*
X53965169Y-43478013D01*
X53942558Y-43467945D01*
X53932192Y-43462317D01*
X53911436Y-43448839D01*
X53911433Y-43448838D01*
X53902901Y-43447486D01*
X53884087Y-43441912D01*
X53876198Y-43438400D01*
X53876197Y-43438400D01*
X53851446Y-43438400D01*
X53839683Y-43437474D01*
X53824389Y-43435051D01*
X53815243Y-43433603D01*
X53815241Y-43433603D01*
X53806900Y-43435838D01*
X53787439Y-43438400D01*
X52598100Y-43438400D01*
X52549762Y-43420807D01*
X52524042Y-43376258D01*
X52522900Y-43363200D01*
X52522900Y-43034776D01*
X52519962Y-43009451D01*
X52519962Y-43009450D01*
X52474220Y-42905855D01*
X52474219Y-42905854D01*
X52474217Y-42905851D01*
X52394148Y-42825782D01*
X52394145Y-42825780D01*
X52290548Y-42780037D01*
X52271100Y-42777781D01*
X52265226Y-42777100D01*
X51874774Y-42777100D01*
X51869510Y-42777710D01*
X51849451Y-42780037D01*
X51745854Y-42825780D01*
X51745851Y-42825782D01*
X51665782Y-42905851D01*
X51665780Y-42905854D01*
X51620037Y-43009451D01*
X51617100Y-43034776D01*
X51617100Y-44300223D01*
X51620037Y-44325548D01*
X51665780Y-44429145D01*
X51665782Y-44429148D01*
X51745851Y-44509217D01*
X51745854Y-44509219D01*
X51745855Y-44509220D01*
X51849450Y-44554962D01*
X51874774Y-44557900D01*
X51874776Y-44557900D01*
X52265224Y-44557900D01*
X52265226Y-44557900D01*
X52290550Y-44554962D01*
X52394145Y-44509220D01*
X52474220Y-44429145D01*
X52519962Y-44325550D01*
X52522900Y-44300226D01*
X52522900Y-43971800D01*
X52540493Y-43923462D01*
X52585042Y-43897742D01*
X52598100Y-43896600D01*
X53701456Y-43896600D01*
X53749794Y-43914193D01*
X53754630Y-43918626D01*
X54859623Y-45023619D01*
X54881363Y-45070239D01*
X54881260Y-45084433D01*
X54877100Y-45125169D01*
X54877100Y-46314827D01*
X54877101Y-46314832D01*
X54887565Y-46417268D01*
X54942558Y-46583228D01*
X54979804Y-46643614D01*
X54991000Y-46683090D01*
X54991000Y-47296908D01*
X54979804Y-47336385D01*
X54942559Y-47396769D01*
X54942558Y-47396771D01*
X54942558Y-47396772D01*
X54887565Y-47562732D01*
X54877100Y-47665167D01*
X54877100Y-47665173D01*
X54877100Y-47955700D01*
X54859507Y-48004038D01*
X54814958Y-48029758D01*
X54801900Y-48030900D01*
X54355044Y-48030900D01*
X54306706Y-48013307D01*
X54301870Y-48008874D01*
X51051126Y-44758129D01*
X51029386Y-44711509D01*
X51029100Y-44704955D01*
X51029100Y-44600186D01*
X51046693Y-44551848D01*
X51073924Y-44531394D01*
X51124145Y-44509220D01*
X51204220Y-44429145D01*
X51249962Y-44325550D01*
X51252900Y-44300226D01*
X51252900Y-43034774D01*
X51249962Y-43009450D01*
X51204220Y-42905855D01*
X51204219Y-42905854D01*
X51204217Y-42905851D01*
X51124148Y-42825782D01*
X51124145Y-42825780D01*
X51020548Y-42780037D01*
X51001100Y-42777781D01*
X50995226Y-42777100D01*
X50604774Y-42777100D01*
X50599510Y-42777710D01*
X50579451Y-42780037D01*
X50475854Y-42825780D01*
X50475851Y-42825782D01*
X50395782Y-42905851D01*
X50395780Y-42905854D01*
X50350037Y-43009451D01*
X50347100Y-43034776D01*
X50347100Y-44300223D01*
X50350037Y-44325548D01*
X50395780Y-44429145D01*
X50395782Y-44429148D01*
X50475850Y-44509216D01*
X50475852Y-44509217D01*
X50475855Y-44509220D01*
X50526075Y-44531394D01*
X50563187Y-44567012D01*
X50570900Y-44600186D01*
X50570900Y-44823039D01*
X50570797Y-44826975D01*
X50568665Y-44867638D01*
X50577533Y-44890740D01*
X50580883Y-44902050D01*
X50586030Y-44926263D01*
X50586031Y-44926265D01*
X50591108Y-44933253D01*
X50600473Y-44950501D01*
X50603569Y-44958566D01*
X50621064Y-44976061D01*
X50628726Y-44985031D01*
X50643276Y-45005056D01*
X50643278Y-45005058D01*
X50650759Y-45009377D01*
X50666330Y-45021326D01*
X54061359Y-48416355D01*
X54064069Y-48419210D01*
X54091330Y-48449486D01*
X54113936Y-48459551D01*
X54124304Y-48465181D01*
X54143997Y-48477969D01*
X54145063Y-48478661D01*
X54153591Y-48480011D01*
X54172412Y-48485587D01*
X54180302Y-48489100D01*
X54180303Y-48489100D01*
X54205053Y-48489100D01*
X54216817Y-48490025D01*
X54241258Y-48493897D01*
X54248278Y-48492015D01*
X54249600Y-48491662D01*
X54269061Y-48489100D01*
X54801901Y-48489100D01*
X54850239Y-48506693D01*
X54875959Y-48551242D01*
X54877101Y-48564300D01*
X54877101Y-48854832D01*
X54887565Y-48957268D01*
X54942558Y-49123228D01*
X54979804Y-49183614D01*
X54991000Y-49223090D01*
X54991000Y-49786455D01*
X54973407Y-49834793D01*
X54928858Y-49860513D01*
X54878200Y-49851580D01*
X54862626Y-49839629D01*
X49781126Y-44758129D01*
X49759386Y-44711509D01*
X49759100Y-44704955D01*
X49759100Y-44600186D01*
X49776693Y-44551848D01*
X49803924Y-44531394D01*
X49854145Y-44509220D01*
X49934220Y-44429145D01*
X49979962Y-44325550D01*
X49982900Y-44300226D01*
X49982900Y-43034774D01*
X49979962Y-43009450D01*
X49934220Y-42905855D01*
X49934219Y-42905854D01*
X49934217Y-42905851D01*
X49854148Y-42825782D01*
X49854145Y-42825780D01*
X49750548Y-42780037D01*
X49731100Y-42777781D01*
X49725226Y-42777100D01*
X49334774Y-42777100D01*
X49329510Y-42777710D01*
X49309451Y-42780037D01*
X49205854Y-42825780D01*
X49205851Y-42825782D01*
X49125782Y-42905851D01*
X49125780Y-42905854D01*
X49080037Y-43009451D01*
X49077100Y-43034776D01*
X49077100Y-44300223D01*
X49080037Y-44325548D01*
X49125780Y-44429145D01*
X49125782Y-44429148D01*
X49205850Y-44509216D01*
X49205852Y-44509217D01*
X49205855Y-44509220D01*
X49256075Y-44531394D01*
X49293187Y-44567012D01*
X49300900Y-44600186D01*
X49300900Y-44823039D01*
X49300797Y-44826975D01*
X49298665Y-44867638D01*
X49307533Y-44890740D01*
X49310883Y-44902050D01*
X49316030Y-44926263D01*
X49316031Y-44926265D01*
X49321108Y-44933253D01*
X49330473Y-44950501D01*
X49333569Y-44958566D01*
X49351064Y-44976061D01*
X49358726Y-44985031D01*
X49373276Y-45005056D01*
X49373278Y-45005058D01*
X49380759Y-45009377D01*
X49396330Y-45021326D01*
X54855074Y-50480071D01*
X54876814Y-50526691D01*
X54877100Y-50533245D01*
X54877100Y-51394827D01*
X54880391Y-51427039D01*
X54887565Y-51497268D01*
X54887565Y-51497270D01*
X54887566Y-51497272D01*
X54903468Y-51545260D01*
X54942558Y-51663228D01*
X54979804Y-51723614D01*
X54991000Y-51763090D01*
X54991000Y-51945455D01*
X54973407Y-51993793D01*
X54928858Y-52019513D01*
X54878200Y-52010580D01*
X54862626Y-51998629D01*
X48511126Y-45647129D01*
X48489386Y-45600509D01*
X48489100Y-45593955D01*
X48489100Y-44600186D01*
X48506693Y-44551848D01*
X48533924Y-44531394D01*
X48584145Y-44509220D01*
X48664220Y-44429145D01*
X48709962Y-44325550D01*
X48712900Y-44300226D01*
X48712900Y-43034774D01*
X48709962Y-43009450D01*
X48664220Y-42905855D01*
X48664219Y-42905854D01*
X48664217Y-42905851D01*
X48584148Y-42825782D01*
X48584145Y-42825780D01*
X48480548Y-42780037D01*
X48461100Y-42777781D01*
X48455226Y-42777100D01*
X48064774Y-42777100D01*
X48047891Y-42779058D01*
X48039449Y-42780038D01*
X47959674Y-42815262D01*
X47908349Y-42818692D01*
X47866827Y-42788328D01*
X47854100Y-42746469D01*
X47854100Y-42671044D01*
X47871693Y-42622706D01*
X47876126Y-42617870D01*
X52142870Y-38351126D01*
X52189490Y-38329386D01*
X52196044Y-38329100D01*
X52889813Y-38329100D01*
X52938151Y-38346693D01*
X52958604Y-38373923D01*
X52980780Y-38424145D01*
X52980782Y-38424148D01*
X53060851Y-38504217D01*
X53060854Y-38504219D01*
X53060855Y-38504220D01*
X53164450Y-38549962D01*
X53189774Y-38552900D01*
X53189776Y-38552900D01*
X54455224Y-38552900D01*
X54455226Y-38552900D01*
X54480550Y-38549962D01*
X54584145Y-38504220D01*
X54664220Y-38424145D01*
X54709962Y-38320550D01*
X54712900Y-38295226D01*
X54712900Y-37904774D01*
X54709962Y-37879450D01*
X54664220Y-37775855D01*
X54664219Y-37775854D01*
X54664217Y-37775851D01*
X54584148Y-37695782D01*
X54584145Y-37695780D01*
X54480548Y-37650037D01*
X54461100Y-37647781D01*
X54455226Y-37647100D01*
X53189774Y-37647100D01*
X53184510Y-37647710D01*
X53164451Y-37650037D01*
X53060854Y-37695780D01*
X53060851Y-37695782D01*
X52980782Y-37775851D01*
X52980780Y-37775854D01*
X52980780Y-37775855D01*
X52958604Y-37826076D01*
X52922987Y-37863187D01*
X52889813Y-37870900D01*
X52077960Y-37870900D01*
X52074024Y-37870797D01*
X52033361Y-37868665D01*
X52033360Y-37868665D01*
X52010252Y-37877535D01*
X51998945Y-37880884D01*
X51974735Y-37886030D01*
X51967748Y-37891107D01*
X51950502Y-37900471D01*
X51942439Y-37903566D01*
X51942434Y-37903569D01*
X51924931Y-37921071D01*
X51915965Y-37928729D01*
X51895942Y-37943277D01*
X51895940Y-37943280D01*
X51891622Y-37950759D01*
X51879673Y-37966329D01*
X47468631Y-42377370D01*
X47465778Y-42380078D01*
X47435514Y-42407329D01*
X47435512Y-42407333D01*
X47425446Y-42429939D01*
X47419821Y-42440300D01*
X47406338Y-42461065D01*
X47404986Y-42469599D01*
X47399414Y-42488409D01*
X47395900Y-42496303D01*
X47395900Y-42521053D01*
X47394974Y-42532818D01*
X47391103Y-42557256D01*
X47391103Y-42557257D01*
X47393337Y-42565594D01*
X47395900Y-42585059D01*
X47395900Y-42747015D01*
X47378307Y-42795353D01*
X47333758Y-42821073D01*
X47290325Y-42815807D01*
X47240000Y-42793586D01*
X47240000Y-44541411D01*
X47290325Y-44519191D01*
X47341650Y-44515760D01*
X47383173Y-44546124D01*
X47395900Y-44587983D01*
X47395900Y-47363039D01*
X47395797Y-47366975D01*
X47393665Y-47407638D01*
X47402533Y-47430740D01*
X47405883Y-47442050D01*
X47411030Y-47466263D01*
X47411031Y-47466265D01*
X47416108Y-47473253D01*
X47425473Y-47490501D01*
X47428569Y-47498566D01*
X47446064Y-47516061D01*
X47453726Y-47525031D01*
X47468276Y-47545056D01*
X47468278Y-47545058D01*
X47475759Y-47549377D01*
X47491330Y-47561326D01*
X47688874Y-47758870D01*
X47710614Y-47805490D01*
X47710900Y-47812044D01*
X47710900Y-47974429D01*
X47693307Y-48022767D01*
X47648758Y-48048487D01*
X47646544Y-48048843D01*
X47621796Y-48052449D01*
X47512235Y-48106010D01*
X47426010Y-48192235D01*
X47372449Y-48301797D01*
X47362100Y-48372817D01*
X47362100Y-49417182D01*
X47371299Y-49480310D01*
X47372449Y-49488203D01*
X47426008Y-49597761D01*
X47426009Y-49597762D01*
X47426010Y-49597764D01*
X47512235Y-49683989D01*
X47512236Y-49683989D01*
X47512239Y-49683992D01*
X47621797Y-49737551D01*
X47646541Y-49741156D01*
X47691838Y-49765534D01*
X47710866Y-49813325D01*
X47710900Y-49815570D01*
X47710900Y-50091039D01*
X47710797Y-50094975D01*
X47708665Y-50135638D01*
X47717533Y-50158740D01*
X47720883Y-50170050D01*
X47726030Y-50194263D01*
X47726031Y-50194265D01*
X47731108Y-50201253D01*
X47740473Y-50218501D01*
X47743569Y-50226566D01*
X47761064Y-50244061D01*
X47768726Y-50253031D01*
X47783276Y-50273056D01*
X47783278Y-50273058D01*
X47790759Y-50277377D01*
X47806330Y-50289326D01*
X48219359Y-50702355D01*
X48222069Y-50705210D01*
X48249330Y-50735486D01*
X48271936Y-50745551D01*
X48282304Y-50751181D01*
X48303060Y-50764660D01*
X48303061Y-50764660D01*
X48303063Y-50764661D01*
X48311589Y-50766011D01*
X48330408Y-50771585D01*
X48338303Y-50775100D01*
X48363059Y-50775100D01*
X48374821Y-50776025D01*
X48399258Y-50779896D01*
X48407596Y-50777662D01*
X48427057Y-50775100D01*
X49149956Y-50775100D01*
X49198294Y-50792693D01*
X49203130Y-50797126D01*
X49532874Y-51126870D01*
X49554614Y-51173490D01*
X49554900Y-51180044D01*
X49554900Y-51264900D01*
X49537307Y-51313238D01*
X49492758Y-51338958D01*
X49479700Y-51340100D01*
X49123141Y-51340100D01*
X49123136Y-51340101D01*
X49049682Y-51350801D01*
X49049680Y-51350802D01*
X48936372Y-51406195D01*
X48847195Y-51495372D01*
X48791802Y-51608681D01*
X48791801Y-51608681D01*
X48781100Y-51682126D01*
X48781100Y-52203858D01*
X48781101Y-52203863D01*
X48791801Y-52277317D01*
X48791802Y-52277319D01*
X48847195Y-52390627D01*
X48936372Y-52479804D01*
X48936373Y-52479804D01*
X48936375Y-52479806D01*
X49049681Y-52535198D01*
X49123137Y-52545900D01*
X50444862Y-52545899D01*
X50518319Y-52535198D01*
X50631625Y-52479806D01*
X50720806Y-52390625D01*
X50776198Y-52277319D01*
X50786900Y-52203863D01*
X50786899Y-51682138D01*
X50776198Y-51608681D01*
X50720806Y-51495375D01*
X50720804Y-51495373D01*
X50720804Y-51495372D01*
X50631627Y-51406195D01*
X50631625Y-51406194D01*
X50518319Y-51350802D01*
X50518318Y-51350801D01*
X50444873Y-51340100D01*
X50444863Y-51340100D01*
X50088300Y-51340100D01*
X50039962Y-51322507D01*
X50014242Y-51277958D01*
X50013100Y-51264900D01*
X50013100Y-51061958D01*
X50013203Y-51058022D01*
X50015334Y-51017360D01*
X50006467Y-50994261D01*
X50003116Y-50982947D01*
X49997970Y-50958740D01*
X49997969Y-50958735D01*
X49992892Y-50951747D01*
X49983524Y-50934491D01*
X49980432Y-50926435D01*
X49980431Y-50926433D01*
X49962932Y-50908934D01*
X49955269Y-50899963D01*
X49940722Y-50879942D01*
X49933241Y-50875623D01*
X49917671Y-50863674D01*
X49443630Y-50389633D01*
X49440920Y-50386778D01*
X49413669Y-50356513D01*
X49391058Y-50346445D01*
X49380692Y-50340817D01*
X49359936Y-50327339D01*
X49359933Y-50327338D01*
X49351401Y-50325986D01*
X49332587Y-50320412D01*
X49324698Y-50316900D01*
X49324697Y-50316900D01*
X49299946Y-50316900D01*
X49288183Y-50315974D01*
X49272889Y-50313551D01*
X49263743Y-50312103D01*
X49263741Y-50312103D01*
X49255400Y-50314338D01*
X49235939Y-50316900D01*
X48513045Y-50316900D01*
X48464707Y-50299307D01*
X48459871Y-50294874D01*
X48191126Y-50026129D01*
X48169386Y-49979509D01*
X48169100Y-49972955D01*
X48169100Y-49815570D01*
X48186693Y-49767232D01*
X48231242Y-49741512D01*
X48233443Y-49741158D01*
X48258203Y-49737551D01*
X48367761Y-49683992D01*
X48453992Y-49597761D01*
X48507551Y-49488203D01*
X48517900Y-49417174D01*
X48517900Y-48372826D01*
X48507551Y-48301797D01*
X48453992Y-48192239D01*
X48453989Y-48192236D01*
X48453989Y-48192235D01*
X48367764Y-48106010D01*
X48367762Y-48106009D01*
X48367761Y-48106008D01*
X48258203Y-48052449D01*
X48233456Y-48048843D01*
X48188161Y-48024463D01*
X48169133Y-47976672D01*
X48169100Y-47974429D01*
X48169100Y-47693958D01*
X48169203Y-47690022D01*
X48171334Y-47649360D01*
X48162467Y-47626261D01*
X48159116Y-47614947D01*
X48153969Y-47590737D01*
X48153969Y-47590735D01*
X48148890Y-47583744D01*
X48139524Y-47566491D01*
X48136432Y-47558437D01*
X48136430Y-47558433D01*
X48118932Y-47540935D01*
X48111268Y-47531963D01*
X48101555Y-47518594D01*
X48096722Y-47511942D01*
X48096721Y-47511941D01*
X48089242Y-47507623D01*
X48073670Y-47495673D01*
X47876126Y-47298129D01*
X47854386Y-47251509D01*
X47854100Y-47244955D01*
X47854100Y-44588529D01*
X47871693Y-44540191D01*
X47916242Y-44514471D01*
X47959673Y-44519736D01*
X47986073Y-44531393D01*
X47986075Y-44531394D01*
X48023188Y-44567013D01*
X48030900Y-44600186D01*
X48030900Y-45712039D01*
X48030797Y-45715975D01*
X48028665Y-45756638D01*
X48037533Y-45779740D01*
X48040883Y-45791050D01*
X48046030Y-45815263D01*
X48046031Y-45815265D01*
X48051108Y-45822253D01*
X48060473Y-45839501D01*
X48063569Y-45847566D01*
X48081064Y-45865061D01*
X48088726Y-45874031D01*
X48103276Y-45894056D01*
X48103278Y-45894058D01*
X48110759Y-45898377D01*
X48126330Y-45910326D01*
X54859623Y-52643619D01*
X54881363Y-52690239D01*
X54881260Y-52704433D01*
X54877100Y-52745169D01*
X54877100Y-53934827D01*
X54877101Y-53934832D01*
X54887565Y-54037268D01*
X54887565Y-54037270D01*
X54887566Y-54037272D01*
X54908198Y-54099535D01*
X54942558Y-54203228D01*
X54979804Y-54263614D01*
X54991000Y-54303090D01*
X54991000Y-54483500D01*
X54973407Y-54531838D01*
X54928858Y-54557558D01*
X54915800Y-54558700D01*
X41604200Y-54558700D01*
X41555862Y-54541107D01*
X41530142Y-54496558D01*
X41529000Y-54483500D01*
X41529000Y-54302138D01*
X41540196Y-54262659D01*
X41576985Y-54203015D01*
X41631940Y-54037167D01*
X41631941Y-54037165D01*
X41642400Y-53934795D01*
X41642400Y-53590000D01*
X41604200Y-53590000D01*
X41555862Y-53572407D01*
X41530142Y-53527858D01*
X41529000Y-53514800D01*
X41529000Y-53165200D01*
X41546593Y-53116862D01*
X41591142Y-53091142D01*
X41604200Y-53090000D01*
X41642400Y-53090000D01*
X41642400Y-52745204D01*
X41631941Y-52642834D01*
X41631940Y-52642832D01*
X41576985Y-52476984D01*
X41540196Y-52417339D01*
X41529000Y-52377861D01*
X41529000Y-51763090D01*
X41540195Y-51723614D01*
X41577442Y-51663228D01*
X41632435Y-51497268D01*
X41642900Y-51394833D01*
X41642899Y-50205168D01*
X41638737Y-50164434D01*
X41651327Y-50114562D01*
X41660369Y-50103625D01*
X45876383Y-45887612D01*
X45879199Y-45884939D01*
X45909486Y-45857670D01*
X45919555Y-45835053D01*
X45925177Y-45824698D01*
X45938662Y-45803936D01*
X45940013Y-45795400D01*
X45945588Y-45776582D01*
X45949100Y-45768697D01*
X45949100Y-45743947D01*
X45950026Y-45732182D01*
X45953897Y-45707742D01*
X45953419Y-45705960D01*
X45951662Y-45699398D01*
X45949100Y-45679938D01*
X45949100Y-44600186D01*
X45966693Y-44551848D01*
X45993925Y-44531394D01*
X45993927Y-44531393D01*
X46020326Y-44519736D01*
X46071650Y-44516306D01*
X46113173Y-44546669D01*
X46125900Y-44588529D01*
X46125900Y-45974954D01*
X46108307Y-46023292D01*
X46103874Y-46028128D01*
X44801631Y-47330370D01*
X44798778Y-47333078D01*
X44768514Y-47360329D01*
X44768512Y-47360333D01*
X44758446Y-47382939D01*
X44752821Y-47393300D01*
X44739338Y-47414065D01*
X44737986Y-47422599D01*
X44732414Y-47441409D01*
X44728900Y-47449303D01*
X44728900Y-47474053D01*
X44727974Y-47485817D01*
X44724103Y-47510258D01*
X44724554Y-47511942D01*
X44726337Y-47518594D01*
X44728900Y-47538059D01*
X44728900Y-51427039D01*
X44728797Y-51430975D01*
X44726665Y-51471638D01*
X44735533Y-51494740D01*
X44738883Y-51506050D01*
X44744030Y-51530263D01*
X44744031Y-51530265D01*
X44749108Y-51537253D01*
X44758473Y-51554501D01*
X44761569Y-51562566D01*
X44779064Y-51580061D01*
X44786726Y-51589031D01*
X44801276Y-51609056D01*
X44801278Y-51609058D01*
X44808759Y-51613377D01*
X44824330Y-51625326D01*
X45298359Y-52099355D01*
X45301069Y-52102210D01*
X45328330Y-52132486D01*
X45350936Y-52142551D01*
X45361304Y-52148181D01*
X45382060Y-52161660D01*
X45382061Y-52161660D01*
X45382063Y-52161661D01*
X45390589Y-52163011D01*
X45409408Y-52168585D01*
X45417303Y-52172100D01*
X45442059Y-52172100D01*
X45453821Y-52173025D01*
X45478258Y-52176896D01*
X45483567Y-52175473D01*
X45486597Y-52174662D01*
X45506058Y-52172100D01*
X45663435Y-52172100D01*
X45711773Y-52189693D01*
X45737493Y-52234242D01*
X45737850Y-52236460D01*
X45743801Y-52277317D01*
X45743802Y-52277319D01*
X45799195Y-52390627D01*
X45888372Y-52479804D01*
X45888373Y-52479804D01*
X45888375Y-52479806D01*
X46001681Y-52535198D01*
X46075137Y-52545900D01*
X47396862Y-52545899D01*
X47470319Y-52535198D01*
X47583625Y-52479806D01*
X47672806Y-52390625D01*
X47728198Y-52277319D01*
X47738900Y-52203863D01*
X47738899Y-51682138D01*
X47728198Y-51608681D01*
X47672806Y-51495375D01*
X47672804Y-51495373D01*
X47672804Y-51495372D01*
X47583627Y-51406195D01*
X47583625Y-51406194D01*
X47470319Y-51350802D01*
X47470318Y-51350801D01*
X47396867Y-51340100D01*
X46075141Y-51340100D01*
X46075136Y-51340101D01*
X46001682Y-51350801D01*
X46001680Y-51350802D01*
X45888372Y-51406195D01*
X45799195Y-51495372D01*
X45743802Y-51608681D01*
X45743801Y-51608682D01*
X45737849Y-51649541D01*
X45713471Y-51694838D01*
X45665680Y-51713866D01*
X45663435Y-51713900D01*
X45592045Y-51713900D01*
X45543707Y-51696307D01*
X45538871Y-51691874D01*
X45209126Y-51362129D01*
X45187386Y-51315509D01*
X45187100Y-51308955D01*
X45187100Y-49145000D01*
X45462601Y-49145000D01*
X45462601Y-49417142D01*
X45472934Y-49488059D01*
X45526421Y-49597469D01*
X45612530Y-49683578D01*
X45721941Y-49737065D01*
X45721941Y-49737066D01*
X45790000Y-49746982D01*
X45790000Y-49145000D01*
X46290000Y-49145000D01*
X46290000Y-49746980D01*
X46358058Y-49737066D01*
X46467467Y-49683580D01*
X46553578Y-49597469D01*
X46607065Y-49488058D01*
X46617399Y-49417141D01*
X46617400Y-49417131D01*
X46617400Y-49145000D01*
X46290000Y-49145000D01*
X45790000Y-49145000D01*
X45462601Y-49145000D01*
X45187100Y-49145000D01*
X45187100Y-48645000D01*
X45462600Y-48645000D01*
X45790000Y-48645000D01*
X45790000Y-48043017D01*
X45721941Y-48052933D01*
X45721941Y-48052934D01*
X45612530Y-48106421D01*
X45526421Y-48192530D01*
X45472934Y-48301941D01*
X45462600Y-48372858D01*
X45462600Y-48645000D01*
X45187100Y-48645000D01*
X45187100Y-48043016D01*
X46290000Y-48043016D01*
X46290000Y-48645000D01*
X46617399Y-48645000D01*
X46617399Y-48372869D01*
X46617398Y-48372857D01*
X46607065Y-48301940D01*
X46553578Y-48192530D01*
X46467469Y-48106421D01*
X46358058Y-48052933D01*
X46290000Y-48043016D01*
X45187100Y-48043016D01*
X45187100Y-47624043D01*
X45204693Y-47575705D01*
X45209115Y-47570880D01*
X46511373Y-46268621D01*
X46514189Y-46265948D01*
X46544486Y-46238670D01*
X46554552Y-46216059D01*
X46560184Y-46205689D01*
X46573660Y-46184938D01*
X46573659Y-46184938D01*
X46573661Y-46184937D01*
X46575011Y-46176407D01*
X46580586Y-46157586D01*
X46584100Y-46149697D01*
X46584100Y-46124946D01*
X46585026Y-46113180D01*
X46588897Y-46088742D01*
X46588419Y-46086960D01*
X46586662Y-46080398D01*
X46584100Y-46060938D01*
X46584100Y-44587983D01*
X46601693Y-44539645D01*
X46646242Y-44513925D01*
X46689675Y-44519191D01*
X46739999Y-44541411D01*
X46740000Y-44541411D01*
X46740000Y-42793586D01*
X46739999Y-42793586D01*
X46689675Y-42815807D01*
X46638350Y-42819238D01*
X46596827Y-42788875D01*
X46584100Y-42747015D01*
X46584100Y-42417043D01*
X46601693Y-42368705D01*
X46606115Y-42363880D01*
X50956373Y-38013621D01*
X50959189Y-38010948D01*
X50989486Y-37983670D01*
X50999552Y-37961059D01*
X51005184Y-37950689D01*
X51009997Y-37943278D01*
X51018661Y-37929937D01*
X51020011Y-37921407D01*
X51025586Y-37902586D01*
X51029100Y-37894697D01*
X51029100Y-37869946D01*
X51030026Y-37858180D01*
X51030798Y-37853307D01*
X51033897Y-37833742D01*
X51031843Y-37826075D01*
X51031662Y-37825398D01*
X51029100Y-37805938D01*
X51029100Y-31610692D01*
X51046693Y-31562354D01*
X51063645Y-31547429D01*
X51099633Y-31524301D01*
X51099633Y-31524300D01*
X51099636Y-31524299D01*
X51184921Y-31425874D01*
X51239023Y-31307409D01*
X51257557Y-31178500D01*
X51239023Y-31049591D01*
X51236577Y-31044236D01*
X51184921Y-30931126D01*
X51184919Y-30931123D01*
X51168205Y-30911834D01*
X51157567Y-30899557D01*
X51139209Y-30851507D01*
X51156033Y-30802896D01*
X51161216Y-30797148D01*
X51204220Y-30754145D01*
X51249962Y-30650550D01*
X51252900Y-30625226D01*
X51252900Y-30242500D01*
X51617600Y-30242500D01*
X51617600Y-30625150D01*
X51620532Y-30650432D01*
X51666199Y-30753857D01*
X51666201Y-30753860D01*
X51746138Y-30833797D01*
X51746141Y-30833799D01*
X51820000Y-30866411D01*
X51820000Y-30242500D01*
X52320000Y-30242500D01*
X52320000Y-30866410D01*
X52393858Y-30833799D01*
X52393861Y-30833797D01*
X52473798Y-30753860D01*
X52473800Y-30753857D01*
X52519467Y-30650432D01*
X52522400Y-30625150D01*
X52522400Y-30242500D01*
X52320000Y-30242500D01*
X51820000Y-30242500D01*
X51617600Y-30242500D01*
X51252900Y-30242500D01*
X51252900Y-29742500D01*
X51617600Y-29742500D01*
X51820000Y-29742500D01*
X51820000Y-29118586D01*
X52320000Y-29118586D01*
X52320000Y-29742500D01*
X52522400Y-29742500D01*
X52522400Y-29359849D01*
X52519467Y-29334567D01*
X52473800Y-29231142D01*
X52473798Y-29231139D01*
X52393860Y-29151201D01*
X52393854Y-29151197D01*
X52320000Y-29118586D01*
X51820000Y-29118586D01*
X51746145Y-29151197D01*
X51746139Y-29151201D01*
X51666201Y-29231139D01*
X51666199Y-29231142D01*
X51620532Y-29334567D01*
X51617600Y-29359849D01*
X51617600Y-29742500D01*
X51252900Y-29742500D01*
X51252900Y-29359774D01*
X51249962Y-29334450D01*
X51204220Y-29230855D01*
X51204219Y-29230854D01*
X51204217Y-29230851D01*
X51124148Y-29150782D01*
X51124145Y-29150780D01*
X51020548Y-29105037D01*
X51001100Y-29102781D01*
X50995226Y-29102100D01*
X50604774Y-29102100D01*
X50599510Y-29102710D01*
X50579451Y-29105037D01*
X50475854Y-29150780D01*
X50475851Y-29150782D01*
X50395782Y-29230851D01*
X50395780Y-29230854D01*
X50350037Y-29334451D01*
X50347100Y-29359776D01*
X50347100Y-30625223D01*
X50350037Y-30650548D01*
X50395780Y-30754145D01*
X50395782Y-30754148D01*
X50438773Y-30797139D01*
X50460513Y-30843759D01*
X50447199Y-30893446D01*
X50442432Y-30899557D01*
X50415081Y-30931122D01*
X50415078Y-30931127D01*
X50360977Y-31049588D01*
X50342443Y-31178500D01*
X50360977Y-31307411D01*
X50415078Y-31425873D01*
X50415080Y-31425876D01*
X50500366Y-31524301D01*
X50536355Y-31547429D01*
X50567508Y-31588363D01*
X50570900Y-31610692D01*
X50570900Y-37719954D01*
X50553307Y-37768292D01*
X50548874Y-37773128D01*
X46198631Y-42123370D01*
X46195778Y-42126078D01*
X46165514Y-42153329D01*
X46165512Y-42153333D01*
X46155446Y-42175939D01*
X46149821Y-42186300D01*
X46136338Y-42207065D01*
X46134986Y-42215599D01*
X46129414Y-42234409D01*
X46125900Y-42242303D01*
X46125900Y-42267053D01*
X46124974Y-42278818D01*
X46121103Y-42303256D01*
X46121103Y-42303257D01*
X46123337Y-42311594D01*
X46125900Y-42331059D01*
X46125900Y-42746469D01*
X46108307Y-42794807D01*
X46063758Y-42820527D01*
X46020326Y-42815262D01*
X45940550Y-42780038D01*
X45940541Y-42780037D01*
X45915226Y-42777100D01*
X45524774Y-42777100D01*
X45519510Y-42777710D01*
X45499451Y-42780037D01*
X45395854Y-42825780D01*
X45395851Y-42825782D01*
X45315782Y-42905851D01*
X45315780Y-42905854D01*
X45270037Y-43009451D01*
X45267100Y-43034776D01*
X45267100Y-44300223D01*
X45270037Y-44325548D01*
X45315780Y-44429145D01*
X45315782Y-44429148D01*
X45395850Y-44509216D01*
X45395852Y-44509217D01*
X45395855Y-44509220D01*
X45446075Y-44531394D01*
X45483187Y-44567012D01*
X45490900Y-44600186D01*
X45490900Y-45593955D01*
X45473307Y-45642293D01*
X45468874Y-45647129D01*
X41657374Y-49458629D01*
X41610754Y-49480369D01*
X41561067Y-49467055D01*
X41531562Y-49424918D01*
X41529000Y-49405455D01*
X41529000Y-49223090D01*
X41540195Y-49183614D01*
X41577442Y-49123228D01*
X41632435Y-48957268D01*
X41642900Y-48854833D01*
X41642899Y-47993242D01*
X41660492Y-47944905D01*
X41664914Y-47940081D01*
X44606373Y-44998621D01*
X44609189Y-44995948D01*
X44639486Y-44968670D01*
X44649552Y-44946059D01*
X44655184Y-44935689D01*
X44661304Y-44926265D01*
X44668661Y-44914937D01*
X44670011Y-44906407D01*
X44675586Y-44887586D01*
X44679100Y-44879697D01*
X44679100Y-44854946D01*
X44680026Y-44843180D01*
X44683897Y-44818742D01*
X44683419Y-44816960D01*
X44681662Y-44810398D01*
X44679100Y-44790938D01*
X44679100Y-44600186D01*
X44696693Y-44551848D01*
X44723924Y-44531394D01*
X44774145Y-44509220D01*
X44854220Y-44429145D01*
X44899962Y-44325550D01*
X44902900Y-44300226D01*
X44902900Y-43034774D01*
X44899962Y-43009450D01*
X44854220Y-42905855D01*
X44854219Y-42905854D01*
X44854217Y-42905851D01*
X44774148Y-42825782D01*
X44774145Y-42825780D01*
X44670548Y-42780037D01*
X44651100Y-42777781D01*
X44645226Y-42777100D01*
X44254774Y-42777100D01*
X44249510Y-42777710D01*
X44229451Y-42780037D01*
X44125854Y-42825780D01*
X44125851Y-42825782D01*
X44045782Y-42905851D01*
X44045780Y-42905854D01*
X44000037Y-43009451D01*
X43997100Y-43034776D01*
X43997100Y-44300223D01*
X44000037Y-44325548D01*
X44045780Y-44429145D01*
X44045782Y-44429148D01*
X44125850Y-44509216D01*
X44125852Y-44509217D01*
X44125855Y-44509220D01*
X44176075Y-44531394D01*
X44213187Y-44567012D01*
X44220900Y-44600186D01*
X44220900Y-44704955D01*
X44203307Y-44753293D01*
X44198874Y-44758129D01*
X41657374Y-47299629D01*
X41610754Y-47321369D01*
X41561067Y-47308055D01*
X41531562Y-47265918D01*
X41529000Y-47246455D01*
X41529000Y-46683090D01*
X41540195Y-46643614D01*
X41577442Y-46583228D01*
X41632435Y-46417268D01*
X41642900Y-46314833D01*
X41642899Y-45125168D01*
X41638737Y-45084434D01*
X41651327Y-45034562D01*
X41660369Y-45023625D01*
X42853873Y-43830121D01*
X42856689Y-43827448D01*
X42886986Y-43800170D01*
X42897056Y-43777550D01*
X42902679Y-43767195D01*
X42916161Y-43746437D01*
X42917511Y-43737908D01*
X42923085Y-43719090D01*
X42926600Y-43711197D01*
X42926600Y-43686440D01*
X42927526Y-43674675D01*
X42931396Y-43650242D01*
X42930816Y-43648078D01*
X42929162Y-43641902D01*
X42926600Y-43622442D01*
X42926600Y-42438100D01*
X42944193Y-42389762D01*
X42988742Y-42364042D01*
X43001800Y-42362900D01*
X43330224Y-42362900D01*
X43330226Y-42362900D01*
X43355550Y-42359962D01*
X43459145Y-42314220D01*
X43539220Y-42234145D01*
X43584962Y-42130550D01*
X43587900Y-42105226D01*
X43587900Y-41714774D01*
X43584962Y-41689450D01*
X43539220Y-41585855D01*
X43539219Y-41585854D01*
X43539217Y-41585851D01*
X43459148Y-41505782D01*
X43459145Y-41505780D01*
X43355548Y-41460037D01*
X43336100Y-41457781D01*
X43330226Y-41457100D01*
X42064774Y-41457100D01*
X42059510Y-41457710D01*
X42039451Y-41460037D01*
X41935854Y-41505780D01*
X41935851Y-41505782D01*
X41855782Y-41585851D01*
X41855780Y-41585854D01*
X41810037Y-41689451D01*
X41807100Y-41714776D01*
X41807100Y-42105223D01*
X41810037Y-42130548D01*
X41855780Y-42234145D01*
X41855782Y-42234148D01*
X41935851Y-42314217D01*
X41935854Y-42314219D01*
X41935855Y-42314220D01*
X42039450Y-42359962D01*
X42064774Y-42362900D01*
X42393200Y-42362900D01*
X42441538Y-42380493D01*
X42467258Y-42425042D01*
X42468400Y-42438100D01*
X42468400Y-43536455D01*
X42450807Y-43584793D01*
X42446374Y-43589629D01*
X41657374Y-44378629D01*
X41610754Y-44400369D01*
X41561067Y-44387055D01*
X41531562Y-44344918D01*
X41529000Y-44325455D01*
X41529000Y-44143090D01*
X41540195Y-44103614D01*
X41577442Y-44043228D01*
X41632435Y-43877268D01*
X41642900Y-43774833D01*
X41642899Y-42585168D01*
X41632435Y-42482732D01*
X41577442Y-42316772D01*
X41572562Y-42308860D01*
X41540196Y-42256385D01*
X41529000Y-42216908D01*
X41529000Y-41603090D01*
X41540195Y-41563614D01*
X41577442Y-41503228D01*
X41632435Y-41337268D01*
X41642900Y-41234833D01*
X41642900Y-40835223D01*
X41807100Y-40835223D01*
X41810037Y-40860548D01*
X41855780Y-40964145D01*
X41855782Y-40964148D01*
X41935851Y-41044217D01*
X41935854Y-41044219D01*
X41935855Y-41044220D01*
X42039450Y-41089962D01*
X42064774Y-41092900D01*
X42064776Y-41092900D01*
X43330224Y-41092900D01*
X43330226Y-41092900D01*
X43355550Y-41089962D01*
X43459145Y-41044220D01*
X43527315Y-40976049D01*
X43573934Y-40954310D01*
X43623622Y-40967623D01*
X43637317Y-40979975D01*
X43642364Y-40985799D01*
X43733265Y-41044217D01*
X43751926Y-41056209D01*
X43876883Y-41092900D01*
X44007117Y-41092900D01*
X44132073Y-41056209D01*
X44132073Y-41056208D01*
X44132076Y-41056208D01*
X44241636Y-40985799D01*
X44326921Y-40887374D01*
X44381023Y-40768909D01*
X44399557Y-40640000D01*
X44381023Y-40511091D01*
X44350737Y-40444776D01*
X44326921Y-40392626D01*
X44326919Y-40392623D01*
X44260398Y-40315854D01*
X44241636Y-40294201D01*
X44241635Y-40294200D01*
X44241633Y-40294198D01*
X44132073Y-40223790D01*
X44007117Y-40187100D01*
X43876883Y-40187100D01*
X43751928Y-40223790D01*
X43751925Y-40223791D01*
X43751924Y-40223792D01*
X43642364Y-40294201D01*
X43642363Y-40294201D01*
X43642363Y-40294202D01*
X43637320Y-40300022D01*
X43592369Y-40325031D01*
X43541859Y-40315294D01*
X43527315Y-40303949D01*
X43459148Y-40235782D01*
X43459145Y-40235780D01*
X43355548Y-40190037D01*
X43336100Y-40187781D01*
X43330226Y-40187100D01*
X42064774Y-40187100D01*
X42059510Y-40187710D01*
X42039451Y-40190037D01*
X41935854Y-40235780D01*
X41935851Y-40235782D01*
X41855782Y-40315851D01*
X41855780Y-40315854D01*
X41810037Y-40419451D01*
X41807100Y-40444776D01*
X41807100Y-40835223D01*
X41642900Y-40835223D01*
X41642899Y-40045168D01*
X41632435Y-39942732D01*
X41590982Y-39817633D01*
X41592478Y-39766215D01*
X41609188Y-39740807D01*
X41716918Y-39633078D01*
X41763537Y-39611340D01*
X41813224Y-39624654D01*
X41838883Y-39655879D01*
X41855777Y-39694141D01*
X41855782Y-39694148D01*
X41935851Y-39774217D01*
X41935854Y-39774219D01*
X41935855Y-39774220D01*
X42039450Y-39819962D01*
X42064774Y-39822900D01*
X42064776Y-39822900D01*
X43330224Y-39822900D01*
X43330226Y-39822900D01*
X43355550Y-39819962D01*
X43459145Y-39774220D01*
X43539220Y-39694145D01*
X43584962Y-39590550D01*
X43587900Y-39565226D01*
X43587900Y-39174774D01*
X43584962Y-39149450D01*
X43539220Y-39045855D01*
X43539219Y-39045854D01*
X43539217Y-39045851D01*
X43459148Y-38965782D01*
X43459145Y-38965780D01*
X43355548Y-38920037D01*
X43336100Y-38917781D01*
X43330226Y-38917100D01*
X42064774Y-38917100D01*
X42059510Y-38917710D01*
X42039451Y-38920037D01*
X41935854Y-38965780D01*
X41935851Y-38965782D01*
X41855782Y-39045851D01*
X41855780Y-39045854D01*
X41848170Y-39063090D01*
X41833604Y-39096076D01*
X41797987Y-39133187D01*
X41764813Y-39140900D01*
X41663960Y-39140900D01*
X41660024Y-39140797D01*
X41619360Y-39138665D01*
X41615960Y-39139204D01*
X41565466Y-39129386D01*
X41533096Y-39089408D01*
X41529000Y-39064929D01*
X41529000Y-39063090D01*
X41540195Y-39023614D01*
X41577442Y-38963228D01*
X41632435Y-38797268D01*
X41642900Y-38694833D01*
X41642900Y-38404300D01*
X41660493Y-38355962D01*
X41705042Y-38330242D01*
X41718100Y-38329100D01*
X41764813Y-38329100D01*
X41813151Y-38346693D01*
X41833604Y-38373923D01*
X41855780Y-38424145D01*
X41855782Y-38424148D01*
X41935851Y-38504217D01*
X41935854Y-38504219D01*
X41935855Y-38504220D01*
X42039450Y-38549962D01*
X42064774Y-38552900D01*
X42064776Y-38552900D01*
X43330224Y-38552900D01*
X43330226Y-38552900D01*
X43355550Y-38549962D01*
X43459145Y-38504220D01*
X43539220Y-38424145D01*
X43584962Y-38320550D01*
X43587900Y-38295226D01*
X43587900Y-37904774D01*
X43584962Y-37879450D01*
X43539220Y-37775855D01*
X43539219Y-37775854D01*
X43539217Y-37775851D01*
X43459148Y-37695782D01*
X43459145Y-37695780D01*
X43355548Y-37650037D01*
X43336100Y-37647781D01*
X43330226Y-37647100D01*
X42064774Y-37647100D01*
X42059510Y-37647710D01*
X42039451Y-37650037D01*
X41935854Y-37695780D01*
X41935851Y-37695782D01*
X41855782Y-37775851D01*
X41855780Y-37775854D01*
X41855780Y-37775855D01*
X41833604Y-37826076D01*
X41797987Y-37863187D01*
X41764813Y-37870900D01*
X41718099Y-37870900D01*
X41669761Y-37853307D01*
X41644041Y-37808758D01*
X41642899Y-37795700D01*
X41642899Y-37505172D01*
X41642899Y-37505168D01*
X41632435Y-37402732D01*
X41577442Y-37236772D01*
X41572562Y-37228860D01*
X41540196Y-37176385D01*
X41529000Y-37136908D01*
X41529000Y-37134300D01*
X41546593Y-37085962D01*
X41591142Y-37060242D01*
X41604200Y-37059100D01*
X41764813Y-37059100D01*
X41813151Y-37076693D01*
X41833604Y-37103923D01*
X41848169Y-37136908D01*
X41855780Y-37154145D01*
X41855782Y-37154148D01*
X41935851Y-37234217D01*
X41935854Y-37234219D01*
X41935855Y-37234220D01*
X42039450Y-37279962D01*
X42064774Y-37282900D01*
X42064776Y-37282900D01*
X43330224Y-37282900D01*
X43330226Y-37282900D01*
X43355550Y-37279962D01*
X43459145Y-37234220D01*
X43539220Y-37154145D01*
X43584962Y-37050550D01*
X43587900Y-37025226D01*
X43587900Y-36634774D01*
X43584962Y-36609450D01*
X43539220Y-36505855D01*
X43539219Y-36505854D01*
X43539217Y-36505851D01*
X43459148Y-36425782D01*
X43459145Y-36425780D01*
X43355548Y-36380037D01*
X43336100Y-36377781D01*
X43330226Y-36377100D01*
X42064774Y-36377100D01*
X42059510Y-36377710D01*
X42039451Y-36380037D01*
X41935854Y-36425780D01*
X41935851Y-36425782D01*
X41855782Y-36505851D01*
X41855780Y-36505854D01*
X41849512Y-36520050D01*
X41833604Y-36556076D01*
X41797987Y-36593187D01*
X41764813Y-36600900D01*
X41655045Y-36600900D01*
X41606707Y-36583307D01*
X41601870Y-36578874D01*
X41569427Y-36546430D01*
X41547688Y-36499809D01*
X41558599Y-36453777D01*
X41577440Y-36423231D01*
X41577442Y-36423228D01*
X41632435Y-36257268D01*
X41642900Y-36154833D01*
X41642900Y-35755223D01*
X41807100Y-35755223D01*
X41810037Y-35780548D01*
X41855780Y-35884145D01*
X41855782Y-35884148D01*
X41935851Y-35964217D01*
X41935854Y-35964219D01*
X41935855Y-35964220D01*
X42039450Y-36009962D01*
X42064774Y-36012900D01*
X42064776Y-36012900D01*
X43330224Y-36012900D01*
X43330226Y-36012900D01*
X43355550Y-36009962D01*
X43459145Y-35964220D01*
X43527315Y-35896049D01*
X43573934Y-35874310D01*
X43623622Y-35887623D01*
X43637317Y-35899975D01*
X43642364Y-35905799D01*
X43733265Y-35964217D01*
X43751926Y-35976209D01*
X43876883Y-36012900D01*
X44007117Y-36012900D01*
X44132073Y-35976209D01*
X44132073Y-35976208D01*
X44132076Y-35976208D01*
X44241636Y-35905799D01*
X44326921Y-35807374D01*
X44381023Y-35688909D01*
X44399557Y-35560000D01*
X44381023Y-35431091D01*
X44350737Y-35364776D01*
X44326921Y-35312626D01*
X44326919Y-35312623D01*
X44260398Y-35235854D01*
X44241636Y-35214201D01*
X44241635Y-35214200D01*
X44241633Y-35214198D01*
X44132073Y-35143790D01*
X44007117Y-35107100D01*
X43876883Y-35107100D01*
X43751928Y-35143790D01*
X43751925Y-35143791D01*
X43751924Y-35143792D01*
X43642364Y-35214201D01*
X43642363Y-35214201D01*
X43642363Y-35214202D01*
X43637320Y-35220022D01*
X43592369Y-35245031D01*
X43541859Y-35235294D01*
X43527315Y-35223949D01*
X43459148Y-35155782D01*
X43459145Y-35155780D01*
X43355548Y-35110037D01*
X43336100Y-35107781D01*
X43330226Y-35107100D01*
X42064774Y-35107100D01*
X42059510Y-35107710D01*
X42039451Y-35110037D01*
X41935854Y-35155780D01*
X41935851Y-35155782D01*
X41855782Y-35235851D01*
X41855780Y-35235854D01*
X41810037Y-35339451D01*
X41807100Y-35364776D01*
X41807100Y-35755223D01*
X41642900Y-35755223D01*
X41642899Y-34965168D01*
X41632435Y-34862732D01*
X41577442Y-34696772D01*
X41572562Y-34688860D01*
X41540196Y-34636385D01*
X41529000Y-34596908D01*
X41529000Y-34485223D01*
X41807100Y-34485223D01*
X41810037Y-34510548D01*
X41855780Y-34614145D01*
X41855782Y-34614148D01*
X41935851Y-34694217D01*
X41935854Y-34694219D01*
X41935855Y-34694220D01*
X42039450Y-34739962D01*
X42064774Y-34742900D01*
X42064776Y-34742900D01*
X43330224Y-34742900D01*
X43330226Y-34742900D01*
X43355550Y-34739962D01*
X43459145Y-34694220D01*
X43527315Y-34626049D01*
X43573934Y-34604310D01*
X43623622Y-34617623D01*
X43637317Y-34629975D01*
X43642364Y-34635799D01*
X43737236Y-34696769D01*
X43751926Y-34706209D01*
X43876883Y-34742900D01*
X44007117Y-34742900D01*
X44132073Y-34706209D01*
X44132073Y-34706208D01*
X44132076Y-34706208D01*
X44241636Y-34635799D01*
X44326921Y-34537374D01*
X44381023Y-34418909D01*
X44399557Y-34290000D01*
X44381023Y-34161091D01*
X44381021Y-34161087D01*
X44326921Y-34042626D01*
X44326919Y-34042623D01*
X44268350Y-33975031D01*
X44241636Y-33944201D01*
X44241635Y-33944200D01*
X44241633Y-33944198D01*
X44132073Y-33873790D01*
X44007117Y-33837100D01*
X43876883Y-33837100D01*
X43751928Y-33873790D01*
X43751925Y-33873791D01*
X43751924Y-33873792D01*
X43642364Y-33944201D01*
X43642363Y-33944201D01*
X43642363Y-33944202D01*
X43637320Y-33950022D01*
X43592369Y-33975031D01*
X43541859Y-33965294D01*
X43527315Y-33953949D01*
X43459148Y-33885782D01*
X43459145Y-33885780D01*
X43355548Y-33840037D01*
X43336100Y-33837781D01*
X43330226Y-33837100D01*
X42064774Y-33837100D01*
X42059510Y-33837710D01*
X42039451Y-33840037D01*
X41935854Y-33885780D01*
X41935851Y-33885782D01*
X41855782Y-33965851D01*
X41855780Y-33965854D01*
X41810037Y-34069451D01*
X41807100Y-34094776D01*
X41807100Y-34485223D01*
X41529000Y-34485223D01*
X41529000Y-33983090D01*
X41540196Y-33943612D01*
X41577442Y-33883228D01*
X41632435Y-33717268D01*
X41642900Y-33614833D01*
X41642900Y-33215223D01*
X41807100Y-33215223D01*
X41810037Y-33240548D01*
X41855780Y-33344145D01*
X41855782Y-33344148D01*
X41935851Y-33424217D01*
X41935854Y-33424219D01*
X41935855Y-33424220D01*
X42039450Y-33469962D01*
X42064774Y-33472900D01*
X42064776Y-33472900D01*
X43330224Y-33472900D01*
X43330226Y-33472900D01*
X43355550Y-33469962D01*
X43459145Y-33424220D01*
X43527315Y-33356049D01*
X43573934Y-33334310D01*
X43623622Y-33347623D01*
X43637317Y-33359975D01*
X43642364Y-33365799D01*
X43735884Y-33425900D01*
X43751926Y-33436209D01*
X43876883Y-33472900D01*
X44007117Y-33472900D01*
X44132073Y-33436209D01*
X44132073Y-33436208D01*
X44132076Y-33436208D01*
X44241636Y-33365799D01*
X44326921Y-33267374D01*
X44381023Y-33148909D01*
X44399557Y-33020000D01*
X44381023Y-32891091D01*
X44350737Y-32824776D01*
X44326921Y-32772626D01*
X44326919Y-32772623D01*
X44260398Y-32695854D01*
X44241636Y-32674201D01*
X44241635Y-32674200D01*
X44241633Y-32674198D01*
X44132073Y-32603790D01*
X44007117Y-32567100D01*
X43876883Y-32567100D01*
X43751928Y-32603790D01*
X43751925Y-32603791D01*
X43751924Y-32603792D01*
X43642364Y-32674201D01*
X43642363Y-32674201D01*
X43642363Y-32674202D01*
X43637320Y-32680022D01*
X43592369Y-32705031D01*
X43541859Y-32695294D01*
X43527315Y-32683949D01*
X43459148Y-32615782D01*
X43459145Y-32615780D01*
X43355548Y-32570037D01*
X43336100Y-32567781D01*
X43330226Y-32567100D01*
X42064774Y-32567100D01*
X42059510Y-32567710D01*
X42039451Y-32570037D01*
X41935854Y-32615780D01*
X41935851Y-32615782D01*
X41855782Y-32695851D01*
X41855780Y-32695854D01*
X41810037Y-32799451D01*
X41807100Y-32824776D01*
X41807100Y-33215223D01*
X41642900Y-33215223D01*
X41642899Y-32425168D01*
X41632435Y-32322732D01*
X41577442Y-32156772D01*
X41572562Y-32148860D01*
X41540196Y-32096385D01*
X41529000Y-32056908D01*
X41529000Y-31945223D01*
X41807100Y-31945223D01*
X41810037Y-31970548D01*
X41855780Y-32074145D01*
X41855782Y-32074148D01*
X41935851Y-32154217D01*
X41935854Y-32154219D01*
X41935855Y-32154220D01*
X42039450Y-32199962D01*
X42064774Y-32202900D01*
X42064776Y-32202900D01*
X43330224Y-32202900D01*
X43330226Y-32202900D01*
X43355550Y-32199962D01*
X43459145Y-32154220D01*
X43539220Y-32074145D01*
X43584962Y-31970550D01*
X43587900Y-31945226D01*
X43587900Y-31623000D01*
X43928943Y-31623000D01*
X43947477Y-31751911D01*
X44001578Y-31870373D01*
X44001580Y-31870376D01*
X44086866Y-31968801D01*
X44196426Y-32039209D01*
X44321383Y-32075900D01*
X44451617Y-32075900D01*
X44576573Y-32039209D01*
X44576573Y-32039208D01*
X44576576Y-32039208D01*
X44686136Y-31968799D01*
X44731166Y-31916830D01*
X44765806Y-31876855D01*
X44810756Y-31851845D01*
X44822638Y-31850900D01*
X45077064Y-31850900D01*
X45081000Y-31851003D01*
X45121447Y-31853123D01*
X45121447Y-31853122D01*
X45121448Y-31853123D01*
X45144403Y-31844310D01*
X45155722Y-31840958D01*
X45179761Y-31835849D01*
X45179760Y-31835849D01*
X45179766Y-31835848D01*
X45186674Y-31830828D01*
X45203921Y-31821464D01*
X45211896Y-31818403D01*
X45229289Y-31801009D01*
X45238248Y-31793357D01*
X45258146Y-31778901D01*
X45262415Y-31771505D01*
X45274362Y-31755935D01*
X45875547Y-31154750D01*
X45878365Y-31152075D01*
X45908494Y-31124949D01*
X45918496Y-31102481D01*
X45924121Y-31092121D01*
X45937516Y-31071496D01*
X45938851Y-31063061D01*
X45944424Y-31044248D01*
X45947900Y-31036442D01*
X45947900Y-31011852D01*
X45948826Y-31000086D01*
X45952672Y-30975806D01*
X45950460Y-30967553D01*
X45947900Y-30948095D01*
X45947900Y-30925716D01*
X45965493Y-30877378D01*
X45992724Y-30856924D01*
X46044145Y-30834220D01*
X46124220Y-30754145D01*
X46169962Y-30650550D01*
X46172900Y-30625226D01*
X46172900Y-30625223D01*
X46537100Y-30625223D01*
X46540037Y-30650548D01*
X46585780Y-30754145D01*
X46585782Y-30754148D01*
X46665850Y-30834216D01*
X46665852Y-30834217D01*
X46665855Y-30834220D01*
X46716075Y-30856394D01*
X46753187Y-30892012D01*
X46760900Y-30925186D01*
X46760900Y-34155039D01*
X46760797Y-34158975D01*
X46758665Y-34199638D01*
X46767533Y-34222740D01*
X46770883Y-34234050D01*
X46776030Y-34258263D01*
X46776031Y-34258265D01*
X46781108Y-34265253D01*
X46790471Y-34282498D01*
X46793568Y-34290564D01*
X46793569Y-34290566D01*
X46811064Y-34308061D01*
X46818726Y-34317031D01*
X46833276Y-34337056D01*
X46833278Y-34337058D01*
X46840759Y-34341377D01*
X46856330Y-34353326D01*
X48855428Y-36352424D01*
X48877168Y-36399044D01*
X48870658Y-36436837D01*
X48836978Y-36510585D01*
X48836978Y-36510587D01*
X48836978Y-36510588D01*
X48836977Y-36510591D01*
X48819122Y-36634776D01*
X48818443Y-36639500D01*
X48836977Y-36768411D01*
X48891078Y-36886873D01*
X48891080Y-36886876D01*
X48976366Y-36985301D01*
X49038488Y-37025223D01*
X49074955Y-37048659D01*
X49085926Y-37055709D01*
X49210883Y-37092400D01*
X49341117Y-37092400D01*
X49466073Y-37055709D01*
X49466073Y-37055708D01*
X49466076Y-37055708D01*
X49575636Y-36985299D01*
X49660921Y-36886874D01*
X49715023Y-36768409D01*
X49733557Y-36639500D01*
X49715023Y-36510591D01*
X49715021Y-36510587D01*
X49660921Y-36392126D01*
X49660919Y-36392123D01*
X49575633Y-36293698D01*
X49466074Y-36223291D01*
X49354546Y-36190543D01*
X49322559Y-36171563D01*
X47241126Y-34090129D01*
X47219386Y-34043509D01*
X47219100Y-34036955D01*
X47219100Y-30925186D01*
X47236693Y-30876848D01*
X47263924Y-30856394D01*
X47314145Y-30834220D01*
X47394220Y-30754145D01*
X47439962Y-30650550D01*
X47442900Y-30625226D01*
X47442900Y-30242500D01*
X47807600Y-30242500D01*
X47807600Y-30625150D01*
X47810532Y-30650432D01*
X47856199Y-30753857D01*
X47856201Y-30753860D01*
X47936138Y-30833797D01*
X47936141Y-30833799D01*
X48010000Y-30866411D01*
X48010000Y-30242500D01*
X48510000Y-30242500D01*
X48510000Y-30866410D01*
X48583858Y-30833799D01*
X48583861Y-30833797D01*
X48663798Y-30753860D01*
X48663800Y-30753857D01*
X48709467Y-30650432D01*
X48712400Y-30625150D01*
X48712400Y-30242500D01*
X48510000Y-30242500D01*
X48010000Y-30242500D01*
X47807600Y-30242500D01*
X47442900Y-30242500D01*
X47442900Y-29742500D01*
X47807600Y-29742500D01*
X48010000Y-29742500D01*
X48010000Y-29118586D01*
X48510000Y-29118586D01*
X48510000Y-29742500D01*
X48712400Y-29742500D01*
X48712400Y-29359849D01*
X48709467Y-29334567D01*
X48663800Y-29231142D01*
X48663798Y-29231139D01*
X48583860Y-29151201D01*
X48583854Y-29151197D01*
X48510000Y-29118586D01*
X48010000Y-29118586D01*
X47936145Y-29151197D01*
X47936139Y-29151201D01*
X47856201Y-29231139D01*
X47856199Y-29231142D01*
X47810532Y-29334567D01*
X47807600Y-29359849D01*
X47807600Y-29742500D01*
X47442900Y-29742500D01*
X47442900Y-29359774D01*
X47439962Y-29334450D01*
X47394220Y-29230855D01*
X47394219Y-29230854D01*
X47394217Y-29230851D01*
X47314148Y-29150782D01*
X47314145Y-29150780D01*
X47210548Y-29105037D01*
X47191100Y-29102781D01*
X47185226Y-29102100D01*
X46794774Y-29102100D01*
X46789510Y-29102710D01*
X46769451Y-29105037D01*
X46665854Y-29150780D01*
X46665851Y-29150782D01*
X46585782Y-29230851D01*
X46585780Y-29230854D01*
X46540037Y-29334451D01*
X46537100Y-29359776D01*
X46537100Y-30625223D01*
X46172900Y-30625223D01*
X46172900Y-29359774D01*
X46169962Y-29334450D01*
X46124220Y-29230855D01*
X46124219Y-29230854D01*
X46124217Y-29230851D01*
X46044148Y-29150782D01*
X46044145Y-29150780D01*
X45940548Y-29105037D01*
X45921100Y-29102781D01*
X45915226Y-29102100D01*
X45524774Y-29102100D01*
X45519510Y-29102710D01*
X45499451Y-29105037D01*
X45395854Y-29150780D01*
X45395851Y-29150782D01*
X45315782Y-29230851D01*
X45315780Y-29230854D01*
X45270037Y-29334451D01*
X45267100Y-29359776D01*
X45267100Y-30625223D01*
X45270037Y-30650548D01*
X45315780Y-30754145D01*
X45315782Y-30754148D01*
X45395850Y-30834216D01*
X45395852Y-30834217D01*
X45395855Y-30834220D01*
X45403386Y-30837545D01*
X45440499Y-30873162D01*
X45446036Y-30924303D01*
X45426187Y-30959512D01*
X45012626Y-31373074D01*
X44966006Y-31394814D01*
X44959452Y-31395100D01*
X44822638Y-31395100D01*
X44774300Y-31377507D01*
X44765806Y-31369145D01*
X44686135Y-31277200D01*
X44576573Y-31206790D01*
X44451617Y-31170100D01*
X44321383Y-31170100D01*
X44196426Y-31206790D01*
X44086866Y-31277198D01*
X44001580Y-31375623D01*
X44001578Y-31375626D01*
X43947477Y-31494088D01*
X43928943Y-31623000D01*
X43587900Y-31623000D01*
X43587900Y-31554774D01*
X43584962Y-31529450D01*
X43539220Y-31425855D01*
X43539219Y-31425854D01*
X43539217Y-31425851D01*
X43459148Y-31345782D01*
X43459145Y-31345780D01*
X43355548Y-31300037D01*
X43336100Y-31297781D01*
X43330226Y-31297100D01*
X43330224Y-31297100D01*
X43000600Y-31297100D01*
X42952262Y-31279507D01*
X42926542Y-31234958D01*
X42925400Y-31221900D01*
X42925400Y-31021436D01*
X42925503Y-31017499D01*
X42927396Y-30981374D01*
X42927623Y-30977052D01*
X42923977Y-30967555D01*
X42918811Y-30954095D01*
X42915459Y-30942780D01*
X42910348Y-30918735D01*
X42910348Y-30918734D01*
X42905331Y-30911830D01*
X42895963Y-30894574D01*
X42895530Y-30893446D01*
X42892904Y-30886604D01*
X42892903Y-30886603D01*
X42892903Y-30886602D01*
X42885172Y-30878871D01*
X42863432Y-30832251D01*
X42863911Y-30814995D01*
X42865651Y-30802896D01*
X42875557Y-30734000D01*
X42857023Y-30605091D01*
X42802921Y-30486626D01*
X42802919Y-30486623D01*
X42717633Y-30388198D01*
X42608073Y-30317790D01*
X42483117Y-30281100D01*
X42352883Y-30281100D01*
X42227926Y-30317790D01*
X42118366Y-30388198D01*
X42033080Y-30486623D01*
X42033078Y-30486626D01*
X41978977Y-30605088D01*
X41960443Y-30734000D01*
X41978977Y-30862911D01*
X42033078Y-30981373D01*
X42033080Y-30981376D01*
X42080793Y-31036439D01*
X42111169Y-31071496D01*
X42118366Y-31079801D01*
X42227926Y-31150209D01*
X42232821Y-31152445D01*
X42232114Y-31153990D01*
X42267773Y-31180246D01*
X42279900Y-31230236D01*
X42257056Y-31276326D01*
X42209931Y-31296949D01*
X42205163Y-31297100D01*
X42064774Y-31297100D01*
X42059510Y-31297710D01*
X42039451Y-31300037D01*
X41935854Y-31345780D01*
X41935851Y-31345782D01*
X41855782Y-31425851D01*
X41855780Y-31425854D01*
X41810037Y-31529451D01*
X41807100Y-31554776D01*
X41807100Y-31945223D01*
X41529000Y-31945223D01*
X41529000Y-31443090D01*
X41540195Y-31403614D01*
X41577442Y-31343228D01*
X41632435Y-31177268D01*
X41642900Y-31074833D01*
X41642899Y-29885168D01*
X41632435Y-29782732D01*
X41577442Y-29616772D01*
X41572562Y-29608860D01*
X41540196Y-29556385D01*
X41529000Y-29516908D01*
X41529000Y-29464000D01*
X42277943Y-29464000D01*
X42296477Y-29592911D01*
X42350578Y-29711373D01*
X42350580Y-29711376D01*
X42435866Y-29809801D01*
X42545426Y-29880209D01*
X42670383Y-29916900D01*
X42800615Y-29916900D01*
X42800617Y-29916900D01*
X42808421Y-29914608D01*
X42859756Y-29917866D01*
X42882786Y-29933586D01*
X43097240Y-30148040D01*
X43099951Y-30150896D01*
X43127051Y-30180994D01*
X43149516Y-30190995D01*
X43159883Y-30196624D01*
X43180504Y-30210016D01*
X43188934Y-30211350D01*
X43207758Y-30216927D01*
X43215555Y-30220399D01*
X43215556Y-30220399D01*
X43215558Y-30220400D01*
X43240152Y-30220400D01*
X43251915Y-30221325D01*
X43276194Y-30225171D01*
X43281253Y-30223815D01*
X43284440Y-30222962D01*
X43303901Y-30220400D01*
X43921900Y-30220400D01*
X43970238Y-30237993D01*
X43995958Y-30282542D01*
X43997100Y-30295600D01*
X43997100Y-30625223D01*
X44000037Y-30650548D01*
X44045780Y-30754145D01*
X44045782Y-30754148D01*
X44125851Y-30834217D01*
X44125854Y-30834219D01*
X44125855Y-30834220D01*
X44229450Y-30879962D01*
X44254774Y-30882900D01*
X44254776Y-30882900D01*
X44645224Y-30882900D01*
X44645226Y-30882900D01*
X44670550Y-30879962D01*
X44774145Y-30834220D01*
X44854220Y-30754145D01*
X44899962Y-30650550D01*
X44902900Y-30625226D01*
X44902900Y-29359774D01*
X44899962Y-29334450D01*
X44854220Y-29230855D01*
X44854219Y-29230854D01*
X44854217Y-29230851D01*
X44774148Y-29150782D01*
X44774145Y-29150780D01*
X44670548Y-29105037D01*
X44651100Y-29102781D01*
X44645226Y-29102100D01*
X44254774Y-29102100D01*
X44249510Y-29102710D01*
X44229451Y-29105037D01*
X44125854Y-29150780D01*
X44125851Y-29150782D01*
X44045782Y-29230851D01*
X44045780Y-29230854D01*
X44000037Y-29334451D01*
X43997100Y-29359776D01*
X43997100Y-29689400D01*
X43979507Y-29737738D01*
X43934958Y-29763458D01*
X43921900Y-29764600D01*
X43389547Y-29764600D01*
X43341209Y-29747007D01*
X43336373Y-29742574D01*
X43202671Y-29608872D01*
X43180931Y-29562252D01*
X43181411Y-29544995D01*
X43193057Y-29464003D01*
X43193057Y-29464000D01*
X43174523Y-29335091D01*
X43174230Y-29334450D01*
X43120421Y-29216626D01*
X43120419Y-29216623D01*
X43063366Y-29150780D01*
X43035136Y-29118201D01*
X43035135Y-29118200D01*
X43035133Y-29118198D01*
X42925573Y-29047790D01*
X42800617Y-29011100D01*
X42670383Y-29011100D01*
X42545426Y-29047790D01*
X42435866Y-29118198D01*
X42350580Y-29216623D01*
X42350578Y-29216626D01*
X42296477Y-29335088D01*
X42277943Y-29464000D01*
X41529000Y-29464000D01*
X41529000Y-28903090D01*
X41540195Y-28863614D01*
X41577442Y-28803228D01*
X41632435Y-28637268D01*
X41642900Y-28534833D01*
X41642899Y-27345168D01*
X41632435Y-27242732D01*
X41577442Y-27076772D01*
X41572562Y-27068860D01*
X41540196Y-27016385D01*
X41529000Y-26976908D01*
X41529000Y-26793000D01*
X42676601Y-26793000D01*
X42676601Y-27534297D01*
X42679560Y-27565877D01*
X42726095Y-27698865D01*
X42726097Y-27698868D01*
X42809765Y-27812234D01*
X42923131Y-27895902D01*
X42923134Y-27895904D01*
X43056120Y-27942437D01*
X43056129Y-27942439D01*
X43087693Y-27945399D01*
X43629000Y-27945399D01*
X43629000Y-26793000D01*
X44129000Y-26793000D01*
X44129000Y-27945399D01*
X44670298Y-27945399D01*
X44701877Y-27942439D01*
X44834865Y-27895904D01*
X44834868Y-27895902D01*
X44948234Y-27812234D01*
X45031902Y-27698868D01*
X45031904Y-27698865D01*
X45078437Y-27565879D01*
X45078439Y-27565870D01*
X45081399Y-27534307D01*
X45081400Y-27534305D01*
X45081400Y-26793000D01*
X44129000Y-26793000D01*
X43629000Y-26793000D01*
X42676601Y-26793000D01*
X41529000Y-26793000D01*
X41529000Y-26363090D01*
X41540195Y-26323614D01*
X41559078Y-26293000D01*
X42676600Y-26293000D01*
X43629000Y-26293000D01*
X43629000Y-25140600D01*
X44129000Y-25140600D01*
X44129000Y-26293000D01*
X45081399Y-26293000D01*
X45081399Y-25551702D01*
X45078439Y-25520122D01*
X45031904Y-25387134D01*
X45031902Y-25387131D01*
X44948234Y-25273765D01*
X44834868Y-25190097D01*
X44834865Y-25190095D01*
X44701879Y-25143562D01*
X44701870Y-25143560D01*
X44670307Y-25140600D01*
X44129000Y-25140600D01*
X43629000Y-25140600D01*
X43087702Y-25140600D01*
X43056122Y-25143560D01*
X42923134Y-25190095D01*
X42923131Y-25190097D01*
X42809765Y-25273765D01*
X42726097Y-25387131D01*
X42726095Y-25387134D01*
X42679562Y-25520120D01*
X42679560Y-25520129D01*
X42676600Y-25551692D01*
X42676600Y-26293000D01*
X41559078Y-26293000D01*
X41577442Y-26263228D01*
X41632435Y-26097268D01*
X41642900Y-25994833D01*
X41642899Y-24805168D01*
X41632435Y-24702732D01*
X41577442Y-24536772D01*
X41560956Y-24510044D01*
X41540196Y-24476385D01*
X41529000Y-24436908D01*
X41529000Y-23823090D01*
X41540195Y-23783614D01*
X41577442Y-23723228D01*
X41632435Y-23557268D01*
X41642900Y-23454833D01*
X41642900Y-23316064D01*
X46007100Y-23316064D01*
X46009968Y-23346643D01*
X46009969Y-23346650D01*
X46009970Y-23346652D01*
X46055059Y-23475514D01*
X46055061Y-23475518D01*
X46092405Y-23526115D01*
X46107100Y-23570771D01*
X46107100Y-23756120D01*
X46105289Y-23772523D01*
X46104833Y-23774561D01*
X46104832Y-23774569D01*
X46107063Y-23845568D01*
X46107100Y-23847929D01*
X46107100Y-23877575D01*
X46107946Y-23884276D01*
X46108500Y-23891318D01*
X46110013Y-23939449D01*
X46110013Y-23939451D01*
X46117037Y-23963632D01*
X46119429Y-23975178D01*
X46122586Y-24000161D01*
X46140306Y-24044917D01*
X46142601Y-24051619D01*
X46156035Y-24097861D01*
X46168851Y-24119530D01*
X46174041Y-24130124D01*
X46183312Y-24153538D01*
X46211609Y-24192486D01*
X46215498Y-24198405D01*
X46240008Y-24239848D01*
X46257812Y-24257652D01*
X46265471Y-24266619D01*
X46280274Y-24286993D01*
X46317373Y-24317684D01*
X46322613Y-24322453D01*
X47035995Y-25035835D01*
X47057735Y-25082455D01*
X47044421Y-25132142D01*
X47007659Y-25159989D01*
X46922896Y-25189649D01*
X46922894Y-25189650D01*
X46809407Y-25273407D01*
X46725650Y-25386894D01*
X46725648Y-25386897D01*
X46679065Y-25520026D01*
X46679063Y-25520035D01*
X46676100Y-25551629D01*
X46676100Y-27534370D01*
X46679055Y-27565877D01*
X46679064Y-27565971D01*
X46679065Y-27565973D01*
X46725648Y-27699102D01*
X46725650Y-27699105D01*
X46809407Y-27812592D01*
X46922894Y-27896349D01*
X46922897Y-27896351D01*
X46929382Y-27898620D01*
X47056029Y-27942936D01*
X47087629Y-27945899D01*
X47087632Y-27945900D01*
X47087638Y-27945900D01*
X48670368Y-27945900D01*
X48670369Y-27945899D01*
X48701971Y-27942936D01*
X48797087Y-27909653D01*
X48828619Y-27898620D01*
X48853456Y-27894400D01*
X49730317Y-27894400D01*
X49778655Y-27911993D01*
X49791153Y-27925396D01*
X49791745Y-27926211D01*
X49834094Y-27968560D01*
X49855834Y-28015180D01*
X49842520Y-28064867D01*
X49834094Y-28074908D01*
X49230725Y-28678276D01*
X49224438Y-28683895D01*
X49194253Y-28707966D01*
X49194251Y-28707969D01*
X49161373Y-28756192D01*
X49159746Y-28758483D01*
X49125060Y-28805481D01*
X49122426Y-28810466D01*
X49122375Y-28810439D01*
X49119733Y-28815671D01*
X49119787Y-28815697D01*
X49117342Y-28820772D01*
X49100136Y-28876552D01*
X49099257Y-28879221D01*
X49079967Y-28934349D01*
X49078920Y-28939883D01*
X49078864Y-28939872D01*
X49077882Y-28945653D01*
X49077939Y-28945662D01*
X49077100Y-28951232D01*
X49077100Y-29009617D01*
X49077047Y-29012429D01*
X49074863Y-29070781D01*
X49075495Y-29076383D01*
X49075436Y-29076389D01*
X49077100Y-29089027D01*
X49077100Y-30625223D01*
X49080037Y-30650548D01*
X49125780Y-30754145D01*
X49125782Y-30754148D01*
X49205851Y-30834217D01*
X49205854Y-30834219D01*
X49205855Y-30834220D01*
X49309450Y-30879962D01*
X49334774Y-30882900D01*
X49334776Y-30882900D01*
X49725224Y-30882900D01*
X49725226Y-30882900D01*
X49750550Y-30879962D01*
X49854145Y-30834220D01*
X49934220Y-30754145D01*
X49979962Y-30650550D01*
X49982900Y-30625226D01*
X49982900Y-29359774D01*
X49982900Y-29238244D01*
X50000493Y-29189906D01*
X50004915Y-29185081D01*
X50693779Y-28496216D01*
X50700049Y-28490612D01*
X50730249Y-28466530D01*
X50763150Y-28418271D01*
X50764748Y-28416018D01*
X50799440Y-28369016D01*
X50799441Y-28369010D01*
X50802073Y-28364033D01*
X50802127Y-28364061D01*
X50804768Y-28358828D01*
X50804713Y-28358802D01*
X50807158Y-28353725D01*
X50824372Y-28297915D01*
X50825241Y-28295276D01*
X50844532Y-28240150D01*
X50844532Y-28240146D01*
X50845581Y-28234609D01*
X50845639Y-28234619D01*
X50846619Y-28228847D01*
X50846560Y-28228838D01*
X50847400Y-28223265D01*
X50847400Y-28164881D01*
X50847453Y-28162069D01*
X50849636Y-28103720D01*
X50849432Y-28101909D01*
X50849753Y-28100575D01*
X50849847Y-28098086D01*
X50850350Y-28098104D01*
X50861502Y-28051905D01*
X50890019Y-28026485D01*
X50904210Y-28019255D01*
X50997255Y-27926210D01*
X51056993Y-27808966D01*
X51072400Y-27711692D01*
X51072400Y-27491500D01*
X51417100Y-27491500D01*
X51417100Y-27711656D01*
X51432488Y-27808810D01*
X51492156Y-27925914D01*
X51585085Y-28018843D01*
X51702190Y-28078511D01*
X51702188Y-28078511D01*
X51799343Y-28093899D01*
X51799350Y-28093900D01*
X51844500Y-28093900D01*
X51844500Y-27491500D01*
X52344500Y-27491500D01*
X52344500Y-28093900D01*
X52389650Y-28093900D01*
X52389656Y-28093899D01*
X52486810Y-28078511D01*
X52603914Y-28018843D01*
X52696843Y-27925914D01*
X52756511Y-27808810D01*
X52771899Y-27711656D01*
X52771900Y-27711649D01*
X52771900Y-27491500D01*
X52344500Y-27491500D01*
X51844500Y-27491500D01*
X51417100Y-27491500D01*
X51072400Y-27491500D01*
X51072400Y-26991500D01*
X51417100Y-26991500D01*
X51844500Y-26991500D01*
X51844500Y-26389100D01*
X52344500Y-26389100D01*
X52344500Y-26991500D01*
X52771900Y-26991500D01*
X52771900Y-26771350D01*
X52771899Y-26771343D01*
X52756511Y-26674189D01*
X52696843Y-26557085D01*
X52603914Y-26464156D01*
X52486809Y-26404488D01*
X52486811Y-26404488D01*
X52389656Y-26389100D01*
X52344500Y-26389100D01*
X51844500Y-26389100D01*
X51799343Y-26389100D01*
X51702189Y-26404488D01*
X51585085Y-26464156D01*
X51492156Y-26557085D01*
X51432488Y-26674189D01*
X51417100Y-26771343D01*
X51417100Y-26991500D01*
X51072400Y-26991500D01*
X51072400Y-26771308D01*
X51056993Y-26674034D01*
X50997255Y-26556790D01*
X50904210Y-26463745D01*
X50904207Y-26463743D01*
X50849459Y-26435847D01*
X50814378Y-26398226D01*
X50808400Y-26368844D01*
X50808400Y-25687001D01*
X50825993Y-25638663D01*
X50830415Y-25633837D01*
X50869492Y-25594761D01*
X50923051Y-25485203D01*
X50933399Y-25414182D01*
X51677600Y-25414182D01*
X51686562Y-25475681D01*
X51687949Y-25485203D01*
X51741508Y-25594761D01*
X51741509Y-25594762D01*
X51741510Y-25594764D01*
X51827735Y-25680989D01*
X51827736Y-25680989D01*
X51827739Y-25680992D01*
X51937297Y-25734551D01*
X51989348Y-25742135D01*
X52008317Y-25744899D01*
X52008322Y-25744899D01*
X52008326Y-25744900D01*
X52008328Y-25744900D01*
X52502672Y-25744900D01*
X52502674Y-25744900D01*
X52502678Y-25744899D01*
X52502682Y-25744899D01*
X52511651Y-25743592D01*
X52573703Y-25734551D01*
X52683261Y-25680992D01*
X52769492Y-25594761D01*
X52823051Y-25485203D01*
X52833400Y-25414174D01*
X52833400Y-25364935D01*
X52850993Y-25316597D01*
X52895542Y-25290877D01*
X52946200Y-25299810D01*
X52949222Y-25301651D01*
X52959424Y-25308208D01*
X52959426Y-25308208D01*
X52959427Y-25308209D01*
X53059021Y-25337453D01*
X53084383Y-25344900D01*
X53214617Y-25344900D01*
X53339573Y-25308209D01*
X53339573Y-25308208D01*
X53339576Y-25308208D01*
X53449136Y-25237799D01*
X53534421Y-25139374D01*
X53588523Y-25020909D01*
X53607057Y-24892000D01*
X53588523Y-24763091D01*
X53578148Y-24740374D01*
X53534421Y-24644626D01*
X53534419Y-24644623D01*
X53454294Y-24552154D01*
X53449136Y-24546201D01*
X53449135Y-24546200D01*
X53449133Y-24546198D01*
X53339573Y-24475790D01*
X53214617Y-24439100D01*
X53084383Y-24439100D01*
X52959425Y-24475791D01*
X52959422Y-24475792D01*
X52949254Y-24482327D01*
X52899078Y-24493659D01*
X52853357Y-24470086D01*
X52833485Y-24422640D01*
X52833400Y-24419064D01*
X52833400Y-24369827D01*
X52833399Y-24369817D01*
X52828370Y-24335303D01*
X52823051Y-24298797D01*
X52769492Y-24189239D01*
X52769489Y-24189236D01*
X52769489Y-24189235D01*
X52683264Y-24103010D01*
X52683262Y-24103009D01*
X52683261Y-24103008D01*
X52573703Y-24049449D01*
X52502682Y-24039100D01*
X52502674Y-24039100D01*
X52008326Y-24039100D01*
X52008317Y-24039100D01*
X51937297Y-24049449D01*
X51838268Y-24097861D01*
X51827735Y-24103010D01*
X51741510Y-24189235D01*
X51687949Y-24298797D01*
X51677600Y-24369817D01*
X51677600Y-25414182D01*
X50933399Y-25414182D01*
X50933400Y-25414174D01*
X50933400Y-24369826D01*
X50932838Y-24365971D01*
X50928370Y-24335303D01*
X50923051Y-24298797D01*
X50869492Y-24189239D01*
X50869489Y-24189236D01*
X50869489Y-24189235D01*
X50783264Y-24103010D01*
X50783262Y-24103009D01*
X50783261Y-24103008D01*
X50673703Y-24049449D01*
X50602682Y-24039100D01*
X50602674Y-24039100D01*
X50108326Y-24039100D01*
X50108317Y-24039100D01*
X50037297Y-24049449D01*
X49938268Y-24097861D01*
X49927735Y-24103010D01*
X49841510Y-24189235D01*
X49787949Y-24298797D01*
X49777600Y-24369817D01*
X49777600Y-25414182D01*
X49786562Y-25475681D01*
X49787949Y-25485203D01*
X49841508Y-25594761D01*
X49880574Y-25633827D01*
X49902314Y-25680446D01*
X49902600Y-25687001D01*
X49902600Y-26414786D01*
X49885007Y-26463124D01*
X49880574Y-26467960D01*
X49791745Y-26556788D01*
X49791153Y-26557604D01*
X49790468Y-26558065D01*
X49787560Y-26560974D01*
X49786994Y-26560408D01*
X49748506Y-26586367D01*
X49730317Y-26588600D01*
X49157100Y-26588600D01*
X49108762Y-26571007D01*
X49083042Y-26526458D01*
X49081900Y-26513400D01*
X49081900Y-25551632D01*
X49081899Y-25551629D01*
X49078945Y-25520129D01*
X49078936Y-25520029D01*
X49041895Y-25414172D01*
X49032351Y-25386897D01*
X49032349Y-25386894D01*
X48948592Y-25273407D01*
X48835105Y-25189650D01*
X48835102Y-25189648D01*
X48733930Y-25154247D01*
X48701971Y-25143064D01*
X48701966Y-25143063D01*
X48701964Y-25143063D01*
X48670370Y-25140100D01*
X48670362Y-25140100D01*
X48607100Y-25140100D01*
X48558762Y-25122507D01*
X48533042Y-25077958D01*
X48531900Y-25064900D01*
X48531900Y-25035880D01*
X48533711Y-25019475D01*
X48534167Y-25017434D01*
X48534168Y-25017431D01*
X48531937Y-24946430D01*
X48531900Y-24944069D01*
X48531900Y-24914433D01*
X48531900Y-24914425D01*
X48531055Y-24907737D01*
X48530498Y-24900678D01*
X48528987Y-24852552D01*
X48521959Y-24828363D01*
X48519569Y-24816817D01*
X48518097Y-24805168D01*
X48516414Y-24791840D01*
X48498684Y-24747061D01*
X48496403Y-24740399D01*
X48482965Y-24694141D01*
X48470145Y-24672463D01*
X48464954Y-24661867D01*
X48455688Y-24638463D01*
X48455686Y-24638460D01*
X48427389Y-24599512D01*
X48423500Y-24593592D01*
X48398993Y-24552154D01*
X48398992Y-24552152D01*
X48381185Y-24534345D01*
X48373526Y-24525378D01*
X48358726Y-24505007D01*
X48321620Y-24474310D01*
X48316391Y-24469551D01*
X47450153Y-23603313D01*
X47428413Y-23556693D01*
X47441727Y-23507006D01*
X47442770Y-23505553D01*
X47464939Y-23475517D01*
X47510031Y-23346650D01*
X47512899Y-23316063D01*
X47512900Y-23316063D01*
X47512900Y-21006936D01*
X47512899Y-21006935D01*
X47510607Y-20982493D01*
X47510031Y-20976350D01*
X47464939Y-20847483D01*
X47443700Y-20818706D01*
X47383866Y-20737633D01*
X47274017Y-20656561D01*
X47274014Y-20656559D01*
X47176086Y-20622293D01*
X47145150Y-20611469D01*
X47145145Y-20611468D01*
X47145143Y-20611468D01*
X47114564Y-20608600D01*
X47114556Y-20608600D01*
X46405444Y-20608600D01*
X46405436Y-20608600D01*
X46374856Y-20611468D01*
X46374852Y-20611468D01*
X46374850Y-20611469D01*
X46374847Y-20611469D01*
X46374847Y-20611470D01*
X46245985Y-20656559D01*
X46245982Y-20656561D01*
X46136133Y-20737633D01*
X46055061Y-20847482D01*
X46055059Y-20847485D01*
X46009970Y-20976347D01*
X46009968Y-20976356D01*
X46007100Y-21006935D01*
X46007100Y-23316064D01*
X41642900Y-23316064D01*
X41642899Y-22265168D01*
X41632435Y-22162732D01*
X41577442Y-21996772D01*
X41572562Y-21988860D01*
X41540196Y-21936385D01*
X41529000Y-21896908D01*
X41529000Y-21283090D01*
X41540195Y-21243614D01*
X41577442Y-21183228D01*
X41632435Y-21017268D01*
X41642900Y-20914833D01*
X41642899Y-19725168D01*
X41632435Y-19622732D01*
X41577442Y-19456772D01*
X41572562Y-19448860D01*
X41540196Y-19396385D01*
X41529000Y-19356908D01*
X41529000Y-19176500D01*
X41546593Y-19128162D01*
X41591142Y-19102442D01*
X41604200Y-19101300D01*
X54915800Y-19101300D01*
X54964138Y-19118893D01*
G37*
G04 #@! TD.AperFunction*
M02*
