G04 #@! TF.GenerationSoftware,KiCad,Pcbnew,7.0.1-0*
G04 #@! TF.CreationDate,2023-12-28T18:54:55-05:00*
G04 #@! TF.ProjectId,GW28R8128,47573238-5238-4313-9238-2e6b69636164,rev?*
G04 #@! TF.SameCoordinates,Original*
G04 #@! TF.FileFunction,Copper,L1,Top*
G04 #@! TF.FilePolarity,Positive*
%FSLAX46Y46*%
G04 Gerber Fmt 4.6, Leading zero omitted, Abs format (unit mm)*
G04 Created by KiCad (PCBNEW 7.0.1-0) date 2023-12-28 18:54:55*
%MOMM*%
%LPD*%
G01*
G04 APERTURE LIST*
G04 Aperture macros list*
%AMRoundRect*
0 Rectangle with rounded corners*
0 $1 Rounding radius*
0 $2 $3 $4 $5 $6 $7 $8 $9 X,Y pos of 4 corners*
0 Add a 4 corners polygon primitive as box body*
4,1,4,$2,$3,$4,$5,$6,$7,$8,$9,$2,$3,0*
0 Add four circle primitives for the rounded corners*
1,1,$1+$1,$2,$3*
1,1,$1+$1,$4,$5*
1,1,$1+$1,$6,$7*
1,1,$1+$1,$8,$9*
0 Add four rect primitives between the rounded corners*
20,1,$1+$1,$2,$3,$4,$5,0*
20,1,$1+$1,$4,$5,$6,$7,0*
20,1,$1+$1,$6,$7,$8,$9,0*
20,1,$1+$1,$8,$9,$2,$3,0*%
G04 Aperture macros list end*
G04 #@! TA.AperFunction,SMDPad,CuDef*
%ADD10RoundRect,0.150000X-0.150000X-0.587500X0.150000X-0.587500X0.150000X0.587500X-0.150000X0.587500X0*%
G04 #@! TD*
G04 #@! TA.AperFunction,SMDPad,CuDef*
%ADD11RoundRect,0.150000X-0.587500X-0.150000X0.587500X-0.150000X0.587500X0.150000X-0.587500X0.150000X0*%
G04 #@! TD*
G04 #@! TA.AperFunction,SMDPad,CuDef*
%ADD12RoundRect,0.262500X-0.437500X0.262500X-0.437500X-0.262500X0.437500X-0.262500X0.437500X0.262500X0*%
G04 #@! TD*
G04 #@! TA.AperFunction,SMDPad,CuDef*
%ADD13RoundRect,0.212500X0.212500X0.487500X-0.212500X0.487500X-0.212500X-0.487500X0.212500X-0.487500X0*%
G04 #@! TD*
G04 #@! TA.AperFunction,SMDPad,CuDef*
%ADD14RoundRect,0.212500X-0.212500X-0.487500X0.212500X-0.487500X0.212500X0.487500X-0.212500X0.487500X0*%
G04 #@! TD*
G04 #@! TA.AperFunction,ComponentPad*
%ADD15RoundRect,0.595000X-0.255000X-0.545000X0.255000X-0.545000X0.255000X0.545000X-0.255000X0.545000X0*%
G04 #@! TD*
G04 #@! TA.AperFunction,SMDPad,CuDef*
%ADD16RoundRect,0.225000X-0.625000X-0.225000X0.625000X-0.225000X0.625000X0.225000X-0.625000X0.225000X0*%
G04 #@! TD*
G04 #@! TA.AperFunction,SMDPad,CuDef*
%ADD17RoundRect,0.300000X0.300000X1.100000X-0.300000X1.100000X-0.300000X-1.100000X0.300000X-1.100000X0*%
G04 #@! TD*
G04 #@! TA.AperFunction,SMDPad,CuDef*
%ADD18RoundRect,0.315000X0.735000X0.935000X-0.735000X0.935000X-0.735000X-0.935000X0.735000X-0.935000X0*%
G04 #@! TD*
G04 #@! TA.AperFunction,SMDPad,CuDef*
%ADD19RoundRect,0.262500X-0.262500X-0.437500X0.262500X-0.437500X0.262500X0.437500X-0.262500X0.437500X0*%
G04 #@! TD*
G04 #@! TA.AperFunction,ViaPad*
%ADD20C,0.600000*%
G04 #@! TD*
G04 #@! TA.AperFunction,ViaPad*
%ADD21C,0.800000*%
G04 #@! TD*
G04 #@! TA.AperFunction,ViaPad*
%ADD22C,1.000000*%
G04 #@! TD*
G04 #@! TA.AperFunction,Conductor*
%ADD23C,0.600000*%
G04 #@! TD*
G04 #@! TA.AperFunction,Conductor*
%ADD24C,1.000000*%
G04 #@! TD*
G04 #@! TA.AperFunction,Conductor*
%ADD25C,0.152400*%
G04 #@! TD*
G04 #@! TA.AperFunction,Conductor*
%ADD26C,0.508000*%
G04 #@! TD*
G04 #@! TA.AperFunction,Conductor*
%ADD27C,0.800000*%
G04 #@! TD*
G04 #@! TA.AperFunction,Conductor*
%ADD28C,0.150000*%
G04 #@! TD*
G04 #@! TA.AperFunction,Conductor*
%ADD29C,0.300000*%
G04 #@! TD*
G04 APERTURE END LIST*
D10*
X48260000Y-29992500D03*
X46990000Y-29992500D03*
X45720000Y-29992500D03*
X44450000Y-29992500D03*
D11*
X42697500Y-31750000D03*
X42697500Y-33020000D03*
X42697500Y-34290000D03*
X42697500Y-35560000D03*
X42697500Y-36830000D03*
X42697500Y-38100000D03*
X42697500Y-39370000D03*
X42697500Y-40640000D03*
X42697500Y-41910000D03*
D10*
X44450000Y-43667500D03*
X45720000Y-43667500D03*
X46990000Y-43667500D03*
X48260000Y-43667500D03*
X49530000Y-43667500D03*
X50800000Y-43667500D03*
X52070000Y-43667500D03*
D11*
X53822500Y-41910000D03*
X53822500Y-40640000D03*
X53822500Y-39370000D03*
X53822500Y-38100000D03*
X53822500Y-36830000D03*
X53822500Y-35560000D03*
X53822500Y-34290000D03*
X53822500Y-33020000D03*
X53822500Y-31750000D03*
D10*
X52070000Y-29992500D03*
X50800000Y-29992500D03*
X49530000Y-29992500D03*
D12*
X53213000Y-20320000D03*
X53213000Y-22020000D03*
D13*
X47940000Y-48895000D03*
X46040000Y-48895000D03*
D14*
X50355500Y-24892000D03*
X52255500Y-24892000D03*
D15*
X40640000Y-20320000D03*
X40640000Y-22860000D03*
X40640000Y-25400000D03*
X40640000Y-27940000D03*
X40640000Y-30480000D03*
X40640000Y-33020000D03*
X40640000Y-35560000D03*
X40640000Y-38100000D03*
X40640000Y-40640000D03*
X40640000Y-43180000D03*
X40640000Y-45720000D03*
X40640000Y-48260000D03*
X40640000Y-50800000D03*
X40640000Y-53340000D03*
X55880000Y-53340000D03*
X55880000Y-50800000D03*
X55880000Y-48260000D03*
X55880000Y-45720000D03*
X55880000Y-43180000D03*
X55880000Y-40640000D03*
X55880000Y-38100000D03*
X55880000Y-35560000D03*
X55880000Y-33020000D03*
X55880000Y-30480000D03*
X55880000Y-27940000D03*
X55880000Y-25400000D03*
X55880000Y-22860000D03*
X55880000Y-20320000D03*
D16*
X49784000Y-51943000D03*
X46736000Y-51943000D03*
D17*
X49760000Y-22161500D03*
X46760000Y-22161500D03*
D18*
X47879000Y-26543000D03*
X43879000Y-26543000D03*
D19*
X50394500Y-27241500D03*
X52094500Y-27241500D03*
D20*
X53975000Y-50165000D03*
X53975000Y-46355000D03*
X51435000Y-40640000D03*
X42291000Y-53340000D03*
X46990000Y-44958000D03*
X54356000Y-30226000D03*
X54356000Y-26098500D03*
X45974000Y-36258500D03*
X52070000Y-31242000D03*
D21*
X53149500Y-27178000D03*
D22*
X51870000Y-22020000D03*
X53213000Y-23177500D03*
D20*
X54356000Y-28194000D03*
X52070000Y-26105500D03*
X46101000Y-50038000D03*
D22*
X43878500Y-28448000D03*
D20*
X48260000Y-31242000D03*
X46990000Y-42418000D03*
X52070000Y-28702000D03*
D22*
X43878500Y-24638000D03*
D20*
X43942000Y-35560000D03*
X52578000Y-34290000D03*
X42418000Y-30734000D03*
X43942000Y-33020000D03*
X43942000Y-34290000D03*
X43942000Y-40640000D03*
X52578000Y-35560000D03*
X42735500Y-29464000D03*
X52578000Y-33020000D03*
X44386500Y-31623000D03*
X49276000Y-36639500D03*
X53149500Y-24892000D03*
X50800000Y-31178500D03*
D23*
X50355500Y-24892000D02*
X50355500Y-27202500D01*
D24*
X46760000Y-23836500D02*
X47879000Y-24955500D01*
X46760000Y-22161500D02*
X46760000Y-23836500D01*
X47879000Y-24955500D02*
X47879000Y-26543000D01*
X48577500Y-27241500D02*
X47879000Y-26543000D01*
D23*
X50355500Y-27202500D02*
X50394500Y-27241500D01*
X49530000Y-29019500D02*
X50394500Y-28155000D01*
X49530000Y-29992500D02*
X49530000Y-29019500D01*
X50394500Y-28155000D02*
X50394500Y-27241500D01*
D24*
X50394500Y-27241500D02*
X48577500Y-27241500D01*
D25*
X46040000Y-48895000D02*
X46040000Y-49977000D01*
D26*
X46990000Y-43667500D02*
X46990000Y-42418000D01*
D25*
X46040000Y-49977000D02*
X46101000Y-50038000D01*
D24*
X53213000Y-22020000D02*
X53213000Y-23177500D01*
D26*
X48260000Y-29992500D02*
X48260000Y-31242000D01*
D24*
X43878500Y-26543500D02*
X43878500Y-28448000D01*
D23*
X52070000Y-29992500D02*
X52070000Y-28702000D01*
D24*
X43879000Y-26543000D02*
X43878500Y-26542500D01*
D23*
X52070000Y-27266000D02*
X52094500Y-27241500D01*
D27*
X52158000Y-27178000D02*
X53149500Y-27178000D01*
D24*
X53213000Y-22020000D02*
X51870000Y-22020000D01*
D23*
X52094500Y-27241500D02*
X52070000Y-27217000D01*
D26*
X46990000Y-43667500D02*
X46990000Y-44958000D01*
D23*
X52070000Y-27217000D02*
X52070000Y-26105500D01*
D26*
X52070000Y-29992500D02*
X52070000Y-31242000D01*
D27*
X52094500Y-27241500D02*
X52158000Y-27178000D01*
D24*
X43878500Y-26542500D02*
X43878500Y-24638000D01*
X43879000Y-26543000D02*
X43878500Y-26543500D01*
D23*
X52070000Y-28702000D02*
X52070000Y-27266000D01*
D25*
X42697500Y-35560000D02*
X43942000Y-35560000D01*
X54991000Y-41910000D02*
X55880000Y-42799000D01*
X55880000Y-42799000D02*
X55880000Y-43180000D01*
X53822500Y-41910000D02*
X54991000Y-41910000D01*
X52070000Y-43667500D02*
X53827500Y-43667500D01*
X53827500Y-43667500D02*
X55880000Y-45720000D01*
X53822500Y-34290000D02*
X52578000Y-34290000D01*
D28*
X42697500Y-31013500D02*
X42697500Y-31750000D01*
X42418000Y-30734000D02*
X42697500Y-31013500D01*
D25*
X42697500Y-33020000D02*
X43942000Y-33020000D01*
X42697500Y-34290000D02*
X43942000Y-34290000D01*
X42697500Y-36830000D02*
X41529000Y-36830000D01*
X40640000Y-35941000D02*
X40640000Y-35560000D01*
X41529000Y-36830000D02*
X40640000Y-35941000D01*
X40640000Y-38100000D02*
X42697500Y-38100000D01*
X42697500Y-39370000D02*
X41656000Y-39370000D01*
X41656000Y-39370000D02*
X40640000Y-40386000D01*
X40640000Y-40386000D02*
X40640000Y-40640000D01*
X42697500Y-40640000D02*
X43942000Y-40640000D01*
X53822500Y-35560000D02*
X52578000Y-35560000D01*
X41021000Y-48260000D02*
X44450000Y-44831000D01*
X44450000Y-44831000D02*
X44450000Y-43667500D01*
X40640000Y-48260000D02*
X41021000Y-48260000D01*
X50800000Y-44831000D02*
X54229000Y-48260000D01*
X50800000Y-43667500D02*
X50800000Y-44831000D01*
X54229000Y-48260000D02*
X55880000Y-48260000D01*
X42697500Y-43662500D02*
X40640000Y-45720000D01*
X42697500Y-41910000D02*
X42697500Y-43662500D01*
X45720000Y-45720000D02*
X45720000Y-43667500D01*
X40640000Y-50800000D02*
X45720000Y-45720000D01*
X48260000Y-45720000D02*
X55880000Y-53340000D01*
X48260000Y-43667500D02*
X48260000Y-45720000D01*
X49530000Y-44831000D02*
X55499000Y-50800000D01*
X49530000Y-43667500D02*
X49530000Y-44831000D01*
X55499000Y-50800000D02*
X55880000Y-50800000D01*
X54991000Y-39370000D02*
X55880000Y-38481000D01*
X53822500Y-39370000D02*
X54991000Y-39370000D01*
X55880000Y-38481000D02*
X55880000Y-38100000D01*
X55245000Y-33655000D02*
X52070000Y-33655000D01*
X52070000Y-36830000D02*
X53822500Y-36830000D01*
X51689000Y-34036000D02*
X51689000Y-36449000D01*
X55880000Y-33020000D02*
X55245000Y-33655000D01*
X52070000Y-33655000D02*
X51689000Y-34036000D01*
X51689000Y-36449000D02*
X52070000Y-36830000D01*
D28*
X43264000Y-29992500D02*
X44450000Y-29992500D01*
X42735500Y-29464000D02*
X43264000Y-29992500D01*
D25*
X53822500Y-33020000D02*
X52578000Y-33020000D01*
X54229000Y-25463500D02*
X54229000Y-24384000D01*
X54229000Y-24384000D02*
X55753000Y-22860000D01*
X53822500Y-25870000D02*
X54229000Y-25463500D01*
X55753000Y-22860000D02*
X55880000Y-22860000D01*
X53822500Y-31750000D02*
X53822500Y-25870000D01*
D28*
X45720000Y-30988000D02*
X45720000Y-29992500D01*
X44386500Y-31623000D02*
X45085000Y-31623000D01*
X45085000Y-31623000D02*
X45720000Y-30988000D01*
D25*
X49784000Y-51943000D02*
X49784000Y-51054000D01*
X47940000Y-47686000D02*
X47625000Y-47371000D01*
X52070000Y-38100000D02*
X53822500Y-38100000D01*
X48387000Y-50546000D02*
X47940000Y-50099000D01*
X47940000Y-48895000D02*
X47940000Y-47686000D01*
X49276000Y-50546000D02*
X48387000Y-50546000D01*
X49784000Y-51054000D02*
X49276000Y-50546000D01*
X47940000Y-50099000D02*
X47940000Y-48895000D01*
X47625000Y-42545000D02*
X52070000Y-38100000D01*
X47625000Y-47371000D02*
X47625000Y-42545000D01*
X46990000Y-34163000D02*
X46990000Y-29992500D01*
X49276000Y-36449000D02*
X46990000Y-34163000D01*
X49276000Y-36639500D02*
X49276000Y-36449000D01*
X53822500Y-40640000D02*
X55880000Y-40640000D01*
X46736000Y-51943000D02*
X45466000Y-51943000D01*
X50800000Y-37846000D02*
X50800000Y-29992500D01*
X44958000Y-47498000D02*
X46355000Y-46101000D01*
D29*
X52255500Y-24892000D02*
X53149500Y-24892000D01*
D25*
X46355000Y-42291000D02*
X50800000Y-37846000D01*
X46355000Y-46101000D02*
X46355000Y-42291000D01*
X44958000Y-51435000D02*
X44958000Y-47498000D01*
X45466000Y-51943000D02*
X44958000Y-51435000D01*
D24*
X51601500Y-20320000D02*
X49760000Y-22161500D01*
X53213000Y-20320000D02*
X51601500Y-20320000D01*
X53213000Y-20320000D02*
X55880000Y-20320000D01*
G04 #@! TA.AperFunction,Conductor*
G36*
X54953400Y-19111375D02*
G01*
X54980925Y-19138900D01*
X54991000Y-19176500D01*
X54991000Y-19356910D01*
X54979804Y-19396388D01*
X54942558Y-19456771D01*
X54889943Y-19615554D01*
X54862584Y-19652866D01*
X54818560Y-19667100D01*
X53817347Y-19667100D01*
X53783208Y-19658904D01*
X53780465Y-19657506D01*
X53683192Y-19642100D01*
X52742808Y-19642100D01*
X52645534Y-19657506D01*
X52642792Y-19658904D01*
X52608653Y-19667100D01*
X51681879Y-19667100D01*
X51665476Y-19665289D01*
X51663432Y-19664832D01*
X51663431Y-19664832D01*
X51592431Y-19667063D01*
X51590071Y-19667100D01*
X51560420Y-19667100D01*
X51553724Y-19667945D01*
X51546673Y-19668500D01*
X51498551Y-19670013D01*
X51474366Y-19677038D01*
X51462821Y-19679428D01*
X51437840Y-19682585D01*
X51393073Y-19700308D01*
X51386375Y-19702601D01*
X51340142Y-19716034D01*
X51318466Y-19728853D01*
X51307873Y-19734043D01*
X51284460Y-19743313D01*
X51245510Y-19771611D01*
X51239592Y-19775499D01*
X51198150Y-19800008D01*
X51180344Y-19817814D01*
X51171376Y-19825473D01*
X51151007Y-19840273D01*
X51120314Y-19877373D01*
X51115547Y-19882611D01*
X50357492Y-20640666D01*
X50321052Y-20660807D01*
X50279482Y-20658472D01*
X50145153Y-20611469D01*
X50133677Y-20610393D01*
X50114556Y-20608600D01*
X49405444Y-20608600D01*
X49386322Y-20610393D01*
X49374847Y-20611469D01*
X49245984Y-20656560D01*
X49136134Y-20737634D01*
X49055060Y-20847484D01*
X49009969Y-20976347D01*
X49007100Y-21006949D01*
X49007100Y-23316051D01*
X49009969Y-23346652D01*
X49047823Y-23454833D01*
X49055061Y-23475517D01*
X49136134Y-23585366D01*
X49245983Y-23666439D01*
X49374850Y-23711531D01*
X49405444Y-23714400D01*
X50114551Y-23714400D01*
X50114556Y-23714400D01*
X50145150Y-23711531D01*
X50274017Y-23666439D01*
X50383866Y-23585366D01*
X50464939Y-23475517D01*
X50510031Y-23346650D01*
X50512900Y-23316056D01*
X50512900Y-22363088D01*
X50518624Y-22334310D01*
X50534926Y-22309914D01*
X50574840Y-22270000D01*
X52360600Y-22270000D01*
X52360600Y-22315155D01*
X52375987Y-22412307D01*
X52435656Y-22529413D01*
X52528586Y-22622343D01*
X52645692Y-22682012D01*
X52742845Y-22697400D01*
X52963000Y-22697400D01*
X52963000Y-22270000D01*
X53463000Y-22270000D01*
X53463000Y-22697400D01*
X53683155Y-22697400D01*
X53780307Y-22682012D01*
X53897413Y-22622343D01*
X53990343Y-22529413D01*
X54050012Y-22412307D01*
X54065400Y-22315155D01*
X54065400Y-22270000D01*
X53463000Y-22270000D01*
X52963000Y-22270000D01*
X52360600Y-22270000D01*
X50574840Y-22270000D01*
X51074840Y-21770000D01*
X52360600Y-21770000D01*
X52963000Y-21770000D01*
X52963000Y-21342600D01*
X53463000Y-21342600D01*
X53463000Y-21770000D01*
X54065400Y-21770000D01*
X54065400Y-21724845D01*
X54050012Y-21627692D01*
X53990343Y-21510586D01*
X53897413Y-21417656D01*
X53780307Y-21357987D01*
X53683155Y-21342600D01*
X53463000Y-21342600D01*
X52963000Y-21342600D01*
X52742845Y-21342600D01*
X52645692Y-21357987D01*
X52528586Y-21417656D01*
X52435656Y-21510586D01*
X52375987Y-21627692D01*
X52360600Y-21724845D01*
X52360600Y-21770000D01*
X51074840Y-21770000D01*
X51849914Y-20994926D01*
X51874310Y-20978624D01*
X51903088Y-20972900D01*
X52608653Y-20972900D01*
X52642792Y-20981096D01*
X52645534Y-20982493D01*
X52742808Y-20997900D01*
X53683192Y-20997900D01*
X53780466Y-20982493D01*
X53783207Y-20981096D01*
X53817347Y-20972900D01*
X54818560Y-20972900D01*
X54862584Y-20987134D01*
X54889943Y-21024446D01*
X54942558Y-21183228D01*
X54979804Y-21243612D01*
X54991000Y-21283090D01*
X54991000Y-21896910D01*
X54979804Y-21936388D01*
X54942558Y-21996771D01*
X54887565Y-22162730D01*
X54877100Y-22265171D01*
X54877100Y-23380754D01*
X54871376Y-23409532D01*
X54855074Y-23433928D01*
X54072631Y-24216370D01*
X54069778Y-24219079D01*
X54039514Y-24246330D01*
X54029447Y-24268938D01*
X54023821Y-24279299D01*
X54010338Y-24300064D01*
X54008986Y-24308597D01*
X54003414Y-24327409D01*
X53999900Y-24335303D01*
X53999900Y-24360054D01*
X53998974Y-24371819D01*
X53995102Y-24396257D01*
X53997338Y-24404599D01*
X53999900Y-24424062D01*
X53999900Y-25337455D01*
X53994176Y-25366233D01*
X53977874Y-25390630D01*
X53666121Y-25702380D01*
X53663268Y-25705088D01*
X53633014Y-25732330D01*
X53622947Y-25754938D01*
X53617321Y-25765299D01*
X53603838Y-25786064D01*
X53602486Y-25794597D01*
X53596914Y-25813409D01*
X53593400Y-25821303D01*
X53593400Y-25846054D01*
X53592474Y-25857819D01*
X53588602Y-25882257D01*
X53590838Y-25890599D01*
X53593400Y-25910062D01*
X53593400Y-31221900D01*
X53583325Y-31259500D01*
X53555800Y-31287025D01*
X53518200Y-31297100D01*
X53189774Y-31297100D01*
X53164449Y-31300038D01*
X53060854Y-31345780D01*
X52980780Y-31425854D01*
X52950650Y-31494091D01*
X52935038Y-31529450D01*
X52932100Y-31554774D01*
X52932100Y-31945226D01*
X52935038Y-31970550D01*
X52980780Y-32074145D01*
X53060855Y-32154220D01*
X53164450Y-32199962D01*
X53189774Y-32202900D01*
X54455226Y-32202900D01*
X54480550Y-32199962D01*
X54584145Y-32154220D01*
X54664220Y-32074145D01*
X54709962Y-31970550D01*
X54712900Y-31945226D01*
X54712900Y-31554774D01*
X54709962Y-31529450D01*
X54664220Y-31425855D01*
X54584145Y-31345780D01*
X54480550Y-31300038D01*
X54455226Y-31297100D01*
X54126800Y-31297100D01*
X54089200Y-31287025D01*
X54061675Y-31259500D01*
X54051600Y-31221900D01*
X54051600Y-25996044D01*
X54057324Y-25967266D01*
X54073622Y-25942873D01*
X54385402Y-25631093D01*
X54388199Y-25628439D01*
X54418486Y-25601170D01*
X54428550Y-25578563D01*
X54434175Y-25568202D01*
X54447662Y-25547436D01*
X54449013Y-25538900D01*
X54454589Y-25520080D01*
X54458100Y-25512197D01*
X54458100Y-25487447D01*
X54459026Y-25475683D01*
X54462897Y-25451241D01*
X54460662Y-25442899D01*
X54458100Y-25423436D01*
X54458100Y-24510044D01*
X54463824Y-24481266D01*
X54480126Y-24456870D01*
X54862626Y-24074370D01*
X54901129Y-24053789D01*
X54944578Y-24058068D01*
X54978327Y-24085765D01*
X54991000Y-24127544D01*
X54991000Y-24436910D01*
X54979804Y-24476386D01*
X54974452Y-24485065D01*
X54942558Y-24536771D01*
X54887565Y-24702730D01*
X54887564Y-24702732D01*
X54887565Y-24702732D01*
X54878462Y-24791841D01*
X54877100Y-24805171D01*
X54877100Y-25994829D01*
X54887565Y-26097269D01*
X54942558Y-26263228D01*
X54979804Y-26323612D01*
X54991000Y-26363090D01*
X54991000Y-26976910D01*
X54979804Y-27016388D01*
X54942558Y-27076771D01*
X54887565Y-27242730D01*
X54877100Y-27345171D01*
X54877100Y-28534829D01*
X54887565Y-28637269D01*
X54942558Y-28803228D01*
X54979804Y-28863612D01*
X54991000Y-28903090D01*
X54991000Y-29516910D01*
X54979804Y-29556388D01*
X54942558Y-29616771D01*
X54887565Y-29782730D01*
X54877100Y-29885171D01*
X54877100Y-31074829D01*
X54887565Y-31177269D01*
X54920679Y-31277201D01*
X54942558Y-31343228D01*
X54974553Y-31395100D01*
X54979804Y-31403612D01*
X54991000Y-31443090D01*
X54991000Y-32056910D01*
X54979804Y-32096388D01*
X54942558Y-32156771D01*
X54887565Y-32322730D01*
X54887564Y-32322732D01*
X54887565Y-32322732D01*
X54877100Y-32425167D01*
X54877100Y-32891091D01*
X54877101Y-33350700D01*
X54867026Y-33388300D01*
X54839501Y-33415825D01*
X54801901Y-33425900D01*
X54743530Y-33425900D01*
X54697293Y-33410006D01*
X54670601Y-33369042D01*
X54674738Y-33320325D01*
X54692704Y-33279635D01*
X54709962Y-33240550D01*
X54712900Y-33215226D01*
X54712900Y-32824774D01*
X54709962Y-32799450D01*
X54664220Y-32695855D01*
X54584145Y-32615780D01*
X54480550Y-32570038D01*
X54455226Y-32567100D01*
X53189774Y-32567100D01*
X53164449Y-32570038D01*
X53060856Y-32615779D01*
X52992685Y-32683950D01*
X52957239Y-32703855D01*
X52916613Y-32702404D01*
X52882678Y-32680020D01*
X52877636Y-32674201D01*
X52768074Y-32603791D01*
X52695060Y-32582352D01*
X52643117Y-32567100D01*
X52512883Y-32567100D01*
X52476192Y-32577873D01*
X52387925Y-32603791D01*
X52369270Y-32615780D01*
X52278364Y-32674201D01*
X52278363Y-32674201D01*
X52278363Y-32674202D01*
X52193078Y-32772626D01*
X52138977Y-32891089D01*
X52120443Y-33020000D01*
X52138977Y-33148910D01*
X52193078Y-33267373D01*
X52222610Y-33301455D01*
X52240212Y-33339998D01*
X52234181Y-33381939D01*
X52206433Y-33413962D01*
X52165777Y-33425900D01*
X52077959Y-33425900D01*
X52074024Y-33425797D01*
X52043912Y-33424219D01*
X52033360Y-33423666D01*
X52033359Y-33423666D01*
X52010252Y-33432535D01*
X51998945Y-33435884D01*
X51974733Y-33441031D01*
X51967745Y-33446108D01*
X51950503Y-33455470D01*
X51942436Y-33458567D01*
X51924932Y-33476070D01*
X51915964Y-33483729D01*
X51895942Y-33498276D01*
X51891622Y-33505759D01*
X51879674Y-33521327D01*
X51532631Y-33868370D01*
X51529778Y-33871079D01*
X51499514Y-33898330D01*
X51489447Y-33920938D01*
X51483821Y-33931299D01*
X51470338Y-33952064D01*
X51468986Y-33960597D01*
X51463414Y-33979409D01*
X51459900Y-33987303D01*
X51459900Y-34012054D01*
X51458974Y-34023819D01*
X51455102Y-34048257D01*
X51457338Y-34056599D01*
X51459900Y-34076062D01*
X51459900Y-36441041D01*
X51459797Y-36444976D01*
X51457666Y-36485639D01*
X51466533Y-36508740D01*
X51469883Y-36520050D01*
X51475030Y-36544263D01*
X51480108Y-36551253D01*
X51489472Y-36568500D01*
X51492567Y-36576563D01*
X51492568Y-36576564D01*
X51510069Y-36594065D01*
X51517728Y-36603032D01*
X51532278Y-36623059D01*
X51539756Y-36627376D01*
X51555331Y-36639327D01*
X51902359Y-36986355D01*
X51905069Y-36989210D01*
X51932330Y-37019486D01*
X51954946Y-37029555D01*
X51965302Y-37035179D01*
X51986063Y-37048661D01*
X51994591Y-37050011D01*
X52013413Y-37055587D01*
X52021303Y-37059100D01*
X52046053Y-37059100D01*
X52057818Y-37060026D01*
X52082257Y-37063897D01*
X52082257Y-37063896D01*
X52082258Y-37063897D01*
X52090599Y-37061661D01*
X52110062Y-37059100D01*
X52889813Y-37059100D01*
X52930867Y-37071295D01*
X52958605Y-37103925D01*
X52980779Y-37154144D01*
X52980780Y-37154145D01*
X53060855Y-37234220D01*
X53164450Y-37279962D01*
X53189774Y-37282900D01*
X54455226Y-37282900D01*
X54480550Y-37279962D01*
X54584145Y-37234220D01*
X54664220Y-37154145D01*
X54709962Y-37050550D01*
X54712900Y-37025226D01*
X54712900Y-36634774D01*
X54709962Y-36609450D01*
X54664220Y-36505855D01*
X54584145Y-36425780D01*
X54480550Y-36380038D01*
X54455226Y-36377100D01*
X53189774Y-36377100D01*
X53164449Y-36380038D01*
X53060856Y-36425779D01*
X52980779Y-36505855D01*
X52958605Y-36556075D01*
X52930867Y-36588705D01*
X52889813Y-36600900D01*
X52196045Y-36600900D01*
X52167267Y-36595176D01*
X52142870Y-36578874D01*
X51940125Y-36376128D01*
X51923824Y-36351732D01*
X51918100Y-36322954D01*
X51918100Y-35560000D01*
X52120443Y-35560000D01*
X52138977Y-35688910D01*
X52193078Y-35807373D01*
X52193079Y-35807374D01*
X52278364Y-35905799D01*
X52387924Y-35976208D01*
X52512883Y-36012900D01*
X52643116Y-36012900D01*
X52643117Y-36012900D01*
X52768076Y-35976208D01*
X52877636Y-35905799D01*
X52882678Y-35899979D01*
X52916611Y-35877595D01*
X52957239Y-35876143D01*
X52992685Y-35896050D01*
X53060855Y-35964220D01*
X53164450Y-36009962D01*
X53189774Y-36012900D01*
X54455226Y-36012900D01*
X54480550Y-36009962D01*
X54584145Y-35964220D01*
X54664220Y-35884145D01*
X54709962Y-35780550D01*
X54712900Y-35755226D01*
X54712900Y-35364774D01*
X54709962Y-35339450D01*
X54664220Y-35235855D01*
X54584145Y-35155780D01*
X54480550Y-35110038D01*
X54455226Y-35107100D01*
X53189774Y-35107100D01*
X53164449Y-35110038D01*
X53060856Y-35155779D01*
X52992685Y-35223950D01*
X52957239Y-35243855D01*
X52916613Y-35242404D01*
X52882678Y-35220020D01*
X52877636Y-35214201D01*
X52768074Y-35143791D01*
X52695060Y-35122352D01*
X52643117Y-35107100D01*
X52512883Y-35107100D01*
X52476191Y-35117873D01*
X52387925Y-35143791D01*
X52369270Y-35155780D01*
X52278364Y-35214201D01*
X52278363Y-35214201D01*
X52278363Y-35214202D01*
X52193078Y-35312626D01*
X52138977Y-35431089D01*
X52120443Y-35560000D01*
X51918100Y-35560000D01*
X51918100Y-34162044D01*
X51923824Y-34133266D01*
X51940122Y-34108873D01*
X52055294Y-33993701D01*
X52101763Y-33971976D01*
X52151354Y-33985106D01*
X52180987Y-34026982D01*
X52176870Y-34078116D01*
X52138977Y-34161088D01*
X52120443Y-34290000D01*
X52138977Y-34418910D01*
X52193078Y-34537373D01*
X52193079Y-34537374D01*
X52278364Y-34635799D01*
X52387924Y-34706208D01*
X52512883Y-34742900D01*
X52643116Y-34742900D01*
X52643117Y-34742900D01*
X52768076Y-34706208D01*
X52877636Y-34635799D01*
X52882678Y-34629979D01*
X52916611Y-34607595D01*
X52957239Y-34606143D01*
X52992685Y-34626050D01*
X53060855Y-34694220D01*
X53164450Y-34739962D01*
X53189774Y-34742900D01*
X54455226Y-34742900D01*
X54480550Y-34739962D01*
X54584145Y-34694220D01*
X54664220Y-34614145D01*
X54709962Y-34510550D01*
X54712900Y-34485226D01*
X54712900Y-34094774D01*
X54709962Y-34069450D01*
X54684619Y-34012054D01*
X54674738Y-33989675D01*
X54670601Y-33940958D01*
X54697293Y-33899994D01*
X54743530Y-33884100D01*
X54901126Y-33884100D01*
X54937775Y-33893635D01*
X54965129Y-33919821D01*
X54969153Y-33926344D01*
X54979805Y-33943614D01*
X54991000Y-33983091D01*
X54991000Y-34596910D01*
X54979804Y-34636388D01*
X54942558Y-34696771D01*
X54887565Y-34862730D01*
X54877100Y-34965171D01*
X54877100Y-36154829D01*
X54887565Y-36257269D01*
X54932252Y-36392126D01*
X54942558Y-36423228D01*
X54955972Y-36444976D01*
X54979804Y-36483612D01*
X54991000Y-36523090D01*
X54991000Y-37136910D01*
X54979804Y-37176388D01*
X54942558Y-37236771D01*
X54887565Y-37402730D01*
X54877100Y-37505171D01*
X54877100Y-38694829D01*
X54887565Y-38797268D01*
X54942558Y-38963228D01*
X54944131Y-38965779D01*
X54961402Y-38993778D01*
X54972090Y-39041986D01*
X54950573Y-39086430D01*
X54918126Y-39118876D01*
X54893733Y-39135176D01*
X54864955Y-39140900D01*
X54755187Y-39140900D01*
X54714133Y-39128705D01*
X54686395Y-39096075D01*
X54664220Y-39045855D01*
X54641977Y-39023612D01*
X54584145Y-38965780D01*
X54578365Y-38963228D01*
X54480550Y-38920038D01*
X54455226Y-38917100D01*
X53189774Y-38917100D01*
X53164449Y-38920038D01*
X53060854Y-38965780D01*
X52980780Y-39045854D01*
X52938858Y-39140797D01*
X52935038Y-39149450D01*
X52932100Y-39174774D01*
X52932100Y-39565226D01*
X52935038Y-39590550D01*
X52980780Y-39694145D01*
X53060855Y-39774220D01*
X53164450Y-39819962D01*
X53189774Y-39822900D01*
X54455226Y-39822900D01*
X54480550Y-39819962D01*
X54584145Y-39774220D01*
X54664220Y-39694145D01*
X54686395Y-39643925D01*
X54714133Y-39611295D01*
X54755187Y-39599100D01*
X54915800Y-39599100D01*
X54953400Y-39609175D01*
X54980925Y-39636700D01*
X54991000Y-39674300D01*
X54991000Y-39676910D01*
X54979804Y-39716388D01*
X54942558Y-39776771D01*
X54887565Y-39942730D01*
X54877100Y-40045171D01*
X54877100Y-40335700D01*
X54867025Y-40373300D01*
X54839500Y-40400825D01*
X54801900Y-40410900D01*
X54755187Y-40410900D01*
X54714133Y-40398705D01*
X54686395Y-40366075D01*
X54664220Y-40315855D01*
X54642566Y-40294201D01*
X54584145Y-40235780D01*
X54480550Y-40190038D01*
X54455226Y-40187100D01*
X53189774Y-40187100D01*
X53164449Y-40190038D01*
X53060854Y-40235780D01*
X52980780Y-40315854D01*
X52943261Y-40400825D01*
X52935038Y-40419450D01*
X52932100Y-40444774D01*
X52932100Y-40835226D01*
X52935038Y-40860550D01*
X52980780Y-40964145D01*
X53060855Y-41044220D01*
X53164450Y-41089962D01*
X53189774Y-41092900D01*
X54455226Y-41092900D01*
X54480550Y-41089962D01*
X54584145Y-41044220D01*
X54664220Y-40964145D01*
X54686395Y-40913925D01*
X54714133Y-40881295D01*
X54755187Y-40869100D01*
X54801901Y-40869100D01*
X54839501Y-40879175D01*
X54867026Y-40906700D01*
X54877101Y-40944300D01*
X54877101Y-41234832D01*
X54887565Y-41337268D01*
X54942558Y-41503228D01*
X54944131Y-41505779D01*
X54979804Y-41563612D01*
X54991000Y-41603090D01*
X54991000Y-41605700D01*
X54980925Y-41643300D01*
X54953400Y-41670825D01*
X54915800Y-41680900D01*
X54755187Y-41680900D01*
X54714133Y-41668705D01*
X54686395Y-41636075D01*
X54664220Y-41585855D01*
X54641977Y-41563612D01*
X54584145Y-41505780D01*
X54578365Y-41503228D01*
X54480550Y-41460038D01*
X54455226Y-41457100D01*
X53189774Y-41457100D01*
X53164449Y-41460038D01*
X53060854Y-41505780D01*
X52980780Y-41585854D01*
X52940073Y-41678045D01*
X52935038Y-41689450D01*
X52932100Y-41714774D01*
X52932100Y-42105226D01*
X52935038Y-42130550D01*
X52980780Y-42234145D01*
X53060855Y-42314220D01*
X53164450Y-42359962D01*
X53189774Y-42362900D01*
X54455226Y-42362900D01*
X54480550Y-42359962D01*
X54584145Y-42314220D01*
X54664220Y-42234145D01*
X54682137Y-42193568D01*
X54686395Y-42183925D01*
X54714133Y-42151295D01*
X54755187Y-42139100D01*
X54864956Y-42139100D01*
X54893734Y-42144824D01*
X54918130Y-42161126D01*
X54950572Y-42193568D01*
X54972089Y-42238011D01*
X54961403Y-42286219D01*
X54942558Y-42316772D01*
X54887565Y-42482730D01*
X54884076Y-42516877D01*
X54878123Y-42575161D01*
X54877100Y-42585171D01*
X54877100Y-43774829D01*
X54887565Y-43877269D01*
X54942558Y-44043228D01*
X54979804Y-44103612D01*
X54991000Y-44143090D01*
X54991000Y-44325455D01*
X54978327Y-44367234D01*
X54944578Y-44394931D01*
X54901129Y-44399210D01*
X54862626Y-44378629D01*
X53995130Y-43511133D01*
X53992420Y-43508278D01*
X53965169Y-43478013D01*
X53942558Y-43467945D01*
X53932192Y-43462317D01*
X53911435Y-43448838D01*
X53902902Y-43447486D01*
X53884086Y-43441912D01*
X53876197Y-43438400D01*
X53851446Y-43438400D01*
X53839682Y-43437474D01*
X53837330Y-43437101D01*
X53815242Y-43433602D01*
X53806901Y-43435838D01*
X53787438Y-43438400D01*
X52598100Y-43438400D01*
X52560500Y-43428325D01*
X52532975Y-43400800D01*
X52522900Y-43363200D01*
X52522900Y-43034774D01*
X52519962Y-43009450D01*
X52474220Y-42905855D01*
X52394145Y-42825780D01*
X52290550Y-42780038D01*
X52265226Y-42777100D01*
X51874774Y-42777100D01*
X51849449Y-42780038D01*
X51745854Y-42825780D01*
X51665780Y-42905854D01*
X51664099Y-42909660D01*
X51620038Y-43009450D01*
X51617100Y-43034774D01*
X51617100Y-44300226D01*
X51620038Y-44325550D01*
X51665780Y-44429145D01*
X51745855Y-44509220D01*
X51849450Y-44554962D01*
X51874774Y-44557900D01*
X52265226Y-44557900D01*
X52290550Y-44554962D01*
X52394145Y-44509220D01*
X52474220Y-44429145D01*
X52519962Y-44325550D01*
X52522900Y-44300226D01*
X52522900Y-43971800D01*
X52532975Y-43934200D01*
X52560500Y-43906675D01*
X52598100Y-43896600D01*
X53701456Y-43896600D01*
X53730234Y-43902324D01*
X53754630Y-43918626D01*
X54859623Y-45023619D01*
X54877299Y-45051586D01*
X54881260Y-45084433D01*
X54877100Y-45125166D01*
X54877100Y-46314829D01*
X54887565Y-46417269D01*
X54942558Y-46583228D01*
X54979804Y-46643612D01*
X54991000Y-46683090D01*
X54991000Y-47296910D01*
X54979804Y-47336388D01*
X54942558Y-47396771D01*
X54887565Y-47562730D01*
X54877100Y-47665171D01*
X54877100Y-47955700D01*
X54867025Y-47993300D01*
X54839500Y-48020825D01*
X54801900Y-48030900D01*
X54355044Y-48030900D01*
X54326266Y-48025176D01*
X54301870Y-48008874D01*
X51051126Y-44758129D01*
X51034824Y-44733733D01*
X51029100Y-44704955D01*
X51029100Y-44600187D01*
X51041295Y-44559133D01*
X51073925Y-44531395D01*
X51101563Y-44519191D01*
X51124145Y-44509220D01*
X51204220Y-44429145D01*
X51249962Y-44325550D01*
X51252900Y-44300226D01*
X51252900Y-43034774D01*
X51249962Y-43009450D01*
X51204220Y-42905855D01*
X51124145Y-42825780D01*
X51020550Y-42780038D01*
X50995226Y-42777100D01*
X50604774Y-42777100D01*
X50579449Y-42780038D01*
X50475854Y-42825780D01*
X50395780Y-42905854D01*
X50394099Y-42909660D01*
X50350038Y-43009450D01*
X50347100Y-43034774D01*
X50347100Y-44300226D01*
X50350038Y-44325550D01*
X50395780Y-44429145D01*
X50473638Y-44507003D01*
X50475855Y-44509220D01*
X50526075Y-44531395D01*
X50558705Y-44559133D01*
X50570900Y-44600187D01*
X50570900Y-44823041D01*
X50570797Y-44826976D01*
X50568666Y-44867639D01*
X50577533Y-44890740D01*
X50580883Y-44902050D01*
X50586030Y-44926263D01*
X50591108Y-44933253D01*
X50600472Y-44950500D01*
X50603567Y-44958563D01*
X50603568Y-44958564D01*
X50621069Y-44976065D01*
X50628728Y-44985032D01*
X50643278Y-45005059D01*
X50650756Y-45009376D01*
X50666331Y-45021327D01*
X54061359Y-48416355D01*
X54064069Y-48419210D01*
X54091330Y-48449486D01*
X54113946Y-48459555D01*
X54124302Y-48465179D01*
X54145063Y-48478661D01*
X54153591Y-48480011D01*
X54172413Y-48485587D01*
X54180303Y-48489100D01*
X54205053Y-48489100D01*
X54216818Y-48490026D01*
X54241257Y-48493897D01*
X54241257Y-48493896D01*
X54241258Y-48493897D01*
X54249599Y-48491661D01*
X54269062Y-48489100D01*
X54801901Y-48489100D01*
X54839501Y-48499175D01*
X54867026Y-48526700D01*
X54877101Y-48564300D01*
X54877101Y-48854829D01*
X54887565Y-48957269D01*
X54942558Y-49123228D01*
X54979804Y-49183612D01*
X54991000Y-49223090D01*
X54991000Y-49786456D01*
X54978327Y-49828235D01*
X54944578Y-49855932D01*
X54901129Y-49860211D01*
X54862626Y-49839630D01*
X52353366Y-47330370D01*
X49781126Y-44758129D01*
X49764824Y-44733733D01*
X49759100Y-44704955D01*
X49759100Y-44600187D01*
X49771295Y-44559133D01*
X49803925Y-44531395D01*
X49831563Y-44519191D01*
X49854145Y-44509220D01*
X49934220Y-44429145D01*
X49979962Y-44325550D01*
X49982900Y-44300226D01*
X49982900Y-43034774D01*
X49979962Y-43009450D01*
X49934220Y-42905855D01*
X49854145Y-42825780D01*
X49750550Y-42780038D01*
X49725226Y-42777100D01*
X49334774Y-42777100D01*
X49309449Y-42780038D01*
X49205854Y-42825780D01*
X49125780Y-42905854D01*
X49124099Y-42909660D01*
X49080038Y-43009450D01*
X49077100Y-43034774D01*
X49077100Y-44300226D01*
X49080038Y-44325550D01*
X49125780Y-44429145D01*
X49203638Y-44507003D01*
X49205855Y-44509220D01*
X49256075Y-44531395D01*
X49288705Y-44559133D01*
X49300900Y-44600187D01*
X49300900Y-44823041D01*
X49300797Y-44826976D01*
X49298666Y-44867639D01*
X49307533Y-44890740D01*
X49310883Y-44902050D01*
X49316030Y-44926263D01*
X49321108Y-44933253D01*
X49330472Y-44950500D01*
X49333567Y-44958563D01*
X49333568Y-44958564D01*
X49351069Y-44976065D01*
X49358728Y-44985032D01*
X49373278Y-45005059D01*
X49380756Y-45009376D01*
X49396331Y-45021327D01*
X54855074Y-50480071D01*
X54871376Y-50504467D01*
X54877100Y-50533245D01*
X54877100Y-51394829D01*
X54887565Y-51497269D01*
X54914999Y-51580059D01*
X54942558Y-51663228D01*
X54970282Y-51708176D01*
X54979804Y-51723612D01*
X54991000Y-51763090D01*
X54991000Y-51945456D01*
X54978327Y-51987235D01*
X54944578Y-52014932D01*
X54901129Y-52019211D01*
X54862626Y-51998630D01*
X51718829Y-48854833D01*
X48511126Y-45647129D01*
X48494824Y-45622733D01*
X48489100Y-45593955D01*
X48489100Y-44600187D01*
X48501295Y-44559133D01*
X48533925Y-44531395D01*
X48561563Y-44519191D01*
X48584145Y-44509220D01*
X48664220Y-44429145D01*
X48709962Y-44325550D01*
X48712900Y-44300226D01*
X48712900Y-43034774D01*
X48709962Y-43009450D01*
X48664220Y-42905855D01*
X48584145Y-42825780D01*
X48480550Y-42780038D01*
X48455226Y-42777100D01*
X48064774Y-42777100D01*
X48039449Y-42780038D01*
X47959675Y-42815262D01*
X47910958Y-42819399D01*
X47869994Y-42792707D01*
X47854100Y-42746470D01*
X47854100Y-42671044D01*
X47859824Y-42642266D01*
X47876126Y-42617870D01*
X52142870Y-38351126D01*
X52167266Y-38334824D01*
X52196044Y-38329100D01*
X52889813Y-38329100D01*
X52930867Y-38341295D01*
X52958605Y-38373925D01*
X52980779Y-38424144D01*
X52980780Y-38424145D01*
X53060855Y-38504220D01*
X53164450Y-38549962D01*
X53189774Y-38552900D01*
X54455226Y-38552900D01*
X54480550Y-38549962D01*
X54584145Y-38504220D01*
X54664220Y-38424145D01*
X54709962Y-38320550D01*
X54712900Y-38295226D01*
X54712900Y-37904774D01*
X54709962Y-37879450D01*
X54664220Y-37775855D01*
X54584145Y-37695780D01*
X54480550Y-37650038D01*
X54455226Y-37647100D01*
X53189774Y-37647100D01*
X53164449Y-37650038D01*
X53060856Y-37695779D01*
X52980779Y-37775855D01*
X52958605Y-37826075D01*
X52930867Y-37858705D01*
X52889813Y-37870900D01*
X52077959Y-37870900D01*
X52074024Y-37870797D01*
X52057804Y-37869947D01*
X52033360Y-37868666D01*
X52033359Y-37868666D01*
X52010252Y-37877535D01*
X51998945Y-37880884D01*
X51974733Y-37886031D01*
X51967745Y-37891108D01*
X51950503Y-37900470D01*
X51942436Y-37903567D01*
X51924932Y-37921070D01*
X51915964Y-37928729D01*
X51895942Y-37943277D01*
X51891622Y-37950759D01*
X51879673Y-37966329D01*
X47468631Y-42377370D01*
X47465778Y-42380079D01*
X47435514Y-42407330D01*
X47425447Y-42429938D01*
X47419821Y-42440299D01*
X47406338Y-42461064D01*
X47404986Y-42469597D01*
X47399414Y-42488409D01*
X47395900Y-42496303D01*
X47395900Y-42521054D01*
X47394974Y-42532819D01*
X47391102Y-42557257D01*
X47393338Y-42565599D01*
X47395900Y-42585062D01*
X47395900Y-42747017D01*
X47380006Y-42793254D01*
X47339042Y-42819946D01*
X47290325Y-42815809D01*
X47240000Y-42793588D01*
X47240000Y-44541411D01*
X47290325Y-44519191D01*
X47339042Y-44515054D01*
X47380006Y-44541746D01*
X47395900Y-44587983D01*
X47395900Y-47363041D01*
X47395797Y-47366976D01*
X47393666Y-47407639D01*
X47402533Y-47430740D01*
X47405883Y-47442050D01*
X47411030Y-47466263D01*
X47416108Y-47473253D01*
X47425472Y-47490500D01*
X47428567Y-47498563D01*
X47428568Y-47498564D01*
X47446069Y-47516065D01*
X47453728Y-47525032D01*
X47468278Y-47545059D01*
X47475756Y-47549376D01*
X47491331Y-47561327D01*
X47688874Y-47758870D01*
X47705176Y-47783266D01*
X47710900Y-47812044D01*
X47710900Y-47974429D01*
X47702562Y-48008845D01*
X47679398Y-48035630D01*
X47646543Y-48048843D01*
X47621797Y-48052448D01*
X47512237Y-48106008D01*
X47426008Y-48192237D01*
X47372448Y-48301797D01*
X47362100Y-48372823D01*
X47362100Y-49417177D01*
X47372448Y-49488202D01*
X47426008Y-49597762D01*
X47512237Y-49683991D01*
X47621797Y-49737551D01*
X47646543Y-49741157D01*
X47679398Y-49754370D01*
X47702562Y-49781155D01*
X47710900Y-49815571D01*
X47710900Y-50091041D01*
X47710797Y-50094976D01*
X47708666Y-50135639D01*
X47717533Y-50158740D01*
X47720883Y-50170050D01*
X47726030Y-50194263D01*
X47731108Y-50201253D01*
X47740472Y-50218500D01*
X47743567Y-50226563D01*
X47743568Y-50226564D01*
X47761069Y-50244065D01*
X47768728Y-50253032D01*
X47783278Y-50273059D01*
X47790756Y-50277376D01*
X47806331Y-50289327D01*
X48219359Y-50702355D01*
X48222069Y-50705210D01*
X48249330Y-50735486D01*
X48271946Y-50745555D01*
X48282302Y-50751179D01*
X48303062Y-50764660D01*
X48303063Y-50764661D01*
X48311586Y-50766011D01*
X48330411Y-50771586D01*
X48338303Y-50775100D01*
X48363060Y-50775100D01*
X48374822Y-50776025D01*
X48399258Y-50779896D01*
X48407595Y-50777662D01*
X48427057Y-50775100D01*
X49149956Y-50775100D01*
X49178734Y-50780824D01*
X49203130Y-50797126D01*
X49532874Y-51126870D01*
X49549176Y-51151266D01*
X49554900Y-51180044D01*
X49554900Y-51264901D01*
X49544825Y-51302501D01*
X49517300Y-51330026D01*
X49479700Y-51340101D01*
X49123135Y-51340101D01*
X49049681Y-51350801D01*
X48936373Y-51406194D01*
X48847194Y-51495373D01*
X48791801Y-51608681D01*
X48781100Y-51682135D01*
X48781100Y-52203865D01*
X48791801Y-52277318D01*
X48847194Y-52390626D01*
X48936373Y-52479805D01*
X48936374Y-52479805D01*
X48936375Y-52479806D01*
X49049681Y-52535198D01*
X49123137Y-52545900D01*
X50444862Y-52545899D01*
X50444865Y-52545899D01*
X50499954Y-52537873D01*
X50518319Y-52535198D01*
X50631625Y-52479806D01*
X50720806Y-52390625D01*
X50776198Y-52277319D01*
X50786900Y-52203863D01*
X50786899Y-51682138D01*
X50786899Y-51682135D01*
X50786899Y-51682134D01*
X50776198Y-51608681D01*
X50720805Y-51495373D01*
X50631626Y-51406194D01*
X50518318Y-51350801D01*
X50444865Y-51340100D01*
X50444863Y-51340100D01*
X50088300Y-51340100D01*
X50050700Y-51330025D01*
X50023175Y-51302500D01*
X50013100Y-51264900D01*
X50013100Y-51061959D01*
X50013203Y-51058024D01*
X50013248Y-51057157D01*
X50015334Y-51017360D01*
X50006465Y-50994257D01*
X50003115Y-50982947D01*
X49997969Y-50958735D01*
X49992894Y-50951750D01*
X49983526Y-50934498D01*
X49980432Y-50926435D01*
X49962926Y-50908929D01*
X49955268Y-50899962D01*
X49940722Y-50879942D01*
X49933245Y-50875625D01*
X49917671Y-50863674D01*
X49443630Y-50389633D01*
X49440920Y-50386778D01*
X49413669Y-50356513D01*
X49391058Y-50346445D01*
X49380692Y-50340817D01*
X49359935Y-50327338D01*
X49351402Y-50325986D01*
X49332586Y-50320412D01*
X49324697Y-50316900D01*
X49299946Y-50316900D01*
X49288182Y-50315974D01*
X49285830Y-50315601D01*
X49263742Y-50312102D01*
X49255401Y-50314338D01*
X49235938Y-50316900D01*
X48513045Y-50316900D01*
X48484267Y-50311176D01*
X48459871Y-50294874D01*
X48191126Y-50026129D01*
X48174824Y-50001733D01*
X48169100Y-49972955D01*
X48169100Y-49815571D01*
X48177438Y-49781155D01*
X48200602Y-49754370D01*
X48233457Y-49741157D01*
X48252456Y-49738388D01*
X48258203Y-49737551D01*
X48367761Y-49683992D01*
X48453992Y-49597761D01*
X48507551Y-49488203D01*
X48517900Y-49417174D01*
X48517900Y-48372826D01*
X48507551Y-48301797D01*
X48453992Y-48192239D01*
X48453991Y-48192238D01*
X48453991Y-48192237D01*
X48367762Y-48106008D01*
X48258202Y-48052448D01*
X48233457Y-48048843D01*
X48200602Y-48035630D01*
X48177438Y-48008845D01*
X48169100Y-47974429D01*
X48169100Y-47693959D01*
X48169203Y-47690024D01*
X48170505Y-47665171D01*
X48171334Y-47649360D01*
X48162465Y-47626257D01*
X48159115Y-47614946D01*
X48153969Y-47590735D01*
X48148891Y-47583746D01*
X48139526Y-47566497D01*
X48136432Y-47558436D01*
X48118926Y-47540930D01*
X48111267Y-47531962D01*
X48096722Y-47511941D01*
X48089242Y-47507623D01*
X48073670Y-47495673D01*
X47876126Y-47298129D01*
X47859824Y-47273733D01*
X47854100Y-47244955D01*
X47854100Y-44588530D01*
X47869994Y-44542293D01*
X47910958Y-44515601D01*
X47959675Y-44519738D01*
X47986075Y-44531395D01*
X48018705Y-44559133D01*
X48030900Y-44600187D01*
X48030900Y-45712041D01*
X48030797Y-45715976D01*
X48028666Y-45756639D01*
X48037533Y-45779740D01*
X48040883Y-45791050D01*
X48046030Y-45815263D01*
X48051108Y-45822253D01*
X48060472Y-45839500D01*
X48063567Y-45847563D01*
X48063568Y-45847564D01*
X48081069Y-45865065D01*
X48088728Y-45874032D01*
X48103278Y-45894059D01*
X48110756Y-45898376D01*
X48126331Y-45910327D01*
X54859623Y-52643619D01*
X54877299Y-52671586D01*
X54881260Y-52704433D01*
X54877100Y-52745166D01*
X54877100Y-53934829D01*
X54887555Y-54037167D01*
X54887565Y-54037268D01*
X54942558Y-54203228D01*
X54979216Y-54262660D01*
X54979804Y-54263612D01*
X54991000Y-54303090D01*
X54991000Y-54483500D01*
X54980925Y-54521100D01*
X54953400Y-54548625D01*
X54915800Y-54558700D01*
X41604200Y-54558700D01*
X41566600Y-54548625D01*
X41539075Y-54521100D01*
X41529000Y-54483500D01*
X41529000Y-54302138D01*
X41540196Y-54262660D01*
X41576985Y-54203015D01*
X41631941Y-54037167D01*
X41642400Y-53934798D01*
X41642400Y-53590000D01*
X41604200Y-53590000D01*
X41566600Y-53579925D01*
X41539075Y-53552400D01*
X41529000Y-53514800D01*
X41529000Y-53165200D01*
X41539075Y-53127600D01*
X41566600Y-53100075D01*
X41604200Y-53090000D01*
X41642400Y-53090000D01*
X41642400Y-52745202D01*
X41631941Y-52642832D01*
X41576985Y-52476984D01*
X41540196Y-52417340D01*
X41529000Y-52377862D01*
X41529000Y-51763090D01*
X41540196Y-51723612D01*
X41577442Y-51663228D01*
X41632435Y-51497268D01*
X41642900Y-51394833D01*
X41642899Y-50205168D01*
X41638737Y-50164433D01*
X41642698Y-50131589D01*
X41660372Y-50103622D01*
X45876383Y-45887612D01*
X45879199Y-45884939D01*
X45909486Y-45857670D01*
X45919550Y-45835063D01*
X45925175Y-45824702D01*
X45938662Y-45803936D01*
X45940013Y-45795400D01*
X45945589Y-45776580D01*
X45949100Y-45768697D01*
X45949100Y-45743948D01*
X45950026Y-45732184D01*
X45953897Y-45707742D01*
X45951662Y-45699400D01*
X45949100Y-45679937D01*
X45949100Y-44600187D01*
X45961295Y-44559133D01*
X45993925Y-44531395D01*
X46020325Y-44519738D01*
X46069042Y-44515601D01*
X46110006Y-44542293D01*
X46125900Y-44588530D01*
X46125900Y-45974956D01*
X46120176Y-46003734D01*
X46103874Y-46028130D01*
X44801631Y-47330370D01*
X44798778Y-47333079D01*
X44768514Y-47360330D01*
X44758447Y-47382938D01*
X44752821Y-47393299D01*
X44739338Y-47414064D01*
X44737986Y-47422597D01*
X44732414Y-47441409D01*
X44728900Y-47449303D01*
X44728900Y-47474054D01*
X44727974Y-47485819D01*
X44724102Y-47510257D01*
X44726338Y-47518599D01*
X44728900Y-47538062D01*
X44728900Y-51427041D01*
X44728797Y-51430976D01*
X44726666Y-51471639D01*
X44735533Y-51494740D01*
X44738883Y-51506050D01*
X44744030Y-51530263D01*
X44749108Y-51537253D01*
X44758472Y-51554500D01*
X44761567Y-51562563D01*
X44761568Y-51562564D01*
X44779069Y-51580065D01*
X44786728Y-51589032D01*
X44801278Y-51609059D01*
X44808756Y-51613376D01*
X44824331Y-51625327D01*
X45298359Y-52099355D01*
X45301069Y-52102210D01*
X45328330Y-52132486D01*
X45350946Y-52142555D01*
X45361302Y-52148179D01*
X45382063Y-52161661D01*
X45390586Y-52163011D01*
X45409411Y-52168586D01*
X45417303Y-52172100D01*
X45442059Y-52172100D01*
X45453823Y-52173026D01*
X45478257Y-52176896D01*
X45478257Y-52176895D01*
X45478258Y-52176896D01*
X45483605Y-52175463D01*
X45486596Y-52174662D01*
X45506059Y-52172100D01*
X45663435Y-52172100D01*
X45697852Y-52180438D01*
X45724637Y-52203603D01*
X45737849Y-52236459D01*
X45743801Y-52277318D01*
X45799194Y-52390626D01*
X45888373Y-52479805D01*
X45888374Y-52479805D01*
X45888375Y-52479806D01*
X46001681Y-52535198D01*
X46075137Y-52545900D01*
X47396862Y-52545899D01*
X47396865Y-52545899D01*
X47451954Y-52537873D01*
X47470319Y-52535198D01*
X47583625Y-52479806D01*
X47672806Y-52390625D01*
X47728198Y-52277319D01*
X47738900Y-52203863D01*
X47738899Y-51682138D01*
X47738899Y-51682135D01*
X47738899Y-51682134D01*
X47728198Y-51608681D01*
X47672805Y-51495373D01*
X47583626Y-51406194D01*
X47470318Y-51350801D01*
X47396864Y-51340100D01*
X46075134Y-51340100D01*
X46001681Y-51350801D01*
X45888373Y-51406194D01*
X45799194Y-51495373D01*
X45743801Y-51608681D01*
X45737849Y-51649541D01*
X45724637Y-51682397D01*
X45697852Y-51705562D01*
X45663435Y-51713900D01*
X45592045Y-51713900D01*
X45563267Y-51708176D01*
X45538871Y-51691874D01*
X45209126Y-51362129D01*
X45192824Y-51337733D01*
X45187100Y-51308955D01*
X45187100Y-49145000D01*
X45462601Y-49145000D01*
X45462601Y-49417135D01*
X45472933Y-49488058D01*
X45526420Y-49597468D01*
X45612531Y-49683579D01*
X45721941Y-49737066D01*
X45790000Y-49746982D01*
X45790000Y-49145000D01*
X46290000Y-49145000D01*
X46290000Y-49746981D01*
X46358058Y-49737066D01*
X46467468Y-49683579D01*
X46553579Y-49597468D01*
X46607066Y-49488058D01*
X46617400Y-49417136D01*
X46617400Y-49145000D01*
X46290000Y-49145000D01*
X45790000Y-49145000D01*
X45462601Y-49145000D01*
X45187100Y-49145000D01*
X45187100Y-48645000D01*
X45462600Y-48645000D01*
X45790000Y-48645000D01*
X45790000Y-48043018D01*
X45721941Y-48052933D01*
X45612531Y-48106420D01*
X45526420Y-48192531D01*
X45472933Y-48301941D01*
X45462600Y-48372864D01*
X45462600Y-48645000D01*
X45187100Y-48645000D01*
X45187100Y-48043017D01*
X46289999Y-48043017D01*
X46290000Y-48043018D01*
X46290000Y-48645000D01*
X46617399Y-48645000D01*
X46617399Y-48372865D01*
X46607066Y-48301941D01*
X46553579Y-48192531D01*
X46467468Y-48106420D01*
X46358058Y-48052933D01*
X46289999Y-48043017D01*
X45187100Y-48043017D01*
X45187100Y-47624044D01*
X45192824Y-47595266D01*
X45209126Y-47570870D01*
X45533541Y-47246455D01*
X46511373Y-46268621D01*
X46514189Y-46265948D01*
X46544486Y-46238670D01*
X46554555Y-46216054D01*
X46560184Y-46205689D01*
X46573661Y-46184937D01*
X46575012Y-46176408D01*
X46580587Y-46157585D01*
X46584100Y-46149697D01*
X46584100Y-46124947D01*
X46585026Y-46113182D01*
X46588897Y-46088742D01*
X46586662Y-46080401D01*
X46584100Y-46060938D01*
X46584100Y-44587983D01*
X46599994Y-44541746D01*
X46640958Y-44515054D01*
X46689675Y-44519191D01*
X46739999Y-44541411D01*
X46740000Y-44541412D01*
X46740000Y-42793589D01*
X46739999Y-42793588D01*
X46689675Y-42815809D01*
X46640958Y-42819946D01*
X46599994Y-42793254D01*
X46584100Y-42747017D01*
X46584100Y-42417044D01*
X46589824Y-42388266D01*
X46606126Y-42363870D01*
X47632728Y-41337268D01*
X50956373Y-38013621D01*
X50959189Y-38010948D01*
X50989486Y-37983670D01*
X50999555Y-37961054D01*
X51005184Y-37950689D01*
X51009997Y-37943278D01*
X51018661Y-37929937D01*
X51020012Y-37921408D01*
X51025587Y-37902585D01*
X51029100Y-37894697D01*
X51029100Y-37869947D01*
X51030026Y-37858182D01*
X51033897Y-37833742D01*
X51031662Y-37825401D01*
X51029100Y-37805938D01*
X51029100Y-31610692D01*
X51038299Y-31574652D01*
X51063644Y-31547430D01*
X51099634Y-31524300D01*
X51099633Y-31524300D01*
X51099636Y-31524299D01*
X51184921Y-31425874D01*
X51239023Y-31307409D01*
X51257557Y-31178500D01*
X51239023Y-31049591D01*
X51184921Y-30931126D01*
X51174185Y-30918736D01*
X51157567Y-30899557D01*
X51140918Y-30866296D01*
X51142246Y-30829125D01*
X51161223Y-30797141D01*
X51204220Y-30754145D01*
X51249962Y-30650550D01*
X51252900Y-30625226D01*
X51252900Y-30242500D01*
X51617600Y-30242500D01*
X51617600Y-30625152D01*
X51620533Y-30650435D01*
X51666199Y-30753857D01*
X51746142Y-30833800D01*
X51819999Y-30866411D01*
X51820000Y-30866412D01*
X51820000Y-30242500D01*
X52320000Y-30242500D01*
X52320000Y-30866411D01*
X52393857Y-30833800D01*
X52473800Y-30753857D01*
X52519466Y-30650435D01*
X52522400Y-30625152D01*
X52522400Y-30242500D01*
X52320000Y-30242500D01*
X51820000Y-30242500D01*
X51617600Y-30242500D01*
X51252900Y-30242500D01*
X51252900Y-29742500D01*
X51617600Y-29742500D01*
X51820000Y-29742500D01*
X51820000Y-29118589D01*
X51819999Y-29118588D01*
X52320000Y-29118588D01*
X52320000Y-29742500D01*
X52522400Y-29742500D01*
X52522400Y-29359848D01*
X52519466Y-29334564D01*
X52473800Y-29231142D01*
X52393857Y-29151199D01*
X52320000Y-29118588D01*
X51819999Y-29118588D01*
X51746142Y-29151199D01*
X51666199Y-29231142D01*
X51620533Y-29334564D01*
X51617600Y-29359848D01*
X51617600Y-29742500D01*
X51252900Y-29742500D01*
X51252900Y-29359774D01*
X51249962Y-29334450D01*
X51204220Y-29230855D01*
X51124145Y-29150780D01*
X51020550Y-29105038D01*
X50995226Y-29102100D01*
X50604774Y-29102100D01*
X50579449Y-29105038D01*
X50475854Y-29150780D01*
X50395780Y-29230854D01*
X50350038Y-29334449D01*
X50347100Y-29359774D01*
X50347100Y-30625226D01*
X50350038Y-30650550D01*
X50395780Y-30754145D01*
X50438773Y-30797138D01*
X50457753Y-30829125D01*
X50459081Y-30866296D01*
X50442433Y-30899556D01*
X50415078Y-30931126D01*
X50360977Y-31049589D01*
X50342443Y-31178500D01*
X50360977Y-31307410D01*
X50415078Y-31425873D01*
X50500365Y-31524300D01*
X50536356Y-31547430D01*
X50561701Y-31574652D01*
X50570900Y-31610692D01*
X50570900Y-37719956D01*
X50565176Y-37748734D01*
X50548874Y-37773130D01*
X46198631Y-42123370D01*
X46195778Y-42126079D01*
X46165514Y-42153330D01*
X46155447Y-42175938D01*
X46149821Y-42186299D01*
X46136338Y-42207064D01*
X46134986Y-42215597D01*
X46129414Y-42234409D01*
X46125900Y-42242303D01*
X46125900Y-42267054D01*
X46124974Y-42278819D01*
X46121102Y-42303257D01*
X46123338Y-42311599D01*
X46125900Y-42331062D01*
X46125900Y-42746470D01*
X46110006Y-42792707D01*
X46069042Y-42819399D01*
X46020325Y-42815262D01*
X45940550Y-42780038D01*
X45915226Y-42777100D01*
X45524774Y-42777100D01*
X45499449Y-42780038D01*
X45395854Y-42825780D01*
X45315780Y-42905854D01*
X45314099Y-42909660D01*
X45270038Y-43009450D01*
X45267100Y-43034774D01*
X45267100Y-44300226D01*
X45270038Y-44325550D01*
X45315780Y-44429145D01*
X45393638Y-44507003D01*
X45395855Y-44509220D01*
X45446075Y-44531395D01*
X45478705Y-44559133D01*
X45490900Y-44600187D01*
X45490900Y-45593956D01*
X45485176Y-45622734D01*
X45468874Y-45647130D01*
X41657374Y-49458629D01*
X41618871Y-49479210D01*
X41575422Y-49474931D01*
X41541673Y-49447234D01*
X41529000Y-49405455D01*
X41529000Y-49223090D01*
X41540196Y-49183612D01*
X41577442Y-49123228D01*
X41632435Y-48957268D01*
X41642900Y-48854833D01*
X41642899Y-47993242D01*
X41648623Y-47964465D01*
X41664922Y-47940072D01*
X44606373Y-44998621D01*
X44609189Y-44995948D01*
X44639486Y-44968670D01*
X44649555Y-44946054D01*
X44655184Y-44935689D01*
X44661304Y-44926265D01*
X44668661Y-44914937D01*
X44670012Y-44906408D01*
X44675587Y-44887585D01*
X44679100Y-44879697D01*
X44679100Y-44854947D01*
X44680026Y-44843182D01*
X44683897Y-44818742D01*
X44681662Y-44810401D01*
X44679100Y-44790938D01*
X44679100Y-44600187D01*
X44691295Y-44559133D01*
X44723925Y-44531395D01*
X44751563Y-44519191D01*
X44774145Y-44509220D01*
X44854220Y-44429145D01*
X44899962Y-44325550D01*
X44902900Y-44300226D01*
X44902900Y-43034774D01*
X44899962Y-43009450D01*
X44854220Y-42905855D01*
X44774145Y-42825780D01*
X44670550Y-42780038D01*
X44645226Y-42777100D01*
X44254774Y-42777100D01*
X44229449Y-42780038D01*
X44125854Y-42825780D01*
X44045780Y-42905854D01*
X44044099Y-42909660D01*
X44000038Y-43009450D01*
X43997100Y-43034774D01*
X43997100Y-44300226D01*
X44000038Y-44325550D01*
X44045780Y-44429145D01*
X44123638Y-44507003D01*
X44125855Y-44509220D01*
X44176075Y-44531395D01*
X44208705Y-44559133D01*
X44220900Y-44600187D01*
X44220900Y-44704956D01*
X44215176Y-44733734D01*
X44198874Y-44758130D01*
X41657374Y-47299629D01*
X41618871Y-47320210D01*
X41575422Y-47315931D01*
X41541673Y-47288234D01*
X41529000Y-47246455D01*
X41529000Y-46683090D01*
X41540196Y-46643612D01*
X41577442Y-46583228D01*
X41632435Y-46417268D01*
X41642900Y-46314833D01*
X41642899Y-45125168D01*
X41638737Y-45084433D01*
X41642698Y-45051589D01*
X41660372Y-45023622D01*
X42853873Y-43830121D01*
X42856689Y-43827448D01*
X42886986Y-43800170D01*
X42897055Y-43777554D01*
X42902684Y-43767189D01*
X42916160Y-43746438D01*
X42916159Y-43746438D01*
X42916161Y-43746437D01*
X42917511Y-43737906D01*
X42923085Y-43719090D01*
X42926600Y-43711197D01*
X42926600Y-43686440D01*
X42927526Y-43674677D01*
X42931396Y-43650242D01*
X42929162Y-43641904D01*
X42926600Y-43622443D01*
X42926600Y-42438100D01*
X42936675Y-42400500D01*
X42964200Y-42372975D01*
X43001800Y-42362900D01*
X43330226Y-42362900D01*
X43355550Y-42359962D01*
X43459145Y-42314220D01*
X43539220Y-42234145D01*
X43584962Y-42130550D01*
X43587900Y-42105226D01*
X43587900Y-41714774D01*
X43584962Y-41689450D01*
X43539220Y-41585855D01*
X43459145Y-41505780D01*
X43355550Y-41460038D01*
X43330226Y-41457100D01*
X42064774Y-41457100D01*
X42039449Y-41460038D01*
X41935854Y-41505780D01*
X41855780Y-41585854D01*
X41815073Y-41678045D01*
X41810038Y-41689450D01*
X41807100Y-41714774D01*
X41807100Y-42105226D01*
X41810038Y-42130550D01*
X41855780Y-42234145D01*
X41935855Y-42314220D01*
X42039450Y-42359962D01*
X42064774Y-42362900D01*
X42393200Y-42362900D01*
X42430800Y-42372975D01*
X42458325Y-42400500D01*
X42468400Y-42438100D01*
X42468400Y-43536456D01*
X42462676Y-43565234D01*
X42446374Y-43589630D01*
X41657374Y-44378630D01*
X41618871Y-44399211D01*
X41575422Y-44394932D01*
X41541673Y-44367235D01*
X41529000Y-44325456D01*
X41529000Y-44143090D01*
X41540196Y-44103612D01*
X41577442Y-44043228D01*
X41632435Y-43877268D01*
X41642900Y-43774833D01*
X41642899Y-42585168D01*
X41632435Y-42482732D01*
X41577442Y-42316772D01*
X41540195Y-42256386D01*
X41529000Y-42216910D01*
X41529000Y-41603090D01*
X41540196Y-41563612D01*
X41577442Y-41503228D01*
X41632435Y-41337268D01*
X41642900Y-41234833D01*
X41642900Y-40835226D01*
X41807100Y-40835226D01*
X41810038Y-40860550D01*
X41855780Y-40964145D01*
X41935855Y-41044220D01*
X42039450Y-41089962D01*
X42064774Y-41092900D01*
X43330226Y-41092900D01*
X43355550Y-41089962D01*
X43459145Y-41044220D01*
X43527317Y-40976047D01*
X43562759Y-40956144D01*
X43603385Y-40957595D01*
X43637320Y-40979978D01*
X43642364Y-40985799D01*
X43751924Y-41056208D01*
X43876883Y-41092900D01*
X44007116Y-41092900D01*
X44007117Y-41092900D01*
X44132076Y-41056208D01*
X44241636Y-40985799D01*
X44326921Y-40887374D01*
X44381023Y-40768909D01*
X44399557Y-40640000D01*
X44381023Y-40511091D01*
X44326921Y-40392626D01*
X44241636Y-40294201D01*
X44132076Y-40223792D01*
X44132075Y-40223791D01*
X44132074Y-40223791D01*
X44059060Y-40202352D01*
X44007117Y-40187100D01*
X43876883Y-40187100D01*
X43840192Y-40197873D01*
X43751925Y-40223791D01*
X43642359Y-40294204D01*
X43637317Y-40300023D01*
X43603382Y-40322404D01*
X43562758Y-40323854D01*
X43527314Y-40303949D01*
X43517566Y-40294201D01*
X43459145Y-40235780D01*
X43355550Y-40190038D01*
X43330226Y-40187100D01*
X42064774Y-40187100D01*
X42039449Y-40190038D01*
X41935854Y-40235780D01*
X41855780Y-40315854D01*
X41818261Y-40400825D01*
X41810038Y-40419450D01*
X41807100Y-40444774D01*
X41807100Y-40835226D01*
X41642900Y-40835226D01*
X41642899Y-40045168D01*
X41632435Y-39942732D01*
X41590981Y-39817633D01*
X41589192Y-39776638D01*
X41609191Y-39740806D01*
X41716917Y-39633080D01*
X41759701Y-39611775D01*
X41806683Y-39620557D01*
X41838883Y-39655878D01*
X41855779Y-39694144D01*
X41855780Y-39694145D01*
X41935855Y-39774220D01*
X42039450Y-39819962D01*
X42064774Y-39822900D01*
X43330226Y-39822900D01*
X43355550Y-39819962D01*
X43459145Y-39774220D01*
X43539220Y-39694145D01*
X43584962Y-39590550D01*
X43587900Y-39565226D01*
X43587900Y-39174774D01*
X43584962Y-39149450D01*
X43539220Y-39045855D01*
X43459145Y-38965780D01*
X43355550Y-38920038D01*
X43330226Y-38917100D01*
X42064774Y-38917100D01*
X42039449Y-38920038D01*
X41935856Y-38965779D01*
X41855779Y-39045855D01*
X41833605Y-39096075D01*
X41805867Y-39128705D01*
X41764813Y-39140900D01*
X41663959Y-39140900D01*
X41660024Y-39140797D01*
X41657637Y-39140671D01*
X41619360Y-39138666D01*
X41603400Y-39137830D01*
X41603530Y-39135346D01*
X41583467Y-39136221D01*
X41544141Y-39109190D01*
X41529000Y-39063936D01*
X41529000Y-39063090D01*
X41540196Y-39023612D01*
X41558598Y-38993778D01*
X41577442Y-38963228D01*
X41632435Y-38797268D01*
X41642900Y-38694833D01*
X41642900Y-38404300D01*
X41652975Y-38366700D01*
X41680500Y-38339175D01*
X41718100Y-38329100D01*
X41764813Y-38329100D01*
X41805867Y-38341295D01*
X41833605Y-38373925D01*
X41855779Y-38424144D01*
X41855780Y-38424145D01*
X41935855Y-38504220D01*
X42039450Y-38549962D01*
X42064774Y-38552900D01*
X43330226Y-38552900D01*
X43355550Y-38549962D01*
X43459145Y-38504220D01*
X43539220Y-38424145D01*
X43584962Y-38320550D01*
X43587900Y-38295226D01*
X43587900Y-37904774D01*
X43584962Y-37879450D01*
X43539220Y-37775855D01*
X43459145Y-37695780D01*
X43355550Y-37650038D01*
X43330226Y-37647100D01*
X42064774Y-37647100D01*
X42039449Y-37650038D01*
X41935856Y-37695779D01*
X41855779Y-37775855D01*
X41833605Y-37826075D01*
X41805867Y-37858705D01*
X41764813Y-37870900D01*
X41718099Y-37870900D01*
X41680499Y-37860825D01*
X41652974Y-37833300D01*
X41642899Y-37795700D01*
X41642899Y-37505171D01*
X41642899Y-37505167D01*
X41632435Y-37402732D01*
X41577442Y-37236772D01*
X41540195Y-37176386D01*
X41529000Y-37136910D01*
X41529000Y-37134300D01*
X41539075Y-37096700D01*
X41566600Y-37069175D01*
X41604200Y-37059100D01*
X41764813Y-37059100D01*
X41805867Y-37071295D01*
X41833605Y-37103925D01*
X41855779Y-37154144D01*
X41855780Y-37154145D01*
X41935855Y-37234220D01*
X42039450Y-37279962D01*
X42064774Y-37282900D01*
X43330226Y-37282900D01*
X43355550Y-37279962D01*
X43459145Y-37234220D01*
X43539220Y-37154145D01*
X43584962Y-37050550D01*
X43587900Y-37025226D01*
X43587900Y-36634774D01*
X43584962Y-36609450D01*
X43539220Y-36505855D01*
X43459145Y-36425780D01*
X43355550Y-36380038D01*
X43330226Y-36377100D01*
X42064774Y-36377100D01*
X42039449Y-36380038D01*
X41935856Y-36425779D01*
X41855779Y-36505855D01*
X41833605Y-36556075D01*
X41805867Y-36588705D01*
X41764813Y-36600900D01*
X41655044Y-36600900D01*
X41626266Y-36595176D01*
X41601870Y-36578874D01*
X41569427Y-36546431D01*
X41547909Y-36501987D01*
X41558596Y-36453781D01*
X41577442Y-36423228D01*
X41632435Y-36257268D01*
X41642900Y-36154833D01*
X41642900Y-35755226D01*
X41807100Y-35755226D01*
X41810038Y-35780550D01*
X41855780Y-35884145D01*
X41935855Y-35964220D01*
X42039450Y-36009962D01*
X42064774Y-36012900D01*
X43330226Y-36012900D01*
X43355550Y-36009962D01*
X43459145Y-35964220D01*
X43527317Y-35896047D01*
X43562759Y-35876144D01*
X43603385Y-35877595D01*
X43637320Y-35899978D01*
X43642364Y-35905799D01*
X43751924Y-35976208D01*
X43876883Y-36012900D01*
X44007116Y-36012900D01*
X44007117Y-36012900D01*
X44132076Y-35976208D01*
X44241636Y-35905799D01*
X44326921Y-35807374D01*
X44381023Y-35688909D01*
X44399557Y-35560000D01*
X44381023Y-35431091D01*
X44326921Y-35312626D01*
X44241636Y-35214201D01*
X44132076Y-35143792D01*
X44132075Y-35143791D01*
X44132074Y-35143791D01*
X44059060Y-35122352D01*
X44007117Y-35107100D01*
X43876883Y-35107100D01*
X43840191Y-35117873D01*
X43751925Y-35143791D01*
X43642359Y-35214204D01*
X43637317Y-35220023D01*
X43603382Y-35242404D01*
X43562758Y-35243854D01*
X43527314Y-35223949D01*
X43517566Y-35214201D01*
X43459145Y-35155780D01*
X43355550Y-35110038D01*
X43330226Y-35107100D01*
X42064774Y-35107100D01*
X42039449Y-35110038D01*
X41935854Y-35155780D01*
X41855780Y-35235854D01*
X41852247Y-35243855D01*
X41810038Y-35339450D01*
X41807100Y-35364774D01*
X41807100Y-35755226D01*
X41642900Y-35755226D01*
X41642899Y-34965168D01*
X41632435Y-34862732D01*
X41577442Y-34696772D01*
X41540195Y-34636386D01*
X41529000Y-34596910D01*
X41529000Y-34485226D01*
X41807100Y-34485226D01*
X41810038Y-34510550D01*
X41855780Y-34614145D01*
X41935855Y-34694220D01*
X42039450Y-34739962D01*
X42064774Y-34742900D01*
X43330226Y-34742900D01*
X43355550Y-34739962D01*
X43459145Y-34694220D01*
X43527317Y-34626047D01*
X43562759Y-34606144D01*
X43603385Y-34607595D01*
X43637320Y-34629978D01*
X43642364Y-34635799D01*
X43751924Y-34706208D01*
X43876883Y-34742900D01*
X44007116Y-34742900D01*
X44007117Y-34742900D01*
X44132076Y-34706208D01*
X44241636Y-34635799D01*
X44326921Y-34537374D01*
X44381023Y-34418909D01*
X44399557Y-34290000D01*
X44381023Y-34161091D01*
X44326921Y-34042626D01*
X44241636Y-33944201D01*
X44132076Y-33873792D01*
X44132075Y-33873791D01*
X44132074Y-33873791D01*
X44059060Y-33852352D01*
X44007117Y-33837100D01*
X43876883Y-33837100D01*
X43840192Y-33847873D01*
X43751925Y-33873791D01*
X43642359Y-33944204D01*
X43637317Y-33950023D01*
X43603382Y-33972404D01*
X43562758Y-33973854D01*
X43527314Y-33953949D01*
X43494303Y-33920938D01*
X43459145Y-33885780D01*
X43453365Y-33883228D01*
X43355550Y-33840038D01*
X43330226Y-33837100D01*
X42064774Y-33837100D01*
X42039449Y-33840038D01*
X41935854Y-33885780D01*
X41855780Y-33965854D01*
X41810632Y-34068103D01*
X41810038Y-34069450D01*
X41807100Y-34094774D01*
X41807100Y-34485226D01*
X41529000Y-34485226D01*
X41529000Y-33983090D01*
X41540196Y-33943612D01*
X41547791Y-33931299D01*
X41577442Y-33883228D01*
X41632435Y-33717268D01*
X41642900Y-33614833D01*
X41642900Y-33215226D01*
X41807100Y-33215226D01*
X41810038Y-33240550D01*
X41855780Y-33344145D01*
X41935855Y-33424220D01*
X42039450Y-33469962D01*
X42064774Y-33472900D01*
X43330226Y-33472900D01*
X43355550Y-33469962D01*
X43459145Y-33424220D01*
X43527317Y-33356047D01*
X43562759Y-33336144D01*
X43603385Y-33337595D01*
X43637320Y-33359978D01*
X43642364Y-33365799D01*
X43751924Y-33436208D01*
X43876883Y-33472900D01*
X44007116Y-33472900D01*
X44007117Y-33472900D01*
X44132076Y-33436208D01*
X44241636Y-33365799D01*
X44326921Y-33267374D01*
X44381023Y-33148909D01*
X44399557Y-33020000D01*
X44381023Y-32891091D01*
X44326921Y-32772626D01*
X44241636Y-32674201D01*
X44132076Y-32603792D01*
X44132075Y-32603791D01*
X44132074Y-32603791D01*
X44059060Y-32582352D01*
X44007117Y-32567100D01*
X43876883Y-32567100D01*
X43840192Y-32577873D01*
X43751925Y-32603791D01*
X43642359Y-32674204D01*
X43637317Y-32680023D01*
X43603382Y-32702404D01*
X43562758Y-32703854D01*
X43527314Y-32683949D01*
X43517566Y-32674201D01*
X43459145Y-32615780D01*
X43355550Y-32570038D01*
X43330226Y-32567100D01*
X42064774Y-32567100D01*
X42039449Y-32570038D01*
X41935854Y-32615780D01*
X41855780Y-32695854D01*
X41852247Y-32703855D01*
X41810038Y-32799450D01*
X41807100Y-32824774D01*
X41807100Y-33215226D01*
X41642900Y-33215226D01*
X41642899Y-32425168D01*
X41632435Y-32322732D01*
X41577442Y-32156772D01*
X41540195Y-32096386D01*
X41529000Y-32056910D01*
X41529000Y-31945226D01*
X41807100Y-31945226D01*
X41810038Y-31970550D01*
X41855780Y-32074145D01*
X41935855Y-32154220D01*
X42039450Y-32199962D01*
X42064774Y-32202900D01*
X43330226Y-32202900D01*
X43355550Y-32199962D01*
X43459145Y-32154220D01*
X43539220Y-32074145D01*
X43584962Y-31970550D01*
X43587900Y-31945226D01*
X43587900Y-31623000D01*
X43928943Y-31623000D01*
X43947477Y-31751910D01*
X44001578Y-31870373D01*
X44001579Y-31870374D01*
X44086864Y-31968799D01*
X44196424Y-32039208D01*
X44321383Y-32075900D01*
X44451616Y-32075900D01*
X44451617Y-32075900D01*
X44576576Y-32039208D01*
X44686136Y-31968799D01*
X44765805Y-31876854D01*
X44791399Y-31857696D01*
X44822638Y-31850900D01*
X45077064Y-31850900D01*
X45081000Y-31851003D01*
X45121448Y-31853123D01*
X45144406Y-31844308D01*
X45155706Y-31840961D01*
X45179766Y-31835848D01*
X45186674Y-31830828D01*
X45203920Y-31821464D01*
X45211896Y-31818403D01*
X45229290Y-31801008D01*
X45238249Y-31793356D01*
X45258146Y-31778901D01*
X45262417Y-31771502D01*
X45274362Y-31755935D01*
X45875548Y-31154749D01*
X45878364Y-31152075D01*
X45908494Y-31124949D01*
X45918496Y-31102481D01*
X45924123Y-31092117D01*
X45937516Y-31071496D01*
X45938852Y-31063059D01*
X45944428Y-31044239D01*
X45947900Y-31036442D01*
X45947900Y-31011853D01*
X45948826Y-31000088D01*
X45952672Y-30975806D01*
X45950462Y-30967558D01*
X45947900Y-30948095D01*
X45947900Y-30925717D01*
X45960095Y-30884663D01*
X45992725Y-30856925D01*
X46027372Y-30841626D01*
X46044145Y-30834220D01*
X46124220Y-30754145D01*
X46169962Y-30650550D01*
X46172900Y-30625226D01*
X46537100Y-30625226D01*
X46540038Y-30650550D01*
X46585780Y-30754145D01*
X46628772Y-30797137D01*
X46665855Y-30834220D01*
X46716075Y-30856395D01*
X46748705Y-30884133D01*
X46760900Y-30925187D01*
X46760900Y-34155041D01*
X46760797Y-34158976D01*
X46758666Y-34199639D01*
X46767533Y-34222740D01*
X46770883Y-34234050D01*
X46776030Y-34258263D01*
X46781108Y-34265253D01*
X46790472Y-34282500D01*
X46793567Y-34290563D01*
X46793568Y-34290564D01*
X46811069Y-34308065D01*
X46818728Y-34317032D01*
X46833278Y-34337059D01*
X46840756Y-34341376D01*
X46856331Y-34353327D01*
X48855428Y-36352424D01*
X48876259Y-36392246D01*
X48870659Y-36436837D01*
X48836977Y-36510591D01*
X48818443Y-36639499D01*
X48836977Y-36768410D01*
X48891078Y-36886873D01*
X48891079Y-36886874D01*
X48976364Y-36985299D01*
X49085924Y-37055708D01*
X49210883Y-37092400D01*
X49341116Y-37092400D01*
X49341117Y-37092400D01*
X49466076Y-37055708D01*
X49575636Y-36985299D01*
X49660921Y-36886874D01*
X49715023Y-36768409D01*
X49733557Y-36639500D01*
X49715023Y-36510591D01*
X49660921Y-36392126D01*
X49575636Y-36293701D01*
X49466076Y-36223292D01*
X49466075Y-36223291D01*
X49466074Y-36223291D01*
X49354546Y-36190543D01*
X49322559Y-36171563D01*
X47241126Y-34090129D01*
X47224824Y-34065733D01*
X47219100Y-34036955D01*
X47219100Y-30925187D01*
X47231295Y-30884133D01*
X47263925Y-30856395D01*
X47297372Y-30841626D01*
X47314145Y-30834220D01*
X47394220Y-30754145D01*
X47439962Y-30650550D01*
X47442900Y-30625226D01*
X47442900Y-30242500D01*
X47807600Y-30242500D01*
X47807600Y-30625152D01*
X47810533Y-30650435D01*
X47856199Y-30753857D01*
X47936142Y-30833800D01*
X48009999Y-30866411D01*
X48010000Y-30866412D01*
X48010000Y-30242500D01*
X48510000Y-30242500D01*
X48510000Y-30866411D01*
X48583857Y-30833800D01*
X48663800Y-30753857D01*
X48709466Y-30650435D01*
X48712400Y-30625152D01*
X48712400Y-30242500D01*
X48510000Y-30242500D01*
X48010000Y-30242500D01*
X47807600Y-30242500D01*
X47442900Y-30242500D01*
X47442900Y-29742500D01*
X47807600Y-29742500D01*
X48010000Y-29742500D01*
X48010000Y-29118589D01*
X48009999Y-29118588D01*
X48510000Y-29118588D01*
X48510000Y-29742500D01*
X48712400Y-29742500D01*
X48712400Y-29359848D01*
X48709466Y-29334564D01*
X48663800Y-29231142D01*
X48583857Y-29151199D01*
X48510000Y-29118588D01*
X48009999Y-29118588D01*
X47936142Y-29151199D01*
X47856199Y-29231142D01*
X47810533Y-29334564D01*
X47807600Y-29359848D01*
X47807600Y-29742500D01*
X47442900Y-29742500D01*
X47442900Y-29359774D01*
X47439962Y-29334450D01*
X47394220Y-29230855D01*
X47314145Y-29150780D01*
X47210550Y-29105038D01*
X47185226Y-29102100D01*
X46794774Y-29102100D01*
X46769449Y-29105038D01*
X46665854Y-29150780D01*
X46585780Y-29230854D01*
X46585779Y-29230855D01*
X46585780Y-29230855D01*
X46540038Y-29334450D01*
X46537100Y-29359774D01*
X46537100Y-30625226D01*
X46172900Y-30625226D01*
X46172900Y-29359774D01*
X46169962Y-29334450D01*
X46124220Y-29230855D01*
X46044145Y-29150780D01*
X45940550Y-29105038D01*
X45915226Y-29102100D01*
X45524774Y-29102100D01*
X45499449Y-29105038D01*
X45395854Y-29150780D01*
X45315780Y-29230854D01*
X45315779Y-29230855D01*
X45315780Y-29230855D01*
X45270038Y-29334450D01*
X45267100Y-29359774D01*
X45267100Y-30625226D01*
X45270038Y-30650550D01*
X45315780Y-30754145D01*
X45395855Y-30834220D01*
X45403388Y-30837546D01*
X45438709Y-30869745D01*
X45447492Y-30916727D01*
X45426187Y-30959512D01*
X45012626Y-31373074D01*
X44988230Y-31389376D01*
X44959452Y-31395100D01*
X44822638Y-31395100D01*
X44791399Y-31388304D01*
X44765805Y-31369145D01*
X44745559Y-31345780D01*
X44686136Y-31277201D01*
X44576576Y-31206792D01*
X44576575Y-31206791D01*
X44576574Y-31206791D01*
X44480224Y-31178500D01*
X44451617Y-31170100D01*
X44321383Y-31170100D01*
X44312682Y-31172655D01*
X44196425Y-31206791D01*
X44189568Y-31211198D01*
X44086864Y-31277201D01*
X44086863Y-31277201D01*
X44086863Y-31277202D01*
X44001578Y-31375626D01*
X43947477Y-31494089D01*
X43928943Y-31623000D01*
X43587900Y-31623000D01*
X43587900Y-31554774D01*
X43584962Y-31529450D01*
X43539220Y-31425855D01*
X43459145Y-31345780D01*
X43355550Y-31300038D01*
X43330226Y-31297100D01*
X43000600Y-31297100D01*
X42963000Y-31287025D01*
X42935475Y-31259500D01*
X42925400Y-31221900D01*
X42925400Y-31021436D01*
X42925503Y-31017500D01*
X42927623Y-30977052D01*
X42927145Y-30975806D01*
X42918808Y-30954089D01*
X42915458Y-30942778D01*
X42910348Y-30918734D01*
X42905330Y-30911827D01*
X42895964Y-30894576D01*
X42892904Y-30886605D01*
X42892904Y-30886604D01*
X42885170Y-30878870D01*
X42866993Y-30849446D01*
X42863911Y-30814994D01*
X42875557Y-30734000D01*
X42857023Y-30605091D01*
X42802921Y-30486626D01*
X42717636Y-30388201D01*
X42608076Y-30317792D01*
X42608075Y-30317791D01*
X42608074Y-30317791D01*
X42532498Y-30295600D01*
X42483117Y-30281100D01*
X42352883Y-30281100D01*
X42316191Y-30291873D01*
X42227925Y-30317791D01*
X42173144Y-30352996D01*
X42118364Y-30388201D01*
X42118363Y-30388201D01*
X42118363Y-30388202D01*
X42033078Y-30486626D01*
X41978977Y-30605089D01*
X41960443Y-30733999D01*
X41978977Y-30862910D01*
X42033078Y-30981373D01*
X42033079Y-30981374D01*
X42118364Y-31079799D01*
X42227924Y-31150208D01*
X42227925Y-31150208D01*
X42237020Y-31156053D01*
X42236769Y-31156442D01*
X42261997Y-31172655D01*
X42279599Y-31211198D01*
X42273568Y-31253139D01*
X42245820Y-31285162D01*
X42205164Y-31297100D01*
X42064774Y-31297100D01*
X42039449Y-31300038D01*
X41935854Y-31345780D01*
X41855780Y-31425854D01*
X41825650Y-31494091D01*
X41810038Y-31529450D01*
X41807100Y-31554774D01*
X41807100Y-31945226D01*
X41529000Y-31945226D01*
X41529000Y-31443090D01*
X41540196Y-31403612D01*
X41577442Y-31343228D01*
X41632435Y-31177268D01*
X41642900Y-31074833D01*
X41642899Y-29885168D01*
X41632435Y-29782732D01*
X41577442Y-29616772D01*
X41540195Y-29556386D01*
X41529000Y-29516910D01*
X41529000Y-29464000D01*
X42277943Y-29464000D01*
X42296477Y-29592910D01*
X42350578Y-29711373D01*
X42350579Y-29711374D01*
X42435864Y-29809799D01*
X42545424Y-29880208D01*
X42670383Y-29916900D01*
X42800617Y-29916900D01*
X42808422Y-29914607D01*
X42848207Y-29913895D01*
X42882786Y-29933586D01*
X43097240Y-30148040D01*
X43099951Y-30150896D01*
X43127049Y-30180993D01*
X43127050Y-30180993D01*
X43127051Y-30180994D01*
X43149520Y-30190997D01*
X43159882Y-30196624D01*
X43180504Y-30210016D01*
X43188822Y-30211333D01*
X43188929Y-30211350D01*
X43207757Y-30216927D01*
X43215557Y-30220400D01*
X43215558Y-30220400D01*
X43240152Y-30220400D01*
X43251916Y-30221326D01*
X43276193Y-30225171D01*
X43276193Y-30225170D01*
X43276194Y-30225171D01*
X43280983Y-30223887D01*
X43284439Y-30222962D01*
X43303902Y-30220400D01*
X43921900Y-30220400D01*
X43959500Y-30230475D01*
X43987025Y-30258000D01*
X43997100Y-30295600D01*
X43997100Y-30625226D01*
X44000038Y-30650550D01*
X44045780Y-30754145D01*
X44125855Y-30834220D01*
X44229450Y-30879962D01*
X44254774Y-30882900D01*
X44645226Y-30882900D01*
X44670550Y-30879962D01*
X44774145Y-30834220D01*
X44854220Y-30754145D01*
X44899962Y-30650550D01*
X44902900Y-30625226D01*
X44902900Y-29359774D01*
X44899962Y-29334450D01*
X44854220Y-29230855D01*
X44774145Y-29150780D01*
X44670550Y-29105038D01*
X44645226Y-29102100D01*
X44254774Y-29102100D01*
X44229449Y-29105038D01*
X44125854Y-29150780D01*
X44045780Y-29230854D01*
X44000038Y-29334449D01*
X43997100Y-29359774D01*
X43997100Y-29689400D01*
X43987025Y-29727000D01*
X43959500Y-29754525D01*
X43921900Y-29764600D01*
X43389547Y-29764600D01*
X43360769Y-29758876D01*
X43336373Y-29742574D01*
X43202671Y-29608872D01*
X43184493Y-29579446D01*
X43181411Y-29544995D01*
X43185449Y-29516910D01*
X43193057Y-29464000D01*
X43174523Y-29335091D01*
X43120421Y-29216626D01*
X43035136Y-29118201D01*
X42925576Y-29047792D01*
X42925575Y-29047791D01*
X42925574Y-29047791D01*
X42805146Y-29012430D01*
X42800617Y-29011100D01*
X42670383Y-29011100D01*
X42665854Y-29012430D01*
X42545425Y-29047791D01*
X42509650Y-29070782D01*
X42435864Y-29118201D01*
X42435863Y-29118201D01*
X42435863Y-29118202D01*
X42350578Y-29216626D01*
X42296477Y-29335089D01*
X42277943Y-29464000D01*
X41529000Y-29464000D01*
X41529000Y-28903090D01*
X41540196Y-28863612D01*
X41566619Y-28820774D01*
X41577442Y-28803228D01*
X41632435Y-28637268D01*
X41642900Y-28534833D01*
X41642899Y-27345168D01*
X41632435Y-27242732D01*
X41577442Y-27076772D01*
X41540195Y-27016386D01*
X41529000Y-26976910D01*
X41529000Y-26793000D01*
X42676601Y-26793000D01*
X42676601Y-27534295D01*
X42679561Y-27565877D01*
X42726097Y-27698867D01*
X42809765Y-27812234D01*
X42923131Y-27895902D01*
X43056122Y-27942438D01*
X43087705Y-27945400D01*
X43629000Y-27945400D01*
X43629000Y-26793000D01*
X44129000Y-26793000D01*
X44129000Y-27945399D01*
X44670295Y-27945399D01*
X44701877Y-27942438D01*
X44834867Y-27895902D01*
X44948234Y-27812234D01*
X45031902Y-27698868D01*
X45078438Y-27565877D01*
X45081400Y-27534295D01*
X45081400Y-26793000D01*
X44129000Y-26793000D01*
X43629000Y-26793000D01*
X42676601Y-26793000D01*
X41529000Y-26793000D01*
X41529000Y-26363090D01*
X41540196Y-26323612D01*
X41559078Y-26293000D01*
X42676600Y-26293000D01*
X43629000Y-26293000D01*
X43629000Y-25140601D01*
X43087705Y-25140601D01*
X43056122Y-25143561D01*
X42923132Y-25190097D01*
X42809765Y-25273765D01*
X42726097Y-25387131D01*
X42679561Y-25520122D01*
X42676600Y-25551705D01*
X42676600Y-26293000D01*
X41559078Y-26293000D01*
X41577442Y-26263228D01*
X41632435Y-26097268D01*
X41642900Y-25994833D01*
X41642899Y-25140600D01*
X44129000Y-25140600D01*
X44129000Y-26293000D01*
X45081399Y-26293000D01*
X45081399Y-25551705D01*
X45078438Y-25520122D01*
X45031902Y-25387132D01*
X44948234Y-25273765D01*
X44834868Y-25190097D01*
X44701877Y-25143561D01*
X44670295Y-25140600D01*
X44129000Y-25140600D01*
X41642899Y-25140600D01*
X41642899Y-24805168D01*
X41632435Y-24702732D01*
X41577442Y-24536772D01*
X41540195Y-24476386D01*
X41529000Y-24436910D01*
X41529000Y-23823090D01*
X41540196Y-23783612D01*
X41545775Y-23774567D01*
X41577442Y-23723228D01*
X41632435Y-23557268D01*
X41642900Y-23454833D01*
X41642900Y-23316051D01*
X46007100Y-23316051D01*
X46009969Y-23346652D01*
X46055060Y-23475516D01*
X46092405Y-23526116D01*
X46107100Y-23570772D01*
X46107100Y-23756121D01*
X46105289Y-23772524D01*
X46104832Y-23774567D01*
X46107063Y-23845567D01*
X46107100Y-23847929D01*
X46107100Y-23877577D01*
X46107944Y-23884260D01*
X46108500Y-23891319D01*
X46110013Y-23939451D01*
X46117037Y-23963632D01*
X46119429Y-23975178D01*
X46122586Y-24000161D01*
X46140306Y-24044916D01*
X46142601Y-24051619D01*
X46156034Y-24097859D01*
X46168851Y-24119531D01*
X46174041Y-24130124D01*
X46183312Y-24153538D01*
X46211609Y-24192485D01*
X46215498Y-24198405D01*
X46240008Y-24239848D01*
X46257812Y-24257652D01*
X46265471Y-24266620D01*
X46280272Y-24286991D01*
X46317374Y-24317685D01*
X46322613Y-24322453D01*
X47035995Y-25035835D01*
X47057548Y-25080589D01*
X47046495Y-25129017D01*
X47007659Y-25159989D01*
X46956231Y-25177985D01*
X46922895Y-25189650D01*
X46857659Y-25237797D01*
X46809408Y-25273408D01*
X46725649Y-25386896D01*
X46679064Y-25520026D01*
X46676100Y-25551643D01*
X46676100Y-27534357D01*
X46679064Y-27565973D01*
X46725567Y-27698868D01*
X46725650Y-27699105D01*
X46809408Y-27812592D01*
X46922895Y-27896350D01*
X47056029Y-27942936D01*
X47087638Y-27945900D01*
X48670357Y-27945900D01*
X48670362Y-27945900D01*
X48701971Y-27942936D01*
X48828617Y-27898620D01*
X48853455Y-27894400D01*
X49729455Y-27894400D01*
X49768746Y-27905481D01*
X49781660Y-27919450D01*
X49783323Y-27917788D01*
X49834094Y-27968559D01*
X49853558Y-28002270D01*
X49853558Y-28041196D01*
X49834094Y-28074907D01*
X49230725Y-28678276D01*
X49224440Y-28683894D01*
X49194250Y-28707971D01*
X49161372Y-28756192D01*
X49159747Y-28758483D01*
X49124479Y-28806271D01*
X49117631Y-28819834D01*
X49100136Y-28876551D01*
X49099257Y-28879221D01*
X49079646Y-28935266D01*
X49077100Y-28950256D01*
X49077100Y-29009618D01*
X49077047Y-29012430D01*
X49074827Y-29071761D01*
X49077100Y-29089027D01*
X49077100Y-29359774D01*
X49077100Y-30625226D01*
X49080038Y-30650550D01*
X49125780Y-30754145D01*
X49205855Y-30834220D01*
X49309450Y-30879962D01*
X49334774Y-30882900D01*
X49725226Y-30882900D01*
X49750550Y-30879962D01*
X49854145Y-30834220D01*
X49934220Y-30754145D01*
X49979962Y-30650550D01*
X49982900Y-30625226D01*
X49982900Y-29359774D01*
X49982900Y-29238247D01*
X49988624Y-29209469D01*
X50004925Y-29185073D01*
X50119216Y-29070782D01*
X50693783Y-28496212D01*
X50700055Y-28490607D01*
X50730249Y-28466530D01*
X50763132Y-28418296D01*
X50764741Y-28416028D01*
X50799440Y-28369016D01*
X50799441Y-28369011D01*
X50800028Y-28368217D01*
X50806864Y-28354674D01*
X50807155Y-28353730D01*
X50807158Y-28353726D01*
X50824372Y-28297915D01*
X50825241Y-28295277D01*
X50844855Y-28239226D01*
X50847400Y-28224253D01*
X50847400Y-28164881D01*
X50847453Y-28162069D01*
X50850060Y-28092391D01*
X50853625Y-28092524D01*
X50855978Y-28062639D01*
X50890537Y-28026222D01*
X50895405Y-28023740D01*
X50904210Y-28019255D01*
X50997255Y-27926210D01*
X51056993Y-27808966D01*
X51072400Y-27711692D01*
X51072400Y-27491500D01*
X51417100Y-27491500D01*
X51417100Y-27711655D01*
X51432487Y-27808807D01*
X51492156Y-27925913D01*
X51585086Y-28018843D01*
X51702192Y-28078512D01*
X51799345Y-28093900D01*
X51844500Y-28093900D01*
X51844500Y-27491500D01*
X52344500Y-27491500D01*
X52344500Y-28093900D01*
X52389655Y-28093900D01*
X52486807Y-28078512D01*
X52603913Y-28018843D01*
X52696843Y-27925913D01*
X52756512Y-27808807D01*
X52771900Y-27711655D01*
X52771900Y-27491500D01*
X52344500Y-27491500D01*
X51844500Y-27491500D01*
X51417100Y-27491500D01*
X51072400Y-27491500D01*
X51072400Y-26991500D01*
X51417100Y-26991500D01*
X51844500Y-26991500D01*
X51844500Y-26389100D01*
X52344500Y-26389100D01*
X52344500Y-26991500D01*
X52771900Y-26991500D01*
X52771900Y-26771345D01*
X52756512Y-26674192D01*
X52696843Y-26557086D01*
X52603913Y-26464156D01*
X52486807Y-26404487D01*
X52389655Y-26389100D01*
X52344500Y-26389100D01*
X51844500Y-26389100D01*
X51799345Y-26389100D01*
X51702192Y-26404487D01*
X51585086Y-26464156D01*
X51492156Y-26557086D01*
X51432487Y-26674192D01*
X51417100Y-26771345D01*
X51417100Y-26991500D01*
X51072400Y-26991500D01*
X51072400Y-26771308D01*
X51056993Y-26674034D01*
X50997255Y-26556790D01*
X50997254Y-26556789D01*
X50997253Y-26556787D01*
X50904212Y-26463746D01*
X50849460Y-26435849D01*
X50819482Y-26408137D01*
X50808400Y-26368845D01*
X50808400Y-25687001D01*
X50814124Y-25658223D01*
X50830423Y-25633829D01*
X50869492Y-25594761D01*
X50923051Y-25485203D01*
X50933400Y-25414177D01*
X51677600Y-25414177D01*
X51687948Y-25485202D01*
X51741508Y-25594762D01*
X51827737Y-25680991D01*
X51937297Y-25734551D01*
X52008323Y-25744900D01*
X52008326Y-25744900D01*
X52502674Y-25744900D01*
X52502677Y-25744900D01*
X52555945Y-25737138D01*
X52573703Y-25734551D01*
X52683261Y-25680992D01*
X52769492Y-25594761D01*
X52823051Y-25485203D01*
X52833400Y-25414174D01*
X52833400Y-25364936D01*
X52843927Y-25326564D01*
X52872560Y-25298935D01*
X52911284Y-25289784D01*
X52949254Y-25301672D01*
X52959424Y-25308208D01*
X53084383Y-25344900D01*
X53214616Y-25344900D01*
X53214617Y-25344900D01*
X53339576Y-25308208D01*
X53449136Y-25237799D01*
X53534421Y-25139374D01*
X53588523Y-25020909D01*
X53607057Y-24892000D01*
X53588523Y-24763091D01*
X53534421Y-24644626D01*
X53449136Y-24546201D01*
X53339576Y-24475792D01*
X53339575Y-24475791D01*
X53339574Y-24475791D01*
X53266560Y-24454352D01*
X53214617Y-24439100D01*
X53084383Y-24439100D01*
X53047691Y-24449873D01*
X52959425Y-24475791D01*
X52955235Y-24478483D01*
X52949254Y-24482327D01*
X52911284Y-24494216D01*
X52872560Y-24485065D01*
X52843927Y-24457436D01*
X52833400Y-24419064D01*
X52833400Y-24369823D01*
X52823051Y-24298797D01*
X52769491Y-24189237D01*
X52683262Y-24103008D01*
X52573702Y-24049448D01*
X52502677Y-24039100D01*
X52502674Y-24039100D01*
X52008326Y-24039100D01*
X52008323Y-24039100D01*
X51937297Y-24049448D01*
X51827737Y-24103008D01*
X51741508Y-24189237D01*
X51687948Y-24298797D01*
X51677600Y-24369823D01*
X51677600Y-25414177D01*
X50933400Y-25414177D01*
X50933400Y-25414174D01*
X50933400Y-24369826D01*
X50932838Y-24365972D01*
X50923051Y-24298797D01*
X50869491Y-24189237D01*
X50783262Y-24103008D01*
X50673702Y-24049448D01*
X50602677Y-24039100D01*
X50602674Y-24039100D01*
X50108326Y-24039100D01*
X50108323Y-24039100D01*
X50037297Y-24049448D01*
X49927737Y-24103008D01*
X49841508Y-24189237D01*
X49787948Y-24298797D01*
X49777600Y-24369823D01*
X49777600Y-25414177D01*
X49787948Y-25485202D01*
X49841506Y-25594759D01*
X49841507Y-25594760D01*
X49841508Y-25594761D01*
X49880576Y-25633829D01*
X49896876Y-25658223D01*
X49902600Y-25687001D01*
X49902600Y-26414786D01*
X49896876Y-26443564D01*
X49880575Y-26467959D01*
X49791745Y-26556790D01*
X49791744Y-26556791D01*
X49783324Y-26565212D01*
X49781660Y-26563548D01*
X49768746Y-26577519D01*
X49729455Y-26588600D01*
X49157100Y-26588600D01*
X49119500Y-26578525D01*
X49091975Y-26551000D01*
X49081900Y-26513400D01*
X49081900Y-25551643D01*
X49081900Y-25551638D01*
X49078936Y-25520029D01*
X49032350Y-25386895D01*
X48948592Y-25273408D01*
X48835105Y-25189650D01*
X48835103Y-25189649D01*
X48701973Y-25143064D01*
X48692939Y-25142217D01*
X48670362Y-25140100D01*
X48670357Y-25140100D01*
X48607100Y-25140100D01*
X48569500Y-25130025D01*
X48541975Y-25102500D01*
X48531900Y-25064900D01*
X48531900Y-25035879D01*
X48533711Y-25019476D01*
X48533756Y-25019270D01*
X48534168Y-25017431D01*
X48531936Y-24946431D01*
X48531900Y-24944071D01*
X48531900Y-24914422D01*
X48531055Y-24907737D01*
X48530498Y-24900667D01*
X48528987Y-24852552D01*
X48528986Y-24852551D01*
X48521960Y-24828365D01*
X48519569Y-24816817D01*
X48516414Y-24791840D01*
X48498684Y-24747061D01*
X48496403Y-24740399D01*
X48482965Y-24694141D01*
X48470143Y-24672460D01*
X48464958Y-24661876D01*
X48455688Y-24638463D01*
X48455687Y-24638461D01*
X48455686Y-24638459D01*
X48427389Y-24599512D01*
X48423499Y-24593591D01*
X48398990Y-24552149D01*
X48381191Y-24534350D01*
X48373528Y-24525379D01*
X48365781Y-24514717D01*
X48358726Y-24505007D01*
X48321620Y-24474310D01*
X48316391Y-24469551D01*
X47450153Y-23603313D01*
X47431750Y-23573198D01*
X47429113Y-23538004D01*
X47442819Y-23505487D01*
X47464939Y-23475517D01*
X47510031Y-23346650D01*
X47512900Y-23316056D01*
X47512900Y-21006944D01*
X47510031Y-20976350D01*
X47464939Y-20847483D01*
X47383866Y-20737634D01*
X47274017Y-20656561D01*
X47274015Y-20656560D01*
X47145152Y-20611469D01*
X47136408Y-20610649D01*
X47114556Y-20608600D01*
X46405444Y-20608600D01*
X46386322Y-20610393D01*
X46374847Y-20611469D01*
X46245984Y-20656560D01*
X46136134Y-20737634D01*
X46055060Y-20847484D01*
X46009969Y-20976347D01*
X46007100Y-21006949D01*
X46007100Y-23316051D01*
X41642900Y-23316051D01*
X41642899Y-22265168D01*
X41632435Y-22162732D01*
X41577442Y-21996772D01*
X41540195Y-21936386D01*
X41529000Y-21896910D01*
X41529000Y-21283090D01*
X41540196Y-21243612D01*
X41577442Y-21183228D01*
X41632435Y-21017268D01*
X41642900Y-20914833D01*
X41642899Y-19725168D01*
X41632435Y-19622732D01*
X41577442Y-19456772D01*
X41540195Y-19396386D01*
X41529000Y-19356910D01*
X41529000Y-19176500D01*
X41539075Y-19138900D01*
X41566600Y-19111375D01*
X41604200Y-19101300D01*
X54915800Y-19101300D01*
X54953400Y-19111375D01*
G37*
G04 #@! TD.AperFunction*
M02*
