M48
; DRILL file {KiCad (5.1.2-1)-1} date Wednesday, June 26, 2019 at 12:29:30 AM
; FORMAT={-:-/ absolute / inch / decimal}
; #@! TF.CreationDate,2019-06-26T00:29:30-04:00
; #@! TF.GenerationSoftware,Kicad,Pcbnew,(5.1.2-1)-1
FMAT,2
INCH
T1C0.0118
T2C0.0157
T3C0.0394
T4C0.0433
%
G90
G05
T1
X1.73Y-1.3
X1.73Y-1.35
X1.73Y-1.4
X1.73Y-1.6
X1.85Y-1.67
X1.85Y-1.77
X1.9Y-1.23
X1.96Y-1.435
X2.05Y-1.13
X2.05Y-1.23
X2.07Y-1.3
X2.07Y-1.35
X2.07Y-1.4
T2
X1.84Y-1.05
X1.885Y-1.0
X1.885Y-1.1
T3
X2.2Y-0.8
X2.2Y-0.9
X2.2Y-1.0
X2.2Y-1.1
X2.2Y-1.2
X2.2Y-1.3
X2.2Y-1.4
X2.2Y-1.5
X2.2Y-1.6
X2.2Y-1.7
X2.2Y-1.8
X2.2Y-1.9
X2.2Y-2.0
X2.2Y-2.1
X1.6Y-0.8
X1.6Y-0.9
X1.6Y-1.0
X1.6Y-1.1
X1.6Y-1.2
X1.6Y-1.3
X1.6Y-1.4
X1.6Y-1.5
X1.6Y-1.6
X1.6Y-1.7
X1.6Y-1.8
X1.6Y-1.9
X1.6Y-2.0
X1.6Y-2.1
T4
X1.7Y-2.1
X2.05Y-0.8
T0
M30
