G04 #@! TF.GenerationSoftware,KiCad,Pcbnew,(5.1.5-0-10_14)*
G04 #@! TF.CreationDate,2021-04-02T23:51:13-04:00*
G04 #@! TF.ProjectId,GW28R8128,47573238-5238-4313-9238-2e6b69636164,rev?*
G04 #@! TF.SameCoordinates,Original*
G04 #@! TF.FileFunction,Legend,Bot*
G04 #@! TF.FilePolarity,Positive*
%FSLAX46Y46*%
G04 Gerber Fmt 4.6, Leading zero omitted, Abs format (unit mm)*
G04 Created by KiCad (PCBNEW (5.1.5-0-10_14)) date 2021-04-02 23:51:13*
%MOMM*%
%LPD*%
G04 APERTURE LIST*
%ADD10C,0.203200*%
%ADD11C,0.300000*%
%ADD12C,0.225000*%
%ADD13C,0.120000*%
%ADD14C,0.100000*%
G04 APERTURE END LIST*
D10*
X51243895Y-33866666D02*
X51824466Y-33866666D01*
X51940580Y-33827961D01*
X52017990Y-33750552D01*
X52056695Y-33634438D01*
X52056695Y-33557028D01*
X52056695Y-34640761D02*
X52056695Y-34253714D01*
X51243895Y-34253714D01*
X51979285Y-35376152D02*
X52017990Y-35337447D01*
X52056695Y-35221333D01*
X52056695Y-35143923D01*
X52017990Y-35027809D01*
X51940580Y-34950400D01*
X51863171Y-34911695D01*
X51708352Y-34872990D01*
X51592238Y-34872990D01*
X51437419Y-34911695D01*
X51360009Y-34950400D01*
X51282600Y-35027809D01*
X51243895Y-35143923D01*
X51243895Y-35221333D01*
X51282600Y-35337447D01*
X51321304Y-35376152D01*
X51243895Y-35956723D02*
X51824466Y-35956723D01*
X51940580Y-35918019D01*
X52017990Y-35840609D01*
X52056695Y-35724495D01*
X52056695Y-35647085D01*
X52056695Y-36730819D02*
X52056695Y-36343771D01*
X51243895Y-36343771D01*
X51979285Y-37466209D02*
X52017990Y-37427504D01*
X52056695Y-37311390D01*
X52056695Y-37233980D01*
X52017990Y-37117866D01*
X51940580Y-37040457D01*
X51863171Y-37001752D01*
X51708352Y-36963047D01*
X51592238Y-36963047D01*
X51437419Y-37001752D01*
X51360009Y-37040457D01*
X51282600Y-37117866D01*
X51243895Y-37233980D01*
X51243895Y-37311390D01*
X51282600Y-37427504D01*
X51321304Y-37466209D01*
X51243895Y-38046780D02*
X51824466Y-38046780D01*
X51940580Y-38008076D01*
X52017990Y-37930666D01*
X52056695Y-37814552D01*
X52056695Y-37737142D01*
X52056695Y-38820876D02*
X52056695Y-38433828D01*
X51243895Y-38433828D01*
X51979285Y-39556266D02*
X52017990Y-39517561D01*
X52056695Y-39401447D01*
X52056695Y-39324038D01*
X52017990Y-39207923D01*
X51940580Y-39130514D01*
X51863171Y-39091809D01*
X51708352Y-39053104D01*
X51592238Y-39053104D01*
X51437419Y-39091809D01*
X51360009Y-39130514D01*
X51282600Y-39207923D01*
X51243895Y-39324038D01*
X51243895Y-39401447D01*
X51282600Y-39517561D01*
X51321304Y-39556266D01*
X50278695Y-32763580D02*
X50278695Y-32299123D01*
X50278695Y-32531352D02*
X49465895Y-32531352D01*
X49582009Y-32453942D01*
X49659419Y-32376533D01*
X49698123Y-32299123D01*
X49543304Y-33073219D02*
X49504600Y-33111923D01*
X49465895Y-33189333D01*
X49465895Y-33382857D01*
X49504600Y-33460266D01*
X49543304Y-33498971D01*
X49620714Y-33537676D01*
X49698123Y-33537676D01*
X49814238Y-33498971D01*
X50278695Y-33034514D01*
X50278695Y-33537676D01*
X49814238Y-34002133D02*
X49775533Y-33924723D01*
X49736828Y-33886019D01*
X49659419Y-33847314D01*
X49620714Y-33847314D01*
X49543304Y-33886019D01*
X49504600Y-33924723D01*
X49465895Y-34002133D01*
X49465895Y-34156952D01*
X49504600Y-34234361D01*
X49543304Y-34273066D01*
X49620714Y-34311771D01*
X49659419Y-34311771D01*
X49736828Y-34273066D01*
X49775533Y-34234361D01*
X49814238Y-34156952D01*
X49814238Y-34002133D01*
X49852942Y-33924723D01*
X49891647Y-33886019D01*
X49969057Y-33847314D01*
X50123876Y-33847314D01*
X50201285Y-33886019D01*
X50239990Y-33924723D01*
X50278695Y-34002133D01*
X50278695Y-34156952D01*
X50239990Y-34234361D01*
X50201285Y-34273066D01*
X50123876Y-34311771D01*
X49969057Y-34311771D01*
X49891647Y-34273066D01*
X49852942Y-34234361D01*
X49814238Y-34156952D01*
X50278695Y-34660114D02*
X49465895Y-34660114D01*
X49969057Y-34737523D02*
X50278695Y-34969752D01*
X49736828Y-34969752D02*
X50046466Y-34660114D01*
X50278695Y-35859961D02*
X49736828Y-36285714D01*
X49736828Y-35859961D02*
X50278695Y-36285714D01*
X49814238Y-37330742D02*
X49775533Y-37253333D01*
X49736828Y-37214628D01*
X49659419Y-37175923D01*
X49620714Y-37175923D01*
X49543304Y-37214628D01*
X49504600Y-37253333D01*
X49465895Y-37330742D01*
X49465895Y-37485561D01*
X49504600Y-37562971D01*
X49543304Y-37601676D01*
X49620714Y-37640380D01*
X49659419Y-37640380D01*
X49736828Y-37601676D01*
X49775533Y-37562971D01*
X49814238Y-37485561D01*
X49814238Y-37330742D01*
X49852942Y-37253333D01*
X49891647Y-37214628D01*
X49969057Y-37175923D01*
X50123876Y-37175923D01*
X50201285Y-37214628D01*
X50239990Y-37253333D01*
X50278695Y-37330742D01*
X50278695Y-37485561D01*
X50239990Y-37562971D01*
X50201285Y-37601676D01*
X50123876Y-37640380D01*
X49969057Y-37640380D01*
X49891647Y-37601676D01*
X49852942Y-37562971D01*
X49814238Y-37485561D01*
X50278695Y-39072457D02*
X49891647Y-38801523D01*
X50278695Y-38608000D02*
X49465895Y-38608000D01*
X49465895Y-38917638D01*
X49504600Y-38995047D01*
X49543304Y-39033752D01*
X49620714Y-39072457D01*
X49736828Y-39072457D01*
X49814238Y-39033752D01*
X49852942Y-38995047D01*
X49891647Y-38917638D01*
X49891647Y-38608000D01*
X49465895Y-39575619D02*
X49465895Y-39730438D01*
X49504600Y-39807847D01*
X49582009Y-39885257D01*
X49736828Y-39923961D01*
X50007761Y-39923961D01*
X50162580Y-39885257D01*
X50239990Y-39807847D01*
X50278695Y-39730438D01*
X50278695Y-39575619D01*
X50239990Y-39498209D01*
X50162580Y-39420800D01*
X50007761Y-39382095D01*
X49736828Y-39382095D01*
X49582009Y-39420800D01*
X49504600Y-39498209D01*
X49465895Y-39575619D01*
X50278695Y-40272304D02*
X49465895Y-40272304D01*
X50046466Y-40543238D01*
X49465895Y-40814171D01*
X50278695Y-40814171D01*
D11*
X47697571Y-39079714D02*
X47625000Y-38934571D01*
X47552428Y-38862000D01*
X47407285Y-38789428D01*
X47334714Y-38789428D01*
X47189571Y-38862000D01*
X47117000Y-38934571D01*
X47044428Y-39079714D01*
X47044428Y-39370000D01*
X47117000Y-39515142D01*
X47189571Y-39587714D01*
X47334714Y-39660285D01*
X47407285Y-39660285D01*
X47552428Y-39587714D01*
X47625000Y-39515142D01*
X47697571Y-39370000D01*
X47697571Y-39079714D01*
X47770142Y-38934571D01*
X47842714Y-38862000D01*
X47987857Y-38789428D01*
X48278142Y-38789428D01*
X48423285Y-38862000D01*
X48495857Y-38934571D01*
X48568428Y-39079714D01*
X48568428Y-39370000D01*
X48495857Y-39515142D01*
X48423285Y-39587714D01*
X48278142Y-39660285D01*
X47987857Y-39660285D01*
X47842714Y-39587714D01*
X47770142Y-39515142D01*
X47697571Y-39370000D01*
X48568428Y-41111714D02*
X48568428Y-40240857D01*
X48568428Y-40676285D02*
X47044428Y-40676285D01*
X47262142Y-40531142D01*
X47407285Y-40386000D01*
X47479857Y-40240857D01*
X47189571Y-41692285D02*
X47117000Y-41764857D01*
X47044428Y-41910000D01*
X47044428Y-42272857D01*
X47117000Y-42418000D01*
X47189571Y-42490571D01*
X47334714Y-42563142D01*
X47479857Y-42563142D01*
X47697571Y-42490571D01*
X48568428Y-41619714D01*
X48568428Y-42563142D01*
X47697571Y-43434000D02*
X47625000Y-43288857D01*
X47552428Y-43216285D01*
X47407285Y-43143714D01*
X47334714Y-43143714D01*
X47189571Y-43216285D01*
X47117000Y-43288857D01*
X47044428Y-43434000D01*
X47044428Y-43724285D01*
X47117000Y-43869428D01*
X47189571Y-43942000D01*
X47334714Y-44014571D01*
X47407285Y-44014571D01*
X47552428Y-43942000D01*
X47625000Y-43869428D01*
X47697571Y-43724285D01*
X47697571Y-43434000D01*
X47770142Y-43288857D01*
X47842714Y-43216285D01*
X47987857Y-43143714D01*
X48278142Y-43143714D01*
X48423285Y-43216285D01*
X48495857Y-43288857D01*
X48568428Y-43434000D01*
X48568428Y-43724285D01*
X48495857Y-43869428D01*
X48423285Y-43942000D01*
X48278142Y-44014571D01*
X47987857Y-44014571D01*
X47842714Y-43942000D01*
X47770142Y-43869428D01*
X47697571Y-43724285D01*
X48568428Y-37809714D02*
X47842714Y-37301714D01*
X48568428Y-36938857D02*
X47044428Y-36938857D01*
X47044428Y-37519428D01*
X47117000Y-37664571D01*
X47189571Y-37737142D01*
X47334714Y-37809714D01*
X47552428Y-37809714D01*
X47697571Y-37737142D01*
X47770142Y-37664571D01*
X47842714Y-37519428D01*
X47842714Y-36938857D01*
X47189571Y-33636857D02*
X47117000Y-33709428D01*
X47044428Y-33854571D01*
X47044428Y-34217428D01*
X47117000Y-34362571D01*
X47189571Y-34435142D01*
X47334714Y-34507714D01*
X47479857Y-34507714D01*
X47697571Y-34435142D01*
X48568428Y-33564285D01*
X48568428Y-34507714D01*
X47697571Y-35378571D02*
X47625000Y-35233428D01*
X47552428Y-35160857D01*
X47407285Y-35088285D01*
X47334714Y-35088285D01*
X47189571Y-35160857D01*
X47117000Y-35233428D01*
X47044428Y-35378571D01*
X47044428Y-35668857D01*
X47117000Y-35814000D01*
X47189571Y-35886571D01*
X47334714Y-35959142D01*
X47407285Y-35959142D01*
X47552428Y-35886571D01*
X47625000Y-35814000D01*
X47697571Y-35668857D01*
X47697571Y-35378571D01*
X47770142Y-35233428D01*
X47842714Y-35160857D01*
X47987857Y-35088285D01*
X48278142Y-35088285D01*
X48423285Y-35160857D01*
X48495857Y-35233428D01*
X48568428Y-35378571D01*
X48568428Y-35668857D01*
X48495857Y-35814000D01*
X48423285Y-35886571D01*
X48278142Y-35959142D01*
X47987857Y-35959142D01*
X47842714Y-35886571D01*
X47770142Y-35814000D01*
X47697571Y-35668857D01*
X47117000Y-30897285D02*
X47044428Y-30752142D01*
X47044428Y-30534428D01*
X47117000Y-30316714D01*
X47262142Y-30171571D01*
X47407285Y-30099000D01*
X47697571Y-30026428D01*
X47915285Y-30026428D01*
X48205571Y-30099000D01*
X48350714Y-30171571D01*
X48495857Y-30316714D01*
X48568428Y-30534428D01*
X48568428Y-30679571D01*
X48495857Y-30897285D01*
X48423285Y-30969857D01*
X47915285Y-30969857D01*
X47915285Y-30679571D01*
X47044428Y-31477857D02*
X48568428Y-31840714D01*
X47479857Y-32131000D01*
X48568428Y-32421285D01*
X47044428Y-32784142D01*
D12*
X44589000Y-27076000D02*
X44517571Y-26933142D01*
X44517571Y-26718857D01*
X44589000Y-26504571D01*
X44731857Y-26361714D01*
X44874714Y-26290285D01*
X45160428Y-26218857D01*
X45374714Y-26218857D01*
X45660428Y-26290285D01*
X45803285Y-26361714D01*
X45946142Y-26504571D01*
X46017571Y-26718857D01*
X46017571Y-26861714D01*
X45946142Y-27076000D01*
X45874714Y-27147428D01*
X45374714Y-27147428D01*
X45374714Y-26861714D01*
X46017571Y-28433142D02*
X45231857Y-28433142D01*
X45089000Y-28361714D01*
X45017571Y-28218857D01*
X45017571Y-27933142D01*
X45089000Y-27790285D01*
X45946142Y-28433142D02*
X46017571Y-28290285D01*
X46017571Y-27933142D01*
X45946142Y-27790285D01*
X45803285Y-27718857D01*
X45660428Y-27718857D01*
X45517571Y-27790285D01*
X45446142Y-27933142D01*
X45446142Y-28290285D01*
X45374714Y-28433142D01*
X46017571Y-29147428D02*
X45017571Y-29147428D01*
X45303285Y-29147428D02*
X45160428Y-29218857D01*
X45089000Y-29290285D01*
X45017571Y-29433142D01*
X45017571Y-29576000D01*
X46017571Y-30076000D02*
X45017571Y-30076000D01*
X45303285Y-30076000D02*
X45160428Y-30147428D01*
X45089000Y-30218857D01*
X45017571Y-30361714D01*
X45017571Y-30504571D01*
X45946142Y-31576000D02*
X46017571Y-31433142D01*
X46017571Y-31147428D01*
X45946142Y-31004571D01*
X45803285Y-30933142D01*
X45231857Y-30933142D01*
X45089000Y-31004571D01*
X45017571Y-31147428D01*
X45017571Y-31433142D01*
X45089000Y-31576000D01*
X45231857Y-31647428D01*
X45374714Y-31647428D01*
X45517571Y-30933142D01*
X45017571Y-32076000D02*
X45017571Y-32647428D01*
X44517571Y-32290285D02*
X45803285Y-32290285D01*
X45946142Y-32361714D01*
X46017571Y-32504571D01*
X46017571Y-32647428D01*
X45017571Y-32933142D02*
X45017571Y-33504571D01*
X44517571Y-33147428D02*
X45803285Y-33147428D01*
X45946142Y-33218857D01*
X46017571Y-33361714D01*
X46017571Y-33504571D01*
X44517571Y-34076000D02*
X44589000Y-34076000D01*
X44731857Y-34004571D01*
X44803285Y-33933142D01*
X45946142Y-34647428D02*
X46017571Y-34790285D01*
X46017571Y-35076000D01*
X45946142Y-35218857D01*
X45803285Y-35290285D01*
X45731857Y-35290285D01*
X45589000Y-35218857D01*
X45517571Y-35076000D01*
X45517571Y-34861714D01*
X45446142Y-34718857D01*
X45303285Y-34647428D01*
X45231857Y-34647428D01*
X45089000Y-34718857D01*
X45017571Y-34861714D01*
X45017571Y-35076000D01*
X45089000Y-35218857D01*
X44517571Y-36933142D02*
X46017571Y-37290285D01*
X44946142Y-37576000D01*
X46017571Y-37861714D01*
X44517571Y-38218857D01*
X46017571Y-39004571D02*
X45946142Y-38861714D01*
X45874714Y-38790285D01*
X45731857Y-38718857D01*
X45303285Y-38718857D01*
X45160428Y-38790285D01*
X45089000Y-38861714D01*
X45017571Y-39004571D01*
X45017571Y-39218857D01*
X45089000Y-39361714D01*
X45160428Y-39433142D01*
X45303285Y-39504571D01*
X45731857Y-39504571D01*
X45874714Y-39433142D01*
X45946142Y-39361714D01*
X46017571Y-39218857D01*
X46017571Y-39004571D01*
X46017571Y-40147428D02*
X45017571Y-40147428D01*
X45303285Y-40147428D02*
X45160428Y-40218857D01*
X45089000Y-40290285D01*
X45017571Y-40433142D01*
X45017571Y-40576000D01*
X46017571Y-41076000D02*
X44517571Y-41076000D01*
X45446142Y-41218857D02*
X46017571Y-41647428D01*
X45017571Y-41647428D02*
X45589000Y-41076000D01*
X45946142Y-42218857D02*
X46017571Y-42361714D01*
X46017571Y-42647428D01*
X45946142Y-42790285D01*
X45803285Y-42861714D01*
X45731857Y-42861714D01*
X45589000Y-42790285D01*
X45517571Y-42647428D01*
X45517571Y-42433142D01*
X45446142Y-42290285D01*
X45303285Y-42218857D01*
X45231857Y-42218857D01*
X45089000Y-42290285D01*
X45017571Y-42433142D01*
X45017571Y-42647428D01*
X45089000Y-42790285D01*
X46017571Y-43504571D02*
X44517571Y-43504571D01*
X46017571Y-44147428D02*
X45231857Y-44147428D01*
X45089000Y-44076000D01*
X45017571Y-43933142D01*
X45017571Y-43718857D01*
X45089000Y-43576000D01*
X45160428Y-43504571D01*
X46017571Y-45076000D02*
X45946142Y-44933142D01*
X45874714Y-44861714D01*
X45731857Y-44790285D01*
X45303285Y-44790285D01*
X45160428Y-44861714D01*
X45089000Y-44933142D01*
X45017571Y-45076000D01*
X45017571Y-45290285D01*
X45089000Y-45433142D01*
X45160428Y-45504571D01*
X45303285Y-45576000D01*
X45731857Y-45576000D01*
X45874714Y-45504571D01*
X45946142Y-45433142D01*
X46017571Y-45290285D01*
X46017571Y-45076000D01*
X45017571Y-46218857D02*
X46517571Y-46218857D01*
X45089000Y-46218857D02*
X45017571Y-46361714D01*
X45017571Y-46647428D01*
X45089000Y-46790285D01*
X45160428Y-46861714D01*
X45303285Y-46933142D01*
X45731857Y-46933142D01*
X45874714Y-46861714D01*
X45946142Y-46790285D01*
X46017571Y-46647428D01*
X46017571Y-46361714D01*
X45946142Y-46218857D01*
D13*
X54320000Y-18990000D02*
X49260000Y-18990000D01*
X54320000Y-54670000D02*
X54320000Y-18990000D01*
X42200000Y-54670000D02*
X54320000Y-54670000D01*
X42200000Y-18990000D02*
X42200000Y-54670000D01*
X47260000Y-18990000D02*
X42200000Y-18990000D01*
X49260000Y-18990000D02*
G75*
G02X47260000Y-18990000I-1000000J0D01*
G01*
%LPC*%
D14*
G36*
X56140650Y-19154898D02*
G01*
X56207133Y-19164760D01*
X56272330Y-19181091D01*
X56335612Y-19203733D01*
X56396370Y-19232470D01*
X56454019Y-19267023D01*
X56508003Y-19307061D01*
X56557803Y-19352197D01*
X56602939Y-19401997D01*
X56642977Y-19455981D01*
X56677530Y-19513630D01*
X56706267Y-19574388D01*
X56728909Y-19637670D01*
X56745240Y-19702867D01*
X56755102Y-19769350D01*
X56758400Y-19836480D01*
X56758400Y-20803520D01*
X56755102Y-20870650D01*
X56745240Y-20937133D01*
X56728909Y-21002330D01*
X56706267Y-21065612D01*
X56677530Y-21126370D01*
X56642977Y-21184019D01*
X56602939Y-21238003D01*
X56557803Y-21287803D01*
X56508003Y-21332939D01*
X56454019Y-21372977D01*
X56396370Y-21407530D01*
X56335612Y-21436267D01*
X56272330Y-21458909D01*
X56207133Y-21475240D01*
X56140650Y-21485102D01*
X56073520Y-21488400D01*
X55486480Y-21488400D01*
X55419350Y-21485102D01*
X55352867Y-21475240D01*
X55287670Y-21458909D01*
X55224388Y-21436267D01*
X55163630Y-21407530D01*
X55105981Y-21372977D01*
X55051997Y-21332939D01*
X55002197Y-21287803D01*
X54957061Y-21238003D01*
X54917023Y-21184019D01*
X54882470Y-21126370D01*
X54853733Y-21065612D01*
X54831091Y-21002330D01*
X54814760Y-20937133D01*
X54804898Y-20870650D01*
X54801600Y-20803520D01*
X54801600Y-19836480D01*
X54804898Y-19769350D01*
X54814760Y-19702867D01*
X54831091Y-19637670D01*
X54853733Y-19574388D01*
X54882470Y-19513630D01*
X54917023Y-19455981D01*
X54957061Y-19401997D01*
X55002197Y-19352197D01*
X55051997Y-19307061D01*
X55105981Y-19267023D01*
X55163630Y-19232470D01*
X55224388Y-19203733D01*
X55287670Y-19181091D01*
X55352867Y-19164760D01*
X55419350Y-19154898D01*
X55486480Y-19151600D01*
X56073520Y-19151600D01*
X56140650Y-19154898D01*
G37*
G36*
X41100650Y-52174898D02*
G01*
X41167133Y-52184760D01*
X41232330Y-52201091D01*
X41295612Y-52223733D01*
X41356370Y-52252470D01*
X41414019Y-52287023D01*
X41468003Y-52327061D01*
X41517803Y-52372197D01*
X41562939Y-52421997D01*
X41602977Y-52475981D01*
X41637530Y-52533630D01*
X41666267Y-52594388D01*
X41688909Y-52657670D01*
X41705240Y-52722867D01*
X41715102Y-52789350D01*
X41718400Y-52856480D01*
X41718400Y-53823520D01*
X41715102Y-53890650D01*
X41705240Y-53957133D01*
X41688909Y-54022330D01*
X41666267Y-54085612D01*
X41637530Y-54146370D01*
X41602977Y-54204019D01*
X41562939Y-54258003D01*
X41517803Y-54307803D01*
X41468003Y-54352939D01*
X41414019Y-54392977D01*
X41356370Y-54427530D01*
X41295612Y-54456267D01*
X41232330Y-54478909D01*
X41167133Y-54495240D01*
X41100650Y-54505102D01*
X41033520Y-54508400D01*
X40446480Y-54508400D01*
X40379350Y-54505102D01*
X40312867Y-54495240D01*
X40247670Y-54478909D01*
X40184388Y-54456267D01*
X40123630Y-54427530D01*
X40065981Y-54392977D01*
X40011997Y-54352939D01*
X39962197Y-54307803D01*
X39917061Y-54258003D01*
X39877023Y-54204019D01*
X39842470Y-54146370D01*
X39813733Y-54085612D01*
X39791091Y-54022330D01*
X39774760Y-53957133D01*
X39764898Y-53890650D01*
X39761600Y-53823520D01*
X39761600Y-52856480D01*
X39764898Y-52789350D01*
X39774760Y-52722867D01*
X39791091Y-52657670D01*
X39813733Y-52594388D01*
X39842470Y-52533630D01*
X39877023Y-52475981D01*
X39917061Y-52421997D01*
X39962197Y-52372197D01*
X40011997Y-52327061D01*
X40065981Y-52287023D01*
X40123630Y-52252470D01*
X40184388Y-52223733D01*
X40247670Y-52201091D01*
X40312867Y-52184760D01*
X40379350Y-52174898D01*
X40446480Y-52171600D01*
X41033520Y-52171600D01*
X41100650Y-52174898D01*
G37*
G36*
X56203789Y-21694561D02*
G01*
X56263477Y-21703415D01*
X56322010Y-21718077D01*
X56378824Y-21738405D01*
X56433372Y-21764204D01*
X56485129Y-21795226D01*
X56533596Y-21831171D01*
X56578306Y-21871694D01*
X56618829Y-21916404D01*
X56654774Y-21964871D01*
X56685796Y-22016628D01*
X56711595Y-22071176D01*
X56731923Y-22127990D01*
X56746585Y-22186523D01*
X56755439Y-22246211D01*
X56758400Y-22306480D01*
X56758400Y-23413520D01*
X56755439Y-23473789D01*
X56746585Y-23533477D01*
X56731923Y-23592010D01*
X56711595Y-23648824D01*
X56685796Y-23703372D01*
X56654774Y-23755129D01*
X56618829Y-23803596D01*
X56578306Y-23848306D01*
X56533596Y-23888829D01*
X56485129Y-23924774D01*
X56433372Y-23955796D01*
X56378824Y-23981595D01*
X56322010Y-24001923D01*
X56263477Y-24016585D01*
X56203789Y-24025439D01*
X56143520Y-24028400D01*
X55616480Y-24028400D01*
X55556211Y-24025439D01*
X55496523Y-24016585D01*
X55437990Y-24001923D01*
X55381176Y-23981595D01*
X55326628Y-23955796D01*
X55274871Y-23924774D01*
X55226404Y-23888829D01*
X55181694Y-23848306D01*
X55141171Y-23803596D01*
X55105226Y-23755129D01*
X55074204Y-23703372D01*
X55048405Y-23648824D01*
X55028077Y-23592010D01*
X55013415Y-23533477D01*
X55004561Y-23473789D01*
X55001600Y-23413520D01*
X55001600Y-22306480D01*
X55004561Y-22246211D01*
X55013415Y-22186523D01*
X55028077Y-22127990D01*
X55048405Y-22071176D01*
X55074204Y-22016628D01*
X55105226Y-21964871D01*
X55141171Y-21916404D01*
X55181694Y-21871694D01*
X55226404Y-21831171D01*
X55274871Y-21795226D01*
X55326628Y-21764204D01*
X55381176Y-21738405D01*
X55437990Y-21718077D01*
X55496523Y-21703415D01*
X55556211Y-21694561D01*
X55616480Y-21691600D01*
X56143520Y-21691600D01*
X56203789Y-21694561D01*
G37*
G36*
X40963789Y-49634561D02*
G01*
X41023477Y-49643415D01*
X41082010Y-49658077D01*
X41138824Y-49678405D01*
X41193372Y-49704204D01*
X41245129Y-49735226D01*
X41293596Y-49771171D01*
X41338306Y-49811694D01*
X41378829Y-49856404D01*
X41414774Y-49904871D01*
X41445796Y-49956628D01*
X41471595Y-50011176D01*
X41491923Y-50067990D01*
X41506585Y-50126523D01*
X41515439Y-50186211D01*
X41518400Y-50246480D01*
X41518400Y-51353520D01*
X41515439Y-51413789D01*
X41506585Y-51473477D01*
X41491923Y-51532010D01*
X41471595Y-51588824D01*
X41445796Y-51643372D01*
X41414774Y-51695129D01*
X41378829Y-51743596D01*
X41338306Y-51788306D01*
X41293596Y-51828829D01*
X41245129Y-51864774D01*
X41193372Y-51895796D01*
X41138824Y-51921595D01*
X41082010Y-51941923D01*
X41023477Y-51956585D01*
X40963789Y-51965439D01*
X40903520Y-51968400D01*
X40376480Y-51968400D01*
X40316211Y-51965439D01*
X40256523Y-51956585D01*
X40197990Y-51941923D01*
X40141176Y-51921595D01*
X40086628Y-51895796D01*
X40034871Y-51864774D01*
X39986404Y-51828829D01*
X39941694Y-51788306D01*
X39901171Y-51743596D01*
X39865226Y-51695129D01*
X39834204Y-51643372D01*
X39808405Y-51588824D01*
X39788077Y-51532010D01*
X39773415Y-51473477D01*
X39764561Y-51413789D01*
X39761600Y-51353520D01*
X39761600Y-50246480D01*
X39764561Y-50186211D01*
X39773415Y-50126523D01*
X39788077Y-50067990D01*
X39808405Y-50011176D01*
X39834204Y-49956628D01*
X39865226Y-49904871D01*
X39901171Y-49856404D01*
X39941694Y-49811694D01*
X39986404Y-49771171D01*
X40034871Y-49735226D01*
X40086628Y-49704204D01*
X40141176Y-49678405D01*
X40197990Y-49658077D01*
X40256523Y-49643415D01*
X40316211Y-49634561D01*
X40376480Y-49631600D01*
X40903520Y-49631600D01*
X40963789Y-49634561D01*
G37*
G36*
X56203789Y-24234561D02*
G01*
X56263477Y-24243415D01*
X56322010Y-24258077D01*
X56378824Y-24278405D01*
X56433372Y-24304204D01*
X56485129Y-24335226D01*
X56533596Y-24371171D01*
X56578306Y-24411694D01*
X56618829Y-24456404D01*
X56654774Y-24504871D01*
X56685796Y-24556628D01*
X56711595Y-24611176D01*
X56731923Y-24667990D01*
X56746585Y-24726523D01*
X56755439Y-24786211D01*
X56758400Y-24846480D01*
X56758400Y-25953520D01*
X56755439Y-26013789D01*
X56746585Y-26073477D01*
X56731923Y-26132010D01*
X56711595Y-26188824D01*
X56685796Y-26243372D01*
X56654774Y-26295129D01*
X56618829Y-26343596D01*
X56578306Y-26388306D01*
X56533596Y-26428829D01*
X56485129Y-26464774D01*
X56433372Y-26495796D01*
X56378824Y-26521595D01*
X56322010Y-26541923D01*
X56263477Y-26556585D01*
X56203789Y-26565439D01*
X56143520Y-26568400D01*
X55616480Y-26568400D01*
X55556211Y-26565439D01*
X55496523Y-26556585D01*
X55437990Y-26541923D01*
X55381176Y-26521595D01*
X55326628Y-26495796D01*
X55274871Y-26464774D01*
X55226404Y-26428829D01*
X55181694Y-26388306D01*
X55141171Y-26343596D01*
X55105226Y-26295129D01*
X55074204Y-26243372D01*
X55048405Y-26188824D01*
X55028077Y-26132010D01*
X55013415Y-26073477D01*
X55004561Y-26013789D01*
X55001600Y-25953520D01*
X55001600Y-24846480D01*
X55004561Y-24786211D01*
X55013415Y-24726523D01*
X55028077Y-24667990D01*
X55048405Y-24611176D01*
X55074204Y-24556628D01*
X55105226Y-24504871D01*
X55141171Y-24456404D01*
X55181694Y-24411694D01*
X55226404Y-24371171D01*
X55274871Y-24335226D01*
X55326628Y-24304204D01*
X55381176Y-24278405D01*
X55437990Y-24258077D01*
X55496523Y-24243415D01*
X55556211Y-24234561D01*
X55616480Y-24231600D01*
X56143520Y-24231600D01*
X56203789Y-24234561D01*
G37*
G36*
X40963789Y-47094561D02*
G01*
X41023477Y-47103415D01*
X41082010Y-47118077D01*
X41138824Y-47138405D01*
X41193372Y-47164204D01*
X41245129Y-47195226D01*
X41293596Y-47231171D01*
X41338306Y-47271694D01*
X41378829Y-47316404D01*
X41414774Y-47364871D01*
X41445796Y-47416628D01*
X41471595Y-47471176D01*
X41491923Y-47527990D01*
X41506585Y-47586523D01*
X41515439Y-47646211D01*
X41518400Y-47706480D01*
X41518400Y-48813520D01*
X41515439Y-48873789D01*
X41506585Y-48933477D01*
X41491923Y-48992010D01*
X41471595Y-49048824D01*
X41445796Y-49103372D01*
X41414774Y-49155129D01*
X41378829Y-49203596D01*
X41338306Y-49248306D01*
X41293596Y-49288829D01*
X41245129Y-49324774D01*
X41193372Y-49355796D01*
X41138824Y-49381595D01*
X41082010Y-49401923D01*
X41023477Y-49416585D01*
X40963789Y-49425439D01*
X40903520Y-49428400D01*
X40376480Y-49428400D01*
X40316211Y-49425439D01*
X40256523Y-49416585D01*
X40197990Y-49401923D01*
X40141176Y-49381595D01*
X40086628Y-49355796D01*
X40034871Y-49324774D01*
X39986404Y-49288829D01*
X39941694Y-49248306D01*
X39901171Y-49203596D01*
X39865226Y-49155129D01*
X39834204Y-49103372D01*
X39808405Y-49048824D01*
X39788077Y-48992010D01*
X39773415Y-48933477D01*
X39764561Y-48873789D01*
X39761600Y-48813520D01*
X39761600Y-47706480D01*
X39764561Y-47646211D01*
X39773415Y-47586523D01*
X39788077Y-47527990D01*
X39808405Y-47471176D01*
X39834204Y-47416628D01*
X39865226Y-47364871D01*
X39901171Y-47316404D01*
X39941694Y-47271694D01*
X39986404Y-47231171D01*
X40034871Y-47195226D01*
X40086628Y-47164204D01*
X40141176Y-47138405D01*
X40197990Y-47118077D01*
X40256523Y-47103415D01*
X40316211Y-47094561D01*
X40376480Y-47091600D01*
X40903520Y-47091600D01*
X40963789Y-47094561D01*
G37*
G36*
X56203789Y-26774561D02*
G01*
X56263477Y-26783415D01*
X56322010Y-26798077D01*
X56378824Y-26818405D01*
X56433372Y-26844204D01*
X56485129Y-26875226D01*
X56533596Y-26911171D01*
X56578306Y-26951694D01*
X56618829Y-26996404D01*
X56654774Y-27044871D01*
X56685796Y-27096628D01*
X56711595Y-27151176D01*
X56731923Y-27207990D01*
X56746585Y-27266523D01*
X56755439Y-27326211D01*
X56758400Y-27386480D01*
X56758400Y-28493520D01*
X56755439Y-28553789D01*
X56746585Y-28613477D01*
X56731923Y-28672010D01*
X56711595Y-28728824D01*
X56685796Y-28783372D01*
X56654774Y-28835129D01*
X56618829Y-28883596D01*
X56578306Y-28928306D01*
X56533596Y-28968829D01*
X56485129Y-29004774D01*
X56433372Y-29035796D01*
X56378824Y-29061595D01*
X56322010Y-29081923D01*
X56263477Y-29096585D01*
X56203789Y-29105439D01*
X56143520Y-29108400D01*
X55616480Y-29108400D01*
X55556211Y-29105439D01*
X55496523Y-29096585D01*
X55437990Y-29081923D01*
X55381176Y-29061595D01*
X55326628Y-29035796D01*
X55274871Y-29004774D01*
X55226404Y-28968829D01*
X55181694Y-28928306D01*
X55141171Y-28883596D01*
X55105226Y-28835129D01*
X55074204Y-28783372D01*
X55048405Y-28728824D01*
X55028077Y-28672010D01*
X55013415Y-28613477D01*
X55004561Y-28553789D01*
X55001600Y-28493520D01*
X55001600Y-27386480D01*
X55004561Y-27326211D01*
X55013415Y-27266523D01*
X55028077Y-27207990D01*
X55048405Y-27151176D01*
X55074204Y-27096628D01*
X55105226Y-27044871D01*
X55141171Y-26996404D01*
X55181694Y-26951694D01*
X55226404Y-26911171D01*
X55274871Y-26875226D01*
X55326628Y-26844204D01*
X55381176Y-26818405D01*
X55437990Y-26798077D01*
X55496523Y-26783415D01*
X55556211Y-26774561D01*
X55616480Y-26771600D01*
X56143520Y-26771600D01*
X56203789Y-26774561D01*
G37*
G36*
X40963789Y-44554561D02*
G01*
X41023477Y-44563415D01*
X41082010Y-44578077D01*
X41138824Y-44598405D01*
X41193372Y-44624204D01*
X41245129Y-44655226D01*
X41293596Y-44691171D01*
X41338306Y-44731694D01*
X41378829Y-44776404D01*
X41414774Y-44824871D01*
X41445796Y-44876628D01*
X41471595Y-44931176D01*
X41491923Y-44987990D01*
X41506585Y-45046523D01*
X41515439Y-45106211D01*
X41518400Y-45166480D01*
X41518400Y-46273520D01*
X41515439Y-46333789D01*
X41506585Y-46393477D01*
X41491923Y-46452010D01*
X41471595Y-46508824D01*
X41445796Y-46563372D01*
X41414774Y-46615129D01*
X41378829Y-46663596D01*
X41338306Y-46708306D01*
X41293596Y-46748829D01*
X41245129Y-46784774D01*
X41193372Y-46815796D01*
X41138824Y-46841595D01*
X41082010Y-46861923D01*
X41023477Y-46876585D01*
X40963789Y-46885439D01*
X40903520Y-46888400D01*
X40376480Y-46888400D01*
X40316211Y-46885439D01*
X40256523Y-46876585D01*
X40197990Y-46861923D01*
X40141176Y-46841595D01*
X40086628Y-46815796D01*
X40034871Y-46784774D01*
X39986404Y-46748829D01*
X39941694Y-46708306D01*
X39901171Y-46663596D01*
X39865226Y-46615129D01*
X39834204Y-46563372D01*
X39808405Y-46508824D01*
X39788077Y-46452010D01*
X39773415Y-46393477D01*
X39764561Y-46333789D01*
X39761600Y-46273520D01*
X39761600Y-45166480D01*
X39764561Y-45106211D01*
X39773415Y-45046523D01*
X39788077Y-44987990D01*
X39808405Y-44931176D01*
X39834204Y-44876628D01*
X39865226Y-44824871D01*
X39901171Y-44776404D01*
X39941694Y-44731694D01*
X39986404Y-44691171D01*
X40034871Y-44655226D01*
X40086628Y-44624204D01*
X40141176Y-44598405D01*
X40197990Y-44578077D01*
X40256523Y-44563415D01*
X40316211Y-44554561D01*
X40376480Y-44551600D01*
X40903520Y-44551600D01*
X40963789Y-44554561D01*
G37*
G36*
X56203789Y-29314561D02*
G01*
X56263477Y-29323415D01*
X56322010Y-29338077D01*
X56378824Y-29358405D01*
X56433372Y-29384204D01*
X56485129Y-29415226D01*
X56533596Y-29451171D01*
X56578306Y-29491694D01*
X56618829Y-29536404D01*
X56654774Y-29584871D01*
X56685796Y-29636628D01*
X56711595Y-29691176D01*
X56731923Y-29747990D01*
X56746585Y-29806523D01*
X56755439Y-29866211D01*
X56758400Y-29926480D01*
X56758400Y-31033520D01*
X56755439Y-31093789D01*
X56746585Y-31153477D01*
X56731923Y-31212010D01*
X56711595Y-31268824D01*
X56685796Y-31323372D01*
X56654774Y-31375129D01*
X56618829Y-31423596D01*
X56578306Y-31468306D01*
X56533596Y-31508829D01*
X56485129Y-31544774D01*
X56433372Y-31575796D01*
X56378824Y-31601595D01*
X56322010Y-31621923D01*
X56263477Y-31636585D01*
X56203789Y-31645439D01*
X56143520Y-31648400D01*
X55616480Y-31648400D01*
X55556211Y-31645439D01*
X55496523Y-31636585D01*
X55437990Y-31621923D01*
X55381176Y-31601595D01*
X55326628Y-31575796D01*
X55274871Y-31544774D01*
X55226404Y-31508829D01*
X55181694Y-31468306D01*
X55141171Y-31423596D01*
X55105226Y-31375129D01*
X55074204Y-31323372D01*
X55048405Y-31268824D01*
X55028077Y-31212010D01*
X55013415Y-31153477D01*
X55004561Y-31093789D01*
X55001600Y-31033520D01*
X55001600Y-29926480D01*
X55004561Y-29866211D01*
X55013415Y-29806523D01*
X55028077Y-29747990D01*
X55048405Y-29691176D01*
X55074204Y-29636628D01*
X55105226Y-29584871D01*
X55141171Y-29536404D01*
X55181694Y-29491694D01*
X55226404Y-29451171D01*
X55274871Y-29415226D01*
X55326628Y-29384204D01*
X55381176Y-29358405D01*
X55437990Y-29338077D01*
X55496523Y-29323415D01*
X55556211Y-29314561D01*
X55616480Y-29311600D01*
X56143520Y-29311600D01*
X56203789Y-29314561D01*
G37*
G36*
X40963789Y-42014561D02*
G01*
X41023477Y-42023415D01*
X41082010Y-42038077D01*
X41138824Y-42058405D01*
X41193372Y-42084204D01*
X41245129Y-42115226D01*
X41293596Y-42151171D01*
X41338306Y-42191694D01*
X41378829Y-42236404D01*
X41414774Y-42284871D01*
X41445796Y-42336628D01*
X41471595Y-42391176D01*
X41491923Y-42447990D01*
X41506585Y-42506523D01*
X41515439Y-42566211D01*
X41518400Y-42626480D01*
X41518400Y-43733520D01*
X41515439Y-43793789D01*
X41506585Y-43853477D01*
X41491923Y-43912010D01*
X41471595Y-43968824D01*
X41445796Y-44023372D01*
X41414774Y-44075129D01*
X41378829Y-44123596D01*
X41338306Y-44168306D01*
X41293596Y-44208829D01*
X41245129Y-44244774D01*
X41193372Y-44275796D01*
X41138824Y-44301595D01*
X41082010Y-44321923D01*
X41023477Y-44336585D01*
X40963789Y-44345439D01*
X40903520Y-44348400D01*
X40376480Y-44348400D01*
X40316211Y-44345439D01*
X40256523Y-44336585D01*
X40197990Y-44321923D01*
X40141176Y-44301595D01*
X40086628Y-44275796D01*
X40034871Y-44244774D01*
X39986404Y-44208829D01*
X39941694Y-44168306D01*
X39901171Y-44123596D01*
X39865226Y-44075129D01*
X39834204Y-44023372D01*
X39808405Y-43968824D01*
X39788077Y-43912010D01*
X39773415Y-43853477D01*
X39764561Y-43793789D01*
X39761600Y-43733520D01*
X39761600Y-42626480D01*
X39764561Y-42566211D01*
X39773415Y-42506523D01*
X39788077Y-42447990D01*
X39808405Y-42391176D01*
X39834204Y-42336628D01*
X39865226Y-42284871D01*
X39901171Y-42236404D01*
X39941694Y-42191694D01*
X39986404Y-42151171D01*
X40034871Y-42115226D01*
X40086628Y-42084204D01*
X40141176Y-42058405D01*
X40197990Y-42038077D01*
X40256523Y-42023415D01*
X40316211Y-42014561D01*
X40376480Y-42011600D01*
X40903520Y-42011600D01*
X40963789Y-42014561D01*
G37*
G36*
X56203789Y-31854561D02*
G01*
X56263477Y-31863415D01*
X56322010Y-31878077D01*
X56378824Y-31898405D01*
X56433372Y-31924204D01*
X56485129Y-31955226D01*
X56533596Y-31991171D01*
X56578306Y-32031694D01*
X56618829Y-32076404D01*
X56654774Y-32124871D01*
X56685796Y-32176628D01*
X56711595Y-32231176D01*
X56731923Y-32287990D01*
X56746585Y-32346523D01*
X56755439Y-32406211D01*
X56758400Y-32466480D01*
X56758400Y-33573520D01*
X56755439Y-33633789D01*
X56746585Y-33693477D01*
X56731923Y-33752010D01*
X56711595Y-33808824D01*
X56685796Y-33863372D01*
X56654774Y-33915129D01*
X56618829Y-33963596D01*
X56578306Y-34008306D01*
X56533596Y-34048829D01*
X56485129Y-34084774D01*
X56433372Y-34115796D01*
X56378824Y-34141595D01*
X56322010Y-34161923D01*
X56263477Y-34176585D01*
X56203789Y-34185439D01*
X56143520Y-34188400D01*
X55616480Y-34188400D01*
X55556211Y-34185439D01*
X55496523Y-34176585D01*
X55437990Y-34161923D01*
X55381176Y-34141595D01*
X55326628Y-34115796D01*
X55274871Y-34084774D01*
X55226404Y-34048829D01*
X55181694Y-34008306D01*
X55141171Y-33963596D01*
X55105226Y-33915129D01*
X55074204Y-33863372D01*
X55048405Y-33808824D01*
X55028077Y-33752010D01*
X55013415Y-33693477D01*
X55004561Y-33633789D01*
X55001600Y-33573520D01*
X55001600Y-32466480D01*
X55004561Y-32406211D01*
X55013415Y-32346523D01*
X55028077Y-32287990D01*
X55048405Y-32231176D01*
X55074204Y-32176628D01*
X55105226Y-32124871D01*
X55141171Y-32076404D01*
X55181694Y-32031694D01*
X55226404Y-31991171D01*
X55274871Y-31955226D01*
X55326628Y-31924204D01*
X55381176Y-31898405D01*
X55437990Y-31878077D01*
X55496523Y-31863415D01*
X55556211Y-31854561D01*
X55616480Y-31851600D01*
X56143520Y-31851600D01*
X56203789Y-31854561D01*
G37*
G36*
X40963789Y-39474561D02*
G01*
X41023477Y-39483415D01*
X41082010Y-39498077D01*
X41138824Y-39518405D01*
X41193372Y-39544204D01*
X41245129Y-39575226D01*
X41293596Y-39611171D01*
X41338306Y-39651694D01*
X41378829Y-39696404D01*
X41414774Y-39744871D01*
X41445796Y-39796628D01*
X41471595Y-39851176D01*
X41491923Y-39907990D01*
X41506585Y-39966523D01*
X41515439Y-40026211D01*
X41518400Y-40086480D01*
X41518400Y-41193520D01*
X41515439Y-41253789D01*
X41506585Y-41313477D01*
X41491923Y-41372010D01*
X41471595Y-41428824D01*
X41445796Y-41483372D01*
X41414774Y-41535129D01*
X41378829Y-41583596D01*
X41338306Y-41628306D01*
X41293596Y-41668829D01*
X41245129Y-41704774D01*
X41193372Y-41735796D01*
X41138824Y-41761595D01*
X41082010Y-41781923D01*
X41023477Y-41796585D01*
X40963789Y-41805439D01*
X40903520Y-41808400D01*
X40376480Y-41808400D01*
X40316211Y-41805439D01*
X40256523Y-41796585D01*
X40197990Y-41781923D01*
X40141176Y-41761595D01*
X40086628Y-41735796D01*
X40034871Y-41704774D01*
X39986404Y-41668829D01*
X39941694Y-41628306D01*
X39901171Y-41583596D01*
X39865226Y-41535129D01*
X39834204Y-41483372D01*
X39808405Y-41428824D01*
X39788077Y-41372010D01*
X39773415Y-41313477D01*
X39764561Y-41253789D01*
X39761600Y-41193520D01*
X39761600Y-40086480D01*
X39764561Y-40026211D01*
X39773415Y-39966523D01*
X39788077Y-39907990D01*
X39808405Y-39851176D01*
X39834204Y-39796628D01*
X39865226Y-39744871D01*
X39901171Y-39696404D01*
X39941694Y-39651694D01*
X39986404Y-39611171D01*
X40034871Y-39575226D01*
X40086628Y-39544204D01*
X40141176Y-39518405D01*
X40197990Y-39498077D01*
X40256523Y-39483415D01*
X40316211Y-39474561D01*
X40376480Y-39471600D01*
X40903520Y-39471600D01*
X40963789Y-39474561D01*
G37*
G36*
X56203789Y-34394561D02*
G01*
X56263477Y-34403415D01*
X56322010Y-34418077D01*
X56378824Y-34438405D01*
X56433372Y-34464204D01*
X56485129Y-34495226D01*
X56533596Y-34531171D01*
X56578306Y-34571694D01*
X56618829Y-34616404D01*
X56654774Y-34664871D01*
X56685796Y-34716628D01*
X56711595Y-34771176D01*
X56731923Y-34827990D01*
X56746585Y-34886523D01*
X56755439Y-34946211D01*
X56758400Y-35006480D01*
X56758400Y-36113520D01*
X56755439Y-36173789D01*
X56746585Y-36233477D01*
X56731923Y-36292010D01*
X56711595Y-36348824D01*
X56685796Y-36403372D01*
X56654774Y-36455129D01*
X56618829Y-36503596D01*
X56578306Y-36548306D01*
X56533596Y-36588829D01*
X56485129Y-36624774D01*
X56433372Y-36655796D01*
X56378824Y-36681595D01*
X56322010Y-36701923D01*
X56263477Y-36716585D01*
X56203789Y-36725439D01*
X56143520Y-36728400D01*
X55616480Y-36728400D01*
X55556211Y-36725439D01*
X55496523Y-36716585D01*
X55437990Y-36701923D01*
X55381176Y-36681595D01*
X55326628Y-36655796D01*
X55274871Y-36624774D01*
X55226404Y-36588829D01*
X55181694Y-36548306D01*
X55141171Y-36503596D01*
X55105226Y-36455129D01*
X55074204Y-36403372D01*
X55048405Y-36348824D01*
X55028077Y-36292010D01*
X55013415Y-36233477D01*
X55004561Y-36173789D01*
X55001600Y-36113520D01*
X55001600Y-35006480D01*
X55004561Y-34946211D01*
X55013415Y-34886523D01*
X55028077Y-34827990D01*
X55048405Y-34771176D01*
X55074204Y-34716628D01*
X55105226Y-34664871D01*
X55141171Y-34616404D01*
X55181694Y-34571694D01*
X55226404Y-34531171D01*
X55274871Y-34495226D01*
X55326628Y-34464204D01*
X55381176Y-34438405D01*
X55437990Y-34418077D01*
X55496523Y-34403415D01*
X55556211Y-34394561D01*
X55616480Y-34391600D01*
X56143520Y-34391600D01*
X56203789Y-34394561D01*
G37*
G36*
X40963789Y-36934561D02*
G01*
X41023477Y-36943415D01*
X41082010Y-36958077D01*
X41138824Y-36978405D01*
X41193372Y-37004204D01*
X41245129Y-37035226D01*
X41293596Y-37071171D01*
X41338306Y-37111694D01*
X41378829Y-37156404D01*
X41414774Y-37204871D01*
X41445796Y-37256628D01*
X41471595Y-37311176D01*
X41491923Y-37367990D01*
X41506585Y-37426523D01*
X41515439Y-37486211D01*
X41518400Y-37546480D01*
X41518400Y-38653520D01*
X41515439Y-38713789D01*
X41506585Y-38773477D01*
X41491923Y-38832010D01*
X41471595Y-38888824D01*
X41445796Y-38943372D01*
X41414774Y-38995129D01*
X41378829Y-39043596D01*
X41338306Y-39088306D01*
X41293596Y-39128829D01*
X41245129Y-39164774D01*
X41193372Y-39195796D01*
X41138824Y-39221595D01*
X41082010Y-39241923D01*
X41023477Y-39256585D01*
X40963789Y-39265439D01*
X40903520Y-39268400D01*
X40376480Y-39268400D01*
X40316211Y-39265439D01*
X40256523Y-39256585D01*
X40197990Y-39241923D01*
X40141176Y-39221595D01*
X40086628Y-39195796D01*
X40034871Y-39164774D01*
X39986404Y-39128829D01*
X39941694Y-39088306D01*
X39901171Y-39043596D01*
X39865226Y-38995129D01*
X39834204Y-38943372D01*
X39808405Y-38888824D01*
X39788077Y-38832010D01*
X39773415Y-38773477D01*
X39764561Y-38713789D01*
X39761600Y-38653520D01*
X39761600Y-37546480D01*
X39764561Y-37486211D01*
X39773415Y-37426523D01*
X39788077Y-37367990D01*
X39808405Y-37311176D01*
X39834204Y-37256628D01*
X39865226Y-37204871D01*
X39901171Y-37156404D01*
X39941694Y-37111694D01*
X39986404Y-37071171D01*
X40034871Y-37035226D01*
X40086628Y-37004204D01*
X40141176Y-36978405D01*
X40197990Y-36958077D01*
X40256523Y-36943415D01*
X40316211Y-36934561D01*
X40376480Y-36931600D01*
X40903520Y-36931600D01*
X40963789Y-36934561D01*
G37*
G36*
X56203789Y-36934561D02*
G01*
X56263477Y-36943415D01*
X56322010Y-36958077D01*
X56378824Y-36978405D01*
X56433372Y-37004204D01*
X56485129Y-37035226D01*
X56533596Y-37071171D01*
X56578306Y-37111694D01*
X56618829Y-37156404D01*
X56654774Y-37204871D01*
X56685796Y-37256628D01*
X56711595Y-37311176D01*
X56731923Y-37367990D01*
X56746585Y-37426523D01*
X56755439Y-37486211D01*
X56758400Y-37546480D01*
X56758400Y-38653520D01*
X56755439Y-38713789D01*
X56746585Y-38773477D01*
X56731923Y-38832010D01*
X56711595Y-38888824D01*
X56685796Y-38943372D01*
X56654774Y-38995129D01*
X56618829Y-39043596D01*
X56578306Y-39088306D01*
X56533596Y-39128829D01*
X56485129Y-39164774D01*
X56433372Y-39195796D01*
X56378824Y-39221595D01*
X56322010Y-39241923D01*
X56263477Y-39256585D01*
X56203789Y-39265439D01*
X56143520Y-39268400D01*
X55616480Y-39268400D01*
X55556211Y-39265439D01*
X55496523Y-39256585D01*
X55437990Y-39241923D01*
X55381176Y-39221595D01*
X55326628Y-39195796D01*
X55274871Y-39164774D01*
X55226404Y-39128829D01*
X55181694Y-39088306D01*
X55141171Y-39043596D01*
X55105226Y-38995129D01*
X55074204Y-38943372D01*
X55048405Y-38888824D01*
X55028077Y-38832010D01*
X55013415Y-38773477D01*
X55004561Y-38713789D01*
X55001600Y-38653520D01*
X55001600Y-37546480D01*
X55004561Y-37486211D01*
X55013415Y-37426523D01*
X55028077Y-37367990D01*
X55048405Y-37311176D01*
X55074204Y-37256628D01*
X55105226Y-37204871D01*
X55141171Y-37156404D01*
X55181694Y-37111694D01*
X55226404Y-37071171D01*
X55274871Y-37035226D01*
X55326628Y-37004204D01*
X55381176Y-36978405D01*
X55437990Y-36958077D01*
X55496523Y-36943415D01*
X55556211Y-36934561D01*
X55616480Y-36931600D01*
X56143520Y-36931600D01*
X56203789Y-36934561D01*
G37*
G36*
X40963789Y-34394561D02*
G01*
X41023477Y-34403415D01*
X41082010Y-34418077D01*
X41138824Y-34438405D01*
X41193372Y-34464204D01*
X41245129Y-34495226D01*
X41293596Y-34531171D01*
X41338306Y-34571694D01*
X41378829Y-34616404D01*
X41414774Y-34664871D01*
X41445796Y-34716628D01*
X41471595Y-34771176D01*
X41491923Y-34827990D01*
X41506585Y-34886523D01*
X41515439Y-34946211D01*
X41518400Y-35006480D01*
X41518400Y-36113520D01*
X41515439Y-36173789D01*
X41506585Y-36233477D01*
X41491923Y-36292010D01*
X41471595Y-36348824D01*
X41445796Y-36403372D01*
X41414774Y-36455129D01*
X41378829Y-36503596D01*
X41338306Y-36548306D01*
X41293596Y-36588829D01*
X41245129Y-36624774D01*
X41193372Y-36655796D01*
X41138824Y-36681595D01*
X41082010Y-36701923D01*
X41023477Y-36716585D01*
X40963789Y-36725439D01*
X40903520Y-36728400D01*
X40376480Y-36728400D01*
X40316211Y-36725439D01*
X40256523Y-36716585D01*
X40197990Y-36701923D01*
X40141176Y-36681595D01*
X40086628Y-36655796D01*
X40034871Y-36624774D01*
X39986404Y-36588829D01*
X39941694Y-36548306D01*
X39901171Y-36503596D01*
X39865226Y-36455129D01*
X39834204Y-36403372D01*
X39808405Y-36348824D01*
X39788077Y-36292010D01*
X39773415Y-36233477D01*
X39764561Y-36173789D01*
X39761600Y-36113520D01*
X39761600Y-35006480D01*
X39764561Y-34946211D01*
X39773415Y-34886523D01*
X39788077Y-34827990D01*
X39808405Y-34771176D01*
X39834204Y-34716628D01*
X39865226Y-34664871D01*
X39901171Y-34616404D01*
X39941694Y-34571694D01*
X39986404Y-34531171D01*
X40034871Y-34495226D01*
X40086628Y-34464204D01*
X40141176Y-34438405D01*
X40197990Y-34418077D01*
X40256523Y-34403415D01*
X40316211Y-34394561D01*
X40376480Y-34391600D01*
X40903520Y-34391600D01*
X40963789Y-34394561D01*
G37*
G36*
X56203789Y-39474561D02*
G01*
X56263477Y-39483415D01*
X56322010Y-39498077D01*
X56378824Y-39518405D01*
X56433372Y-39544204D01*
X56485129Y-39575226D01*
X56533596Y-39611171D01*
X56578306Y-39651694D01*
X56618829Y-39696404D01*
X56654774Y-39744871D01*
X56685796Y-39796628D01*
X56711595Y-39851176D01*
X56731923Y-39907990D01*
X56746585Y-39966523D01*
X56755439Y-40026211D01*
X56758400Y-40086480D01*
X56758400Y-41193520D01*
X56755439Y-41253789D01*
X56746585Y-41313477D01*
X56731923Y-41372010D01*
X56711595Y-41428824D01*
X56685796Y-41483372D01*
X56654774Y-41535129D01*
X56618829Y-41583596D01*
X56578306Y-41628306D01*
X56533596Y-41668829D01*
X56485129Y-41704774D01*
X56433372Y-41735796D01*
X56378824Y-41761595D01*
X56322010Y-41781923D01*
X56263477Y-41796585D01*
X56203789Y-41805439D01*
X56143520Y-41808400D01*
X55616480Y-41808400D01*
X55556211Y-41805439D01*
X55496523Y-41796585D01*
X55437990Y-41781923D01*
X55381176Y-41761595D01*
X55326628Y-41735796D01*
X55274871Y-41704774D01*
X55226404Y-41668829D01*
X55181694Y-41628306D01*
X55141171Y-41583596D01*
X55105226Y-41535129D01*
X55074204Y-41483372D01*
X55048405Y-41428824D01*
X55028077Y-41372010D01*
X55013415Y-41313477D01*
X55004561Y-41253789D01*
X55001600Y-41193520D01*
X55001600Y-40086480D01*
X55004561Y-40026211D01*
X55013415Y-39966523D01*
X55028077Y-39907990D01*
X55048405Y-39851176D01*
X55074204Y-39796628D01*
X55105226Y-39744871D01*
X55141171Y-39696404D01*
X55181694Y-39651694D01*
X55226404Y-39611171D01*
X55274871Y-39575226D01*
X55326628Y-39544204D01*
X55381176Y-39518405D01*
X55437990Y-39498077D01*
X55496523Y-39483415D01*
X55556211Y-39474561D01*
X55616480Y-39471600D01*
X56143520Y-39471600D01*
X56203789Y-39474561D01*
G37*
G36*
X40963789Y-31854561D02*
G01*
X41023477Y-31863415D01*
X41082010Y-31878077D01*
X41138824Y-31898405D01*
X41193372Y-31924204D01*
X41245129Y-31955226D01*
X41293596Y-31991171D01*
X41338306Y-32031694D01*
X41378829Y-32076404D01*
X41414774Y-32124871D01*
X41445796Y-32176628D01*
X41471595Y-32231176D01*
X41491923Y-32287990D01*
X41506585Y-32346523D01*
X41515439Y-32406211D01*
X41518400Y-32466480D01*
X41518400Y-33573520D01*
X41515439Y-33633789D01*
X41506585Y-33693477D01*
X41491923Y-33752010D01*
X41471595Y-33808824D01*
X41445796Y-33863372D01*
X41414774Y-33915129D01*
X41378829Y-33963596D01*
X41338306Y-34008306D01*
X41293596Y-34048829D01*
X41245129Y-34084774D01*
X41193372Y-34115796D01*
X41138824Y-34141595D01*
X41082010Y-34161923D01*
X41023477Y-34176585D01*
X40963789Y-34185439D01*
X40903520Y-34188400D01*
X40376480Y-34188400D01*
X40316211Y-34185439D01*
X40256523Y-34176585D01*
X40197990Y-34161923D01*
X40141176Y-34141595D01*
X40086628Y-34115796D01*
X40034871Y-34084774D01*
X39986404Y-34048829D01*
X39941694Y-34008306D01*
X39901171Y-33963596D01*
X39865226Y-33915129D01*
X39834204Y-33863372D01*
X39808405Y-33808824D01*
X39788077Y-33752010D01*
X39773415Y-33693477D01*
X39764561Y-33633789D01*
X39761600Y-33573520D01*
X39761600Y-32466480D01*
X39764561Y-32406211D01*
X39773415Y-32346523D01*
X39788077Y-32287990D01*
X39808405Y-32231176D01*
X39834204Y-32176628D01*
X39865226Y-32124871D01*
X39901171Y-32076404D01*
X39941694Y-32031694D01*
X39986404Y-31991171D01*
X40034871Y-31955226D01*
X40086628Y-31924204D01*
X40141176Y-31898405D01*
X40197990Y-31878077D01*
X40256523Y-31863415D01*
X40316211Y-31854561D01*
X40376480Y-31851600D01*
X40903520Y-31851600D01*
X40963789Y-31854561D01*
G37*
G36*
X56203789Y-42014561D02*
G01*
X56263477Y-42023415D01*
X56322010Y-42038077D01*
X56378824Y-42058405D01*
X56433372Y-42084204D01*
X56485129Y-42115226D01*
X56533596Y-42151171D01*
X56578306Y-42191694D01*
X56618829Y-42236404D01*
X56654774Y-42284871D01*
X56685796Y-42336628D01*
X56711595Y-42391176D01*
X56731923Y-42447990D01*
X56746585Y-42506523D01*
X56755439Y-42566211D01*
X56758400Y-42626480D01*
X56758400Y-43733520D01*
X56755439Y-43793789D01*
X56746585Y-43853477D01*
X56731923Y-43912010D01*
X56711595Y-43968824D01*
X56685796Y-44023372D01*
X56654774Y-44075129D01*
X56618829Y-44123596D01*
X56578306Y-44168306D01*
X56533596Y-44208829D01*
X56485129Y-44244774D01*
X56433372Y-44275796D01*
X56378824Y-44301595D01*
X56322010Y-44321923D01*
X56263477Y-44336585D01*
X56203789Y-44345439D01*
X56143520Y-44348400D01*
X55616480Y-44348400D01*
X55556211Y-44345439D01*
X55496523Y-44336585D01*
X55437990Y-44321923D01*
X55381176Y-44301595D01*
X55326628Y-44275796D01*
X55274871Y-44244774D01*
X55226404Y-44208829D01*
X55181694Y-44168306D01*
X55141171Y-44123596D01*
X55105226Y-44075129D01*
X55074204Y-44023372D01*
X55048405Y-43968824D01*
X55028077Y-43912010D01*
X55013415Y-43853477D01*
X55004561Y-43793789D01*
X55001600Y-43733520D01*
X55001600Y-42626480D01*
X55004561Y-42566211D01*
X55013415Y-42506523D01*
X55028077Y-42447990D01*
X55048405Y-42391176D01*
X55074204Y-42336628D01*
X55105226Y-42284871D01*
X55141171Y-42236404D01*
X55181694Y-42191694D01*
X55226404Y-42151171D01*
X55274871Y-42115226D01*
X55326628Y-42084204D01*
X55381176Y-42058405D01*
X55437990Y-42038077D01*
X55496523Y-42023415D01*
X55556211Y-42014561D01*
X55616480Y-42011600D01*
X56143520Y-42011600D01*
X56203789Y-42014561D01*
G37*
G36*
X40963789Y-29314561D02*
G01*
X41023477Y-29323415D01*
X41082010Y-29338077D01*
X41138824Y-29358405D01*
X41193372Y-29384204D01*
X41245129Y-29415226D01*
X41293596Y-29451171D01*
X41338306Y-29491694D01*
X41378829Y-29536404D01*
X41414774Y-29584871D01*
X41445796Y-29636628D01*
X41471595Y-29691176D01*
X41491923Y-29747990D01*
X41506585Y-29806523D01*
X41515439Y-29866211D01*
X41518400Y-29926480D01*
X41518400Y-31033520D01*
X41515439Y-31093789D01*
X41506585Y-31153477D01*
X41491923Y-31212010D01*
X41471595Y-31268824D01*
X41445796Y-31323372D01*
X41414774Y-31375129D01*
X41378829Y-31423596D01*
X41338306Y-31468306D01*
X41293596Y-31508829D01*
X41245129Y-31544774D01*
X41193372Y-31575796D01*
X41138824Y-31601595D01*
X41082010Y-31621923D01*
X41023477Y-31636585D01*
X40963789Y-31645439D01*
X40903520Y-31648400D01*
X40376480Y-31648400D01*
X40316211Y-31645439D01*
X40256523Y-31636585D01*
X40197990Y-31621923D01*
X40141176Y-31601595D01*
X40086628Y-31575796D01*
X40034871Y-31544774D01*
X39986404Y-31508829D01*
X39941694Y-31468306D01*
X39901171Y-31423596D01*
X39865226Y-31375129D01*
X39834204Y-31323372D01*
X39808405Y-31268824D01*
X39788077Y-31212010D01*
X39773415Y-31153477D01*
X39764561Y-31093789D01*
X39761600Y-31033520D01*
X39761600Y-29926480D01*
X39764561Y-29866211D01*
X39773415Y-29806523D01*
X39788077Y-29747990D01*
X39808405Y-29691176D01*
X39834204Y-29636628D01*
X39865226Y-29584871D01*
X39901171Y-29536404D01*
X39941694Y-29491694D01*
X39986404Y-29451171D01*
X40034871Y-29415226D01*
X40086628Y-29384204D01*
X40141176Y-29358405D01*
X40197990Y-29338077D01*
X40256523Y-29323415D01*
X40316211Y-29314561D01*
X40376480Y-29311600D01*
X40903520Y-29311600D01*
X40963789Y-29314561D01*
G37*
G36*
X56203789Y-44554561D02*
G01*
X56263477Y-44563415D01*
X56322010Y-44578077D01*
X56378824Y-44598405D01*
X56433372Y-44624204D01*
X56485129Y-44655226D01*
X56533596Y-44691171D01*
X56578306Y-44731694D01*
X56618829Y-44776404D01*
X56654774Y-44824871D01*
X56685796Y-44876628D01*
X56711595Y-44931176D01*
X56731923Y-44987990D01*
X56746585Y-45046523D01*
X56755439Y-45106211D01*
X56758400Y-45166480D01*
X56758400Y-46273520D01*
X56755439Y-46333789D01*
X56746585Y-46393477D01*
X56731923Y-46452010D01*
X56711595Y-46508824D01*
X56685796Y-46563372D01*
X56654774Y-46615129D01*
X56618829Y-46663596D01*
X56578306Y-46708306D01*
X56533596Y-46748829D01*
X56485129Y-46784774D01*
X56433372Y-46815796D01*
X56378824Y-46841595D01*
X56322010Y-46861923D01*
X56263477Y-46876585D01*
X56203789Y-46885439D01*
X56143520Y-46888400D01*
X55616480Y-46888400D01*
X55556211Y-46885439D01*
X55496523Y-46876585D01*
X55437990Y-46861923D01*
X55381176Y-46841595D01*
X55326628Y-46815796D01*
X55274871Y-46784774D01*
X55226404Y-46748829D01*
X55181694Y-46708306D01*
X55141171Y-46663596D01*
X55105226Y-46615129D01*
X55074204Y-46563372D01*
X55048405Y-46508824D01*
X55028077Y-46452010D01*
X55013415Y-46393477D01*
X55004561Y-46333789D01*
X55001600Y-46273520D01*
X55001600Y-45166480D01*
X55004561Y-45106211D01*
X55013415Y-45046523D01*
X55028077Y-44987990D01*
X55048405Y-44931176D01*
X55074204Y-44876628D01*
X55105226Y-44824871D01*
X55141171Y-44776404D01*
X55181694Y-44731694D01*
X55226404Y-44691171D01*
X55274871Y-44655226D01*
X55326628Y-44624204D01*
X55381176Y-44598405D01*
X55437990Y-44578077D01*
X55496523Y-44563415D01*
X55556211Y-44554561D01*
X55616480Y-44551600D01*
X56143520Y-44551600D01*
X56203789Y-44554561D01*
G37*
G36*
X40963789Y-26774561D02*
G01*
X41023477Y-26783415D01*
X41082010Y-26798077D01*
X41138824Y-26818405D01*
X41193372Y-26844204D01*
X41245129Y-26875226D01*
X41293596Y-26911171D01*
X41338306Y-26951694D01*
X41378829Y-26996404D01*
X41414774Y-27044871D01*
X41445796Y-27096628D01*
X41471595Y-27151176D01*
X41491923Y-27207990D01*
X41506585Y-27266523D01*
X41515439Y-27326211D01*
X41518400Y-27386480D01*
X41518400Y-28493520D01*
X41515439Y-28553789D01*
X41506585Y-28613477D01*
X41491923Y-28672010D01*
X41471595Y-28728824D01*
X41445796Y-28783372D01*
X41414774Y-28835129D01*
X41378829Y-28883596D01*
X41338306Y-28928306D01*
X41293596Y-28968829D01*
X41245129Y-29004774D01*
X41193372Y-29035796D01*
X41138824Y-29061595D01*
X41082010Y-29081923D01*
X41023477Y-29096585D01*
X40963789Y-29105439D01*
X40903520Y-29108400D01*
X40376480Y-29108400D01*
X40316211Y-29105439D01*
X40256523Y-29096585D01*
X40197990Y-29081923D01*
X40141176Y-29061595D01*
X40086628Y-29035796D01*
X40034871Y-29004774D01*
X39986404Y-28968829D01*
X39941694Y-28928306D01*
X39901171Y-28883596D01*
X39865226Y-28835129D01*
X39834204Y-28783372D01*
X39808405Y-28728824D01*
X39788077Y-28672010D01*
X39773415Y-28613477D01*
X39764561Y-28553789D01*
X39761600Y-28493520D01*
X39761600Y-27386480D01*
X39764561Y-27326211D01*
X39773415Y-27266523D01*
X39788077Y-27207990D01*
X39808405Y-27151176D01*
X39834204Y-27096628D01*
X39865226Y-27044871D01*
X39901171Y-26996404D01*
X39941694Y-26951694D01*
X39986404Y-26911171D01*
X40034871Y-26875226D01*
X40086628Y-26844204D01*
X40141176Y-26818405D01*
X40197990Y-26798077D01*
X40256523Y-26783415D01*
X40316211Y-26774561D01*
X40376480Y-26771600D01*
X40903520Y-26771600D01*
X40963789Y-26774561D01*
G37*
G36*
X56203789Y-47094561D02*
G01*
X56263477Y-47103415D01*
X56322010Y-47118077D01*
X56378824Y-47138405D01*
X56433372Y-47164204D01*
X56485129Y-47195226D01*
X56533596Y-47231171D01*
X56578306Y-47271694D01*
X56618829Y-47316404D01*
X56654774Y-47364871D01*
X56685796Y-47416628D01*
X56711595Y-47471176D01*
X56731923Y-47527990D01*
X56746585Y-47586523D01*
X56755439Y-47646211D01*
X56758400Y-47706480D01*
X56758400Y-48813520D01*
X56755439Y-48873789D01*
X56746585Y-48933477D01*
X56731923Y-48992010D01*
X56711595Y-49048824D01*
X56685796Y-49103372D01*
X56654774Y-49155129D01*
X56618829Y-49203596D01*
X56578306Y-49248306D01*
X56533596Y-49288829D01*
X56485129Y-49324774D01*
X56433372Y-49355796D01*
X56378824Y-49381595D01*
X56322010Y-49401923D01*
X56263477Y-49416585D01*
X56203789Y-49425439D01*
X56143520Y-49428400D01*
X55616480Y-49428400D01*
X55556211Y-49425439D01*
X55496523Y-49416585D01*
X55437990Y-49401923D01*
X55381176Y-49381595D01*
X55326628Y-49355796D01*
X55274871Y-49324774D01*
X55226404Y-49288829D01*
X55181694Y-49248306D01*
X55141171Y-49203596D01*
X55105226Y-49155129D01*
X55074204Y-49103372D01*
X55048405Y-49048824D01*
X55028077Y-48992010D01*
X55013415Y-48933477D01*
X55004561Y-48873789D01*
X55001600Y-48813520D01*
X55001600Y-47706480D01*
X55004561Y-47646211D01*
X55013415Y-47586523D01*
X55028077Y-47527990D01*
X55048405Y-47471176D01*
X55074204Y-47416628D01*
X55105226Y-47364871D01*
X55141171Y-47316404D01*
X55181694Y-47271694D01*
X55226404Y-47231171D01*
X55274871Y-47195226D01*
X55326628Y-47164204D01*
X55381176Y-47138405D01*
X55437990Y-47118077D01*
X55496523Y-47103415D01*
X55556211Y-47094561D01*
X55616480Y-47091600D01*
X56143520Y-47091600D01*
X56203789Y-47094561D01*
G37*
G36*
X40963789Y-24234561D02*
G01*
X41023477Y-24243415D01*
X41082010Y-24258077D01*
X41138824Y-24278405D01*
X41193372Y-24304204D01*
X41245129Y-24335226D01*
X41293596Y-24371171D01*
X41338306Y-24411694D01*
X41378829Y-24456404D01*
X41414774Y-24504871D01*
X41445796Y-24556628D01*
X41471595Y-24611176D01*
X41491923Y-24667990D01*
X41506585Y-24726523D01*
X41515439Y-24786211D01*
X41518400Y-24846480D01*
X41518400Y-25953520D01*
X41515439Y-26013789D01*
X41506585Y-26073477D01*
X41491923Y-26132010D01*
X41471595Y-26188824D01*
X41445796Y-26243372D01*
X41414774Y-26295129D01*
X41378829Y-26343596D01*
X41338306Y-26388306D01*
X41293596Y-26428829D01*
X41245129Y-26464774D01*
X41193372Y-26495796D01*
X41138824Y-26521595D01*
X41082010Y-26541923D01*
X41023477Y-26556585D01*
X40963789Y-26565439D01*
X40903520Y-26568400D01*
X40376480Y-26568400D01*
X40316211Y-26565439D01*
X40256523Y-26556585D01*
X40197990Y-26541923D01*
X40141176Y-26521595D01*
X40086628Y-26495796D01*
X40034871Y-26464774D01*
X39986404Y-26428829D01*
X39941694Y-26388306D01*
X39901171Y-26343596D01*
X39865226Y-26295129D01*
X39834204Y-26243372D01*
X39808405Y-26188824D01*
X39788077Y-26132010D01*
X39773415Y-26073477D01*
X39764561Y-26013789D01*
X39761600Y-25953520D01*
X39761600Y-24846480D01*
X39764561Y-24786211D01*
X39773415Y-24726523D01*
X39788077Y-24667990D01*
X39808405Y-24611176D01*
X39834204Y-24556628D01*
X39865226Y-24504871D01*
X39901171Y-24456404D01*
X39941694Y-24411694D01*
X39986404Y-24371171D01*
X40034871Y-24335226D01*
X40086628Y-24304204D01*
X40141176Y-24278405D01*
X40197990Y-24258077D01*
X40256523Y-24243415D01*
X40316211Y-24234561D01*
X40376480Y-24231600D01*
X40903520Y-24231600D01*
X40963789Y-24234561D01*
G37*
G36*
X56203789Y-49634561D02*
G01*
X56263477Y-49643415D01*
X56322010Y-49658077D01*
X56378824Y-49678405D01*
X56433372Y-49704204D01*
X56485129Y-49735226D01*
X56533596Y-49771171D01*
X56578306Y-49811694D01*
X56618829Y-49856404D01*
X56654774Y-49904871D01*
X56685796Y-49956628D01*
X56711595Y-50011176D01*
X56731923Y-50067990D01*
X56746585Y-50126523D01*
X56755439Y-50186211D01*
X56758400Y-50246480D01*
X56758400Y-51353520D01*
X56755439Y-51413789D01*
X56746585Y-51473477D01*
X56731923Y-51532010D01*
X56711595Y-51588824D01*
X56685796Y-51643372D01*
X56654774Y-51695129D01*
X56618829Y-51743596D01*
X56578306Y-51788306D01*
X56533596Y-51828829D01*
X56485129Y-51864774D01*
X56433372Y-51895796D01*
X56378824Y-51921595D01*
X56322010Y-51941923D01*
X56263477Y-51956585D01*
X56203789Y-51965439D01*
X56143520Y-51968400D01*
X55616480Y-51968400D01*
X55556211Y-51965439D01*
X55496523Y-51956585D01*
X55437990Y-51941923D01*
X55381176Y-51921595D01*
X55326628Y-51895796D01*
X55274871Y-51864774D01*
X55226404Y-51828829D01*
X55181694Y-51788306D01*
X55141171Y-51743596D01*
X55105226Y-51695129D01*
X55074204Y-51643372D01*
X55048405Y-51588824D01*
X55028077Y-51532010D01*
X55013415Y-51473477D01*
X55004561Y-51413789D01*
X55001600Y-51353520D01*
X55001600Y-50246480D01*
X55004561Y-50186211D01*
X55013415Y-50126523D01*
X55028077Y-50067990D01*
X55048405Y-50011176D01*
X55074204Y-49956628D01*
X55105226Y-49904871D01*
X55141171Y-49856404D01*
X55181694Y-49811694D01*
X55226404Y-49771171D01*
X55274871Y-49735226D01*
X55326628Y-49704204D01*
X55381176Y-49678405D01*
X55437990Y-49658077D01*
X55496523Y-49643415D01*
X55556211Y-49634561D01*
X55616480Y-49631600D01*
X56143520Y-49631600D01*
X56203789Y-49634561D01*
G37*
G36*
X40963789Y-21694561D02*
G01*
X41023477Y-21703415D01*
X41082010Y-21718077D01*
X41138824Y-21738405D01*
X41193372Y-21764204D01*
X41245129Y-21795226D01*
X41293596Y-21831171D01*
X41338306Y-21871694D01*
X41378829Y-21916404D01*
X41414774Y-21964871D01*
X41445796Y-22016628D01*
X41471595Y-22071176D01*
X41491923Y-22127990D01*
X41506585Y-22186523D01*
X41515439Y-22246211D01*
X41518400Y-22306480D01*
X41518400Y-23413520D01*
X41515439Y-23473789D01*
X41506585Y-23533477D01*
X41491923Y-23592010D01*
X41471595Y-23648824D01*
X41445796Y-23703372D01*
X41414774Y-23755129D01*
X41378829Y-23803596D01*
X41338306Y-23848306D01*
X41293596Y-23888829D01*
X41245129Y-23924774D01*
X41193372Y-23955796D01*
X41138824Y-23981595D01*
X41082010Y-24001923D01*
X41023477Y-24016585D01*
X40963789Y-24025439D01*
X40903520Y-24028400D01*
X40376480Y-24028400D01*
X40316211Y-24025439D01*
X40256523Y-24016585D01*
X40197990Y-24001923D01*
X40141176Y-23981595D01*
X40086628Y-23955796D01*
X40034871Y-23924774D01*
X39986404Y-23888829D01*
X39941694Y-23848306D01*
X39901171Y-23803596D01*
X39865226Y-23755129D01*
X39834204Y-23703372D01*
X39808405Y-23648824D01*
X39788077Y-23592010D01*
X39773415Y-23533477D01*
X39764561Y-23473789D01*
X39761600Y-23413520D01*
X39761600Y-22306480D01*
X39764561Y-22246211D01*
X39773415Y-22186523D01*
X39788077Y-22127990D01*
X39808405Y-22071176D01*
X39834204Y-22016628D01*
X39865226Y-21964871D01*
X39901171Y-21916404D01*
X39941694Y-21871694D01*
X39986404Y-21831171D01*
X40034871Y-21795226D01*
X40086628Y-21764204D01*
X40141176Y-21738405D01*
X40197990Y-21718077D01*
X40256523Y-21703415D01*
X40316211Y-21694561D01*
X40376480Y-21691600D01*
X40903520Y-21691600D01*
X40963789Y-21694561D01*
G37*
G36*
X56140650Y-52174898D02*
G01*
X56207133Y-52184760D01*
X56272330Y-52201091D01*
X56335612Y-52223733D01*
X56396370Y-52252470D01*
X56454019Y-52287023D01*
X56508003Y-52327061D01*
X56557803Y-52372197D01*
X56602939Y-52421997D01*
X56642977Y-52475981D01*
X56677530Y-52533630D01*
X56706267Y-52594388D01*
X56728909Y-52657670D01*
X56745240Y-52722867D01*
X56755102Y-52789350D01*
X56758400Y-52856480D01*
X56758400Y-53823520D01*
X56755102Y-53890650D01*
X56745240Y-53957133D01*
X56728909Y-54022330D01*
X56706267Y-54085612D01*
X56677530Y-54146370D01*
X56642977Y-54204019D01*
X56602939Y-54258003D01*
X56557803Y-54307803D01*
X56508003Y-54352939D01*
X56454019Y-54392977D01*
X56396370Y-54427530D01*
X56335612Y-54456267D01*
X56272330Y-54478909D01*
X56207133Y-54495240D01*
X56140650Y-54505102D01*
X56073520Y-54508400D01*
X55486480Y-54508400D01*
X55419350Y-54505102D01*
X55352867Y-54495240D01*
X55287670Y-54478909D01*
X55224388Y-54456267D01*
X55163630Y-54427530D01*
X55105981Y-54392977D01*
X55051997Y-54352939D01*
X55002197Y-54307803D01*
X54957061Y-54258003D01*
X54917023Y-54204019D01*
X54882470Y-54146370D01*
X54853733Y-54085612D01*
X54831091Y-54022330D01*
X54814760Y-53957133D01*
X54804898Y-53890650D01*
X54801600Y-53823520D01*
X54801600Y-52856480D01*
X54804898Y-52789350D01*
X54814760Y-52722867D01*
X54831091Y-52657670D01*
X54853733Y-52594388D01*
X54882470Y-52533630D01*
X54917023Y-52475981D01*
X54957061Y-52421997D01*
X55002197Y-52372197D01*
X55051997Y-52327061D01*
X55105981Y-52287023D01*
X55163630Y-52252470D01*
X55224388Y-52223733D01*
X55287670Y-52201091D01*
X55352867Y-52184760D01*
X55419350Y-52174898D01*
X55486480Y-52171600D01*
X56073520Y-52171600D01*
X56140650Y-52174898D01*
G37*
G36*
X41100650Y-19154898D02*
G01*
X41167133Y-19164760D01*
X41232330Y-19181091D01*
X41295612Y-19203733D01*
X41356370Y-19232470D01*
X41414019Y-19267023D01*
X41468003Y-19307061D01*
X41517803Y-19352197D01*
X41562939Y-19401997D01*
X41602977Y-19455981D01*
X41637530Y-19513630D01*
X41666267Y-19574388D01*
X41688909Y-19637670D01*
X41705240Y-19702867D01*
X41715102Y-19769350D01*
X41718400Y-19836480D01*
X41718400Y-20803520D01*
X41715102Y-20870650D01*
X41705240Y-20937133D01*
X41688909Y-21002330D01*
X41666267Y-21065612D01*
X41637530Y-21126370D01*
X41602977Y-21184019D01*
X41562939Y-21238003D01*
X41517803Y-21287803D01*
X41468003Y-21332939D01*
X41414019Y-21372977D01*
X41356370Y-21407530D01*
X41295612Y-21436267D01*
X41232330Y-21458909D01*
X41167133Y-21475240D01*
X41100650Y-21485102D01*
X41033520Y-21488400D01*
X40446480Y-21488400D01*
X40379350Y-21485102D01*
X40312867Y-21475240D01*
X40247670Y-21458909D01*
X40184388Y-21436267D01*
X40123630Y-21407530D01*
X40065981Y-21372977D01*
X40011997Y-21332939D01*
X39962197Y-21287803D01*
X39917061Y-21238003D01*
X39877023Y-21184019D01*
X39842470Y-21126370D01*
X39813733Y-21065612D01*
X39791091Y-21002330D01*
X39774760Y-20937133D01*
X39764898Y-20870650D01*
X39761600Y-20803520D01*
X39761600Y-19836480D01*
X39764898Y-19769350D01*
X39774760Y-19702867D01*
X39791091Y-19637670D01*
X39813733Y-19574388D01*
X39842470Y-19513630D01*
X39877023Y-19455981D01*
X39917061Y-19401997D01*
X39962197Y-19352197D01*
X40011997Y-19307061D01*
X40065981Y-19267023D01*
X40123630Y-19232470D01*
X40184388Y-19203733D01*
X40247670Y-19181091D01*
X40312867Y-19164760D01*
X40379350Y-19154898D01*
X40446480Y-19151600D01*
X41033520Y-19151600D01*
X41100650Y-19154898D01*
G37*
M02*
