G04 #@! TF.GenerationSoftware,KiCad,Pcbnew,(5.1.5-0-10_14)*
G04 #@! TF.CreationDate,2021-04-02T23:38:05-04:00*
G04 #@! TF.ProjectId,GW28R8128,47573238-5238-4313-9238-2e6b69636164,rev?*
G04 #@! TF.SameCoordinates,Original*
G04 #@! TF.FileFunction,Legend,Top*
G04 #@! TF.FilePolarity,Positive*
%FSLAX46Y46*%
G04 Gerber Fmt 4.6, Leading zero omitted, Abs format (unit mm)*
G04 Created by KiCad (PCBNEW (5.1.5-0-10_14)) date 2021-04-02 23:38:05*
%MOMM*%
%LPD*%
G04 APERTURE LIST*
%ADD10C,0.200000*%
%ADD11C,1.280000*%
%ADD12C,0.152400*%
%ADD13C,0.127000*%
%ADD14C,0.203200*%
%ADD15C,0.100000*%
%ADD16C,2.000000*%
%ADD17R,1.852400X1.052400*%
G04 APERTURE END LIST*
D10*
X46990000Y-20066000D02*
X49530000Y-20066000D01*
X46990000Y-19177000D02*
X46990000Y-20066000D01*
X49530000Y-20066000D02*
X49530000Y-19177000D01*
D11*
X44196000Y-22860000D02*
G75*
G03X44196000Y-22860000I-381000J0D01*
G01*
D12*
X47396400Y-48095000D02*
X46583600Y-48095000D01*
X47396400Y-49695000D02*
X46583600Y-49695000D01*
X49086400Y-25870000D02*
X48273600Y-25870000D01*
X49086400Y-27470000D02*
X48273600Y-27470000D01*
X51270000Y-25628600D02*
X51270000Y-26441400D01*
X52870000Y-25628600D02*
X52870000Y-26441400D01*
X42435000Y-30907218D02*
X42435000Y-31190000D01*
X43607218Y-29735000D02*
X42435000Y-30907218D01*
X43890000Y-29735000D02*
X43607218Y-29735000D01*
X54085000Y-43925000D02*
X54085000Y-42470000D01*
X52630000Y-43925000D02*
X54085000Y-43925000D01*
X42435000Y-43925000D02*
X42435000Y-42470000D01*
X43890000Y-43925000D02*
X42435000Y-43925000D01*
X54085000Y-29735000D02*
X54085000Y-31190000D01*
X52630000Y-29735000D02*
X54085000Y-29735000D01*
D13*
X50134000Y-52543000D02*
X49434000Y-52543000D01*
X49434000Y-51343000D02*
X50134000Y-51343000D01*
X46386000Y-51343000D02*
X47086000Y-51343000D01*
X47086000Y-52543000D02*
X46386000Y-52543000D01*
D14*
X47640723Y-36384895D02*
X47640723Y-37042876D01*
X47679428Y-37120285D01*
X47718133Y-37158990D01*
X47795542Y-37197695D01*
X47950361Y-37197695D01*
X48027771Y-37158990D01*
X48066476Y-37120285D01*
X48105180Y-37042876D01*
X48105180Y-36384895D01*
X48917980Y-37197695D02*
X48453523Y-37197695D01*
X48685752Y-37197695D02*
X48685752Y-36384895D01*
X48608342Y-36501009D01*
X48530933Y-36578419D01*
X48453523Y-36617123D01*
%LPC*%
D15*
G36*
X46300779Y-48146144D02*
G01*
X46323834Y-48149563D01*
X46346443Y-48155227D01*
X46368387Y-48163079D01*
X46389457Y-48173044D01*
X46409448Y-48185026D01*
X46428168Y-48198910D01*
X46445438Y-48214562D01*
X46461090Y-48231832D01*
X46474974Y-48250552D01*
X46486956Y-48270543D01*
X46496921Y-48291613D01*
X46504773Y-48313557D01*
X46510437Y-48336166D01*
X46513856Y-48359221D01*
X46515000Y-48382500D01*
X46515000Y-49407500D01*
X46513856Y-49430779D01*
X46510437Y-49453834D01*
X46504773Y-49476443D01*
X46496921Y-49498387D01*
X46486956Y-49519457D01*
X46474974Y-49539448D01*
X46461090Y-49558168D01*
X46445438Y-49575438D01*
X46428168Y-49591090D01*
X46409448Y-49604974D01*
X46389457Y-49616956D01*
X46368387Y-49626921D01*
X46346443Y-49634773D01*
X46323834Y-49640437D01*
X46300779Y-49643856D01*
X46277500Y-49645000D01*
X45802500Y-49645000D01*
X45779221Y-49643856D01*
X45756166Y-49640437D01*
X45733557Y-49634773D01*
X45711613Y-49626921D01*
X45690543Y-49616956D01*
X45670552Y-49604974D01*
X45651832Y-49591090D01*
X45634562Y-49575438D01*
X45618910Y-49558168D01*
X45605026Y-49539448D01*
X45593044Y-49519457D01*
X45583079Y-49498387D01*
X45575227Y-49476443D01*
X45569563Y-49453834D01*
X45566144Y-49430779D01*
X45565000Y-49407500D01*
X45565000Y-48382500D01*
X45566144Y-48359221D01*
X45569563Y-48336166D01*
X45575227Y-48313557D01*
X45583079Y-48291613D01*
X45593044Y-48270543D01*
X45605026Y-48250552D01*
X45618910Y-48231832D01*
X45634562Y-48214562D01*
X45651832Y-48198910D01*
X45670552Y-48185026D01*
X45690543Y-48173044D01*
X45711613Y-48163079D01*
X45733557Y-48155227D01*
X45756166Y-48149563D01*
X45779221Y-48146144D01*
X45802500Y-48145000D01*
X46277500Y-48145000D01*
X46300779Y-48146144D01*
G37*
G36*
X48200779Y-48146144D02*
G01*
X48223834Y-48149563D01*
X48246443Y-48155227D01*
X48268387Y-48163079D01*
X48289457Y-48173044D01*
X48309448Y-48185026D01*
X48328168Y-48198910D01*
X48345438Y-48214562D01*
X48361090Y-48231832D01*
X48374974Y-48250552D01*
X48386956Y-48270543D01*
X48396921Y-48291613D01*
X48404773Y-48313557D01*
X48410437Y-48336166D01*
X48413856Y-48359221D01*
X48415000Y-48382500D01*
X48415000Y-49407500D01*
X48413856Y-49430779D01*
X48410437Y-49453834D01*
X48404773Y-49476443D01*
X48396921Y-49498387D01*
X48386956Y-49519457D01*
X48374974Y-49539448D01*
X48361090Y-49558168D01*
X48345438Y-49575438D01*
X48328168Y-49591090D01*
X48309448Y-49604974D01*
X48289457Y-49616956D01*
X48268387Y-49626921D01*
X48246443Y-49634773D01*
X48223834Y-49640437D01*
X48200779Y-49643856D01*
X48177500Y-49645000D01*
X47702500Y-49645000D01*
X47679221Y-49643856D01*
X47656166Y-49640437D01*
X47633557Y-49634773D01*
X47611613Y-49626921D01*
X47590543Y-49616956D01*
X47570552Y-49604974D01*
X47551832Y-49591090D01*
X47534562Y-49575438D01*
X47518910Y-49558168D01*
X47505026Y-49539448D01*
X47493044Y-49519457D01*
X47483079Y-49498387D01*
X47475227Y-49476443D01*
X47469563Y-49453834D01*
X47466144Y-49430779D01*
X47465000Y-49407500D01*
X47465000Y-48382500D01*
X47466144Y-48359221D01*
X47469563Y-48336166D01*
X47475227Y-48313557D01*
X47483079Y-48291613D01*
X47493044Y-48270543D01*
X47505026Y-48250552D01*
X47518910Y-48231832D01*
X47534562Y-48214562D01*
X47551832Y-48198910D01*
X47570552Y-48185026D01*
X47590543Y-48173044D01*
X47611613Y-48163079D01*
X47633557Y-48155227D01*
X47656166Y-48149563D01*
X47679221Y-48146144D01*
X47702500Y-48145000D01*
X48177500Y-48145000D01*
X48200779Y-48146144D01*
G37*
G36*
X48145680Y-25921384D02*
G01*
X48173588Y-25925524D01*
X48200957Y-25932380D01*
X48227521Y-25941885D01*
X48253027Y-25953948D01*
X48277226Y-25968452D01*
X48299888Y-25985259D01*
X48320793Y-26004207D01*
X48339741Y-26025112D01*
X48356548Y-26047774D01*
X48371052Y-26071973D01*
X48383115Y-26097479D01*
X48392620Y-26124043D01*
X48399476Y-26151412D01*
X48403616Y-26179320D01*
X48405000Y-26207500D01*
X48405000Y-27132500D01*
X48403616Y-27160680D01*
X48399476Y-27188588D01*
X48392620Y-27215957D01*
X48383115Y-27242521D01*
X48371052Y-27268027D01*
X48356548Y-27292226D01*
X48339741Y-27314888D01*
X48320793Y-27335793D01*
X48299888Y-27354741D01*
X48277226Y-27371548D01*
X48253027Y-27386052D01*
X48227521Y-27398115D01*
X48200957Y-27407620D01*
X48173588Y-27414476D01*
X48145680Y-27418616D01*
X48117500Y-27420000D01*
X47542500Y-27420000D01*
X47514320Y-27418616D01*
X47486412Y-27414476D01*
X47459043Y-27407620D01*
X47432479Y-27398115D01*
X47406973Y-27386052D01*
X47382774Y-27371548D01*
X47360112Y-27354741D01*
X47339207Y-27335793D01*
X47320259Y-27314888D01*
X47303452Y-27292226D01*
X47288948Y-27268027D01*
X47276885Y-27242521D01*
X47267380Y-27215957D01*
X47260524Y-27188588D01*
X47256384Y-27160680D01*
X47255000Y-27132500D01*
X47255000Y-26207500D01*
X47256384Y-26179320D01*
X47260524Y-26151412D01*
X47267380Y-26124043D01*
X47276885Y-26097479D01*
X47288948Y-26071973D01*
X47303452Y-26047774D01*
X47320259Y-26025112D01*
X47339207Y-26004207D01*
X47360112Y-25985259D01*
X47382774Y-25968452D01*
X47406973Y-25953948D01*
X47432479Y-25941885D01*
X47459043Y-25932380D01*
X47486412Y-25925524D01*
X47514320Y-25921384D01*
X47542500Y-25920000D01*
X48117500Y-25920000D01*
X48145680Y-25921384D01*
G37*
G36*
X49845680Y-25921384D02*
G01*
X49873588Y-25925524D01*
X49900957Y-25932380D01*
X49927521Y-25941885D01*
X49953027Y-25953948D01*
X49977226Y-25968452D01*
X49999888Y-25985259D01*
X50020793Y-26004207D01*
X50039741Y-26025112D01*
X50056548Y-26047774D01*
X50071052Y-26071973D01*
X50083115Y-26097479D01*
X50092620Y-26124043D01*
X50099476Y-26151412D01*
X50103616Y-26179320D01*
X50105000Y-26207500D01*
X50105000Y-27132500D01*
X50103616Y-27160680D01*
X50099476Y-27188588D01*
X50092620Y-27215957D01*
X50083115Y-27242521D01*
X50071052Y-27268027D01*
X50056548Y-27292226D01*
X50039741Y-27314888D01*
X50020793Y-27335793D01*
X49999888Y-27354741D01*
X49977226Y-27371548D01*
X49953027Y-27386052D01*
X49927521Y-27398115D01*
X49900957Y-27407620D01*
X49873588Y-27414476D01*
X49845680Y-27418616D01*
X49817500Y-27420000D01*
X49242500Y-27420000D01*
X49214320Y-27418616D01*
X49186412Y-27414476D01*
X49159043Y-27407620D01*
X49132479Y-27398115D01*
X49106973Y-27386052D01*
X49082774Y-27371548D01*
X49060112Y-27354741D01*
X49039207Y-27335793D01*
X49020259Y-27314888D01*
X49003452Y-27292226D01*
X48988948Y-27268027D01*
X48976885Y-27242521D01*
X48967380Y-27215957D01*
X48960524Y-27188588D01*
X48956384Y-27160680D01*
X48955000Y-27132500D01*
X48955000Y-26207500D01*
X48956384Y-26179320D01*
X48960524Y-26151412D01*
X48967380Y-26124043D01*
X48976885Y-26097479D01*
X48988948Y-26071973D01*
X49003452Y-26047774D01*
X49020259Y-26025112D01*
X49039207Y-26004207D01*
X49060112Y-25985259D01*
X49082774Y-25968452D01*
X49106973Y-25953948D01*
X49132479Y-25941885D01*
X49159043Y-25932380D01*
X49186412Y-25925524D01*
X49214320Y-25921384D01*
X49242500Y-25920000D01*
X49817500Y-25920000D01*
X49845680Y-25921384D01*
G37*
G36*
X52605779Y-26511144D02*
G01*
X52628834Y-26514563D01*
X52651443Y-26520227D01*
X52673387Y-26528079D01*
X52694457Y-26538044D01*
X52714448Y-26550026D01*
X52733168Y-26563910D01*
X52750438Y-26579562D01*
X52766090Y-26596832D01*
X52779974Y-26615552D01*
X52791956Y-26635543D01*
X52801921Y-26656613D01*
X52809773Y-26678557D01*
X52815437Y-26701166D01*
X52818856Y-26724221D01*
X52820000Y-26747500D01*
X52820000Y-27222500D01*
X52818856Y-27245779D01*
X52815437Y-27268834D01*
X52809773Y-27291443D01*
X52801921Y-27313387D01*
X52791956Y-27334457D01*
X52779974Y-27354448D01*
X52766090Y-27373168D01*
X52750438Y-27390438D01*
X52733168Y-27406090D01*
X52714448Y-27419974D01*
X52694457Y-27431956D01*
X52673387Y-27441921D01*
X52651443Y-27449773D01*
X52628834Y-27455437D01*
X52605779Y-27458856D01*
X52582500Y-27460000D01*
X51557500Y-27460000D01*
X51534221Y-27458856D01*
X51511166Y-27455437D01*
X51488557Y-27449773D01*
X51466613Y-27441921D01*
X51445543Y-27431956D01*
X51425552Y-27419974D01*
X51406832Y-27406090D01*
X51389562Y-27390438D01*
X51373910Y-27373168D01*
X51360026Y-27354448D01*
X51348044Y-27334457D01*
X51338079Y-27313387D01*
X51330227Y-27291443D01*
X51324563Y-27268834D01*
X51321144Y-27245779D01*
X51320000Y-27222500D01*
X51320000Y-26747500D01*
X51321144Y-26724221D01*
X51324563Y-26701166D01*
X51330227Y-26678557D01*
X51338079Y-26656613D01*
X51348044Y-26635543D01*
X51360026Y-26615552D01*
X51373910Y-26596832D01*
X51389562Y-26579562D01*
X51406832Y-26563910D01*
X51425552Y-26550026D01*
X51445543Y-26538044D01*
X51466613Y-26528079D01*
X51488557Y-26520227D01*
X51511166Y-26514563D01*
X51534221Y-26511144D01*
X51557500Y-26510000D01*
X52582500Y-26510000D01*
X52605779Y-26511144D01*
G37*
G36*
X52605779Y-24611144D02*
G01*
X52628834Y-24614563D01*
X52651443Y-24620227D01*
X52673387Y-24628079D01*
X52694457Y-24638044D01*
X52714448Y-24650026D01*
X52733168Y-24663910D01*
X52750438Y-24679562D01*
X52766090Y-24696832D01*
X52779974Y-24715552D01*
X52791956Y-24735543D01*
X52801921Y-24756613D01*
X52809773Y-24778557D01*
X52815437Y-24801166D01*
X52818856Y-24824221D01*
X52820000Y-24847500D01*
X52820000Y-25322500D01*
X52818856Y-25345779D01*
X52815437Y-25368834D01*
X52809773Y-25391443D01*
X52801921Y-25413387D01*
X52791956Y-25434457D01*
X52779974Y-25454448D01*
X52766090Y-25473168D01*
X52750438Y-25490438D01*
X52733168Y-25506090D01*
X52714448Y-25519974D01*
X52694457Y-25531956D01*
X52673387Y-25541921D01*
X52651443Y-25549773D01*
X52628834Y-25555437D01*
X52605779Y-25558856D01*
X52582500Y-25560000D01*
X51557500Y-25560000D01*
X51534221Y-25558856D01*
X51511166Y-25555437D01*
X51488557Y-25549773D01*
X51466613Y-25541921D01*
X51445543Y-25531956D01*
X51425552Y-25519974D01*
X51406832Y-25506090D01*
X51389562Y-25490438D01*
X51373910Y-25473168D01*
X51360026Y-25454448D01*
X51348044Y-25434457D01*
X51338079Y-25413387D01*
X51330227Y-25391443D01*
X51324563Y-25368834D01*
X51321144Y-25345779D01*
X51320000Y-25322500D01*
X51320000Y-24847500D01*
X51321144Y-24824221D01*
X51324563Y-24801166D01*
X51330227Y-24778557D01*
X51338079Y-24756613D01*
X51348044Y-24735543D01*
X51360026Y-24715552D01*
X51373910Y-24696832D01*
X51389562Y-24679562D01*
X51406832Y-24663910D01*
X51425552Y-24650026D01*
X51445543Y-24638044D01*
X51466613Y-24628079D01*
X51488557Y-24620227D01*
X51511166Y-24614563D01*
X51534221Y-24611144D01*
X51557500Y-24610000D01*
X52582500Y-24610000D01*
X52605779Y-24611144D01*
G37*
G36*
X41118270Y-19107259D02*
G01*
X41188001Y-19117603D01*
X41256383Y-19134731D01*
X41322757Y-19158480D01*
X41386483Y-19188621D01*
X41446948Y-19224862D01*
X41503570Y-19266856D01*
X41555803Y-19314197D01*
X41603144Y-19366430D01*
X41645138Y-19423052D01*
X41681379Y-19483517D01*
X41711520Y-19547243D01*
X41735269Y-19613617D01*
X41752397Y-19681999D01*
X41762741Y-19751730D01*
X41766200Y-19822140D01*
X41766200Y-20817860D01*
X41762741Y-20888270D01*
X41752397Y-20958001D01*
X41735269Y-21026383D01*
X41711520Y-21092757D01*
X41681379Y-21156483D01*
X41645138Y-21216948D01*
X41603144Y-21273570D01*
X41555803Y-21325803D01*
X41503570Y-21373144D01*
X41446948Y-21415138D01*
X41386483Y-21451379D01*
X41322757Y-21481520D01*
X41256383Y-21505269D01*
X41188001Y-21522397D01*
X41118270Y-21532741D01*
X41047860Y-21536200D01*
X40432140Y-21536200D01*
X40361730Y-21532741D01*
X40291999Y-21522397D01*
X40223617Y-21505269D01*
X40157243Y-21481520D01*
X40093517Y-21451379D01*
X40033052Y-21415138D01*
X39976430Y-21373144D01*
X39924197Y-21325803D01*
X39876856Y-21273570D01*
X39834862Y-21216948D01*
X39798621Y-21156483D01*
X39768480Y-21092757D01*
X39744731Y-21026383D01*
X39727603Y-20958001D01*
X39717259Y-20888270D01*
X39713800Y-20817860D01*
X39713800Y-19822140D01*
X39717259Y-19751730D01*
X39727603Y-19681999D01*
X39744731Y-19613617D01*
X39768480Y-19547243D01*
X39798621Y-19483517D01*
X39834862Y-19423052D01*
X39876856Y-19366430D01*
X39924197Y-19314197D01*
X39976430Y-19266856D01*
X40033052Y-19224862D01*
X40093517Y-19188621D01*
X40157243Y-19158480D01*
X40223617Y-19134731D01*
X40291999Y-19117603D01*
X40361730Y-19107259D01*
X40432140Y-19103800D01*
X41047860Y-19103800D01*
X41118270Y-19107259D01*
G37*
G36*
X56158270Y-52127259D02*
G01*
X56228001Y-52137603D01*
X56296383Y-52154731D01*
X56362757Y-52178480D01*
X56426483Y-52208621D01*
X56486948Y-52244862D01*
X56543570Y-52286856D01*
X56595803Y-52334197D01*
X56643144Y-52386430D01*
X56685138Y-52443052D01*
X56721379Y-52503517D01*
X56751520Y-52567243D01*
X56775269Y-52633617D01*
X56792397Y-52701999D01*
X56802741Y-52771730D01*
X56806200Y-52842140D01*
X56806200Y-53837860D01*
X56802741Y-53908270D01*
X56792397Y-53978001D01*
X56775269Y-54046383D01*
X56751520Y-54112757D01*
X56721379Y-54176483D01*
X56685138Y-54236948D01*
X56643144Y-54293570D01*
X56595803Y-54345803D01*
X56543570Y-54393144D01*
X56486948Y-54435138D01*
X56426483Y-54471379D01*
X56362757Y-54501520D01*
X56296383Y-54525269D01*
X56228001Y-54542397D01*
X56158270Y-54552741D01*
X56087860Y-54556200D01*
X55472140Y-54556200D01*
X55401730Y-54552741D01*
X55331999Y-54542397D01*
X55263617Y-54525269D01*
X55197243Y-54501520D01*
X55133517Y-54471379D01*
X55073052Y-54435138D01*
X55016430Y-54393144D01*
X54964197Y-54345803D01*
X54916856Y-54293570D01*
X54874862Y-54236948D01*
X54838621Y-54176483D01*
X54808480Y-54112757D01*
X54784731Y-54046383D01*
X54767603Y-53978001D01*
X54757259Y-53908270D01*
X54753800Y-53837860D01*
X54753800Y-52842140D01*
X54757259Y-52771730D01*
X54767603Y-52701999D01*
X54784731Y-52633617D01*
X54808480Y-52567243D01*
X54838621Y-52503517D01*
X54874862Y-52443052D01*
X54916856Y-52386430D01*
X54964197Y-52334197D01*
X55016430Y-52286856D01*
X55073052Y-52244862D01*
X55133517Y-52208621D01*
X55197243Y-52178480D01*
X55263617Y-52154731D01*
X55331999Y-52137603D01*
X55401730Y-52127259D01*
X55472140Y-52123800D01*
X56087860Y-52123800D01*
X56158270Y-52127259D01*
G37*
G36*
X40981408Y-21646922D02*
G01*
X41044345Y-21656258D01*
X41106063Y-21671717D01*
X41165969Y-21693152D01*
X41223485Y-21720355D01*
X41278058Y-21753065D01*
X41329163Y-21790966D01*
X41376306Y-21833694D01*
X41419034Y-21880837D01*
X41456935Y-21931942D01*
X41489645Y-21986515D01*
X41516848Y-22044031D01*
X41538283Y-22103937D01*
X41553742Y-22165655D01*
X41563078Y-22228592D01*
X41566200Y-22292140D01*
X41566200Y-23427860D01*
X41563078Y-23491408D01*
X41553742Y-23554345D01*
X41538283Y-23616063D01*
X41516848Y-23675969D01*
X41489645Y-23733485D01*
X41456935Y-23788058D01*
X41419034Y-23839163D01*
X41376306Y-23886306D01*
X41329163Y-23929034D01*
X41278058Y-23966935D01*
X41223485Y-23999645D01*
X41165969Y-24026848D01*
X41106063Y-24048283D01*
X41044345Y-24063742D01*
X40981408Y-24073078D01*
X40917860Y-24076200D01*
X40362140Y-24076200D01*
X40298592Y-24073078D01*
X40235655Y-24063742D01*
X40173937Y-24048283D01*
X40114031Y-24026848D01*
X40056515Y-23999645D01*
X40001942Y-23966935D01*
X39950837Y-23929034D01*
X39903694Y-23886306D01*
X39860966Y-23839163D01*
X39823065Y-23788058D01*
X39790355Y-23733485D01*
X39763152Y-23675969D01*
X39741717Y-23616063D01*
X39726258Y-23554345D01*
X39716922Y-23491408D01*
X39713800Y-23427860D01*
X39713800Y-22292140D01*
X39716922Y-22228592D01*
X39726258Y-22165655D01*
X39741717Y-22103937D01*
X39763152Y-22044031D01*
X39790355Y-21986515D01*
X39823065Y-21931942D01*
X39860966Y-21880837D01*
X39903694Y-21833694D01*
X39950837Y-21790966D01*
X40001942Y-21753065D01*
X40056515Y-21720355D01*
X40114031Y-21693152D01*
X40173937Y-21671717D01*
X40235655Y-21656258D01*
X40298592Y-21646922D01*
X40362140Y-21643800D01*
X40917860Y-21643800D01*
X40981408Y-21646922D01*
G37*
G36*
X56221408Y-49586922D02*
G01*
X56284345Y-49596258D01*
X56346063Y-49611717D01*
X56405969Y-49633152D01*
X56463485Y-49660355D01*
X56518058Y-49693065D01*
X56569163Y-49730966D01*
X56616306Y-49773694D01*
X56659034Y-49820837D01*
X56696935Y-49871942D01*
X56729645Y-49926515D01*
X56756848Y-49984031D01*
X56778283Y-50043937D01*
X56793742Y-50105655D01*
X56803078Y-50168592D01*
X56806200Y-50232140D01*
X56806200Y-51367860D01*
X56803078Y-51431408D01*
X56793742Y-51494345D01*
X56778283Y-51556063D01*
X56756848Y-51615969D01*
X56729645Y-51673485D01*
X56696935Y-51728058D01*
X56659034Y-51779163D01*
X56616306Y-51826306D01*
X56569163Y-51869034D01*
X56518058Y-51906935D01*
X56463485Y-51939645D01*
X56405969Y-51966848D01*
X56346063Y-51988283D01*
X56284345Y-52003742D01*
X56221408Y-52013078D01*
X56157860Y-52016200D01*
X55602140Y-52016200D01*
X55538592Y-52013078D01*
X55475655Y-52003742D01*
X55413937Y-51988283D01*
X55354031Y-51966848D01*
X55296515Y-51939645D01*
X55241942Y-51906935D01*
X55190837Y-51869034D01*
X55143694Y-51826306D01*
X55100966Y-51779163D01*
X55063065Y-51728058D01*
X55030355Y-51673485D01*
X55003152Y-51615969D01*
X54981717Y-51556063D01*
X54966258Y-51494345D01*
X54956922Y-51431408D01*
X54953800Y-51367860D01*
X54953800Y-50232140D01*
X54956922Y-50168592D01*
X54966258Y-50105655D01*
X54981717Y-50043937D01*
X55003152Y-49984031D01*
X55030355Y-49926515D01*
X55063065Y-49871942D01*
X55100966Y-49820837D01*
X55143694Y-49773694D01*
X55190837Y-49730966D01*
X55241942Y-49693065D01*
X55296515Y-49660355D01*
X55354031Y-49633152D01*
X55413937Y-49611717D01*
X55475655Y-49596258D01*
X55538592Y-49586922D01*
X55602140Y-49583800D01*
X56157860Y-49583800D01*
X56221408Y-49586922D01*
G37*
G36*
X40981408Y-24186922D02*
G01*
X41044345Y-24196258D01*
X41106063Y-24211717D01*
X41165969Y-24233152D01*
X41223485Y-24260355D01*
X41278058Y-24293065D01*
X41329163Y-24330966D01*
X41376306Y-24373694D01*
X41419034Y-24420837D01*
X41456935Y-24471942D01*
X41489645Y-24526515D01*
X41516848Y-24584031D01*
X41538283Y-24643937D01*
X41553742Y-24705655D01*
X41563078Y-24768592D01*
X41566200Y-24832140D01*
X41566200Y-25967860D01*
X41563078Y-26031408D01*
X41553742Y-26094345D01*
X41538283Y-26156063D01*
X41516848Y-26215969D01*
X41489645Y-26273485D01*
X41456935Y-26328058D01*
X41419034Y-26379163D01*
X41376306Y-26426306D01*
X41329163Y-26469034D01*
X41278058Y-26506935D01*
X41223485Y-26539645D01*
X41165969Y-26566848D01*
X41106063Y-26588283D01*
X41044345Y-26603742D01*
X40981408Y-26613078D01*
X40917860Y-26616200D01*
X40362140Y-26616200D01*
X40298592Y-26613078D01*
X40235655Y-26603742D01*
X40173937Y-26588283D01*
X40114031Y-26566848D01*
X40056515Y-26539645D01*
X40001942Y-26506935D01*
X39950837Y-26469034D01*
X39903694Y-26426306D01*
X39860966Y-26379163D01*
X39823065Y-26328058D01*
X39790355Y-26273485D01*
X39763152Y-26215969D01*
X39741717Y-26156063D01*
X39726258Y-26094345D01*
X39716922Y-26031408D01*
X39713800Y-25967860D01*
X39713800Y-24832140D01*
X39716922Y-24768592D01*
X39726258Y-24705655D01*
X39741717Y-24643937D01*
X39763152Y-24584031D01*
X39790355Y-24526515D01*
X39823065Y-24471942D01*
X39860966Y-24420837D01*
X39903694Y-24373694D01*
X39950837Y-24330966D01*
X40001942Y-24293065D01*
X40056515Y-24260355D01*
X40114031Y-24233152D01*
X40173937Y-24211717D01*
X40235655Y-24196258D01*
X40298592Y-24186922D01*
X40362140Y-24183800D01*
X40917860Y-24183800D01*
X40981408Y-24186922D01*
G37*
G36*
X56221408Y-47046922D02*
G01*
X56284345Y-47056258D01*
X56346063Y-47071717D01*
X56405969Y-47093152D01*
X56463485Y-47120355D01*
X56518058Y-47153065D01*
X56569163Y-47190966D01*
X56616306Y-47233694D01*
X56659034Y-47280837D01*
X56696935Y-47331942D01*
X56729645Y-47386515D01*
X56756848Y-47444031D01*
X56778283Y-47503937D01*
X56793742Y-47565655D01*
X56803078Y-47628592D01*
X56806200Y-47692140D01*
X56806200Y-48827860D01*
X56803078Y-48891408D01*
X56793742Y-48954345D01*
X56778283Y-49016063D01*
X56756848Y-49075969D01*
X56729645Y-49133485D01*
X56696935Y-49188058D01*
X56659034Y-49239163D01*
X56616306Y-49286306D01*
X56569163Y-49329034D01*
X56518058Y-49366935D01*
X56463485Y-49399645D01*
X56405969Y-49426848D01*
X56346063Y-49448283D01*
X56284345Y-49463742D01*
X56221408Y-49473078D01*
X56157860Y-49476200D01*
X55602140Y-49476200D01*
X55538592Y-49473078D01*
X55475655Y-49463742D01*
X55413937Y-49448283D01*
X55354031Y-49426848D01*
X55296515Y-49399645D01*
X55241942Y-49366935D01*
X55190837Y-49329034D01*
X55143694Y-49286306D01*
X55100966Y-49239163D01*
X55063065Y-49188058D01*
X55030355Y-49133485D01*
X55003152Y-49075969D01*
X54981717Y-49016063D01*
X54966258Y-48954345D01*
X54956922Y-48891408D01*
X54953800Y-48827860D01*
X54953800Y-47692140D01*
X54956922Y-47628592D01*
X54966258Y-47565655D01*
X54981717Y-47503937D01*
X55003152Y-47444031D01*
X55030355Y-47386515D01*
X55063065Y-47331942D01*
X55100966Y-47280837D01*
X55143694Y-47233694D01*
X55190837Y-47190966D01*
X55241942Y-47153065D01*
X55296515Y-47120355D01*
X55354031Y-47093152D01*
X55413937Y-47071717D01*
X55475655Y-47056258D01*
X55538592Y-47046922D01*
X55602140Y-47043800D01*
X56157860Y-47043800D01*
X56221408Y-47046922D01*
G37*
G36*
X40981408Y-26726922D02*
G01*
X41044345Y-26736258D01*
X41106063Y-26751717D01*
X41165969Y-26773152D01*
X41223485Y-26800355D01*
X41278058Y-26833065D01*
X41329163Y-26870966D01*
X41376306Y-26913694D01*
X41419034Y-26960837D01*
X41456935Y-27011942D01*
X41489645Y-27066515D01*
X41516848Y-27124031D01*
X41538283Y-27183937D01*
X41553742Y-27245655D01*
X41563078Y-27308592D01*
X41566200Y-27372140D01*
X41566200Y-28507860D01*
X41563078Y-28571408D01*
X41553742Y-28634345D01*
X41538283Y-28696063D01*
X41516848Y-28755969D01*
X41489645Y-28813485D01*
X41456935Y-28868058D01*
X41419034Y-28919163D01*
X41376306Y-28966306D01*
X41329163Y-29009034D01*
X41278058Y-29046935D01*
X41223485Y-29079645D01*
X41165969Y-29106848D01*
X41106063Y-29128283D01*
X41044345Y-29143742D01*
X40981408Y-29153078D01*
X40917860Y-29156200D01*
X40362140Y-29156200D01*
X40298592Y-29153078D01*
X40235655Y-29143742D01*
X40173937Y-29128283D01*
X40114031Y-29106848D01*
X40056515Y-29079645D01*
X40001942Y-29046935D01*
X39950837Y-29009034D01*
X39903694Y-28966306D01*
X39860966Y-28919163D01*
X39823065Y-28868058D01*
X39790355Y-28813485D01*
X39763152Y-28755969D01*
X39741717Y-28696063D01*
X39726258Y-28634345D01*
X39716922Y-28571408D01*
X39713800Y-28507860D01*
X39713800Y-27372140D01*
X39716922Y-27308592D01*
X39726258Y-27245655D01*
X39741717Y-27183937D01*
X39763152Y-27124031D01*
X39790355Y-27066515D01*
X39823065Y-27011942D01*
X39860966Y-26960837D01*
X39903694Y-26913694D01*
X39950837Y-26870966D01*
X40001942Y-26833065D01*
X40056515Y-26800355D01*
X40114031Y-26773152D01*
X40173937Y-26751717D01*
X40235655Y-26736258D01*
X40298592Y-26726922D01*
X40362140Y-26723800D01*
X40917860Y-26723800D01*
X40981408Y-26726922D01*
G37*
G36*
X56221408Y-44506922D02*
G01*
X56284345Y-44516258D01*
X56346063Y-44531717D01*
X56405969Y-44553152D01*
X56463485Y-44580355D01*
X56518058Y-44613065D01*
X56569163Y-44650966D01*
X56616306Y-44693694D01*
X56659034Y-44740837D01*
X56696935Y-44791942D01*
X56729645Y-44846515D01*
X56756848Y-44904031D01*
X56778283Y-44963937D01*
X56793742Y-45025655D01*
X56803078Y-45088592D01*
X56806200Y-45152140D01*
X56806200Y-46287860D01*
X56803078Y-46351408D01*
X56793742Y-46414345D01*
X56778283Y-46476063D01*
X56756848Y-46535969D01*
X56729645Y-46593485D01*
X56696935Y-46648058D01*
X56659034Y-46699163D01*
X56616306Y-46746306D01*
X56569163Y-46789034D01*
X56518058Y-46826935D01*
X56463485Y-46859645D01*
X56405969Y-46886848D01*
X56346063Y-46908283D01*
X56284345Y-46923742D01*
X56221408Y-46933078D01*
X56157860Y-46936200D01*
X55602140Y-46936200D01*
X55538592Y-46933078D01*
X55475655Y-46923742D01*
X55413937Y-46908283D01*
X55354031Y-46886848D01*
X55296515Y-46859645D01*
X55241942Y-46826935D01*
X55190837Y-46789034D01*
X55143694Y-46746306D01*
X55100966Y-46699163D01*
X55063065Y-46648058D01*
X55030355Y-46593485D01*
X55003152Y-46535969D01*
X54981717Y-46476063D01*
X54966258Y-46414345D01*
X54956922Y-46351408D01*
X54953800Y-46287860D01*
X54953800Y-45152140D01*
X54956922Y-45088592D01*
X54966258Y-45025655D01*
X54981717Y-44963937D01*
X55003152Y-44904031D01*
X55030355Y-44846515D01*
X55063065Y-44791942D01*
X55100966Y-44740837D01*
X55143694Y-44693694D01*
X55190837Y-44650966D01*
X55241942Y-44613065D01*
X55296515Y-44580355D01*
X55354031Y-44553152D01*
X55413937Y-44531717D01*
X55475655Y-44516258D01*
X55538592Y-44506922D01*
X55602140Y-44503800D01*
X56157860Y-44503800D01*
X56221408Y-44506922D01*
G37*
G36*
X40981408Y-29266922D02*
G01*
X41044345Y-29276258D01*
X41106063Y-29291717D01*
X41165969Y-29313152D01*
X41223485Y-29340355D01*
X41278058Y-29373065D01*
X41329163Y-29410966D01*
X41376306Y-29453694D01*
X41419034Y-29500837D01*
X41456935Y-29551942D01*
X41489645Y-29606515D01*
X41516848Y-29664031D01*
X41538283Y-29723937D01*
X41553742Y-29785655D01*
X41563078Y-29848592D01*
X41566200Y-29912140D01*
X41566200Y-31047860D01*
X41563078Y-31111408D01*
X41553742Y-31174345D01*
X41538283Y-31236063D01*
X41516848Y-31295969D01*
X41489645Y-31353485D01*
X41456935Y-31408058D01*
X41419034Y-31459163D01*
X41376306Y-31506306D01*
X41329163Y-31549034D01*
X41278058Y-31586935D01*
X41223485Y-31619645D01*
X41165969Y-31646848D01*
X41106063Y-31668283D01*
X41044345Y-31683742D01*
X40981408Y-31693078D01*
X40917860Y-31696200D01*
X40362140Y-31696200D01*
X40298592Y-31693078D01*
X40235655Y-31683742D01*
X40173937Y-31668283D01*
X40114031Y-31646848D01*
X40056515Y-31619645D01*
X40001942Y-31586935D01*
X39950837Y-31549034D01*
X39903694Y-31506306D01*
X39860966Y-31459163D01*
X39823065Y-31408058D01*
X39790355Y-31353485D01*
X39763152Y-31295969D01*
X39741717Y-31236063D01*
X39726258Y-31174345D01*
X39716922Y-31111408D01*
X39713800Y-31047860D01*
X39713800Y-29912140D01*
X39716922Y-29848592D01*
X39726258Y-29785655D01*
X39741717Y-29723937D01*
X39763152Y-29664031D01*
X39790355Y-29606515D01*
X39823065Y-29551942D01*
X39860966Y-29500837D01*
X39903694Y-29453694D01*
X39950837Y-29410966D01*
X40001942Y-29373065D01*
X40056515Y-29340355D01*
X40114031Y-29313152D01*
X40173937Y-29291717D01*
X40235655Y-29276258D01*
X40298592Y-29266922D01*
X40362140Y-29263800D01*
X40917860Y-29263800D01*
X40981408Y-29266922D01*
G37*
G36*
X56221408Y-41966922D02*
G01*
X56284345Y-41976258D01*
X56346063Y-41991717D01*
X56405969Y-42013152D01*
X56463485Y-42040355D01*
X56518058Y-42073065D01*
X56569163Y-42110966D01*
X56616306Y-42153694D01*
X56659034Y-42200837D01*
X56696935Y-42251942D01*
X56729645Y-42306515D01*
X56756848Y-42364031D01*
X56778283Y-42423937D01*
X56793742Y-42485655D01*
X56803078Y-42548592D01*
X56806200Y-42612140D01*
X56806200Y-43747860D01*
X56803078Y-43811408D01*
X56793742Y-43874345D01*
X56778283Y-43936063D01*
X56756848Y-43995969D01*
X56729645Y-44053485D01*
X56696935Y-44108058D01*
X56659034Y-44159163D01*
X56616306Y-44206306D01*
X56569163Y-44249034D01*
X56518058Y-44286935D01*
X56463485Y-44319645D01*
X56405969Y-44346848D01*
X56346063Y-44368283D01*
X56284345Y-44383742D01*
X56221408Y-44393078D01*
X56157860Y-44396200D01*
X55602140Y-44396200D01*
X55538592Y-44393078D01*
X55475655Y-44383742D01*
X55413937Y-44368283D01*
X55354031Y-44346848D01*
X55296515Y-44319645D01*
X55241942Y-44286935D01*
X55190837Y-44249034D01*
X55143694Y-44206306D01*
X55100966Y-44159163D01*
X55063065Y-44108058D01*
X55030355Y-44053485D01*
X55003152Y-43995969D01*
X54981717Y-43936063D01*
X54966258Y-43874345D01*
X54956922Y-43811408D01*
X54953800Y-43747860D01*
X54953800Y-42612140D01*
X54956922Y-42548592D01*
X54966258Y-42485655D01*
X54981717Y-42423937D01*
X55003152Y-42364031D01*
X55030355Y-42306515D01*
X55063065Y-42251942D01*
X55100966Y-42200837D01*
X55143694Y-42153694D01*
X55190837Y-42110966D01*
X55241942Y-42073065D01*
X55296515Y-42040355D01*
X55354031Y-42013152D01*
X55413937Y-41991717D01*
X55475655Y-41976258D01*
X55538592Y-41966922D01*
X55602140Y-41963800D01*
X56157860Y-41963800D01*
X56221408Y-41966922D01*
G37*
G36*
X40981408Y-31806922D02*
G01*
X41044345Y-31816258D01*
X41106063Y-31831717D01*
X41165969Y-31853152D01*
X41223485Y-31880355D01*
X41278058Y-31913065D01*
X41329163Y-31950966D01*
X41376306Y-31993694D01*
X41419034Y-32040837D01*
X41456935Y-32091942D01*
X41489645Y-32146515D01*
X41516848Y-32204031D01*
X41538283Y-32263937D01*
X41553742Y-32325655D01*
X41563078Y-32388592D01*
X41566200Y-32452140D01*
X41566200Y-33587860D01*
X41563078Y-33651408D01*
X41553742Y-33714345D01*
X41538283Y-33776063D01*
X41516848Y-33835969D01*
X41489645Y-33893485D01*
X41456935Y-33948058D01*
X41419034Y-33999163D01*
X41376306Y-34046306D01*
X41329163Y-34089034D01*
X41278058Y-34126935D01*
X41223485Y-34159645D01*
X41165969Y-34186848D01*
X41106063Y-34208283D01*
X41044345Y-34223742D01*
X40981408Y-34233078D01*
X40917860Y-34236200D01*
X40362140Y-34236200D01*
X40298592Y-34233078D01*
X40235655Y-34223742D01*
X40173937Y-34208283D01*
X40114031Y-34186848D01*
X40056515Y-34159645D01*
X40001942Y-34126935D01*
X39950837Y-34089034D01*
X39903694Y-34046306D01*
X39860966Y-33999163D01*
X39823065Y-33948058D01*
X39790355Y-33893485D01*
X39763152Y-33835969D01*
X39741717Y-33776063D01*
X39726258Y-33714345D01*
X39716922Y-33651408D01*
X39713800Y-33587860D01*
X39713800Y-32452140D01*
X39716922Y-32388592D01*
X39726258Y-32325655D01*
X39741717Y-32263937D01*
X39763152Y-32204031D01*
X39790355Y-32146515D01*
X39823065Y-32091942D01*
X39860966Y-32040837D01*
X39903694Y-31993694D01*
X39950837Y-31950966D01*
X40001942Y-31913065D01*
X40056515Y-31880355D01*
X40114031Y-31853152D01*
X40173937Y-31831717D01*
X40235655Y-31816258D01*
X40298592Y-31806922D01*
X40362140Y-31803800D01*
X40917860Y-31803800D01*
X40981408Y-31806922D01*
G37*
G36*
X56221408Y-39426922D02*
G01*
X56284345Y-39436258D01*
X56346063Y-39451717D01*
X56405969Y-39473152D01*
X56463485Y-39500355D01*
X56518058Y-39533065D01*
X56569163Y-39570966D01*
X56616306Y-39613694D01*
X56659034Y-39660837D01*
X56696935Y-39711942D01*
X56729645Y-39766515D01*
X56756848Y-39824031D01*
X56778283Y-39883937D01*
X56793742Y-39945655D01*
X56803078Y-40008592D01*
X56806200Y-40072140D01*
X56806200Y-41207860D01*
X56803078Y-41271408D01*
X56793742Y-41334345D01*
X56778283Y-41396063D01*
X56756848Y-41455969D01*
X56729645Y-41513485D01*
X56696935Y-41568058D01*
X56659034Y-41619163D01*
X56616306Y-41666306D01*
X56569163Y-41709034D01*
X56518058Y-41746935D01*
X56463485Y-41779645D01*
X56405969Y-41806848D01*
X56346063Y-41828283D01*
X56284345Y-41843742D01*
X56221408Y-41853078D01*
X56157860Y-41856200D01*
X55602140Y-41856200D01*
X55538592Y-41853078D01*
X55475655Y-41843742D01*
X55413937Y-41828283D01*
X55354031Y-41806848D01*
X55296515Y-41779645D01*
X55241942Y-41746935D01*
X55190837Y-41709034D01*
X55143694Y-41666306D01*
X55100966Y-41619163D01*
X55063065Y-41568058D01*
X55030355Y-41513485D01*
X55003152Y-41455969D01*
X54981717Y-41396063D01*
X54966258Y-41334345D01*
X54956922Y-41271408D01*
X54953800Y-41207860D01*
X54953800Y-40072140D01*
X54956922Y-40008592D01*
X54966258Y-39945655D01*
X54981717Y-39883937D01*
X55003152Y-39824031D01*
X55030355Y-39766515D01*
X55063065Y-39711942D01*
X55100966Y-39660837D01*
X55143694Y-39613694D01*
X55190837Y-39570966D01*
X55241942Y-39533065D01*
X55296515Y-39500355D01*
X55354031Y-39473152D01*
X55413937Y-39451717D01*
X55475655Y-39436258D01*
X55538592Y-39426922D01*
X55602140Y-39423800D01*
X56157860Y-39423800D01*
X56221408Y-39426922D01*
G37*
G36*
X40981408Y-34346922D02*
G01*
X41044345Y-34356258D01*
X41106063Y-34371717D01*
X41165969Y-34393152D01*
X41223485Y-34420355D01*
X41278058Y-34453065D01*
X41329163Y-34490966D01*
X41376306Y-34533694D01*
X41419034Y-34580837D01*
X41456935Y-34631942D01*
X41489645Y-34686515D01*
X41516848Y-34744031D01*
X41538283Y-34803937D01*
X41553742Y-34865655D01*
X41563078Y-34928592D01*
X41566200Y-34992140D01*
X41566200Y-36127860D01*
X41563078Y-36191408D01*
X41553742Y-36254345D01*
X41538283Y-36316063D01*
X41516848Y-36375969D01*
X41489645Y-36433485D01*
X41456935Y-36488058D01*
X41419034Y-36539163D01*
X41376306Y-36586306D01*
X41329163Y-36629034D01*
X41278058Y-36666935D01*
X41223485Y-36699645D01*
X41165969Y-36726848D01*
X41106063Y-36748283D01*
X41044345Y-36763742D01*
X40981408Y-36773078D01*
X40917860Y-36776200D01*
X40362140Y-36776200D01*
X40298592Y-36773078D01*
X40235655Y-36763742D01*
X40173937Y-36748283D01*
X40114031Y-36726848D01*
X40056515Y-36699645D01*
X40001942Y-36666935D01*
X39950837Y-36629034D01*
X39903694Y-36586306D01*
X39860966Y-36539163D01*
X39823065Y-36488058D01*
X39790355Y-36433485D01*
X39763152Y-36375969D01*
X39741717Y-36316063D01*
X39726258Y-36254345D01*
X39716922Y-36191408D01*
X39713800Y-36127860D01*
X39713800Y-34992140D01*
X39716922Y-34928592D01*
X39726258Y-34865655D01*
X39741717Y-34803937D01*
X39763152Y-34744031D01*
X39790355Y-34686515D01*
X39823065Y-34631942D01*
X39860966Y-34580837D01*
X39903694Y-34533694D01*
X39950837Y-34490966D01*
X40001942Y-34453065D01*
X40056515Y-34420355D01*
X40114031Y-34393152D01*
X40173937Y-34371717D01*
X40235655Y-34356258D01*
X40298592Y-34346922D01*
X40362140Y-34343800D01*
X40917860Y-34343800D01*
X40981408Y-34346922D01*
G37*
G36*
X56221408Y-36886922D02*
G01*
X56284345Y-36896258D01*
X56346063Y-36911717D01*
X56405969Y-36933152D01*
X56463485Y-36960355D01*
X56518058Y-36993065D01*
X56569163Y-37030966D01*
X56616306Y-37073694D01*
X56659034Y-37120837D01*
X56696935Y-37171942D01*
X56729645Y-37226515D01*
X56756848Y-37284031D01*
X56778283Y-37343937D01*
X56793742Y-37405655D01*
X56803078Y-37468592D01*
X56806200Y-37532140D01*
X56806200Y-38667860D01*
X56803078Y-38731408D01*
X56793742Y-38794345D01*
X56778283Y-38856063D01*
X56756848Y-38915969D01*
X56729645Y-38973485D01*
X56696935Y-39028058D01*
X56659034Y-39079163D01*
X56616306Y-39126306D01*
X56569163Y-39169034D01*
X56518058Y-39206935D01*
X56463485Y-39239645D01*
X56405969Y-39266848D01*
X56346063Y-39288283D01*
X56284345Y-39303742D01*
X56221408Y-39313078D01*
X56157860Y-39316200D01*
X55602140Y-39316200D01*
X55538592Y-39313078D01*
X55475655Y-39303742D01*
X55413937Y-39288283D01*
X55354031Y-39266848D01*
X55296515Y-39239645D01*
X55241942Y-39206935D01*
X55190837Y-39169034D01*
X55143694Y-39126306D01*
X55100966Y-39079163D01*
X55063065Y-39028058D01*
X55030355Y-38973485D01*
X55003152Y-38915969D01*
X54981717Y-38856063D01*
X54966258Y-38794345D01*
X54956922Y-38731408D01*
X54953800Y-38667860D01*
X54953800Y-37532140D01*
X54956922Y-37468592D01*
X54966258Y-37405655D01*
X54981717Y-37343937D01*
X55003152Y-37284031D01*
X55030355Y-37226515D01*
X55063065Y-37171942D01*
X55100966Y-37120837D01*
X55143694Y-37073694D01*
X55190837Y-37030966D01*
X55241942Y-36993065D01*
X55296515Y-36960355D01*
X55354031Y-36933152D01*
X55413937Y-36911717D01*
X55475655Y-36896258D01*
X55538592Y-36886922D01*
X55602140Y-36883800D01*
X56157860Y-36883800D01*
X56221408Y-36886922D01*
G37*
G36*
X40981408Y-36886922D02*
G01*
X41044345Y-36896258D01*
X41106063Y-36911717D01*
X41165969Y-36933152D01*
X41223485Y-36960355D01*
X41278058Y-36993065D01*
X41329163Y-37030966D01*
X41376306Y-37073694D01*
X41419034Y-37120837D01*
X41456935Y-37171942D01*
X41489645Y-37226515D01*
X41516848Y-37284031D01*
X41538283Y-37343937D01*
X41553742Y-37405655D01*
X41563078Y-37468592D01*
X41566200Y-37532140D01*
X41566200Y-38667860D01*
X41563078Y-38731408D01*
X41553742Y-38794345D01*
X41538283Y-38856063D01*
X41516848Y-38915969D01*
X41489645Y-38973485D01*
X41456935Y-39028058D01*
X41419034Y-39079163D01*
X41376306Y-39126306D01*
X41329163Y-39169034D01*
X41278058Y-39206935D01*
X41223485Y-39239645D01*
X41165969Y-39266848D01*
X41106063Y-39288283D01*
X41044345Y-39303742D01*
X40981408Y-39313078D01*
X40917860Y-39316200D01*
X40362140Y-39316200D01*
X40298592Y-39313078D01*
X40235655Y-39303742D01*
X40173937Y-39288283D01*
X40114031Y-39266848D01*
X40056515Y-39239645D01*
X40001942Y-39206935D01*
X39950837Y-39169034D01*
X39903694Y-39126306D01*
X39860966Y-39079163D01*
X39823065Y-39028058D01*
X39790355Y-38973485D01*
X39763152Y-38915969D01*
X39741717Y-38856063D01*
X39726258Y-38794345D01*
X39716922Y-38731408D01*
X39713800Y-38667860D01*
X39713800Y-37532140D01*
X39716922Y-37468592D01*
X39726258Y-37405655D01*
X39741717Y-37343937D01*
X39763152Y-37284031D01*
X39790355Y-37226515D01*
X39823065Y-37171942D01*
X39860966Y-37120837D01*
X39903694Y-37073694D01*
X39950837Y-37030966D01*
X40001942Y-36993065D01*
X40056515Y-36960355D01*
X40114031Y-36933152D01*
X40173937Y-36911717D01*
X40235655Y-36896258D01*
X40298592Y-36886922D01*
X40362140Y-36883800D01*
X40917860Y-36883800D01*
X40981408Y-36886922D01*
G37*
G36*
X56221408Y-34346922D02*
G01*
X56284345Y-34356258D01*
X56346063Y-34371717D01*
X56405969Y-34393152D01*
X56463485Y-34420355D01*
X56518058Y-34453065D01*
X56569163Y-34490966D01*
X56616306Y-34533694D01*
X56659034Y-34580837D01*
X56696935Y-34631942D01*
X56729645Y-34686515D01*
X56756848Y-34744031D01*
X56778283Y-34803937D01*
X56793742Y-34865655D01*
X56803078Y-34928592D01*
X56806200Y-34992140D01*
X56806200Y-36127860D01*
X56803078Y-36191408D01*
X56793742Y-36254345D01*
X56778283Y-36316063D01*
X56756848Y-36375969D01*
X56729645Y-36433485D01*
X56696935Y-36488058D01*
X56659034Y-36539163D01*
X56616306Y-36586306D01*
X56569163Y-36629034D01*
X56518058Y-36666935D01*
X56463485Y-36699645D01*
X56405969Y-36726848D01*
X56346063Y-36748283D01*
X56284345Y-36763742D01*
X56221408Y-36773078D01*
X56157860Y-36776200D01*
X55602140Y-36776200D01*
X55538592Y-36773078D01*
X55475655Y-36763742D01*
X55413937Y-36748283D01*
X55354031Y-36726848D01*
X55296515Y-36699645D01*
X55241942Y-36666935D01*
X55190837Y-36629034D01*
X55143694Y-36586306D01*
X55100966Y-36539163D01*
X55063065Y-36488058D01*
X55030355Y-36433485D01*
X55003152Y-36375969D01*
X54981717Y-36316063D01*
X54966258Y-36254345D01*
X54956922Y-36191408D01*
X54953800Y-36127860D01*
X54953800Y-34992140D01*
X54956922Y-34928592D01*
X54966258Y-34865655D01*
X54981717Y-34803937D01*
X55003152Y-34744031D01*
X55030355Y-34686515D01*
X55063065Y-34631942D01*
X55100966Y-34580837D01*
X55143694Y-34533694D01*
X55190837Y-34490966D01*
X55241942Y-34453065D01*
X55296515Y-34420355D01*
X55354031Y-34393152D01*
X55413937Y-34371717D01*
X55475655Y-34356258D01*
X55538592Y-34346922D01*
X55602140Y-34343800D01*
X56157860Y-34343800D01*
X56221408Y-34346922D01*
G37*
G36*
X40981408Y-39426922D02*
G01*
X41044345Y-39436258D01*
X41106063Y-39451717D01*
X41165969Y-39473152D01*
X41223485Y-39500355D01*
X41278058Y-39533065D01*
X41329163Y-39570966D01*
X41376306Y-39613694D01*
X41419034Y-39660837D01*
X41456935Y-39711942D01*
X41489645Y-39766515D01*
X41516848Y-39824031D01*
X41538283Y-39883937D01*
X41553742Y-39945655D01*
X41563078Y-40008592D01*
X41566200Y-40072140D01*
X41566200Y-41207860D01*
X41563078Y-41271408D01*
X41553742Y-41334345D01*
X41538283Y-41396063D01*
X41516848Y-41455969D01*
X41489645Y-41513485D01*
X41456935Y-41568058D01*
X41419034Y-41619163D01*
X41376306Y-41666306D01*
X41329163Y-41709034D01*
X41278058Y-41746935D01*
X41223485Y-41779645D01*
X41165969Y-41806848D01*
X41106063Y-41828283D01*
X41044345Y-41843742D01*
X40981408Y-41853078D01*
X40917860Y-41856200D01*
X40362140Y-41856200D01*
X40298592Y-41853078D01*
X40235655Y-41843742D01*
X40173937Y-41828283D01*
X40114031Y-41806848D01*
X40056515Y-41779645D01*
X40001942Y-41746935D01*
X39950837Y-41709034D01*
X39903694Y-41666306D01*
X39860966Y-41619163D01*
X39823065Y-41568058D01*
X39790355Y-41513485D01*
X39763152Y-41455969D01*
X39741717Y-41396063D01*
X39726258Y-41334345D01*
X39716922Y-41271408D01*
X39713800Y-41207860D01*
X39713800Y-40072140D01*
X39716922Y-40008592D01*
X39726258Y-39945655D01*
X39741717Y-39883937D01*
X39763152Y-39824031D01*
X39790355Y-39766515D01*
X39823065Y-39711942D01*
X39860966Y-39660837D01*
X39903694Y-39613694D01*
X39950837Y-39570966D01*
X40001942Y-39533065D01*
X40056515Y-39500355D01*
X40114031Y-39473152D01*
X40173937Y-39451717D01*
X40235655Y-39436258D01*
X40298592Y-39426922D01*
X40362140Y-39423800D01*
X40917860Y-39423800D01*
X40981408Y-39426922D01*
G37*
G36*
X56221408Y-31806922D02*
G01*
X56284345Y-31816258D01*
X56346063Y-31831717D01*
X56405969Y-31853152D01*
X56463485Y-31880355D01*
X56518058Y-31913065D01*
X56569163Y-31950966D01*
X56616306Y-31993694D01*
X56659034Y-32040837D01*
X56696935Y-32091942D01*
X56729645Y-32146515D01*
X56756848Y-32204031D01*
X56778283Y-32263937D01*
X56793742Y-32325655D01*
X56803078Y-32388592D01*
X56806200Y-32452140D01*
X56806200Y-33587860D01*
X56803078Y-33651408D01*
X56793742Y-33714345D01*
X56778283Y-33776063D01*
X56756848Y-33835969D01*
X56729645Y-33893485D01*
X56696935Y-33948058D01*
X56659034Y-33999163D01*
X56616306Y-34046306D01*
X56569163Y-34089034D01*
X56518058Y-34126935D01*
X56463485Y-34159645D01*
X56405969Y-34186848D01*
X56346063Y-34208283D01*
X56284345Y-34223742D01*
X56221408Y-34233078D01*
X56157860Y-34236200D01*
X55602140Y-34236200D01*
X55538592Y-34233078D01*
X55475655Y-34223742D01*
X55413937Y-34208283D01*
X55354031Y-34186848D01*
X55296515Y-34159645D01*
X55241942Y-34126935D01*
X55190837Y-34089034D01*
X55143694Y-34046306D01*
X55100966Y-33999163D01*
X55063065Y-33948058D01*
X55030355Y-33893485D01*
X55003152Y-33835969D01*
X54981717Y-33776063D01*
X54966258Y-33714345D01*
X54956922Y-33651408D01*
X54953800Y-33587860D01*
X54953800Y-32452140D01*
X54956922Y-32388592D01*
X54966258Y-32325655D01*
X54981717Y-32263937D01*
X55003152Y-32204031D01*
X55030355Y-32146515D01*
X55063065Y-32091942D01*
X55100966Y-32040837D01*
X55143694Y-31993694D01*
X55190837Y-31950966D01*
X55241942Y-31913065D01*
X55296515Y-31880355D01*
X55354031Y-31853152D01*
X55413937Y-31831717D01*
X55475655Y-31816258D01*
X55538592Y-31806922D01*
X55602140Y-31803800D01*
X56157860Y-31803800D01*
X56221408Y-31806922D01*
G37*
G36*
X40981408Y-41966922D02*
G01*
X41044345Y-41976258D01*
X41106063Y-41991717D01*
X41165969Y-42013152D01*
X41223485Y-42040355D01*
X41278058Y-42073065D01*
X41329163Y-42110966D01*
X41376306Y-42153694D01*
X41419034Y-42200837D01*
X41456935Y-42251942D01*
X41489645Y-42306515D01*
X41516848Y-42364031D01*
X41538283Y-42423937D01*
X41553742Y-42485655D01*
X41563078Y-42548592D01*
X41566200Y-42612140D01*
X41566200Y-43747860D01*
X41563078Y-43811408D01*
X41553742Y-43874345D01*
X41538283Y-43936063D01*
X41516848Y-43995969D01*
X41489645Y-44053485D01*
X41456935Y-44108058D01*
X41419034Y-44159163D01*
X41376306Y-44206306D01*
X41329163Y-44249034D01*
X41278058Y-44286935D01*
X41223485Y-44319645D01*
X41165969Y-44346848D01*
X41106063Y-44368283D01*
X41044345Y-44383742D01*
X40981408Y-44393078D01*
X40917860Y-44396200D01*
X40362140Y-44396200D01*
X40298592Y-44393078D01*
X40235655Y-44383742D01*
X40173937Y-44368283D01*
X40114031Y-44346848D01*
X40056515Y-44319645D01*
X40001942Y-44286935D01*
X39950837Y-44249034D01*
X39903694Y-44206306D01*
X39860966Y-44159163D01*
X39823065Y-44108058D01*
X39790355Y-44053485D01*
X39763152Y-43995969D01*
X39741717Y-43936063D01*
X39726258Y-43874345D01*
X39716922Y-43811408D01*
X39713800Y-43747860D01*
X39713800Y-42612140D01*
X39716922Y-42548592D01*
X39726258Y-42485655D01*
X39741717Y-42423937D01*
X39763152Y-42364031D01*
X39790355Y-42306515D01*
X39823065Y-42251942D01*
X39860966Y-42200837D01*
X39903694Y-42153694D01*
X39950837Y-42110966D01*
X40001942Y-42073065D01*
X40056515Y-42040355D01*
X40114031Y-42013152D01*
X40173937Y-41991717D01*
X40235655Y-41976258D01*
X40298592Y-41966922D01*
X40362140Y-41963800D01*
X40917860Y-41963800D01*
X40981408Y-41966922D01*
G37*
G36*
X56221408Y-29266922D02*
G01*
X56284345Y-29276258D01*
X56346063Y-29291717D01*
X56405969Y-29313152D01*
X56463485Y-29340355D01*
X56518058Y-29373065D01*
X56569163Y-29410966D01*
X56616306Y-29453694D01*
X56659034Y-29500837D01*
X56696935Y-29551942D01*
X56729645Y-29606515D01*
X56756848Y-29664031D01*
X56778283Y-29723937D01*
X56793742Y-29785655D01*
X56803078Y-29848592D01*
X56806200Y-29912140D01*
X56806200Y-31047860D01*
X56803078Y-31111408D01*
X56793742Y-31174345D01*
X56778283Y-31236063D01*
X56756848Y-31295969D01*
X56729645Y-31353485D01*
X56696935Y-31408058D01*
X56659034Y-31459163D01*
X56616306Y-31506306D01*
X56569163Y-31549034D01*
X56518058Y-31586935D01*
X56463485Y-31619645D01*
X56405969Y-31646848D01*
X56346063Y-31668283D01*
X56284345Y-31683742D01*
X56221408Y-31693078D01*
X56157860Y-31696200D01*
X55602140Y-31696200D01*
X55538592Y-31693078D01*
X55475655Y-31683742D01*
X55413937Y-31668283D01*
X55354031Y-31646848D01*
X55296515Y-31619645D01*
X55241942Y-31586935D01*
X55190837Y-31549034D01*
X55143694Y-31506306D01*
X55100966Y-31459163D01*
X55063065Y-31408058D01*
X55030355Y-31353485D01*
X55003152Y-31295969D01*
X54981717Y-31236063D01*
X54966258Y-31174345D01*
X54956922Y-31111408D01*
X54953800Y-31047860D01*
X54953800Y-29912140D01*
X54956922Y-29848592D01*
X54966258Y-29785655D01*
X54981717Y-29723937D01*
X55003152Y-29664031D01*
X55030355Y-29606515D01*
X55063065Y-29551942D01*
X55100966Y-29500837D01*
X55143694Y-29453694D01*
X55190837Y-29410966D01*
X55241942Y-29373065D01*
X55296515Y-29340355D01*
X55354031Y-29313152D01*
X55413937Y-29291717D01*
X55475655Y-29276258D01*
X55538592Y-29266922D01*
X55602140Y-29263800D01*
X56157860Y-29263800D01*
X56221408Y-29266922D01*
G37*
G36*
X40981408Y-44506922D02*
G01*
X41044345Y-44516258D01*
X41106063Y-44531717D01*
X41165969Y-44553152D01*
X41223485Y-44580355D01*
X41278058Y-44613065D01*
X41329163Y-44650966D01*
X41376306Y-44693694D01*
X41419034Y-44740837D01*
X41456935Y-44791942D01*
X41489645Y-44846515D01*
X41516848Y-44904031D01*
X41538283Y-44963937D01*
X41553742Y-45025655D01*
X41563078Y-45088592D01*
X41566200Y-45152140D01*
X41566200Y-46287860D01*
X41563078Y-46351408D01*
X41553742Y-46414345D01*
X41538283Y-46476063D01*
X41516848Y-46535969D01*
X41489645Y-46593485D01*
X41456935Y-46648058D01*
X41419034Y-46699163D01*
X41376306Y-46746306D01*
X41329163Y-46789034D01*
X41278058Y-46826935D01*
X41223485Y-46859645D01*
X41165969Y-46886848D01*
X41106063Y-46908283D01*
X41044345Y-46923742D01*
X40981408Y-46933078D01*
X40917860Y-46936200D01*
X40362140Y-46936200D01*
X40298592Y-46933078D01*
X40235655Y-46923742D01*
X40173937Y-46908283D01*
X40114031Y-46886848D01*
X40056515Y-46859645D01*
X40001942Y-46826935D01*
X39950837Y-46789034D01*
X39903694Y-46746306D01*
X39860966Y-46699163D01*
X39823065Y-46648058D01*
X39790355Y-46593485D01*
X39763152Y-46535969D01*
X39741717Y-46476063D01*
X39726258Y-46414345D01*
X39716922Y-46351408D01*
X39713800Y-46287860D01*
X39713800Y-45152140D01*
X39716922Y-45088592D01*
X39726258Y-45025655D01*
X39741717Y-44963937D01*
X39763152Y-44904031D01*
X39790355Y-44846515D01*
X39823065Y-44791942D01*
X39860966Y-44740837D01*
X39903694Y-44693694D01*
X39950837Y-44650966D01*
X40001942Y-44613065D01*
X40056515Y-44580355D01*
X40114031Y-44553152D01*
X40173937Y-44531717D01*
X40235655Y-44516258D01*
X40298592Y-44506922D01*
X40362140Y-44503800D01*
X40917860Y-44503800D01*
X40981408Y-44506922D01*
G37*
G36*
X56221408Y-26726922D02*
G01*
X56284345Y-26736258D01*
X56346063Y-26751717D01*
X56405969Y-26773152D01*
X56463485Y-26800355D01*
X56518058Y-26833065D01*
X56569163Y-26870966D01*
X56616306Y-26913694D01*
X56659034Y-26960837D01*
X56696935Y-27011942D01*
X56729645Y-27066515D01*
X56756848Y-27124031D01*
X56778283Y-27183937D01*
X56793742Y-27245655D01*
X56803078Y-27308592D01*
X56806200Y-27372140D01*
X56806200Y-28507860D01*
X56803078Y-28571408D01*
X56793742Y-28634345D01*
X56778283Y-28696063D01*
X56756848Y-28755969D01*
X56729645Y-28813485D01*
X56696935Y-28868058D01*
X56659034Y-28919163D01*
X56616306Y-28966306D01*
X56569163Y-29009034D01*
X56518058Y-29046935D01*
X56463485Y-29079645D01*
X56405969Y-29106848D01*
X56346063Y-29128283D01*
X56284345Y-29143742D01*
X56221408Y-29153078D01*
X56157860Y-29156200D01*
X55602140Y-29156200D01*
X55538592Y-29153078D01*
X55475655Y-29143742D01*
X55413937Y-29128283D01*
X55354031Y-29106848D01*
X55296515Y-29079645D01*
X55241942Y-29046935D01*
X55190837Y-29009034D01*
X55143694Y-28966306D01*
X55100966Y-28919163D01*
X55063065Y-28868058D01*
X55030355Y-28813485D01*
X55003152Y-28755969D01*
X54981717Y-28696063D01*
X54966258Y-28634345D01*
X54956922Y-28571408D01*
X54953800Y-28507860D01*
X54953800Y-27372140D01*
X54956922Y-27308592D01*
X54966258Y-27245655D01*
X54981717Y-27183937D01*
X55003152Y-27124031D01*
X55030355Y-27066515D01*
X55063065Y-27011942D01*
X55100966Y-26960837D01*
X55143694Y-26913694D01*
X55190837Y-26870966D01*
X55241942Y-26833065D01*
X55296515Y-26800355D01*
X55354031Y-26773152D01*
X55413937Y-26751717D01*
X55475655Y-26736258D01*
X55538592Y-26726922D01*
X55602140Y-26723800D01*
X56157860Y-26723800D01*
X56221408Y-26726922D01*
G37*
G36*
X40981408Y-47046922D02*
G01*
X41044345Y-47056258D01*
X41106063Y-47071717D01*
X41165969Y-47093152D01*
X41223485Y-47120355D01*
X41278058Y-47153065D01*
X41329163Y-47190966D01*
X41376306Y-47233694D01*
X41419034Y-47280837D01*
X41456935Y-47331942D01*
X41489645Y-47386515D01*
X41516848Y-47444031D01*
X41538283Y-47503937D01*
X41553742Y-47565655D01*
X41563078Y-47628592D01*
X41566200Y-47692140D01*
X41566200Y-48827860D01*
X41563078Y-48891408D01*
X41553742Y-48954345D01*
X41538283Y-49016063D01*
X41516848Y-49075969D01*
X41489645Y-49133485D01*
X41456935Y-49188058D01*
X41419034Y-49239163D01*
X41376306Y-49286306D01*
X41329163Y-49329034D01*
X41278058Y-49366935D01*
X41223485Y-49399645D01*
X41165969Y-49426848D01*
X41106063Y-49448283D01*
X41044345Y-49463742D01*
X40981408Y-49473078D01*
X40917860Y-49476200D01*
X40362140Y-49476200D01*
X40298592Y-49473078D01*
X40235655Y-49463742D01*
X40173937Y-49448283D01*
X40114031Y-49426848D01*
X40056515Y-49399645D01*
X40001942Y-49366935D01*
X39950837Y-49329034D01*
X39903694Y-49286306D01*
X39860966Y-49239163D01*
X39823065Y-49188058D01*
X39790355Y-49133485D01*
X39763152Y-49075969D01*
X39741717Y-49016063D01*
X39726258Y-48954345D01*
X39716922Y-48891408D01*
X39713800Y-48827860D01*
X39713800Y-47692140D01*
X39716922Y-47628592D01*
X39726258Y-47565655D01*
X39741717Y-47503937D01*
X39763152Y-47444031D01*
X39790355Y-47386515D01*
X39823065Y-47331942D01*
X39860966Y-47280837D01*
X39903694Y-47233694D01*
X39950837Y-47190966D01*
X40001942Y-47153065D01*
X40056515Y-47120355D01*
X40114031Y-47093152D01*
X40173937Y-47071717D01*
X40235655Y-47056258D01*
X40298592Y-47046922D01*
X40362140Y-47043800D01*
X40917860Y-47043800D01*
X40981408Y-47046922D01*
G37*
G36*
X56221408Y-24186922D02*
G01*
X56284345Y-24196258D01*
X56346063Y-24211717D01*
X56405969Y-24233152D01*
X56463485Y-24260355D01*
X56518058Y-24293065D01*
X56569163Y-24330966D01*
X56616306Y-24373694D01*
X56659034Y-24420837D01*
X56696935Y-24471942D01*
X56729645Y-24526515D01*
X56756848Y-24584031D01*
X56778283Y-24643937D01*
X56793742Y-24705655D01*
X56803078Y-24768592D01*
X56806200Y-24832140D01*
X56806200Y-25967860D01*
X56803078Y-26031408D01*
X56793742Y-26094345D01*
X56778283Y-26156063D01*
X56756848Y-26215969D01*
X56729645Y-26273485D01*
X56696935Y-26328058D01*
X56659034Y-26379163D01*
X56616306Y-26426306D01*
X56569163Y-26469034D01*
X56518058Y-26506935D01*
X56463485Y-26539645D01*
X56405969Y-26566848D01*
X56346063Y-26588283D01*
X56284345Y-26603742D01*
X56221408Y-26613078D01*
X56157860Y-26616200D01*
X55602140Y-26616200D01*
X55538592Y-26613078D01*
X55475655Y-26603742D01*
X55413937Y-26588283D01*
X55354031Y-26566848D01*
X55296515Y-26539645D01*
X55241942Y-26506935D01*
X55190837Y-26469034D01*
X55143694Y-26426306D01*
X55100966Y-26379163D01*
X55063065Y-26328058D01*
X55030355Y-26273485D01*
X55003152Y-26215969D01*
X54981717Y-26156063D01*
X54966258Y-26094345D01*
X54956922Y-26031408D01*
X54953800Y-25967860D01*
X54953800Y-24832140D01*
X54956922Y-24768592D01*
X54966258Y-24705655D01*
X54981717Y-24643937D01*
X55003152Y-24584031D01*
X55030355Y-24526515D01*
X55063065Y-24471942D01*
X55100966Y-24420837D01*
X55143694Y-24373694D01*
X55190837Y-24330966D01*
X55241942Y-24293065D01*
X55296515Y-24260355D01*
X55354031Y-24233152D01*
X55413937Y-24211717D01*
X55475655Y-24196258D01*
X55538592Y-24186922D01*
X55602140Y-24183800D01*
X56157860Y-24183800D01*
X56221408Y-24186922D01*
G37*
G36*
X40981408Y-49586922D02*
G01*
X41044345Y-49596258D01*
X41106063Y-49611717D01*
X41165969Y-49633152D01*
X41223485Y-49660355D01*
X41278058Y-49693065D01*
X41329163Y-49730966D01*
X41376306Y-49773694D01*
X41419034Y-49820837D01*
X41456935Y-49871942D01*
X41489645Y-49926515D01*
X41516848Y-49984031D01*
X41538283Y-50043937D01*
X41553742Y-50105655D01*
X41563078Y-50168592D01*
X41566200Y-50232140D01*
X41566200Y-51367860D01*
X41563078Y-51431408D01*
X41553742Y-51494345D01*
X41538283Y-51556063D01*
X41516848Y-51615969D01*
X41489645Y-51673485D01*
X41456935Y-51728058D01*
X41419034Y-51779163D01*
X41376306Y-51826306D01*
X41329163Y-51869034D01*
X41278058Y-51906935D01*
X41223485Y-51939645D01*
X41165969Y-51966848D01*
X41106063Y-51988283D01*
X41044345Y-52003742D01*
X40981408Y-52013078D01*
X40917860Y-52016200D01*
X40362140Y-52016200D01*
X40298592Y-52013078D01*
X40235655Y-52003742D01*
X40173937Y-51988283D01*
X40114031Y-51966848D01*
X40056515Y-51939645D01*
X40001942Y-51906935D01*
X39950837Y-51869034D01*
X39903694Y-51826306D01*
X39860966Y-51779163D01*
X39823065Y-51728058D01*
X39790355Y-51673485D01*
X39763152Y-51615969D01*
X39741717Y-51556063D01*
X39726258Y-51494345D01*
X39716922Y-51431408D01*
X39713800Y-51367860D01*
X39713800Y-50232140D01*
X39716922Y-50168592D01*
X39726258Y-50105655D01*
X39741717Y-50043937D01*
X39763152Y-49984031D01*
X39790355Y-49926515D01*
X39823065Y-49871942D01*
X39860966Y-49820837D01*
X39903694Y-49773694D01*
X39950837Y-49730966D01*
X40001942Y-49693065D01*
X40056515Y-49660355D01*
X40114031Y-49633152D01*
X40173937Y-49611717D01*
X40235655Y-49596258D01*
X40298592Y-49586922D01*
X40362140Y-49583800D01*
X40917860Y-49583800D01*
X40981408Y-49586922D01*
G37*
G36*
X56221408Y-21646922D02*
G01*
X56284345Y-21656258D01*
X56346063Y-21671717D01*
X56405969Y-21693152D01*
X56463485Y-21720355D01*
X56518058Y-21753065D01*
X56569163Y-21790966D01*
X56616306Y-21833694D01*
X56659034Y-21880837D01*
X56696935Y-21931942D01*
X56729645Y-21986515D01*
X56756848Y-22044031D01*
X56778283Y-22103937D01*
X56793742Y-22165655D01*
X56803078Y-22228592D01*
X56806200Y-22292140D01*
X56806200Y-23427860D01*
X56803078Y-23491408D01*
X56793742Y-23554345D01*
X56778283Y-23616063D01*
X56756848Y-23675969D01*
X56729645Y-23733485D01*
X56696935Y-23788058D01*
X56659034Y-23839163D01*
X56616306Y-23886306D01*
X56569163Y-23929034D01*
X56518058Y-23966935D01*
X56463485Y-23999645D01*
X56405969Y-24026848D01*
X56346063Y-24048283D01*
X56284345Y-24063742D01*
X56221408Y-24073078D01*
X56157860Y-24076200D01*
X55602140Y-24076200D01*
X55538592Y-24073078D01*
X55475655Y-24063742D01*
X55413937Y-24048283D01*
X55354031Y-24026848D01*
X55296515Y-23999645D01*
X55241942Y-23966935D01*
X55190837Y-23929034D01*
X55143694Y-23886306D01*
X55100966Y-23839163D01*
X55063065Y-23788058D01*
X55030355Y-23733485D01*
X55003152Y-23675969D01*
X54981717Y-23616063D01*
X54966258Y-23554345D01*
X54956922Y-23491408D01*
X54953800Y-23427860D01*
X54953800Y-22292140D01*
X54956922Y-22228592D01*
X54966258Y-22165655D01*
X54981717Y-22103937D01*
X55003152Y-22044031D01*
X55030355Y-21986515D01*
X55063065Y-21931942D01*
X55100966Y-21880837D01*
X55143694Y-21833694D01*
X55190837Y-21790966D01*
X55241942Y-21753065D01*
X55296515Y-21720355D01*
X55354031Y-21693152D01*
X55413937Y-21671717D01*
X55475655Y-21656258D01*
X55538592Y-21646922D01*
X55602140Y-21643800D01*
X56157860Y-21643800D01*
X56221408Y-21646922D01*
G37*
G36*
X41118270Y-52127259D02*
G01*
X41188001Y-52137603D01*
X41256383Y-52154731D01*
X41322757Y-52178480D01*
X41386483Y-52208621D01*
X41446948Y-52244862D01*
X41503570Y-52286856D01*
X41555803Y-52334197D01*
X41603144Y-52386430D01*
X41645138Y-52443052D01*
X41681379Y-52503517D01*
X41711520Y-52567243D01*
X41735269Y-52633617D01*
X41752397Y-52701999D01*
X41762741Y-52771730D01*
X41766200Y-52842140D01*
X41766200Y-53837860D01*
X41762741Y-53908270D01*
X41752397Y-53978001D01*
X41735269Y-54046383D01*
X41711520Y-54112757D01*
X41681379Y-54176483D01*
X41645138Y-54236948D01*
X41603144Y-54293570D01*
X41555803Y-54345803D01*
X41503570Y-54393144D01*
X41446948Y-54435138D01*
X41386483Y-54471379D01*
X41322757Y-54501520D01*
X41256383Y-54525269D01*
X41188001Y-54542397D01*
X41118270Y-54552741D01*
X41047860Y-54556200D01*
X40432140Y-54556200D01*
X40361730Y-54552741D01*
X40291999Y-54542397D01*
X40223617Y-54525269D01*
X40157243Y-54501520D01*
X40093517Y-54471379D01*
X40033052Y-54435138D01*
X39976430Y-54393144D01*
X39924197Y-54345803D01*
X39876856Y-54293570D01*
X39834862Y-54236948D01*
X39798621Y-54176483D01*
X39768480Y-54112757D01*
X39744731Y-54046383D01*
X39727603Y-53978001D01*
X39717259Y-53908270D01*
X39713800Y-53837860D01*
X39713800Y-52842140D01*
X39717259Y-52771730D01*
X39727603Y-52701999D01*
X39744731Y-52633617D01*
X39768480Y-52567243D01*
X39798621Y-52503517D01*
X39834862Y-52443052D01*
X39876856Y-52386430D01*
X39924197Y-52334197D01*
X39976430Y-52286856D01*
X40033052Y-52244862D01*
X40093517Y-52208621D01*
X40157243Y-52178480D01*
X40223617Y-52154731D01*
X40291999Y-52137603D01*
X40361730Y-52127259D01*
X40432140Y-52123800D01*
X41047860Y-52123800D01*
X41118270Y-52127259D01*
G37*
G36*
X56158270Y-19107259D02*
G01*
X56228001Y-19117603D01*
X56296383Y-19134731D01*
X56362757Y-19158480D01*
X56426483Y-19188621D01*
X56486948Y-19224862D01*
X56543570Y-19266856D01*
X56595803Y-19314197D01*
X56643144Y-19366430D01*
X56685138Y-19423052D01*
X56721379Y-19483517D01*
X56751520Y-19547243D01*
X56775269Y-19613617D01*
X56792397Y-19681999D01*
X56802741Y-19751730D01*
X56806200Y-19822140D01*
X56806200Y-20817860D01*
X56802741Y-20888270D01*
X56792397Y-20958001D01*
X56775269Y-21026383D01*
X56751520Y-21092757D01*
X56721379Y-21156483D01*
X56685138Y-21216948D01*
X56643144Y-21273570D01*
X56595803Y-21325803D01*
X56543570Y-21373144D01*
X56486948Y-21415138D01*
X56426483Y-21451379D01*
X56362757Y-21481520D01*
X56296383Y-21505269D01*
X56228001Y-21522397D01*
X56158270Y-21532741D01*
X56087860Y-21536200D01*
X55472140Y-21536200D01*
X55401730Y-21532741D01*
X55331999Y-21522397D01*
X55263617Y-21505269D01*
X55197243Y-21481520D01*
X55133517Y-21451379D01*
X55073052Y-21415138D01*
X55016430Y-21373144D01*
X54964197Y-21325803D01*
X54916856Y-21273570D01*
X54874862Y-21216948D01*
X54838621Y-21156483D01*
X54808480Y-21092757D01*
X54784731Y-21026383D01*
X54767603Y-20958001D01*
X54757259Y-20888270D01*
X54753800Y-20817860D01*
X54753800Y-19822140D01*
X54757259Y-19751730D01*
X54767603Y-19681999D01*
X54784731Y-19613617D01*
X54808480Y-19547243D01*
X54838621Y-19483517D01*
X54874862Y-19423052D01*
X54916856Y-19366430D01*
X54964197Y-19314197D01*
X55016430Y-19266856D01*
X55073052Y-19224862D01*
X55133517Y-19188621D01*
X55197243Y-19158480D01*
X55263617Y-19134731D01*
X55331999Y-19117603D01*
X55401730Y-19107259D01*
X55472140Y-19103800D01*
X56087860Y-19103800D01*
X56158270Y-19107259D01*
G37*
G36*
X49736537Y-29179706D02*
G01*
X49754796Y-29182414D01*
X49772703Y-29186900D01*
X49790083Y-29193118D01*
X49806770Y-29201011D01*
X49822603Y-29210501D01*
X49837429Y-29221497D01*
X49851107Y-29233893D01*
X49863503Y-29247571D01*
X49874499Y-29262397D01*
X49883989Y-29278230D01*
X49891882Y-29294917D01*
X49898100Y-29312297D01*
X49902586Y-29330204D01*
X49905294Y-29348463D01*
X49906200Y-29366900D01*
X49906200Y-30618100D01*
X49905294Y-30636537D01*
X49902586Y-30654796D01*
X49898100Y-30672703D01*
X49891882Y-30690083D01*
X49883989Y-30706770D01*
X49874499Y-30722603D01*
X49863503Y-30737429D01*
X49851107Y-30751107D01*
X49837429Y-30763503D01*
X49822603Y-30774499D01*
X49806770Y-30783989D01*
X49790083Y-30791882D01*
X49772703Y-30798100D01*
X49754796Y-30802586D01*
X49736537Y-30805294D01*
X49718100Y-30806200D01*
X49341900Y-30806200D01*
X49323463Y-30805294D01*
X49305204Y-30802586D01*
X49287297Y-30798100D01*
X49269917Y-30791882D01*
X49253230Y-30783989D01*
X49237397Y-30774499D01*
X49222571Y-30763503D01*
X49208893Y-30751107D01*
X49196497Y-30737429D01*
X49185501Y-30722603D01*
X49176011Y-30706770D01*
X49168118Y-30690083D01*
X49161900Y-30672703D01*
X49157414Y-30654796D01*
X49154706Y-30636537D01*
X49153800Y-30618100D01*
X49153800Y-29366900D01*
X49154706Y-29348463D01*
X49157414Y-29330204D01*
X49161900Y-29312297D01*
X49168118Y-29294917D01*
X49176011Y-29278230D01*
X49185501Y-29262397D01*
X49196497Y-29247571D01*
X49208893Y-29233893D01*
X49222571Y-29221497D01*
X49237397Y-29210501D01*
X49253230Y-29201011D01*
X49269917Y-29193118D01*
X49287297Y-29186900D01*
X49305204Y-29182414D01*
X49323463Y-29179706D01*
X49341900Y-29178800D01*
X49718100Y-29178800D01*
X49736537Y-29179706D01*
G37*
G36*
X51006537Y-29179706D02*
G01*
X51024796Y-29182414D01*
X51042703Y-29186900D01*
X51060083Y-29193118D01*
X51076770Y-29201011D01*
X51092603Y-29210501D01*
X51107429Y-29221497D01*
X51121107Y-29233893D01*
X51133503Y-29247571D01*
X51144499Y-29262397D01*
X51153989Y-29278230D01*
X51161882Y-29294917D01*
X51168100Y-29312297D01*
X51172586Y-29330204D01*
X51175294Y-29348463D01*
X51176200Y-29366900D01*
X51176200Y-30618100D01*
X51175294Y-30636537D01*
X51172586Y-30654796D01*
X51168100Y-30672703D01*
X51161882Y-30690083D01*
X51153989Y-30706770D01*
X51144499Y-30722603D01*
X51133503Y-30737429D01*
X51121107Y-30751107D01*
X51107429Y-30763503D01*
X51092603Y-30774499D01*
X51076770Y-30783989D01*
X51060083Y-30791882D01*
X51042703Y-30798100D01*
X51024796Y-30802586D01*
X51006537Y-30805294D01*
X50988100Y-30806200D01*
X50611900Y-30806200D01*
X50593463Y-30805294D01*
X50575204Y-30802586D01*
X50557297Y-30798100D01*
X50539917Y-30791882D01*
X50523230Y-30783989D01*
X50507397Y-30774499D01*
X50492571Y-30763503D01*
X50478893Y-30751107D01*
X50466497Y-30737429D01*
X50455501Y-30722603D01*
X50446011Y-30706770D01*
X50438118Y-30690083D01*
X50431900Y-30672703D01*
X50427414Y-30654796D01*
X50424706Y-30636537D01*
X50423800Y-30618100D01*
X50423800Y-29366900D01*
X50424706Y-29348463D01*
X50427414Y-29330204D01*
X50431900Y-29312297D01*
X50438118Y-29294917D01*
X50446011Y-29278230D01*
X50455501Y-29262397D01*
X50466497Y-29247571D01*
X50478893Y-29233893D01*
X50492571Y-29221497D01*
X50507397Y-29210501D01*
X50523230Y-29201011D01*
X50539917Y-29193118D01*
X50557297Y-29186900D01*
X50575204Y-29182414D01*
X50593463Y-29179706D01*
X50611900Y-29178800D01*
X50988100Y-29178800D01*
X51006537Y-29179706D01*
G37*
G36*
X52276537Y-29179706D02*
G01*
X52294796Y-29182414D01*
X52312703Y-29186900D01*
X52330083Y-29193118D01*
X52346770Y-29201011D01*
X52362603Y-29210501D01*
X52377429Y-29221497D01*
X52391107Y-29233893D01*
X52403503Y-29247571D01*
X52414499Y-29262397D01*
X52423989Y-29278230D01*
X52431882Y-29294917D01*
X52438100Y-29312297D01*
X52442586Y-29330204D01*
X52445294Y-29348463D01*
X52446200Y-29366900D01*
X52446200Y-30618100D01*
X52445294Y-30636537D01*
X52442586Y-30654796D01*
X52438100Y-30672703D01*
X52431882Y-30690083D01*
X52423989Y-30706770D01*
X52414499Y-30722603D01*
X52403503Y-30737429D01*
X52391107Y-30751107D01*
X52377429Y-30763503D01*
X52362603Y-30774499D01*
X52346770Y-30783989D01*
X52330083Y-30791882D01*
X52312703Y-30798100D01*
X52294796Y-30802586D01*
X52276537Y-30805294D01*
X52258100Y-30806200D01*
X51881900Y-30806200D01*
X51863463Y-30805294D01*
X51845204Y-30802586D01*
X51827297Y-30798100D01*
X51809917Y-30791882D01*
X51793230Y-30783989D01*
X51777397Y-30774499D01*
X51762571Y-30763503D01*
X51748893Y-30751107D01*
X51736497Y-30737429D01*
X51725501Y-30722603D01*
X51716011Y-30706770D01*
X51708118Y-30690083D01*
X51701900Y-30672703D01*
X51697414Y-30654796D01*
X51694706Y-30636537D01*
X51693800Y-30618100D01*
X51693800Y-29366900D01*
X51694706Y-29348463D01*
X51697414Y-29330204D01*
X51701900Y-29312297D01*
X51708118Y-29294917D01*
X51716011Y-29278230D01*
X51725501Y-29262397D01*
X51736497Y-29247571D01*
X51748893Y-29233893D01*
X51762571Y-29221497D01*
X51777397Y-29210501D01*
X51793230Y-29201011D01*
X51809917Y-29193118D01*
X51827297Y-29186900D01*
X51845204Y-29182414D01*
X51863463Y-29179706D01*
X51881900Y-29178800D01*
X52258100Y-29178800D01*
X52276537Y-29179706D01*
G37*
G36*
X54466537Y-31374706D02*
G01*
X54484796Y-31377414D01*
X54502703Y-31381900D01*
X54520083Y-31388118D01*
X54536770Y-31396011D01*
X54552603Y-31405501D01*
X54567429Y-31416497D01*
X54581107Y-31428893D01*
X54593503Y-31442571D01*
X54604499Y-31457397D01*
X54613989Y-31473230D01*
X54621882Y-31489917D01*
X54628100Y-31507297D01*
X54632586Y-31525204D01*
X54635294Y-31543463D01*
X54636200Y-31561900D01*
X54636200Y-31938100D01*
X54635294Y-31956537D01*
X54632586Y-31974796D01*
X54628100Y-31992703D01*
X54621882Y-32010083D01*
X54613989Y-32026770D01*
X54604499Y-32042603D01*
X54593503Y-32057429D01*
X54581107Y-32071107D01*
X54567429Y-32083503D01*
X54552603Y-32094499D01*
X54536770Y-32103989D01*
X54520083Y-32111882D01*
X54502703Y-32118100D01*
X54484796Y-32122586D01*
X54466537Y-32125294D01*
X54448100Y-32126200D01*
X53196900Y-32126200D01*
X53178463Y-32125294D01*
X53160204Y-32122586D01*
X53142297Y-32118100D01*
X53124917Y-32111882D01*
X53108230Y-32103989D01*
X53092397Y-32094499D01*
X53077571Y-32083503D01*
X53063893Y-32071107D01*
X53051497Y-32057429D01*
X53040501Y-32042603D01*
X53031011Y-32026770D01*
X53023118Y-32010083D01*
X53016900Y-31992703D01*
X53012414Y-31974796D01*
X53009706Y-31956537D01*
X53008800Y-31938100D01*
X53008800Y-31561900D01*
X53009706Y-31543463D01*
X53012414Y-31525204D01*
X53016900Y-31507297D01*
X53023118Y-31489917D01*
X53031011Y-31473230D01*
X53040501Y-31457397D01*
X53051497Y-31442571D01*
X53063893Y-31428893D01*
X53077571Y-31416497D01*
X53092397Y-31405501D01*
X53108230Y-31396011D01*
X53124917Y-31388118D01*
X53142297Y-31381900D01*
X53160204Y-31377414D01*
X53178463Y-31374706D01*
X53196900Y-31373800D01*
X54448100Y-31373800D01*
X54466537Y-31374706D01*
G37*
G36*
X54466537Y-32644706D02*
G01*
X54484796Y-32647414D01*
X54502703Y-32651900D01*
X54520083Y-32658118D01*
X54536770Y-32666011D01*
X54552603Y-32675501D01*
X54567429Y-32686497D01*
X54581107Y-32698893D01*
X54593503Y-32712571D01*
X54604499Y-32727397D01*
X54613989Y-32743230D01*
X54621882Y-32759917D01*
X54628100Y-32777297D01*
X54632586Y-32795204D01*
X54635294Y-32813463D01*
X54636200Y-32831900D01*
X54636200Y-33208100D01*
X54635294Y-33226537D01*
X54632586Y-33244796D01*
X54628100Y-33262703D01*
X54621882Y-33280083D01*
X54613989Y-33296770D01*
X54604499Y-33312603D01*
X54593503Y-33327429D01*
X54581107Y-33341107D01*
X54567429Y-33353503D01*
X54552603Y-33364499D01*
X54536770Y-33373989D01*
X54520083Y-33381882D01*
X54502703Y-33388100D01*
X54484796Y-33392586D01*
X54466537Y-33395294D01*
X54448100Y-33396200D01*
X53196900Y-33396200D01*
X53178463Y-33395294D01*
X53160204Y-33392586D01*
X53142297Y-33388100D01*
X53124917Y-33381882D01*
X53108230Y-33373989D01*
X53092397Y-33364499D01*
X53077571Y-33353503D01*
X53063893Y-33341107D01*
X53051497Y-33327429D01*
X53040501Y-33312603D01*
X53031011Y-33296770D01*
X53023118Y-33280083D01*
X53016900Y-33262703D01*
X53012414Y-33244796D01*
X53009706Y-33226537D01*
X53008800Y-33208100D01*
X53008800Y-32831900D01*
X53009706Y-32813463D01*
X53012414Y-32795204D01*
X53016900Y-32777297D01*
X53023118Y-32759917D01*
X53031011Y-32743230D01*
X53040501Y-32727397D01*
X53051497Y-32712571D01*
X53063893Y-32698893D01*
X53077571Y-32686497D01*
X53092397Y-32675501D01*
X53108230Y-32666011D01*
X53124917Y-32658118D01*
X53142297Y-32651900D01*
X53160204Y-32647414D01*
X53178463Y-32644706D01*
X53196900Y-32643800D01*
X54448100Y-32643800D01*
X54466537Y-32644706D01*
G37*
G36*
X54466537Y-33914706D02*
G01*
X54484796Y-33917414D01*
X54502703Y-33921900D01*
X54520083Y-33928118D01*
X54536770Y-33936011D01*
X54552603Y-33945501D01*
X54567429Y-33956497D01*
X54581107Y-33968893D01*
X54593503Y-33982571D01*
X54604499Y-33997397D01*
X54613989Y-34013230D01*
X54621882Y-34029917D01*
X54628100Y-34047297D01*
X54632586Y-34065204D01*
X54635294Y-34083463D01*
X54636200Y-34101900D01*
X54636200Y-34478100D01*
X54635294Y-34496537D01*
X54632586Y-34514796D01*
X54628100Y-34532703D01*
X54621882Y-34550083D01*
X54613989Y-34566770D01*
X54604499Y-34582603D01*
X54593503Y-34597429D01*
X54581107Y-34611107D01*
X54567429Y-34623503D01*
X54552603Y-34634499D01*
X54536770Y-34643989D01*
X54520083Y-34651882D01*
X54502703Y-34658100D01*
X54484796Y-34662586D01*
X54466537Y-34665294D01*
X54448100Y-34666200D01*
X53196900Y-34666200D01*
X53178463Y-34665294D01*
X53160204Y-34662586D01*
X53142297Y-34658100D01*
X53124917Y-34651882D01*
X53108230Y-34643989D01*
X53092397Y-34634499D01*
X53077571Y-34623503D01*
X53063893Y-34611107D01*
X53051497Y-34597429D01*
X53040501Y-34582603D01*
X53031011Y-34566770D01*
X53023118Y-34550083D01*
X53016900Y-34532703D01*
X53012414Y-34514796D01*
X53009706Y-34496537D01*
X53008800Y-34478100D01*
X53008800Y-34101900D01*
X53009706Y-34083463D01*
X53012414Y-34065204D01*
X53016900Y-34047297D01*
X53023118Y-34029917D01*
X53031011Y-34013230D01*
X53040501Y-33997397D01*
X53051497Y-33982571D01*
X53063893Y-33968893D01*
X53077571Y-33956497D01*
X53092397Y-33945501D01*
X53108230Y-33936011D01*
X53124917Y-33928118D01*
X53142297Y-33921900D01*
X53160204Y-33917414D01*
X53178463Y-33914706D01*
X53196900Y-33913800D01*
X54448100Y-33913800D01*
X54466537Y-33914706D01*
G37*
G36*
X54466537Y-35184706D02*
G01*
X54484796Y-35187414D01*
X54502703Y-35191900D01*
X54520083Y-35198118D01*
X54536770Y-35206011D01*
X54552603Y-35215501D01*
X54567429Y-35226497D01*
X54581107Y-35238893D01*
X54593503Y-35252571D01*
X54604499Y-35267397D01*
X54613989Y-35283230D01*
X54621882Y-35299917D01*
X54628100Y-35317297D01*
X54632586Y-35335204D01*
X54635294Y-35353463D01*
X54636200Y-35371900D01*
X54636200Y-35748100D01*
X54635294Y-35766537D01*
X54632586Y-35784796D01*
X54628100Y-35802703D01*
X54621882Y-35820083D01*
X54613989Y-35836770D01*
X54604499Y-35852603D01*
X54593503Y-35867429D01*
X54581107Y-35881107D01*
X54567429Y-35893503D01*
X54552603Y-35904499D01*
X54536770Y-35913989D01*
X54520083Y-35921882D01*
X54502703Y-35928100D01*
X54484796Y-35932586D01*
X54466537Y-35935294D01*
X54448100Y-35936200D01*
X53196900Y-35936200D01*
X53178463Y-35935294D01*
X53160204Y-35932586D01*
X53142297Y-35928100D01*
X53124917Y-35921882D01*
X53108230Y-35913989D01*
X53092397Y-35904499D01*
X53077571Y-35893503D01*
X53063893Y-35881107D01*
X53051497Y-35867429D01*
X53040501Y-35852603D01*
X53031011Y-35836770D01*
X53023118Y-35820083D01*
X53016900Y-35802703D01*
X53012414Y-35784796D01*
X53009706Y-35766537D01*
X53008800Y-35748100D01*
X53008800Y-35371900D01*
X53009706Y-35353463D01*
X53012414Y-35335204D01*
X53016900Y-35317297D01*
X53023118Y-35299917D01*
X53031011Y-35283230D01*
X53040501Y-35267397D01*
X53051497Y-35252571D01*
X53063893Y-35238893D01*
X53077571Y-35226497D01*
X53092397Y-35215501D01*
X53108230Y-35206011D01*
X53124917Y-35198118D01*
X53142297Y-35191900D01*
X53160204Y-35187414D01*
X53178463Y-35184706D01*
X53196900Y-35183800D01*
X54448100Y-35183800D01*
X54466537Y-35184706D01*
G37*
G36*
X54466537Y-36454706D02*
G01*
X54484796Y-36457414D01*
X54502703Y-36461900D01*
X54520083Y-36468118D01*
X54536770Y-36476011D01*
X54552603Y-36485501D01*
X54567429Y-36496497D01*
X54581107Y-36508893D01*
X54593503Y-36522571D01*
X54604499Y-36537397D01*
X54613989Y-36553230D01*
X54621882Y-36569917D01*
X54628100Y-36587297D01*
X54632586Y-36605204D01*
X54635294Y-36623463D01*
X54636200Y-36641900D01*
X54636200Y-37018100D01*
X54635294Y-37036537D01*
X54632586Y-37054796D01*
X54628100Y-37072703D01*
X54621882Y-37090083D01*
X54613989Y-37106770D01*
X54604499Y-37122603D01*
X54593503Y-37137429D01*
X54581107Y-37151107D01*
X54567429Y-37163503D01*
X54552603Y-37174499D01*
X54536770Y-37183989D01*
X54520083Y-37191882D01*
X54502703Y-37198100D01*
X54484796Y-37202586D01*
X54466537Y-37205294D01*
X54448100Y-37206200D01*
X53196900Y-37206200D01*
X53178463Y-37205294D01*
X53160204Y-37202586D01*
X53142297Y-37198100D01*
X53124917Y-37191882D01*
X53108230Y-37183989D01*
X53092397Y-37174499D01*
X53077571Y-37163503D01*
X53063893Y-37151107D01*
X53051497Y-37137429D01*
X53040501Y-37122603D01*
X53031011Y-37106770D01*
X53023118Y-37090083D01*
X53016900Y-37072703D01*
X53012414Y-37054796D01*
X53009706Y-37036537D01*
X53008800Y-37018100D01*
X53008800Y-36641900D01*
X53009706Y-36623463D01*
X53012414Y-36605204D01*
X53016900Y-36587297D01*
X53023118Y-36569917D01*
X53031011Y-36553230D01*
X53040501Y-36537397D01*
X53051497Y-36522571D01*
X53063893Y-36508893D01*
X53077571Y-36496497D01*
X53092397Y-36485501D01*
X53108230Y-36476011D01*
X53124917Y-36468118D01*
X53142297Y-36461900D01*
X53160204Y-36457414D01*
X53178463Y-36454706D01*
X53196900Y-36453800D01*
X54448100Y-36453800D01*
X54466537Y-36454706D01*
G37*
G36*
X54466537Y-37724706D02*
G01*
X54484796Y-37727414D01*
X54502703Y-37731900D01*
X54520083Y-37738118D01*
X54536770Y-37746011D01*
X54552603Y-37755501D01*
X54567429Y-37766497D01*
X54581107Y-37778893D01*
X54593503Y-37792571D01*
X54604499Y-37807397D01*
X54613989Y-37823230D01*
X54621882Y-37839917D01*
X54628100Y-37857297D01*
X54632586Y-37875204D01*
X54635294Y-37893463D01*
X54636200Y-37911900D01*
X54636200Y-38288100D01*
X54635294Y-38306537D01*
X54632586Y-38324796D01*
X54628100Y-38342703D01*
X54621882Y-38360083D01*
X54613989Y-38376770D01*
X54604499Y-38392603D01*
X54593503Y-38407429D01*
X54581107Y-38421107D01*
X54567429Y-38433503D01*
X54552603Y-38444499D01*
X54536770Y-38453989D01*
X54520083Y-38461882D01*
X54502703Y-38468100D01*
X54484796Y-38472586D01*
X54466537Y-38475294D01*
X54448100Y-38476200D01*
X53196900Y-38476200D01*
X53178463Y-38475294D01*
X53160204Y-38472586D01*
X53142297Y-38468100D01*
X53124917Y-38461882D01*
X53108230Y-38453989D01*
X53092397Y-38444499D01*
X53077571Y-38433503D01*
X53063893Y-38421107D01*
X53051497Y-38407429D01*
X53040501Y-38392603D01*
X53031011Y-38376770D01*
X53023118Y-38360083D01*
X53016900Y-38342703D01*
X53012414Y-38324796D01*
X53009706Y-38306537D01*
X53008800Y-38288100D01*
X53008800Y-37911900D01*
X53009706Y-37893463D01*
X53012414Y-37875204D01*
X53016900Y-37857297D01*
X53023118Y-37839917D01*
X53031011Y-37823230D01*
X53040501Y-37807397D01*
X53051497Y-37792571D01*
X53063893Y-37778893D01*
X53077571Y-37766497D01*
X53092397Y-37755501D01*
X53108230Y-37746011D01*
X53124917Y-37738118D01*
X53142297Y-37731900D01*
X53160204Y-37727414D01*
X53178463Y-37724706D01*
X53196900Y-37723800D01*
X54448100Y-37723800D01*
X54466537Y-37724706D01*
G37*
G36*
X54466537Y-38994706D02*
G01*
X54484796Y-38997414D01*
X54502703Y-39001900D01*
X54520083Y-39008118D01*
X54536770Y-39016011D01*
X54552603Y-39025501D01*
X54567429Y-39036497D01*
X54581107Y-39048893D01*
X54593503Y-39062571D01*
X54604499Y-39077397D01*
X54613989Y-39093230D01*
X54621882Y-39109917D01*
X54628100Y-39127297D01*
X54632586Y-39145204D01*
X54635294Y-39163463D01*
X54636200Y-39181900D01*
X54636200Y-39558100D01*
X54635294Y-39576537D01*
X54632586Y-39594796D01*
X54628100Y-39612703D01*
X54621882Y-39630083D01*
X54613989Y-39646770D01*
X54604499Y-39662603D01*
X54593503Y-39677429D01*
X54581107Y-39691107D01*
X54567429Y-39703503D01*
X54552603Y-39714499D01*
X54536770Y-39723989D01*
X54520083Y-39731882D01*
X54502703Y-39738100D01*
X54484796Y-39742586D01*
X54466537Y-39745294D01*
X54448100Y-39746200D01*
X53196900Y-39746200D01*
X53178463Y-39745294D01*
X53160204Y-39742586D01*
X53142297Y-39738100D01*
X53124917Y-39731882D01*
X53108230Y-39723989D01*
X53092397Y-39714499D01*
X53077571Y-39703503D01*
X53063893Y-39691107D01*
X53051497Y-39677429D01*
X53040501Y-39662603D01*
X53031011Y-39646770D01*
X53023118Y-39630083D01*
X53016900Y-39612703D01*
X53012414Y-39594796D01*
X53009706Y-39576537D01*
X53008800Y-39558100D01*
X53008800Y-39181900D01*
X53009706Y-39163463D01*
X53012414Y-39145204D01*
X53016900Y-39127297D01*
X53023118Y-39109917D01*
X53031011Y-39093230D01*
X53040501Y-39077397D01*
X53051497Y-39062571D01*
X53063893Y-39048893D01*
X53077571Y-39036497D01*
X53092397Y-39025501D01*
X53108230Y-39016011D01*
X53124917Y-39008118D01*
X53142297Y-39001900D01*
X53160204Y-38997414D01*
X53178463Y-38994706D01*
X53196900Y-38993800D01*
X54448100Y-38993800D01*
X54466537Y-38994706D01*
G37*
G36*
X54466537Y-40264706D02*
G01*
X54484796Y-40267414D01*
X54502703Y-40271900D01*
X54520083Y-40278118D01*
X54536770Y-40286011D01*
X54552603Y-40295501D01*
X54567429Y-40306497D01*
X54581107Y-40318893D01*
X54593503Y-40332571D01*
X54604499Y-40347397D01*
X54613989Y-40363230D01*
X54621882Y-40379917D01*
X54628100Y-40397297D01*
X54632586Y-40415204D01*
X54635294Y-40433463D01*
X54636200Y-40451900D01*
X54636200Y-40828100D01*
X54635294Y-40846537D01*
X54632586Y-40864796D01*
X54628100Y-40882703D01*
X54621882Y-40900083D01*
X54613989Y-40916770D01*
X54604499Y-40932603D01*
X54593503Y-40947429D01*
X54581107Y-40961107D01*
X54567429Y-40973503D01*
X54552603Y-40984499D01*
X54536770Y-40993989D01*
X54520083Y-41001882D01*
X54502703Y-41008100D01*
X54484796Y-41012586D01*
X54466537Y-41015294D01*
X54448100Y-41016200D01*
X53196900Y-41016200D01*
X53178463Y-41015294D01*
X53160204Y-41012586D01*
X53142297Y-41008100D01*
X53124917Y-41001882D01*
X53108230Y-40993989D01*
X53092397Y-40984499D01*
X53077571Y-40973503D01*
X53063893Y-40961107D01*
X53051497Y-40947429D01*
X53040501Y-40932603D01*
X53031011Y-40916770D01*
X53023118Y-40900083D01*
X53016900Y-40882703D01*
X53012414Y-40864796D01*
X53009706Y-40846537D01*
X53008800Y-40828100D01*
X53008800Y-40451900D01*
X53009706Y-40433463D01*
X53012414Y-40415204D01*
X53016900Y-40397297D01*
X53023118Y-40379917D01*
X53031011Y-40363230D01*
X53040501Y-40347397D01*
X53051497Y-40332571D01*
X53063893Y-40318893D01*
X53077571Y-40306497D01*
X53092397Y-40295501D01*
X53108230Y-40286011D01*
X53124917Y-40278118D01*
X53142297Y-40271900D01*
X53160204Y-40267414D01*
X53178463Y-40264706D01*
X53196900Y-40263800D01*
X54448100Y-40263800D01*
X54466537Y-40264706D01*
G37*
G36*
X54466537Y-41534706D02*
G01*
X54484796Y-41537414D01*
X54502703Y-41541900D01*
X54520083Y-41548118D01*
X54536770Y-41556011D01*
X54552603Y-41565501D01*
X54567429Y-41576497D01*
X54581107Y-41588893D01*
X54593503Y-41602571D01*
X54604499Y-41617397D01*
X54613989Y-41633230D01*
X54621882Y-41649917D01*
X54628100Y-41667297D01*
X54632586Y-41685204D01*
X54635294Y-41703463D01*
X54636200Y-41721900D01*
X54636200Y-42098100D01*
X54635294Y-42116537D01*
X54632586Y-42134796D01*
X54628100Y-42152703D01*
X54621882Y-42170083D01*
X54613989Y-42186770D01*
X54604499Y-42202603D01*
X54593503Y-42217429D01*
X54581107Y-42231107D01*
X54567429Y-42243503D01*
X54552603Y-42254499D01*
X54536770Y-42263989D01*
X54520083Y-42271882D01*
X54502703Y-42278100D01*
X54484796Y-42282586D01*
X54466537Y-42285294D01*
X54448100Y-42286200D01*
X53196900Y-42286200D01*
X53178463Y-42285294D01*
X53160204Y-42282586D01*
X53142297Y-42278100D01*
X53124917Y-42271882D01*
X53108230Y-42263989D01*
X53092397Y-42254499D01*
X53077571Y-42243503D01*
X53063893Y-42231107D01*
X53051497Y-42217429D01*
X53040501Y-42202603D01*
X53031011Y-42186770D01*
X53023118Y-42170083D01*
X53016900Y-42152703D01*
X53012414Y-42134796D01*
X53009706Y-42116537D01*
X53008800Y-42098100D01*
X53008800Y-41721900D01*
X53009706Y-41703463D01*
X53012414Y-41685204D01*
X53016900Y-41667297D01*
X53023118Y-41649917D01*
X53031011Y-41633230D01*
X53040501Y-41617397D01*
X53051497Y-41602571D01*
X53063893Y-41588893D01*
X53077571Y-41576497D01*
X53092397Y-41565501D01*
X53108230Y-41556011D01*
X53124917Y-41548118D01*
X53142297Y-41541900D01*
X53160204Y-41537414D01*
X53178463Y-41534706D01*
X53196900Y-41533800D01*
X54448100Y-41533800D01*
X54466537Y-41534706D01*
G37*
G36*
X52276537Y-42854706D02*
G01*
X52294796Y-42857414D01*
X52312703Y-42861900D01*
X52330083Y-42868118D01*
X52346770Y-42876011D01*
X52362603Y-42885501D01*
X52377429Y-42896497D01*
X52391107Y-42908893D01*
X52403503Y-42922571D01*
X52414499Y-42937397D01*
X52423989Y-42953230D01*
X52431882Y-42969917D01*
X52438100Y-42987297D01*
X52442586Y-43005204D01*
X52445294Y-43023463D01*
X52446200Y-43041900D01*
X52446200Y-44293100D01*
X52445294Y-44311537D01*
X52442586Y-44329796D01*
X52438100Y-44347703D01*
X52431882Y-44365083D01*
X52423989Y-44381770D01*
X52414499Y-44397603D01*
X52403503Y-44412429D01*
X52391107Y-44426107D01*
X52377429Y-44438503D01*
X52362603Y-44449499D01*
X52346770Y-44458989D01*
X52330083Y-44466882D01*
X52312703Y-44473100D01*
X52294796Y-44477586D01*
X52276537Y-44480294D01*
X52258100Y-44481200D01*
X51881900Y-44481200D01*
X51863463Y-44480294D01*
X51845204Y-44477586D01*
X51827297Y-44473100D01*
X51809917Y-44466882D01*
X51793230Y-44458989D01*
X51777397Y-44449499D01*
X51762571Y-44438503D01*
X51748893Y-44426107D01*
X51736497Y-44412429D01*
X51725501Y-44397603D01*
X51716011Y-44381770D01*
X51708118Y-44365083D01*
X51701900Y-44347703D01*
X51697414Y-44329796D01*
X51694706Y-44311537D01*
X51693800Y-44293100D01*
X51693800Y-43041900D01*
X51694706Y-43023463D01*
X51697414Y-43005204D01*
X51701900Y-42987297D01*
X51708118Y-42969917D01*
X51716011Y-42953230D01*
X51725501Y-42937397D01*
X51736497Y-42922571D01*
X51748893Y-42908893D01*
X51762571Y-42896497D01*
X51777397Y-42885501D01*
X51793230Y-42876011D01*
X51809917Y-42868118D01*
X51827297Y-42861900D01*
X51845204Y-42857414D01*
X51863463Y-42854706D01*
X51881900Y-42853800D01*
X52258100Y-42853800D01*
X52276537Y-42854706D01*
G37*
G36*
X51006537Y-42854706D02*
G01*
X51024796Y-42857414D01*
X51042703Y-42861900D01*
X51060083Y-42868118D01*
X51076770Y-42876011D01*
X51092603Y-42885501D01*
X51107429Y-42896497D01*
X51121107Y-42908893D01*
X51133503Y-42922571D01*
X51144499Y-42937397D01*
X51153989Y-42953230D01*
X51161882Y-42969917D01*
X51168100Y-42987297D01*
X51172586Y-43005204D01*
X51175294Y-43023463D01*
X51176200Y-43041900D01*
X51176200Y-44293100D01*
X51175294Y-44311537D01*
X51172586Y-44329796D01*
X51168100Y-44347703D01*
X51161882Y-44365083D01*
X51153989Y-44381770D01*
X51144499Y-44397603D01*
X51133503Y-44412429D01*
X51121107Y-44426107D01*
X51107429Y-44438503D01*
X51092603Y-44449499D01*
X51076770Y-44458989D01*
X51060083Y-44466882D01*
X51042703Y-44473100D01*
X51024796Y-44477586D01*
X51006537Y-44480294D01*
X50988100Y-44481200D01*
X50611900Y-44481200D01*
X50593463Y-44480294D01*
X50575204Y-44477586D01*
X50557297Y-44473100D01*
X50539917Y-44466882D01*
X50523230Y-44458989D01*
X50507397Y-44449499D01*
X50492571Y-44438503D01*
X50478893Y-44426107D01*
X50466497Y-44412429D01*
X50455501Y-44397603D01*
X50446011Y-44381770D01*
X50438118Y-44365083D01*
X50431900Y-44347703D01*
X50427414Y-44329796D01*
X50424706Y-44311537D01*
X50423800Y-44293100D01*
X50423800Y-43041900D01*
X50424706Y-43023463D01*
X50427414Y-43005204D01*
X50431900Y-42987297D01*
X50438118Y-42969917D01*
X50446011Y-42953230D01*
X50455501Y-42937397D01*
X50466497Y-42922571D01*
X50478893Y-42908893D01*
X50492571Y-42896497D01*
X50507397Y-42885501D01*
X50523230Y-42876011D01*
X50539917Y-42868118D01*
X50557297Y-42861900D01*
X50575204Y-42857414D01*
X50593463Y-42854706D01*
X50611900Y-42853800D01*
X50988100Y-42853800D01*
X51006537Y-42854706D01*
G37*
G36*
X49736537Y-42854706D02*
G01*
X49754796Y-42857414D01*
X49772703Y-42861900D01*
X49790083Y-42868118D01*
X49806770Y-42876011D01*
X49822603Y-42885501D01*
X49837429Y-42896497D01*
X49851107Y-42908893D01*
X49863503Y-42922571D01*
X49874499Y-42937397D01*
X49883989Y-42953230D01*
X49891882Y-42969917D01*
X49898100Y-42987297D01*
X49902586Y-43005204D01*
X49905294Y-43023463D01*
X49906200Y-43041900D01*
X49906200Y-44293100D01*
X49905294Y-44311537D01*
X49902586Y-44329796D01*
X49898100Y-44347703D01*
X49891882Y-44365083D01*
X49883989Y-44381770D01*
X49874499Y-44397603D01*
X49863503Y-44412429D01*
X49851107Y-44426107D01*
X49837429Y-44438503D01*
X49822603Y-44449499D01*
X49806770Y-44458989D01*
X49790083Y-44466882D01*
X49772703Y-44473100D01*
X49754796Y-44477586D01*
X49736537Y-44480294D01*
X49718100Y-44481200D01*
X49341900Y-44481200D01*
X49323463Y-44480294D01*
X49305204Y-44477586D01*
X49287297Y-44473100D01*
X49269917Y-44466882D01*
X49253230Y-44458989D01*
X49237397Y-44449499D01*
X49222571Y-44438503D01*
X49208893Y-44426107D01*
X49196497Y-44412429D01*
X49185501Y-44397603D01*
X49176011Y-44381770D01*
X49168118Y-44365083D01*
X49161900Y-44347703D01*
X49157414Y-44329796D01*
X49154706Y-44311537D01*
X49153800Y-44293100D01*
X49153800Y-43041900D01*
X49154706Y-43023463D01*
X49157414Y-43005204D01*
X49161900Y-42987297D01*
X49168118Y-42969917D01*
X49176011Y-42953230D01*
X49185501Y-42937397D01*
X49196497Y-42922571D01*
X49208893Y-42908893D01*
X49222571Y-42896497D01*
X49237397Y-42885501D01*
X49253230Y-42876011D01*
X49269917Y-42868118D01*
X49287297Y-42861900D01*
X49305204Y-42857414D01*
X49323463Y-42854706D01*
X49341900Y-42853800D01*
X49718100Y-42853800D01*
X49736537Y-42854706D01*
G37*
G36*
X48466537Y-42854706D02*
G01*
X48484796Y-42857414D01*
X48502703Y-42861900D01*
X48520083Y-42868118D01*
X48536770Y-42876011D01*
X48552603Y-42885501D01*
X48567429Y-42896497D01*
X48581107Y-42908893D01*
X48593503Y-42922571D01*
X48604499Y-42937397D01*
X48613989Y-42953230D01*
X48621882Y-42969917D01*
X48628100Y-42987297D01*
X48632586Y-43005204D01*
X48635294Y-43023463D01*
X48636200Y-43041900D01*
X48636200Y-44293100D01*
X48635294Y-44311537D01*
X48632586Y-44329796D01*
X48628100Y-44347703D01*
X48621882Y-44365083D01*
X48613989Y-44381770D01*
X48604499Y-44397603D01*
X48593503Y-44412429D01*
X48581107Y-44426107D01*
X48567429Y-44438503D01*
X48552603Y-44449499D01*
X48536770Y-44458989D01*
X48520083Y-44466882D01*
X48502703Y-44473100D01*
X48484796Y-44477586D01*
X48466537Y-44480294D01*
X48448100Y-44481200D01*
X48071900Y-44481200D01*
X48053463Y-44480294D01*
X48035204Y-44477586D01*
X48017297Y-44473100D01*
X47999917Y-44466882D01*
X47983230Y-44458989D01*
X47967397Y-44449499D01*
X47952571Y-44438503D01*
X47938893Y-44426107D01*
X47926497Y-44412429D01*
X47915501Y-44397603D01*
X47906011Y-44381770D01*
X47898118Y-44365083D01*
X47891900Y-44347703D01*
X47887414Y-44329796D01*
X47884706Y-44311537D01*
X47883800Y-44293100D01*
X47883800Y-43041900D01*
X47884706Y-43023463D01*
X47887414Y-43005204D01*
X47891900Y-42987297D01*
X47898118Y-42969917D01*
X47906011Y-42953230D01*
X47915501Y-42937397D01*
X47926497Y-42922571D01*
X47938893Y-42908893D01*
X47952571Y-42896497D01*
X47967397Y-42885501D01*
X47983230Y-42876011D01*
X47999917Y-42868118D01*
X48017297Y-42861900D01*
X48035204Y-42857414D01*
X48053463Y-42854706D01*
X48071900Y-42853800D01*
X48448100Y-42853800D01*
X48466537Y-42854706D01*
G37*
G36*
X47196537Y-42854706D02*
G01*
X47214796Y-42857414D01*
X47232703Y-42861900D01*
X47250083Y-42868118D01*
X47266770Y-42876011D01*
X47282603Y-42885501D01*
X47297429Y-42896497D01*
X47311107Y-42908893D01*
X47323503Y-42922571D01*
X47334499Y-42937397D01*
X47343989Y-42953230D01*
X47351882Y-42969917D01*
X47358100Y-42987297D01*
X47362586Y-43005204D01*
X47365294Y-43023463D01*
X47366200Y-43041900D01*
X47366200Y-44293100D01*
X47365294Y-44311537D01*
X47362586Y-44329796D01*
X47358100Y-44347703D01*
X47351882Y-44365083D01*
X47343989Y-44381770D01*
X47334499Y-44397603D01*
X47323503Y-44412429D01*
X47311107Y-44426107D01*
X47297429Y-44438503D01*
X47282603Y-44449499D01*
X47266770Y-44458989D01*
X47250083Y-44466882D01*
X47232703Y-44473100D01*
X47214796Y-44477586D01*
X47196537Y-44480294D01*
X47178100Y-44481200D01*
X46801900Y-44481200D01*
X46783463Y-44480294D01*
X46765204Y-44477586D01*
X46747297Y-44473100D01*
X46729917Y-44466882D01*
X46713230Y-44458989D01*
X46697397Y-44449499D01*
X46682571Y-44438503D01*
X46668893Y-44426107D01*
X46656497Y-44412429D01*
X46645501Y-44397603D01*
X46636011Y-44381770D01*
X46628118Y-44365083D01*
X46621900Y-44347703D01*
X46617414Y-44329796D01*
X46614706Y-44311537D01*
X46613800Y-44293100D01*
X46613800Y-43041900D01*
X46614706Y-43023463D01*
X46617414Y-43005204D01*
X46621900Y-42987297D01*
X46628118Y-42969917D01*
X46636011Y-42953230D01*
X46645501Y-42937397D01*
X46656497Y-42922571D01*
X46668893Y-42908893D01*
X46682571Y-42896497D01*
X46697397Y-42885501D01*
X46713230Y-42876011D01*
X46729917Y-42868118D01*
X46747297Y-42861900D01*
X46765204Y-42857414D01*
X46783463Y-42854706D01*
X46801900Y-42853800D01*
X47178100Y-42853800D01*
X47196537Y-42854706D01*
G37*
G36*
X45926537Y-42854706D02*
G01*
X45944796Y-42857414D01*
X45962703Y-42861900D01*
X45980083Y-42868118D01*
X45996770Y-42876011D01*
X46012603Y-42885501D01*
X46027429Y-42896497D01*
X46041107Y-42908893D01*
X46053503Y-42922571D01*
X46064499Y-42937397D01*
X46073989Y-42953230D01*
X46081882Y-42969917D01*
X46088100Y-42987297D01*
X46092586Y-43005204D01*
X46095294Y-43023463D01*
X46096200Y-43041900D01*
X46096200Y-44293100D01*
X46095294Y-44311537D01*
X46092586Y-44329796D01*
X46088100Y-44347703D01*
X46081882Y-44365083D01*
X46073989Y-44381770D01*
X46064499Y-44397603D01*
X46053503Y-44412429D01*
X46041107Y-44426107D01*
X46027429Y-44438503D01*
X46012603Y-44449499D01*
X45996770Y-44458989D01*
X45980083Y-44466882D01*
X45962703Y-44473100D01*
X45944796Y-44477586D01*
X45926537Y-44480294D01*
X45908100Y-44481200D01*
X45531900Y-44481200D01*
X45513463Y-44480294D01*
X45495204Y-44477586D01*
X45477297Y-44473100D01*
X45459917Y-44466882D01*
X45443230Y-44458989D01*
X45427397Y-44449499D01*
X45412571Y-44438503D01*
X45398893Y-44426107D01*
X45386497Y-44412429D01*
X45375501Y-44397603D01*
X45366011Y-44381770D01*
X45358118Y-44365083D01*
X45351900Y-44347703D01*
X45347414Y-44329796D01*
X45344706Y-44311537D01*
X45343800Y-44293100D01*
X45343800Y-43041900D01*
X45344706Y-43023463D01*
X45347414Y-43005204D01*
X45351900Y-42987297D01*
X45358118Y-42969917D01*
X45366011Y-42953230D01*
X45375501Y-42937397D01*
X45386497Y-42922571D01*
X45398893Y-42908893D01*
X45412571Y-42896497D01*
X45427397Y-42885501D01*
X45443230Y-42876011D01*
X45459917Y-42868118D01*
X45477297Y-42861900D01*
X45495204Y-42857414D01*
X45513463Y-42854706D01*
X45531900Y-42853800D01*
X45908100Y-42853800D01*
X45926537Y-42854706D01*
G37*
G36*
X44656537Y-42854706D02*
G01*
X44674796Y-42857414D01*
X44692703Y-42861900D01*
X44710083Y-42868118D01*
X44726770Y-42876011D01*
X44742603Y-42885501D01*
X44757429Y-42896497D01*
X44771107Y-42908893D01*
X44783503Y-42922571D01*
X44794499Y-42937397D01*
X44803989Y-42953230D01*
X44811882Y-42969917D01*
X44818100Y-42987297D01*
X44822586Y-43005204D01*
X44825294Y-43023463D01*
X44826200Y-43041900D01*
X44826200Y-44293100D01*
X44825294Y-44311537D01*
X44822586Y-44329796D01*
X44818100Y-44347703D01*
X44811882Y-44365083D01*
X44803989Y-44381770D01*
X44794499Y-44397603D01*
X44783503Y-44412429D01*
X44771107Y-44426107D01*
X44757429Y-44438503D01*
X44742603Y-44449499D01*
X44726770Y-44458989D01*
X44710083Y-44466882D01*
X44692703Y-44473100D01*
X44674796Y-44477586D01*
X44656537Y-44480294D01*
X44638100Y-44481200D01*
X44261900Y-44481200D01*
X44243463Y-44480294D01*
X44225204Y-44477586D01*
X44207297Y-44473100D01*
X44189917Y-44466882D01*
X44173230Y-44458989D01*
X44157397Y-44449499D01*
X44142571Y-44438503D01*
X44128893Y-44426107D01*
X44116497Y-44412429D01*
X44105501Y-44397603D01*
X44096011Y-44381770D01*
X44088118Y-44365083D01*
X44081900Y-44347703D01*
X44077414Y-44329796D01*
X44074706Y-44311537D01*
X44073800Y-44293100D01*
X44073800Y-43041900D01*
X44074706Y-43023463D01*
X44077414Y-43005204D01*
X44081900Y-42987297D01*
X44088118Y-42969917D01*
X44096011Y-42953230D01*
X44105501Y-42937397D01*
X44116497Y-42922571D01*
X44128893Y-42908893D01*
X44142571Y-42896497D01*
X44157397Y-42885501D01*
X44173230Y-42876011D01*
X44189917Y-42868118D01*
X44207297Y-42861900D01*
X44225204Y-42857414D01*
X44243463Y-42854706D01*
X44261900Y-42853800D01*
X44638100Y-42853800D01*
X44656537Y-42854706D01*
G37*
G36*
X43341537Y-41534706D02*
G01*
X43359796Y-41537414D01*
X43377703Y-41541900D01*
X43395083Y-41548118D01*
X43411770Y-41556011D01*
X43427603Y-41565501D01*
X43442429Y-41576497D01*
X43456107Y-41588893D01*
X43468503Y-41602571D01*
X43479499Y-41617397D01*
X43488989Y-41633230D01*
X43496882Y-41649917D01*
X43503100Y-41667297D01*
X43507586Y-41685204D01*
X43510294Y-41703463D01*
X43511200Y-41721900D01*
X43511200Y-42098100D01*
X43510294Y-42116537D01*
X43507586Y-42134796D01*
X43503100Y-42152703D01*
X43496882Y-42170083D01*
X43488989Y-42186770D01*
X43479499Y-42202603D01*
X43468503Y-42217429D01*
X43456107Y-42231107D01*
X43442429Y-42243503D01*
X43427603Y-42254499D01*
X43411770Y-42263989D01*
X43395083Y-42271882D01*
X43377703Y-42278100D01*
X43359796Y-42282586D01*
X43341537Y-42285294D01*
X43323100Y-42286200D01*
X42071900Y-42286200D01*
X42053463Y-42285294D01*
X42035204Y-42282586D01*
X42017297Y-42278100D01*
X41999917Y-42271882D01*
X41983230Y-42263989D01*
X41967397Y-42254499D01*
X41952571Y-42243503D01*
X41938893Y-42231107D01*
X41926497Y-42217429D01*
X41915501Y-42202603D01*
X41906011Y-42186770D01*
X41898118Y-42170083D01*
X41891900Y-42152703D01*
X41887414Y-42134796D01*
X41884706Y-42116537D01*
X41883800Y-42098100D01*
X41883800Y-41721900D01*
X41884706Y-41703463D01*
X41887414Y-41685204D01*
X41891900Y-41667297D01*
X41898118Y-41649917D01*
X41906011Y-41633230D01*
X41915501Y-41617397D01*
X41926497Y-41602571D01*
X41938893Y-41588893D01*
X41952571Y-41576497D01*
X41967397Y-41565501D01*
X41983230Y-41556011D01*
X41999917Y-41548118D01*
X42017297Y-41541900D01*
X42035204Y-41537414D01*
X42053463Y-41534706D01*
X42071900Y-41533800D01*
X43323100Y-41533800D01*
X43341537Y-41534706D01*
G37*
G36*
X43341537Y-40264706D02*
G01*
X43359796Y-40267414D01*
X43377703Y-40271900D01*
X43395083Y-40278118D01*
X43411770Y-40286011D01*
X43427603Y-40295501D01*
X43442429Y-40306497D01*
X43456107Y-40318893D01*
X43468503Y-40332571D01*
X43479499Y-40347397D01*
X43488989Y-40363230D01*
X43496882Y-40379917D01*
X43503100Y-40397297D01*
X43507586Y-40415204D01*
X43510294Y-40433463D01*
X43511200Y-40451900D01*
X43511200Y-40828100D01*
X43510294Y-40846537D01*
X43507586Y-40864796D01*
X43503100Y-40882703D01*
X43496882Y-40900083D01*
X43488989Y-40916770D01*
X43479499Y-40932603D01*
X43468503Y-40947429D01*
X43456107Y-40961107D01*
X43442429Y-40973503D01*
X43427603Y-40984499D01*
X43411770Y-40993989D01*
X43395083Y-41001882D01*
X43377703Y-41008100D01*
X43359796Y-41012586D01*
X43341537Y-41015294D01*
X43323100Y-41016200D01*
X42071900Y-41016200D01*
X42053463Y-41015294D01*
X42035204Y-41012586D01*
X42017297Y-41008100D01*
X41999917Y-41001882D01*
X41983230Y-40993989D01*
X41967397Y-40984499D01*
X41952571Y-40973503D01*
X41938893Y-40961107D01*
X41926497Y-40947429D01*
X41915501Y-40932603D01*
X41906011Y-40916770D01*
X41898118Y-40900083D01*
X41891900Y-40882703D01*
X41887414Y-40864796D01*
X41884706Y-40846537D01*
X41883800Y-40828100D01*
X41883800Y-40451900D01*
X41884706Y-40433463D01*
X41887414Y-40415204D01*
X41891900Y-40397297D01*
X41898118Y-40379917D01*
X41906011Y-40363230D01*
X41915501Y-40347397D01*
X41926497Y-40332571D01*
X41938893Y-40318893D01*
X41952571Y-40306497D01*
X41967397Y-40295501D01*
X41983230Y-40286011D01*
X41999917Y-40278118D01*
X42017297Y-40271900D01*
X42035204Y-40267414D01*
X42053463Y-40264706D01*
X42071900Y-40263800D01*
X43323100Y-40263800D01*
X43341537Y-40264706D01*
G37*
G36*
X43341537Y-38994706D02*
G01*
X43359796Y-38997414D01*
X43377703Y-39001900D01*
X43395083Y-39008118D01*
X43411770Y-39016011D01*
X43427603Y-39025501D01*
X43442429Y-39036497D01*
X43456107Y-39048893D01*
X43468503Y-39062571D01*
X43479499Y-39077397D01*
X43488989Y-39093230D01*
X43496882Y-39109917D01*
X43503100Y-39127297D01*
X43507586Y-39145204D01*
X43510294Y-39163463D01*
X43511200Y-39181900D01*
X43511200Y-39558100D01*
X43510294Y-39576537D01*
X43507586Y-39594796D01*
X43503100Y-39612703D01*
X43496882Y-39630083D01*
X43488989Y-39646770D01*
X43479499Y-39662603D01*
X43468503Y-39677429D01*
X43456107Y-39691107D01*
X43442429Y-39703503D01*
X43427603Y-39714499D01*
X43411770Y-39723989D01*
X43395083Y-39731882D01*
X43377703Y-39738100D01*
X43359796Y-39742586D01*
X43341537Y-39745294D01*
X43323100Y-39746200D01*
X42071900Y-39746200D01*
X42053463Y-39745294D01*
X42035204Y-39742586D01*
X42017297Y-39738100D01*
X41999917Y-39731882D01*
X41983230Y-39723989D01*
X41967397Y-39714499D01*
X41952571Y-39703503D01*
X41938893Y-39691107D01*
X41926497Y-39677429D01*
X41915501Y-39662603D01*
X41906011Y-39646770D01*
X41898118Y-39630083D01*
X41891900Y-39612703D01*
X41887414Y-39594796D01*
X41884706Y-39576537D01*
X41883800Y-39558100D01*
X41883800Y-39181900D01*
X41884706Y-39163463D01*
X41887414Y-39145204D01*
X41891900Y-39127297D01*
X41898118Y-39109917D01*
X41906011Y-39093230D01*
X41915501Y-39077397D01*
X41926497Y-39062571D01*
X41938893Y-39048893D01*
X41952571Y-39036497D01*
X41967397Y-39025501D01*
X41983230Y-39016011D01*
X41999917Y-39008118D01*
X42017297Y-39001900D01*
X42035204Y-38997414D01*
X42053463Y-38994706D01*
X42071900Y-38993800D01*
X43323100Y-38993800D01*
X43341537Y-38994706D01*
G37*
G36*
X43341537Y-37724706D02*
G01*
X43359796Y-37727414D01*
X43377703Y-37731900D01*
X43395083Y-37738118D01*
X43411770Y-37746011D01*
X43427603Y-37755501D01*
X43442429Y-37766497D01*
X43456107Y-37778893D01*
X43468503Y-37792571D01*
X43479499Y-37807397D01*
X43488989Y-37823230D01*
X43496882Y-37839917D01*
X43503100Y-37857297D01*
X43507586Y-37875204D01*
X43510294Y-37893463D01*
X43511200Y-37911900D01*
X43511200Y-38288100D01*
X43510294Y-38306537D01*
X43507586Y-38324796D01*
X43503100Y-38342703D01*
X43496882Y-38360083D01*
X43488989Y-38376770D01*
X43479499Y-38392603D01*
X43468503Y-38407429D01*
X43456107Y-38421107D01*
X43442429Y-38433503D01*
X43427603Y-38444499D01*
X43411770Y-38453989D01*
X43395083Y-38461882D01*
X43377703Y-38468100D01*
X43359796Y-38472586D01*
X43341537Y-38475294D01*
X43323100Y-38476200D01*
X42071900Y-38476200D01*
X42053463Y-38475294D01*
X42035204Y-38472586D01*
X42017297Y-38468100D01*
X41999917Y-38461882D01*
X41983230Y-38453989D01*
X41967397Y-38444499D01*
X41952571Y-38433503D01*
X41938893Y-38421107D01*
X41926497Y-38407429D01*
X41915501Y-38392603D01*
X41906011Y-38376770D01*
X41898118Y-38360083D01*
X41891900Y-38342703D01*
X41887414Y-38324796D01*
X41884706Y-38306537D01*
X41883800Y-38288100D01*
X41883800Y-37911900D01*
X41884706Y-37893463D01*
X41887414Y-37875204D01*
X41891900Y-37857297D01*
X41898118Y-37839917D01*
X41906011Y-37823230D01*
X41915501Y-37807397D01*
X41926497Y-37792571D01*
X41938893Y-37778893D01*
X41952571Y-37766497D01*
X41967397Y-37755501D01*
X41983230Y-37746011D01*
X41999917Y-37738118D01*
X42017297Y-37731900D01*
X42035204Y-37727414D01*
X42053463Y-37724706D01*
X42071900Y-37723800D01*
X43323100Y-37723800D01*
X43341537Y-37724706D01*
G37*
G36*
X43341537Y-36454706D02*
G01*
X43359796Y-36457414D01*
X43377703Y-36461900D01*
X43395083Y-36468118D01*
X43411770Y-36476011D01*
X43427603Y-36485501D01*
X43442429Y-36496497D01*
X43456107Y-36508893D01*
X43468503Y-36522571D01*
X43479499Y-36537397D01*
X43488989Y-36553230D01*
X43496882Y-36569917D01*
X43503100Y-36587297D01*
X43507586Y-36605204D01*
X43510294Y-36623463D01*
X43511200Y-36641900D01*
X43511200Y-37018100D01*
X43510294Y-37036537D01*
X43507586Y-37054796D01*
X43503100Y-37072703D01*
X43496882Y-37090083D01*
X43488989Y-37106770D01*
X43479499Y-37122603D01*
X43468503Y-37137429D01*
X43456107Y-37151107D01*
X43442429Y-37163503D01*
X43427603Y-37174499D01*
X43411770Y-37183989D01*
X43395083Y-37191882D01*
X43377703Y-37198100D01*
X43359796Y-37202586D01*
X43341537Y-37205294D01*
X43323100Y-37206200D01*
X42071900Y-37206200D01*
X42053463Y-37205294D01*
X42035204Y-37202586D01*
X42017297Y-37198100D01*
X41999917Y-37191882D01*
X41983230Y-37183989D01*
X41967397Y-37174499D01*
X41952571Y-37163503D01*
X41938893Y-37151107D01*
X41926497Y-37137429D01*
X41915501Y-37122603D01*
X41906011Y-37106770D01*
X41898118Y-37090083D01*
X41891900Y-37072703D01*
X41887414Y-37054796D01*
X41884706Y-37036537D01*
X41883800Y-37018100D01*
X41883800Y-36641900D01*
X41884706Y-36623463D01*
X41887414Y-36605204D01*
X41891900Y-36587297D01*
X41898118Y-36569917D01*
X41906011Y-36553230D01*
X41915501Y-36537397D01*
X41926497Y-36522571D01*
X41938893Y-36508893D01*
X41952571Y-36496497D01*
X41967397Y-36485501D01*
X41983230Y-36476011D01*
X41999917Y-36468118D01*
X42017297Y-36461900D01*
X42035204Y-36457414D01*
X42053463Y-36454706D01*
X42071900Y-36453800D01*
X43323100Y-36453800D01*
X43341537Y-36454706D01*
G37*
G36*
X43341537Y-35184706D02*
G01*
X43359796Y-35187414D01*
X43377703Y-35191900D01*
X43395083Y-35198118D01*
X43411770Y-35206011D01*
X43427603Y-35215501D01*
X43442429Y-35226497D01*
X43456107Y-35238893D01*
X43468503Y-35252571D01*
X43479499Y-35267397D01*
X43488989Y-35283230D01*
X43496882Y-35299917D01*
X43503100Y-35317297D01*
X43507586Y-35335204D01*
X43510294Y-35353463D01*
X43511200Y-35371900D01*
X43511200Y-35748100D01*
X43510294Y-35766537D01*
X43507586Y-35784796D01*
X43503100Y-35802703D01*
X43496882Y-35820083D01*
X43488989Y-35836770D01*
X43479499Y-35852603D01*
X43468503Y-35867429D01*
X43456107Y-35881107D01*
X43442429Y-35893503D01*
X43427603Y-35904499D01*
X43411770Y-35913989D01*
X43395083Y-35921882D01*
X43377703Y-35928100D01*
X43359796Y-35932586D01*
X43341537Y-35935294D01*
X43323100Y-35936200D01*
X42071900Y-35936200D01*
X42053463Y-35935294D01*
X42035204Y-35932586D01*
X42017297Y-35928100D01*
X41999917Y-35921882D01*
X41983230Y-35913989D01*
X41967397Y-35904499D01*
X41952571Y-35893503D01*
X41938893Y-35881107D01*
X41926497Y-35867429D01*
X41915501Y-35852603D01*
X41906011Y-35836770D01*
X41898118Y-35820083D01*
X41891900Y-35802703D01*
X41887414Y-35784796D01*
X41884706Y-35766537D01*
X41883800Y-35748100D01*
X41883800Y-35371900D01*
X41884706Y-35353463D01*
X41887414Y-35335204D01*
X41891900Y-35317297D01*
X41898118Y-35299917D01*
X41906011Y-35283230D01*
X41915501Y-35267397D01*
X41926497Y-35252571D01*
X41938893Y-35238893D01*
X41952571Y-35226497D01*
X41967397Y-35215501D01*
X41983230Y-35206011D01*
X41999917Y-35198118D01*
X42017297Y-35191900D01*
X42035204Y-35187414D01*
X42053463Y-35184706D01*
X42071900Y-35183800D01*
X43323100Y-35183800D01*
X43341537Y-35184706D01*
G37*
G36*
X43341537Y-33914706D02*
G01*
X43359796Y-33917414D01*
X43377703Y-33921900D01*
X43395083Y-33928118D01*
X43411770Y-33936011D01*
X43427603Y-33945501D01*
X43442429Y-33956497D01*
X43456107Y-33968893D01*
X43468503Y-33982571D01*
X43479499Y-33997397D01*
X43488989Y-34013230D01*
X43496882Y-34029917D01*
X43503100Y-34047297D01*
X43507586Y-34065204D01*
X43510294Y-34083463D01*
X43511200Y-34101900D01*
X43511200Y-34478100D01*
X43510294Y-34496537D01*
X43507586Y-34514796D01*
X43503100Y-34532703D01*
X43496882Y-34550083D01*
X43488989Y-34566770D01*
X43479499Y-34582603D01*
X43468503Y-34597429D01*
X43456107Y-34611107D01*
X43442429Y-34623503D01*
X43427603Y-34634499D01*
X43411770Y-34643989D01*
X43395083Y-34651882D01*
X43377703Y-34658100D01*
X43359796Y-34662586D01*
X43341537Y-34665294D01*
X43323100Y-34666200D01*
X42071900Y-34666200D01*
X42053463Y-34665294D01*
X42035204Y-34662586D01*
X42017297Y-34658100D01*
X41999917Y-34651882D01*
X41983230Y-34643989D01*
X41967397Y-34634499D01*
X41952571Y-34623503D01*
X41938893Y-34611107D01*
X41926497Y-34597429D01*
X41915501Y-34582603D01*
X41906011Y-34566770D01*
X41898118Y-34550083D01*
X41891900Y-34532703D01*
X41887414Y-34514796D01*
X41884706Y-34496537D01*
X41883800Y-34478100D01*
X41883800Y-34101900D01*
X41884706Y-34083463D01*
X41887414Y-34065204D01*
X41891900Y-34047297D01*
X41898118Y-34029917D01*
X41906011Y-34013230D01*
X41915501Y-33997397D01*
X41926497Y-33982571D01*
X41938893Y-33968893D01*
X41952571Y-33956497D01*
X41967397Y-33945501D01*
X41983230Y-33936011D01*
X41999917Y-33928118D01*
X42017297Y-33921900D01*
X42035204Y-33917414D01*
X42053463Y-33914706D01*
X42071900Y-33913800D01*
X43323100Y-33913800D01*
X43341537Y-33914706D01*
G37*
G36*
X43341537Y-32644706D02*
G01*
X43359796Y-32647414D01*
X43377703Y-32651900D01*
X43395083Y-32658118D01*
X43411770Y-32666011D01*
X43427603Y-32675501D01*
X43442429Y-32686497D01*
X43456107Y-32698893D01*
X43468503Y-32712571D01*
X43479499Y-32727397D01*
X43488989Y-32743230D01*
X43496882Y-32759917D01*
X43503100Y-32777297D01*
X43507586Y-32795204D01*
X43510294Y-32813463D01*
X43511200Y-32831900D01*
X43511200Y-33208100D01*
X43510294Y-33226537D01*
X43507586Y-33244796D01*
X43503100Y-33262703D01*
X43496882Y-33280083D01*
X43488989Y-33296770D01*
X43479499Y-33312603D01*
X43468503Y-33327429D01*
X43456107Y-33341107D01*
X43442429Y-33353503D01*
X43427603Y-33364499D01*
X43411770Y-33373989D01*
X43395083Y-33381882D01*
X43377703Y-33388100D01*
X43359796Y-33392586D01*
X43341537Y-33395294D01*
X43323100Y-33396200D01*
X42071900Y-33396200D01*
X42053463Y-33395294D01*
X42035204Y-33392586D01*
X42017297Y-33388100D01*
X41999917Y-33381882D01*
X41983230Y-33373989D01*
X41967397Y-33364499D01*
X41952571Y-33353503D01*
X41938893Y-33341107D01*
X41926497Y-33327429D01*
X41915501Y-33312603D01*
X41906011Y-33296770D01*
X41898118Y-33280083D01*
X41891900Y-33262703D01*
X41887414Y-33244796D01*
X41884706Y-33226537D01*
X41883800Y-33208100D01*
X41883800Y-32831900D01*
X41884706Y-32813463D01*
X41887414Y-32795204D01*
X41891900Y-32777297D01*
X41898118Y-32759917D01*
X41906011Y-32743230D01*
X41915501Y-32727397D01*
X41926497Y-32712571D01*
X41938893Y-32698893D01*
X41952571Y-32686497D01*
X41967397Y-32675501D01*
X41983230Y-32666011D01*
X41999917Y-32658118D01*
X42017297Y-32651900D01*
X42035204Y-32647414D01*
X42053463Y-32644706D01*
X42071900Y-32643800D01*
X43323100Y-32643800D01*
X43341537Y-32644706D01*
G37*
G36*
X43341537Y-31374706D02*
G01*
X43359796Y-31377414D01*
X43377703Y-31381900D01*
X43395083Y-31388118D01*
X43411770Y-31396011D01*
X43427603Y-31405501D01*
X43442429Y-31416497D01*
X43456107Y-31428893D01*
X43468503Y-31442571D01*
X43479499Y-31457397D01*
X43488989Y-31473230D01*
X43496882Y-31489917D01*
X43503100Y-31507297D01*
X43507586Y-31525204D01*
X43510294Y-31543463D01*
X43511200Y-31561900D01*
X43511200Y-31938100D01*
X43510294Y-31956537D01*
X43507586Y-31974796D01*
X43503100Y-31992703D01*
X43496882Y-32010083D01*
X43488989Y-32026770D01*
X43479499Y-32042603D01*
X43468503Y-32057429D01*
X43456107Y-32071107D01*
X43442429Y-32083503D01*
X43427603Y-32094499D01*
X43411770Y-32103989D01*
X43395083Y-32111882D01*
X43377703Y-32118100D01*
X43359796Y-32122586D01*
X43341537Y-32125294D01*
X43323100Y-32126200D01*
X42071900Y-32126200D01*
X42053463Y-32125294D01*
X42035204Y-32122586D01*
X42017297Y-32118100D01*
X41999917Y-32111882D01*
X41983230Y-32103989D01*
X41967397Y-32094499D01*
X41952571Y-32083503D01*
X41938893Y-32071107D01*
X41926497Y-32057429D01*
X41915501Y-32042603D01*
X41906011Y-32026770D01*
X41898118Y-32010083D01*
X41891900Y-31992703D01*
X41887414Y-31974796D01*
X41884706Y-31956537D01*
X41883800Y-31938100D01*
X41883800Y-31561900D01*
X41884706Y-31543463D01*
X41887414Y-31525204D01*
X41891900Y-31507297D01*
X41898118Y-31489917D01*
X41906011Y-31473230D01*
X41915501Y-31457397D01*
X41926497Y-31442571D01*
X41938893Y-31428893D01*
X41952571Y-31416497D01*
X41967397Y-31405501D01*
X41983230Y-31396011D01*
X41999917Y-31388118D01*
X42017297Y-31381900D01*
X42035204Y-31377414D01*
X42053463Y-31374706D01*
X42071900Y-31373800D01*
X43323100Y-31373800D01*
X43341537Y-31374706D01*
G37*
G36*
X44656537Y-29179706D02*
G01*
X44674796Y-29182414D01*
X44692703Y-29186900D01*
X44710083Y-29193118D01*
X44726770Y-29201011D01*
X44742603Y-29210501D01*
X44757429Y-29221497D01*
X44771107Y-29233893D01*
X44783503Y-29247571D01*
X44794499Y-29262397D01*
X44803989Y-29278230D01*
X44811882Y-29294917D01*
X44818100Y-29312297D01*
X44822586Y-29330204D01*
X44825294Y-29348463D01*
X44826200Y-29366900D01*
X44826200Y-30618100D01*
X44825294Y-30636537D01*
X44822586Y-30654796D01*
X44818100Y-30672703D01*
X44811882Y-30690083D01*
X44803989Y-30706770D01*
X44794499Y-30722603D01*
X44783503Y-30737429D01*
X44771107Y-30751107D01*
X44757429Y-30763503D01*
X44742603Y-30774499D01*
X44726770Y-30783989D01*
X44710083Y-30791882D01*
X44692703Y-30798100D01*
X44674796Y-30802586D01*
X44656537Y-30805294D01*
X44638100Y-30806200D01*
X44261900Y-30806200D01*
X44243463Y-30805294D01*
X44225204Y-30802586D01*
X44207297Y-30798100D01*
X44189917Y-30791882D01*
X44173230Y-30783989D01*
X44157397Y-30774499D01*
X44142571Y-30763503D01*
X44128893Y-30751107D01*
X44116497Y-30737429D01*
X44105501Y-30722603D01*
X44096011Y-30706770D01*
X44088118Y-30690083D01*
X44081900Y-30672703D01*
X44077414Y-30654796D01*
X44074706Y-30636537D01*
X44073800Y-30618100D01*
X44073800Y-29366900D01*
X44074706Y-29348463D01*
X44077414Y-29330204D01*
X44081900Y-29312297D01*
X44088118Y-29294917D01*
X44096011Y-29278230D01*
X44105501Y-29262397D01*
X44116497Y-29247571D01*
X44128893Y-29233893D01*
X44142571Y-29221497D01*
X44157397Y-29210501D01*
X44173230Y-29201011D01*
X44189917Y-29193118D01*
X44207297Y-29186900D01*
X44225204Y-29182414D01*
X44243463Y-29179706D01*
X44261900Y-29178800D01*
X44638100Y-29178800D01*
X44656537Y-29179706D01*
G37*
G36*
X45926537Y-29179706D02*
G01*
X45944796Y-29182414D01*
X45962703Y-29186900D01*
X45980083Y-29193118D01*
X45996770Y-29201011D01*
X46012603Y-29210501D01*
X46027429Y-29221497D01*
X46041107Y-29233893D01*
X46053503Y-29247571D01*
X46064499Y-29262397D01*
X46073989Y-29278230D01*
X46081882Y-29294917D01*
X46088100Y-29312297D01*
X46092586Y-29330204D01*
X46095294Y-29348463D01*
X46096200Y-29366900D01*
X46096200Y-30618100D01*
X46095294Y-30636537D01*
X46092586Y-30654796D01*
X46088100Y-30672703D01*
X46081882Y-30690083D01*
X46073989Y-30706770D01*
X46064499Y-30722603D01*
X46053503Y-30737429D01*
X46041107Y-30751107D01*
X46027429Y-30763503D01*
X46012603Y-30774499D01*
X45996770Y-30783989D01*
X45980083Y-30791882D01*
X45962703Y-30798100D01*
X45944796Y-30802586D01*
X45926537Y-30805294D01*
X45908100Y-30806200D01*
X45531900Y-30806200D01*
X45513463Y-30805294D01*
X45495204Y-30802586D01*
X45477297Y-30798100D01*
X45459917Y-30791882D01*
X45443230Y-30783989D01*
X45427397Y-30774499D01*
X45412571Y-30763503D01*
X45398893Y-30751107D01*
X45386497Y-30737429D01*
X45375501Y-30722603D01*
X45366011Y-30706770D01*
X45358118Y-30690083D01*
X45351900Y-30672703D01*
X45347414Y-30654796D01*
X45344706Y-30636537D01*
X45343800Y-30618100D01*
X45343800Y-29366900D01*
X45344706Y-29348463D01*
X45347414Y-29330204D01*
X45351900Y-29312297D01*
X45358118Y-29294917D01*
X45366011Y-29278230D01*
X45375501Y-29262397D01*
X45386497Y-29247571D01*
X45398893Y-29233893D01*
X45412571Y-29221497D01*
X45427397Y-29210501D01*
X45443230Y-29201011D01*
X45459917Y-29193118D01*
X45477297Y-29186900D01*
X45495204Y-29182414D01*
X45513463Y-29179706D01*
X45531900Y-29178800D01*
X45908100Y-29178800D01*
X45926537Y-29179706D01*
G37*
G36*
X47196537Y-29179706D02*
G01*
X47214796Y-29182414D01*
X47232703Y-29186900D01*
X47250083Y-29193118D01*
X47266770Y-29201011D01*
X47282603Y-29210501D01*
X47297429Y-29221497D01*
X47311107Y-29233893D01*
X47323503Y-29247571D01*
X47334499Y-29262397D01*
X47343989Y-29278230D01*
X47351882Y-29294917D01*
X47358100Y-29312297D01*
X47362586Y-29330204D01*
X47365294Y-29348463D01*
X47366200Y-29366900D01*
X47366200Y-30618100D01*
X47365294Y-30636537D01*
X47362586Y-30654796D01*
X47358100Y-30672703D01*
X47351882Y-30690083D01*
X47343989Y-30706770D01*
X47334499Y-30722603D01*
X47323503Y-30737429D01*
X47311107Y-30751107D01*
X47297429Y-30763503D01*
X47282603Y-30774499D01*
X47266770Y-30783989D01*
X47250083Y-30791882D01*
X47232703Y-30798100D01*
X47214796Y-30802586D01*
X47196537Y-30805294D01*
X47178100Y-30806200D01*
X46801900Y-30806200D01*
X46783463Y-30805294D01*
X46765204Y-30802586D01*
X46747297Y-30798100D01*
X46729917Y-30791882D01*
X46713230Y-30783989D01*
X46697397Y-30774499D01*
X46682571Y-30763503D01*
X46668893Y-30751107D01*
X46656497Y-30737429D01*
X46645501Y-30722603D01*
X46636011Y-30706770D01*
X46628118Y-30690083D01*
X46621900Y-30672703D01*
X46617414Y-30654796D01*
X46614706Y-30636537D01*
X46613800Y-30618100D01*
X46613800Y-29366900D01*
X46614706Y-29348463D01*
X46617414Y-29330204D01*
X46621900Y-29312297D01*
X46628118Y-29294917D01*
X46636011Y-29278230D01*
X46645501Y-29262397D01*
X46656497Y-29247571D01*
X46668893Y-29233893D01*
X46682571Y-29221497D01*
X46697397Y-29210501D01*
X46713230Y-29201011D01*
X46729917Y-29193118D01*
X46747297Y-29186900D01*
X46765204Y-29182414D01*
X46783463Y-29179706D01*
X46801900Y-29178800D01*
X47178100Y-29178800D01*
X47196537Y-29179706D01*
G37*
G36*
X48466537Y-29179706D02*
G01*
X48484796Y-29182414D01*
X48502703Y-29186900D01*
X48520083Y-29193118D01*
X48536770Y-29201011D01*
X48552603Y-29210501D01*
X48567429Y-29221497D01*
X48581107Y-29233893D01*
X48593503Y-29247571D01*
X48604499Y-29262397D01*
X48613989Y-29278230D01*
X48621882Y-29294917D01*
X48628100Y-29312297D01*
X48632586Y-29330204D01*
X48635294Y-29348463D01*
X48636200Y-29366900D01*
X48636200Y-30618100D01*
X48635294Y-30636537D01*
X48632586Y-30654796D01*
X48628100Y-30672703D01*
X48621882Y-30690083D01*
X48613989Y-30706770D01*
X48604499Y-30722603D01*
X48593503Y-30737429D01*
X48581107Y-30751107D01*
X48567429Y-30763503D01*
X48552603Y-30774499D01*
X48536770Y-30783989D01*
X48520083Y-30791882D01*
X48502703Y-30798100D01*
X48484796Y-30802586D01*
X48466537Y-30805294D01*
X48448100Y-30806200D01*
X48071900Y-30806200D01*
X48053463Y-30805294D01*
X48035204Y-30802586D01*
X48017297Y-30798100D01*
X47999917Y-30791882D01*
X47983230Y-30783989D01*
X47967397Y-30774499D01*
X47952571Y-30763503D01*
X47938893Y-30751107D01*
X47926497Y-30737429D01*
X47915501Y-30722603D01*
X47906011Y-30706770D01*
X47898118Y-30690083D01*
X47891900Y-30672703D01*
X47887414Y-30654796D01*
X47884706Y-30636537D01*
X47883800Y-30618100D01*
X47883800Y-29366900D01*
X47884706Y-29348463D01*
X47887414Y-29330204D01*
X47891900Y-29312297D01*
X47898118Y-29294917D01*
X47906011Y-29278230D01*
X47915501Y-29262397D01*
X47926497Y-29247571D01*
X47938893Y-29233893D01*
X47952571Y-29221497D01*
X47967397Y-29210501D01*
X47983230Y-29201011D01*
X47999917Y-29193118D01*
X48017297Y-29186900D01*
X48035204Y-29182414D01*
X48053463Y-29179706D01*
X48071900Y-29178800D01*
X48448100Y-29178800D01*
X48466537Y-29179706D01*
G37*
D16*
X43180000Y-53340000D03*
X53340000Y-53340000D03*
X43180000Y-20320000D03*
D17*
X49784000Y-51943000D03*
X46736000Y-51943000D03*
M02*
