G04 #@! TF.GenerationSoftware,KiCad,Pcbnew,(5.1.2-1)-1*
G04 #@! TF.CreationDate,2019-12-07T17:40:51-05:00*
G04 #@! TF.ProjectId,GW28R8128,47573238-5238-4313-9238-2e6b69636164,rev?*
G04 #@! TF.SameCoordinates,Original*
G04 #@! TF.FileFunction,Paste,Top*
G04 #@! TF.FilePolarity,Positive*
%FSLAX46Y46*%
G04 Gerber Fmt 4.6, Leading zero omitted, Abs format (unit mm)*
G04 Created by KiCad (PCBNEW (5.1.2-1)-1) date 2019-12-07 17:40:51*
%MOMM*%
%LPD*%
G04 APERTURE LIST*
%ADD10C,0.100000*%
%ADD11C,0.773800*%
%ADD12C,0.973800*%
%ADD13C,0.523800*%
G04 APERTURE END LIST*
D10*
G36*
X52557411Y-26599032D02*
G01*
X52576190Y-26601817D01*
X52594606Y-26606430D01*
X52612480Y-26612826D01*
X52629642Y-26620942D01*
X52645925Y-26630702D01*
X52661173Y-26642011D01*
X52675240Y-26654760D01*
X52687989Y-26668827D01*
X52699298Y-26684075D01*
X52709058Y-26700358D01*
X52717174Y-26717520D01*
X52723570Y-26735394D01*
X52728183Y-26753810D01*
X52730968Y-26772589D01*
X52731900Y-26791550D01*
X52731900Y-27178450D01*
X52730968Y-27197411D01*
X52728183Y-27216190D01*
X52723570Y-27234606D01*
X52717174Y-27252480D01*
X52709058Y-27269642D01*
X52699298Y-27285925D01*
X52687989Y-27301173D01*
X52675240Y-27315240D01*
X52661173Y-27327989D01*
X52645925Y-27339298D01*
X52629642Y-27349058D01*
X52612480Y-27357174D01*
X52594606Y-27363570D01*
X52576190Y-27368183D01*
X52557411Y-27370968D01*
X52538450Y-27371900D01*
X51601550Y-27371900D01*
X51582589Y-27370968D01*
X51563810Y-27368183D01*
X51545394Y-27363570D01*
X51527520Y-27357174D01*
X51510358Y-27349058D01*
X51494075Y-27339298D01*
X51478827Y-27327989D01*
X51464760Y-27315240D01*
X51452011Y-27301173D01*
X51440702Y-27285925D01*
X51430942Y-27269642D01*
X51422826Y-27252480D01*
X51416430Y-27234606D01*
X51411817Y-27216190D01*
X51409032Y-27197411D01*
X51408100Y-27178450D01*
X51408100Y-26791550D01*
X51409032Y-26772589D01*
X51411817Y-26753810D01*
X51416430Y-26735394D01*
X51422826Y-26717520D01*
X51430942Y-26700358D01*
X51440702Y-26684075D01*
X51452011Y-26668827D01*
X51464760Y-26654760D01*
X51478827Y-26642011D01*
X51494075Y-26630702D01*
X51510358Y-26620942D01*
X51527520Y-26612826D01*
X51545394Y-26606430D01*
X51563810Y-26601817D01*
X51582589Y-26599032D01*
X51601550Y-26598100D01*
X52538450Y-26598100D01*
X52557411Y-26599032D01*
X52557411Y-26599032D01*
G37*
D11*
X52070000Y-26985000D03*
D10*
G36*
X52557411Y-24699032D02*
G01*
X52576190Y-24701817D01*
X52594606Y-24706430D01*
X52612480Y-24712826D01*
X52629642Y-24720942D01*
X52645925Y-24730702D01*
X52661173Y-24742011D01*
X52675240Y-24754760D01*
X52687989Y-24768827D01*
X52699298Y-24784075D01*
X52709058Y-24800358D01*
X52717174Y-24817520D01*
X52723570Y-24835394D01*
X52728183Y-24853810D01*
X52730968Y-24872589D01*
X52731900Y-24891550D01*
X52731900Y-25278450D01*
X52730968Y-25297411D01*
X52728183Y-25316190D01*
X52723570Y-25334606D01*
X52717174Y-25352480D01*
X52709058Y-25369642D01*
X52699298Y-25385925D01*
X52687989Y-25401173D01*
X52675240Y-25415240D01*
X52661173Y-25427989D01*
X52645925Y-25439298D01*
X52629642Y-25449058D01*
X52612480Y-25457174D01*
X52594606Y-25463570D01*
X52576190Y-25468183D01*
X52557411Y-25470968D01*
X52538450Y-25471900D01*
X51601550Y-25471900D01*
X51582589Y-25470968D01*
X51563810Y-25468183D01*
X51545394Y-25463570D01*
X51527520Y-25457174D01*
X51510358Y-25449058D01*
X51494075Y-25439298D01*
X51478827Y-25427989D01*
X51464760Y-25415240D01*
X51452011Y-25401173D01*
X51440702Y-25385925D01*
X51430942Y-25369642D01*
X51422826Y-25352480D01*
X51416430Y-25334606D01*
X51411817Y-25316190D01*
X51409032Y-25297411D01*
X51408100Y-25278450D01*
X51408100Y-24891550D01*
X51409032Y-24872589D01*
X51411817Y-24853810D01*
X51416430Y-24835394D01*
X51422826Y-24817520D01*
X51430942Y-24800358D01*
X51440702Y-24784075D01*
X51452011Y-24768827D01*
X51464760Y-24754760D01*
X51478827Y-24742011D01*
X51494075Y-24730702D01*
X51510358Y-24720942D01*
X51527520Y-24712826D01*
X51545394Y-24706430D01*
X51563810Y-24701817D01*
X51582589Y-24699032D01*
X51601550Y-24698100D01*
X52538450Y-24698100D01*
X52557411Y-24699032D01*
X52557411Y-24699032D01*
G37*
D11*
X52070000Y-25085000D03*
D10*
G36*
X49797312Y-26009272D02*
G01*
X49820945Y-26012778D01*
X49844120Y-26018583D01*
X49866614Y-26026632D01*
X49888212Y-26036846D01*
X49908704Y-26049129D01*
X49927893Y-26063361D01*
X49945595Y-26079405D01*
X49961639Y-26097107D01*
X49975871Y-26116296D01*
X49988154Y-26136788D01*
X49998368Y-26158386D01*
X50006417Y-26180880D01*
X50012222Y-26204055D01*
X50015728Y-26227688D01*
X50016900Y-26251550D01*
X50016900Y-27088450D01*
X50015728Y-27112312D01*
X50012222Y-27135945D01*
X50006417Y-27159120D01*
X49998368Y-27181614D01*
X49988154Y-27203212D01*
X49975871Y-27223704D01*
X49961639Y-27242893D01*
X49945595Y-27260595D01*
X49927893Y-27276639D01*
X49908704Y-27290871D01*
X49888212Y-27303154D01*
X49866614Y-27313368D01*
X49844120Y-27321417D01*
X49820945Y-27327222D01*
X49797312Y-27330728D01*
X49773450Y-27331900D01*
X49286550Y-27331900D01*
X49262688Y-27330728D01*
X49239055Y-27327222D01*
X49215880Y-27321417D01*
X49193386Y-27313368D01*
X49171788Y-27303154D01*
X49151296Y-27290871D01*
X49132107Y-27276639D01*
X49114405Y-27260595D01*
X49098361Y-27242893D01*
X49084129Y-27223704D01*
X49071846Y-27203212D01*
X49061632Y-27181614D01*
X49053583Y-27159120D01*
X49047778Y-27135945D01*
X49044272Y-27112312D01*
X49043100Y-27088450D01*
X49043100Y-26251550D01*
X49044272Y-26227688D01*
X49047778Y-26204055D01*
X49053583Y-26180880D01*
X49061632Y-26158386D01*
X49071846Y-26136788D01*
X49084129Y-26116296D01*
X49098361Y-26097107D01*
X49114405Y-26079405D01*
X49132107Y-26063361D01*
X49151296Y-26049129D01*
X49171788Y-26036846D01*
X49193386Y-26026632D01*
X49215880Y-26018583D01*
X49239055Y-26012778D01*
X49262688Y-26009272D01*
X49286550Y-26008100D01*
X49773450Y-26008100D01*
X49797312Y-26009272D01*
X49797312Y-26009272D01*
G37*
D12*
X49530000Y-26670000D03*
D10*
G36*
X48097312Y-26009272D02*
G01*
X48120945Y-26012778D01*
X48144120Y-26018583D01*
X48166614Y-26026632D01*
X48188212Y-26036846D01*
X48208704Y-26049129D01*
X48227893Y-26063361D01*
X48245595Y-26079405D01*
X48261639Y-26097107D01*
X48275871Y-26116296D01*
X48288154Y-26136788D01*
X48298368Y-26158386D01*
X48306417Y-26180880D01*
X48312222Y-26204055D01*
X48315728Y-26227688D01*
X48316900Y-26251550D01*
X48316900Y-27088450D01*
X48315728Y-27112312D01*
X48312222Y-27135945D01*
X48306417Y-27159120D01*
X48298368Y-27181614D01*
X48288154Y-27203212D01*
X48275871Y-27223704D01*
X48261639Y-27242893D01*
X48245595Y-27260595D01*
X48227893Y-27276639D01*
X48208704Y-27290871D01*
X48188212Y-27303154D01*
X48166614Y-27313368D01*
X48144120Y-27321417D01*
X48120945Y-27327222D01*
X48097312Y-27330728D01*
X48073450Y-27331900D01*
X47586550Y-27331900D01*
X47562688Y-27330728D01*
X47539055Y-27327222D01*
X47515880Y-27321417D01*
X47493386Y-27313368D01*
X47471788Y-27303154D01*
X47451296Y-27290871D01*
X47432107Y-27276639D01*
X47414405Y-27260595D01*
X47398361Y-27242893D01*
X47384129Y-27223704D01*
X47371846Y-27203212D01*
X47361632Y-27181614D01*
X47353583Y-27159120D01*
X47347778Y-27135945D01*
X47344272Y-27112312D01*
X47343100Y-27088450D01*
X47343100Y-26251550D01*
X47344272Y-26227688D01*
X47347778Y-26204055D01*
X47353583Y-26180880D01*
X47361632Y-26158386D01*
X47371846Y-26136788D01*
X47384129Y-26116296D01*
X47398361Y-26097107D01*
X47414405Y-26079405D01*
X47432107Y-26063361D01*
X47451296Y-26049129D01*
X47471788Y-26036846D01*
X47493386Y-26026632D01*
X47515880Y-26018583D01*
X47539055Y-26012778D01*
X47562688Y-26009272D01*
X47586550Y-26008100D01*
X48073450Y-26008100D01*
X48097312Y-26009272D01*
X48097312Y-26009272D01*
G37*
D12*
X47830000Y-26670000D03*
D10*
G36*
X48403785Y-29293731D02*
G01*
X48416497Y-29295616D01*
X48428963Y-29298739D01*
X48441062Y-29303068D01*
X48452679Y-29308562D01*
X48463702Y-29315169D01*
X48474024Y-29322824D01*
X48483546Y-29331454D01*
X48492176Y-29340976D01*
X48499831Y-29351298D01*
X48506438Y-29362321D01*
X48511932Y-29373938D01*
X48516261Y-29386037D01*
X48519384Y-29398503D01*
X48521269Y-29411215D01*
X48521900Y-29424050D01*
X48521900Y-30560950D01*
X48521269Y-30573785D01*
X48519384Y-30586497D01*
X48516261Y-30598963D01*
X48511932Y-30611062D01*
X48506438Y-30622679D01*
X48499831Y-30633702D01*
X48492176Y-30644024D01*
X48483546Y-30653546D01*
X48474024Y-30662176D01*
X48463702Y-30669831D01*
X48452679Y-30676438D01*
X48441062Y-30681932D01*
X48428963Y-30686261D01*
X48416497Y-30689384D01*
X48403785Y-30691269D01*
X48390950Y-30691900D01*
X48129050Y-30691900D01*
X48116215Y-30691269D01*
X48103503Y-30689384D01*
X48091037Y-30686261D01*
X48078938Y-30681932D01*
X48067321Y-30676438D01*
X48056298Y-30669831D01*
X48045976Y-30662176D01*
X48036454Y-30653546D01*
X48027824Y-30644024D01*
X48020169Y-30633702D01*
X48013562Y-30622679D01*
X48008068Y-30611062D01*
X48003739Y-30598963D01*
X48000616Y-30586497D01*
X47998731Y-30573785D01*
X47998100Y-30560950D01*
X47998100Y-29424050D01*
X47998731Y-29411215D01*
X48000616Y-29398503D01*
X48003739Y-29386037D01*
X48008068Y-29373938D01*
X48013562Y-29362321D01*
X48020169Y-29351298D01*
X48027824Y-29340976D01*
X48036454Y-29331454D01*
X48045976Y-29322824D01*
X48056298Y-29315169D01*
X48067321Y-29308562D01*
X48078938Y-29303068D01*
X48091037Y-29298739D01*
X48103503Y-29295616D01*
X48116215Y-29293731D01*
X48129050Y-29293100D01*
X48390950Y-29293100D01*
X48403785Y-29293731D01*
X48403785Y-29293731D01*
G37*
D13*
X48260000Y-29992500D03*
D10*
G36*
X47133785Y-29293731D02*
G01*
X47146497Y-29295616D01*
X47158963Y-29298739D01*
X47171062Y-29303068D01*
X47182679Y-29308562D01*
X47193702Y-29315169D01*
X47204024Y-29322824D01*
X47213546Y-29331454D01*
X47222176Y-29340976D01*
X47229831Y-29351298D01*
X47236438Y-29362321D01*
X47241932Y-29373938D01*
X47246261Y-29386037D01*
X47249384Y-29398503D01*
X47251269Y-29411215D01*
X47251900Y-29424050D01*
X47251900Y-30560950D01*
X47251269Y-30573785D01*
X47249384Y-30586497D01*
X47246261Y-30598963D01*
X47241932Y-30611062D01*
X47236438Y-30622679D01*
X47229831Y-30633702D01*
X47222176Y-30644024D01*
X47213546Y-30653546D01*
X47204024Y-30662176D01*
X47193702Y-30669831D01*
X47182679Y-30676438D01*
X47171062Y-30681932D01*
X47158963Y-30686261D01*
X47146497Y-30689384D01*
X47133785Y-30691269D01*
X47120950Y-30691900D01*
X46859050Y-30691900D01*
X46846215Y-30691269D01*
X46833503Y-30689384D01*
X46821037Y-30686261D01*
X46808938Y-30681932D01*
X46797321Y-30676438D01*
X46786298Y-30669831D01*
X46775976Y-30662176D01*
X46766454Y-30653546D01*
X46757824Y-30644024D01*
X46750169Y-30633702D01*
X46743562Y-30622679D01*
X46738068Y-30611062D01*
X46733739Y-30598963D01*
X46730616Y-30586497D01*
X46728731Y-30573785D01*
X46728100Y-30560950D01*
X46728100Y-29424050D01*
X46728731Y-29411215D01*
X46730616Y-29398503D01*
X46733739Y-29386037D01*
X46738068Y-29373938D01*
X46743562Y-29362321D01*
X46750169Y-29351298D01*
X46757824Y-29340976D01*
X46766454Y-29331454D01*
X46775976Y-29322824D01*
X46786298Y-29315169D01*
X46797321Y-29308562D01*
X46808938Y-29303068D01*
X46821037Y-29298739D01*
X46833503Y-29295616D01*
X46846215Y-29293731D01*
X46859050Y-29293100D01*
X47120950Y-29293100D01*
X47133785Y-29293731D01*
X47133785Y-29293731D01*
G37*
D13*
X46990000Y-29992500D03*
D10*
G36*
X45863785Y-29293731D02*
G01*
X45876497Y-29295616D01*
X45888963Y-29298739D01*
X45901062Y-29303068D01*
X45912679Y-29308562D01*
X45923702Y-29315169D01*
X45934024Y-29322824D01*
X45943546Y-29331454D01*
X45952176Y-29340976D01*
X45959831Y-29351298D01*
X45966438Y-29362321D01*
X45971932Y-29373938D01*
X45976261Y-29386037D01*
X45979384Y-29398503D01*
X45981269Y-29411215D01*
X45981900Y-29424050D01*
X45981900Y-30560950D01*
X45981269Y-30573785D01*
X45979384Y-30586497D01*
X45976261Y-30598963D01*
X45971932Y-30611062D01*
X45966438Y-30622679D01*
X45959831Y-30633702D01*
X45952176Y-30644024D01*
X45943546Y-30653546D01*
X45934024Y-30662176D01*
X45923702Y-30669831D01*
X45912679Y-30676438D01*
X45901062Y-30681932D01*
X45888963Y-30686261D01*
X45876497Y-30689384D01*
X45863785Y-30691269D01*
X45850950Y-30691900D01*
X45589050Y-30691900D01*
X45576215Y-30691269D01*
X45563503Y-30689384D01*
X45551037Y-30686261D01*
X45538938Y-30681932D01*
X45527321Y-30676438D01*
X45516298Y-30669831D01*
X45505976Y-30662176D01*
X45496454Y-30653546D01*
X45487824Y-30644024D01*
X45480169Y-30633702D01*
X45473562Y-30622679D01*
X45468068Y-30611062D01*
X45463739Y-30598963D01*
X45460616Y-30586497D01*
X45458731Y-30573785D01*
X45458100Y-30560950D01*
X45458100Y-29424050D01*
X45458731Y-29411215D01*
X45460616Y-29398503D01*
X45463739Y-29386037D01*
X45468068Y-29373938D01*
X45473562Y-29362321D01*
X45480169Y-29351298D01*
X45487824Y-29340976D01*
X45496454Y-29331454D01*
X45505976Y-29322824D01*
X45516298Y-29315169D01*
X45527321Y-29308562D01*
X45538938Y-29303068D01*
X45551037Y-29298739D01*
X45563503Y-29295616D01*
X45576215Y-29293731D01*
X45589050Y-29293100D01*
X45850950Y-29293100D01*
X45863785Y-29293731D01*
X45863785Y-29293731D01*
G37*
D13*
X45720000Y-29992500D03*
D10*
G36*
X44593785Y-29293731D02*
G01*
X44606497Y-29295616D01*
X44618963Y-29298739D01*
X44631062Y-29303068D01*
X44642679Y-29308562D01*
X44653702Y-29315169D01*
X44664024Y-29322824D01*
X44673546Y-29331454D01*
X44682176Y-29340976D01*
X44689831Y-29351298D01*
X44696438Y-29362321D01*
X44701932Y-29373938D01*
X44706261Y-29386037D01*
X44709384Y-29398503D01*
X44711269Y-29411215D01*
X44711900Y-29424050D01*
X44711900Y-30560950D01*
X44711269Y-30573785D01*
X44709384Y-30586497D01*
X44706261Y-30598963D01*
X44701932Y-30611062D01*
X44696438Y-30622679D01*
X44689831Y-30633702D01*
X44682176Y-30644024D01*
X44673546Y-30653546D01*
X44664024Y-30662176D01*
X44653702Y-30669831D01*
X44642679Y-30676438D01*
X44631062Y-30681932D01*
X44618963Y-30686261D01*
X44606497Y-30689384D01*
X44593785Y-30691269D01*
X44580950Y-30691900D01*
X44319050Y-30691900D01*
X44306215Y-30691269D01*
X44293503Y-30689384D01*
X44281037Y-30686261D01*
X44268938Y-30681932D01*
X44257321Y-30676438D01*
X44246298Y-30669831D01*
X44235976Y-30662176D01*
X44226454Y-30653546D01*
X44217824Y-30644024D01*
X44210169Y-30633702D01*
X44203562Y-30622679D01*
X44198068Y-30611062D01*
X44193739Y-30598963D01*
X44190616Y-30586497D01*
X44188731Y-30573785D01*
X44188100Y-30560950D01*
X44188100Y-29424050D01*
X44188731Y-29411215D01*
X44190616Y-29398503D01*
X44193739Y-29386037D01*
X44198068Y-29373938D01*
X44203562Y-29362321D01*
X44210169Y-29351298D01*
X44217824Y-29340976D01*
X44226454Y-29331454D01*
X44235976Y-29322824D01*
X44246298Y-29315169D01*
X44257321Y-29308562D01*
X44268938Y-29303068D01*
X44281037Y-29298739D01*
X44293503Y-29295616D01*
X44306215Y-29293731D01*
X44319050Y-29293100D01*
X44580950Y-29293100D01*
X44593785Y-29293731D01*
X44593785Y-29293731D01*
G37*
D13*
X44450000Y-29992500D03*
D10*
G36*
X43278785Y-31488731D02*
G01*
X43291497Y-31490616D01*
X43303963Y-31493739D01*
X43316062Y-31498068D01*
X43327679Y-31503562D01*
X43338702Y-31510169D01*
X43349024Y-31517824D01*
X43358546Y-31526454D01*
X43367176Y-31535976D01*
X43374831Y-31546298D01*
X43381438Y-31557321D01*
X43386932Y-31568938D01*
X43391261Y-31581037D01*
X43394384Y-31593503D01*
X43396269Y-31606215D01*
X43396900Y-31619050D01*
X43396900Y-31880950D01*
X43396269Y-31893785D01*
X43394384Y-31906497D01*
X43391261Y-31918963D01*
X43386932Y-31931062D01*
X43381438Y-31942679D01*
X43374831Y-31953702D01*
X43367176Y-31964024D01*
X43358546Y-31973546D01*
X43349024Y-31982176D01*
X43338702Y-31989831D01*
X43327679Y-31996438D01*
X43316062Y-32001932D01*
X43303963Y-32006261D01*
X43291497Y-32009384D01*
X43278785Y-32011269D01*
X43265950Y-32011900D01*
X42129050Y-32011900D01*
X42116215Y-32011269D01*
X42103503Y-32009384D01*
X42091037Y-32006261D01*
X42078938Y-32001932D01*
X42067321Y-31996438D01*
X42056298Y-31989831D01*
X42045976Y-31982176D01*
X42036454Y-31973546D01*
X42027824Y-31964024D01*
X42020169Y-31953702D01*
X42013562Y-31942679D01*
X42008068Y-31931062D01*
X42003739Y-31918963D01*
X42000616Y-31906497D01*
X41998731Y-31893785D01*
X41998100Y-31880950D01*
X41998100Y-31619050D01*
X41998731Y-31606215D01*
X42000616Y-31593503D01*
X42003739Y-31581037D01*
X42008068Y-31568938D01*
X42013562Y-31557321D01*
X42020169Y-31546298D01*
X42027824Y-31535976D01*
X42036454Y-31526454D01*
X42045976Y-31517824D01*
X42056298Y-31510169D01*
X42067321Y-31503562D01*
X42078938Y-31498068D01*
X42091037Y-31493739D01*
X42103503Y-31490616D01*
X42116215Y-31488731D01*
X42129050Y-31488100D01*
X43265950Y-31488100D01*
X43278785Y-31488731D01*
X43278785Y-31488731D01*
G37*
D13*
X42697500Y-31750000D03*
D10*
G36*
X43278785Y-32758731D02*
G01*
X43291497Y-32760616D01*
X43303963Y-32763739D01*
X43316062Y-32768068D01*
X43327679Y-32773562D01*
X43338702Y-32780169D01*
X43349024Y-32787824D01*
X43358546Y-32796454D01*
X43367176Y-32805976D01*
X43374831Y-32816298D01*
X43381438Y-32827321D01*
X43386932Y-32838938D01*
X43391261Y-32851037D01*
X43394384Y-32863503D01*
X43396269Y-32876215D01*
X43396900Y-32889050D01*
X43396900Y-33150950D01*
X43396269Y-33163785D01*
X43394384Y-33176497D01*
X43391261Y-33188963D01*
X43386932Y-33201062D01*
X43381438Y-33212679D01*
X43374831Y-33223702D01*
X43367176Y-33234024D01*
X43358546Y-33243546D01*
X43349024Y-33252176D01*
X43338702Y-33259831D01*
X43327679Y-33266438D01*
X43316062Y-33271932D01*
X43303963Y-33276261D01*
X43291497Y-33279384D01*
X43278785Y-33281269D01*
X43265950Y-33281900D01*
X42129050Y-33281900D01*
X42116215Y-33281269D01*
X42103503Y-33279384D01*
X42091037Y-33276261D01*
X42078938Y-33271932D01*
X42067321Y-33266438D01*
X42056298Y-33259831D01*
X42045976Y-33252176D01*
X42036454Y-33243546D01*
X42027824Y-33234024D01*
X42020169Y-33223702D01*
X42013562Y-33212679D01*
X42008068Y-33201062D01*
X42003739Y-33188963D01*
X42000616Y-33176497D01*
X41998731Y-33163785D01*
X41998100Y-33150950D01*
X41998100Y-32889050D01*
X41998731Y-32876215D01*
X42000616Y-32863503D01*
X42003739Y-32851037D01*
X42008068Y-32838938D01*
X42013562Y-32827321D01*
X42020169Y-32816298D01*
X42027824Y-32805976D01*
X42036454Y-32796454D01*
X42045976Y-32787824D01*
X42056298Y-32780169D01*
X42067321Y-32773562D01*
X42078938Y-32768068D01*
X42091037Y-32763739D01*
X42103503Y-32760616D01*
X42116215Y-32758731D01*
X42129050Y-32758100D01*
X43265950Y-32758100D01*
X43278785Y-32758731D01*
X43278785Y-32758731D01*
G37*
D13*
X42697500Y-33020000D03*
D10*
G36*
X43278785Y-34028731D02*
G01*
X43291497Y-34030616D01*
X43303963Y-34033739D01*
X43316062Y-34038068D01*
X43327679Y-34043562D01*
X43338702Y-34050169D01*
X43349024Y-34057824D01*
X43358546Y-34066454D01*
X43367176Y-34075976D01*
X43374831Y-34086298D01*
X43381438Y-34097321D01*
X43386932Y-34108938D01*
X43391261Y-34121037D01*
X43394384Y-34133503D01*
X43396269Y-34146215D01*
X43396900Y-34159050D01*
X43396900Y-34420950D01*
X43396269Y-34433785D01*
X43394384Y-34446497D01*
X43391261Y-34458963D01*
X43386932Y-34471062D01*
X43381438Y-34482679D01*
X43374831Y-34493702D01*
X43367176Y-34504024D01*
X43358546Y-34513546D01*
X43349024Y-34522176D01*
X43338702Y-34529831D01*
X43327679Y-34536438D01*
X43316062Y-34541932D01*
X43303963Y-34546261D01*
X43291497Y-34549384D01*
X43278785Y-34551269D01*
X43265950Y-34551900D01*
X42129050Y-34551900D01*
X42116215Y-34551269D01*
X42103503Y-34549384D01*
X42091037Y-34546261D01*
X42078938Y-34541932D01*
X42067321Y-34536438D01*
X42056298Y-34529831D01*
X42045976Y-34522176D01*
X42036454Y-34513546D01*
X42027824Y-34504024D01*
X42020169Y-34493702D01*
X42013562Y-34482679D01*
X42008068Y-34471062D01*
X42003739Y-34458963D01*
X42000616Y-34446497D01*
X41998731Y-34433785D01*
X41998100Y-34420950D01*
X41998100Y-34159050D01*
X41998731Y-34146215D01*
X42000616Y-34133503D01*
X42003739Y-34121037D01*
X42008068Y-34108938D01*
X42013562Y-34097321D01*
X42020169Y-34086298D01*
X42027824Y-34075976D01*
X42036454Y-34066454D01*
X42045976Y-34057824D01*
X42056298Y-34050169D01*
X42067321Y-34043562D01*
X42078938Y-34038068D01*
X42091037Y-34033739D01*
X42103503Y-34030616D01*
X42116215Y-34028731D01*
X42129050Y-34028100D01*
X43265950Y-34028100D01*
X43278785Y-34028731D01*
X43278785Y-34028731D01*
G37*
D13*
X42697500Y-34290000D03*
D10*
G36*
X43278785Y-35298731D02*
G01*
X43291497Y-35300616D01*
X43303963Y-35303739D01*
X43316062Y-35308068D01*
X43327679Y-35313562D01*
X43338702Y-35320169D01*
X43349024Y-35327824D01*
X43358546Y-35336454D01*
X43367176Y-35345976D01*
X43374831Y-35356298D01*
X43381438Y-35367321D01*
X43386932Y-35378938D01*
X43391261Y-35391037D01*
X43394384Y-35403503D01*
X43396269Y-35416215D01*
X43396900Y-35429050D01*
X43396900Y-35690950D01*
X43396269Y-35703785D01*
X43394384Y-35716497D01*
X43391261Y-35728963D01*
X43386932Y-35741062D01*
X43381438Y-35752679D01*
X43374831Y-35763702D01*
X43367176Y-35774024D01*
X43358546Y-35783546D01*
X43349024Y-35792176D01*
X43338702Y-35799831D01*
X43327679Y-35806438D01*
X43316062Y-35811932D01*
X43303963Y-35816261D01*
X43291497Y-35819384D01*
X43278785Y-35821269D01*
X43265950Y-35821900D01*
X42129050Y-35821900D01*
X42116215Y-35821269D01*
X42103503Y-35819384D01*
X42091037Y-35816261D01*
X42078938Y-35811932D01*
X42067321Y-35806438D01*
X42056298Y-35799831D01*
X42045976Y-35792176D01*
X42036454Y-35783546D01*
X42027824Y-35774024D01*
X42020169Y-35763702D01*
X42013562Y-35752679D01*
X42008068Y-35741062D01*
X42003739Y-35728963D01*
X42000616Y-35716497D01*
X41998731Y-35703785D01*
X41998100Y-35690950D01*
X41998100Y-35429050D01*
X41998731Y-35416215D01*
X42000616Y-35403503D01*
X42003739Y-35391037D01*
X42008068Y-35378938D01*
X42013562Y-35367321D01*
X42020169Y-35356298D01*
X42027824Y-35345976D01*
X42036454Y-35336454D01*
X42045976Y-35327824D01*
X42056298Y-35320169D01*
X42067321Y-35313562D01*
X42078938Y-35308068D01*
X42091037Y-35303739D01*
X42103503Y-35300616D01*
X42116215Y-35298731D01*
X42129050Y-35298100D01*
X43265950Y-35298100D01*
X43278785Y-35298731D01*
X43278785Y-35298731D01*
G37*
D13*
X42697500Y-35560000D03*
D10*
G36*
X43278785Y-36568731D02*
G01*
X43291497Y-36570616D01*
X43303963Y-36573739D01*
X43316062Y-36578068D01*
X43327679Y-36583562D01*
X43338702Y-36590169D01*
X43349024Y-36597824D01*
X43358546Y-36606454D01*
X43367176Y-36615976D01*
X43374831Y-36626298D01*
X43381438Y-36637321D01*
X43386932Y-36648938D01*
X43391261Y-36661037D01*
X43394384Y-36673503D01*
X43396269Y-36686215D01*
X43396900Y-36699050D01*
X43396900Y-36960950D01*
X43396269Y-36973785D01*
X43394384Y-36986497D01*
X43391261Y-36998963D01*
X43386932Y-37011062D01*
X43381438Y-37022679D01*
X43374831Y-37033702D01*
X43367176Y-37044024D01*
X43358546Y-37053546D01*
X43349024Y-37062176D01*
X43338702Y-37069831D01*
X43327679Y-37076438D01*
X43316062Y-37081932D01*
X43303963Y-37086261D01*
X43291497Y-37089384D01*
X43278785Y-37091269D01*
X43265950Y-37091900D01*
X42129050Y-37091900D01*
X42116215Y-37091269D01*
X42103503Y-37089384D01*
X42091037Y-37086261D01*
X42078938Y-37081932D01*
X42067321Y-37076438D01*
X42056298Y-37069831D01*
X42045976Y-37062176D01*
X42036454Y-37053546D01*
X42027824Y-37044024D01*
X42020169Y-37033702D01*
X42013562Y-37022679D01*
X42008068Y-37011062D01*
X42003739Y-36998963D01*
X42000616Y-36986497D01*
X41998731Y-36973785D01*
X41998100Y-36960950D01*
X41998100Y-36699050D01*
X41998731Y-36686215D01*
X42000616Y-36673503D01*
X42003739Y-36661037D01*
X42008068Y-36648938D01*
X42013562Y-36637321D01*
X42020169Y-36626298D01*
X42027824Y-36615976D01*
X42036454Y-36606454D01*
X42045976Y-36597824D01*
X42056298Y-36590169D01*
X42067321Y-36583562D01*
X42078938Y-36578068D01*
X42091037Y-36573739D01*
X42103503Y-36570616D01*
X42116215Y-36568731D01*
X42129050Y-36568100D01*
X43265950Y-36568100D01*
X43278785Y-36568731D01*
X43278785Y-36568731D01*
G37*
D13*
X42697500Y-36830000D03*
D10*
G36*
X43278785Y-37838731D02*
G01*
X43291497Y-37840616D01*
X43303963Y-37843739D01*
X43316062Y-37848068D01*
X43327679Y-37853562D01*
X43338702Y-37860169D01*
X43349024Y-37867824D01*
X43358546Y-37876454D01*
X43367176Y-37885976D01*
X43374831Y-37896298D01*
X43381438Y-37907321D01*
X43386932Y-37918938D01*
X43391261Y-37931037D01*
X43394384Y-37943503D01*
X43396269Y-37956215D01*
X43396900Y-37969050D01*
X43396900Y-38230950D01*
X43396269Y-38243785D01*
X43394384Y-38256497D01*
X43391261Y-38268963D01*
X43386932Y-38281062D01*
X43381438Y-38292679D01*
X43374831Y-38303702D01*
X43367176Y-38314024D01*
X43358546Y-38323546D01*
X43349024Y-38332176D01*
X43338702Y-38339831D01*
X43327679Y-38346438D01*
X43316062Y-38351932D01*
X43303963Y-38356261D01*
X43291497Y-38359384D01*
X43278785Y-38361269D01*
X43265950Y-38361900D01*
X42129050Y-38361900D01*
X42116215Y-38361269D01*
X42103503Y-38359384D01*
X42091037Y-38356261D01*
X42078938Y-38351932D01*
X42067321Y-38346438D01*
X42056298Y-38339831D01*
X42045976Y-38332176D01*
X42036454Y-38323546D01*
X42027824Y-38314024D01*
X42020169Y-38303702D01*
X42013562Y-38292679D01*
X42008068Y-38281062D01*
X42003739Y-38268963D01*
X42000616Y-38256497D01*
X41998731Y-38243785D01*
X41998100Y-38230950D01*
X41998100Y-37969050D01*
X41998731Y-37956215D01*
X42000616Y-37943503D01*
X42003739Y-37931037D01*
X42008068Y-37918938D01*
X42013562Y-37907321D01*
X42020169Y-37896298D01*
X42027824Y-37885976D01*
X42036454Y-37876454D01*
X42045976Y-37867824D01*
X42056298Y-37860169D01*
X42067321Y-37853562D01*
X42078938Y-37848068D01*
X42091037Y-37843739D01*
X42103503Y-37840616D01*
X42116215Y-37838731D01*
X42129050Y-37838100D01*
X43265950Y-37838100D01*
X43278785Y-37838731D01*
X43278785Y-37838731D01*
G37*
D13*
X42697500Y-38100000D03*
D10*
G36*
X43278785Y-39108731D02*
G01*
X43291497Y-39110616D01*
X43303963Y-39113739D01*
X43316062Y-39118068D01*
X43327679Y-39123562D01*
X43338702Y-39130169D01*
X43349024Y-39137824D01*
X43358546Y-39146454D01*
X43367176Y-39155976D01*
X43374831Y-39166298D01*
X43381438Y-39177321D01*
X43386932Y-39188938D01*
X43391261Y-39201037D01*
X43394384Y-39213503D01*
X43396269Y-39226215D01*
X43396900Y-39239050D01*
X43396900Y-39500950D01*
X43396269Y-39513785D01*
X43394384Y-39526497D01*
X43391261Y-39538963D01*
X43386932Y-39551062D01*
X43381438Y-39562679D01*
X43374831Y-39573702D01*
X43367176Y-39584024D01*
X43358546Y-39593546D01*
X43349024Y-39602176D01*
X43338702Y-39609831D01*
X43327679Y-39616438D01*
X43316062Y-39621932D01*
X43303963Y-39626261D01*
X43291497Y-39629384D01*
X43278785Y-39631269D01*
X43265950Y-39631900D01*
X42129050Y-39631900D01*
X42116215Y-39631269D01*
X42103503Y-39629384D01*
X42091037Y-39626261D01*
X42078938Y-39621932D01*
X42067321Y-39616438D01*
X42056298Y-39609831D01*
X42045976Y-39602176D01*
X42036454Y-39593546D01*
X42027824Y-39584024D01*
X42020169Y-39573702D01*
X42013562Y-39562679D01*
X42008068Y-39551062D01*
X42003739Y-39538963D01*
X42000616Y-39526497D01*
X41998731Y-39513785D01*
X41998100Y-39500950D01*
X41998100Y-39239050D01*
X41998731Y-39226215D01*
X42000616Y-39213503D01*
X42003739Y-39201037D01*
X42008068Y-39188938D01*
X42013562Y-39177321D01*
X42020169Y-39166298D01*
X42027824Y-39155976D01*
X42036454Y-39146454D01*
X42045976Y-39137824D01*
X42056298Y-39130169D01*
X42067321Y-39123562D01*
X42078938Y-39118068D01*
X42091037Y-39113739D01*
X42103503Y-39110616D01*
X42116215Y-39108731D01*
X42129050Y-39108100D01*
X43265950Y-39108100D01*
X43278785Y-39108731D01*
X43278785Y-39108731D01*
G37*
D13*
X42697500Y-39370000D03*
D10*
G36*
X43278785Y-40378731D02*
G01*
X43291497Y-40380616D01*
X43303963Y-40383739D01*
X43316062Y-40388068D01*
X43327679Y-40393562D01*
X43338702Y-40400169D01*
X43349024Y-40407824D01*
X43358546Y-40416454D01*
X43367176Y-40425976D01*
X43374831Y-40436298D01*
X43381438Y-40447321D01*
X43386932Y-40458938D01*
X43391261Y-40471037D01*
X43394384Y-40483503D01*
X43396269Y-40496215D01*
X43396900Y-40509050D01*
X43396900Y-40770950D01*
X43396269Y-40783785D01*
X43394384Y-40796497D01*
X43391261Y-40808963D01*
X43386932Y-40821062D01*
X43381438Y-40832679D01*
X43374831Y-40843702D01*
X43367176Y-40854024D01*
X43358546Y-40863546D01*
X43349024Y-40872176D01*
X43338702Y-40879831D01*
X43327679Y-40886438D01*
X43316062Y-40891932D01*
X43303963Y-40896261D01*
X43291497Y-40899384D01*
X43278785Y-40901269D01*
X43265950Y-40901900D01*
X42129050Y-40901900D01*
X42116215Y-40901269D01*
X42103503Y-40899384D01*
X42091037Y-40896261D01*
X42078938Y-40891932D01*
X42067321Y-40886438D01*
X42056298Y-40879831D01*
X42045976Y-40872176D01*
X42036454Y-40863546D01*
X42027824Y-40854024D01*
X42020169Y-40843702D01*
X42013562Y-40832679D01*
X42008068Y-40821062D01*
X42003739Y-40808963D01*
X42000616Y-40796497D01*
X41998731Y-40783785D01*
X41998100Y-40770950D01*
X41998100Y-40509050D01*
X41998731Y-40496215D01*
X42000616Y-40483503D01*
X42003739Y-40471037D01*
X42008068Y-40458938D01*
X42013562Y-40447321D01*
X42020169Y-40436298D01*
X42027824Y-40425976D01*
X42036454Y-40416454D01*
X42045976Y-40407824D01*
X42056298Y-40400169D01*
X42067321Y-40393562D01*
X42078938Y-40388068D01*
X42091037Y-40383739D01*
X42103503Y-40380616D01*
X42116215Y-40378731D01*
X42129050Y-40378100D01*
X43265950Y-40378100D01*
X43278785Y-40378731D01*
X43278785Y-40378731D01*
G37*
D13*
X42697500Y-40640000D03*
D10*
G36*
X43278785Y-41648731D02*
G01*
X43291497Y-41650616D01*
X43303963Y-41653739D01*
X43316062Y-41658068D01*
X43327679Y-41663562D01*
X43338702Y-41670169D01*
X43349024Y-41677824D01*
X43358546Y-41686454D01*
X43367176Y-41695976D01*
X43374831Y-41706298D01*
X43381438Y-41717321D01*
X43386932Y-41728938D01*
X43391261Y-41741037D01*
X43394384Y-41753503D01*
X43396269Y-41766215D01*
X43396900Y-41779050D01*
X43396900Y-42040950D01*
X43396269Y-42053785D01*
X43394384Y-42066497D01*
X43391261Y-42078963D01*
X43386932Y-42091062D01*
X43381438Y-42102679D01*
X43374831Y-42113702D01*
X43367176Y-42124024D01*
X43358546Y-42133546D01*
X43349024Y-42142176D01*
X43338702Y-42149831D01*
X43327679Y-42156438D01*
X43316062Y-42161932D01*
X43303963Y-42166261D01*
X43291497Y-42169384D01*
X43278785Y-42171269D01*
X43265950Y-42171900D01*
X42129050Y-42171900D01*
X42116215Y-42171269D01*
X42103503Y-42169384D01*
X42091037Y-42166261D01*
X42078938Y-42161932D01*
X42067321Y-42156438D01*
X42056298Y-42149831D01*
X42045976Y-42142176D01*
X42036454Y-42133546D01*
X42027824Y-42124024D01*
X42020169Y-42113702D01*
X42013562Y-42102679D01*
X42008068Y-42091062D01*
X42003739Y-42078963D01*
X42000616Y-42066497D01*
X41998731Y-42053785D01*
X41998100Y-42040950D01*
X41998100Y-41779050D01*
X41998731Y-41766215D01*
X42000616Y-41753503D01*
X42003739Y-41741037D01*
X42008068Y-41728938D01*
X42013562Y-41717321D01*
X42020169Y-41706298D01*
X42027824Y-41695976D01*
X42036454Y-41686454D01*
X42045976Y-41677824D01*
X42056298Y-41670169D01*
X42067321Y-41663562D01*
X42078938Y-41658068D01*
X42091037Y-41653739D01*
X42103503Y-41650616D01*
X42116215Y-41648731D01*
X42129050Y-41648100D01*
X43265950Y-41648100D01*
X43278785Y-41648731D01*
X43278785Y-41648731D01*
G37*
D13*
X42697500Y-41910000D03*
D10*
G36*
X44593785Y-42968731D02*
G01*
X44606497Y-42970616D01*
X44618963Y-42973739D01*
X44631062Y-42978068D01*
X44642679Y-42983562D01*
X44653702Y-42990169D01*
X44664024Y-42997824D01*
X44673546Y-43006454D01*
X44682176Y-43015976D01*
X44689831Y-43026298D01*
X44696438Y-43037321D01*
X44701932Y-43048938D01*
X44706261Y-43061037D01*
X44709384Y-43073503D01*
X44711269Y-43086215D01*
X44711900Y-43099050D01*
X44711900Y-44235950D01*
X44711269Y-44248785D01*
X44709384Y-44261497D01*
X44706261Y-44273963D01*
X44701932Y-44286062D01*
X44696438Y-44297679D01*
X44689831Y-44308702D01*
X44682176Y-44319024D01*
X44673546Y-44328546D01*
X44664024Y-44337176D01*
X44653702Y-44344831D01*
X44642679Y-44351438D01*
X44631062Y-44356932D01*
X44618963Y-44361261D01*
X44606497Y-44364384D01*
X44593785Y-44366269D01*
X44580950Y-44366900D01*
X44319050Y-44366900D01*
X44306215Y-44366269D01*
X44293503Y-44364384D01*
X44281037Y-44361261D01*
X44268938Y-44356932D01*
X44257321Y-44351438D01*
X44246298Y-44344831D01*
X44235976Y-44337176D01*
X44226454Y-44328546D01*
X44217824Y-44319024D01*
X44210169Y-44308702D01*
X44203562Y-44297679D01*
X44198068Y-44286062D01*
X44193739Y-44273963D01*
X44190616Y-44261497D01*
X44188731Y-44248785D01*
X44188100Y-44235950D01*
X44188100Y-43099050D01*
X44188731Y-43086215D01*
X44190616Y-43073503D01*
X44193739Y-43061037D01*
X44198068Y-43048938D01*
X44203562Y-43037321D01*
X44210169Y-43026298D01*
X44217824Y-43015976D01*
X44226454Y-43006454D01*
X44235976Y-42997824D01*
X44246298Y-42990169D01*
X44257321Y-42983562D01*
X44268938Y-42978068D01*
X44281037Y-42973739D01*
X44293503Y-42970616D01*
X44306215Y-42968731D01*
X44319050Y-42968100D01*
X44580950Y-42968100D01*
X44593785Y-42968731D01*
X44593785Y-42968731D01*
G37*
D13*
X44450000Y-43667500D03*
D10*
G36*
X45863785Y-42968731D02*
G01*
X45876497Y-42970616D01*
X45888963Y-42973739D01*
X45901062Y-42978068D01*
X45912679Y-42983562D01*
X45923702Y-42990169D01*
X45934024Y-42997824D01*
X45943546Y-43006454D01*
X45952176Y-43015976D01*
X45959831Y-43026298D01*
X45966438Y-43037321D01*
X45971932Y-43048938D01*
X45976261Y-43061037D01*
X45979384Y-43073503D01*
X45981269Y-43086215D01*
X45981900Y-43099050D01*
X45981900Y-44235950D01*
X45981269Y-44248785D01*
X45979384Y-44261497D01*
X45976261Y-44273963D01*
X45971932Y-44286062D01*
X45966438Y-44297679D01*
X45959831Y-44308702D01*
X45952176Y-44319024D01*
X45943546Y-44328546D01*
X45934024Y-44337176D01*
X45923702Y-44344831D01*
X45912679Y-44351438D01*
X45901062Y-44356932D01*
X45888963Y-44361261D01*
X45876497Y-44364384D01*
X45863785Y-44366269D01*
X45850950Y-44366900D01*
X45589050Y-44366900D01*
X45576215Y-44366269D01*
X45563503Y-44364384D01*
X45551037Y-44361261D01*
X45538938Y-44356932D01*
X45527321Y-44351438D01*
X45516298Y-44344831D01*
X45505976Y-44337176D01*
X45496454Y-44328546D01*
X45487824Y-44319024D01*
X45480169Y-44308702D01*
X45473562Y-44297679D01*
X45468068Y-44286062D01*
X45463739Y-44273963D01*
X45460616Y-44261497D01*
X45458731Y-44248785D01*
X45458100Y-44235950D01*
X45458100Y-43099050D01*
X45458731Y-43086215D01*
X45460616Y-43073503D01*
X45463739Y-43061037D01*
X45468068Y-43048938D01*
X45473562Y-43037321D01*
X45480169Y-43026298D01*
X45487824Y-43015976D01*
X45496454Y-43006454D01*
X45505976Y-42997824D01*
X45516298Y-42990169D01*
X45527321Y-42983562D01*
X45538938Y-42978068D01*
X45551037Y-42973739D01*
X45563503Y-42970616D01*
X45576215Y-42968731D01*
X45589050Y-42968100D01*
X45850950Y-42968100D01*
X45863785Y-42968731D01*
X45863785Y-42968731D01*
G37*
D13*
X45720000Y-43667500D03*
D10*
G36*
X47133785Y-42968731D02*
G01*
X47146497Y-42970616D01*
X47158963Y-42973739D01*
X47171062Y-42978068D01*
X47182679Y-42983562D01*
X47193702Y-42990169D01*
X47204024Y-42997824D01*
X47213546Y-43006454D01*
X47222176Y-43015976D01*
X47229831Y-43026298D01*
X47236438Y-43037321D01*
X47241932Y-43048938D01*
X47246261Y-43061037D01*
X47249384Y-43073503D01*
X47251269Y-43086215D01*
X47251900Y-43099050D01*
X47251900Y-44235950D01*
X47251269Y-44248785D01*
X47249384Y-44261497D01*
X47246261Y-44273963D01*
X47241932Y-44286062D01*
X47236438Y-44297679D01*
X47229831Y-44308702D01*
X47222176Y-44319024D01*
X47213546Y-44328546D01*
X47204024Y-44337176D01*
X47193702Y-44344831D01*
X47182679Y-44351438D01*
X47171062Y-44356932D01*
X47158963Y-44361261D01*
X47146497Y-44364384D01*
X47133785Y-44366269D01*
X47120950Y-44366900D01*
X46859050Y-44366900D01*
X46846215Y-44366269D01*
X46833503Y-44364384D01*
X46821037Y-44361261D01*
X46808938Y-44356932D01*
X46797321Y-44351438D01*
X46786298Y-44344831D01*
X46775976Y-44337176D01*
X46766454Y-44328546D01*
X46757824Y-44319024D01*
X46750169Y-44308702D01*
X46743562Y-44297679D01*
X46738068Y-44286062D01*
X46733739Y-44273963D01*
X46730616Y-44261497D01*
X46728731Y-44248785D01*
X46728100Y-44235950D01*
X46728100Y-43099050D01*
X46728731Y-43086215D01*
X46730616Y-43073503D01*
X46733739Y-43061037D01*
X46738068Y-43048938D01*
X46743562Y-43037321D01*
X46750169Y-43026298D01*
X46757824Y-43015976D01*
X46766454Y-43006454D01*
X46775976Y-42997824D01*
X46786298Y-42990169D01*
X46797321Y-42983562D01*
X46808938Y-42978068D01*
X46821037Y-42973739D01*
X46833503Y-42970616D01*
X46846215Y-42968731D01*
X46859050Y-42968100D01*
X47120950Y-42968100D01*
X47133785Y-42968731D01*
X47133785Y-42968731D01*
G37*
D13*
X46990000Y-43667500D03*
D10*
G36*
X48403785Y-42968731D02*
G01*
X48416497Y-42970616D01*
X48428963Y-42973739D01*
X48441062Y-42978068D01*
X48452679Y-42983562D01*
X48463702Y-42990169D01*
X48474024Y-42997824D01*
X48483546Y-43006454D01*
X48492176Y-43015976D01*
X48499831Y-43026298D01*
X48506438Y-43037321D01*
X48511932Y-43048938D01*
X48516261Y-43061037D01*
X48519384Y-43073503D01*
X48521269Y-43086215D01*
X48521900Y-43099050D01*
X48521900Y-44235950D01*
X48521269Y-44248785D01*
X48519384Y-44261497D01*
X48516261Y-44273963D01*
X48511932Y-44286062D01*
X48506438Y-44297679D01*
X48499831Y-44308702D01*
X48492176Y-44319024D01*
X48483546Y-44328546D01*
X48474024Y-44337176D01*
X48463702Y-44344831D01*
X48452679Y-44351438D01*
X48441062Y-44356932D01*
X48428963Y-44361261D01*
X48416497Y-44364384D01*
X48403785Y-44366269D01*
X48390950Y-44366900D01*
X48129050Y-44366900D01*
X48116215Y-44366269D01*
X48103503Y-44364384D01*
X48091037Y-44361261D01*
X48078938Y-44356932D01*
X48067321Y-44351438D01*
X48056298Y-44344831D01*
X48045976Y-44337176D01*
X48036454Y-44328546D01*
X48027824Y-44319024D01*
X48020169Y-44308702D01*
X48013562Y-44297679D01*
X48008068Y-44286062D01*
X48003739Y-44273963D01*
X48000616Y-44261497D01*
X47998731Y-44248785D01*
X47998100Y-44235950D01*
X47998100Y-43099050D01*
X47998731Y-43086215D01*
X48000616Y-43073503D01*
X48003739Y-43061037D01*
X48008068Y-43048938D01*
X48013562Y-43037321D01*
X48020169Y-43026298D01*
X48027824Y-43015976D01*
X48036454Y-43006454D01*
X48045976Y-42997824D01*
X48056298Y-42990169D01*
X48067321Y-42983562D01*
X48078938Y-42978068D01*
X48091037Y-42973739D01*
X48103503Y-42970616D01*
X48116215Y-42968731D01*
X48129050Y-42968100D01*
X48390950Y-42968100D01*
X48403785Y-42968731D01*
X48403785Y-42968731D01*
G37*
D13*
X48260000Y-43667500D03*
D10*
G36*
X49673785Y-42968731D02*
G01*
X49686497Y-42970616D01*
X49698963Y-42973739D01*
X49711062Y-42978068D01*
X49722679Y-42983562D01*
X49733702Y-42990169D01*
X49744024Y-42997824D01*
X49753546Y-43006454D01*
X49762176Y-43015976D01*
X49769831Y-43026298D01*
X49776438Y-43037321D01*
X49781932Y-43048938D01*
X49786261Y-43061037D01*
X49789384Y-43073503D01*
X49791269Y-43086215D01*
X49791900Y-43099050D01*
X49791900Y-44235950D01*
X49791269Y-44248785D01*
X49789384Y-44261497D01*
X49786261Y-44273963D01*
X49781932Y-44286062D01*
X49776438Y-44297679D01*
X49769831Y-44308702D01*
X49762176Y-44319024D01*
X49753546Y-44328546D01*
X49744024Y-44337176D01*
X49733702Y-44344831D01*
X49722679Y-44351438D01*
X49711062Y-44356932D01*
X49698963Y-44361261D01*
X49686497Y-44364384D01*
X49673785Y-44366269D01*
X49660950Y-44366900D01*
X49399050Y-44366900D01*
X49386215Y-44366269D01*
X49373503Y-44364384D01*
X49361037Y-44361261D01*
X49348938Y-44356932D01*
X49337321Y-44351438D01*
X49326298Y-44344831D01*
X49315976Y-44337176D01*
X49306454Y-44328546D01*
X49297824Y-44319024D01*
X49290169Y-44308702D01*
X49283562Y-44297679D01*
X49278068Y-44286062D01*
X49273739Y-44273963D01*
X49270616Y-44261497D01*
X49268731Y-44248785D01*
X49268100Y-44235950D01*
X49268100Y-43099050D01*
X49268731Y-43086215D01*
X49270616Y-43073503D01*
X49273739Y-43061037D01*
X49278068Y-43048938D01*
X49283562Y-43037321D01*
X49290169Y-43026298D01*
X49297824Y-43015976D01*
X49306454Y-43006454D01*
X49315976Y-42997824D01*
X49326298Y-42990169D01*
X49337321Y-42983562D01*
X49348938Y-42978068D01*
X49361037Y-42973739D01*
X49373503Y-42970616D01*
X49386215Y-42968731D01*
X49399050Y-42968100D01*
X49660950Y-42968100D01*
X49673785Y-42968731D01*
X49673785Y-42968731D01*
G37*
D13*
X49530000Y-43667500D03*
D10*
G36*
X50943785Y-42968731D02*
G01*
X50956497Y-42970616D01*
X50968963Y-42973739D01*
X50981062Y-42978068D01*
X50992679Y-42983562D01*
X51003702Y-42990169D01*
X51014024Y-42997824D01*
X51023546Y-43006454D01*
X51032176Y-43015976D01*
X51039831Y-43026298D01*
X51046438Y-43037321D01*
X51051932Y-43048938D01*
X51056261Y-43061037D01*
X51059384Y-43073503D01*
X51061269Y-43086215D01*
X51061900Y-43099050D01*
X51061900Y-44235950D01*
X51061269Y-44248785D01*
X51059384Y-44261497D01*
X51056261Y-44273963D01*
X51051932Y-44286062D01*
X51046438Y-44297679D01*
X51039831Y-44308702D01*
X51032176Y-44319024D01*
X51023546Y-44328546D01*
X51014024Y-44337176D01*
X51003702Y-44344831D01*
X50992679Y-44351438D01*
X50981062Y-44356932D01*
X50968963Y-44361261D01*
X50956497Y-44364384D01*
X50943785Y-44366269D01*
X50930950Y-44366900D01*
X50669050Y-44366900D01*
X50656215Y-44366269D01*
X50643503Y-44364384D01*
X50631037Y-44361261D01*
X50618938Y-44356932D01*
X50607321Y-44351438D01*
X50596298Y-44344831D01*
X50585976Y-44337176D01*
X50576454Y-44328546D01*
X50567824Y-44319024D01*
X50560169Y-44308702D01*
X50553562Y-44297679D01*
X50548068Y-44286062D01*
X50543739Y-44273963D01*
X50540616Y-44261497D01*
X50538731Y-44248785D01*
X50538100Y-44235950D01*
X50538100Y-43099050D01*
X50538731Y-43086215D01*
X50540616Y-43073503D01*
X50543739Y-43061037D01*
X50548068Y-43048938D01*
X50553562Y-43037321D01*
X50560169Y-43026298D01*
X50567824Y-43015976D01*
X50576454Y-43006454D01*
X50585976Y-42997824D01*
X50596298Y-42990169D01*
X50607321Y-42983562D01*
X50618938Y-42978068D01*
X50631037Y-42973739D01*
X50643503Y-42970616D01*
X50656215Y-42968731D01*
X50669050Y-42968100D01*
X50930950Y-42968100D01*
X50943785Y-42968731D01*
X50943785Y-42968731D01*
G37*
D13*
X50800000Y-43667500D03*
D10*
G36*
X52213785Y-42968731D02*
G01*
X52226497Y-42970616D01*
X52238963Y-42973739D01*
X52251062Y-42978068D01*
X52262679Y-42983562D01*
X52273702Y-42990169D01*
X52284024Y-42997824D01*
X52293546Y-43006454D01*
X52302176Y-43015976D01*
X52309831Y-43026298D01*
X52316438Y-43037321D01*
X52321932Y-43048938D01*
X52326261Y-43061037D01*
X52329384Y-43073503D01*
X52331269Y-43086215D01*
X52331900Y-43099050D01*
X52331900Y-44235950D01*
X52331269Y-44248785D01*
X52329384Y-44261497D01*
X52326261Y-44273963D01*
X52321932Y-44286062D01*
X52316438Y-44297679D01*
X52309831Y-44308702D01*
X52302176Y-44319024D01*
X52293546Y-44328546D01*
X52284024Y-44337176D01*
X52273702Y-44344831D01*
X52262679Y-44351438D01*
X52251062Y-44356932D01*
X52238963Y-44361261D01*
X52226497Y-44364384D01*
X52213785Y-44366269D01*
X52200950Y-44366900D01*
X51939050Y-44366900D01*
X51926215Y-44366269D01*
X51913503Y-44364384D01*
X51901037Y-44361261D01*
X51888938Y-44356932D01*
X51877321Y-44351438D01*
X51866298Y-44344831D01*
X51855976Y-44337176D01*
X51846454Y-44328546D01*
X51837824Y-44319024D01*
X51830169Y-44308702D01*
X51823562Y-44297679D01*
X51818068Y-44286062D01*
X51813739Y-44273963D01*
X51810616Y-44261497D01*
X51808731Y-44248785D01*
X51808100Y-44235950D01*
X51808100Y-43099050D01*
X51808731Y-43086215D01*
X51810616Y-43073503D01*
X51813739Y-43061037D01*
X51818068Y-43048938D01*
X51823562Y-43037321D01*
X51830169Y-43026298D01*
X51837824Y-43015976D01*
X51846454Y-43006454D01*
X51855976Y-42997824D01*
X51866298Y-42990169D01*
X51877321Y-42983562D01*
X51888938Y-42978068D01*
X51901037Y-42973739D01*
X51913503Y-42970616D01*
X51926215Y-42968731D01*
X51939050Y-42968100D01*
X52200950Y-42968100D01*
X52213785Y-42968731D01*
X52213785Y-42968731D01*
G37*
D13*
X52070000Y-43667500D03*
D10*
G36*
X54403785Y-41648731D02*
G01*
X54416497Y-41650616D01*
X54428963Y-41653739D01*
X54441062Y-41658068D01*
X54452679Y-41663562D01*
X54463702Y-41670169D01*
X54474024Y-41677824D01*
X54483546Y-41686454D01*
X54492176Y-41695976D01*
X54499831Y-41706298D01*
X54506438Y-41717321D01*
X54511932Y-41728938D01*
X54516261Y-41741037D01*
X54519384Y-41753503D01*
X54521269Y-41766215D01*
X54521900Y-41779050D01*
X54521900Y-42040950D01*
X54521269Y-42053785D01*
X54519384Y-42066497D01*
X54516261Y-42078963D01*
X54511932Y-42091062D01*
X54506438Y-42102679D01*
X54499831Y-42113702D01*
X54492176Y-42124024D01*
X54483546Y-42133546D01*
X54474024Y-42142176D01*
X54463702Y-42149831D01*
X54452679Y-42156438D01*
X54441062Y-42161932D01*
X54428963Y-42166261D01*
X54416497Y-42169384D01*
X54403785Y-42171269D01*
X54390950Y-42171900D01*
X53254050Y-42171900D01*
X53241215Y-42171269D01*
X53228503Y-42169384D01*
X53216037Y-42166261D01*
X53203938Y-42161932D01*
X53192321Y-42156438D01*
X53181298Y-42149831D01*
X53170976Y-42142176D01*
X53161454Y-42133546D01*
X53152824Y-42124024D01*
X53145169Y-42113702D01*
X53138562Y-42102679D01*
X53133068Y-42091062D01*
X53128739Y-42078963D01*
X53125616Y-42066497D01*
X53123731Y-42053785D01*
X53123100Y-42040950D01*
X53123100Y-41779050D01*
X53123731Y-41766215D01*
X53125616Y-41753503D01*
X53128739Y-41741037D01*
X53133068Y-41728938D01*
X53138562Y-41717321D01*
X53145169Y-41706298D01*
X53152824Y-41695976D01*
X53161454Y-41686454D01*
X53170976Y-41677824D01*
X53181298Y-41670169D01*
X53192321Y-41663562D01*
X53203938Y-41658068D01*
X53216037Y-41653739D01*
X53228503Y-41650616D01*
X53241215Y-41648731D01*
X53254050Y-41648100D01*
X54390950Y-41648100D01*
X54403785Y-41648731D01*
X54403785Y-41648731D01*
G37*
D13*
X53822500Y-41910000D03*
D10*
G36*
X54403785Y-40378731D02*
G01*
X54416497Y-40380616D01*
X54428963Y-40383739D01*
X54441062Y-40388068D01*
X54452679Y-40393562D01*
X54463702Y-40400169D01*
X54474024Y-40407824D01*
X54483546Y-40416454D01*
X54492176Y-40425976D01*
X54499831Y-40436298D01*
X54506438Y-40447321D01*
X54511932Y-40458938D01*
X54516261Y-40471037D01*
X54519384Y-40483503D01*
X54521269Y-40496215D01*
X54521900Y-40509050D01*
X54521900Y-40770950D01*
X54521269Y-40783785D01*
X54519384Y-40796497D01*
X54516261Y-40808963D01*
X54511932Y-40821062D01*
X54506438Y-40832679D01*
X54499831Y-40843702D01*
X54492176Y-40854024D01*
X54483546Y-40863546D01*
X54474024Y-40872176D01*
X54463702Y-40879831D01*
X54452679Y-40886438D01*
X54441062Y-40891932D01*
X54428963Y-40896261D01*
X54416497Y-40899384D01*
X54403785Y-40901269D01*
X54390950Y-40901900D01*
X53254050Y-40901900D01*
X53241215Y-40901269D01*
X53228503Y-40899384D01*
X53216037Y-40896261D01*
X53203938Y-40891932D01*
X53192321Y-40886438D01*
X53181298Y-40879831D01*
X53170976Y-40872176D01*
X53161454Y-40863546D01*
X53152824Y-40854024D01*
X53145169Y-40843702D01*
X53138562Y-40832679D01*
X53133068Y-40821062D01*
X53128739Y-40808963D01*
X53125616Y-40796497D01*
X53123731Y-40783785D01*
X53123100Y-40770950D01*
X53123100Y-40509050D01*
X53123731Y-40496215D01*
X53125616Y-40483503D01*
X53128739Y-40471037D01*
X53133068Y-40458938D01*
X53138562Y-40447321D01*
X53145169Y-40436298D01*
X53152824Y-40425976D01*
X53161454Y-40416454D01*
X53170976Y-40407824D01*
X53181298Y-40400169D01*
X53192321Y-40393562D01*
X53203938Y-40388068D01*
X53216037Y-40383739D01*
X53228503Y-40380616D01*
X53241215Y-40378731D01*
X53254050Y-40378100D01*
X54390950Y-40378100D01*
X54403785Y-40378731D01*
X54403785Y-40378731D01*
G37*
D13*
X53822500Y-40640000D03*
D10*
G36*
X54403785Y-39108731D02*
G01*
X54416497Y-39110616D01*
X54428963Y-39113739D01*
X54441062Y-39118068D01*
X54452679Y-39123562D01*
X54463702Y-39130169D01*
X54474024Y-39137824D01*
X54483546Y-39146454D01*
X54492176Y-39155976D01*
X54499831Y-39166298D01*
X54506438Y-39177321D01*
X54511932Y-39188938D01*
X54516261Y-39201037D01*
X54519384Y-39213503D01*
X54521269Y-39226215D01*
X54521900Y-39239050D01*
X54521900Y-39500950D01*
X54521269Y-39513785D01*
X54519384Y-39526497D01*
X54516261Y-39538963D01*
X54511932Y-39551062D01*
X54506438Y-39562679D01*
X54499831Y-39573702D01*
X54492176Y-39584024D01*
X54483546Y-39593546D01*
X54474024Y-39602176D01*
X54463702Y-39609831D01*
X54452679Y-39616438D01*
X54441062Y-39621932D01*
X54428963Y-39626261D01*
X54416497Y-39629384D01*
X54403785Y-39631269D01*
X54390950Y-39631900D01*
X53254050Y-39631900D01*
X53241215Y-39631269D01*
X53228503Y-39629384D01*
X53216037Y-39626261D01*
X53203938Y-39621932D01*
X53192321Y-39616438D01*
X53181298Y-39609831D01*
X53170976Y-39602176D01*
X53161454Y-39593546D01*
X53152824Y-39584024D01*
X53145169Y-39573702D01*
X53138562Y-39562679D01*
X53133068Y-39551062D01*
X53128739Y-39538963D01*
X53125616Y-39526497D01*
X53123731Y-39513785D01*
X53123100Y-39500950D01*
X53123100Y-39239050D01*
X53123731Y-39226215D01*
X53125616Y-39213503D01*
X53128739Y-39201037D01*
X53133068Y-39188938D01*
X53138562Y-39177321D01*
X53145169Y-39166298D01*
X53152824Y-39155976D01*
X53161454Y-39146454D01*
X53170976Y-39137824D01*
X53181298Y-39130169D01*
X53192321Y-39123562D01*
X53203938Y-39118068D01*
X53216037Y-39113739D01*
X53228503Y-39110616D01*
X53241215Y-39108731D01*
X53254050Y-39108100D01*
X54390950Y-39108100D01*
X54403785Y-39108731D01*
X54403785Y-39108731D01*
G37*
D13*
X53822500Y-39370000D03*
D10*
G36*
X54403785Y-37838731D02*
G01*
X54416497Y-37840616D01*
X54428963Y-37843739D01*
X54441062Y-37848068D01*
X54452679Y-37853562D01*
X54463702Y-37860169D01*
X54474024Y-37867824D01*
X54483546Y-37876454D01*
X54492176Y-37885976D01*
X54499831Y-37896298D01*
X54506438Y-37907321D01*
X54511932Y-37918938D01*
X54516261Y-37931037D01*
X54519384Y-37943503D01*
X54521269Y-37956215D01*
X54521900Y-37969050D01*
X54521900Y-38230950D01*
X54521269Y-38243785D01*
X54519384Y-38256497D01*
X54516261Y-38268963D01*
X54511932Y-38281062D01*
X54506438Y-38292679D01*
X54499831Y-38303702D01*
X54492176Y-38314024D01*
X54483546Y-38323546D01*
X54474024Y-38332176D01*
X54463702Y-38339831D01*
X54452679Y-38346438D01*
X54441062Y-38351932D01*
X54428963Y-38356261D01*
X54416497Y-38359384D01*
X54403785Y-38361269D01*
X54390950Y-38361900D01*
X53254050Y-38361900D01*
X53241215Y-38361269D01*
X53228503Y-38359384D01*
X53216037Y-38356261D01*
X53203938Y-38351932D01*
X53192321Y-38346438D01*
X53181298Y-38339831D01*
X53170976Y-38332176D01*
X53161454Y-38323546D01*
X53152824Y-38314024D01*
X53145169Y-38303702D01*
X53138562Y-38292679D01*
X53133068Y-38281062D01*
X53128739Y-38268963D01*
X53125616Y-38256497D01*
X53123731Y-38243785D01*
X53123100Y-38230950D01*
X53123100Y-37969050D01*
X53123731Y-37956215D01*
X53125616Y-37943503D01*
X53128739Y-37931037D01*
X53133068Y-37918938D01*
X53138562Y-37907321D01*
X53145169Y-37896298D01*
X53152824Y-37885976D01*
X53161454Y-37876454D01*
X53170976Y-37867824D01*
X53181298Y-37860169D01*
X53192321Y-37853562D01*
X53203938Y-37848068D01*
X53216037Y-37843739D01*
X53228503Y-37840616D01*
X53241215Y-37838731D01*
X53254050Y-37838100D01*
X54390950Y-37838100D01*
X54403785Y-37838731D01*
X54403785Y-37838731D01*
G37*
D13*
X53822500Y-38100000D03*
D10*
G36*
X54403785Y-36568731D02*
G01*
X54416497Y-36570616D01*
X54428963Y-36573739D01*
X54441062Y-36578068D01*
X54452679Y-36583562D01*
X54463702Y-36590169D01*
X54474024Y-36597824D01*
X54483546Y-36606454D01*
X54492176Y-36615976D01*
X54499831Y-36626298D01*
X54506438Y-36637321D01*
X54511932Y-36648938D01*
X54516261Y-36661037D01*
X54519384Y-36673503D01*
X54521269Y-36686215D01*
X54521900Y-36699050D01*
X54521900Y-36960950D01*
X54521269Y-36973785D01*
X54519384Y-36986497D01*
X54516261Y-36998963D01*
X54511932Y-37011062D01*
X54506438Y-37022679D01*
X54499831Y-37033702D01*
X54492176Y-37044024D01*
X54483546Y-37053546D01*
X54474024Y-37062176D01*
X54463702Y-37069831D01*
X54452679Y-37076438D01*
X54441062Y-37081932D01*
X54428963Y-37086261D01*
X54416497Y-37089384D01*
X54403785Y-37091269D01*
X54390950Y-37091900D01*
X53254050Y-37091900D01*
X53241215Y-37091269D01*
X53228503Y-37089384D01*
X53216037Y-37086261D01*
X53203938Y-37081932D01*
X53192321Y-37076438D01*
X53181298Y-37069831D01*
X53170976Y-37062176D01*
X53161454Y-37053546D01*
X53152824Y-37044024D01*
X53145169Y-37033702D01*
X53138562Y-37022679D01*
X53133068Y-37011062D01*
X53128739Y-36998963D01*
X53125616Y-36986497D01*
X53123731Y-36973785D01*
X53123100Y-36960950D01*
X53123100Y-36699050D01*
X53123731Y-36686215D01*
X53125616Y-36673503D01*
X53128739Y-36661037D01*
X53133068Y-36648938D01*
X53138562Y-36637321D01*
X53145169Y-36626298D01*
X53152824Y-36615976D01*
X53161454Y-36606454D01*
X53170976Y-36597824D01*
X53181298Y-36590169D01*
X53192321Y-36583562D01*
X53203938Y-36578068D01*
X53216037Y-36573739D01*
X53228503Y-36570616D01*
X53241215Y-36568731D01*
X53254050Y-36568100D01*
X54390950Y-36568100D01*
X54403785Y-36568731D01*
X54403785Y-36568731D01*
G37*
D13*
X53822500Y-36830000D03*
D10*
G36*
X54403785Y-35298731D02*
G01*
X54416497Y-35300616D01*
X54428963Y-35303739D01*
X54441062Y-35308068D01*
X54452679Y-35313562D01*
X54463702Y-35320169D01*
X54474024Y-35327824D01*
X54483546Y-35336454D01*
X54492176Y-35345976D01*
X54499831Y-35356298D01*
X54506438Y-35367321D01*
X54511932Y-35378938D01*
X54516261Y-35391037D01*
X54519384Y-35403503D01*
X54521269Y-35416215D01*
X54521900Y-35429050D01*
X54521900Y-35690950D01*
X54521269Y-35703785D01*
X54519384Y-35716497D01*
X54516261Y-35728963D01*
X54511932Y-35741062D01*
X54506438Y-35752679D01*
X54499831Y-35763702D01*
X54492176Y-35774024D01*
X54483546Y-35783546D01*
X54474024Y-35792176D01*
X54463702Y-35799831D01*
X54452679Y-35806438D01*
X54441062Y-35811932D01*
X54428963Y-35816261D01*
X54416497Y-35819384D01*
X54403785Y-35821269D01*
X54390950Y-35821900D01*
X53254050Y-35821900D01*
X53241215Y-35821269D01*
X53228503Y-35819384D01*
X53216037Y-35816261D01*
X53203938Y-35811932D01*
X53192321Y-35806438D01*
X53181298Y-35799831D01*
X53170976Y-35792176D01*
X53161454Y-35783546D01*
X53152824Y-35774024D01*
X53145169Y-35763702D01*
X53138562Y-35752679D01*
X53133068Y-35741062D01*
X53128739Y-35728963D01*
X53125616Y-35716497D01*
X53123731Y-35703785D01*
X53123100Y-35690950D01*
X53123100Y-35429050D01*
X53123731Y-35416215D01*
X53125616Y-35403503D01*
X53128739Y-35391037D01*
X53133068Y-35378938D01*
X53138562Y-35367321D01*
X53145169Y-35356298D01*
X53152824Y-35345976D01*
X53161454Y-35336454D01*
X53170976Y-35327824D01*
X53181298Y-35320169D01*
X53192321Y-35313562D01*
X53203938Y-35308068D01*
X53216037Y-35303739D01*
X53228503Y-35300616D01*
X53241215Y-35298731D01*
X53254050Y-35298100D01*
X54390950Y-35298100D01*
X54403785Y-35298731D01*
X54403785Y-35298731D01*
G37*
D13*
X53822500Y-35560000D03*
D10*
G36*
X54403785Y-34028731D02*
G01*
X54416497Y-34030616D01*
X54428963Y-34033739D01*
X54441062Y-34038068D01*
X54452679Y-34043562D01*
X54463702Y-34050169D01*
X54474024Y-34057824D01*
X54483546Y-34066454D01*
X54492176Y-34075976D01*
X54499831Y-34086298D01*
X54506438Y-34097321D01*
X54511932Y-34108938D01*
X54516261Y-34121037D01*
X54519384Y-34133503D01*
X54521269Y-34146215D01*
X54521900Y-34159050D01*
X54521900Y-34420950D01*
X54521269Y-34433785D01*
X54519384Y-34446497D01*
X54516261Y-34458963D01*
X54511932Y-34471062D01*
X54506438Y-34482679D01*
X54499831Y-34493702D01*
X54492176Y-34504024D01*
X54483546Y-34513546D01*
X54474024Y-34522176D01*
X54463702Y-34529831D01*
X54452679Y-34536438D01*
X54441062Y-34541932D01*
X54428963Y-34546261D01*
X54416497Y-34549384D01*
X54403785Y-34551269D01*
X54390950Y-34551900D01*
X53254050Y-34551900D01*
X53241215Y-34551269D01*
X53228503Y-34549384D01*
X53216037Y-34546261D01*
X53203938Y-34541932D01*
X53192321Y-34536438D01*
X53181298Y-34529831D01*
X53170976Y-34522176D01*
X53161454Y-34513546D01*
X53152824Y-34504024D01*
X53145169Y-34493702D01*
X53138562Y-34482679D01*
X53133068Y-34471062D01*
X53128739Y-34458963D01*
X53125616Y-34446497D01*
X53123731Y-34433785D01*
X53123100Y-34420950D01*
X53123100Y-34159050D01*
X53123731Y-34146215D01*
X53125616Y-34133503D01*
X53128739Y-34121037D01*
X53133068Y-34108938D01*
X53138562Y-34097321D01*
X53145169Y-34086298D01*
X53152824Y-34075976D01*
X53161454Y-34066454D01*
X53170976Y-34057824D01*
X53181298Y-34050169D01*
X53192321Y-34043562D01*
X53203938Y-34038068D01*
X53216037Y-34033739D01*
X53228503Y-34030616D01*
X53241215Y-34028731D01*
X53254050Y-34028100D01*
X54390950Y-34028100D01*
X54403785Y-34028731D01*
X54403785Y-34028731D01*
G37*
D13*
X53822500Y-34290000D03*
D10*
G36*
X54403785Y-32758731D02*
G01*
X54416497Y-32760616D01*
X54428963Y-32763739D01*
X54441062Y-32768068D01*
X54452679Y-32773562D01*
X54463702Y-32780169D01*
X54474024Y-32787824D01*
X54483546Y-32796454D01*
X54492176Y-32805976D01*
X54499831Y-32816298D01*
X54506438Y-32827321D01*
X54511932Y-32838938D01*
X54516261Y-32851037D01*
X54519384Y-32863503D01*
X54521269Y-32876215D01*
X54521900Y-32889050D01*
X54521900Y-33150950D01*
X54521269Y-33163785D01*
X54519384Y-33176497D01*
X54516261Y-33188963D01*
X54511932Y-33201062D01*
X54506438Y-33212679D01*
X54499831Y-33223702D01*
X54492176Y-33234024D01*
X54483546Y-33243546D01*
X54474024Y-33252176D01*
X54463702Y-33259831D01*
X54452679Y-33266438D01*
X54441062Y-33271932D01*
X54428963Y-33276261D01*
X54416497Y-33279384D01*
X54403785Y-33281269D01*
X54390950Y-33281900D01*
X53254050Y-33281900D01*
X53241215Y-33281269D01*
X53228503Y-33279384D01*
X53216037Y-33276261D01*
X53203938Y-33271932D01*
X53192321Y-33266438D01*
X53181298Y-33259831D01*
X53170976Y-33252176D01*
X53161454Y-33243546D01*
X53152824Y-33234024D01*
X53145169Y-33223702D01*
X53138562Y-33212679D01*
X53133068Y-33201062D01*
X53128739Y-33188963D01*
X53125616Y-33176497D01*
X53123731Y-33163785D01*
X53123100Y-33150950D01*
X53123100Y-32889050D01*
X53123731Y-32876215D01*
X53125616Y-32863503D01*
X53128739Y-32851037D01*
X53133068Y-32838938D01*
X53138562Y-32827321D01*
X53145169Y-32816298D01*
X53152824Y-32805976D01*
X53161454Y-32796454D01*
X53170976Y-32787824D01*
X53181298Y-32780169D01*
X53192321Y-32773562D01*
X53203938Y-32768068D01*
X53216037Y-32763739D01*
X53228503Y-32760616D01*
X53241215Y-32758731D01*
X53254050Y-32758100D01*
X54390950Y-32758100D01*
X54403785Y-32758731D01*
X54403785Y-32758731D01*
G37*
D13*
X53822500Y-33020000D03*
D10*
G36*
X54403785Y-31488731D02*
G01*
X54416497Y-31490616D01*
X54428963Y-31493739D01*
X54441062Y-31498068D01*
X54452679Y-31503562D01*
X54463702Y-31510169D01*
X54474024Y-31517824D01*
X54483546Y-31526454D01*
X54492176Y-31535976D01*
X54499831Y-31546298D01*
X54506438Y-31557321D01*
X54511932Y-31568938D01*
X54516261Y-31581037D01*
X54519384Y-31593503D01*
X54521269Y-31606215D01*
X54521900Y-31619050D01*
X54521900Y-31880950D01*
X54521269Y-31893785D01*
X54519384Y-31906497D01*
X54516261Y-31918963D01*
X54511932Y-31931062D01*
X54506438Y-31942679D01*
X54499831Y-31953702D01*
X54492176Y-31964024D01*
X54483546Y-31973546D01*
X54474024Y-31982176D01*
X54463702Y-31989831D01*
X54452679Y-31996438D01*
X54441062Y-32001932D01*
X54428963Y-32006261D01*
X54416497Y-32009384D01*
X54403785Y-32011269D01*
X54390950Y-32011900D01*
X53254050Y-32011900D01*
X53241215Y-32011269D01*
X53228503Y-32009384D01*
X53216037Y-32006261D01*
X53203938Y-32001932D01*
X53192321Y-31996438D01*
X53181298Y-31989831D01*
X53170976Y-31982176D01*
X53161454Y-31973546D01*
X53152824Y-31964024D01*
X53145169Y-31953702D01*
X53138562Y-31942679D01*
X53133068Y-31931062D01*
X53128739Y-31918963D01*
X53125616Y-31906497D01*
X53123731Y-31893785D01*
X53123100Y-31880950D01*
X53123100Y-31619050D01*
X53123731Y-31606215D01*
X53125616Y-31593503D01*
X53128739Y-31581037D01*
X53133068Y-31568938D01*
X53138562Y-31557321D01*
X53145169Y-31546298D01*
X53152824Y-31535976D01*
X53161454Y-31526454D01*
X53170976Y-31517824D01*
X53181298Y-31510169D01*
X53192321Y-31503562D01*
X53203938Y-31498068D01*
X53216037Y-31493739D01*
X53228503Y-31490616D01*
X53241215Y-31488731D01*
X53254050Y-31488100D01*
X54390950Y-31488100D01*
X54403785Y-31488731D01*
X54403785Y-31488731D01*
G37*
D13*
X53822500Y-31750000D03*
D10*
G36*
X52213785Y-29293731D02*
G01*
X52226497Y-29295616D01*
X52238963Y-29298739D01*
X52251062Y-29303068D01*
X52262679Y-29308562D01*
X52273702Y-29315169D01*
X52284024Y-29322824D01*
X52293546Y-29331454D01*
X52302176Y-29340976D01*
X52309831Y-29351298D01*
X52316438Y-29362321D01*
X52321932Y-29373938D01*
X52326261Y-29386037D01*
X52329384Y-29398503D01*
X52331269Y-29411215D01*
X52331900Y-29424050D01*
X52331900Y-30560950D01*
X52331269Y-30573785D01*
X52329384Y-30586497D01*
X52326261Y-30598963D01*
X52321932Y-30611062D01*
X52316438Y-30622679D01*
X52309831Y-30633702D01*
X52302176Y-30644024D01*
X52293546Y-30653546D01*
X52284024Y-30662176D01*
X52273702Y-30669831D01*
X52262679Y-30676438D01*
X52251062Y-30681932D01*
X52238963Y-30686261D01*
X52226497Y-30689384D01*
X52213785Y-30691269D01*
X52200950Y-30691900D01*
X51939050Y-30691900D01*
X51926215Y-30691269D01*
X51913503Y-30689384D01*
X51901037Y-30686261D01*
X51888938Y-30681932D01*
X51877321Y-30676438D01*
X51866298Y-30669831D01*
X51855976Y-30662176D01*
X51846454Y-30653546D01*
X51837824Y-30644024D01*
X51830169Y-30633702D01*
X51823562Y-30622679D01*
X51818068Y-30611062D01*
X51813739Y-30598963D01*
X51810616Y-30586497D01*
X51808731Y-30573785D01*
X51808100Y-30560950D01*
X51808100Y-29424050D01*
X51808731Y-29411215D01*
X51810616Y-29398503D01*
X51813739Y-29386037D01*
X51818068Y-29373938D01*
X51823562Y-29362321D01*
X51830169Y-29351298D01*
X51837824Y-29340976D01*
X51846454Y-29331454D01*
X51855976Y-29322824D01*
X51866298Y-29315169D01*
X51877321Y-29308562D01*
X51888938Y-29303068D01*
X51901037Y-29298739D01*
X51913503Y-29295616D01*
X51926215Y-29293731D01*
X51939050Y-29293100D01*
X52200950Y-29293100D01*
X52213785Y-29293731D01*
X52213785Y-29293731D01*
G37*
D13*
X52070000Y-29992500D03*
D10*
G36*
X50943785Y-29293731D02*
G01*
X50956497Y-29295616D01*
X50968963Y-29298739D01*
X50981062Y-29303068D01*
X50992679Y-29308562D01*
X51003702Y-29315169D01*
X51014024Y-29322824D01*
X51023546Y-29331454D01*
X51032176Y-29340976D01*
X51039831Y-29351298D01*
X51046438Y-29362321D01*
X51051932Y-29373938D01*
X51056261Y-29386037D01*
X51059384Y-29398503D01*
X51061269Y-29411215D01*
X51061900Y-29424050D01*
X51061900Y-30560950D01*
X51061269Y-30573785D01*
X51059384Y-30586497D01*
X51056261Y-30598963D01*
X51051932Y-30611062D01*
X51046438Y-30622679D01*
X51039831Y-30633702D01*
X51032176Y-30644024D01*
X51023546Y-30653546D01*
X51014024Y-30662176D01*
X51003702Y-30669831D01*
X50992679Y-30676438D01*
X50981062Y-30681932D01*
X50968963Y-30686261D01*
X50956497Y-30689384D01*
X50943785Y-30691269D01*
X50930950Y-30691900D01*
X50669050Y-30691900D01*
X50656215Y-30691269D01*
X50643503Y-30689384D01*
X50631037Y-30686261D01*
X50618938Y-30681932D01*
X50607321Y-30676438D01*
X50596298Y-30669831D01*
X50585976Y-30662176D01*
X50576454Y-30653546D01*
X50567824Y-30644024D01*
X50560169Y-30633702D01*
X50553562Y-30622679D01*
X50548068Y-30611062D01*
X50543739Y-30598963D01*
X50540616Y-30586497D01*
X50538731Y-30573785D01*
X50538100Y-30560950D01*
X50538100Y-29424050D01*
X50538731Y-29411215D01*
X50540616Y-29398503D01*
X50543739Y-29386037D01*
X50548068Y-29373938D01*
X50553562Y-29362321D01*
X50560169Y-29351298D01*
X50567824Y-29340976D01*
X50576454Y-29331454D01*
X50585976Y-29322824D01*
X50596298Y-29315169D01*
X50607321Y-29308562D01*
X50618938Y-29303068D01*
X50631037Y-29298739D01*
X50643503Y-29295616D01*
X50656215Y-29293731D01*
X50669050Y-29293100D01*
X50930950Y-29293100D01*
X50943785Y-29293731D01*
X50943785Y-29293731D01*
G37*
D13*
X50800000Y-29992500D03*
D10*
G36*
X49673785Y-29293731D02*
G01*
X49686497Y-29295616D01*
X49698963Y-29298739D01*
X49711062Y-29303068D01*
X49722679Y-29308562D01*
X49733702Y-29315169D01*
X49744024Y-29322824D01*
X49753546Y-29331454D01*
X49762176Y-29340976D01*
X49769831Y-29351298D01*
X49776438Y-29362321D01*
X49781932Y-29373938D01*
X49786261Y-29386037D01*
X49789384Y-29398503D01*
X49791269Y-29411215D01*
X49791900Y-29424050D01*
X49791900Y-30560950D01*
X49791269Y-30573785D01*
X49789384Y-30586497D01*
X49786261Y-30598963D01*
X49781932Y-30611062D01*
X49776438Y-30622679D01*
X49769831Y-30633702D01*
X49762176Y-30644024D01*
X49753546Y-30653546D01*
X49744024Y-30662176D01*
X49733702Y-30669831D01*
X49722679Y-30676438D01*
X49711062Y-30681932D01*
X49698963Y-30686261D01*
X49686497Y-30689384D01*
X49673785Y-30691269D01*
X49660950Y-30691900D01*
X49399050Y-30691900D01*
X49386215Y-30691269D01*
X49373503Y-30689384D01*
X49361037Y-30686261D01*
X49348938Y-30681932D01*
X49337321Y-30676438D01*
X49326298Y-30669831D01*
X49315976Y-30662176D01*
X49306454Y-30653546D01*
X49297824Y-30644024D01*
X49290169Y-30633702D01*
X49283562Y-30622679D01*
X49278068Y-30611062D01*
X49273739Y-30598963D01*
X49270616Y-30586497D01*
X49268731Y-30573785D01*
X49268100Y-30560950D01*
X49268100Y-29424050D01*
X49268731Y-29411215D01*
X49270616Y-29398503D01*
X49273739Y-29386037D01*
X49278068Y-29373938D01*
X49283562Y-29362321D01*
X49290169Y-29351298D01*
X49297824Y-29340976D01*
X49306454Y-29331454D01*
X49315976Y-29322824D01*
X49326298Y-29315169D01*
X49337321Y-29308562D01*
X49348938Y-29303068D01*
X49361037Y-29298739D01*
X49373503Y-29295616D01*
X49386215Y-29293731D01*
X49399050Y-29293100D01*
X49660950Y-29293100D01*
X49673785Y-29293731D01*
X49673785Y-29293731D01*
G37*
D13*
X49530000Y-29992500D03*
D10*
G36*
X46252411Y-48234032D02*
G01*
X46271190Y-48236817D01*
X46289606Y-48241430D01*
X46307480Y-48247826D01*
X46324642Y-48255942D01*
X46340925Y-48265702D01*
X46356173Y-48277011D01*
X46370240Y-48289760D01*
X46382989Y-48303827D01*
X46394298Y-48319075D01*
X46404058Y-48335358D01*
X46412174Y-48352520D01*
X46418570Y-48370394D01*
X46423183Y-48388810D01*
X46425968Y-48407589D01*
X46426900Y-48426550D01*
X46426900Y-49363450D01*
X46425968Y-49382411D01*
X46423183Y-49401190D01*
X46418570Y-49419606D01*
X46412174Y-49437480D01*
X46404058Y-49454642D01*
X46394298Y-49470925D01*
X46382989Y-49486173D01*
X46370240Y-49500240D01*
X46356173Y-49512989D01*
X46340925Y-49524298D01*
X46324642Y-49534058D01*
X46307480Y-49542174D01*
X46289606Y-49548570D01*
X46271190Y-49553183D01*
X46252411Y-49555968D01*
X46233450Y-49556900D01*
X45846550Y-49556900D01*
X45827589Y-49555968D01*
X45808810Y-49553183D01*
X45790394Y-49548570D01*
X45772520Y-49542174D01*
X45755358Y-49534058D01*
X45739075Y-49524298D01*
X45723827Y-49512989D01*
X45709760Y-49500240D01*
X45697011Y-49486173D01*
X45685702Y-49470925D01*
X45675942Y-49454642D01*
X45667826Y-49437480D01*
X45661430Y-49419606D01*
X45656817Y-49401190D01*
X45654032Y-49382411D01*
X45653100Y-49363450D01*
X45653100Y-48426550D01*
X45654032Y-48407589D01*
X45656817Y-48388810D01*
X45661430Y-48370394D01*
X45667826Y-48352520D01*
X45675942Y-48335358D01*
X45685702Y-48319075D01*
X45697011Y-48303827D01*
X45709760Y-48289760D01*
X45723827Y-48277011D01*
X45739075Y-48265702D01*
X45755358Y-48255942D01*
X45772520Y-48247826D01*
X45790394Y-48241430D01*
X45808810Y-48236817D01*
X45827589Y-48234032D01*
X45846550Y-48233100D01*
X46233450Y-48233100D01*
X46252411Y-48234032D01*
X46252411Y-48234032D01*
G37*
D11*
X46040000Y-48895000D03*
D10*
G36*
X48152411Y-48234032D02*
G01*
X48171190Y-48236817D01*
X48189606Y-48241430D01*
X48207480Y-48247826D01*
X48224642Y-48255942D01*
X48240925Y-48265702D01*
X48256173Y-48277011D01*
X48270240Y-48289760D01*
X48282989Y-48303827D01*
X48294298Y-48319075D01*
X48304058Y-48335358D01*
X48312174Y-48352520D01*
X48318570Y-48370394D01*
X48323183Y-48388810D01*
X48325968Y-48407589D01*
X48326900Y-48426550D01*
X48326900Y-49363450D01*
X48325968Y-49382411D01*
X48323183Y-49401190D01*
X48318570Y-49419606D01*
X48312174Y-49437480D01*
X48304058Y-49454642D01*
X48294298Y-49470925D01*
X48282989Y-49486173D01*
X48270240Y-49500240D01*
X48256173Y-49512989D01*
X48240925Y-49524298D01*
X48224642Y-49534058D01*
X48207480Y-49542174D01*
X48189606Y-49548570D01*
X48171190Y-49553183D01*
X48152411Y-49555968D01*
X48133450Y-49556900D01*
X47746550Y-49556900D01*
X47727589Y-49555968D01*
X47708810Y-49553183D01*
X47690394Y-49548570D01*
X47672520Y-49542174D01*
X47655358Y-49534058D01*
X47639075Y-49524298D01*
X47623827Y-49512989D01*
X47609760Y-49500240D01*
X47597011Y-49486173D01*
X47585702Y-49470925D01*
X47575942Y-49454642D01*
X47567826Y-49437480D01*
X47561430Y-49419606D01*
X47556817Y-49401190D01*
X47554032Y-49382411D01*
X47553100Y-49363450D01*
X47553100Y-48426550D01*
X47554032Y-48407589D01*
X47556817Y-48388810D01*
X47561430Y-48370394D01*
X47567826Y-48352520D01*
X47575942Y-48335358D01*
X47585702Y-48319075D01*
X47597011Y-48303827D01*
X47609760Y-48289760D01*
X47623827Y-48277011D01*
X47639075Y-48265702D01*
X47655358Y-48255942D01*
X47672520Y-48247826D01*
X47690394Y-48241430D01*
X47708810Y-48236817D01*
X47727589Y-48234032D01*
X47746550Y-48233100D01*
X48133450Y-48233100D01*
X48152411Y-48234032D01*
X48152411Y-48234032D01*
G37*
D11*
X47940000Y-48895000D03*
M02*
