G04 #@! TF.GenerationSoftware,KiCad,Pcbnew,7.0.10*
G04 #@! TF.CreationDate,2024-02-16T16:10:31-05:00*
G04 #@! TF.ProjectId,GW28R8128,47573238-5238-4313-9238-2e6b69636164,rev?*
G04 #@! TF.SameCoordinates,Original*
G04 #@! TF.FileFunction,Copper,L2,Bot*
G04 #@! TF.FilePolarity,Positive*
%FSLAX46Y46*%
G04 Gerber Fmt 4.6, Leading zero omitted, Abs format (unit mm)*
G04 Created by KiCad (PCBNEW 7.0.10) date 2024-02-16 16:10:31*
%MOMM*%
%LPD*%
G01*
G04 APERTURE LIST*
G04 Aperture macros list*
%AMRoundRect*
0 Rectangle with rounded corners*
0 $1 Rounding radius*
0 $2 $3 $4 $5 $6 $7 $8 $9 X,Y pos of 4 corners*
0 Add a 4 corners polygon primitive as box body*
4,1,4,$2,$3,$4,$5,$6,$7,$8,$9,$2,$3,0*
0 Add four circle primitives for the rounded corners*
1,1,$1+$1,$2,$3*
1,1,$1+$1,$4,$5*
1,1,$1+$1,$6,$7*
1,1,$1+$1,$8,$9*
0 Add four rect primitives between the rounded corners*
20,1,$1+$1,$2,$3,$4,$5,0*
20,1,$1+$1,$4,$5,$6,$7,0*
20,1,$1+$1,$6,$7,$8,$9,0*
20,1,$1+$1,$8,$9,$2,$3,0*%
G04 Aperture macros list end*
G04 #@! TA.AperFunction,ComponentPad*
%ADD10RoundRect,0.595000X-0.255000X-0.545000X0.255000X-0.545000X0.255000X0.545000X-0.255000X0.545000X0*%
G04 #@! TD*
G04 #@! TA.AperFunction,ViaPad*
%ADD11C,0.600000*%
G04 #@! TD*
G04 #@! TA.AperFunction,ViaPad*
%ADD12C,0.800000*%
G04 #@! TD*
G04 #@! TA.AperFunction,ViaPad*
%ADD13C,1.000000*%
G04 #@! TD*
G04 #@! TA.AperFunction,Conductor*
%ADD14C,0.152400*%
G04 #@! TD*
G04 #@! TA.AperFunction,Conductor*
%ADD15C,0.150000*%
G04 #@! TD*
G04 APERTURE END LIST*
D10*
X40640000Y-20320000D03*
X40640000Y-22860000D03*
X40640000Y-25400000D03*
X40640000Y-27940000D03*
X40640000Y-30480000D03*
X40640000Y-33020000D03*
X40640000Y-35560000D03*
X40640000Y-38100000D03*
X40640000Y-40640000D03*
X40640000Y-43180000D03*
X40640000Y-45720000D03*
X40640000Y-48260000D03*
X40640000Y-50800000D03*
X40640000Y-53340000D03*
X55880000Y-53340000D03*
X55880000Y-50800000D03*
X55880000Y-48260000D03*
X55880000Y-45720000D03*
X55880000Y-43180000D03*
X55880000Y-40640000D03*
X55880000Y-38100000D03*
X55880000Y-35560000D03*
X55880000Y-33020000D03*
X55880000Y-30480000D03*
X55880000Y-27940000D03*
X55880000Y-25400000D03*
X55880000Y-22860000D03*
X55880000Y-20320000D03*
D11*
X53975000Y-50165000D03*
X53975000Y-46355000D03*
X51435000Y-40640000D03*
X42291000Y-53340000D03*
X46990000Y-44958000D03*
X54356000Y-30226000D03*
X54356000Y-26098500D03*
X45974000Y-36258500D03*
X52070000Y-31242000D03*
D12*
X53149500Y-27178000D03*
D13*
X51870000Y-22020000D03*
X53213000Y-23177500D03*
D11*
X54356000Y-28194000D03*
X52070000Y-26105500D03*
X46101000Y-50038000D03*
D13*
X43878500Y-28448000D03*
D11*
X48260000Y-31242000D03*
X46990000Y-42418000D03*
X52070000Y-28702000D03*
D13*
X43878500Y-24638000D03*
D11*
X43942000Y-35560000D03*
X52578000Y-34290000D03*
X42418000Y-30734000D03*
X43942000Y-33020000D03*
X43942000Y-34290000D03*
X43942000Y-40640000D03*
X52578000Y-35560000D03*
X42735500Y-29464000D03*
X52578000Y-33020000D03*
X44386500Y-31623000D03*
X49276000Y-36639500D03*
X53149500Y-24892000D03*
X50800000Y-31178500D03*
D14*
X43180000Y-35560000D02*
X43942000Y-35560000D01*
X40640000Y-33020000D02*
X43180000Y-35560000D01*
X53467000Y-33401000D02*
X53467000Y-30353000D01*
X52578000Y-34290000D02*
X53467000Y-33401000D01*
X53467000Y-30353000D02*
X55880000Y-27940000D01*
D15*
X41846500Y-28702000D02*
X41846500Y-26606500D01*
X42418000Y-30734000D02*
X42164000Y-30480000D01*
X42164000Y-30480000D02*
X42164000Y-29019500D01*
X42164000Y-29019500D02*
X41846500Y-28702000D01*
X41846500Y-26606500D02*
X40640000Y-25400000D01*
D14*
X41846500Y-30924500D02*
X43942000Y-33020000D01*
X40640000Y-27940000D02*
X41846500Y-29146500D01*
X41846500Y-29146500D02*
X41846500Y-30924500D01*
X42672000Y-32766000D02*
X42672000Y-33528000D01*
X42672000Y-33528000D02*
X43434000Y-34290000D01*
X43434000Y-34290000D02*
X43942000Y-34290000D01*
X40640000Y-30480000D02*
X40640000Y-30734000D01*
X40640000Y-30734000D02*
X42672000Y-32766000D01*
X43942000Y-40640000D02*
X43180000Y-40640000D01*
X43180000Y-40640000D02*
X40640000Y-43180000D01*
X52578000Y-35560000D02*
X54229000Y-33909000D01*
X54229000Y-33909000D02*
X54229000Y-32131000D01*
X54229000Y-32131000D02*
X55880000Y-30480000D01*
D15*
X42735500Y-29464000D02*
X42735500Y-29146500D01*
X42735500Y-29146500D02*
X42164000Y-28575000D01*
X42164000Y-28575000D02*
X42164000Y-26479500D01*
X41846500Y-24066500D02*
X40640000Y-22860000D01*
X41846500Y-26162000D02*
X41846500Y-24066500D01*
X42164000Y-26479500D02*
X41846500Y-26162000D01*
D14*
X52705000Y-32893000D02*
X52705000Y-28575000D01*
X52578000Y-33020000D02*
X52705000Y-32893000D01*
X52705000Y-28575000D02*
X55880000Y-25400000D01*
D15*
X41846500Y-21526500D02*
X41846500Y-23622000D01*
X42481500Y-26352500D02*
X42481500Y-28448000D01*
X42164000Y-23939500D02*
X42164000Y-26035000D01*
X40640000Y-20320000D02*
X41846500Y-21526500D01*
X42164000Y-26035000D02*
X42481500Y-26352500D01*
X44386500Y-30353000D02*
X44386500Y-31623000D01*
X42481500Y-28448000D02*
X44386500Y-30353000D01*
X41846500Y-23622000D02*
X42164000Y-23939500D01*
D14*
X49466500Y-36449000D02*
X54991000Y-36449000D01*
X54991000Y-36449000D02*
X55880000Y-35560000D01*
X49276000Y-36639500D02*
X49466500Y-36449000D01*
D15*
X50800000Y-31178500D02*
X50800000Y-28606750D01*
X50800000Y-28606750D02*
X53149500Y-26257250D01*
X53149500Y-26257250D02*
X53149500Y-24892000D01*
G04 #@! TA.AperFunction,Conductor*
G36*
X54964138Y-19118893D02*
G01*
X54989858Y-19163442D01*
X54991000Y-19176500D01*
X54991000Y-19356908D01*
X54979804Y-19396385D01*
X54942559Y-19456769D01*
X54942558Y-19456771D01*
X54942558Y-19456772D01*
X54887565Y-19622732D01*
X54877100Y-19725167D01*
X54877100Y-19725172D01*
X54877100Y-19725173D01*
X54877100Y-20914827D01*
X54877101Y-20914832D01*
X54887565Y-21017268D01*
X54942558Y-21183228D01*
X54979804Y-21243614D01*
X54991000Y-21283090D01*
X54991000Y-21896908D01*
X54979804Y-21936385D01*
X54942559Y-21996769D01*
X54942558Y-21996771D01*
X54942558Y-21996772D01*
X54887565Y-22162732D01*
X54877100Y-22265167D01*
X54877100Y-22265172D01*
X54877100Y-22265173D01*
X54877100Y-23454827D01*
X54877101Y-23454832D01*
X54887565Y-23557268D01*
X54942558Y-23723228D01*
X54979804Y-23783614D01*
X54991000Y-23823090D01*
X54991000Y-24436908D01*
X54979804Y-24476385D01*
X54942559Y-24536769D01*
X54942558Y-24536771D01*
X54942558Y-24536772D01*
X54887565Y-24702732D01*
X54877100Y-24805167D01*
X54877100Y-24805172D01*
X54877100Y-24805173D01*
X54877100Y-25994828D01*
X54881261Y-26035563D01*
X54868669Y-26085438D01*
X54859624Y-26096377D01*
X52548631Y-28407370D01*
X52545778Y-28410078D01*
X52515514Y-28437329D01*
X52515512Y-28437333D01*
X52505446Y-28459939D01*
X52499821Y-28470300D01*
X52486338Y-28491065D01*
X52484986Y-28499599D01*
X52479414Y-28518409D01*
X52475900Y-28526303D01*
X52475900Y-28551053D01*
X52474974Y-28562817D01*
X52471103Y-28587258D01*
X52471521Y-28588819D01*
X52473337Y-28595594D01*
X52475900Y-28615059D01*
X52475900Y-32521665D01*
X52458307Y-32570003D01*
X52421889Y-32593818D01*
X52387925Y-32603791D01*
X52387922Y-32603793D01*
X52278366Y-32674198D01*
X52193080Y-32772623D01*
X52193078Y-32772626D01*
X52138977Y-32891088D01*
X52120443Y-33020000D01*
X52138977Y-33148911D01*
X52193078Y-33267373D01*
X52193080Y-33267376D01*
X52278366Y-33365801D01*
X52344823Y-33408509D01*
X52383092Y-33433103D01*
X52387926Y-33436209D01*
X52512883Y-33472900D01*
X52643117Y-33472900D01*
X52768073Y-33436209D01*
X52768073Y-33436208D01*
X52768076Y-33436208D01*
X52877636Y-33365799D01*
X52962921Y-33267374D01*
X53017023Y-33148909D01*
X53035557Y-33020000D01*
X53017023Y-32891091D01*
X52962921Y-32772626D01*
X52952465Y-32760559D01*
X52934109Y-32712507D01*
X52934100Y-32711316D01*
X52934100Y-28701044D01*
X52951693Y-28652706D01*
X52956126Y-28647870D01*
X54862626Y-26741370D01*
X54909246Y-26719630D01*
X54958933Y-26732944D01*
X54988438Y-26775081D01*
X54991000Y-26794544D01*
X54991000Y-26976908D01*
X54979804Y-27016385D01*
X54942559Y-27076769D01*
X54942558Y-27076771D01*
X54942558Y-27076772D01*
X54887565Y-27242732D01*
X54877100Y-27345167D01*
X54877100Y-27345172D01*
X54877100Y-27345173D01*
X54877100Y-28534828D01*
X54881261Y-28575563D01*
X54868669Y-28625438D01*
X54859624Y-28636377D01*
X53310631Y-30185370D01*
X53307778Y-30188078D01*
X53277514Y-30215329D01*
X53277512Y-30215333D01*
X53267446Y-30237939D01*
X53261821Y-30248300D01*
X53248338Y-30269065D01*
X53246986Y-30277599D01*
X53241414Y-30296409D01*
X53237900Y-30304303D01*
X53237900Y-30329053D01*
X53236974Y-30340818D01*
X53233103Y-30365256D01*
X53233103Y-30365257D01*
X53235337Y-30373594D01*
X53237900Y-30393059D01*
X53237900Y-33274954D01*
X53220307Y-33323292D01*
X53215874Y-33328128D01*
X52723974Y-33820027D01*
X52677354Y-33841767D01*
X52649618Y-33839008D01*
X52643123Y-33837101D01*
X52643118Y-33837100D01*
X52643117Y-33837100D01*
X52512883Y-33837100D01*
X52387926Y-33873790D01*
X52278366Y-33944198D01*
X52193080Y-34042623D01*
X52193078Y-34042626D01*
X52138977Y-34161088D01*
X52120443Y-34290000D01*
X52138977Y-34418911D01*
X52193078Y-34537373D01*
X52193080Y-34537376D01*
X52278366Y-34635801D01*
X52356668Y-34686121D01*
X52373236Y-34696769D01*
X52387926Y-34706209D01*
X52512883Y-34742900D01*
X52643117Y-34742900D01*
X52768073Y-34706209D01*
X52768073Y-34706208D01*
X52768076Y-34706208D01*
X52877636Y-34635799D01*
X52962921Y-34537374D01*
X53017023Y-34418909D01*
X53035557Y-34290000D01*
X53024124Y-34210483D01*
X53034660Y-34160137D01*
X53045381Y-34146614D01*
X53623383Y-33568612D01*
X53626199Y-33565939D01*
X53656486Y-33538670D01*
X53666555Y-33516053D01*
X53672177Y-33505698D01*
X53685662Y-33484936D01*
X53687013Y-33476400D01*
X53692588Y-33457582D01*
X53696100Y-33449697D01*
X53696100Y-33424946D01*
X53697026Y-33413181D01*
X53698804Y-33401955D01*
X53700897Y-33388741D01*
X53700419Y-33386959D01*
X53698662Y-33380397D01*
X53696100Y-33360937D01*
X53696100Y-30479044D01*
X53713693Y-30430706D01*
X53718126Y-30425870D01*
X54862626Y-29281370D01*
X54909246Y-29259630D01*
X54958933Y-29272944D01*
X54988438Y-29315081D01*
X54991000Y-29334544D01*
X54991000Y-29516908D01*
X54979804Y-29556385D01*
X54942559Y-29616769D01*
X54942558Y-29616771D01*
X54942558Y-29616772D01*
X54887565Y-29782732D01*
X54877100Y-29885167D01*
X54877100Y-29885172D01*
X54877100Y-29885173D01*
X54877100Y-31074828D01*
X54881261Y-31115563D01*
X54868669Y-31165438D01*
X54859624Y-31176377D01*
X54072631Y-31963370D01*
X54069778Y-31966078D01*
X54039514Y-31993329D01*
X54039512Y-31993333D01*
X54029446Y-32015939D01*
X54023821Y-32026300D01*
X54010338Y-32047065D01*
X54008986Y-32055599D01*
X54003414Y-32074409D01*
X53999900Y-32082303D01*
X53999900Y-32107053D01*
X53998974Y-32118818D01*
X53995103Y-32143256D01*
X53995103Y-32143257D01*
X53997337Y-32151594D01*
X53999900Y-32171059D01*
X53999900Y-33782954D01*
X53982307Y-33831292D01*
X53977874Y-33836128D01*
X52723974Y-35090027D01*
X52677354Y-35111767D01*
X52649618Y-35109008D01*
X52643123Y-35107101D01*
X52643118Y-35107100D01*
X52643117Y-35107100D01*
X52512883Y-35107100D01*
X52387926Y-35143790D01*
X52278366Y-35214198D01*
X52193080Y-35312623D01*
X52193078Y-35312626D01*
X52138977Y-35431088D01*
X52120443Y-35560000D01*
X52138977Y-35688911D01*
X52193078Y-35807373D01*
X52193080Y-35807376D01*
X52278366Y-35905801D01*
X52387926Y-35976209D01*
X52512883Y-36012900D01*
X52643117Y-36012900D01*
X52768073Y-35976209D01*
X52768073Y-35976208D01*
X52768076Y-35976208D01*
X52877636Y-35905799D01*
X52962921Y-35807374D01*
X53017023Y-35688909D01*
X53035557Y-35560000D01*
X53024124Y-35480482D01*
X53034660Y-35430136D01*
X53045381Y-35416613D01*
X54385373Y-34076621D01*
X54388189Y-34073948D01*
X54418486Y-34046670D01*
X54428551Y-34024061D01*
X54434184Y-34013689D01*
X54438870Y-34006474D01*
X54447662Y-33992936D01*
X54449013Y-33984400D01*
X54454588Y-33965582D01*
X54458100Y-33957697D01*
X54458100Y-33932946D01*
X54459026Y-33921181D01*
X54462897Y-33896741D01*
X54462419Y-33894959D01*
X54460662Y-33888397D01*
X54458100Y-33868937D01*
X54458100Y-32257044D01*
X54475693Y-32208706D01*
X54480126Y-32203870D01*
X54862626Y-31821370D01*
X54909246Y-31799630D01*
X54958933Y-31812944D01*
X54988438Y-31855081D01*
X54991000Y-31874544D01*
X54991000Y-32056908D01*
X54979804Y-32096385D01*
X54942559Y-32156769D01*
X54942558Y-32156771D01*
X54942558Y-32156772D01*
X54887565Y-32322732D01*
X54877100Y-32425167D01*
X54877100Y-32425172D01*
X54877100Y-32425173D01*
X54877100Y-33614827D01*
X54877101Y-33614832D01*
X54887565Y-33717268D01*
X54887565Y-33717270D01*
X54887566Y-33717272D01*
X54909331Y-33782954D01*
X54942558Y-33883228D01*
X54979804Y-33943614D01*
X54991000Y-33983090D01*
X54991000Y-34596908D01*
X54979804Y-34636385D01*
X54942559Y-34696769D01*
X54942558Y-34696771D01*
X54942558Y-34696772D01*
X54887565Y-34862732D01*
X54877100Y-34965167D01*
X54877100Y-34965172D01*
X54877100Y-34965173D01*
X54877101Y-36144700D01*
X54859508Y-36193038D01*
X54814959Y-36218758D01*
X54801901Y-36219900D01*
X49474470Y-36219900D01*
X49470534Y-36219797D01*
X49465788Y-36219548D01*
X49459415Y-36219214D01*
X49442167Y-36216271D01*
X49341119Y-36186600D01*
X49341117Y-36186600D01*
X49210883Y-36186600D01*
X49085926Y-36223290D01*
X48976366Y-36293698D01*
X48891080Y-36392123D01*
X48891078Y-36392126D01*
X48836977Y-36510588D01*
X48818443Y-36639500D01*
X48836977Y-36768411D01*
X48891078Y-36886873D01*
X48891080Y-36886876D01*
X48976366Y-36985301D01*
X49085926Y-37055709D01*
X49210883Y-37092400D01*
X49341117Y-37092400D01*
X49466073Y-37055709D01*
X49466073Y-37055708D01*
X49466076Y-37055708D01*
X49575636Y-36985299D01*
X49660921Y-36886874D01*
X49715023Y-36768409D01*
X49716198Y-36760229D01*
X49718735Y-36742597D01*
X49743029Y-36697255D01*
X49790784Y-36678138D01*
X49793169Y-36678100D01*
X54915800Y-36678100D01*
X54964138Y-36695693D01*
X54989858Y-36740242D01*
X54991000Y-36753300D01*
X54991000Y-37136908D01*
X54979804Y-37176385D01*
X54942559Y-37236769D01*
X54942558Y-37236771D01*
X54942558Y-37236772D01*
X54887565Y-37402732D01*
X54877100Y-37505167D01*
X54877100Y-37505172D01*
X54877100Y-37505173D01*
X54877100Y-38694827D01*
X54877101Y-38694832D01*
X54887565Y-38797268D01*
X54942558Y-38963228D01*
X54979804Y-39023614D01*
X54991000Y-39063090D01*
X54991000Y-39676908D01*
X54979804Y-39716385D01*
X54942559Y-39776769D01*
X54942558Y-39776771D01*
X54942558Y-39776772D01*
X54887565Y-39942732D01*
X54877100Y-40045167D01*
X54877100Y-40045172D01*
X54877100Y-40045173D01*
X54877100Y-41234827D01*
X54877101Y-41234832D01*
X54887565Y-41337268D01*
X54942558Y-41503228D01*
X54979804Y-41563614D01*
X54991000Y-41603090D01*
X54991000Y-42216908D01*
X54979804Y-42256385D01*
X54942559Y-42316769D01*
X54942558Y-42316771D01*
X54942558Y-42316772D01*
X54887565Y-42482732D01*
X54877100Y-42585167D01*
X54877100Y-42585172D01*
X54877100Y-42585173D01*
X54877100Y-43774827D01*
X54877101Y-43774832D01*
X54887565Y-43877268D01*
X54942558Y-44043228D01*
X54979804Y-44103614D01*
X54991000Y-44143090D01*
X54991000Y-44756908D01*
X54979804Y-44796385D01*
X54942559Y-44856769D01*
X54942558Y-44856771D01*
X54942558Y-44856772D01*
X54887565Y-45022732D01*
X54877100Y-45125167D01*
X54877100Y-45125172D01*
X54877100Y-45125173D01*
X54877100Y-46314827D01*
X54877101Y-46314832D01*
X54887565Y-46417268D01*
X54942558Y-46583228D01*
X54979804Y-46643614D01*
X54991000Y-46683090D01*
X54991000Y-47296908D01*
X54979804Y-47336385D01*
X54942559Y-47396769D01*
X54942558Y-47396771D01*
X54942558Y-47396772D01*
X54887565Y-47562732D01*
X54877100Y-47665167D01*
X54877100Y-47665172D01*
X54877100Y-47665173D01*
X54877100Y-48854827D01*
X54877101Y-48854832D01*
X54887565Y-48957268D01*
X54942558Y-49123228D01*
X54979804Y-49183614D01*
X54991000Y-49223090D01*
X54991000Y-49836908D01*
X54979804Y-49876385D01*
X54942559Y-49936769D01*
X54942558Y-49936771D01*
X54942558Y-49936772D01*
X54887565Y-50102732D01*
X54877100Y-50205167D01*
X54877100Y-50205172D01*
X54877100Y-50205173D01*
X54877100Y-51394827D01*
X54877101Y-51394832D01*
X54887565Y-51497268D01*
X54942558Y-51663228D01*
X54979804Y-51723614D01*
X54991000Y-51763090D01*
X54991000Y-52376908D01*
X54979804Y-52416385D01*
X54942559Y-52476769D01*
X54942558Y-52476771D01*
X54942558Y-52476772D01*
X54887565Y-52642732D01*
X54877100Y-52745167D01*
X54877100Y-52745172D01*
X54877100Y-52745173D01*
X54877100Y-53934827D01*
X54877101Y-53934832D01*
X54887565Y-54037268D01*
X54887565Y-54037270D01*
X54887566Y-54037272D01*
X54908198Y-54099535D01*
X54942558Y-54203228D01*
X54979804Y-54263614D01*
X54991000Y-54303090D01*
X54991000Y-54483500D01*
X54973407Y-54531838D01*
X54928858Y-54557558D01*
X54915800Y-54558700D01*
X41604200Y-54558700D01*
X41555862Y-54541107D01*
X41530142Y-54496558D01*
X41529000Y-54483500D01*
X41529000Y-54302138D01*
X41540196Y-54262659D01*
X41576985Y-54203015D01*
X41631940Y-54037167D01*
X41631941Y-54037165D01*
X41642400Y-53934795D01*
X41642400Y-53590000D01*
X41604200Y-53590000D01*
X41555862Y-53572407D01*
X41530142Y-53527858D01*
X41529000Y-53514800D01*
X41529000Y-53165200D01*
X41546593Y-53116862D01*
X41591142Y-53091142D01*
X41604200Y-53090000D01*
X41642400Y-53090000D01*
X41642400Y-52745204D01*
X41631941Y-52642834D01*
X41631940Y-52642832D01*
X41576985Y-52476984D01*
X41540196Y-52417339D01*
X41529000Y-52377861D01*
X41529000Y-51763090D01*
X41540195Y-51723614D01*
X41577442Y-51663228D01*
X41632435Y-51497268D01*
X41642900Y-51394833D01*
X41642899Y-50205168D01*
X41632435Y-50102732D01*
X41577442Y-49936772D01*
X41572562Y-49928860D01*
X41540196Y-49876385D01*
X41529000Y-49836908D01*
X41529000Y-49223090D01*
X41540195Y-49183614D01*
X41577442Y-49123228D01*
X41632435Y-48957268D01*
X41642900Y-48854833D01*
X41642899Y-47665168D01*
X41632435Y-47562732D01*
X41577442Y-47396772D01*
X41572562Y-47388860D01*
X41540196Y-47336385D01*
X41529000Y-47296908D01*
X41529000Y-46683090D01*
X41540195Y-46643614D01*
X41577442Y-46583228D01*
X41632435Y-46417268D01*
X41642900Y-46314833D01*
X41642899Y-45125168D01*
X41632435Y-45022732D01*
X41577442Y-44856772D01*
X41572562Y-44848860D01*
X41540196Y-44796385D01*
X41529000Y-44756908D01*
X41529000Y-44143090D01*
X41540195Y-44103614D01*
X41577442Y-44043228D01*
X41632435Y-43877268D01*
X41642900Y-43774833D01*
X41642899Y-42585168D01*
X41638737Y-42544434D01*
X41651327Y-42494562D01*
X41660369Y-42483625D01*
X43252870Y-40891126D01*
X43299490Y-40869386D01*
X43306044Y-40869100D01*
X43506902Y-40869100D01*
X43555240Y-40886693D01*
X43563735Y-40895055D01*
X43642366Y-40985801D01*
X43751926Y-41056209D01*
X43876883Y-41092900D01*
X44007117Y-41092900D01*
X44132073Y-41056209D01*
X44132073Y-41056208D01*
X44132076Y-41056208D01*
X44241636Y-40985799D01*
X44326921Y-40887374D01*
X44381023Y-40768909D01*
X44399557Y-40640000D01*
X44381023Y-40511091D01*
X44378847Y-40506327D01*
X44326921Y-40392626D01*
X44326919Y-40392623D01*
X44241633Y-40294198D01*
X44132073Y-40223790D01*
X44007117Y-40187100D01*
X43876883Y-40187100D01*
X43751926Y-40223790D01*
X43642366Y-40294198D01*
X43563735Y-40384945D01*
X43518784Y-40409955D01*
X43506902Y-40410900D01*
X43187960Y-40410900D01*
X43184024Y-40410797D01*
X43143361Y-40408665D01*
X43143360Y-40408665D01*
X43120252Y-40417535D01*
X43108945Y-40420884D01*
X43084736Y-40426030D01*
X43077747Y-40431108D01*
X43060500Y-40440472D01*
X43052434Y-40443568D01*
X43034928Y-40461073D01*
X43025960Y-40468732D01*
X43005943Y-40483276D01*
X43005942Y-40483278D01*
X43001622Y-40490759D01*
X42989674Y-40506327D01*
X41657374Y-41838628D01*
X41610754Y-41860368D01*
X41561067Y-41847054D01*
X41531562Y-41804917D01*
X41529000Y-41785454D01*
X41529000Y-41603090D01*
X41540195Y-41563614D01*
X41577442Y-41503228D01*
X41632435Y-41337268D01*
X41642900Y-41234833D01*
X41642899Y-40045168D01*
X41632435Y-39942732D01*
X41577442Y-39776772D01*
X41572562Y-39768860D01*
X41540196Y-39716385D01*
X41529000Y-39676908D01*
X41529000Y-39063090D01*
X41540195Y-39023614D01*
X41577442Y-38963228D01*
X41632435Y-38797268D01*
X41642900Y-38694833D01*
X41642899Y-37505168D01*
X41632435Y-37402732D01*
X41577442Y-37236772D01*
X41572562Y-37228860D01*
X41540196Y-37176385D01*
X41529000Y-37136908D01*
X41529000Y-36523090D01*
X41540195Y-36483614D01*
X41577442Y-36423228D01*
X41632435Y-36257268D01*
X41642900Y-36154833D01*
X41642899Y-34965168D01*
X41632435Y-34862732D01*
X41577442Y-34696772D01*
X41572562Y-34688860D01*
X41540196Y-34636385D01*
X41529000Y-34596908D01*
X41529000Y-34414544D01*
X41546593Y-34366206D01*
X41591142Y-34340486D01*
X41641800Y-34349419D01*
X41657374Y-34361370D01*
X43012359Y-35716355D01*
X43015069Y-35719210D01*
X43042330Y-35749486D01*
X43064936Y-35759551D01*
X43075304Y-35765181D01*
X43096060Y-35778660D01*
X43096061Y-35778660D01*
X43096063Y-35778661D01*
X43104589Y-35780011D01*
X43123408Y-35785585D01*
X43131303Y-35789100D01*
X43156059Y-35789100D01*
X43167821Y-35790025D01*
X43192258Y-35793896D01*
X43200596Y-35791662D01*
X43220057Y-35789100D01*
X43506902Y-35789100D01*
X43555240Y-35806693D01*
X43563735Y-35815055D01*
X43642366Y-35905801D01*
X43751926Y-35976209D01*
X43876883Y-36012900D01*
X44007117Y-36012900D01*
X44132073Y-35976209D01*
X44132073Y-35976208D01*
X44132076Y-35976208D01*
X44241636Y-35905799D01*
X44326921Y-35807374D01*
X44381023Y-35688909D01*
X44399557Y-35560000D01*
X44381023Y-35431091D01*
X44374409Y-35416609D01*
X44326921Y-35312626D01*
X44326919Y-35312623D01*
X44241633Y-35214198D01*
X44132073Y-35143790D01*
X44007117Y-35107100D01*
X43876883Y-35107100D01*
X43751926Y-35143790D01*
X43642366Y-35214198D01*
X43563735Y-35304945D01*
X43518784Y-35329955D01*
X43506902Y-35330900D01*
X43306045Y-35330900D01*
X43257707Y-35313307D01*
X43252871Y-35308874D01*
X41660375Y-33716378D01*
X41638635Y-33669758D01*
X41638739Y-33655560D01*
X41639562Y-33647501D01*
X41642900Y-33614833D01*
X41642899Y-32425168D01*
X41632435Y-32322732D01*
X41597290Y-32216670D01*
X41598786Y-32165253D01*
X41632983Y-32126826D01*
X41683879Y-32119371D01*
X41721847Y-32139843D01*
X42420874Y-32838870D01*
X42442614Y-32885490D01*
X42442900Y-32892044D01*
X42442900Y-33520039D01*
X42442797Y-33523975D01*
X42440665Y-33564638D01*
X42449533Y-33587740D01*
X42452883Y-33599050D01*
X42458030Y-33623263D01*
X42458031Y-33623265D01*
X42463108Y-33630253D01*
X42472471Y-33647498D01*
X42475568Y-33655564D01*
X42475569Y-33655566D01*
X42493064Y-33673061D01*
X42500726Y-33682031D01*
X42515276Y-33702056D01*
X42515278Y-33702058D01*
X42522759Y-33706377D01*
X42538330Y-33718326D01*
X43266368Y-34446365D01*
X43269078Y-34449220D01*
X43296330Y-34479486D01*
X43318935Y-34489550D01*
X43329304Y-34495180D01*
X43350064Y-34508662D01*
X43358593Y-34510013D01*
X43377416Y-34515588D01*
X43385303Y-34519100D01*
X43410053Y-34519100D01*
X43421816Y-34520025D01*
X43446259Y-34523897D01*
X43451399Y-34522519D01*
X43454602Y-34521662D01*
X43474063Y-34519100D01*
X43506902Y-34519100D01*
X43555240Y-34536693D01*
X43563735Y-34545055D01*
X43642366Y-34635801D01*
X43720668Y-34686121D01*
X43737236Y-34696769D01*
X43751926Y-34706209D01*
X43876883Y-34742900D01*
X44007117Y-34742900D01*
X44132073Y-34706209D01*
X44132073Y-34706208D01*
X44132076Y-34706208D01*
X44241636Y-34635799D01*
X44326921Y-34537374D01*
X44381023Y-34418909D01*
X44399557Y-34290000D01*
X44381023Y-34161091D01*
X44380587Y-34160137D01*
X44326921Y-34042626D01*
X44326919Y-34042623D01*
X44268001Y-33974628D01*
X44241636Y-33944201D01*
X44241635Y-33944200D01*
X44241633Y-33944198D01*
X44132073Y-33873790D01*
X44007117Y-33837100D01*
X43876883Y-33837100D01*
X43751926Y-33873790D01*
X43642366Y-33944198D01*
X43588404Y-34006474D01*
X43543453Y-34031483D01*
X43492943Y-34021748D01*
X43478398Y-34010402D01*
X42923126Y-33455129D01*
X42901386Y-33408509D01*
X42901100Y-33401955D01*
X42901100Y-32773959D01*
X42901203Y-32770023D01*
X42903334Y-32729361D01*
X42896407Y-32711316D01*
X42894463Y-32706253D01*
X42891114Y-32694943D01*
X42885969Y-32670735D01*
X42880887Y-32663741D01*
X42871526Y-32646497D01*
X42868432Y-32638436D01*
X42868430Y-32638434D01*
X42868430Y-32638433D01*
X42850932Y-32620935D01*
X42843268Y-32611963D01*
X42828721Y-32591940D01*
X42821242Y-32587623D01*
X42805668Y-32575672D01*
X41609191Y-31379194D01*
X41587451Y-31332574D01*
X41590982Y-31302367D01*
X41629637Y-31185711D01*
X41661541Y-31145360D01*
X41711919Y-31134958D01*
X41754194Y-31156190D01*
X43474613Y-32876609D01*
X43496353Y-32923229D01*
X43495874Y-32940483D01*
X43484443Y-33019999D01*
X43502977Y-33148911D01*
X43557078Y-33267373D01*
X43557080Y-33267376D01*
X43642366Y-33365801D01*
X43708823Y-33408509D01*
X43747092Y-33433103D01*
X43751926Y-33436209D01*
X43876883Y-33472900D01*
X44007117Y-33472900D01*
X44132073Y-33436209D01*
X44132073Y-33436208D01*
X44132076Y-33436208D01*
X44241636Y-33365799D01*
X44326921Y-33267374D01*
X44381023Y-33148909D01*
X44399557Y-33020000D01*
X44381023Y-32891091D01*
X44374409Y-32876609D01*
X44326921Y-32772626D01*
X44326919Y-32772623D01*
X44241633Y-32674198D01*
X44132073Y-32603790D01*
X44007117Y-32567100D01*
X43876883Y-32567100D01*
X43870380Y-32569009D01*
X43819044Y-32565744D01*
X43796024Y-32550028D01*
X42533916Y-31287919D01*
X42512176Y-31241299D01*
X42525490Y-31191612D01*
X42565904Y-31162591D01*
X42608076Y-31150208D01*
X42717636Y-31079799D01*
X42802921Y-30981374D01*
X42857023Y-30862909D01*
X42875557Y-30734000D01*
X42857023Y-30605091D01*
X42802921Y-30486626D01*
X42802919Y-30486623D01*
X42717633Y-30388198D01*
X42608073Y-30317790D01*
X42483117Y-30281100D01*
X42467100Y-30281100D01*
X42418762Y-30263507D01*
X42393042Y-30218958D01*
X42391900Y-30205900D01*
X42391900Y-29919262D01*
X42409493Y-29870924D01*
X42454042Y-29845204D01*
X42504700Y-29854137D01*
X42507738Y-29855989D01*
X42545424Y-29880208D01*
X42670383Y-29916900D01*
X42800617Y-29916900D01*
X42925573Y-29880209D01*
X42925573Y-29880208D01*
X42925576Y-29880208D01*
X43035136Y-29809799D01*
X43120421Y-29711374D01*
X43170157Y-29602468D01*
X43206241Y-29565808D01*
X43257447Y-29560918D01*
X43291735Y-29580534D01*
X44136574Y-30425373D01*
X44158314Y-30471993D01*
X44158600Y-30478547D01*
X44158600Y-31190037D01*
X44141007Y-31238375D01*
X44124056Y-31253299D01*
X44086866Y-31277199D01*
X44086864Y-31277200D01*
X44001580Y-31375623D01*
X44001578Y-31375626D01*
X43947477Y-31494088D01*
X43928943Y-31623000D01*
X43947477Y-31751911D01*
X44001578Y-31870373D01*
X44001580Y-31870376D01*
X44005192Y-31874544D01*
X44084506Y-31966078D01*
X44086866Y-31968801D01*
X44125035Y-31993330D01*
X44176338Y-32026300D01*
X44196426Y-32039209D01*
X44321383Y-32075900D01*
X44451617Y-32075900D01*
X44576573Y-32039209D01*
X44576573Y-32039208D01*
X44576576Y-32039208D01*
X44686136Y-31968799D01*
X44771421Y-31870374D01*
X44825523Y-31751909D01*
X44844057Y-31623000D01*
X44825523Y-31494091D01*
X44794368Y-31425873D01*
X44771421Y-31375626D01*
X44771419Y-31375623D01*
X44686135Y-31277200D01*
X44686133Y-31277199D01*
X44648944Y-31253299D01*
X44617791Y-31212365D01*
X44614400Y-31190037D01*
X44614400Y-31178500D01*
X50342443Y-31178500D01*
X50360977Y-31307411D01*
X50415078Y-31425873D01*
X50415080Y-31425876D01*
X50500366Y-31524301D01*
X50609926Y-31594709D01*
X50734883Y-31631400D01*
X50865117Y-31631400D01*
X50990073Y-31594709D01*
X50990073Y-31594708D01*
X50990076Y-31594708D01*
X51099636Y-31524299D01*
X51184921Y-31425874D01*
X51239023Y-31307409D01*
X51257557Y-31178500D01*
X51239023Y-31049591D01*
X51207868Y-30981373D01*
X51184921Y-30931126D01*
X51184919Y-30931123D01*
X51099635Y-30832700D01*
X51099633Y-30832699D01*
X51062444Y-30808799D01*
X51031291Y-30767865D01*
X51027900Y-30745537D01*
X51027900Y-28732297D01*
X51045493Y-28683959D01*
X51049926Y-28679123D01*
X51406597Y-28322452D01*
X53305057Y-26423991D01*
X53307875Y-26421316D01*
X53337994Y-26394199D01*
X53347996Y-26371730D01*
X53353630Y-26361357D01*
X53367016Y-26340746D01*
X53368351Y-26332311D01*
X53373924Y-26313498D01*
X53377400Y-26305692D01*
X53377400Y-26281102D01*
X53378326Y-26269336D01*
X53382172Y-26245056D01*
X53379960Y-26236803D01*
X53377400Y-26217345D01*
X53377400Y-25324963D01*
X53394993Y-25276625D01*
X53411944Y-25261701D01*
X53449133Y-25237801D01*
X53449133Y-25237800D01*
X53449136Y-25237799D01*
X53534421Y-25139374D01*
X53588523Y-25020909D01*
X53607057Y-24892000D01*
X53588523Y-24763091D01*
X53534421Y-24644626D01*
X53534419Y-24644623D01*
X53449133Y-24546198D01*
X53339573Y-24475790D01*
X53214617Y-24439100D01*
X53084383Y-24439100D01*
X52959426Y-24475790D01*
X52849866Y-24546198D01*
X52764580Y-24644623D01*
X52764578Y-24644626D01*
X52710477Y-24763088D01*
X52691943Y-24892000D01*
X52710477Y-25020911D01*
X52764578Y-25139373D01*
X52764580Y-25139376D01*
X52800652Y-25181005D01*
X52849864Y-25237799D01*
X52849865Y-25237799D01*
X52849866Y-25237801D01*
X52887056Y-25261701D01*
X52918209Y-25302634D01*
X52921600Y-25324963D01*
X52921600Y-26131701D01*
X52904007Y-26180039D01*
X52899574Y-26184875D01*
X50644456Y-28439992D01*
X50641602Y-28442702D01*
X50611504Y-28469802D01*
X50602851Y-28489239D01*
X50602039Y-28491065D01*
X50601507Y-28492259D01*
X50595877Y-28502628D01*
X50582485Y-28523251D01*
X50582483Y-28523256D01*
X50581148Y-28531685D01*
X50575574Y-28550504D01*
X50572100Y-28558307D01*
X50572100Y-28582902D01*
X50571174Y-28594666D01*
X50567329Y-28618941D01*
X50567329Y-28618944D01*
X50569538Y-28627188D01*
X50572100Y-28646650D01*
X50572100Y-30745537D01*
X50554507Y-30793875D01*
X50537556Y-30808799D01*
X50500366Y-30832699D01*
X50500364Y-30832700D01*
X50415080Y-30931123D01*
X50415078Y-30931126D01*
X50360977Y-31049588D01*
X50342443Y-31178500D01*
X44614400Y-31178500D01*
X44614400Y-30360936D01*
X44614503Y-30356999D01*
X44616623Y-30316555D01*
X44616622Y-30316554D01*
X44616623Y-30316552D01*
X44607806Y-30293586D01*
X44604460Y-30282288D01*
X44599348Y-30258234D01*
X44594330Y-30251327D01*
X44584963Y-30234075D01*
X44581903Y-30226104D01*
X44581902Y-30226102D01*
X44564518Y-30208718D01*
X44556855Y-30199747D01*
X44542401Y-30179854D01*
X44535003Y-30175582D01*
X44519433Y-30163634D01*
X42731426Y-28375626D01*
X42709686Y-28329006D01*
X42709400Y-28322452D01*
X42709400Y-26360436D01*
X42709503Y-26356499D01*
X42711623Y-26316055D01*
X42711622Y-26316054D01*
X42711623Y-26316052D01*
X42702806Y-26293086D01*
X42699460Y-26281788D01*
X42694348Y-26257734D01*
X42689330Y-26250827D01*
X42679963Y-26233575D01*
X42676903Y-26225604D01*
X42676902Y-26225602D01*
X42659518Y-26208218D01*
X42651855Y-26199247D01*
X42637401Y-26179354D01*
X42630006Y-26175084D01*
X42614434Y-26163135D01*
X42413925Y-25962625D01*
X42392186Y-25916005D01*
X42391900Y-25909451D01*
X42391900Y-23947436D01*
X42392003Y-23943499D01*
X42394123Y-23903055D01*
X42394122Y-23903054D01*
X42394123Y-23903052D01*
X42385306Y-23880086D01*
X42381960Y-23868788D01*
X42376848Y-23844734D01*
X42371830Y-23837827D01*
X42362463Y-23820575D01*
X42359403Y-23812604D01*
X42359402Y-23812602D01*
X42342018Y-23795218D01*
X42334355Y-23786247D01*
X42319901Y-23766354D01*
X42312506Y-23762084D01*
X42296934Y-23750135D01*
X42096425Y-23549625D01*
X42074686Y-23503005D01*
X42074400Y-23496451D01*
X42074400Y-21534436D01*
X42074503Y-21530499D01*
X42076623Y-21490051D01*
X42067811Y-21467095D01*
X42064459Y-21455780D01*
X42059348Y-21431735D01*
X42059348Y-21431734D01*
X42054331Y-21424830D01*
X42044963Y-21407574D01*
X42041904Y-21399604D01*
X42024507Y-21382207D01*
X42016855Y-21373249D01*
X42002401Y-21353354D01*
X42002400Y-21353353D01*
X42002399Y-21353352D01*
X41995006Y-21349084D01*
X41979434Y-21337134D01*
X41660218Y-21017918D01*
X41638478Y-20971298D01*
X41638580Y-20957109D01*
X41642900Y-20914833D01*
X41642899Y-19725168D01*
X41632435Y-19622732D01*
X41577442Y-19456772D01*
X41572562Y-19448860D01*
X41540196Y-19396385D01*
X41529000Y-19356908D01*
X41529000Y-19176500D01*
X41546593Y-19128162D01*
X41591142Y-19102442D01*
X41604200Y-19101300D01*
X54915800Y-19101300D01*
X54964138Y-19118893D01*
G37*
G04 #@! TD.AperFunction*
M02*
