G04 #@! TF.GenerationSoftware,KiCad,Pcbnew,(5.1.2-1)-1*
G04 #@! TF.CreationDate,2019-06-26T00:29:29-04:00*
G04 #@! TF.ProjectId,GW28R8128,47573238-5238-4313-9238-2e6b69636164,rev?*
G04 #@! TF.SameCoordinates,Original*
G04 #@! TF.FileFunction,Legend,Bot*
G04 #@! TF.FilePolarity,Positive*
%FSLAX46Y46*%
G04 Gerber Fmt 4.6, Leading zero omitted, Abs format (unit mm)*
G04 Created by KiCad (PCBNEW (5.1.2-1)-1) date 2019-06-26 00:29:29*
%MOMM*%
%LPD*%
G04 APERTURE LIST*
%ADD10C,0.203200*%
%ADD11C,0.300000*%
%ADD12C,0.225000*%
%ADD13C,0.120000*%
%ADD14C,1.852400*%
%ADD15O,1.852400X1.852400*%
%ADD16C,2.152400*%
%ADD17R,1.852400X1.852400*%
G04 APERTURE END LIST*
D10*
X51243895Y-33866666D02*
X51824466Y-33866666D01*
X51940580Y-33827961D01*
X52017990Y-33750552D01*
X52056695Y-33634438D01*
X52056695Y-33557028D01*
X52056695Y-34640761D02*
X52056695Y-34253714D01*
X51243895Y-34253714D01*
X51979285Y-35376152D02*
X52017990Y-35337447D01*
X52056695Y-35221333D01*
X52056695Y-35143923D01*
X52017990Y-35027809D01*
X51940580Y-34950400D01*
X51863171Y-34911695D01*
X51708352Y-34872990D01*
X51592238Y-34872990D01*
X51437419Y-34911695D01*
X51360009Y-34950400D01*
X51282600Y-35027809D01*
X51243895Y-35143923D01*
X51243895Y-35221333D01*
X51282600Y-35337447D01*
X51321304Y-35376152D01*
X51243895Y-35956723D02*
X51824466Y-35956723D01*
X51940580Y-35918019D01*
X52017990Y-35840609D01*
X52056695Y-35724495D01*
X52056695Y-35647085D01*
X52056695Y-36730819D02*
X52056695Y-36343771D01*
X51243895Y-36343771D01*
X51979285Y-37466209D02*
X52017990Y-37427504D01*
X52056695Y-37311390D01*
X52056695Y-37233980D01*
X52017990Y-37117866D01*
X51940580Y-37040457D01*
X51863171Y-37001752D01*
X51708352Y-36963047D01*
X51592238Y-36963047D01*
X51437419Y-37001752D01*
X51360009Y-37040457D01*
X51282600Y-37117866D01*
X51243895Y-37233980D01*
X51243895Y-37311390D01*
X51282600Y-37427504D01*
X51321304Y-37466209D01*
X51243895Y-38046780D02*
X51824466Y-38046780D01*
X51940580Y-38008076D01*
X52017990Y-37930666D01*
X52056695Y-37814552D01*
X52056695Y-37737142D01*
X52056695Y-38820876D02*
X52056695Y-38433828D01*
X51243895Y-38433828D01*
X51979285Y-39556266D02*
X52017990Y-39517561D01*
X52056695Y-39401447D01*
X52056695Y-39324038D01*
X52017990Y-39207923D01*
X51940580Y-39130514D01*
X51863171Y-39091809D01*
X51708352Y-39053104D01*
X51592238Y-39053104D01*
X51437419Y-39091809D01*
X51360009Y-39130514D01*
X51282600Y-39207923D01*
X51243895Y-39324038D01*
X51243895Y-39401447D01*
X51282600Y-39517561D01*
X51321304Y-39556266D01*
X50278695Y-32763580D02*
X50278695Y-32299123D01*
X50278695Y-32531352D02*
X49465895Y-32531352D01*
X49582009Y-32453942D01*
X49659419Y-32376533D01*
X49698123Y-32299123D01*
X49543304Y-33073219D02*
X49504600Y-33111923D01*
X49465895Y-33189333D01*
X49465895Y-33382857D01*
X49504600Y-33460266D01*
X49543304Y-33498971D01*
X49620714Y-33537676D01*
X49698123Y-33537676D01*
X49814238Y-33498971D01*
X50278695Y-33034514D01*
X50278695Y-33537676D01*
X49814238Y-34002133D02*
X49775533Y-33924723D01*
X49736828Y-33886019D01*
X49659419Y-33847314D01*
X49620714Y-33847314D01*
X49543304Y-33886019D01*
X49504600Y-33924723D01*
X49465895Y-34002133D01*
X49465895Y-34156952D01*
X49504600Y-34234361D01*
X49543304Y-34273066D01*
X49620714Y-34311771D01*
X49659419Y-34311771D01*
X49736828Y-34273066D01*
X49775533Y-34234361D01*
X49814238Y-34156952D01*
X49814238Y-34002133D01*
X49852942Y-33924723D01*
X49891647Y-33886019D01*
X49969057Y-33847314D01*
X50123876Y-33847314D01*
X50201285Y-33886019D01*
X50239990Y-33924723D01*
X50278695Y-34002133D01*
X50278695Y-34156952D01*
X50239990Y-34234361D01*
X50201285Y-34273066D01*
X50123876Y-34311771D01*
X49969057Y-34311771D01*
X49891647Y-34273066D01*
X49852942Y-34234361D01*
X49814238Y-34156952D01*
X50278695Y-34660114D02*
X49465895Y-34660114D01*
X49969057Y-34737523D02*
X50278695Y-34969752D01*
X49736828Y-34969752D02*
X50046466Y-34660114D01*
X50278695Y-35859961D02*
X49736828Y-36285714D01*
X49736828Y-35859961D02*
X50278695Y-36285714D01*
X49814238Y-37330742D02*
X49775533Y-37253333D01*
X49736828Y-37214628D01*
X49659419Y-37175923D01*
X49620714Y-37175923D01*
X49543304Y-37214628D01*
X49504600Y-37253333D01*
X49465895Y-37330742D01*
X49465895Y-37485561D01*
X49504600Y-37562971D01*
X49543304Y-37601676D01*
X49620714Y-37640380D01*
X49659419Y-37640380D01*
X49736828Y-37601676D01*
X49775533Y-37562971D01*
X49814238Y-37485561D01*
X49814238Y-37330742D01*
X49852942Y-37253333D01*
X49891647Y-37214628D01*
X49969057Y-37175923D01*
X50123876Y-37175923D01*
X50201285Y-37214628D01*
X50239990Y-37253333D01*
X50278695Y-37330742D01*
X50278695Y-37485561D01*
X50239990Y-37562971D01*
X50201285Y-37601676D01*
X50123876Y-37640380D01*
X49969057Y-37640380D01*
X49891647Y-37601676D01*
X49852942Y-37562971D01*
X49814238Y-37485561D01*
X50278695Y-39072457D02*
X49891647Y-38801523D01*
X50278695Y-38608000D02*
X49465895Y-38608000D01*
X49465895Y-38917638D01*
X49504600Y-38995047D01*
X49543304Y-39033752D01*
X49620714Y-39072457D01*
X49736828Y-39072457D01*
X49814238Y-39033752D01*
X49852942Y-38995047D01*
X49891647Y-38917638D01*
X49891647Y-38608000D01*
X49465895Y-39575619D02*
X49465895Y-39730438D01*
X49504600Y-39807847D01*
X49582009Y-39885257D01*
X49736828Y-39923961D01*
X50007761Y-39923961D01*
X50162580Y-39885257D01*
X50239990Y-39807847D01*
X50278695Y-39730438D01*
X50278695Y-39575619D01*
X50239990Y-39498209D01*
X50162580Y-39420800D01*
X50007761Y-39382095D01*
X49736828Y-39382095D01*
X49582009Y-39420800D01*
X49504600Y-39498209D01*
X49465895Y-39575619D01*
X50278695Y-40272304D02*
X49465895Y-40272304D01*
X50046466Y-40543238D01*
X49465895Y-40814171D01*
X50278695Y-40814171D01*
D11*
X47697571Y-39079714D02*
X47625000Y-38934571D01*
X47552428Y-38862000D01*
X47407285Y-38789428D01*
X47334714Y-38789428D01*
X47189571Y-38862000D01*
X47117000Y-38934571D01*
X47044428Y-39079714D01*
X47044428Y-39370000D01*
X47117000Y-39515142D01*
X47189571Y-39587714D01*
X47334714Y-39660285D01*
X47407285Y-39660285D01*
X47552428Y-39587714D01*
X47625000Y-39515142D01*
X47697571Y-39370000D01*
X47697571Y-39079714D01*
X47770142Y-38934571D01*
X47842714Y-38862000D01*
X47987857Y-38789428D01*
X48278142Y-38789428D01*
X48423285Y-38862000D01*
X48495857Y-38934571D01*
X48568428Y-39079714D01*
X48568428Y-39370000D01*
X48495857Y-39515142D01*
X48423285Y-39587714D01*
X48278142Y-39660285D01*
X47987857Y-39660285D01*
X47842714Y-39587714D01*
X47770142Y-39515142D01*
X47697571Y-39370000D01*
X48568428Y-41111714D02*
X48568428Y-40240857D01*
X48568428Y-40676285D02*
X47044428Y-40676285D01*
X47262142Y-40531142D01*
X47407285Y-40386000D01*
X47479857Y-40240857D01*
X47189571Y-41692285D02*
X47117000Y-41764857D01*
X47044428Y-41910000D01*
X47044428Y-42272857D01*
X47117000Y-42418000D01*
X47189571Y-42490571D01*
X47334714Y-42563142D01*
X47479857Y-42563142D01*
X47697571Y-42490571D01*
X48568428Y-41619714D01*
X48568428Y-42563142D01*
X47697571Y-43434000D02*
X47625000Y-43288857D01*
X47552428Y-43216285D01*
X47407285Y-43143714D01*
X47334714Y-43143714D01*
X47189571Y-43216285D01*
X47117000Y-43288857D01*
X47044428Y-43434000D01*
X47044428Y-43724285D01*
X47117000Y-43869428D01*
X47189571Y-43942000D01*
X47334714Y-44014571D01*
X47407285Y-44014571D01*
X47552428Y-43942000D01*
X47625000Y-43869428D01*
X47697571Y-43724285D01*
X47697571Y-43434000D01*
X47770142Y-43288857D01*
X47842714Y-43216285D01*
X47987857Y-43143714D01*
X48278142Y-43143714D01*
X48423285Y-43216285D01*
X48495857Y-43288857D01*
X48568428Y-43434000D01*
X48568428Y-43724285D01*
X48495857Y-43869428D01*
X48423285Y-43942000D01*
X48278142Y-44014571D01*
X47987857Y-44014571D01*
X47842714Y-43942000D01*
X47770142Y-43869428D01*
X47697571Y-43724285D01*
X48568428Y-37809714D02*
X47842714Y-37301714D01*
X48568428Y-36938857D02*
X47044428Y-36938857D01*
X47044428Y-37519428D01*
X47117000Y-37664571D01*
X47189571Y-37737142D01*
X47334714Y-37809714D01*
X47552428Y-37809714D01*
X47697571Y-37737142D01*
X47770142Y-37664571D01*
X47842714Y-37519428D01*
X47842714Y-36938857D01*
X47189571Y-33636857D02*
X47117000Y-33709428D01*
X47044428Y-33854571D01*
X47044428Y-34217428D01*
X47117000Y-34362571D01*
X47189571Y-34435142D01*
X47334714Y-34507714D01*
X47479857Y-34507714D01*
X47697571Y-34435142D01*
X48568428Y-33564285D01*
X48568428Y-34507714D01*
X47697571Y-35378571D02*
X47625000Y-35233428D01*
X47552428Y-35160857D01*
X47407285Y-35088285D01*
X47334714Y-35088285D01*
X47189571Y-35160857D01*
X47117000Y-35233428D01*
X47044428Y-35378571D01*
X47044428Y-35668857D01*
X47117000Y-35814000D01*
X47189571Y-35886571D01*
X47334714Y-35959142D01*
X47407285Y-35959142D01*
X47552428Y-35886571D01*
X47625000Y-35814000D01*
X47697571Y-35668857D01*
X47697571Y-35378571D01*
X47770142Y-35233428D01*
X47842714Y-35160857D01*
X47987857Y-35088285D01*
X48278142Y-35088285D01*
X48423285Y-35160857D01*
X48495857Y-35233428D01*
X48568428Y-35378571D01*
X48568428Y-35668857D01*
X48495857Y-35814000D01*
X48423285Y-35886571D01*
X48278142Y-35959142D01*
X47987857Y-35959142D01*
X47842714Y-35886571D01*
X47770142Y-35814000D01*
X47697571Y-35668857D01*
X47117000Y-30897285D02*
X47044428Y-30752142D01*
X47044428Y-30534428D01*
X47117000Y-30316714D01*
X47262142Y-30171571D01*
X47407285Y-30099000D01*
X47697571Y-30026428D01*
X47915285Y-30026428D01*
X48205571Y-30099000D01*
X48350714Y-30171571D01*
X48495857Y-30316714D01*
X48568428Y-30534428D01*
X48568428Y-30679571D01*
X48495857Y-30897285D01*
X48423285Y-30969857D01*
X47915285Y-30969857D01*
X47915285Y-30679571D01*
X47044428Y-31477857D02*
X48568428Y-31840714D01*
X47479857Y-32131000D01*
X48568428Y-32421285D01*
X47044428Y-32784142D01*
D12*
X44589000Y-27076000D02*
X44517571Y-26933142D01*
X44517571Y-26718857D01*
X44589000Y-26504571D01*
X44731857Y-26361714D01*
X44874714Y-26290285D01*
X45160428Y-26218857D01*
X45374714Y-26218857D01*
X45660428Y-26290285D01*
X45803285Y-26361714D01*
X45946142Y-26504571D01*
X46017571Y-26718857D01*
X46017571Y-26861714D01*
X45946142Y-27076000D01*
X45874714Y-27147428D01*
X45374714Y-27147428D01*
X45374714Y-26861714D01*
X46017571Y-28433142D02*
X45231857Y-28433142D01*
X45089000Y-28361714D01*
X45017571Y-28218857D01*
X45017571Y-27933142D01*
X45089000Y-27790285D01*
X45946142Y-28433142D02*
X46017571Y-28290285D01*
X46017571Y-27933142D01*
X45946142Y-27790285D01*
X45803285Y-27718857D01*
X45660428Y-27718857D01*
X45517571Y-27790285D01*
X45446142Y-27933142D01*
X45446142Y-28290285D01*
X45374714Y-28433142D01*
X46017571Y-29147428D02*
X45017571Y-29147428D01*
X45303285Y-29147428D02*
X45160428Y-29218857D01*
X45089000Y-29290285D01*
X45017571Y-29433142D01*
X45017571Y-29576000D01*
X46017571Y-30076000D02*
X45017571Y-30076000D01*
X45303285Y-30076000D02*
X45160428Y-30147428D01*
X45089000Y-30218857D01*
X45017571Y-30361714D01*
X45017571Y-30504571D01*
X45946142Y-31576000D02*
X46017571Y-31433142D01*
X46017571Y-31147428D01*
X45946142Y-31004571D01*
X45803285Y-30933142D01*
X45231857Y-30933142D01*
X45089000Y-31004571D01*
X45017571Y-31147428D01*
X45017571Y-31433142D01*
X45089000Y-31576000D01*
X45231857Y-31647428D01*
X45374714Y-31647428D01*
X45517571Y-30933142D01*
X45017571Y-32076000D02*
X45017571Y-32647428D01*
X44517571Y-32290285D02*
X45803285Y-32290285D01*
X45946142Y-32361714D01*
X46017571Y-32504571D01*
X46017571Y-32647428D01*
X45017571Y-32933142D02*
X45017571Y-33504571D01*
X44517571Y-33147428D02*
X45803285Y-33147428D01*
X45946142Y-33218857D01*
X46017571Y-33361714D01*
X46017571Y-33504571D01*
X44517571Y-34076000D02*
X44589000Y-34076000D01*
X44731857Y-34004571D01*
X44803285Y-33933142D01*
X45946142Y-34647428D02*
X46017571Y-34790285D01*
X46017571Y-35076000D01*
X45946142Y-35218857D01*
X45803285Y-35290285D01*
X45731857Y-35290285D01*
X45589000Y-35218857D01*
X45517571Y-35076000D01*
X45517571Y-34861714D01*
X45446142Y-34718857D01*
X45303285Y-34647428D01*
X45231857Y-34647428D01*
X45089000Y-34718857D01*
X45017571Y-34861714D01*
X45017571Y-35076000D01*
X45089000Y-35218857D01*
X44517571Y-36933142D02*
X46017571Y-37290285D01*
X44946142Y-37576000D01*
X46017571Y-37861714D01*
X44517571Y-38218857D01*
X46017571Y-39004571D02*
X45946142Y-38861714D01*
X45874714Y-38790285D01*
X45731857Y-38718857D01*
X45303285Y-38718857D01*
X45160428Y-38790285D01*
X45089000Y-38861714D01*
X45017571Y-39004571D01*
X45017571Y-39218857D01*
X45089000Y-39361714D01*
X45160428Y-39433142D01*
X45303285Y-39504571D01*
X45731857Y-39504571D01*
X45874714Y-39433142D01*
X45946142Y-39361714D01*
X46017571Y-39218857D01*
X46017571Y-39004571D01*
X46017571Y-40147428D02*
X45017571Y-40147428D01*
X45303285Y-40147428D02*
X45160428Y-40218857D01*
X45089000Y-40290285D01*
X45017571Y-40433142D01*
X45017571Y-40576000D01*
X46017571Y-41076000D02*
X44517571Y-41076000D01*
X45446142Y-41218857D02*
X46017571Y-41647428D01*
X45017571Y-41647428D02*
X45589000Y-41076000D01*
X45946142Y-42218857D02*
X46017571Y-42361714D01*
X46017571Y-42647428D01*
X45946142Y-42790285D01*
X45803285Y-42861714D01*
X45731857Y-42861714D01*
X45589000Y-42790285D01*
X45517571Y-42647428D01*
X45517571Y-42433142D01*
X45446142Y-42290285D01*
X45303285Y-42218857D01*
X45231857Y-42218857D01*
X45089000Y-42290285D01*
X45017571Y-42433142D01*
X45017571Y-42647428D01*
X45089000Y-42790285D01*
X46017571Y-43504571D02*
X44517571Y-43504571D01*
X46017571Y-44147428D02*
X45231857Y-44147428D01*
X45089000Y-44076000D01*
X45017571Y-43933142D01*
X45017571Y-43718857D01*
X45089000Y-43576000D01*
X45160428Y-43504571D01*
X46017571Y-45076000D02*
X45946142Y-44933142D01*
X45874714Y-44861714D01*
X45731857Y-44790285D01*
X45303285Y-44790285D01*
X45160428Y-44861714D01*
X45089000Y-44933142D01*
X45017571Y-45076000D01*
X45017571Y-45290285D01*
X45089000Y-45433142D01*
X45160428Y-45504571D01*
X45303285Y-45576000D01*
X45731857Y-45576000D01*
X45874714Y-45504571D01*
X45946142Y-45433142D01*
X46017571Y-45290285D01*
X46017571Y-45076000D01*
X45017571Y-46218857D02*
X46517571Y-46218857D01*
X45089000Y-46218857D02*
X45017571Y-46361714D01*
X45017571Y-46647428D01*
X45089000Y-46790285D01*
X45160428Y-46861714D01*
X45303285Y-46933142D01*
X45731857Y-46933142D01*
X45874714Y-46861714D01*
X45946142Y-46790285D01*
X46017571Y-46647428D01*
X46017571Y-46361714D01*
X45946142Y-46218857D01*
D13*
X57210000Y-54670000D02*
X54550000Y-54670000D01*
X57210000Y-18990000D02*
X57210000Y-54670000D01*
X54550000Y-18990000D02*
X54550000Y-54670000D01*
X57210000Y-18990000D02*
X54550000Y-18990000D01*
X57210000Y-20320000D02*
X57210000Y-18990000D01*
X57210000Y-18990000D02*
X55880000Y-18990000D01*
X41970000Y-54670000D02*
X39310000Y-54670000D01*
X41970000Y-21590000D02*
X41970000Y-54670000D01*
X39310000Y-21590000D02*
X39310000Y-54670000D01*
X41970000Y-21590000D02*
X39310000Y-21590000D01*
X41970000Y-20320000D02*
X41970000Y-18990000D01*
X41970000Y-18990000D02*
X40640000Y-18990000D01*
%LPC*%
D14*
X55880000Y-20320000D03*
D15*
X55880000Y-22860000D03*
X55880000Y-25400000D03*
X55880000Y-27940000D03*
X55880000Y-30480000D03*
X55880000Y-33020000D03*
X55880000Y-35560000D03*
X55880000Y-38100000D03*
X55880000Y-40640000D03*
X55880000Y-43180000D03*
X55880000Y-45720000D03*
X55880000Y-48260000D03*
X55880000Y-50800000D03*
X55880000Y-53340000D03*
D16*
X52070000Y-20320000D03*
X43180000Y-53340000D03*
D17*
X40640000Y-20320000D03*
D15*
X40640000Y-22860000D03*
X40640000Y-25400000D03*
X40640000Y-27940000D03*
X40640000Y-30480000D03*
X40640000Y-33020000D03*
X40640000Y-35560000D03*
X40640000Y-38100000D03*
X40640000Y-40640000D03*
X40640000Y-43180000D03*
X40640000Y-45720000D03*
X40640000Y-48260000D03*
X40640000Y-50800000D03*
X40640000Y-53340000D03*
M02*
