G04 #@! TF.GenerationSoftware,KiCad,Pcbnew,(5.1.2-1)-1*
G04 #@! TF.CreationDate,2019-12-07T17:40:51-05:00*
G04 #@! TF.ProjectId,GW28R8128,47573238-5238-4313-9238-2e6b69636164,rev?*
G04 #@! TF.SameCoordinates,Original*
G04 #@! TF.FileFunction,Copper,L1,Top*
G04 #@! TF.FilePolarity,Positive*
%FSLAX46Y46*%
G04 Gerber Fmt 4.6, Leading zero omitted, Abs format (unit mm)*
G04 Created by KiCad (PCBNEW (5.1.2-1)-1) date 2019-12-07 17:40:51*
%MOMM*%
%LPD*%
G04 APERTURE LIST*
%ADD10O,1.700000X2.280000*%
%ADD11C,1.000000*%
%ADD12C,0.100000*%
%ADD13C,0.850000*%
%ADD14C,1.050000*%
%ADD15C,0.600000*%
%ADD16C,0.800000*%
%ADD17C,0.508000*%
%ADD18C,0.762000*%
%ADD19C,0.152400*%
G04 APERTURE END LIST*
D10*
X40640000Y-20320000D03*
X55880000Y-53340000D03*
X40640000Y-22860000D03*
X55880000Y-50800000D03*
X40640000Y-25400000D03*
X55880000Y-48260000D03*
X40640000Y-27940000D03*
X55880000Y-45720000D03*
X40640000Y-30480000D03*
X55880000Y-43180000D03*
X40640000Y-33020000D03*
X55880000Y-40640000D03*
X40640000Y-35560000D03*
X55880000Y-38100000D03*
X40640000Y-38100000D03*
X55880000Y-35560000D03*
X40640000Y-40640000D03*
X55880000Y-33020000D03*
X40640000Y-43180000D03*
X55880000Y-30480000D03*
X40640000Y-45720000D03*
X55880000Y-27940000D03*
X40640000Y-48260000D03*
X55880000Y-25400000D03*
X40640000Y-50800000D03*
X55880000Y-22860000D03*
X40640000Y-53340000D03*
X55880000Y-20320000D03*
D11*
X43180000Y-53340000D03*
X53340000Y-53340000D03*
X43180000Y-20320000D03*
D12*
G36*
X52578329Y-26561023D02*
G01*
X52598957Y-26564083D01*
X52619185Y-26569150D01*
X52638820Y-26576176D01*
X52657672Y-26585092D01*
X52675559Y-26595813D01*
X52692309Y-26608235D01*
X52707760Y-26622240D01*
X52721765Y-26637691D01*
X52734187Y-26654441D01*
X52744908Y-26672328D01*
X52753824Y-26691180D01*
X52760850Y-26710815D01*
X52765917Y-26731043D01*
X52768977Y-26751671D01*
X52770000Y-26772500D01*
X52770000Y-27197500D01*
X52768977Y-27218329D01*
X52765917Y-27238957D01*
X52760850Y-27259185D01*
X52753824Y-27278820D01*
X52744908Y-27297672D01*
X52734187Y-27315559D01*
X52721765Y-27332309D01*
X52707760Y-27347760D01*
X52692309Y-27361765D01*
X52675559Y-27374187D01*
X52657672Y-27384908D01*
X52638820Y-27393824D01*
X52619185Y-27400850D01*
X52598957Y-27405917D01*
X52578329Y-27408977D01*
X52557500Y-27410000D01*
X51582500Y-27410000D01*
X51561671Y-27408977D01*
X51541043Y-27405917D01*
X51520815Y-27400850D01*
X51501180Y-27393824D01*
X51482328Y-27384908D01*
X51464441Y-27374187D01*
X51447691Y-27361765D01*
X51432240Y-27347760D01*
X51418235Y-27332309D01*
X51405813Y-27315559D01*
X51395092Y-27297672D01*
X51386176Y-27278820D01*
X51379150Y-27259185D01*
X51374083Y-27238957D01*
X51371023Y-27218329D01*
X51370000Y-27197500D01*
X51370000Y-26772500D01*
X51371023Y-26751671D01*
X51374083Y-26731043D01*
X51379150Y-26710815D01*
X51386176Y-26691180D01*
X51395092Y-26672328D01*
X51405813Y-26654441D01*
X51418235Y-26637691D01*
X51432240Y-26622240D01*
X51447691Y-26608235D01*
X51464441Y-26595813D01*
X51482328Y-26585092D01*
X51501180Y-26576176D01*
X51520815Y-26569150D01*
X51541043Y-26564083D01*
X51561671Y-26561023D01*
X51582500Y-26560000D01*
X52557500Y-26560000D01*
X52578329Y-26561023D01*
X52578329Y-26561023D01*
G37*
D13*
X52070000Y-26985000D03*
D12*
G36*
X52578329Y-24661023D02*
G01*
X52598957Y-24664083D01*
X52619185Y-24669150D01*
X52638820Y-24676176D01*
X52657672Y-24685092D01*
X52675559Y-24695813D01*
X52692309Y-24708235D01*
X52707760Y-24722240D01*
X52721765Y-24737691D01*
X52734187Y-24754441D01*
X52744908Y-24772328D01*
X52753824Y-24791180D01*
X52760850Y-24810815D01*
X52765917Y-24831043D01*
X52768977Y-24851671D01*
X52770000Y-24872500D01*
X52770000Y-25297500D01*
X52768977Y-25318329D01*
X52765917Y-25338957D01*
X52760850Y-25359185D01*
X52753824Y-25378820D01*
X52744908Y-25397672D01*
X52734187Y-25415559D01*
X52721765Y-25432309D01*
X52707760Y-25447760D01*
X52692309Y-25461765D01*
X52675559Y-25474187D01*
X52657672Y-25484908D01*
X52638820Y-25493824D01*
X52619185Y-25500850D01*
X52598957Y-25505917D01*
X52578329Y-25508977D01*
X52557500Y-25510000D01*
X51582500Y-25510000D01*
X51561671Y-25508977D01*
X51541043Y-25505917D01*
X51520815Y-25500850D01*
X51501180Y-25493824D01*
X51482328Y-25484908D01*
X51464441Y-25474187D01*
X51447691Y-25461765D01*
X51432240Y-25447760D01*
X51418235Y-25432309D01*
X51405813Y-25415559D01*
X51395092Y-25397672D01*
X51386176Y-25378820D01*
X51379150Y-25359185D01*
X51374083Y-25338957D01*
X51371023Y-25318329D01*
X51370000Y-25297500D01*
X51370000Y-24872500D01*
X51371023Y-24851671D01*
X51374083Y-24831043D01*
X51379150Y-24810815D01*
X51386176Y-24791180D01*
X51395092Y-24772328D01*
X51405813Y-24754441D01*
X51418235Y-24737691D01*
X51432240Y-24722240D01*
X51447691Y-24708235D01*
X51464441Y-24695813D01*
X51482328Y-24685092D01*
X51501180Y-24676176D01*
X51520815Y-24669150D01*
X51541043Y-24664083D01*
X51561671Y-24661023D01*
X51582500Y-24660000D01*
X52557500Y-24660000D01*
X52578329Y-24661023D01*
X52578329Y-24661023D01*
G37*
D13*
X52070000Y-25085000D03*
D12*
G36*
X49818229Y-25971264D02*
G01*
X49843711Y-25975044D01*
X49868700Y-25981303D01*
X49892954Y-25989982D01*
X49916242Y-26000996D01*
X49938337Y-26014239D01*
X49959028Y-26029585D01*
X49978116Y-26046884D01*
X49995415Y-26065972D01*
X50010761Y-26086663D01*
X50024004Y-26108758D01*
X50035018Y-26132046D01*
X50043697Y-26156300D01*
X50049956Y-26181289D01*
X50053736Y-26206771D01*
X50055000Y-26232500D01*
X50055000Y-27107500D01*
X50053736Y-27133229D01*
X50049956Y-27158711D01*
X50043697Y-27183700D01*
X50035018Y-27207954D01*
X50024004Y-27231242D01*
X50010761Y-27253337D01*
X49995415Y-27274028D01*
X49978116Y-27293116D01*
X49959028Y-27310415D01*
X49938337Y-27325761D01*
X49916242Y-27339004D01*
X49892954Y-27350018D01*
X49868700Y-27358697D01*
X49843711Y-27364956D01*
X49818229Y-27368736D01*
X49792500Y-27370000D01*
X49267500Y-27370000D01*
X49241771Y-27368736D01*
X49216289Y-27364956D01*
X49191300Y-27358697D01*
X49167046Y-27350018D01*
X49143758Y-27339004D01*
X49121663Y-27325761D01*
X49100972Y-27310415D01*
X49081884Y-27293116D01*
X49064585Y-27274028D01*
X49049239Y-27253337D01*
X49035996Y-27231242D01*
X49024982Y-27207954D01*
X49016303Y-27183700D01*
X49010044Y-27158711D01*
X49006264Y-27133229D01*
X49005000Y-27107500D01*
X49005000Y-26232500D01*
X49006264Y-26206771D01*
X49010044Y-26181289D01*
X49016303Y-26156300D01*
X49024982Y-26132046D01*
X49035996Y-26108758D01*
X49049239Y-26086663D01*
X49064585Y-26065972D01*
X49081884Y-26046884D01*
X49100972Y-26029585D01*
X49121663Y-26014239D01*
X49143758Y-26000996D01*
X49167046Y-25989982D01*
X49191300Y-25981303D01*
X49216289Y-25975044D01*
X49241771Y-25971264D01*
X49267500Y-25970000D01*
X49792500Y-25970000D01*
X49818229Y-25971264D01*
X49818229Y-25971264D01*
G37*
D14*
X49530000Y-26670000D03*
D12*
G36*
X48118229Y-25971264D02*
G01*
X48143711Y-25975044D01*
X48168700Y-25981303D01*
X48192954Y-25989982D01*
X48216242Y-26000996D01*
X48238337Y-26014239D01*
X48259028Y-26029585D01*
X48278116Y-26046884D01*
X48295415Y-26065972D01*
X48310761Y-26086663D01*
X48324004Y-26108758D01*
X48335018Y-26132046D01*
X48343697Y-26156300D01*
X48349956Y-26181289D01*
X48353736Y-26206771D01*
X48355000Y-26232500D01*
X48355000Y-27107500D01*
X48353736Y-27133229D01*
X48349956Y-27158711D01*
X48343697Y-27183700D01*
X48335018Y-27207954D01*
X48324004Y-27231242D01*
X48310761Y-27253337D01*
X48295415Y-27274028D01*
X48278116Y-27293116D01*
X48259028Y-27310415D01*
X48238337Y-27325761D01*
X48216242Y-27339004D01*
X48192954Y-27350018D01*
X48168700Y-27358697D01*
X48143711Y-27364956D01*
X48118229Y-27368736D01*
X48092500Y-27370000D01*
X47567500Y-27370000D01*
X47541771Y-27368736D01*
X47516289Y-27364956D01*
X47491300Y-27358697D01*
X47467046Y-27350018D01*
X47443758Y-27339004D01*
X47421663Y-27325761D01*
X47400972Y-27310415D01*
X47381884Y-27293116D01*
X47364585Y-27274028D01*
X47349239Y-27253337D01*
X47335996Y-27231242D01*
X47324982Y-27207954D01*
X47316303Y-27183700D01*
X47310044Y-27158711D01*
X47306264Y-27133229D01*
X47305000Y-27107500D01*
X47305000Y-26232500D01*
X47306264Y-26206771D01*
X47310044Y-26181289D01*
X47316303Y-26156300D01*
X47324982Y-26132046D01*
X47335996Y-26108758D01*
X47349239Y-26086663D01*
X47364585Y-26065972D01*
X47381884Y-26046884D01*
X47400972Y-26029585D01*
X47421663Y-26014239D01*
X47443758Y-26000996D01*
X47467046Y-25989982D01*
X47491300Y-25981303D01*
X47516289Y-25975044D01*
X47541771Y-25971264D01*
X47567500Y-25970000D01*
X48092500Y-25970000D01*
X48118229Y-25971264D01*
X48118229Y-25971264D01*
G37*
D14*
X47830000Y-26670000D03*
D12*
G36*
X48424703Y-29255722D02*
G01*
X48439264Y-29257882D01*
X48453543Y-29261459D01*
X48467403Y-29266418D01*
X48480710Y-29272712D01*
X48493336Y-29280280D01*
X48505159Y-29289048D01*
X48516066Y-29298934D01*
X48525952Y-29309841D01*
X48534720Y-29321664D01*
X48542288Y-29334290D01*
X48548582Y-29347597D01*
X48553541Y-29361457D01*
X48557118Y-29375736D01*
X48559278Y-29390297D01*
X48560000Y-29405000D01*
X48560000Y-30580000D01*
X48559278Y-30594703D01*
X48557118Y-30609264D01*
X48553541Y-30623543D01*
X48548582Y-30637403D01*
X48542288Y-30650710D01*
X48534720Y-30663336D01*
X48525952Y-30675159D01*
X48516066Y-30686066D01*
X48505159Y-30695952D01*
X48493336Y-30704720D01*
X48480710Y-30712288D01*
X48467403Y-30718582D01*
X48453543Y-30723541D01*
X48439264Y-30727118D01*
X48424703Y-30729278D01*
X48410000Y-30730000D01*
X48110000Y-30730000D01*
X48095297Y-30729278D01*
X48080736Y-30727118D01*
X48066457Y-30723541D01*
X48052597Y-30718582D01*
X48039290Y-30712288D01*
X48026664Y-30704720D01*
X48014841Y-30695952D01*
X48003934Y-30686066D01*
X47994048Y-30675159D01*
X47985280Y-30663336D01*
X47977712Y-30650710D01*
X47971418Y-30637403D01*
X47966459Y-30623543D01*
X47962882Y-30609264D01*
X47960722Y-30594703D01*
X47960000Y-30580000D01*
X47960000Y-29405000D01*
X47960722Y-29390297D01*
X47962882Y-29375736D01*
X47966459Y-29361457D01*
X47971418Y-29347597D01*
X47977712Y-29334290D01*
X47985280Y-29321664D01*
X47994048Y-29309841D01*
X48003934Y-29298934D01*
X48014841Y-29289048D01*
X48026664Y-29280280D01*
X48039290Y-29272712D01*
X48052597Y-29266418D01*
X48066457Y-29261459D01*
X48080736Y-29257882D01*
X48095297Y-29255722D01*
X48110000Y-29255000D01*
X48410000Y-29255000D01*
X48424703Y-29255722D01*
X48424703Y-29255722D01*
G37*
D15*
X48260000Y-29992500D03*
D12*
G36*
X47154703Y-29255722D02*
G01*
X47169264Y-29257882D01*
X47183543Y-29261459D01*
X47197403Y-29266418D01*
X47210710Y-29272712D01*
X47223336Y-29280280D01*
X47235159Y-29289048D01*
X47246066Y-29298934D01*
X47255952Y-29309841D01*
X47264720Y-29321664D01*
X47272288Y-29334290D01*
X47278582Y-29347597D01*
X47283541Y-29361457D01*
X47287118Y-29375736D01*
X47289278Y-29390297D01*
X47290000Y-29405000D01*
X47290000Y-30580000D01*
X47289278Y-30594703D01*
X47287118Y-30609264D01*
X47283541Y-30623543D01*
X47278582Y-30637403D01*
X47272288Y-30650710D01*
X47264720Y-30663336D01*
X47255952Y-30675159D01*
X47246066Y-30686066D01*
X47235159Y-30695952D01*
X47223336Y-30704720D01*
X47210710Y-30712288D01*
X47197403Y-30718582D01*
X47183543Y-30723541D01*
X47169264Y-30727118D01*
X47154703Y-30729278D01*
X47140000Y-30730000D01*
X46840000Y-30730000D01*
X46825297Y-30729278D01*
X46810736Y-30727118D01*
X46796457Y-30723541D01*
X46782597Y-30718582D01*
X46769290Y-30712288D01*
X46756664Y-30704720D01*
X46744841Y-30695952D01*
X46733934Y-30686066D01*
X46724048Y-30675159D01*
X46715280Y-30663336D01*
X46707712Y-30650710D01*
X46701418Y-30637403D01*
X46696459Y-30623543D01*
X46692882Y-30609264D01*
X46690722Y-30594703D01*
X46690000Y-30580000D01*
X46690000Y-29405000D01*
X46690722Y-29390297D01*
X46692882Y-29375736D01*
X46696459Y-29361457D01*
X46701418Y-29347597D01*
X46707712Y-29334290D01*
X46715280Y-29321664D01*
X46724048Y-29309841D01*
X46733934Y-29298934D01*
X46744841Y-29289048D01*
X46756664Y-29280280D01*
X46769290Y-29272712D01*
X46782597Y-29266418D01*
X46796457Y-29261459D01*
X46810736Y-29257882D01*
X46825297Y-29255722D01*
X46840000Y-29255000D01*
X47140000Y-29255000D01*
X47154703Y-29255722D01*
X47154703Y-29255722D01*
G37*
D15*
X46990000Y-29992500D03*
D12*
G36*
X45884703Y-29255722D02*
G01*
X45899264Y-29257882D01*
X45913543Y-29261459D01*
X45927403Y-29266418D01*
X45940710Y-29272712D01*
X45953336Y-29280280D01*
X45965159Y-29289048D01*
X45976066Y-29298934D01*
X45985952Y-29309841D01*
X45994720Y-29321664D01*
X46002288Y-29334290D01*
X46008582Y-29347597D01*
X46013541Y-29361457D01*
X46017118Y-29375736D01*
X46019278Y-29390297D01*
X46020000Y-29405000D01*
X46020000Y-30580000D01*
X46019278Y-30594703D01*
X46017118Y-30609264D01*
X46013541Y-30623543D01*
X46008582Y-30637403D01*
X46002288Y-30650710D01*
X45994720Y-30663336D01*
X45985952Y-30675159D01*
X45976066Y-30686066D01*
X45965159Y-30695952D01*
X45953336Y-30704720D01*
X45940710Y-30712288D01*
X45927403Y-30718582D01*
X45913543Y-30723541D01*
X45899264Y-30727118D01*
X45884703Y-30729278D01*
X45870000Y-30730000D01*
X45570000Y-30730000D01*
X45555297Y-30729278D01*
X45540736Y-30727118D01*
X45526457Y-30723541D01*
X45512597Y-30718582D01*
X45499290Y-30712288D01*
X45486664Y-30704720D01*
X45474841Y-30695952D01*
X45463934Y-30686066D01*
X45454048Y-30675159D01*
X45445280Y-30663336D01*
X45437712Y-30650710D01*
X45431418Y-30637403D01*
X45426459Y-30623543D01*
X45422882Y-30609264D01*
X45420722Y-30594703D01*
X45420000Y-30580000D01*
X45420000Y-29405000D01*
X45420722Y-29390297D01*
X45422882Y-29375736D01*
X45426459Y-29361457D01*
X45431418Y-29347597D01*
X45437712Y-29334290D01*
X45445280Y-29321664D01*
X45454048Y-29309841D01*
X45463934Y-29298934D01*
X45474841Y-29289048D01*
X45486664Y-29280280D01*
X45499290Y-29272712D01*
X45512597Y-29266418D01*
X45526457Y-29261459D01*
X45540736Y-29257882D01*
X45555297Y-29255722D01*
X45570000Y-29255000D01*
X45870000Y-29255000D01*
X45884703Y-29255722D01*
X45884703Y-29255722D01*
G37*
D15*
X45720000Y-29992500D03*
D12*
G36*
X44614703Y-29255722D02*
G01*
X44629264Y-29257882D01*
X44643543Y-29261459D01*
X44657403Y-29266418D01*
X44670710Y-29272712D01*
X44683336Y-29280280D01*
X44695159Y-29289048D01*
X44706066Y-29298934D01*
X44715952Y-29309841D01*
X44724720Y-29321664D01*
X44732288Y-29334290D01*
X44738582Y-29347597D01*
X44743541Y-29361457D01*
X44747118Y-29375736D01*
X44749278Y-29390297D01*
X44750000Y-29405000D01*
X44750000Y-30580000D01*
X44749278Y-30594703D01*
X44747118Y-30609264D01*
X44743541Y-30623543D01*
X44738582Y-30637403D01*
X44732288Y-30650710D01*
X44724720Y-30663336D01*
X44715952Y-30675159D01*
X44706066Y-30686066D01*
X44695159Y-30695952D01*
X44683336Y-30704720D01*
X44670710Y-30712288D01*
X44657403Y-30718582D01*
X44643543Y-30723541D01*
X44629264Y-30727118D01*
X44614703Y-30729278D01*
X44600000Y-30730000D01*
X44300000Y-30730000D01*
X44285297Y-30729278D01*
X44270736Y-30727118D01*
X44256457Y-30723541D01*
X44242597Y-30718582D01*
X44229290Y-30712288D01*
X44216664Y-30704720D01*
X44204841Y-30695952D01*
X44193934Y-30686066D01*
X44184048Y-30675159D01*
X44175280Y-30663336D01*
X44167712Y-30650710D01*
X44161418Y-30637403D01*
X44156459Y-30623543D01*
X44152882Y-30609264D01*
X44150722Y-30594703D01*
X44150000Y-30580000D01*
X44150000Y-29405000D01*
X44150722Y-29390297D01*
X44152882Y-29375736D01*
X44156459Y-29361457D01*
X44161418Y-29347597D01*
X44167712Y-29334290D01*
X44175280Y-29321664D01*
X44184048Y-29309841D01*
X44193934Y-29298934D01*
X44204841Y-29289048D01*
X44216664Y-29280280D01*
X44229290Y-29272712D01*
X44242597Y-29266418D01*
X44256457Y-29261459D01*
X44270736Y-29257882D01*
X44285297Y-29255722D01*
X44300000Y-29255000D01*
X44600000Y-29255000D01*
X44614703Y-29255722D01*
X44614703Y-29255722D01*
G37*
D15*
X44450000Y-29992500D03*
D12*
G36*
X43299703Y-31450722D02*
G01*
X43314264Y-31452882D01*
X43328543Y-31456459D01*
X43342403Y-31461418D01*
X43355710Y-31467712D01*
X43368336Y-31475280D01*
X43380159Y-31484048D01*
X43391066Y-31493934D01*
X43400952Y-31504841D01*
X43409720Y-31516664D01*
X43417288Y-31529290D01*
X43423582Y-31542597D01*
X43428541Y-31556457D01*
X43432118Y-31570736D01*
X43434278Y-31585297D01*
X43435000Y-31600000D01*
X43435000Y-31900000D01*
X43434278Y-31914703D01*
X43432118Y-31929264D01*
X43428541Y-31943543D01*
X43423582Y-31957403D01*
X43417288Y-31970710D01*
X43409720Y-31983336D01*
X43400952Y-31995159D01*
X43391066Y-32006066D01*
X43380159Y-32015952D01*
X43368336Y-32024720D01*
X43355710Y-32032288D01*
X43342403Y-32038582D01*
X43328543Y-32043541D01*
X43314264Y-32047118D01*
X43299703Y-32049278D01*
X43285000Y-32050000D01*
X42110000Y-32050000D01*
X42095297Y-32049278D01*
X42080736Y-32047118D01*
X42066457Y-32043541D01*
X42052597Y-32038582D01*
X42039290Y-32032288D01*
X42026664Y-32024720D01*
X42014841Y-32015952D01*
X42003934Y-32006066D01*
X41994048Y-31995159D01*
X41985280Y-31983336D01*
X41977712Y-31970710D01*
X41971418Y-31957403D01*
X41966459Y-31943543D01*
X41962882Y-31929264D01*
X41960722Y-31914703D01*
X41960000Y-31900000D01*
X41960000Y-31600000D01*
X41960722Y-31585297D01*
X41962882Y-31570736D01*
X41966459Y-31556457D01*
X41971418Y-31542597D01*
X41977712Y-31529290D01*
X41985280Y-31516664D01*
X41994048Y-31504841D01*
X42003934Y-31493934D01*
X42014841Y-31484048D01*
X42026664Y-31475280D01*
X42039290Y-31467712D01*
X42052597Y-31461418D01*
X42066457Y-31456459D01*
X42080736Y-31452882D01*
X42095297Y-31450722D01*
X42110000Y-31450000D01*
X43285000Y-31450000D01*
X43299703Y-31450722D01*
X43299703Y-31450722D01*
G37*
D15*
X42697500Y-31750000D03*
D12*
G36*
X43299703Y-32720722D02*
G01*
X43314264Y-32722882D01*
X43328543Y-32726459D01*
X43342403Y-32731418D01*
X43355710Y-32737712D01*
X43368336Y-32745280D01*
X43380159Y-32754048D01*
X43391066Y-32763934D01*
X43400952Y-32774841D01*
X43409720Y-32786664D01*
X43417288Y-32799290D01*
X43423582Y-32812597D01*
X43428541Y-32826457D01*
X43432118Y-32840736D01*
X43434278Y-32855297D01*
X43435000Y-32870000D01*
X43435000Y-33170000D01*
X43434278Y-33184703D01*
X43432118Y-33199264D01*
X43428541Y-33213543D01*
X43423582Y-33227403D01*
X43417288Y-33240710D01*
X43409720Y-33253336D01*
X43400952Y-33265159D01*
X43391066Y-33276066D01*
X43380159Y-33285952D01*
X43368336Y-33294720D01*
X43355710Y-33302288D01*
X43342403Y-33308582D01*
X43328543Y-33313541D01*
X43314264Y-33317118D01*
X43299703Y-33319278D01*
X43285000Y-33320000D01*
X42110000Y-33320000D01*
X42095297Y-33319278D01*
X42080736Y-33317118D01*
X42066457Y-33313541D01*
X42052597Y-33308582D01*
X42039290Y-33302288D01*
X42026664Y-33294720D01*
X42014841Y-33285952D01*
X42003934Y-33276066D01*
X41994048Y-33265159D01*
X41985280Y-33253336D01*
X41977712Y-33240710D01*
X41971418Y-33227403D01*
X41966459Y-33213543D01*
X41962882Y-33199264D01*
X41960722Y-33184703D01*
X41960000Y-33170000D01*
X41960000Y-32870000D01*
X41960722Y-32855297D01*
X41962882Y-32840736D01*
X41966459Y-32826457D01*
X41971418Y-32812597D01*
X41977712Y-32799290D01*
X41985280Y-32786664D01*
X41994048Y-32774841D01*
X42003934Y-32763934D01*
X42014841Y-32754048D01*
X42026664Y-32745280D01*
X42039290Y-32737712D01*
X42052597Y-32731418D01*
X42066457Y-32726459D01*
X42080736Y-32722882D01*
X42095297Y-32720722D01*
X42110000Y-32720000D01*
X43285000Y-32720000D01*
X43299703Y-32720722D01*
X43299703Y-32720722D01*
G37*
D15*
X42697500Y-33020000D03*
D12*
G36*
X43299703Y-33990722D02*
G01*
X43314264Y-33992882D01*
X43328543Y-33996459D01*
X43342403Y-34001418D01*
X43355710Y-34007712D01*
X43368336Y-34015280D01*
X43380159Y-34024048D01*
X43391066Y-34033934D01*
X43400952Y-34044841D01*
X43409720Y-34056664D01*
X43417288Y-34069290D01*
X43423582Y-34082597D01*
X43428541Y-34096457D01*
X43432118Y-34110736D01*
X43434278Y-34125297D01*
X43435000Y-34140000D01*
X43435000Y-34440000D01*
X43434278Y-34454703D01*
X43432118Y-34469264D01*
X43428541Y-34483543D01*
X43423582Y-34497403D01*
X43417288Y-34510710D01*
X43409720Y-34523336D01*
X43400952Y-34535159D01*
X43391066Y-34546066D01*
X43380159Y-34555952D01*
X43368336Y-34564720D01*
X43355710Y-34572288D01*
X43342403Y-34578582D01*
X43328543Y-34583541D01*
X43314264Y-34587118D01*
X43299703Y-34589278D01*
X43285000Y-34590000D01*
X42110000Y-34590000D01*
X42095297Y-34589278D01*
X42080736Y-34587118D01*
X42066457Y-34583541D01*
X42052597Y-34578582D01*
X42039290Y-34572288D01*
X42026664Y-34564720D01*
X42014841Y-34555952D01*
X42003934Y-34546066D01*
X41994048Y-34535159D01*
X41985280Y-34523336D01*
X41977712Y-34510710D01*
X41971418Y-34497403D01*
X41966459Y-34483543D01*
X41962882Y-34469264D01*
X41960722Y-34454703D01*
X41960000Y-34440000D01*
X41960000Y-34140000D01*
X41960722Y-34125297D01*
X41962882Y-34110736D01*
X41966459Y-34096457D01*
X41971418Y-34082597D01*
X41977712Y-34069290D01*
X41985280Y-34056664D01*
X41994048Y-34044841D01*
X42003934Y-34033934D01*
X42014841Y-34024048D01*
X42026664Y-34015280D01*
X42039290Y-34007712D01*
X42052597Y-34001418D01*
X42066457Y-33996459D01*
X42080736Y-33992882D01*
X42095297Y-33990722D01*
X42110000Y-33990000D01*
X43285000Y-33990000D01*
X43299703Y-33990722D01*
X43299703Y-33990722D01*
G37*
D15*
X42697500Y-34290000D03*
D12*
G36*
X43299703Y-35260722D02*
G01*
X43314264Y-35262882D01*
X43328543Y-35266459D01*
X43342403Y-35271418D01*
X43355710Y-35277712D01*
X43368336Y-35285280D01*
X43380159Y-35294048D01*
X43391066Y-35303934D01*
X43400952Y-35314841D01*
X43409720Y-35326664D01*
X43417288Y-35339290D01*
X43423582Y-35352597D01*
X43428541Y-35366457D01*
X43432118Y-35380736D01*
X43434278Y-35395297D01*
X43435000Y-35410000D01*
X43435000Y-35710000D01*
X43434278Y-35724703D01*
X43432118Y-35739264D01*
X43428541Y-35753543D01*
X43423582Y-35767403D01*
X43417288Y-35780710D01*
X43409720Y-35793336D01*
X43400952Y-35805159D01*
X43391066Y-35816066D01*
X43380159Y-35825952D01*
X43368336Y-35834720D01*
X43355710Y-35842288D01*
X43342403Y-35848582D01*
X43328543Y-35853541D01*
X43314264Y-35857118D01*
X43299703Y-35859278D01*
X43285000Y-35860000D01*
X42110000Y-35860000D01*
X42095297Y-35859278D01*
X42080736Y-35857118D01*
X42066457Y-35853541D01*
X42052597Y-35848582D01*
X42039290Y-35842288D01*
X42026664Y-35834720D01*
X42014841Y-35825952D01*
X42003934Y-35816066D01*
X41994048Y-35805159D01*
X41985280Y-35793336D01*
X41977712Y-35780710D01*
X41971418Y-35767403D01*
X41966459Y-35753543D01*
X41962882Y-35739264D01*
X41960722Y-35724703D01*
X41960000Y-35710000D01*
X41960000Y-35410000D01*
X41960722Y-35395297D01*
X41962882Y-35380736D01*
X41966459Y-35366457D01*
X41971418Y-35352597D01*
X41977712Y-35339290D01*
X41985280Y-35326664D01*
X41994048Y-35314841D01*
X42003934Y-35303934D01*
X42014841Y-35294048D01*
X42026664Y-35285280D01*
X42039290Y-35277712D01*
X42052597Y-35271418D01*
X42066457Y-35266459D01*
X42080736Y-35262882D01*
X42095297Y-35260722D01*
X42110000Y-35260000D01*
X43285000Y-35260000D01*
X43299703Y-35260722D01*
X43299703Y-35260722D01*
G37*
D15*
X42697500Y-35560000D03*
D12*
G36*
X43299703Y-36530722D02*
G01*
X43314264Y-36532882D01*
X43328543Y-36536459D01*
X43342403Y-36541418D01*
X43355710Y-36547712D01*
X43368336Y-36555280D01*
X43380159Y-36564048D01*
X43391066Y-36573934D01*
X43400952Y-36584841D01*
X43409720Y-36596664D01*
X43417288Y-36609290D01*
X43423582Y-36622597D01*
X43428541Y-36636457D01*
X43432118Y-36650736D01*
X43434278Y-36665297D01*
X43435000Y-36680000D01*
X43435000Y-36980000D01*
X43434278Y-36994703D01*
X43432118Y-37009264D01*
X43428541Y-37023543D01*
X43423582Y-37037403D01*
X43417288Y-37050710D01*
X43409720Y-37063336D01*
X43400952Y-37075159D01*
X43391066Y-37086066D01*
X43380159Y-37095952D01*
X43368336Y-37104720D01*
X43355710Y-37112288D01*
X43342403Y-37118582D01*
X43328543Y-37123541D01*
X43314264Y-37127118D01*
X43299703Y-37129278D01*
X43285000Y-37130000D01*
X42110000Y-37130000D01*
X42095297Y-37129278D01*
X42080736Y-37127118D01*
X42066457Y-37123541D01*
X42052597Y-37118582D01*
X42039290Y-37112288D01*
X42026664Y-37104720D01*
X42014841Y-37095952D01*
X42003934Y-37086066D01*
X41994048Y-37075159D01*
X41985280Y-37063336D01*
X41977712Y-37050710D01*
X41971418Y-37037403D01*
X41966459Y-37023543D01*
X41962882Y-37009264D01*
X41960722Y-36994703D01*
X41960000Y-36980000D01*
X41960000Y-36680000D01*
X41960722Y-36665297D01*
X41962882Y-36650736D01*
X41966459Y-36636457D01*
X41971418Y-36622597D01*
X41977712Y-36609290D01*
X41985280Y-36596664D01*
X41994048Y-36584841D01*
X42003934Y-36573934D01*
X42014841Y-36564048D01*
X42026664Y-36555280D01*
X42039290Y-36547712D01*
X42052597Y-36541418D01*
X42066457Y-36536459D01*
X42080736Y-36532882D01*
X42095297Y-36530722D01*
X42110000Y-36530000D01*
X43285000Y-36530000D01*
X43299703Y-36530722D01*
X43299703Y-36530722D01*
G37*
D15*
X42697500Y-36830000D03*
D12*
G36*
X43299703Y-37800722D02*
G01*
X43314264Y-37802882D01*
X43328543Y-37806459D01*
X43342403Y-37811418D01*
X43355710Y-37817712D01*
X43368336Y-37825280D01*
X43380159Y-37834048D01*
X43391066Y-37843934D01*
X43400952Y-37854841D01*
X43409720Y-37866664D01*
X43417288Y-37879290D01*
X43423582Y-37892597D01*
X43428541Y-37906457D01*
X43432118Y-37920736D01*
X43434278Y-37935297D01*
X43435000Y-37950000D01*
X43435000Y-38250000D01*
X43434278Y-38264703D01*
X43432118Y-38279264D01*
X43428541Y-38293543D01*
X43423582Y-38307403D01*
X43417288Y-38320710D01*
X43409720Y-38333336D01*
X43400952Y-38345159D01*
X43391066Y-38356066D01*
X43380159Y-38365952D01*
X43368336Y-38374720D01*
X43355710Y-38382288D01*
X43342403Y-38388582D01*
X43328543Y-38393541D01*
X43314264Y-38397118D01*
X43299703Y-38399278D01*
X43285000Y-38400000D01*
X42110000Y-38400000D01*
X42095297Y-38399278D01*
X42080736Y-38397118D01*
X42066457Y-38393541D01*
X42052597Y-38388582D01*
X42039290Y-38382288D01*
X42026664Y-38374720D01*
X42014841Y-38365952D01*
X42003934Y-38356066D01*
X41994048Y-38345159D01*
X41985280Y-38333336D01*
X41977712Y-38320710D01*
X41971418Y-38307403D01*
X41966459Y-38293543D01*
X41962882Y-38279264D01*
X41960722Y-38264703D01*
X41960000Y-38250000D01*
X41960000Y-37950000D01*
X41960722Y-37935297D01*
X41962882Y-37920736D01*
X41966459Y-37906457D01*
X41971418Y-37892597D01*
X41977712Y-37879290D01*
X41985280Y-37866664D01*
X41994048Y-37854841D01*
X42003934Y-37843934D01*
X42014841Y-37834048D01*
X42026664Y-37825280D01*
X42039290Y-37817712D01*
X42052597Y-37811418D01*
X42066457Y-37806459D01*
X42080736Y-37802882D01*
X42095297Y-37800722D01*
X42110000Y-37800000D01*
X43285000Y-37800000D01*
X43299703Y-37800722D01*
X43299703Y-37800722D01*
G37*
D15*
X42697500Y-38100000D03*
D12*
G36*
X43299703Y-39070722D02*
G01*
X43314264Y-39072882D01*
X43328543Y-39076459D01*
X43342403Y-39081418D01*
X43355710Y-39087712D01*
X43368336Y-39095280D01*
X43380159Y-39104048D01*
X43391066Y-39113934D01*
X43400952Y-39124841D01*
X43409720Y-39136664D01*
X43417288Y-39149290D01*
X43423582Y-39162597D01*
X43428541Y-39176457D01*
X43432118Y-39190736D01*
X43434278Y-39205297D01*
X43435000Y-39220000D01*
X43435000Y-39520000D01*
X43434278Y-39534703D01*
X43432118Y-39549264D01*
X43428541Y-39563543D01*
X43423582Y-39577403D01*
X43417288Y-39590710D01*
X43409720Y-39603336D01*
X43400952Y-39615159D01*
X43391066Y-39626066D01*
X43380159Y-39635952D01*
X43368336Y-39644720D01*
X43355710Y-39652288D01*
X43342403Y-39658582D01*
X43328543Y-39663541D01*
X43314264Y-39667118D01*
X43299703Y-39669278D01*
X43285000Y-39670000D01*
X42110000Y-39670000D01*
X42095297Y-39669278D01*
X42080736Y-39667118D01*
X42066457Y-39663541D01*
X42052597Y-39658582D01*
X42039290Y-39652288D01*
X42026664Y-39644720D01*
X42014841Y-39635952D01*
X42003934Y-39626066D01*
X41994048Y-39615159D01*
X41985280Y-39603336D01*
X41977712Y-39590710D01*
X41971418Y-39577403D01*
X41966459Y-39563543D01*
X41962882Y-39549264D01*
X41960722Y-39534703D01*
X41960000Y-39520000D01*
X41960000Y-39220000D01*
X41960722Y-39205297D01*
X41962882Y-39190736D01*
X41966459Y-39176457D01*
X41971418Y-39162597D01*
X41977712Y-39149290D01*
X41985280Y-39136664D01*
X41994048Y-39124841D01*
X42003934Y-39113934D01*
X42014841Y-39104048D01*
X42026664Y-39095280D01*
X42039290Y-39087712D01*
X42052597Y-39081418D01*
X42066457Y-39076459D01*
X42080736Y-39072882D01*
X42095297Y-39070722D01*
X42110000Y-39070000D01*
X43285000Y-39070000D01*
X43299703Y-39070722D01*
X43299703Y-39070722D01*
G37*
D15*
X42697500Y-39370000D03*
D12*
G36*
X43299703Y-40340722D02*
G01*
X43314264Y-40342882D01*
X43328543Y-40346459D01*
X43342403Y-40351418D01*
X43355710Y-40357712D01*
X43368336Y-40365280D01*
X43380159Y-40374048D01*
X43391066Y-40383934D01*
X43400952Y-40394841D01*
X43409720Y-40406664D01*
X43417288Y-40419290D01*
X43423582Y-40432597D01*
X43428541Y-40446457D01*
X43432118Y-40460736D01*
X43434278Y-40475297D01*
X43435000Y-40490000D01*
X43435000Y-40790000D01*
X43434278Y-40804703D01*
X43432118Y-40819264D01*
X43428541Y-40833543D01*
X43423582Y-40847403D01*
X43417288Y-40860710D01*
X43409720Y-40873336D01*
X43400952Y-40885159D01*
X43391066Y-40896066D01*
X43380159Y-40905952D01*
X43368336Y-40914720D01*
X43355710Y-40922288D01*
X43342403Y-40928582D01*
X43328543Y-40933541D01*
X43314264Y-40937118D01*
X43299703Y-40939278D01*
X43285000Y-40940000D01*
X42110000Y-40940000D01*
X42095297Y-40939278D01*
X42080736Y-40937118D01*
X42066457Y-40933541D01*
X42052597Y-40928582D01*
X42039290Y-40922288D01*
X42026664Y-40914720D01*
X42014841Y-40905952D01*
X42003934Y-40896066D01*
X41994048Y-40885159D01*
X41985280Y-40873336D01*
X41977712Y-40860710D01*
X41971418Y-40847403D01*
X41966459Y-40833543D01*
X41962882Y-40819264D01*
X41960722Y-40804703D01*
X41960000Y-40790000D01*
X41960000Y-40490000D01*
X41960722Y-40475297D01*
X41962882Y-40460736D01*
X41966459Y-40446457D01*
X41971418Y-40432597D01*
X41977712Y-40419290D01*
X41985280Y-40406664D01*
X41994048Y-40394841D01*
X42003934Y-40383934D01*
X42014841Y-40374048D01*
X42026664Y-40365280D01*
X42039290Y-40357712D01*
X42052597Y-40351418D01*
X42066457Y-40346459D01*
X42080736Y-40342882D01*
X42095297Y-40340722D01*
X42110000Y-40340000D01*
X43285000Y-40340000D01*
X43299703Y-40340722D01*
X43299703Y-40340722D01*
G37*
D15*
X42697500Y-40640000D03*
D12*
G36*
X43299703Y-41610722D02*
G01*
X43314264Y-41612882D01*
X43328543Y-41616459D01*
X43342403Y-41621418D01*
X43355710Y-41627712D01*
X43368336Y-41635280D01*
X43380159Y-41644048D01*
X43391066Y-41653934D01*
X43400952Y-41664841D01*
X43409720Y-41676664D01*
X43417288Y-41689290D01*
X43423582Y-41702597D01*
X43428541Y-41716457D01*
X43432118Y-41730736D01*
X43434278Y-41745297D01*
X43435000Y-41760000D01*
X43435000Y-42060000D01*
X43434278Y-42074703D01*
X43432118Y-42089264D01*
X43428541Y-42103543D01*
X43423582Y-42117403D01*
X43417288Y-42130710D01*
X43409720Y-42143336D01*
X43400952Y-42155159D01*
X43391066Y-42166066D01*
X43380159Y-42175952D01*
X43368336Y-42184720D01*
X43355710Y-42192288D01*
X43342403Y-42198582D01*
X43328543Y-42203541D01*
X43314264Y-42207118D01*
X43299703Y-42209278D01*
X43285000Y-42210000D01*
X42110000Y-42210000D01*
X42095297Y-42209278D01*
X42080736Y-42207118D01*
X42066457Y-42203541D01*
X42052597Y-42198582D01*
X42039290Y-42192288D01*
X42026664Y-42184720D01*
X42014841Y-42175952D01*
X42003934Y-42166066D01*
X41994048Y-42155159D01*
X41985280Y-42143336D01*
X41977712Y-42130710D01*
X41971418Y-42117403D01*
X41966459Y-42103543D01*
X41962882Y-42089264D01*
X41960722Y-42074703D01*
X41960000Y-42060000D01*
X41960000Y-41760000D01*
X41960722Y-41745297D01*
X41962882Y-41730736D01*
X41966459Y-41716457D01*
X41971418Y-41702597D01*
X41977712Y-41689290D01*
X41985280Y-41676664D01*
X41994048Y-41664841D01*
X42003934Y-41653934D01*
X42014841Y-41644048D01*
X42026664Y-41635280D01*
X42039290Y-41627712D01*
X42052597Y-41621418D01*
X42066457Y-41616459D01*
X42080736Y-41612882D01*
X42095297Y-41610722D01*
X42110000Y-41610000D01*
X43285000Y-41610000D01*
X43299703Y-41610722D01*
X43299703Y-41610722D01*
G37*
D15*
X42697500Y-41910000D03*
D12*
G36*
X44614703Y-42930722D02*
G01*
X44629264Y-42932882D01*
X44643543Y-42936459D01*
X44657403Y-42941418D01*
X44670710Y-42947712D01*
X44683336Y-42955280D01*
X44695159Y-42964048D01*
X44706066Y-42973934D01*
X44715952Y-42984841D01*
X44724720Y-42996664D01*
X44732288Y-43009290D01*
X44738582Y-43022597D01*
X44743541Y-43036457D01*
X44747118Y-43050736D01*
X44749278Y-43065297D01*
X44750000Y-43080000D01*
X44750000Y-44255000D01*
X44749278Y-44269703D01*
X44747118Y-44284264D01*
X44743541Y-44298543D01*
X44738582Y-44312403D01*
X44732288Y-44325710D01*
X44724720Y-44338336D01*
X44715952Y-44350159D01*
X44706066Y-44361066D01*
X44695159Y-44370952D01*
X44683336Y-44379720D01*
X44670710Y-44387288D01*
X44657403Y-44393582D01*
X44643543Y-44398541D01*
X44629264Y-44402118D01*
X44614703Y-44404278D01*
X44600000Y-44405000D01*
X44300000Y-44405000D01*
X44285297Y-44404278D01*
X44270736Y-44402118D01*
X44256457Y-44398541D01*
X44242597Y-44393582D01*
X44229290Y-44387288D01*
X44216664Y-44379720D01*
X44204841Y-44370952D01*
X44193934Y-44361066D01*
X44184048Y-44350159D01*
X44175280Y-44338336D01*
X44167712Y-44325710D01*
X44161418Y-44312403D01*
X44156459Y-44298543D01*
X44152882Y-44284264D01*
X44150722Y-44269703D01*
X44150000Y-44255000D01*
X44150000Y-43080000D01*
X44150722Y-43065297D01*
X44152882Y-43050736D01*
X44156459Y-43036457D01*
X44161418Y-43022597D01*
X44167712Y-43009290D01*
X44175280Y-42996664D01*
X44184048Y-42984841D01*
X44193934Y-42973934D01*
X44204841Y-42964048D01*
X44216664Y-42955280D01*
X44229290Y-42947712D01*
X44242597Y-42941418D01*
X44256457Y-42936459D01*
X44270736Y-42932882D01*
X44285297Y-42930722D01*
X44300000Y-42930000D01*
X44600000Y-42930000D01*
X44614703Y-42930722D01*
X44614703Y-42930722D01*
G37*
D15*
X44450000Y-43667500D03*
D12*
G36*
X45884703Y-42930722D02*
G01*
X45899264Y-42932882D01*
X45913543Y-42936459D01*
X45927403Y-42941418D01*
X45940710Y-42947712D01*
X45953336Y-42955280D01*
X45965159Y-42964048D01*
X45976066Y-42973934D01*
X45985952Y-42984841D01*
X45994720Y-42996664D01*
X46002288Y-43009290D01*
X46008582Y-43022597D01*
X46013541Y-43036457D01*
X46017118Y-43050736D01*
X46019278Y-43065297D01*
X46020000Y-43080000D01*
X46020000Y-44255000D01*
X46019278Y-44269703D01*
X46017118Y-44284264D01*
X46013541Y-44298543D01*
X46008582Y-44312403D01*
X46002288Y-44325710D01*
X45994720Y-44338336D01*
X45985952Y-44350159D01*
X45976066Y-44361066D01*
X45965159Y-44370952D01*
X45953336Y-44379720D01*
X45940710Y-44387288D01*
X45927403Y-44393582D01*
X45913543Y-44398541D01*
X45899264Y-44402118D01*
X45884703Y-44404278D01*
X45870000Y-44405000D01*
X45570000Y-44405000D01*
X45555297Y-44404278D01*
X45540736Y-44402118D01*
X45526457Y-44398541D01*
X45512597Y-44393582D01*
X45499290Y-44387288D01*
X45486664Y-44379720D01*
X45474841Y-44370952D01*
X45463934Y-44361066D01*
X45454048Y-44350159D01*
X45445280Y-44338336D01*
X45437712Y-44325710D01*
X45431418Y-44312403D01*
X45426459Y-44298543D01*
X45422882Y-44284264D01*
X45420722Y-44269703D01*
X45420000Y-44255000D01*
X45420000Y-43080000D01*
X45420722Y-43065297D01*
X45422882Y-43050736D01*
X45426459Y-43036457D01*
X45431418Y-43022597D01*
X45437712Y-43009290D01*
X45445280Y-42996664D01*
X45454048Y-42984841D01*
X45463934Y-42973934D01*
X45474841Y-42964048D01*
X45486664Y-42955280D01*
X45499290Y-42947712D01*
X45512597Y-42941418D01*
X45526457Y-42936459D01*
X45540736Y-42932882D01*
X45555297Y-42930722D01*
X45570000Y-42930000D01*
X45870000Y-42930000D01*
X45884703Y-42930722D01*
X45884703Y-42930722D01*
G37*
D15*
X45720000Y-43667500D03*
D12*
G36*
X47154703Y-42930722D02*
G01*
X47169264Y-42932882D01*
X47183543Y-42936459D01*
X47197403Y-42941418D01*
X47210710Y-42947712D01*
X47223336Y-42955280D01*
X47235159Y-42964048D01*
X47246066Y-42973934D01*
X47255952Y-42984841D01*
X47264720Y-42996664D01*
X47272288Y-43009290D01*
X47278582Y-43022597D01*
X47283541Y-43036457D01*
X47287118Y-43050736D01*
X47289278Y-43065297D01*
X47290000Y-43080000D01*
X47290000Y-44255000D01*
X47289278Y-44269703D01*
X47287118Y-44284264D01*
X47283541Y-44298543D01*
X47278582Y-44312403D01*
X47272288Y-44325710D01*
X47264720Y-44338336D01*
X47255952Y-44350159D01*
X47246066Y-44361066D01*
X47235159Y-44370952D01*
X47223336Y-44379720D01*
X47210710Y-44387288D01*
X47197403Y-44393582D01*
X47183543Y-44398541D01*
X47169264Y-44402118D01*
X47154703Y-44404278D01*
X47140000Y-44405000D01*
X46840000Y-44405000D01*
X46825297Y-44404278D01*
X46810736Y-44402118D01*
X46796457Y-44398541D01*
X46782597Y-44393582D01*
X46769290Y-44387288D01*
X46756664Y-44379720D01*
X46744841Y-44370952D01*
X46733934Y-44361066D01*
X46724048Y-44350159D01*
X46715280Y-44338336D01*
X46707712Y-44325710D01*
X46701418Y-44312403D01*
X46696459Y-44298543D01*
X46692882Y-44284264D01*
X46690722Y-44269703D01*
X46690000Y-44255000D01*
X46690000Y-43080000D01*
X46690722Y-43065297D01*
X46692882Y-43050736D01*
X46696459Y-43036457D01*
X46701418Y-43022597D01*
X46707712Y-43009290D01*
X46715280Y-42996664D01*
X46724048Y-42984841D01*
X46733934Y-42973934D01*
X46744841Y-42964048D01*
X46756664Y-42955280D01*
X46769290Y-42947712D01*
X46782597Y-42941418D01*
X46796457Y-42936459D01*
X46810736Y-42932882D01*
X46825297Y-42930722D01*
X46840000Y-42930000D01*
X47140000Y-42930000D01*
X47154703Y-42930722D01*
X47154703Y-42930722D01*
G37*
D15*
X46990000Y-43667500D03*
D12*
G36*
X48424703Y-42930722D02*
G01*
X48439264Y-42932882D01*
X48453543Y-42936459D01*
X48467403Y-42941418D01*
X48480710Y-42947712D01*
X48493336Y-42955280D01*
X48505159Y-42964048D01*
X48516066Y-42973934D01*
X48525952Y-42984841D01*
X48534720Y-42996664D01*
X48542288Y-43009290D01*
X48548582Y-43022597D01*
X48553541Y-43036457D01*
X48557118Y-43050736D01*
X48559278Y-43065297D01*
X48560000Y-43080000D01*
X48560000Y-44255000D01*
X48559278Y-44269703D01*
X48557118Y-44284264D01*
X48553541Y-44298543D01*
X48548582Y-44312403D01*
X48542288Y-44325710D01*
X48534720Y-44338336D01*
X48525952Y-44350159D01*
X48516066Y-44361066D01*
X48505159Y-44370952D01*
X48493336Y-44379720D01*
X48480710Y-44387288D01*
X48467403Y-44393582D01*
X48453543Y-44398541D01*
X48439264Y-44402118D01*
X48424703Y-44404278D01*
X48410000Y-44405000D01*
X48110000Y-44405000D01*
X48095297Y-44404278D01*
X48080736Y-44402118D01*
X48066457Y-44398541D01*
X48052597Y-44393582D01*
X48039290Y-44387288D01*
X48026664Y-44379720D01*
X48014841Y-44370952D01*
X48003934Y-44361066D01*
X47994048Y-44350159D01*
X47985280Y-44338336D01*
X47977712Y-44325710D01*
X47971418Y-44312403D01*
X47966459Y-44298543D01*
X47962882Y-44284264D01*
X47960722Y-44269703D01*
X47960000Y-44255000D01*
X47960000Y-43080000D01*
X47960722Y-43065297D01*
X47962882Y-43050736D01*
X47966459Y-43036457D01*
X47971418Y-43022597D01*
X47977712Y-43009290D01*
X47985280Y-42996664D01*
X47994048Y-42984841D01*
X48003934Y-42973934D01*
X48014841Y-42964048D01*
X48026664Y-42955280D01*
X48039290Y-42947712D01*
X48052597Y-42941418D01*
X48066457Y-42936459D01*
X48080736Y-42932882D01*
X48095297Y-42930722D01*
X48110000Y-42930000D01*
X48410000Y-42930000D01*
X48424703Y-42930722D01*
X48424703Y-42930722D01*
G37*
D15*
X48260000Y-43667500D03*
D12*
G36*
X49694703Y-42930722D02*
G01*
X49709264Y-42932882D01*
X49723543Y-42936459D01*
X49737403Y-42941418D01*
X49750710Y-42947712D01*
X49763336Y-42955280D01*
X49775159Y-42964048D01*
X49786066Y-42973934D01*
X49795952Y-42984841D01*
X49804720Y-42996664D01*
X49812288Y-43009290D01*
X49818582Y-43022597D01*
X49823541Y-43036457D01*
X49827118Y-43050736D01*
X49829278Y-43065297D01*
X49830000Y-43080000D01*
X49830000Y-44255000D01*
X49829278Y-44269703D01*
X49827118Y-44284264D01*
X49823541Y-44298543D01*
X49818582Y-44312403D01*
X49812288Y-44325710D01*
X49804720Y-44338336D01*
X49795952Y-44350159D01*
X49786066Y-44361066D01*
X49775159Y-44370952D01*
X49763336Y-44379720D01*
X49750710Y-44387288D01*
X49737403Y-44393582D01*
X49723543Y-44398541D01*
X49709264Y-44402118D01*
X49694703Y-44404278D01*
X49680000Y-44405000D01*
X49380000Y-44405000D01*
X49365297Y-44404278D01*
X49350736Y-44402118D01*
X49336457Y-44398541D01*
X49322597Y-44393582D01*
X49309290Y-44387288D01*
X49296664Y-44379720D01*
X49284841Y-44370952D01*
X49273934Y-44361066D01*
X49264048Y-44350159D01*
X49255280Y-44338336D01*
X49247712Y-44325710D01*
X49241418Y-44312403D01*
X49236459Y-44298543D01*
X49232882Y-44284264D01*
X49230722Y-44269703D01*
X49230000Y-44255000D01*
X49230000Y-43080000D01*
X49230722Y-43065297D01*
X49232882Y-43050736D01*
X49236459Y-43036457D01*
X49241418Y-43022597D01*
X49247712Y-43009290D01*
X49255280Y-42996664D01*
X49264048Y-42984841D01*
X49273934Y-42973934D01*
X49284841Y-42964048D01*
X49296664Y-42955280D01*
X49309290Y-42947712D01*
X49322597Y-42941418D01*
X49336457Y-42936459D01*
X49350736Y-42932882D01*
X49365297Y-42930722D01*
X49380000Y-42930000D01*
X49680000Y-42930000D01*
X49694703Y-42930722D01*
X49694703Y-42930722D01*
G37*
D15*
X49530000Y-43667500D03*
D12*
G36*
X50964703Y-42930722D02*
G01*
X50979264Y-42932882D01*
X50993543Y-42936459D01*
X51007403Y-42941418D01*
X51020710Y-42947712D01*
X51033336Y-42955280D01*
X51045159Y-42964048D01*
X51056066Y-42973934D01*
X51065952Y-42984841D01*
X51074720Y-42996664D01*
X51082288Y-43009290D01*
X51088582Y-43022597D01*
X51093541Y-43036457D01*
X51097118Y-43050736D01*
X51099278Y-43065297D01*
X51100000Y-43080000D01*
X51100000Y-44255000D01*
X51099278Y-44269703D01*
X51097118Y-44284264D01*
X51093541Y-44298543D01*
X51088582Y-44312403D01*
X51082288Y-44325710D01*
X51074720Y-44338336D01*
X51065952Y-44350159D01*
X51056066Y-44361066D01*
X51045159Y-44370952D01*
X51033336Y-44379720D01*
X51020710Y-44387288D01*
X51007403Y-44393582D01*
X50993543Y-44398541D01*
X50979264Y-44402118D01*
X50964703Y-44404278D01*
X50950000Y-44405000D01*
X50650000Y-44405000D01*
X50635297Y-44404278D01*
X50620736Y-44402118D01*
X50606457Y-44398541D01*
X50592597Y-44393582D01*
X50579290Y-44387288D01*
X50566664Y-44379720D01*
X50554841Y-44370952D01*
X50543934Y-44361066D01*
X50534048Y-44350159D01*
X50525280Y-44338336D01*
X50517712Y-44325710D01*
X50511418Y-44312403D01*
X50506459Y-44298543D01*
X50502882Y-44284264D01*
X50500722Y-44269703D01*
X50500000Y-44255000D01*
X50500000Y-43080000D01*
X50500722Y-43065297D01*
X50502882Y-43050736D01*
X50506459Y-43036457D01*
X50511418Y-43022597D01*
X50517712Y-43009290D01*
X50525280Y-42996664D01*
X50534048Y-42984841D01*
X50543934Y-42973934D01*
X50554841Y-42964048D01*
X50566664Y-42955280D01*
X50579290Y-42947712D01*
X50592597Y-42941418D01*
X50606457Y-42936459D01*
X50620736Y-42932882D01*
X50635297Y-42930722D01*
X50650000Y-42930000D01*
X50950000Y-42930000D01*
X50964703Y-42930722D01*
X50964703Y-42930722D01*
G37*
D15*
X50800000Y-43667500D03*
D12*
G36*
X52234703Y-42930722D02*
G01*
X52249264Y-42932882D01*
X52263543Y-42936459D01*
X52277403Y-42941418D01*
X52290710Y-42947712D01*
X52303336Y-42955280D01*
X52315159Y-42964048D01*
X52326066Y-42973934D01*
X52335952Y-42984841D01*
X52344720Y-42996664D01*
X52352288Y-43009290D01*
X52358582Y-43022597D01*
X52363541Y-43036457D01*
X52367118Y-43050736D01*
X52369278Y-43065297D01*
X52370000Y-43080000D01*
X52370000Y-44255000D01*
X52369278Y-44269703D01*
X52367118Y-44284264D01*
X52363541Y-44298543D01*
X52358582Y-44312403D01*
X52352288Y-44325710D01*
X52344720Y-44338336D01*
X52335952Y-44350159D01*
X52326066Y-44361066D01*
X52315159Y-44370952D01*
X52303336Y-44379720D01*
X52290710Y-44387288D01*
X52277403Y-44393582D01*
X52263543Y-44398541D01*
X52249264Y-44402118D01*
X52234703Y-44404278D01*
X52220000Y-44405000D01*
X51920000Y-44405000D01*
X51905297Y-44404278D01*
X51890736Y-44402118D01*
X51876457Y-44398541D01*
X51862597Y-44393582D01*
X51849290Y-44387288D01*
X51836664Y-44379720D01*
X51824841Y-44370952D01*
X51813934Y-44361066D01*
X51804048Y-44350159D01*
X51795280Y-44338336D01*
X51787712Y-44325710D01*
X51781418Y-44312403D01*
X51776459Y-44298543D01*
X51772882Y-44284264D01*
X51770722Y-44269703D01*
X51770000Y-44255000D01*
X51770000Y-43080000D01*
X51770722Y-43065297D01*
X51772882Y-43050736D01*
X51776459Y-43036457D01*
X51781418Y-43022597D01*
X51787712Y-43009290D01*
X51795280Y-42996664D01*
X51804048Y-42984841D01*
X51813934Y-42973934D01*
X51824841Y-42964048D01*
X51836664Y-42955280D01*
X51849290Y-42947712D01*
X51862597Y-42941418D01*
X51876457Y-42936459D01*
X51890736Y-42932882D01*
X51905297Y-42930722D01*
X51920000Y-42930000D01*
X52220000Y-42930000D01*
X52234703Y-42930722D01*
X52234703Y-42930722D01*
G37*
D15*
X52070000Y-43667500D03*
D12*
G36*
X54424703Y-41610722D02*
G01*
X54439264Y-41612882D01*
X54453543Y-41616459D01*
X54467403Y-41621418D01*
X54480710Y-41627712D01*
X54493336Y-41635280D01*
X54505159Y-41644048D01*
X54516066Y-41653934D01*
X54525952Y-41664841D01*
X54534720Y-41676664D01*
X54542288Y-41689290D01*
X54548582Y-41702597D01*
X54553541Y-41716457D01*
X54557118Y-41730736D01*
X54559278Y-41745297D01*
X54560000Y-41760000D01*
X54560000Y-42060000D01*
X54559278Y-42074703D01*
X54557118Y-42089264D01*
X54553541Y-42103543D01*
X54548582Y-42117403D01*
X54542288Y-42130710D01*
X54534720Y-42143336D01*
X54525952Y-42155159D01*
X54516066Y-42166066D01*
X54505159Y-42175952D01*
X54493336Y-42184720D01*
X54480710Y-42192288D01*
X54467403Y-42198582D01*
X54453543Y-42203541D01*
X54439264Y-42207118D01*
X54424703Y-42209278D01*
X54410000Y-42210000D01*
X53235000Y-42210000D01*
X53220297Y-42209278D01*
X53205736Y-42207118D01*
X53191457Y-42203541D01*
X53177597Y-42198582D01*
X53164290Y-42192288D01*
X53151664Y-42184720D01*
X53139841Y-42175952D01*
X53128934Y-42166066D01*
X53119048Y-42155159D01*
X53110280Y-42143336D01*
X53102712Y-42130710D01*
X53096418Y-42117403D01*
X53091459Y-42103543D01*
X53087882Y-42089264D01*
X53085722Y-42074703D01*
X53085000Y-42060000D01*
X53085000Y-41760000D01*
X53085722Y-41745297D01*
X53087882Y-41730736D01*
X53091459Y-41716457D01*
X53096418Y-41702597D01*
X53102712Y-41689290D01*
X53110280Y-41676664D01*
X53119048Y-41664841D01*
X53128934Y-41653934D01*
X53139841Y-41644048D01*
X53151664Y-41635280D01*
X53164290Y-41627712D01*
X53177597Y-41621418D01*
X53191457Y-41616459D01*
X53205736Y-41612882D01*
X53220297Y-41610722D01*
X53235000Y-41610000D01*
X54410000Y-41610000D01*
X54424703Y-41610722D01*
X54424703Y-41610722D01*
G37*
D15*
X53822500Y-41910000D03*
D12*
G36*
X54424703Y-40340722D02*
G01*
X54439264Y-40342882D01*
X54453543Y-40346459D01*
X54467403Y-40351418D01*
X54480710Y-40357712D01*
X54493336Y-40365280D01*
X54505159Y-40374048D01*
X54516066Y-40383934D01*
X54525952Y-40394841D01*
X54534720Y-40406664D01*
X54542288Y-40419290D01*
X54548582Y-40432597D01*
X54553541Y-40446457D01*
X54557118Y-40460736D01*
X54559278Y-40475297D01*
X54560000Y-40490000D01*
X54560000Y-40790000D01*
X54559278Y-40804703D01*
X54557118Y-40819264D01*
X54553541Y-40833543D01*
X54548582Y-40847403D01*
X54542288Y-40860710D01*
X54534720Y-40873336D01*
X54525952Y-40885159D01*
X54516066Y-40896066D01*
X54505159Y-40905952D01*
X54493336Y-40914720D01*
X54480710Y-40922288D01*
X54467403Y-40928582D01*
X54453543Y-40933541D01*
X54439264Y-40937118D01*
X54424703Y-40939278D01*
X54410000Y-40940000D01*
X53235000Y-40940000D01*
X53220297Y-40939278D01*
X53205736Y-40937118D01*
X53191457Y-40933541D01*
X53177597Y-40928582D01*
X53164290Y-40922288D01*
X53151664Y-40914720D01*
X53139841Y-40905952D01*
X53128934Y-40896066D01*
X53119048Y-40885159D01*
X53110280Y-40873336D01*
X53102712Y-40860710D01*
X53096418Y-40847403D01*
X53091459Y-40833543D01*
X53087882Y-40819264D01*
X53085722Y-40804703D01*
X53085000Y-40790000D01*
X53085000Y-40490000D01*
X53085722Y-40475297D01*
X53087882Y-40460736D01*
X53091459Y-40446457D01*
X53096418Y-40432597D01*
X53102712Y-40419290D01*
X53110280Y-40406664D01*
X53119048Y-40394841D01*
X53128934Y-40383934D01*
X53139841Y-40374048D01*
X53151664Y-40365280D01*
X53164290Y-40357712D01*
X53177597Y-40351418D01*
X53191457Y-40346459D01*
X53205736Y-40342882D01*
X53220297Y-40340722D01*
X53235000Y-40340000D01*
X54410000Y-40340000D01*
X54424703Y-40340722D01*
X54424703Y-40340722D01*
G37*
D15*
X53822500Y-40640000D03*
D12*
G36*
X54424703Y-39070722D02*
G01*
X54439264Y-39072882D01*
X54453543Y-39076459D01*
X54467403Y-39081418D01*
X54480710Y-39087712D01*
X54493336Y-39095280D01*
X54505159Y-39104048D01*
X54516066Y-39113934D01*
X54525952Y-39124841D01*
X54534720Y-39136664D01*
X54542288Y-39149290D01*
X54548582Y-39162597D01*
X54553541Y-39176457D01*
X54557118Y-39190736D01*
X54559278Y-39205297D01*
X54560000Y-39220000D01*
X54560000Y-39520000D01*
X54559278Y-39534703D01*
X54557118Y-39549264D01*
X54553541Y-39563543D01*
X54548582Y-39577403D01*
X54542288Y-39590710D01*
X54534720Y-39603336D01*
X54525952Y-39615159D01*
X54516066Y-39626066D01*
X54505159Y-39635952D01*
X54493336Y-39644720D01*
X54480710Y-39652288D01*
X54467403Y-39658582D01*
X54453543Y-39663541D01*
X54439264Y-39667118D01*
X54424703Y-39669278D01*
X54410000Y-39670000D01*
X53235000Y-39670000D01*
X53220297Y-39669278D01*
X53205736Y-39667118D01*
X53191457Y-39663541D01*
X53177597Y-39658582D01*
X53164290Y-39652288D01*
X53151664Y-39644720D01*
X53139841Y-39635952D01*
X53128934Y-39626066D01*
X53119048Y-39615159D01*
X53110280Y-39603336D01*
X53102712Y-39590710D01*
X53096418Y-39577403D01*
X53091459Y-39563543D01*
X53087882Y-39549264D01*
X53085722Y-39534703D01*
X53085000Y-39520000D01*
X53085000Y-39220000D01*
X53085722Y-39205297D01*
X53087882Y-39190736D01*
X53091459Y-39176457D01*
X53096418Y-39162597D01*
X53102712Y-39149290D01*
X53110280Y-39136664D01*
X53119048Y-39124841D01*
X53128934Y-39113934D01*
X53139841Y-39104048D01*
X53151664Y-39095280D01*
X53164290Y-39087712D01*
X53177597Y-39081418D01*
X53191457Y-39076459D01*
X53205736Y-39072882D01*
X53220297Y-39070722D01*
X53235000Y-39070000D01*
X54410000Y-39070000D01*
X54424703Y-39070722D01*
X54424703Y-39070722D01*
G37*
D15*
X53822500Y-39370000D03*
D12*
G36*
X54424703Y-37800722D02*
G01*
X54439264Y-37802882D01*
X54453543Y-37806459D01*
X54467403Y-37811418D01*
X54480710Y-37817712D01*
X54493336Y-37825280D01*
X54505159Y-37834048D01*
X54516066Y-37843934D01*
X54525952Y-37854841D01*
X54534720Y-37866664D01*
X54542288Y-37879290D01*
X54548582Y-37892597D01*
X54553541Y-37906457D01*
X54557118Y-37920736D01*
X54559278Y-37935297D01*
X54560000Y-37950000D01*
X54560000Y-38250000D01*
X54559278Y-38264703D01*
X54557118Y-38279264D01*
X54553541Y-38293543D01*
X54548582Y-38307403D01*
X54542288Y-38320710D01*
X54534720Y-38333336D01*
X54525952Y-38345159D01*
X54516066Y-38356066D01*
X54505159Y-38365952D01*
X54493336Y-38374720D01*
X54480710Y-38382288D01*
X54467403Y-38388582D01*
X54453543Y-38393541D01*
X54439264Y-38397118D01*
X54424703Y-38399278D01*
X54410000Y-38400000D01*
X53235000Y-38400000D01*
X53220297Y-38399278D01*
X53205736Y-38397118D01*
X53191457Y-38393541D01*
X53177597Y-38388582D01*
X53164290Y-38382288D01*
X53151664Y-38374720D01*
X53139841Y-38365952D01*
X53128934Y-38356066D01*
X53119048Y-38345159D01*
X53110280Y-38333336D01*
X53102712Y-38320710D01*
X53096418Y-38307403D01*
X53091459Y-38293543D01*
X53087882Y-38279264D01*
X53085722Y-38264703D01*
X53085000Y-38250000D01*
X53085000Y-37950000D01*
X53085722Y-37935297D01*
X53087882Y-37920736D01*
X53091459Y-37906457D01*
X53096418Y-37892597D01*
X53102712Y-37879290D01*
X53110280Y-37866664D01*
X53119048Y-37854841D01*
X53128934Y-37843934D01*
X53139841Y-37834048D01*
X53151664Y-37825280D01*
X53164290Y-37817712D01*
X53177597Y-37811418D01*
X53191457Y-37806459D01*
X53205736Y-37802882D01*
X53220297Y-37800722D01*
X53235000Y-37800000D01*
X54410000Y-37800000D01*
X54424703Y-37800722D01*
X54424703Y-37800722D01*
G37*
D15*
X53822500Y-38100000D03*
D12*
G36*
X54424703Y-36530722D02*
G01*
X54439264Y-36532882D01*
X54453543Y-36536459D01*
X54467403Y-36541418D01*
X54480710Y-36547712D01*
X54493336Y-36555280D01*
X54505159Y-36564048D01*
X54516066Y-36573934D01*
X54525952Y-36584841D01*
X54534720Y-36596664D01*
X54542288Y-36609290D01*
X54548582Y-36622597D01*
X54553541Y-36636457D01*
X54557118Y-36650736D01*
X54559278Y-36665297D01*
X54560000Y-36680000D01*
X54560000Y-36980000D01*
X54559278Y-36994703D01*
X54557118Y-37009264D01*
X54553541Y-37023543D01*
X54548582Y-37037403D01*
X54542288Y-37050710D01*
X54534720Y-37063336D01*
X54525952Y-37075159D01*
X54516066Y-37086066D01*
X54505159Y-37095952D01*
X54493336Y-37104720D01*
X54480710Y-37112288D01*
X54467403Y-37118582D01*
X54453543Y-37123541D01*
X54439264Y-37127118D01*
X54424703Y-37129278D01*
X54410000Y-37130000D01*
X53235000Y-37130000D01*
X53220297Y-37129278D01*
X53205736Y-37127118D01*
X53191457Y-37123541D01*
X53177597Y-37118582D01*
X53164290Y-37112288D01*
X53151664Y-37104720D01*
X53139841Y-37095952D01*
X53128934Y-37086066D01*
X53119048Y-37075159D01*
X53110280Y-37063336D01*
X53102712Y-37050710D01*
X53096418Y-37037403D01*
X53091459Y-37023543D01*
X53087882Y-37009264D01*
X53085722Y-36994703D01*
X53085000Y-36980000D01*
X53085000Y-36680000D01*
X53085722Y-36665297D01*
X53087882Y-36650736D01*
X53091459Y-36636457D01*
X53096418Y-36622597D01*
X53102712Y-36609290D01*
X53110280Y-36596664D01*
X53119048Y-36584841D01*
X53128934Y-36573934D01*
X53139841Y-36564048D01*
X53151664Y-36555280D01*
X53164290Y-36547712D01*
X53177597Y-36541418D01*
X53191457Y-36536459D01*
X53205736Y-36532882D01*
X53220297Y-36530722D01*
X53235000Y-36530000D01*
X54410000Y-36530000D01*
X54424703Y-36530722D01*
X54424703Y-36530722D01*
G37*
D15*
X53822500Y-36830000D03*
D12*
G36*
X54424703Y-35260722D02*
G01*
X54439264Y-35262882D01*
X54453543Y-35266459D01*
X54467403Y-35271418D01*
X54480710Y-35277712D01*
X54493336Y-35285280D01*
X54505159Y-35294048D01*
X54516066Y-35303934D01*
X54525952Y-35314841D01*
X54534720Y-35326664D01*
X54542288Y-35339290D01*
X54548582Y-35352597D01*
X54553541Y-35366457D01*
X54557118Y-35380736D01*
X54559278Y-35395297D01*
X54560000Y-35410000D01*
X54560000Y-35710000D01*
X54559278Y-35724703D01*
X54557118Y-35739264D01*
X54553541Y-35753543D01*
X54548582Y-35767403D01*
X54542288Y-35780710D01*
X54534720Y-35793336D01*
X54525952Y-35805159D01*
X54516066Y-35816066D01*
X54505159Y-35825952D01*
X54493336Y-35834720D01*
X54480710Y-35842288D01*
X54467403Y-35848582D01*
X54453543Y-35853541D01*
X54439264Y-35857118D01*
X54424703Y-35859278D01*
X54410000Y-35860000D01*
X53235000Y-35860000D01*
X53220297Y-35859278D01*
X53205736Y-35857118D01*
X53191457Y-35853541D01*
X53177597Y-35848582D01*
X53164290Y-35842288D01*
X53151664Y-35834720D01*
X53139841Y-35825952D01*
X53128934Y-35816066D01*
X53119048Y-35805159D01*
X53110280Y-35793336D01*
X53102712Y-35780710D01*
X53096418Y-35767403D01*
X53091459Y-35753543D01*
X53087882Y-35739264D01*
X53085722Y-35724703D01*
X53085000Y-35710000D01*
X53085000Y-35410000D01*
X53085722Y-35395297D01*
X53087882Y-35380736D01*
X53091459Y-35366457D01*
X53096418Y-35352597D01*
X53102712Y-35339290D01*
X53110280Y-35326664D01*
X53119048Y-35314841D01*
X53128934Y-35303934D01*
X53139841Y-35294048D01*
X53151664Y-35285280D01*
X53164290Y-35277712D01*
X53177597Y-35271418D01*
X53191457Y-35266459D01*
X53205736Y-35262882D01*
X53220297Y-35260722D01*
X53235000Y-35260000D01*
X54410000Y-35260000D01*
X54424703Y-35260722D01*
X54424703Y-35260722D01*
G37*
D15*
X53822500Y-35560000D03*
D12*
G36*
X54424703Y-33990722D02*
G01*
X54439264Y-33992882D01*
X54453543Y-33996459D01*
X54467403Y-34001418D01*
X54480710Y-34007712D01*
X54493336Y-34015280D01*
X54505159Y-34024048D01*
X54516066Y-34033934D01*
X54525952Y-34044841D01*
X54534720Y-34056664D01*
X54542288Y-34069290D01*
X54548582Y-34082597D01*
X54553541Y-34096457D01*
X54557118Y-34110736D01*
X54559278Y-34125297D01*
X54560000Y-34140000D01*
X54560000Y-34440000D01*
X54559278Y-34454703D01*
X54557118Y-34469264D01*
X54553541Y-34483543D01*
X54548582Y-34497403D01*
X54542288Y-34510710D01*
X54534720Y-34523336D01*
X54525952Y-34535159D01*
X54516066Y-34546066D01*
X54505159Y-34555952D01*
X54493336Y-34564720D01*
X54480710Y-34572288D01*
X54467403Y-34578582D01*
X54453543Y-34583541D01*
X54439264Y-34587118D01*
X54424703Y-34589278D01*
X54410000Y-34590000D01*
X53235000Y-34590000D01*
X53220297Y-34589278D01*
X53205736Y-34587118D01*
X53191457Y-34583541D01*
X53177597Y-34578582D01*
X53164290Y-34572288D01*
X53151664Y-34564720D01*
X53139841Y-34555952D01*
X53128934Y-34546066D01*
X53119048Y-34535159D01*
X53110280Y-34523336D01*
X53102712Y-34510710D01*
X53096418Y-34497403D01*
X53091459Y-34483543D01*
X53087882Y-34469264D01*
X53085722Y-34454703D01*
X53085000Y-34440000D01*
X53085000Y-34140000D01*
X53085722Y-34125297D01*
X53087882Y-34110736D01*
X53091459Y-34096457D01*
X53096418Y-34082597D01*
X53102712Y-34069290D01*
X53110280Y-34056664D01*
X53119048Y-34044841D01*
X53128934Y-34033934D01*
X53139841Y-34024048D01*
X53151664Y-34015280D01*
X53164290Y-34007712D01*
X53177597Y-34001418D01*
X53191457Y-33996459D01*
X53205736Y-33992882D01*
X53220297Y-33990722D01*
X53235000Y-33990000D01*
X54410000Y-33990000D01*
X54424703Y-33990722D01*
X54424703Y-33990722D01*
G37*
D15*
X53822500Y-34290000D03*
D12*
G36*
X54424703Y-32720722D02*
G01*
X54439264Y-32722882D01*
X54453543Y-32726459D01*
X54467403Y-32731418D01*
X54480710Y-32737712D01*
X54493336Y-32745280D01*
X54505159Y-32754048D01*
X54516066Y-32763934D01*
X54525952Y-32774841D01*
X54534720Y-32786664D01*
X54542288Y-32799290D01*
X54548582Y-32812597D01*
X54553541Y-32826457D01*
X54557118Y-32840736D01*
X54559278Y-32855297D01*
X54560000Y-32870000D01*
X54560000Y-33170000D01*
X54559278Y-33184703D01*
X54557118Y-33199264D01*
X54553541Y-33213543D01*
X54548582Y-33227403D01*
X54542288Y-33240710D01*
X54534720Y-33253336D01*
X54525952Y-33265159D01*
X54516066Y-33276066D01*
X54505159Y-33285952D01*
X54493336Y-33294720D01*
X54480710Y-33302288D01*
X54467403Y-33308582D01*
X54453543Y-33313541D01*
X54439264Y-33317118D01*
X54424703Y-33319278D01*
X54410000Y-33320000D01*
X53235000Y-33320000D01*
X53220297Y-33319278D01*
X53205736Y-33317118D01*
X53191457Y-33313541D01*
X53177597Y-33308582D01*
X53164290Y-33302288D01*
X53151664Y-33294720D01*
X53139841Y-33285952D01*
X53128934Y-33276066D01*
X53119048Y-33265159D01*
X53110280Y-33253336D01*
X53102712Y-33240710D01*
X53096418Y-33227403D01*
X53091459Y-33213543D01*
X53087882Y-33199264D01*
X53085722Y-33184703D01*
X53085000Y-33170000D01*
X53085000Y-32870000D01*
X53085722Y-32855297D01*
X53087882Y-32840736D01*
X53091459Y-32826457D01*
X53096418Y-32812597D01*
X53102712Y-32799290D01*
X53110280Y-32786664D01*
X53119048Y-32774841D01*
X53128934Y-32763934D01*
X53139841Y-32754048D01*
X53151664Y-32745280D01*
X53164290Y-32737712D01*
X53177597Y-32731418D01*
X53191457Y-32726459D01*
X53205736Y-32722882D01*
X53220297Y-32720722D01*
X53235000Y-32720000D01*
X54410000Y-32720000D01*
X54424703Y-32720722D01*
X54424703Y-32720722D01*
G37*
D15*
X53822500Y-33020000D03*
D12*
G36*
X54424703Y-31450722D02*
G01*
X54439264Y-31452882D01*
X54453543Y-31456459D01*
X54467403Y-31461418D01*
X54480710Y-31467712D01*
X54493336Y-31475280D01*
X54505159Y-31484048D01*
X54516066Y-31493934D01*
X54525952Y-31504841D01*
X54534720Y-31516664D01*
X54542288Y-31529290D01*
X54548582Y-31542597D01*
X54553541Y-31556457D01*
X54557118Y-31570736D01*
X54559278Y-31585297D01*
X54560000Y-31600000D01*
X54560000Y-31900000D01*
X54559278Y-31914703D01*
X54557118Y-31929264D01*
X54553541Y-31943543D01*
X54548582Y-31957403D01*
X54542288Y-31970710D01*
X54534720Y-31983336D01*
X54525952Y-31995159D01*
X54516066Y-32006066D01*
X54505159Y-32015952D01*
X54493336Y-32024720D01*
X54480710Y-32032288D01*
X54467403Y-32038582D01*
X54453543Y-32043541D01*
X54439264Y-32047118D01*
X54424703Y-32049278D01*
X54410000Y-32050000D01*
X53235000Y-32050000D01*
X53220297Y-32049278D01*
X53205736Y-32047118D01*
X53191457Y-32043541D01*
X53177597Y-32038582D01*
X53164290Y-32032288D01*
X53151664Y-32024720D01*
X53139841Y-32015952D01*
X53128934Y-32006066D01*
X53119048Y-31995159D01*
X53110280Y-31983336D01*
X53102712Y-31970710D01*
X53096418Y-31957403D01*
X53091459Y-31943543D01*
X53087882Y-31929264D01*
X53085722Y-31914703D01*
X53085000Y-31900000D01*
X53085000Y-31600000D01*
X53085722Y-31585297D01*
X53087882Y-31570736D01*
X53091459Y-31556457D01*
X53096418Y-31542597D01*
X53102712Y-31529290D01*
X53110280Y-31516664D01*
X53119048Y-31504841D01*
X53128934Y-31493934D01*
X53139841Y-31484048D01*
X53151664Y-31475280D01*
X53164290Y-31467712D01*
X53177597Y-31461418D01*
X53191457Y-31456459D01*
X53205736Y-31452882D01*
X53220297Y-31450722D01*
X53235000Y-31450000D01*
X54410000Y-31450000D01*
X54424703Y-31450722D01*
X54424703Y-31450722D01*
G37*
D15*
X53822500Y-31750000D03*
D12*
G36*
X52234703Y-29255722D02*
G01*
X52249264Y-29257882D01*
X52263543Y-29261459D01*
X52277403Y-29266418D01*
X52290710Y-29272712D01*
X52303336Y-29280280D01*
X52315159Y-29289048D01*
X52326066Y-29298934D01*
X52335952Y-29309841D01*
X52344720Y-29321664D01*
X52352288Y-29334290D01*
X52358582Y-29347597D01*
X52363541Y-29361457D01*
X52367118Y-29375736D01*
X52369278Y-29390297D01*
X52370000Y-29405000D01*
X52370000Y-30580000D01*
X52369278Y-30594703D01*
X52367118Y-30609264D01*
X52363541Y-30623543D01*
X52358582Y-30637403D01*
X52352288Y-30650710D01*
X52344720Y-30663336D01*
X52335952Y-30675159D01*
X52326066Y-30686066D01*
X52315159Y-30695952D01*
X52303336Y-30704720D01*
X52290710Y-30712288D01*
X52277403Y-30718582D01*
X52263543Y-30723541D01*
X52249264Y-30727118D01*
X52234703Y-30729278D01*
X52220000Y-30730000D01*
X51920000Y-30730000D01*
X51905297Y-30729278D01*
X51890736Y-30727118D01*
X51876457Y-30723541D01*
X51862597Y-30718582D01*
X51849290Y-30712288D01*
X51836664Y-30704720D01*
X51824841Y-30695952D01*
X51813934Y-30686066D01*
X51804048Y-30675159D01*
X51795280Y-30663336D01*
X51787712Y-30650710D01*
X51781418Y-30637403D01*
X51776459Y-30623543D01*
X51772882Y-30609264D01*
X51770722Y-30594703D01*
X51770000Y-30580000D01*
X51770000Y-29405000D01*
X51770722Y-29390297D01*
X51772882Y-29375736D01*
X51776459Y-29361457D01*
X51781418Y-29347597D01*
X51787712Y-29334290D01*
X51795280Y-29321664D01*
X51804048Y-29309841D01*
X51813934Y-29298934D01*
X51824841Y-29289048D01*
X51836664Y-29280280D01*
X51849290Y-29272712D01*
X51862597Y-29266418D01*
X51876457Y-29261459D01*
X51890736Y-29257882D01*
X51905297Y-29255722D01*
X51920000Y-29255000D01*
X52220000Y-29255000D01*
X52234703Y-29255722D01*
X52234703Y-29255722D01*
G37*
D15*
X52070000Y-29992500D03*
D12*
G36*
X50964703Y-29255722D02*
G01*
X50979264Y-29257882D01*
X50993543Y-29261459D01*
X51007403Y-29266418D01*
X51020710Y-29272712D01*
X51033336Y-29280280D01*
X51045159Y-29289048D01*
X51056066Y-29298934D01*
X51065952Y-29309841D01*
X51074720Y-29321664D01*
X51082288Y-29334290D01*
X51088582Y-29347597D01*
X51093541Y-29361457D01*
X51097118Y-29375736D01*
X51099278Y-29390297D01*
X51100000Y-29405000D01*
X51100000Y-30580000D01*
X51099278Y-30594703D01*
X51097118Y-30609264D01*
X51093541Y-30623543D01*
X51088582Y-30637403D01*
X51082288Y-30650710D01*
X51074720Y-30663336D01*
X51065952Y-30675159D01*
X51056066Y-30686066D01*
X51045159Y-30695952D01*
X51033336Y-30704720D01*
X51020710Y-30712288D01*
X51007403Y-30718582D01*
X50993543Y-30723541D01*
X50979264Y-30727118D01*
X50964703Y-30729278D01*
X50950000Y-30730000D01*
X50650000Y-30730000D01*
X50635297Y-30729278D01*
X50620736Y-30727118D01*
X50606457Y-30723541D01*
X50592597Y-30718582D01*
X50579290Y-30712288D01*
X50566664Y-30704720D01*
X50554841Y-30695952D01*
X50543934Y-30686066D01*
X50534048Y-30675159D01*
X50525280Y-30663336D01*
X50517712Y-30650710D01*
X50511418Y-30637403D01*
X50506459Y-30623543D01*
X50502882Y-30609264D01*
X50500722Y-30594703D01*
X50500000Y-30580000D01*
X50500000Y-29405000D01*
X50500722Y-29390297D01*
X50502882Y-29375736D01*
X50506459Y-29361457D01*
X50511418Y-29347597D01*
X50517712Y-29334290D01*
X50525280Y-29321664D01*
X50534048Y-29309841D01*
X50543934Y-29298934D01*
X50554841Y-29289048D01*
X50566664Y-29280280D01*
X50579290Y-29272712D01*
X50592597Y-29266418D01*
X50606457Y-29261459D01*
X50620736Y-29257882D01*
X50635297Y-29255722D01*
X50650000Y-29255000D01*
X50950000Y-29255000D01*
X50964703Y-29255722D01*
X50964703Y-29255722D01*
G37*
D15*
X50800000Y-29992500D03*
D12*
G36*
X49694703Y-29255722D02*
G01*
X49709264Y-29257882D01*
X49723543Y-29261459D01*
X49737403Y-29266418D01*
X49750710Y-29272712D01*
X49763336Y-29280280D01*
X49775159Y-29289048D01*
X49786066Y-29298934D01*
X49795952Y-29309841D01*
X49804720Y-29321664D01*
X49812288Y-29334290D01*
X49818582Y-29347597D01*
X49823541Y-29361457D01*
X49827118Y-29375736D01*
X49829278Y-29390297D01*
X49830000Y-29405000D01*
X49830000Y-30580000D01*
X49829278Y-30594703D01*
X49827118Y-30609264D01*
X49823541Y-30623543D01*
X49818582Y-30637403D01*
X49812288Y-30650710D01*
X49804720Y-30663336D01*
X49795952Y-30675159D01*
X49786066Y-30686066D01*
X49775159Y-30695952D01*
X49763336Y-30704720D01*
X49750710Y-30712288D01*
X49737403Y-30718582D01*
X49723543Y-30723541D01*
X49709264Y-30727118D01*
X49694703Y-30729278D01*
X49680000Y-30730000D01*
X49380000Y-30730000D01*
X49365297Y-30729278D01*
X49350736Y-30727118D01*
X49336457Y-30723541D01*
X49322597Y-30718582D01*
X49309290Y-30712288D01*
X49296664Y-30704720D01*
X49284841Y-30695952D01*
X49273934Y-30686066D01*
X49264048Y-30675159D01*
X49255280Y-30663336D01*
X49247712Y-30650710D01*
X49241418Y-30637403D01*
X49236459Y-30623543D01*
X49232882Y-30609264D01*
X49230722Y-30594703D01*
X49230000Y-30580000D01*
X49230000Y-29405000D01*
X49230722Y-29390297D01*
X49232882Y-29375736D01*
X49236459Y-29361457D01*
X49241418Y-29347597D01*
X49247712Y-29334290D01*
X49255280Y-29321664D01*
X49264048Y-29309841D01*
X49273934Y-29298934D01*
X49284841Y-29289048D01*
X49296664Y-29280280D01*
X49309290Y-29272712D01*
X49322597Y-29266418D01*
X49336457Y-29261459D01*
X49350736Y-29257882D01*
X49365297Y-29255722D01*
X49380000Y-29255000D01*
X49680000Y-29255000D01*
X49694703Y-29255722D01*
X49694703Y-29255722D01*
G37*
D15*
X49530000Y-29992500D03*
D12*
G36*
X46273329Y-48196023D02*
G01*
X46293957Y-48199083D01*
X46314185Y-48204150D01*
X46333820Y-48211176D01*
X46352672Y-48220092D01*
X46370559Y-48230813D01*
X46387309Y-48243235D01*
X46402760Y-48257240D01*
X46416765Y-48272691D01*
X46429187Y-48289441D01*
X46439908Y-48307328D01*
X46448824Y-48326180D01*
X46455850Y-48345815D01*
X46460917Y-48366043D01*
X46463977Y-48386671D01*
X46465000Y-48407500D01*
X46465000Y-49382500D01*
X46463977Y-49403329D01*
X46460917Y-49423957D01*
X46455850Y-49444185D01*
X46448824Y-49463820D01*
X46439908Y-49482672D01*
X46429187Y-49500559D01*
X46416765Y-49517309D01*
X46402760Y-49532760D01*
X46387309Y-49546765D01*
X46370559Y-49559187D01*
X46352672Y-49569908D01*
X46333820Y-49578824D01*
X46314185Y-49585850D01*
X46293957Y-49590917D01*
X46273329Y-49593977D01*
X46252500Y-49595000D01*
X45827500Y-49595000D01*
X45806671Y-49593977D01*
X45786043Y-49590917D01*
X45765815Y-49585850D01*
X45746180Y-49578824D01*
X45727328Y-49569908D01*
X45709441Y-49559187D01*
X45692691Y-49546765D01*
X45677240Y-49532760D01*
X45663235Y-49517309D01*
X45650813Y-49500559D01*
X45640092Y-49482672D01*
X45631176Y-49463820D01*
X45624150Y-49444185D01*
X45619083Y-49423957D01*
X45616023Y-49403329D01*
X45615000Y-49382500D01*
X45615000Y-48407500D01*
X45616023Y-48386671D01*
X45619083Y-48366043D01*
X45624150Y-48345815D01*
X45631176Y-48326180D01*
X45640092Y-48307328D01*
X45650813Y-48289441D01*
X45663235Y-48272691D01*
X45677240Y-48257240D01*
X45692691Y-48243235D01*
X45709441Y-48230813D01*
X45727328Y-48220092D01*
X45746180Y-48211176D01*
X45765815Y-48204150D01*
X45786043Y-48199083D01*
X45806671Y-48196023D01*
X45827500Y-48195000D01*
X46252500Y-48195000D01*
X46273329Y-48196023D01*
X46273329Y-48196023D01*
G37*
D13*
X46040000Y-48895000D03*
D12*
G36*
X48173329Y-48196023D02*
G01*
X48193957Y-48199083D01*
X48214185Y-48204150D01*
X48233820Y-48211176D01*
X48252672Y-48220092D01*
X48270559Y-48230813D01*
X48287309Y-48243235D01*
X48302760Y-48257240D01*
X48316765Y-48272691D01*
X48329187Y-48289441D01*
X48339908Y-48307328D01*
X48348824Y-48326180D01*
X48355850Y-48345815D01*
X48360917Y-48366043D01*
X48363977Y-48386671D01*
X48365000Y-48407500D01*
X48365000Y-49382500D01*
X48363977Y-49403329D01*
X48360917Y-49423957D01*
X48355850Y-49444185D01*
X48348824Y-49463820D01*
X48339908Y-49482672D01*
X48329187Y-49500559D01*
X48316765Y-49517309D01*
X48302760Y-49532760D01*
X48287309Y-49546765D01*
X48270559Y-49559187D01*
X48252672Y-49569908D01*
X48233820Y-49578824D01*
X48214185Y-49585850D01*
X48193957Y-49590917D01*
X48173329Y-49593977D01*
X48152500Y-49595000D01*
X47727500Y-49595000D01*
X47706671Y-49593977D01*
X47686043Y-49590917D01*
X47665815Y-49585850D01*
X47646180Y-49578824D01*
X47627328Y-49569908D01*
X47609441Y-49559187D01*
X47592691Y-49546765D01*
X47577240Y-49532760D01*
X47563235Y-49517309D01*
X47550813Y-49500559D01*
X47540092Y-49482672D01*
X47531176Y-49463820D01*
X47524150Y-49444185D01*
X47519083Y-49423957D01*
X47516023Y-49403329D01*
X47515000Y-49382500D01*
X47515000Y-48407500D01*
X47516023Y-48386671D01*
X47519083Y-48366043D01*
X47524150Y-48345815D01*
X47531176Y-48326180D01*
X47540092Y-48307328D01*
X47550813Y-48289441D01*
X47563235Y-48272691D01*
X47577240Y-48257240D01*
X47592691Y-48243235D01*
X47609441Y-48230813D01*
X47627328Y-48220092D01*
X47646180Y-48211176D01*
X47665815Y-48204150D01*
X47686043Y-48199083D01*
X47706671Y-48196023D01*
X47727500Y-48195000D01*
X48152500Y-48195000D01*
X48173329Y-48196023D01*
X48173329Y-48196023D01*
G37*
D13*
X47940000Y-48895000D03*
D16*
X47879000Y-25400000D03*
X46736000Y-26670000D03*
X47879000Y-27940000D03*
D15*
X46990000Y-42418000D03*
X46990000Y-44958000D03*
X48260000Y-31242000D03*
X52070000Y-31242000D03*
X52070000Y-28702000D03*
X48895000Y-48895000D03*
X53975000Y-50165000D03*
X53975000Y-46355000D03*
X51435000Y-40640000D03*
X43942000Y-35560000D03*
X52578000Y-34290000D03*
X43942000Y-33020000D03*
X43942000Y-34290000D03*
X43942000Y-40640000D03*
X52578000Y-35560000D03*
X52578000Y-33020000D03*
X49784000Y-36449000D03*
D17*
X49530000Y-29992500D02*
X49530000Y-26670000D01*
D18*
X49530000Y-26670000D02*
X49530000Y-25400000D01*
X54610000Y-20320000D02*
X55880000Y-20320000D01*
X52070000Y-23495000D02*
X52070000Y-22860000D01*
X54610000Y-20320000D02*
X52070000Y-22860000D01*
X51244500Y-23685500D02*
X51752500Y-23685500D01*
X51244500Y-23685500D02*
X52070000Y-22860000D01*
X49530000Y-25400000D02*
X51244500Y-23685500D01*
X51752500Y-23685500D02*
X52070000Y-24003000D01*
X52070000Y-24003000D02*
X52070000Y-23495000D01*
X52070000Y-25085000D02*
X52070000Y-24003000D01*
X47830000Y-25449000D02*
X47879000Y-25400000D01*
X47830000Y-26670000D02*
X47830000Y-25449000D01*
X47830000Y-26670000D02*
X46736000Y-26670000D01*
X47830000Y-27891000D02*
X47879000Y-27940000D01*
X47830000Y-26670000D02*
X47830000Y-27891000D01*
D17*
X46990000Y-43667500D02*
X46990000Y-42418000D01*
X46990000Y-43667500D02*
X46990000Y-44958000D01*
X48260000Y-29992500D02*
X48260000Y-31242000D01*
X52070000Y-29992500D02*
X52070000Y-31242000D01*
X52070000Y-29992500D02*
X52070000Y-28702000D01*
D19*
X47940000Y-48895000D02*
X48895000Y-48895000D01*
X42697500Y-35560000D02*
X43942000Y-35560000D01*
X53822500Y-41910000D02*
X54991000Y-41910000D01*
X55880000Y-42799000D02*
X55880000Y-43180000D01*
X54991000Y-41910000D02*
X55880000Y-42799000D01*
X53827500Y-43667500D02*
X55880000Y-45720000D01*
X52070000Y-43667500D02*
X53827500Y-43667500D01*
X53822500Y-34290000D02*
X52578000Y-34290000D01*
X42697500Y-27457500D02*
X40640000Y-25400000D01*
X42697500Y-31750000D02*
X42697500Y-27457500D01*
X42697500Y-33020000D02*
X43942000Y-33020000D01*
X42697500Y-34290000D02*
X43942000Y-34290000D01*
X42697500Y-36830000D02*
X41529000Y-36830000D01*
X40640000Y-35941000D02*
X40640000Y-35560000D01*
X41529000Y-36830000D02*
X40640000Y-35941000D01*
X40640000Y-38100000D02*
X42697500Y-38100000D01*
X42697500Y-39370000D02*
X41656000Y-39370000D01*
X40640000Y-40386000D02*
X40640000Y-40640000D01*
X41656000Y-39370000D02*
X40640000Y-40386000D01*
X42697500Y-40640000D02*
X43942000Y-40640000D01*
X53822500Y-35560000D02*
X52578000Y-35560000D01*
X44450000Y-44831000D02*
X44450000Y-43667500D01*
X41021000Y-48260000D02*
X44450000Y-44831000D01*
X40640000Y-48260000D02*
X41021000Y-48260000D01*
X54229000Y-48260000D02*
X55880000Y-48260000D01*
X50800000Y-44831000D02*
X54229000Y-48260000D01*
X50800000Y-43667500D02*
X50800000Y-44831000D01*
X42697500Y-43662500D02*
X40640000Y-45720000D01*
X42697500Y-41910000D02*
X42697500Y-43662500D01*
X45720000Y-45720000D02*
X45720000Y-43667500D01*
X40640000Y-50800000D02*
X45720000Y-45720000D01*
X48260000Y-45720000D02*
X55880000Y-53340000D01*
X48260000Y-43667500D02*
X48260000Y-45720000D01*
X55499000Y-50800000D02*
X55880000Y-50800000D01*
X49530000Y-44831000D02*
X55499000Y-50800000D01*
X49530000Y-43667500D02*
X49530000Y-44831000D01*
X53822500Y-39370000D02*
X54991000Y-39370000D01*
X55880000Y-38481000D02*
X55880000Y-38100000D01*
X54991000Y-39370000D02*
X55880000Y-38481000D01*
X51308000Y-36195000D02*
X51943000Y-36830000D01*
X51308000Y-34290000D02*
X51308000Y-36195000D01*
X51943000Y-33655000D02*
X51308000Y-34290000D01*
X55245000Y-33655000D02*
X51943000Y-33655000D01*
X51943000Y-36830000D02*
X53822500Y-36830000D01*
X55880000Y-33020000D02*
X55245000Y-33655000D01*
X44450000Y-26670000D02*
X40640000Y-22860000D01*
X44450000Y-29992500D02*
X44450000Y-26670000D01*
X53822500Y-33020000D02*
X52578000Y-33020000D01*
X53822500Y-24917500D02*
X55880000Y-22860000D01*
X53822500Y-31750000D02*
X53822500Y-24917500D01*
X45720000Y-25400000D02*
X40640000Y-20320000D01*
X45720000Y-29992500D02*
X45720000Y-25400000D01*
X53822500Y-38100000D02*
X52070000Y-38100000D01*
X52070000Y-38100000D02*
X47625000Y-42545000D01*
X46040000Y-48895000D02*
X46040000Y-47305000D01*
X46040000Y-47305000D02*
X47625000Y-45720000D01*
X47625000Y-45720000D02*
X47625000Y-42545000D01*
X46990000Y-33655000D02*
X46990000Y-29992500D01*
X49784000Y-36449000D02*
X46990000Y-33655000D01*
X53822500Y-40640000D02*
X55880000Y-40640000D01*
X51181000Y-28194000D02*
X50800000Y-28575000D01*
X50800000Y-28575000D02*
X50800000Y-29992500D01*
X51689000Y-28194000D02*
X51181000Y-28194000D01*
X52070000Y-27813000D02*
X51689000Y-28194000D01*
X52070000Y-26985000D02*
X52070000Y-27813000D01*
G36*
X55277863Y-19128838D02*
G01*
X55113625Y-19263625D01*
X54978838Y-19427863D01*
X54878683Y-19615242D01*
X54849817Y-19710400D01*
X54639938Y-19710400D01*
X54609999Y-19707451D01*
X54580060Y-19710400D01*
X54580059Y-19710400D01*
X54490498Y-19719221D01*
X54375588Y-19754079D01*
X54269686Y-19810684D01*
X54176862Y-19886862D01*
X54157774Y-19910121D01*
X51660129Y-22407768D01*
X51660118Y-22407777D01*
X51636863Y-22426862D01*
X51617779Y-22450116D01*
X50834632Y-23233265D01*
X50811362Y-23252362D01*
X50792269Y-23275627D01*
X49120127Y-24947770D01*
X49096863Y-24966862D01*
X49022873Y-25057020D01*
X49020685Y-25059686D01*
X48964080Y-25165588D01*
X48929221Y-25280498D01*
X48917451Y-25400000D01*
X48920401Y-25429951D01*
X48920401Y-25883684D01*
X48919458Y-25884458D01*
X48858246Y-25959045D01*
X48812761Y-26044141D01*
X48784752Y-26136475D01*
X48775294Y-26232500D01*
X48775294Y-27107500D01*
X48784752Y-27203525D01*
X48812761Y-27295859D01*
X48858246Y-27380955D01*
X48919458Y-27455542D01*
X48994045Y-27516754D01*
X49047401Y-27545273D01*
X49047400Y-29225638D01*
X49029197Y-29259693D01*
X49007590Y-29330923D01*
X49000294Y-29405000D01*
X49000294Y-30580000D01*
X49007590Y-30654077D01*
X49029197Y-30725307D01*
X49064286Y-30790953D01*
X49111507Y-30848493D01*
X49169047Y-30895714D01*
X49234693Y-30930803D01*
X49305923Y-30952410D01*
X49380000Y-30959706D01*
X49680000Y-30959706D01*
X49754077Y-30952410D01*
X49825307Y-30930803D01*
X49890953Y-30895714D01*
X49948493Y-30848493D01*
X49995714Y-30790953D01*
X50030803Y-30725307D01*
X50052410Y-30654077D01*
X50059706Y-30580000D01*
X50059706Y-29405000D01*
X50270294Y-29405000D01*
X50270294Y-30580000D01*
X50277590Y-30654077D01*
X50299197Y-30725307D01*
X50334286Y-30790953D01*
X50381507Y-30848493D01*
X50439047Y-30895714D01*
X50504693Y-30930803D01*
X50575923Y-30952410D01*
X50650000Y-30959706D01*
X50950000Y-30959706D01*
X51024077Y-30952410D01*
X51095307Y-30930803D01*
X51160953Y-30895714D01*
X51218493Y-30848493D01*
X51265714Y-30790953D01*
X51298294Y-30730000D01*
X51540294Y-30730000D01*
X51544708Y-30774813D01*
X51557779Y-30817905D01*
X51579006Y-30857618D01*
X51607573Y-30892427D01*
X51642382Y-30920994D01*
X51682095Y-30942221D01*
X51725187Y-30955292D01*
X51770000Y-30959706D01*
X51839050Y-30958600D01*
X51896200Y-30901450D01*
X51896200Y-30166300D01*
X52243800Y-30166300D01*
X52243800Y-30901450D01*
X52300950Y-30958600D01*
X52370000Y-30959706D01*
X52414813Y-30955292D01*
X52457905Y-30942221D01*
X52497618Y-30920994D01*
X52532427Y-30892427D01*
X52560994Y-30857618D01*
X52582221Y-30817905D01*
X52595292Y-30774813D01*
X52599706Y-30730000D01*
X52598600Y-30223450D01*
X52541450Y-30166300D01*
X52243800Y-30166300D01*
X51896200Y-30166300D01*
X51598550Y-30166300D01*
X51541400Y-30223450D01*
X51540294Y-30730000D01*
X51298294Y-30730000D01*
X51300803Y-30725307D01*
X51322410Y-30654077D01*
X51329706Y-30580000D01*
X51329706Y-29405000D01*
X51322410Y-29330923D01*
X51300803Y-29259693D01*
X51298295Y-29255000D01*
X51540294Y-29255000D01*
X51541400Y-29761550D01*
X51598550Y-29818700D01*
X51896200Y-29818700D01*
X51896200Y-29083550D01*
X52243800Y-29083550D01*
X52243800Y-29818700D01*
X52541450Y-29818700D01*
X52598600Y-29761550D01*
X52599706Y-29255000D01*
X52595292Y-29210187D01*
X52582221Y-29167095D01*
X52560994Y-29127382D01*
X52532427Y-29092573D01*
X52497618Y-29064006D01*
X52457905Y-29042779D01*
X52414813Y-29029708D01*
X52370000Y-29025294D01*
X52300950Y-29026400D01*
X52243800Y-29083550D01*
X51896200Y-29083550D01*
X51839050Y-29026400D01*
X51770000Y-29025294D01*
X51725187Y-29029708D01*
X51682095Y-29042779D01*
X51642382Y-29064006D01*
X51607573Y-29092573D01*
X51579006Y-29127382D01*
X51557779Y-29167095D01*
X51544708Y-29210187D01*
X51540294Y-29255000D01*
X51298295Y-29255000D01*
X51265714Y-29194047D01*
X51218493Y-29136507D01*
X51160953Y-29089286D01*
X51104800Y-29059271D01*
X51104800Y-28701251D01*
X51307252Y-28498800D01*
X51674042Y-28498800D01*
X51689000Y-28500273D01*
X51703958Y-28498800D01*
X51703966Y-28498800D01*
X51748751Y-28494389D01*
X51806206Y-28476960D01*
X51859157Y-28448658D01*
X51905568Y-28410568D01*
X51915112Y-28398939D01*
X52274944Y-28039108D01*
X52286568Y-28029568D01*
X52324658Y-27983157D01*
X52352960Y-27930206D01*
X52370389Y-27872751D01*
X52374800Y-27827966D01*
X52374800Y-27827959D01*
X52376273Y-27813001D01*
X52374800Y-27798043D01*
X52374800Y-27639706D01*
X52557500Y-27639706D01*
X52643770Y-27631209D01*
X52726725Y-27606045D01*
X52803176Y-27565181D01*
X52870187Y-27510187D01*
X52925181Y-27443176D01*
X52966045Y-27366725D01*
X52991209Y-27283770D01*
X52999706Y-27197500D01*
X52999706Y-26772500D01*
X52991209Y-26686230D01*
X52966045Y-26603275D01*
X52925181Y-26526824D01*
X52870187Y-26459813D01*
X52803176Y-26404819D01*
X52726725Y-26363955D01*
X52643770Y-26338791D01*
X52557500Y-26330294D01*
X51582500Y-26330294D01*
X51496230Y-26338791D01*
X51413275Y-26363955D01*
X51336824Y-26404819D01*
X51269813Y-26459813D01*
X51214819Y-26526824D01*
X51173955Y-26603275D01*
X51148791Y-26686230D01*
X51140294Y-26772500D01*
X51140294Y-27197500D01*
X51148791Y-27283770D01*
X51173955Y-27366725D01*
X51214819Y-27443176D01*
X51269813Y-27510187D01*
X51336824Y-27565181D01*
X51413275Y-27606045D01*
X51496230Y-27631209D01*
X51582500Y-27639706D01*
X51765201Y-27639706D01*
X51765201Y-27686747D01*
X51562749Y-27889200D01*
X51195957Y-27889200D01*
X51180999Y-27887727D01*
X51166041Y-27889200D01*
X51166034Y-27889200D01*
X51126889Y-27893055D01*
X51121248Y-27893611D01*
X51103819Y-27898898D01*
X51063794Y-27911040D01*
X51010843Y-27939342D01*
X50964432Y-27977432D01*
X50954892Y-27989056D01*
X50595061Y-28348888D01*
X50583432Y-28358432D01*
X50545342Y-28404844D01*
X50517040Y-28457795D01*
X50499611Y-28515250D01*
X50495200Y-28560035D01*
X50495200Y-28560042D01*
X50493727Y-28575000D01*
X50495200Y-28589958D01*
X50495200Y-29059271D01*
X50439047Y-29089286D01*
X50381507Y-29136507D01*
X50334286Y-29194047D01*
X50299197Y-29259693D01*
X50277590Y-29330923D01*
X50270294Y-29405000D01*
X50059706Y-29405000D01*
X50052410Y-29330923D01*
X50030803Y-29259693D01*
X50012600Y-29225638D01*
X50012600Y-27545273D01*
X50065955Y-27516754D01*
X50140542Y-27455542D01*
X50201754Y-27380955D01*
X50247239Y-27295859D01*
X50275248Y-27203525D01*
X50284706Y-27107500D01*
X50284706Y-26232500D01*
X50275248Y-26136475D01*
X50247239Y-26044141D01*
X50201754Y-25959045D01*
X50140542Y-25884458D01*
X50139600Y-25883685D01*
X50139600Y-25652503D01*
X51460401Y-24331703D01*
X51460401Y-24449660D01*
X51413275Y-24463955D01*
X51336824Y-24504819D01*
X51269813Y-24559813D01*
X51214819Y-24626824D01*
X51173955Y-24703275D01*
X51148791Y-24786230D01*
X51140294Y-24872500D01*
X51140294Y-25297500D01*
X51148791Y-25383770D01*
X51173955Y-25466725D01*
X51214819Y-25543176D01*
X51269813Y-25610187D01*
X51336824Y-25665181D01*
X51413275Y-25706045D01*
X51496230Y-25731209D01*
X51582500Y-25739706D01*
X52557500Y-25739706D01*
X52643770Y-25731209D01*
X52726725Y-25706045D01*
X52803176Y-25665181D01*
X52870187Y-25610187D01*
X52925181Y-25543176D01*
X52966045Y-25466725D01*
X52991209Y-25383770D01*
X52999706Y-25297500D01*
X52999706Y-24872500D01*
X52991209Y-24786230D01*
X52966045Y-24703275D01*
X52925181Y-24626824D01*
X52870187Y-24559813D01*
X52803176Y-24504819D01*
X52726725Y-24463955D01*
X52679600Y-24449660D01*
X52679600Y-24032940D01*
X52682549Y-24003000D01*
X52679600Y-23973058D01*
X52679600Y-23112503D01*
X54852770Y-20939335D01*
X54878684Y-21024759D01*
X54978839Y-21212137D01*
X55113626Y-21376375D01*
X55277864Y-21511162D01*
X55425360Y-21590000D01*
X55277863Y-21668838D01*
X55113625Y-21803625D01*
X54978838Y-21967863D01*
X54878683Y-22155242D01*
X54817007Y-22358559D01*
X54801400Y-22517021D01*
X54801400Y-23202980D01*
X54817007Y-23361442D01*
X54847381Y-23461568D01*
X53617557Y-24691392D01*
X53605933Y-24700932D01*
X53567843Y-24747343D01*
X53552715Y-24775646D01*
X53539540Y-24800295D01*
X53522111Y-24857749D01*
X53516227Y-24917500D01*
X53517701Y-24932468D01*
X53517700Y-31220294D01*
X53235000Y-31220294D01*
X53160923Y-31227590D01*
X53089693Y-31249197D01*
X53024047Y-31284286D01*
X52966507Y-31331507D01*
X52919286Y-31389047D01*
X52884197Y-31454693D01*
X52862590Y-31525923D01*
X52855294Y-31600000D01*
X52855294Y-31900000D01*
X52862590Y-31974077D01*
X52884197Y-32045307D01*
X52919286Y-32110953D01*
X52966507Y-32168493D01*
X53024047Y-32215714D01*
X53089693Y-32250803D01*
X53160923Y-32272410D01*
X53235000Y-32279706D01*
X54410000Y-32279706D01*
X54484077Y-32272410D01*
X54555307Y-32250803D01*
X54620953Y-32215714D01*
X54678493Y-32168493D01*
X54725714Y-32110953D01*
X54760803Y-32045307D01*
X54782410Y-31974077D01*
X54789706Y-31900000D01*
X54789706Y-31600000D01*
X54782410Y-31525923D01*
X54760803Y-31454693D01*
X54725714Y-31389047D01*
X54678493Y-31331507D01*
X54620953Y-31284286D01*
X54555307Y-31249197D01*
X54484077Y-31227590D01*
X54410000Y-31220294D01*
X54127300Y-31220294D01*
X54127300Y-25043751D01*
X55191097Y-23979954D01*
X55277864Y-24051162D01*
X55425360Y-24130000D01*
X55277863Y-24208838D01*
X55113625Y-24343625D01*
X54978838Y-24507863D01*
X54878683Y-24695242D01*
X54817007Y-24898559D01*
X54801400Y-25057021D01*
X54801400Y-25742980D01*
X54817007Y-25901442D01*
X54878684Y-26104759D01*
X54978839Y-26292137D01*
X55113626Y-26456375D01*
X55277864Y-26591162D01*
X55425360Y-26670000D01*
X55277863Y-26748838D01*
X55113625Y-26883625D01*
X54978838Y-27047863D01*
X54878683Y-27235242D01*
X54817007Y-27438559D01*
X54801400Y-27597021D01*
X54801400Y-28282980D01*
X54817007Y-28441442D01*
X54878684Y-28644759D01*
X54978839Y-28832137D01*
X55113626Y-28996375D01*
X55277864Y-29131162D01*
X55425360Y-29210000D01*
X55277863Y-29288838D01*
X55113625Y-29423625D01*
X54978838Y-29587863D01*
X54878683Y-29775242D01*
X54817007Y-29978559D01*
X54801400Y-30137021D01*
X54801400Y-30822980D01*
X54817007Y-30981442D01*
X54878684Y-31184759D01*
X54978839Y-31372137D01*
X55113626Y-31536375D01*
X55277864Y-31671162D01*
X55425360Y-31750000D01*
X55277863Y-31828838D01*
X55113625Y-31963625D01*
X54978838Y-32127863D01*
X54878683Y-32315242D01*
X54817007Y-32518559D01*
X54801400Y-32677021D01*
X54801400Y-33350200D01*
X54742152Y-33350200D01*
X54760803Y-33315307D01*
X54782410Y-33244077D01*
X54789706Y-33170000D01*
X54789706Y-32870000D01*
X54782410Y-32795923D01*
X54760803Y-32724693D01*
X54725714Y-32659047D01*
X54678493Y-32601507D01*
X54620953Y-32554286D01*
X54555307Y-32519197D01*
X54484077Y-32497590D01*
X54410000Y-32490294D01*
X53235000Y-32490294D01*
X53160923Y-32497590D01*
X53089693Y-32519197D01*
X53024047Y-32554286D01*
X52966507Y-32601507D01*
X52939712Y-32634158D01*
X52914963Y-32609409D01*
X52828386Y-32551560D01*
X52732187Y-32511713D01*
X52630063Y-32491400D01*
X52525937Y-32491400D01*
X52423813Y-32511713D01*
X52327614Y-32551560D01*
X52241037Y-32609409D01*
X52167409Y-32683037D01*
X52109560Y-32769614D01*
X52069713Y-32865813D01*
X52049400Y-32967937D01*
X52049400Y-33072063D01*
X52069713Y-33174187D01*
X52109560Y-33270386D01*
X52162890Y-33350200D01*
X51957958Y-33350200D01*
X51943000Y-33348727D01*
X51928042Y-33350200D01*
X51928034Y-33350200D01*
X51883249Y-33354611D01*
X51825794Y-33372040D01*
X51772843Y-33400342D01*
X51726432Y-33438432D01*
X51716892Y-33450056D01*
X51103061Y-34063888D01*
X51091432Y-34073432D01*
X51053342Y-34119844D01*
X51025040Y-34172795D01*
X51007611Y-34230250D01*
X51003200Y-34275035D01*
X51003200Y-34275042D01*
X51001727Y-34290000D01*
X51003200Y-34304958D01*
X51003201Y-36180032D01*
X51001727Y-36195000D01*
X51007611Y-36254751D01*
X51025040Y-36312205D01*
X51035511Y-36331794D01*
X51053343Y-36365157D01*
X51091433Y-36411568D01*
X51103056Y-36421108D01*
X51716892Y-37034944D01*
X51726432Y-37046568D01*
X51772843Y-37084658D01*
X51825794Y-37112960D01*
X51883249Y-37130389D01*
X51928034Y-37134800D01*
X51928042Y-37134800D01*
X51943000Y-37136273D01*
X51957958Y-37134800D01*
X52889271Y-37134800D01*
X52919286Y-37190953D01*
X52966507Y-37248493D01*
X53024047Y-37295714D01*
X53089693Y-37330803D01*
X53160923Y-37352410D01*
X53235000Y-37359706D01*
X54410000Y-37359706D01*
X54484077Y-37352410D01*
X54555307Y-37330803D01*
X54620953Y-37295714D01*
X54678493Y-37248493D01*
X54725714Y-37190953D01*
X54760803Y-37125307D01*
X54782410Y-37054077D01*
X54789706Y-36980000D01*
X54789706Y-36680000D01*
X54782410Y-36605923D01*
X54760803Y-36534693D01*
X54725714Y-36469047D01*
X54678493Y-36411507D01*
X54620953Y-36364286D01*
X54555307Y-36329197D01*
X54484077Y-36307590D01*
X54410000Y-36300294D01*
X53235000Y-36300294D01*
X53160923Y-36307590D01*
X53089693Y-36329197D01*
X53024047Y-36364286D01*
X52966507Y-36411507D01*
X52919286Y-36469047D01*
X52889271Y-36525200D01*
X52069252Y-36525200D01*
X51612800Y-36068749D01*
X51612800Y-35507937D01*
X52049400Y-35507937D01*
X52049400Y-35612063D01*
X52069713Y-35714187D01*
X52109560Y-35810386D01*
X52167409Y-35896963D01*
X52241037Y-35970591D01*
X52327614Y-36028440D01*
X52423813Y-36068287D01*
X52525937Y-36088600D01*
X52630063Y-36088600D01*
X52732187Y-36068287D01*
X52828386Y-36028440D01*
X52914963Y-35970591D01*
X52939712Y-35945842D01*
X52966507Y-35978493D01*
X53024047Y-36025714D01*
X53089693Y-36060803D01*
X53160923Y-36082410D01*
X53235000Y-36089706D01*
X54410000Y-36089706D01*
X54484077Y-36082410D01*
X54555307Y-36060803D01*
X54620953Y-36025714D01*
X54678493Y-35978493D01*
X54725714Y-35920953D01*
X54760803Y-35855307D01*
X54782410Y-35784077D01*
X54789706Y-35710000D01*
X54789706Y-35410000D01*
X54782410Y-35335923D01*
X54760803Y-35264693D01*
X54725714Y-35199047D01*
X54678493Y-35141507D01*
X54620953Y-35094286D01*
X54555307Y-35059197D01*
X54484077Y-35037590D01*
X54410000Y-35030294D01*
X53235000Y-35030294D01*
X53160923Y-35037590D01*
X53089693Y-35059197D01*
X53024047Y-35094286D01*
X52966507Y-35141507D01*
X52939712Y-35174158D01*
X52914963Y-35149409D01*
X52828386Y-35091560D01*
X52732187Y-35051713D01*
X52630063Y-35031400D01*
X52525937Y-35031400D01*
X52423813Y-35051713D01*
X52327614Y-35091560D01*
X52241037Y-35149409D01*
X52167409Y-35223037D01*
X52109560Y-35309614D01*
X52069713Y-35405813D01*
X52049400Y-35507937D01*
X51612800Y-35507937D01*
X51612800Y-34416251D01*
X52069252Y-33959800D01*
X52162890Y-33959800D01*
X52109560Y-34039614D01*
X52069713Y-34135813D01*
X52049400Y-34237937D01*
X52049400Y-34342063D01*
X52069713Y-34444187D01*
X52109560Y-34540386D01*
X52167409Y-34626963D01*
X52241037Y-34700591D01*
X52327614Y-34758440D01*
X52423813Y-34798287D01*
X52525937Y-34818600D01*
X52630063Y-34818600D01*
X52732187Y-34798287D01*
X52828386Y-34758440D01*
X52914963Y-34700591D01*
X52939712Y-34675842D01*
X52966507Y-34708493D01*
X53024047Y-34755714D01*
X53089693Y-34790803D01*
X53160923Y-34812410D01*
X53235000Y-34819706D01*
X54410000Y-34819706D01*
X54484077Y-34812410D01*
X54555307Y-34790803D01*
X54620953Y-34755714D01*
X54678493Y-34708493D01*
X54725714Y-34650953D01*
X54760803Y-34585307D01*
X54782410Y-34514077D01*
X54789706Y-34440000D01*
X54789706Y-34140000D01*
X54782410Y-34065923D01*
X54760803Y-33994693D01*
X54742152Y-33959800D01*
X55017955Y-33959800D01*
X55113626Y-34076375D01*
X55277864Y-34211162D01*
X55425360Y-34290000D01*
X55277863Y-34368838D01*
X55113625Y-34503625D01*
X54978838Y-34667863D01*
X54878683Y-34855242D01*
X54817007Y-35058559D01*
X54801400Y-35217021D01*
X54801400Y-35902980D01*
X54817007Y-36061442D01*
X54878684Y-36264759D01*
X54978839Y-36452137D01*
X55113626Y-36616375D01*
X55277864Y-36751162D01*
X55425360Y-36830000D01*
X55277863Y-36908838D01*
X55113625Y-37043625D01*
X54978838Y-37207863D01*
X54878683Y-37395242D01*
X54817007Y-37598559D01*
X54801400Y-37757021D01*
X54801400Y-38442980D01*
X54817007Y-38601442D01*
X54878684Y-38804759D01*
X54964548Y-38965401D01*
X54864749Y-39065200D01*
X54755729Y-39065200D01*
X54725714Y-39009047D01*
X54678493Y-38951507D01*
X54620953Y-38904286D01*
X54555307Y-38869197D01*
X54484077Y-38847590D01*
X54410000Y-38840294D01*
X53235000Y-38840294D01*
X53160923Y-38847590D01*
X53089693Y-38869197D01*
X53024047Y-38904286D01*
X52966507Y-38951507D01*
X52919286Y-39009047D01*
X52884197Y-39074693D01*
X52862590Y-39145923D01*
X52855294Y-39220000D01*
X52855294Y-39520000D01*
X52862590Y-39594077D01*
X52884197Y-39665307D01*
X52919286Y-39730953D01*
X52966507Y-39788493D01*
X53024047Y-39835714D01*
X53089693Y-39870803D01*
X53160923Y-39892410D01*
X53235000Y-39899706D01*
X54410000Y-39899706D01*
X54484077Y-39892410D01*
X54555307Y-39870803D01*
X54620953Y-39835714D01*
X54678493Y-39788493D01*
X54725714Y-39730953D01*
X54755729Y-39674800D01*
X54976042Y-39674800D01*
X54991000Y-39676273D01*
X55005958Y-39674800D01*
X55005966Y-39674800D01*
X55041687Y-39671282D01*
X54978838Y-39747863D01*
X54878683Y-39935242D01*
X54817007Y-40138559D01*
X54801400Y-40297021D01*
X54801400Y-40335200D01*
X54755729Y-40335200D01*
X54725714Y-40279047D01*
X54678493Y-40221507D01*
X54620953Y-40174286D01*
X54555307Y-40139197D01*
X54484077Y-40117590D01*
X54410000Y-40110294D01*
X53235000Y-40110294D01*
X53160923Y-40117590D01*
X53089693Y-40139197D01*
X53024047Y-40174286D01*
X52966507Y-40221507D01*
X52919286Y-40279047D01*
X52884197Y-40344693D01*
X52862590Y-40415923D01*
X52855294Y-40490000D01*
X52855294Y-40790000D01*
X52862590Y-40864077D01*
X52884197Y-40935307D01*
X52919286Y-41000953D01*
X52966507Y-41058493D01*
X53024047Y-41105714D01*
X53089693Y-41140803D01*
X53160923Y-41162410D01*
X53235000Y-41169706D01*
X54410000Y-41169706D01*
X54484077Y-41162410D01*
X54555307Y-41140803D01*
X54620953Y-41105714D01*
X54678493Y-41058493D01*
X54725714Y-41000953D01*
X54755729Y-40944800D01*
X54801400Y-40944800D01*
X54801400Y-40982980D01*
X54817007Y-41141442D01*
X54878684Y-41344759D01*
X54978839Y-41532137D01*
X55041688Y-41608718D01*
X55005966Y-41605200D01*
X55005958Y-41605200D01*
X54991000Y-41603727D01*
X54976042Y-41605200D01*
X54755729Y-41605200D01*
X54725714Y-41549047D01*
X54678493Y-41491507D01*
X54620953Y-41444286D01*
X54555307Y-41409197D01*
X54484077Y-41387590D01*
X54410000Y-41380294D01*
X53235000Y-41380294D01*
X53160923Y-41387590D01*
X53089693Y-41409197D01*
X53024047Y-41444286D01*
X52966507Y-41491507D01*
X52919286Y-41549047D01*
X52884197Y-41614693D01*
X52862590Y-41685923D01*
X52855294Y-41760000D01*
X52855294Y-42060000D01*
X52862590Y-42134077D01*
X52884197Y-42205307D01*
X52919286Y-42270953D01*
X52966507Y-42328493D01*
X53024047Y-42375714D01*
X53089693Y-42410803D01*
X53160923Y-42432410D01*
X53235000Y-42439706D01*
X54410000Y-42439706D01*
X54484077Y-42432410D01*
X54555307Y-42410803D01*
X54620953Y-42375714D01*
X54678493Y-42328493D01*
X54725714Y-42270953D01*
X54755729Y-42214800D01*
X54864749Y-42214800D01*
X54964548Y-42314599D01*
X54878683Y-42475242D01*
X54817007Y-42678559D01*
X54801400Y-42837021D01*
X54801400Y-43522980D01*
X54817007Y-43681442D01*
X54878684Y-43884759D01*
X54978839Y-44072137D01*
X55113626Y-44236375D01*
X55277864Y-44371162D01*
X55425360Y-44450000D01*
X55277863Y-44528838D01*
X55191097Y-44600045D01*
X54053612Y-43462561D01*
X54044068Y-43450932D01*
X53997657Y-43412842D01*
X53944706Y-43384540D01*
X53887251Y-43367111D01*
X53842466Y-43362700D01*
X53842458Y-43362700D01*
X53827500Y-43361227D01*
X53812542Y-43362700D01*
X52599706Y-43362700D01*
X52599706Y-43080000D01*
X52592410Y-43005923D01*
X52570803Y-42934693D01*
X52535714Y-42869047D01*
X52488493Y-42811507D01*
X52430953Y-42764286D01*
X52365307Y-42729197D01*
X52294077Y-42707590D01*
X52220000Y-42700294D01*
X51920000Y-42700294D01*
X51845923Y-42707590D01*
X51774693Y-42729197D01*
X51709047Y-42764286D01*
X51651507Y-42811507D01*
X51604286Y-42869047D01*
X51569197Y-42934693D01*
X51547590Y-43005923D01*
X51540294Y-43080000D01*
X51540294Y-44255000D01*
X51547590Y-44329077D01*
X51569197Y-44400307D01*
X51604286Y-44465953D01*
X51651507Y-44523493D01*
X51709047Y-44570714D01*
X51774693Y-44605803D01*
X51845923Y-44627410D01*
X51920000Y-44634706D01*
X52220000Y-44634706D01*
X52294077Y-44627410D01*
X52365307Y-44605803D01*
X52430953Y-44570714D01*
X52488493Y-44523493D01*
X52535714Y-44465953D01*
X52570803Y-44400307D01*
X52592410Y-44329077D01*
X52599706Y-44255000D01*
X52599706Y-43972300D01*
X53701249Y-43972300D01*
X54847380Y-45118432D01*
X54817007Y-45218559D01*
X54801400Y-45377021D01*
X54801400Y-46062980D01*
X54817007Y-46221442D01*
X54878684Y-46424759D01*
X54978839Y-46612137D01*
X55113626Y-46776375D01*
X55277864Y-46911162D01*
X55425360Y-46990000D01*
X55277863Y-47068838D01*
X55113625Y-47203625D01*
X54978838Y-47367863D01*
X54878683Y-47555242D01*
X54817007Y-47758559D01*
X54801400Y-47917021D01*
X54801400Y-47955200D01*
X54355252Y-47955200D01*
X51104800Y-44704749D01*
X51104800Y-44600729D01*
X51160953Y-44570714D01*
X51218493Y-44523493D01*
X51265714Y-44465953D01*
X51300803Y-44400307D01*
X51322410Y-44329077D01*
X51329706Y-44255000D01*
X51329706Y-43080000D01*
X51322410Y-43005923D01*
X51300803Y-42934693D01*
X51265714Y-42869047D01*
X51218493Y-42811507D01*
X51160953Y-42764286D01*
X51095307Y-42729197D01*
X51024077Y-42707590D01*
X50950000Y-42700294D01*
X50650000Y-42700294D01*
X50575923Y-42707590D01*
X50504693Y-42729197D01*
X50439047Y-42764286D01*
X50381507Y-42811507D01*
X50334286Y-42869047D01*
X50299197Y-42934693D01*
X50277590Y-43005923D01*
X50270294Y-43080000D01*
X50270294Y-44255000D01*
X50277590Y-44329077D01*
X50299197Y-44400307D01*
X50334286Y-44465953D01*
X50381507Y-44523493D01*
X50439047Y-44570714D01*
X50495201Y-44600729D01*
X50495201Y-44816032D01*
X50493727Y-44831000D01*
X50499611Y-44890751D01*
X50517040Y-44948205D01*
X50517041Y-44948206D01*
X50545343Y-45001157D01*
X50583433Y-45047568D01*
X50595057Y-45057108D01*
X54002892Y-48464944D01*
X54012432Y-48476568D01*
X54058843Y-48514658D01*
X54111794Y-48542960D01*
X54155876Y-48556332D01*
X54169248Y-48560389D01*
X54174889Y-48560945D01*
X54214034Y-48564800D01*
X54214041Y-48564800D01*
X54228999Y-48566273D01*
X54243957Y-48564800D01*
X54801400Y-48564800D01*
X54801400Y-48602980D01*
X54817007Y-48761442D01*
X54878684Y-48964759D01*
X54978839Y-49152137D01*
X55113626Y-49316375D01*
X55277864Y-49451162D01*
X55425360Y-49530000D01*
X55277863Y-49608838D01*
X55113625Y-49743625D01*
X55005467Y-49875415D01*
X49834800Y-44704749D01*
X49834800Y-44600729D01*
X49890953Y-44570714D01*
X49948493Y-44523493D01*
X49995714Y-44465953D01*
X50030803Y-44400307D01*
X50052410Y-44329077D01*
X50059706Y-44255000D01*
X50059706Y-43080000D01*
X50052410Y-43005923D01*
X50030803Y-42934693D01*
X49995714Y-42869047D01*
X49948493Y-42811507D01*
X49890953Y-42764286D01*
X49825307Y-42729197D01*
X49754077Y-42707590D01*
X49680000Y-42700294D01*
X49380000Y-42700294D01*
X49305923Y-42707590D01*
X49234693Y-42729197D01*
X49169047Y-42764286D01*
X49111507Y-42811507D01*
X49064286Y-42869047D01*
X49029197Y-42934693D01*
X49007590Y-43005923D01*
X49000294Y-43080000D01*
X49000294Y-44255000D01*
X49007590Y-44329077D01*
X49029197Y-44400307D01*
X49064286Y-44465953D01*
X49111507Y-44523493D01*
X49169047Y-44570714D01*
X49225201Y-44600729D01*
X49225201Y-44816032D01*
X49223727Y-44831000D01*
X49229611Y-44890751D01*
X49247040Y-44948205D01*
X49247041Y-44948206D01*
X49275343Y-45001157D01*
X49313433Y-45047568D01*
X49325057Y-45057108D01*
X54801400Y-50533452D01*
X54801400Y-51142980D01*
X54817007Y-51301442D01*
X54878684Y-51504759D01*
X54978839Y-51692137D01*
X55113626Y-51856375D01*
X55277864Y-51991162D01*
X55425360Y-52070000D01*
X55277863Y-52148838D01*
X55191097Y-52220045D01*
X48564800Y-45593749D01*
X48564800Y-44600729D01*
X48620953Y-44570714D01*
X48678493Y-44523493D01*
X48725714Y-44465953D01*
X48760803Y-44400307D01*
X48782410Y-44329077D01*
X48789706Y-44255000D01*
X48789706Y-43080000D01*
X48782410Y-43005923D01*
X48760803Y-42934693D01*
X48725714Y-42869047D01*
X48678493Y-42811507D01*
X48620953Y-42764286D01*
X48555307Y-42729197D01*
X48484077Y-42707590D01*
X48410000Y-42700294D01*
X48110000Y-42700294D01*
X48035923Y-42707590D01*
X47964693Y-42729197D01*
X47929800Y-42747848D01*
X47929800Y-42671251D01*
X52196252Y-38404800D01*
X52889271Y-38404800D01*
X52919286Y-38460953D01*
X52966507Y-38518493D01*
X53024047Y-38565714D01*
X53089693Y-38600803D01*
X53160923Y-38622410D01*
X53235000Y-38629706D01*
X54410000Y-38629706D01*
X54484077Y-38622410D01*
X54555307Y-38600803D01*
X54620953Y-38565714D01*
X54678493Y-38518493D01*
X54725714Y-38460953D01*
X54760803Y-38395307D01*
X54782410Y-38324077D01*
X54789706Y-38250000D01*
X54789706Y-37950000D01*
X54782410Y-37875923D01*
X54760803Y-37804693D01*
X54725714Y-37739047D01*
X54678493Y-37681507D01*
X54620953Y-37634286D01*
X54555307Y-37599197D01*
X54484077Y-37577590D01*
X54410000Y-37570294D01*
X53235000Y-37570294D01*
X53160923Y-37577590D01*
X53089693Y-37599197D01*
X53024047Y-37634286D01*
X52966507Y-37681507D01*
X52919286Y-37739047D01*
X52889271Y-37795200D01*
X52084957Y-37795200D01*
X52069999Y-37793727D01*
X52055041Y-37795200D01*
X52055034Y-37795200D01*
X52015889Y-37799055D01*
X52010248Y-37799611D01*
X51996876Y-37803668D01*
X51952794Y-37817040D01*
X51899843Y-37845342D01*
X51853432Y-37883432D01*
X51843892Y-37895056D01*
X47420057Y-42318892D01*
X47408433Y-42328432D01*
X47370343Y-42374843D01*
X47355215Y-42403146D01*
X47342040Y-42427795D01*
X47324611Y-42485249D01*
X47318727Y-42545000D01*
X47320201Y-42559968D01*
X47320201Y-42703269D01*
X47290000Y-42700294D01*
X47220950Y-42701400D01*
X47163800Y-42758550D01*
X47163800Y-43493700D01*
X47183800Y-43493700D01*
X47183800Y-43841300D01*
X47163800Y-43841300D01*
X47163800Y-44576450D01*
X47220950Y-44633600D01*
X47290000Y-44634706D01*
X47320200Y-44631731D01*
X47320200Y-45593748D01*
X45835057Y-47078892D01*
X45823433Y-47088432D01*
X45785343Y-47134843D01*
X45770215Y-47163146D01*
X45757040Y-47187795D01*
X45739611Y-47245249D01*
X45733727Y-47305000D01*
X45735201Y-47319968D01*
X45735201Y-47975620D01*
X45658275Y-47998955D01*
X45581824Y-48039819D01*
X45514813Y-48094813D01*
X45459819Y-48161824D01*
X45418955Y-48238275D01*
X45393791Y-48321230D01*
X45385294Y-48407500D01*
X45385294Y-49382500D01*
X45393791Y-49468770D01*
X45418955Y-49551725D01*
X45459819Y-49628176D01*
X45514813Y-49695187D01*
X45581824Y-49750181D01*
X45658275Y-49791045D01*
X45741230Y-49816209D01*
X45827500Y-49824706D01*
X46252500Y-49824706D01*
X46338770Y-49816209D01*
X46421725Y-49791045D01*
X46498176Y-49750181D01*
X46565187Y-49695187D01*
X46620181Y-49628176D01*
X46637913Y-49595000D01*
X47285294Y-49595000D01*
X47289708Y-49639813D01*
X47302779Y-49682905D01*
X47324006Y-49722618D01*
X47352573Y-49757427D01*
X47387382Y-49785994D01*
X47427095Y-49807221D01*
X47470187Y-49820292D01*
X47515000Y-49824706D01*
X47709050Y-49823600D01*
X47766200Y-49766450D01*
X47766200Y-49068800D01*
X48113800Y-49068800D01*
X48113800Y-49766450D01*
X48170950Y-49823600D01*
X48365000Y-49824706D01*
X48409813Y-49820292D01*
X48452905Y-49807221D01*
X48492618Y-49785994D01*
X48527427Y-49757427D01*
X48555994Y-49722618D01*
X48577221Y-49682905D01*
X48590292Y-49639813D01*
X48594706Y-49595000D01*
X48593600Y-49125950D01*
X48536450Y-49068800D01*
X48113800Y-49068800D01*
X47766200Y-49068800D01*
X47343550Y-49068800D01*
X47286400Y-49125950D01*
X47285294Y-49595000D01*
X46637913Y-49595000D01*
X46661045Y-49551725D01*
X46686209Y-49468770D01*
X46694706Y-49382500D01*
X46694706Y-48407500D01*
X46686209Y-48321230D01*
X46661045Y-48238275D01*
X46637914Y-48195000D01*
X47285294Y-48195000D01*
X47286400Y-48664050D01*
X47343550Y-48721200D01*
X47766200Y-48721200D01*
X47766200Y-48023550D01*
X48113800Y-48023550D01*
X48113800Y-48721200D01*
X48536450Y-48721200D01*
X48593600Y-48664050D01*
X48594706Y-48195000D01*
X48590292Y-48150187D01*
X48577221Y-48107095D01*
X48555994Y-48067382D01*
X48527427Y-48032573D01*
X48492618Y-48004006D01*
X48452905Y-47982779D01*
X48409813Y-47969708D01*
X48365000Y-47965294D01*
X48170950Y-47966400D01*
X48113800Y-48023550D01*
X47766200Y-48023550D01*
X47709050Y-47966400D01*
X47515000Y-47965294D01*
X47470187Y-47969708D01*
X47427095Y-47982779D01*
X47387382Y-48004006D01*
X47352573Y-48032573D01*
X47324006Y-48067382D01*
X47302779Y-48107095D01*
X47289708Y-48150187D01*
X47285294Y-48195000D01*
X46637914Y-48195000D01*
X46620181Y-48161824D01*
X46565187Y-48094813D01*
X46498176Y-48039819D01*
X46421725Y-47998955D01*
X46344800Y-47975620D01*
X46344800Y-47431251D01*
X47829945Y-45946107D01*
X47841568Y-45936568D01*
X47879658Y-45890157D01*
X47907960Y-45837206D01*
X47925389Y-45779751D01*
X47929800Y-45734966D01*
X47929800Y-45734959D01*
X47931273Y-45720001D01*
X47929800Y-45705043D01*
X47929800Y-44587152D01*
X47955200Y-44600729D01*
X47955201Y-45705032D01*
X47953727Y-45720000D01*
X47959611Y-45779751D01*
X47977040Y-45837205D01*
X47990215Y-45861854D01*
X48005343Y-45890157D01*
X48043433Y-45936568D01*
X48055057Y-45946108D01*
X54847380Y-52738432D01*
X54817007Y-52838559D01*
X54801400Y-52997021D01*
X54801400Y-53682980D01*
X54817007Y-53841442D01*
X54878684Y-54044759D01*
X54978839Y-54232137D01*
X55113626Y-54396375D01*
X55277864Y-54531162D01*
X55332565Y-54560400D01*
X41213081Y-54560400D01*
X41373470Y-54441841D01*
X41517759Y-54283149D01*
X41628316Y-54099357D01*
X41700893Y-53897528D01*
X41732700Y-53685418D01*
X41670766Y-53513800D01*
X40813800Y-53513800D01*
X40813800Y-53533800D01*
X40466200Y-53533800D01*
X40466200Y-53513800D01*
X40446200Y-53513800D01*
X40446200Y-53226617D01*
X42028800Y-53226617D01*
X42028800Y-53453383D01*
X42073040Y-53675793D01*
X42159820Y-53885298D01*
X42285805Y-54073847D01*
X42446153Y-54234195D01*
X42634702Y-54360180D01*
X42844207Y-54446960D01*
X43066617Y-54491200D01*
X43293383Y-54491200D01*
X43515793Y-54446960D01*
X43725298Y-54360180D01*
X43913847Y-54234195D01*
X44074195Y-54073847D01*
X44200180Y-53885298D01*
X44286960Y-53675793D01*
X44331200Y-53453383D01*
X44331200Y-53226617D01*
X52188800Y-53226617D01*
X52188800Y-53453383D01*
X52233040Y-53675793D01*
X52319820Y-53885298D01*
X52445805Y-54073847D01*
X52606153Y-54234195D01*
X52794702Y-54360180D01*
X53004207Y-54446960D01*
X53226617Y-54491200D01*
X53453383Y-54491200D01*
X53675793Y-54446960D01*
X53885298Y-54360180D01*
X54073847Y-54234195D01*
X54234195Y-54073847D01*
X54360180Y-53885298D01*
X54446960Y-53675793D01*
X54491200Y-53453383D01*
X54491200Y-53226617D01*
X54446960Y-53004207D01*
X54360180Y-52794702D01*
X54234195Y-52606153D01*
X54073847Y-52445805D01*
X53885298Y-52319820D01*
X53675793Y-52233040D01*
X53453383Y-52188800D01*
X53226617Y-52188800D01*
X53004207Y-52233040D01*
X52794702Y-52319820D01*
X52606153Y-52445805D01*
X52445805Y-52606153D01*
X52319820Y-52794702D01*
X52233040Y-53004207D01*
X52188800Y-53226617D01*
X44331200Y-53226617D01*
X44286960Y-53004207D01*
X44200180Y-52794702D01*
X44074195Y-52606153D01*
X43913847Y-52445805D01*
X43725298Y-52319820D01*
X43515793Y-52233040D01*
X43293383Y-52188800D01*
X43066617Y-52188800D01*
X42844207Y-52233040D01*
X42634702Y-52319820D01*
X42446153Y-52445805D01*
X42285805Y-52606153D01*
X42159820Y-52794702D01*
X42073040Y-53004207D01*
X42028800Y-53226617D01*
X40446200Y-53226617D01*
X40446200Y-53166200D01*
X40466200Y-53166200D01*
X40466200Y-53146200D01*
X40813800Y-53146200D01*
X40813800Y-53166200D01*
X41670766Y-53166200D01*
X41732700Y-52994582D01*
X41700893Y-52782472D01*
X41628316Y-52580643D01*
X41517759Y-52396851D01*
X41373470Y-52238159D01*
X41200994Y-52110665D01*
X41094476Y-52070088D01*
X41242137Y-51991162D01*
X41406375Y-51856375D01*
X41541162Y-51692137D01*
X41641317Y-51504758D01*
X41702993Y-51301441D01*
X41718600Y-51142979D01*
X41718600Y-50457020D01*
X41702993Y-50298558D01*
X41672620Y-50198431D01*
X45924945Y-45946107D01*
X45936568Y-45936568D01*
X45974658Y-45890157D01*
X46002960Y-45837206D01*
X46020389Y-45779751D01*
X46024800Y-45734966D01*
X46024800Y-45734958D01*
X46026273Y-45720000D01*
X46024800Y-45705042D01*
X46024800Y-44600729D01*
X46080953Y-44570714D01*
X46138493Y-44523493D01*
X46185714Y-44465953D01*
X46218294Y-44405000D01*
X46460294Y-44405000D01*
X46464708Y-44449813D01*
X46477779Y-44492905D01*
X46499006Y-44532618D01*
X46527573Y-44567427D01*
X46562382Y-44595994D01*
X46602095Y-44617221D01*
X46645187Y-44630292D01*
X46690000Y-44634706D01*
X46759050Y-44633600D01*
X46816200Y-44576450D01*
X46816200Y-43841300D01*
X46518550Y-43841300D01*
X46461400Y-43898450D01*
X46460294Y-44405000D01*
X46218294Y-44405000D01*
X46220803Y-44400307D01*
X46242410Y-44329077D01*
X46249706Y-44255000D01*
X46249706Y-43080000D01*
X46242410Y-43005923D01*
X46220803Y-42934693D01*
X46218295Y-42930000D01*
X46460294Y-42930000D01*
X46461400Y-43436550D01*
X46518550Y-43493700D01*
X46816200Y-43493700D01*
X46816200Y-42758550D01*
X46759050Y-42701400D01*
X46690000Y-42700294D01*
X46645187Y-42704708D01*
X46602095Y-42717779D01*
X46562382Y-42739006D01*
X46527573Y-42767573D01*
X46499006Y-42802382D01*
X46477779Y-42842095D01*
X46464708Y-42885187D01*
X46460294Y-42930000D01*
X46218295Y-42930000D01*
X46185714Y-42869047D01*
X46138493Y-42811507D01*
X46080953Y-42764286D01*
X46015307Y-42729197D01*
X45944077Y-42707590D01*
X45870000Y-42700294D01*
X45570000Y-42700294D01*
X45495923Y-42707590D01*
X45424693Y-42729197D01*
X45359047Y-42764286D01*
X45301507Y-42811507D01*
X45254286Y-42869047D01*
X45219197Y-42934693D01*
X45197590Y-43005923D01*
X45190294Y-43080000D01*
X45190294Y-44255000D01*
X45197590Y-44329077D01*
X45219197Y-44400307D01*
X45254286Y-44465953D01*
X45301507Y-44523493D01*
X45359047Y-44570714D01*
X45415201Y-44600729D01*
X45415200Y-45593748D01*
X41328903Y-49680045D01*
X41242137Y-49608838D01*
X41094640Y-49530000D01*
X41242137Y-49451162D01*
X41406375Y-49316375D01*
X41541162Y-49152137D01*
X41641317Y-48964758D01*
X41702993Y-48761441D01*
X41718600Y-48602979D01*
X41718600Y-47993451D01*
X44654945Y-45057107D01*
X44666568Y-45047568D01*
X44704658Y-45001157D01*
X44732960Y-44948206D01*
X44750389Y-44890751D01*
X44754800Y-44845966D01*
X44754800Y-44845959D01*
X44756273Y-44831001D01*
X44754800Y-44816043D01*
X44754800Y-44600729D01*
X44810953Y-44570714D01*
X44868493Y-44523493D01*
X44915714Y-44465953D01*
X44950803Y-44400307D01*
X44972410Y-44329077D01*
X44979706Y-44255000D01*
X44979706Y-43080000D01*
X44972410Y-43005923D01*
X44950803Y-42934693D01*
X44915714Y-42869047D01*
X44868493Y-42811507D01*
X44810953Y-42764286D01*
X44745307Y-42729197D01*
X44674077Y-42707590D01*
X44600000Y-42700294D01*
X44300000Y-42700294D01*
X44225923Y-42707590D01*
X44154693Y-42729197D01*
X44089047Y-42764286D01*
X44031507Y-42811507D01*
X43984286Y-42869047D01*
X43949197Y-42934693D01*
X43927590Y-43005923D01*
X43920294Y-43080000D01*
X43920294Y-44255000D01*
X43927590Y-44329077D01*
X43949197Y-44400307D01*
X43984286Y-44465953D01*
X44031507Y-44523493D01*
X44089047Y-44570714D01*
X44145200Y-44600729D01*
X44145200Y-44704748D01*
X41514533Y-47335416D01*
X41406375Y-47203625D01*
X41242137Y-47068838D01*
X41094640Y-46990000D01*
X41242137Y-46911162D01*
X41406375Y-46776375D01*
X41541162Y-46612137D01*
X41641317Y-46424758D01*
X41702993Y-46221441D01*
X41718600Y-46062979D01*
X41718600Y-45377020D01*
X41702993Y-45218558D01*
X41672620Y-45118432D01*
X42902444Y-43888608D01*
X42914068Y-43879068D01*
X42952158Y-43832657D01*
X42980460Y-43779706D01*
X42997889Y-43722251D01*
X43002300Y-43677466D01*
X43002300Y-43677459D01*
X43003773Y-43662501D01*
X43002300Y-43647543D01*
X43002300Y-42439706D01*
X43285000Y-42439706D01*
X43359077Y-42432410D01*
X43430307Y-42410803D01*
X43495953Y-42375714D01*
X43553493Y-42328493D01*
X43600714Y-42270953D01*
X43635803Y-42205307D01*
X43657410Y-42134077D01*
X43664706Y-42060000D01*
X43664706Y-41760000D01*
X43657410Y-41685923D01*
X43635803Y-41614693D01*
X43600714Y-41549047D01*
X43553493Y-41491507D01*
X43495953Y-41444286D01*
X43430307Y-41409197D01*
X43359077Y-41387590D01*
X43285000Y-41380294D01*
X42110000Y-41380294D01*
X42035923Y-41387590D01*
X41964693Y-41409197D01*
X41899047Y-41444286D01*
X41841507Y-41491507D01*
X41794286Y-41549047D01*
X41759197Y-41614693D01*
X41737590Y-41685923D01*
X41730294Y-41760000D01*
X41730294Y-42060000D01*
X41737590Y-42134077D01*
X41759197Y-42205307D01*
X41794286Y-42270953D01*
X41841507Y-42328493D01*
X41899047Y-42375714D01*
X41964693Y-42410803D01*
X42035923Y-42432410D01*
X42110000Y-42439706D01*
X42392700Y-42439706D01*
X42392701Y-43536247D01*
X41328903Y-44600045D01*
X41242137Y-44528838D01*
X41094640Y-44450000D01*
X41242137Y-44371162D01*
X41406375Y-44236375D01*
X41541162Y-44072137D01*
X41641317Y-43884758D01*
X41702993Y-43681441D01*
X41718600Y-43522979D01*
X41718600Y-42837020D01*
X41702993Y-42678558D01*
X41641317Y-42475241D01*
X41541162Y-42287863D01*
X41406375Y-42123625D01*
X41242137Y-41988838D01*
X41094640Y-41910000D01*
X41242137Y-41831162D01*
X41406375Y-41696375D01*
X41541162Y-41532137D01*
X41641317Y-41344758D01*
X41702993Y-41141441D01*
X41718600Y-40982979D01*
X41718600Y-40490000D01*
X41730294Y-40490000D01*
X41730294Y-40790000D01*
X41737590Y-40864077D01*
X41759197Y-40935307D01*
X41794286Y-41000953D01*
X41841507Y-41058493D01*
X41899047Y-41105714D01*
X41964693Y-41140803D01*
X42035923Y-41162410D01*
X42110000Y-41169706D01*
X43285000Y-41169706D01*
X43359077Y-41162410D01*
X43430307Y-41140803D01*
X43495953Y-41105714D01*
X43553493Y-41058493D01*
X43580288Y-41025842D01*
X43605037Y-41050591D01*
X43691614Y-41108440D01*
X43787813Y-41148287D01*
X43889937Y-41168600D01*
X43994063Y-41168600D01*
X44096187Y-41148287D01*
X44192386Y-41108440D01*
X44278963Y-41050591D01*
X44352591Y-40976963D01*
X44410440Y-40890386D01*
X44450287Y-40794187D01*
X44470600Y-40692063D01*
X44470600Y-40587937D01*
X44450287Y-40485813D01*
X44410440Y-40389614D01*
X44352591Y-40303037D01*
X44278963Y-40229409D01*
X44192386Y-40171560D01*
X44096187Y-40131713D01*
X43994063Y-40111400D01*
X43889937Y-40111400D01*
X43787813Y-40131713D01*
X43691614Y-40171560D01*
X43605037Y-40229409D01*
X43580288Y-40254158D01*
X43553493Y-40221507D01*
X43495953Y-40174286D01*
X43430307Y-40139197D01*
X43359077Y-40117590D01*
X43285000Y-40110294D01*
X42110000Y-40110294D01*
X42035923Y-40117590D01*
X41964693Y-40139197D01*
X41899047Y-40174286D01*
X41841507Y-40221507D01*
X41794286Y-40279047D01*
X41759197Y-40344693D01*
X41737590Y-40415923D01*
X41730294Y-40490000D01*
X41718600Y-40490000D01*
X41718600Y-40297020D01*
X41702993Y-40138558D01*
X41641317Y-39935241D01*
X41599690Y-39857362D01*
X41770534Y-39686517D01*
X41794286Y-39730953D01*
X41841507Y-39788493D01*
X41899047Y-39835714D01*
X41964693Y-39870803D01*
X42035923Y-39892410D01*
X42110000Y-39899706D01*
X43285000Y-39899706D01*
X43359077Y-39892410D01*
X43430307Y-39870803D01*
X43495953Y-39835714D01*
X43553493Y-39788493D01*
X43600714Y-39730953D01*
X43635803Y-39665307D01*
X43657410Y-39594077D01*
X43664706Y-39520000D01*
X43664706Y-39220000D01*
X43657410Y-39145923D01*
X43635803Y-39074693D01*
X43600714Y-39009047D01*
X43553493Y-38951507D01*
X43495953Y-38904286D01*
X43430307Y-38869197D01*
X43359077Y-38847590D01*
X43285000Y-38840294D01*
X42110000Y-38840294D01*
X42035923Y-38847590D01*
X41964693Y-38869197D01*
X41899047Y-38904286D01*
X41841507Y-38951507D01*
X41794286Y-39009047D01*
X41764271Y-39065200D01*
X41670958Y-39065200D01*
X41656000Y-39063727D01*
X41641042Y-39065200D01*
X41641034Y-39065200D01*
X41601403Y-39069103D01*
X41596248Y-39069611D01*
X41538794Y-39087040D01*
X41485843Y-39115342D01*
X41439432Y-39153432D01*
X41429892Y-39165056D01*
X41179559Y-39415390D01*
X41094640Y-39370000D01*
X41242137Y-39291162D01*
X41406375Y-39156375D01*
X41541162Y-38992137D01*
X41641317Y-38804758D01*
X41702993Y-38601441D01*
X41718600Y-38442979D01*
X41718600Y-38404800D01*
X41764271Y-38404800D01*
X41794286Y-38460953D01*
X41841507Y-38518493D01*
X41899047Y-38565714D01*
X41964693Y-38600803D01*
X42035923Y-38622410D01*
X42110000Y-38629706D01*
X43285000Y-38629706D01*
X43359077Y-38622410D01*
X43430307Y-38600803D01*
X43495953Y-38565714D01*
X43553493Y-38518493D01*
X43600714Y-38460953D01*
X43635803Y-38395307D01*
X43657410Y-38324077D01*
X43664706Y-38250000D01*
X43664706Y-37950000D01*
X43657410Y-37875923D01*
X43635803Y-37804693D01*
X43600714Y-37739047D01*
X43553493Y-37681507D01*
X43495953Y-37634286D01*
X43430307Y-37599197D01*
X43359077Y-37577590D01*
X43285000Y-37570294D01*
X42110000Y-37570294D01*
X42035923Y-37577590D01*
X41964693Y-37599197D01*
X41899047Y-37634286D01*
X41841507Y-37681507D01*
X41794286Y-37739047D01*
X41764271Y-37795200D01*
X41718600Y-37795200D01*
X41718600Y-37757020D01*
X41702993Y-37598558D01*
X41641317Y-37395241D01*
X41541162Y-37207863D01*
X41478313Y-37131282D01*
X41514034Y-37134800D01*
X41514042Y-37134800D01*
X41529000Y-37136273D01*
X41543958Y-37134800D01*
X41764271Y-37134800D01*
X41794286Y-37190953D01*
X41841507Y-37248493D01*
X41899047Y-37295714D01*
X41964693Y-37330803D01*
X42035923Y-37352410D01*
X42110000Y-37359706D01*
X43285000Y-37359706D01*
X43359077Y-37352410D01*
X43430307Y-37330803D01*
X43495953Y-37295714D01*
X43553493Y-37248493D01*
X43600714Y-37190953D01*
X43635803Y-37125307D01*
X43657410Y-37054077D01*
X43664706Y-36980000D01*
X43664706Y-36680000D01*
X43657410Y-36605923D01*
X43635803Y-36534693D01*
X43600714Y-36469047D01*
X43553493Y-36411507D01*
X43495953Y-36364286D01*
X43430307Y-36329197D01*
X43359077Y-36307590D01*
X43285000Y-36300294D01*
X42110000Y-36300294D01*
X42035923Y-36307590D01*
X41964693Y-36329197D01*
X41899047Y-36364286D01*
X41841507Y-36411507D01*
X41794286Y-36469047D01*
X41764271Y-36525200D01*
X41655252Y-36525200D01*
X41555453Y-36425401D01*
X41641317Y-36264758D01*
X41702993Y-36061441D01*
X41718600Y-35902979D01*
X41718600Y-35410000D01*
X41730294Y-35410000D01*
X41730294Y-35710000D01*
X41737590Y-35784077D01*
X41759197Y-35855307D01*
X41794286Y-35920953D01*
X41841507Y-35978493D01*
X41899047Y-36025714D01*
X41964693Y-36060803D01*
X42035923Y-36082410D01*
X42110000Y-36089706D01*
X43285000Y-36089706D01*
X43359077Y-36082410D01*
X43430307Y-36060803D01*
X43495953Y-36025714D01*
X43553493Y-35978493D01*
X43580288Y-35945842D01*
X43605037Y-35970591D01*
X43691614Y-36028440D01*
X43787813Y-36068287D01*
X43889937Y-36088600D01*
X43994063Y-36088600D01*
X44096187Y-36068287D01*
X44192386Y-36028440D01*
X44278963Y-35970591D01*
X44352591Y-35896963D01*
X44410440Y-35810386D01*
X44450287Y-35714187D01*
X44470600Y-35612063D01*
X44470600Y-35507937D01*
X44450287Y-35405813D01*
X44410440Y-35309614D01*
X44352591Y-35223037D01*
X44278963Y-35149409D01*
X44192386Y-35091560D01*
X44096187Y-35051713D01*
X43994063Y-35031400D01*
X43889937Y-35031400D01*
X43787813Y-35051713D01*
X43691614Y-35091560D01*
X43605037Y-35149409D01*
X43580288Y-35174158D01*
X43553493Y-35141507D01*
X43495953Y-35094286D01*
X43430307Y-35059197D01*
X43359077Y-35037590D01*
X43285000Y-35030294D01*
X42110000Y-35030294D01*
X42035923Y-35037590D01*
X41964693Y-35059197D01*
X41899047Y-35094286D01*
X41841507Y-35141507D01*
X41794286Y-35199047D01*
X41759197Y-35264693D01*
X41737590Y-35335923D01*
X41730294Y-35410000D01*
X41718600Y-35410000D01*
X41718600Y-35217020D01*
X41702993Y-35058558D01*
X41641317Y-34855241D01*
X41541162Y-34667863D01*
X41406375Y-34503625D01*
X41242137Y-34368838D01*
X41094640Y-34290000D01*
X41242137Y-34211162D01*
X41328847Y-34140000D01*
X41730294Y-34140000D01*
X41730294Y-34440000D01*
X41737590Y-34514077D01*
X41759197Y-34585307D01*
X41794286Y-34650953D01*
X41841507Y-34708493D01*
X41899047Y-34755714D01*
X41964693Y-34790803D01*
X42035923Y-34812410D01*
X42110000Y-34819706D01*
X43285000Y-34819706D01*
X43359077Y-34812410D01*
X43430307Y-34790803D01*
X43495953Y-34755714D01*
X43553493Y-34708493D01*
X43580288Y-34675842D01*
X43605037Y-34700591D01*
X43691614Y-34758440D01*
X43787813Y-34798287D01*
X43889937Y-34818600D01*
X43994063Y-34818600D01*
X44096187Y-34798287D01*
X44192386Y-34758440D01*
X44278963Y-34700591D01*
X44352591Y-34626963D01*
X44410440Y-34540386D01*
X44450287Y-34444187D01*
X44470600Y-34342063D01*
X44470600Y-34237937D01*
X44450287Y-34135813D01*
X44410440Y-34039614D01*
X44352591Y-33953037D01*
X44278963Y-33879409D01*
X44192386Y-33821560D01*
X44096187Y-33781713D01*
X43994063Y-33761400D01*
X43889937Y-33761400D01*
X43787813Y-33781713D01*
X43691614Y-33821560D01*
X43605037Y-33879409D01*
X43580288Y-33904158D01*
X43553493Y-33871507D01*
X43495953Y-33824286D01*
X43430307Y-33789197D01*
X43359077Y-33767590D01*
X43285000Y-33760294D01*
X42110000Y-33760294D01*
X42035923Y-33767590D01*
X41964693Y-33789197D01*
X41899047Y-33824286D01*
X41841507Y-33871507D01*
X41794286Y-33929047D01*
X41759197Y-33994693D01*
X41737590Y-34065923D01*
X41730294Y-34140000D01*
X41328847Y-34140000D01*
X41406375Y-34076375D01*
X41541162Y-33912137D01*
X41641317Y-33724758D01*
X41702993Y-33521441D01*
X41718600Y-33362979D01*
X41718600Y-32870000D01*
X41730294Y-32870000D01*
X41730294Y-33170000D01*
X41737590Y-33244077D01*
X41759197Y-33315307D01*
X41794286Y-33380953D01*
X41841507Y-33438493D01*
X41899047Y-33485714D01*
X41964693Y-33520803D01*
X42035923Y-33542410D01*
X42110000Y-33549706D01*
X43285000Y-33549706D01*
X43359077Y-33542410D01*
X43430307Y-33520803D01*
X43495953Y-33485714D01*
X43553493Y-33438493D01*
X43580288Y-33405842D01*
X43605037Y-33430591D01*
X43691614Y-33488440D01*
X43787813Y-33528287D01*
X43889937Y-33548600D01*
X43994063Y-33548600D01*
X44096187Y-33528287D01*
X44192386Y-33488440D01*
X44278963Y-33430591D01*
X44352591Y-33356963D01*
X44410440Y-33270386D01*
X44450287Y-33174187D01*
X44470600Y-33072063D01*
X44470600Y-32967937D01*
X44450287Y-32865813D01*
X44410440Y-32769614D01*
X44352591Y-32683037D01*
X44278963Y-32609409D01*
X44192386Y-32551560D01*
X44096187Y-32511713D01*
X43994063Y-32491400D01*
X43889937Y-32491400D01*
X43787813Y-32511713D01*
X43691614Y-32551560D01*
X43605037Y-32609409D01*
X43580288Y-32634158D01*
X43553493Y-32601507D01*
X43495953Y-32554286D01*
X43430307Y-32519197D01*
X43359077Y-32497590D01*
X43285000Y-32490294D01*
X42110000Y-32490294D01*
X42035923Y-32497590D01*
X41964693Y-32519197D01*
X41899047Y-32554286D01*
X41841507Y-32601507D01*
X41794286Y-32659047D01*
X41759197Y-32724693D01*
X41737590Y-32795923D01*
X41730294Y-32870000D01*
X41718600Y-32870000D01*
X41718600Y-32677020D01*
X41702993Y-32518558D01*
X41641317Y-32315241D01*
X41541162Y-32127863D01*
X41406375Y-31963625D01*
X41242137Y-31828838D01*
X41094640Y-31750000D01*
X41242137Y-31671162D01*
X41406375Y-31536375D01*
X41541162Y-31372137D01*
X41641317Y-31184758D01*
X41702993Y-30981441D01*
X41718600Y-30822979D01*
X41718600Y-30137020D01*
X41702993Y-29978558D01*
X41641317Y-29775241D01*
X41541162Y-29587863D01*
X41406375Y-29423625D01*
X41242137Y-29288838D01*
X41094640Y-29210000D01*
X41242137Y-29131162D01*
X41406375Y-28996375D01*
X41541162Y-28832137D01*
X41641317Y-28644758D01*
X41702993Y-28441441D01*
X41718600Y-28282979D01*
X41718600Y-27597020D01*
X41702993Y-27438558D01*
X41641317Y-27235241D01*
X41541162Y-27047863D01*
X41406375Y-26883625D01*
X41242137Y-26748838D01*
X41094640Y-26670000D01*
X41242137Y-26591162D01*
X41328903Y-26519955D01*
X42392701Y-27583753D01*
X42392700Y-31220294D01*
X42110000Y-31220294D01*
X42035923Y-31227590D01*
X41964693Y-31249197D01*
X41899047Y-31284286D01*
X41841507Y-31331507D01*
X41794286Y-31389047D01*
X41759197Y-31454693D01*
X41737590Y-31525923D01*
X41730294Y-31600000D01*
X41730294Y-31900000D01*
X41737590Y-31974077D01*
X41759197Y-32045307D01*
X41794286Y-32110953D01*
X41841507Y-32168493D01*
X41899047Y-32215714D01*
X41964693Y-32250803D01*
X42035923Y-32272410D01*
X42110000Y-32279706D01*
X43285000Y-32279706D01*
X43359077Y-32272410D01*
X43430307Y-32250803D01*
X43495953Y-32215714D01*
X43553493Y-32168493D01*
X43600714Y-32110953D01*
X43635803Y-32045307D01*
X43657410Y-31974077D01*
X43664706Y-31900000D01*
X43664706Y-31600000D01*
X43657410Y-31525923D01*
X43635803Y-31454693D01*
X43600714Y-31389047D01*
X43553493Y-31331507D01*
X43495953Y-31284286D01*
X43430307Y-31249197D01*
X43359077Y-31227590D01*
X43285000Y-31220294D01*
X43002300Y-31220294D01*
X43002300Y-27472457D01*
X43003773Y-27457499D01*
X43002300Y-27442541D01*
X43002300Y-27442534D01*
X42997889Y-27397749D01*
X42980460Y-27340294D01*
X42952158Y-27287343D01*
X42914068Y-27240932D01*
X42902444Y-27231392D01*
X41672620Y-26001568D01*
X41702993Y-25901441D01*
X41718600Y-25742979D01*
X41718600Y-25057020D01*
X41702993Y-24898558D01*
X41641317Y-24695241D01*
X41541162Y-24507863D01*
X41406375Y-24343625D01*
X41242137Y-24208838D01*
X41094640Y-24130000D01*
X41242137Y-24051162D01*
X41328903Y-23979955D01*
X44145201Y-26796253D01*
X44145200Y-29059271D01*
X44089047Y-29089286D01*
X44031507Y-29136507D01*
X43984286Y-29194047D01*
X43949197Y-29259693D01*
X43927590Y-29330923D01*
X43920294Y-29405000D01*
X43920294Y-30580000D01*
X43927590Y-30654077D01*
X43949197Y-30725307D01*
X43984286Y-30790953D01*
X44031507Y-30848493D01*
X44089047Y-30895714D01*
X44154693Y-30930803D01*
X44225923Y-30952410D01*
X44300000Y-30959706D01*
X44600000Y-30959706D01*
X44674077Y-30952410D01*
X44745307Y-30930803D01*
X44810953Y-30895714D01*
X44868493Y-30848493D01*
X44915714Y-30790953D01*
X44950803Y-30725307D01*
X44972410Y-30654077D01*
X44979706Y-30580000D01*
X44979706Y-29405000D01*
X44972410Y-29330923D01*
X44950803Y-29259693D01*
X44915714Y-29194047D01*
X44868493Y-29136507D01*
X44810953Y-29089286D01*
X44754800Y-29059271D01*
X44754800Y-26684958D01*
X44756273Y-26670000D01*
X44754800Y-26655042D01*
X44754800Y-26655034D01*
X44750389Y-26610249D01*
X44732960Y-26552794D01*
X44704658Y-26499843D01*
X44666568Y-26453432D01*
X44654944Y-26443892D01*
X41672619Y-23461568D01*
X41702993Y-23361441D01*
X41718600Y-23202979D01*
X41718600Y-22517020D01*
X41702993Y-22358558D01*
X41641317Y-22155241D01*
X41541162Y-21967863D01*
X41406375Y-21803625D01*
X41242137Y-21668838D01*
X41094640Y-21590000D01*
X41242137Y-21511162D01*
X41328903Y-21439955D01*
X45415201Y-25526253D01*
X45415200Y-29059271D01*
X45359047Y-29089286D01*
X45301507Y-29136507D01*
X45254286Y-29194047D01*
X45219197Y-29259693D01*
X45197590Y-29330923D01*
X45190294Y-29405000D01*
X45190294Y-30580000D01*
X45197590Y-30654077D01*
X45219197Y-30725307D01*
X45254286Y-30790953D01*
X45301507Y-30848493D01*
X45359047Y-30895714D01*
X45424693Y-30930803D01*
X45495923Y-30952410D01*
X45570000Y-30959706D01*
X45870000Y-30959706D01*
X45944077Y-30952410D01*
X46015307Y-30930803D01*
X46080953Y-30895714D01*
X46138493Y-30848493D01*
X46185714Y-30790953D01*
X46220803Y-30725307D01*
X46242410Y-30654077D01*
X46249706Y-30580000D01*
X46249706Y-29405000D01*
X46460294Y-29405000D01*
X46460294Y-30580000D01*
X46467590Y-30654077D01*
X46489197Y-30725307D01*
X46524286Y-30790953D01*
X46571507Y-30848493D01*
X46629047Y-30895714D01*
X46685201Y-30925729D01*
X46685200Y-33640042D01*
X46683727Y-33655000D01*
X46685200Y-33669958D01*
X46685200Y-33669965D01*
X46689611Y-33714750D01*
X46707040Y-33772205D01*
X46735342Y-33825156D01*
X46773432Y-33871568D01*
X46785061Y-33881112D01*
X49262946Y-36358998D01*
X49255400Y-36396937D01*
X49255400Y-36501063D01*
X49275713Y-36603187D01*
X49315560Y-36699386D01*
X49373409Y-36785963D01*
X49447037Y-36859591D01*
X49533614Y-36917440D01*
X49629813Y-36957287D01*
X49731937Y-36977600D01*
X49836063Y-36977600D01*
X49938187Y-36957287D01*
X50034386Y-36917440D01*
X50120963Y-36859591D01*
X50194591Y-36785963D01*
X50252440Y-36699386D01*
X50292287Y-36603187D01*
X50312600Y-36501063D01*
X50312600Y-36396937D01*
X50292287Y-36294813D01*
X50252440Y-36198614D01*
X50194591Y-36112037D01*
X50120963Y-36038409D01*
X50034386Y-35980560D01*
X49938187Y-35940713D01*
X49836063Y-35920400D01*
X49731937Y-35920400D01*
X49693998Y-35927946D01*
X47294800Y-33528749D01*
X47294800Y-30925729D01*
X47350953Y-30895714D01*
X47408493Y-30848493D01*
X47455714Y-30790953D01*
X47488294Y-30730000D01*
X47730294Y-30730000D01*
X47734708Y-30774813D01*
X47747779Y-30817905D01*
X47769006Y-30857618D01*
X47797573Y-30892427D01*
X47832382Y-30920994D01*
X47872095Y-30942221D01*
X47915187Y-30955292D01*
X47960000Y-30959706D01*
X48029050Y-30958600D01*
X48086200Y-30901450D01*
X48086200Y-30166300D01*
X48433800Y-30166300D01*
X48433800Y-30901450D01*
X48490950Y-30958600D01*
X48560000Y-30959706D01*
X48604813Y-30955292D01*
X48647905Y-30942221D01*
X48687618Y-30920994D01*
X48722427Y-30892427D01*
X48750994Y-30857618D01*
X48772221Y-30817905D01*
X48785292Y-30774813D01*
X48789706Y-30730000D01*
X48788600Y-30223450D01*
X48731450Y-30166300D01*
X48433800Y-30166300D01*
X48086200Y-30166300D01*
X47788550Y-30166300D01*
X47731400Y-30223450D01*
X47730294Y-30730000D01*
X47488294Y-30730000D01*
X47490803Y-30725307D01*
X47512410Y-30654077D01*
X47519706Y-30580000D01*
X47519706Y-29405000D01*
X47512410Y-29330923D01*
X47490803Y-29259693D01*
X47488295Y-29255000D01*
X47730294Y-29255000D01*
X47731400Y-29761550D01*
X47788550Y-29818700D01*
X48086200Y-29818700D01*
X48086200Y-29083550D01*
X48433800Y-29083550D01*
X48433800Y-29818700D01*
X48731450Y-29818700D01*
X48788600Y-29761550D01*
X48789706Y-29255000D01*
X48785292Y-29210187D01*
X48772221Y-29167095D01*
X48750994Y-29127382D01*
X48722427Y-29092573D01*
X48687618Y-29064006D01*
X48647905Y-29042779D01*
X48604813Y-29029708D01*
X48560000Y-29025294D01*
X48490950Y-29026400D01*
X48433800Y-29083550D01*
X48086200Y-29083550D01*
X48029050Y-29026400D01*
X47960000Y-29025294D01*
X47915187Y-29029708D01*
X47872095Y-29042779D01*
X47832382Y-29064006D01*
X47797573Y-29092573D01*
X47769006Y-29127382D01*
X47747779Y-29167095D01*
X47734708Y-29210187D01*
X47730294Y-29255000D01*
X47488295Y-29255000D01*
X47455714Y-29194047D01*
X47408493Y-29136507D01*
X47350953Y-29089286D01*
X47285307Y-29054197D01*
X47214077Y-29032590D01*
X47140000Y-29025294D01*
X46840000Y-29025294D01*
X46765923Y-29032590D01*
X46694693Y-29054197D01*
X46629047Y-29089286D01*
X46571507Y-29136507D01*
X46524286Y-29194047D01*
X46489197Y-29259693D01*
X46467590Y-29330923D01*
X46460294Y-29405000D01*
X46249706Y-29405000D01*
X46242410Y-29330923D01*
X46220803Y-29259693D01*
X46185714Y-29194047D01*
X46138493Y-29136507D01*
X46080953Y-29089286D01*
X46024800Y-29059271D01*
X46024800Y-27370000D01*
X47075294Y-27370000D01*
X47079708Y-27414813D01*
X47092779Y-27457905D01*
X47114006Y-27497618D01*
X47142573Y-27532427D01*
X47177382Y-27560994D01*
X47217095Y-27582221D01*
X47260187Y-27595292D01*
X47305000Y-27599706D01*
X47599050Y-27598600D01*
X47656200Y-27541450D01*
X47656200Y-26843800D01*
X48003800Y-26843800D01*
X48003800Y-27541450D01*
X48060950Y-27598600D01*
X48355000Y-27599706D01*
X48399813Y-27595292D01*
X48442905Y-27582221D01*
X48482618Y-27560994D01*
X48517427Y-27532427D01*
X48545994Y-27497618D01*
X48567221Y-27457905D01*
X48580292Y-27414813D01*
X48584706Y-27370000D01*
X48583600Y-26900950D01*
X48526450Y-26843800D01*
X48003800Y-26843800D01*
X47656200Y-26843800D01*
X47133550Y-26843800D01*
X47076400Y-26900950D01*
X47075294Y-27370000D01*
X46024800Y-27370000D01*
X46024800Y-25970000D01*
X47075294Y-25970000D01*
X47076400Y-26439050D01*
X47133550Y-26496200D01*
X47656200Y-26496200D01*
X47656200Y-25798550D01*
X48003800Y-25798550D01*
X48003800Y-26496200D01*
X48526450Y-26496200D01*
X48583600Y-26439050D01*
X48584706Y-25970000D01*
X48580292Y-25925187D01*
X48567221Y-25882095D01*
X48545994Y-25842382D01*
X48517427Y-25807573D01*
X48482618Y-25779006D01*
X48442905Y-25757779D01*
X48399813Y-25744708D01*
X48355000Y-25740294D01*
X48060950Y-25741400D01*
X48003800Y-25798550D01*
X47656200Y-25798550D01*
X47599050Y-25741400D01*
X47305000Y-25740294D01*
X47260187Y-25744708D01*
X47217095Y-25757779D01*
X47177382Y-25779006D01*
X47142573Y-25807573D01*
X47114006Y-25842382D01*
X47092779Y-25882095D01*
X47079708Y-25925187D01*
X47075294Y-25970000D01*
X46024800Y-25970000D01*
X46024800Y-25414958D01*
X46026273Y-25400000D01*
X46024800Y-25385042D01*
X46024800Y-25385034D01*
X46020389Y-25340249D01*
X46002960Y-25282794D01*
X45974658Y-25229843D01*
X45936568Y-25183432D01*
X45924944Y-25173892D01*
X41672619Y-20921568D01*
X41702993Y-20821441D01*
X41718600Y-20662979D01*
X41718600Y-20206617D01*
X42028800Y-20206617D01*
X42028800Y-20433383D01*
X42073040Y-20655793D01*
X42159820Y-20865298D01*
X42285805Y-21053847D01*
X42446153Y-21214195D01*
X42634702Y-21340180D01*
X42844207Y-21426960D01*
X43066617Y-21471200D01*
X43293383Y-21471200D01*
X43515793Y-21426960D01*
X43725298Y-21340180D01*
X43913847Y-21214195D01*
X44074195Y-21053847D01*
X44200180Y-20865298D01*
X44286960Y-20655793D01*
X44331200Y-20433383D01*
X44331200Y-20206617D01*
X44286960Y-19984207D01*
X44200180Y-19774702D01*
X44074195Y-19586153D01*
X43913847Y-19425805D01*
X43725298Y-19299820D01*
X43515793Y-19213040D01*
X43293383Y-19168800D01*
X43066617Y-19168800D01*
X42844207Y-19213040D01*
X42634702Y-19299820D01*
X42446153Y-19425805D01*
X42285805Y-19586153D01*
X42159820Y-19774702D01*
X42073040Y-19984207D01*
X42028800Y-20206617D01*
X41718600Y-20206617D01*
X41718600Y-19977020D01*
X41702993Y-19818558D01*
X41641317Y-19615241D01*
X41541162Y-19427863D01*
X41406375Y-19263625D01*
X41242137Y-19128838D01*
X41187436Y-19099600D01*
X55332564Y-19099600D01*
X55277863Y-19128838D01*
X55277863Y-19128838D01*
G37*
X55277863Y-19128838D02*
X55113625Y-19263625D01*
X54978838Y-19427863D01*
X54878683Y-19615242D01*
X54849817Y-19710400D01*
X54639938Y-19710400D01*
X54609999Y-19707451D01*
X54580060Y-19710400D01*
X54580059Y-19710400D01*
X54490498Y-19719221D01*
X54375588Y-19754079D01*
X54269686Y-19810684D01*
X54176862Y-19886862D01*
X54157774Y-19910121D01*
X51660129Y-22407768D01*
X51660118Y-22407777D01*
X51636863Y-22426862D01*
X51617779Y-22450116D01*
X50834632Y-23233265D01*
X50811362Y-23252362D01*
X50792269Y-23275627D01*
X49120127Y-24947770D01*
X49096863Y-24966862D01*
X49022873Y-25057020D01*
X49020685Y-25059686D01*
X48964080Y-25165588D01*
X48929221Y-25280498D01*
X48917451Y-25400000D01*
X48920401Y-25429951D01*
X48920401Y-25883684D01*
X48919458Y-25884458D01*
X48858246Y-25959045D01*
X48812761Y-26044141D01*
X48784752Y-26136475D01*
X48775294Y-26232500D01*
X48775294Y-27107500D01*
X48784752Y-27203525D01*
X48812761Y-27295859D01*
X48858246Y-27380955D01*
X48919458Y-27455542D01*
X48994045Y-27516754D01*
X49047401Y-27545273D01*
X49047400Y-29225638D01*
X49029197Y-29259693D01*
X49007590Y-29330923D01*
X49000294Y-29405000D01*
X49000294Y-30580000D01*
X49007590Y-30654077D01*
X49029197Y-30725307D01*
X49064286Y-30790953D01*
X49111507Y-30848493D01*
X49169047Y-30895714D01*
X49234693Y-30930803D01*
X49305923Y-30952410D01*
X49380000Y-30959706D01*
X49680000Y-30959706D01*
X49754077Y-30952410D01*
X49825307Y-30930803D01*
X49890953Y-30895714D01*
X49948493Y-30848493D01*
X49995714Y-30790953D01*
X50030803Y-30725307D01*
X50052410Y-30654077D01*
X50059706Y-30580000D01*
X50059706Y-29405000D01*
X50270294Y-29405000D01*
X50270294Y-30580000D01*
X50277590Y-30654077D01*
X50299197Y-30725307D01*
X50334286Y-30790953D01*
X50381507Y-30848493D01*
X50439047Y-30895714D01*
X50504693Y-30930803D01*
X50575923Y-30952410D01*
X50650000Y-30959706D01*
X50950000Y-30959706D01*
X51024077Y-30952410D01*
X51095307Y-30930803D01*
X51160953Y-30895714D01*
X51218493Y-30848493D01*
X51265714Y-30790953D01*
X51298294Y-30730000D01*
X51540294Y-30730000D01*
X51544708Y-30774813D01*
X51557779Y-30817905D01*
X51579006Y-30857618D01*
X51607573Y-30892427D01*
X51642382Y-30920994D01*
X51682095Y-30942221D01*
X51725187Y-30955292D01*
X51770000Y-30959706D01*
X51839050Y-30958600D01*
X51896200Y-30901450D01*
X51896200Y-30166300D01*
X52243800Y-30166300D01*
X52243800Y-30901450D01*
X52300950Y-30958600D01*
X52370000Y-30959706D01*
X52414813Y-30955292D01*
X52457905Y-30942221D01*
X52497618Y-30920994D01*
X52532427Y-30892427D01*
X52560994Y-30857618D01*
X52582221Y-30817905D01*
X52595292Y-30774813D01*
X52599706Y-30730000D01*
X52598600Y-30223450D01*
X52541450Y-30166300D01*
X52243800Y-30166300D01*
X51896200Y-30166300D01*
X51598550Y-30166300D01*
X51541400Y-30223450D01*
X51540294Y-30730000D01*
X51298294Y-30730000D01*
X51300803Y-30725307D01*
X51322410Y-30654077D01*
X51329706Y-30580000D01*
X51329706Y-29405000D01*
X51322410Y-29330923D01*
X51300803Y-29259693D01*
X51298295Y-29255000D01*
X51540294Y-29255000D01*
X51541400Y-29761550D01*
X51598550Y-29818700D01*
X51896200Y-29818700D01*
X51896200Y-29083550D01*
X52243800Y-29083550D01*
X52243800Y-29818700D01*
X52541450Y-29818700D01*
X52598600Y-29761550D01*
X52599706Y-29255000D01*
X52595292Y-29210187D01*
X52582221Y-29167095D01*
X52560994Y-29127382D01*
X52532427Y-29092573D01*
X52497618Y-29064006D01*
X52457905Y-29042779D01*
X52414813Y-29029708D01*
X52370000Y-29025294D01*
X52300950Y-29026400D01*
X52243800Y-29083550D01*
X51896200Y-29083550D01*
X51839050Y-29026400D01*
X51770000Y-29025294D01*
X51725187Y-29029708D01*
X51682095Y-29042779D01*
X51642382Y-29064006D01*
X51607573Y-29092573D01*
X51579006Y-29127382D01*
X51557779Y-29167095D01*
X51544708Y-29210187D01*
X51540294Y-29255000D01*
X51298295Y-29255000D01*
X51265714Y-29194047D01*
X51218493Y-29136507D01*
X51160953Y-29089286D01*
X51104800Y-29059271D01*
X51104800Y-28701251D01*
X51307252Y-28498800D01*
X51674042Y-28498800D01*
X51689000Y-28500273D01*
X51703958Y-28498800D01*
X51703966Y-28498800D01*
X51748751Y-28494389D01*
X51806206Y-28476960D01*
X51859157Y-28448658D01*
X51905568Y-28410568D01*
X51915112Y-28398939D01*
X52274944Y-28039108D01*
X52286568Y-28029568D01*
X52324658Y-27983157D01*
X52352960Y-27930206D01*
X52370389Y-27872751D01*
X52374800Y-27827966D01*
X52374800Y-27827959D01*
X52376273Y-27813001D01*
X52374800Y-27798043D01*
X52374800Y-27639706D01*
X52557500Y-27639706D01*
X52643770Y-27631209D01*
X52726725Y-27606045D01*
X52803176Y-27565181D01*
X52870187Y-27510187D01*
X52925181Y-27443176D01*
X52966045Y-27366725D01*
X52991209Y-27283770D01*
X52999706Y-27197500D01*
X52999706Y-26772500D01*
X52991209Y-26686230D01*
X52966045Y-26603275D01*
X52925181Y-26526824D01*
X52870187Y-26459813D01*
X52803176Y-26404819D01*
X52726725Y-26363955D01*
X52643770Y-26338791D01*
X52557500Y-26330294D01*
X51582500Y-26330294D01*
X51496230Y-26338791D01*
X51413275Y-26363955D01*
X51336824Y-26404819D01*
X51269813Y-26459813D01*
X51214819Y-26526824D01*
X51173955Y-26603275D01*
X51148791Y-26686230D01*
X51140294Y-26772500D01*
X51140294Y-27197500D01*
X51148791Y-27283770D01*
X51173955Y-27366725D01*
X51214819Y-27443176D01*
X51269813Y-27510187D01*
X51336824Y-27565181D01*
X51413275Y-27606045D01*
X51496230Y-27631209D01*
X51582500Y-27639706D01*
X51765201Y-27639706D01*
X51765201Y-27686747D01*
X51562749Y-27889200D01*
X51195957Y-27889200D01*
X51180999Y-27887727D01*
X51166041Y-27889200D01*
X51166034Y-27889200D01*
X51126889Y-27893055D01*
X51121248Y-27893611D01*
X51103819Y-27898898D01*
X51063794Y-27911040D01*
X51010843Y-27939342D01*
X50964432Y-27977432D01*
X50954892Y-27989056D01*
X50595061Y-28348888D01*
X50583432Y-28358432D01*
X50545342Y-28404844D01*
X50517040Y-28457795D01*
X50499611Y-28515250D01*
X50495200Y-28560035D01*
X50495200Y-28560042D01*
X50493727Y-28575000D01*
X50495200Y-28589958D01*
X50495200Y-29059271D01*
X50439047Y-29089286D01*
X50381507Y-29136507D01*
X50334286Y-29194047D01*
X50299197Y-29259693D01*
X50277590Y-29330923D01*
X50270294Y-29405000D01*
X50059706Y-29405000D01*
X50052410Y-29330923D01*
X50030803Y-29259693D01*
X50012600Y-29225638D01*
X50012600Y-27545273D01*
X50065955Y-27516754D01*
X50140542Y-27455542D01*
X50201754Y-27380955D01*
X50247239Y-27295859D01*
X50275248Y-27203525D01*
X50284706Y-27107500D01*
X50284706Y-26232500D01*
X50275248Y-26136475D01*
X50247239Y-26044141D01*
X50201754Y-25959045D01*
X50140542Y-25884458D01*
X50139600Y-25883685D01*
X50139600Y-25652503D01*
X51460401Y-24331703D01*
X51460401Y-24449660D01*
X51413275Y-24463955D01*
X51336824Y-24504819D01*
X51269813Y-24559813D01*
X51214819Y-24626824D01*
X51173955Y-24703275D01*
X51148791Y-24786230D01*
X51140294Y-24872500D01*
X51140294Y-25297500D01*
X51148791Y-25383770D01*
X51173955Y-25466725D01*
X51214819Y-25543176D01*
X51269813Y-25610187D01*
X51336824Y-25665181D01*
X51413275Y-25706045D01*
X51496230Y-25731209D01*
X51582500Y-25739706D01*
X52557500Y-25739706D01*
X52643770Y-25731209D01*
X52726725Y-25706045D01*
X52803176Y-25665181D01*
X52870187Y-25610187D01*
X52925181Y-25543176D01*
X52966045Y-25466725D01*
X52991209Y-25383770D01*
X52999706Y-25297500D01*
X52999706Y-24872500D01*
X52991209Y-24786230D01*
X52966045Y-24703275D01*
X52925181Y-24626824D01*
X52870187Y-24559813D01*
X52803176Y-24504819D01*
X52726725Y-24463955D01*
X52679600Y-24449660D01*
X52679600Y-24032940D01*
X52682549Y-24003000D01*
X52679600Y-23973058D01*
X52679600Y-23112503D01*
X54852770Y-20939335D01*
X54878684Y-21024759D01*
X54978839Y-21212137D01*
X55113626Y-21376375D01*
X55277864Y-21511162D01*
X55425360Y-21590000D01*
X55277863Y-21668838D01*
X55113625Y-21803625D01*
X54978838Y-21967863D01*
X54878683Y-22155242D01*
X54817007Y-22358559D01*
X54801400Y-22517021D01*
X54801400Y-23202980D01*
X54817007Y-23361442D01*
X54847381Y-23461568D01*
X53617557Y-24691392D01*
X53605933Y-24700932D01*
X53567843Y-24747343D01*
X53552715Y-24775646D01*
X53539540Y-24800295D01*
X53522111Y-24857749D01*
X53516227Y-24917500D01*
X53517701Y-24932468D01*
X53517700Y-31220294D01*
X53235000Y-31220294D01*
X53160923Y-31227590D01*
X53089693Y-31249197D01*
X53024047Y-31284286D01*
X52966507Y-31331507D01*
X52919286Y-31389047D01*
X52884197Y-31454693D01*
X52862590Y-31525923D01*
X52855294Y-31600000D01*
X52855294Y-31900000D01*
X52862590Y-31974077D01*
X52884197Y-32045307D01*
X52919286Y-32110953D01*
X52966507Y-32168493D01*
X53024047Y-32215714D01*
X53089693Y-32250803D01*
X53160923Y-32272410D01*
X53235000Y-32279706D01*
X54410000Y-32279706D01*
X54484077Y-32272410D01*
X54555307Y-32250803D01*
X54620953Y-32215714D01*
X54678493Y-32168493D01*
X54725714Y-32110953D01*
X54760803Y-32045307D01*
X54782410Y-31974077D01*
X54789706Y-31900000D01*
X54789706Y-31600000D01*
X54782410Y-31525923D01*
X54760803Y-31454693D01*
X54725714Y-31389047D01*
X54678493Y-31331507D01*
X54620953Y-31284286D01*
X54555307Y-31249197D01*
X54484077Y-31227590D01*
X54410000Y-31220294D01*
X54127300Y-31220294D01*
X54127300Y-25043751D01*
X55191097Y-23979954D01*
X55277864Y-24051162D01*
X55425360Y-24130000D01*
X55277863Y-24208838D01*
X55113625Y-24343625D01*
X54978838Y-24507863D01*
X54878683Y-24695242D01*
X54817007Y-24898559D01*
X54801400Y-25057021D01*
X54801400Y-25742980D01*
X54817007Y-25901442D01*
X54878684Y-26104759D01*
X54978839Y-26292137D01*
X55113626Y-26456375D01*
X55277864Y-26591162D01*
X55425360Y-26670000D01*
X55277863Y-26748838D01*
X55113625Y-26883625D01*
X54978838Y-27047863D01*
X54878683Y-27235242D01*
X54817007Y-27438559D01*
X54801400Y-27597021D01*
X54801400Y-28282980D01*
X54817007Y-28441442D01*
X54878684Y-28644759D01*
X54978839Y-28832137D01*
X55113626Y-28996375D01*
X55277864Y-29131162D01*
X55425360Y-29210000D01*
X55277863Y-29288838D01*
X55113625Y-29423625D01*
X54978838Y-29587863D01*
X54878683Y-29775242D01*
X54817007Y-29978559D01*
X54801400Y-30137021D01*
X54801400Y-30822980D01*
X54817007Y-30981442D01*
X54878684Y-31184759D01*
X54978839Y-31372137D01*
X55113626Y-31536375D01*
X55277864Y-31671162D01*
X55425360Y-31750000D01*
X55277863Y-31828838D01*
X55113625Y-31963625D01*
X54978838Y-32127863D01*
X54878683Y-32315242D01*
X54817007Y-32518559D01*
X54801400Y-32677021D01*
X54801400Y-33350200D01*
X54742152Y-33350200D01*
X54760803Y-33315307D01*
X54782410Y-33244077D01*
X54789706Y-33170000D01*
X54789706Y-32870000D01*
X54782410Y-32795923D01*
X54760803Y-32724693D01*
X54725714Y-32659047D01*
X54678493Y-32601507D01*
X54620953Y-32554286D01*
X54555307Y-32519197D01*
X54484077Y-32497590D01*
X54410000Y-32490294D01*
X53235000Y-32490294D01*
X53160923Y-32497590D01*
X53089693Y-32519197D01*
X53024047Y-32554286D01*
X52966507Y-32601507D01*
X52939712Y-32634158D01*
X52914963Y-32609409D01*
X52828386Y-32551560D01*
X52732187Y-32511713D01*
X52630063Y-32491400D01*
X52525937Y-32491400D01*
X52423813Y-32511713D01*
X52327614Y-32551560D01*
X52241037Y-32609409D01*
X52167409Y-32683037D01*
X52109560Y-32769614D01*
X52069713Y-32865813D01*
X52049400Y-32967937D01*
X52049400Y-33072063D01*
X52069713Y-33174187D01*
X52109560Y-33270386D01*
X52162890Y-33350200D01*
X51957958Y-33350200D01*
X51943000Y-33348727D01*
X51928042Y-33350200D01*
X51928034Y-33350200D01*
X51883249Y-33354611D01*
X51825794Y-33372040D01*
X51772843Y-33400342D01*
X51726432Y-33438432D01*
X51716892Y-33450056D01*
X51103061Y-34063888D01*
X51091432Y-34073432D01*
X51053342Y-34119844D01*
X51025040Y-34172795D01*
X51007611Y-34230250D01*
X51003200Y-34275035D01*
X51003200Y-34275042D01*
X51001727Y-34290000D01*
X51003200Y-34304958D01*
X51003201Y-36180032D01*
X51001727Y-36195000D01*
X51007611Y-36254751D01*
X51025040Y-36312205D01*
X51035511Y-36331794D01*
X51053343Y-36365157D01*
X51091433Y-36411568D01*
X51103056Y-36421108D01*
X51716892Y-37034944D01*
X51726432Y-37046568D01*
X51772843Y-37084658D01*
X51825794Y-37112960D01*
X51883249Y-37130389D01*
X51928034Y-37134800D01*
X51928042Y-37134800D01*
X51943000Y-37136273D01*
X51957958Y-37134800D01*
X52889271Y-37134800D01*
X52919286Y-37190953D01*
X52966507Y-37248493D01*
X53024047Y-37295714D01*
X53089693Y-37330803D01*
X53160923Y-37352410D01*
X53235000Y-37359706D01*
X54410000Y-37359706D01*
X54484077Y-37352410D01*
X54555307Y-37330803D01*
X54620953Y-37295714D01*
X54678493Y-37248493D01*
X54725714Y-37190953D01*
X54760803Y-37125307D01*
X54782410Y-37054077D01*
X54789706Y-36980000D01*
X54789706Y-36680000D01*
X54782410Y-36605923D01*
X54760803Y-36534693D01*
X54725714Y-36469047D01*
X54678493Y-36411507D01*
X54620953Y-36364286D01*
X54555307Y-36329197D01*
X54484077Y-36307590D01*
X54410000Y-36300294D01*
X53235000Y-36300294D01*
X53160923Y-36307590D01*
X53089693Y-36329197D01*
X53024047Y-36364286D01*
X52966507Y-36411507D01*
X52919286Y-36469047D01*
X52889271Y-36525200D01*
X52069252Y-36525200D01*
X51612800Y-36068749D01*
X51612800Y-35507937D01*
X52049400Y-35507937D01*
X52049400Y-35612063D01*
X52069713Y-35714187D01*
X52109560Y-35810386D01*
X52167409Y-35896963D01*
X52241037Y-35970591D01*
X52327614Y-36028440D01*
X52423813Y-36068287D01*
X52525937Y-36088600D01*
X52630063Y-36088600D01*
X52732187Y-36068287D01*
X52828386Y-36028440D01*
X52914963Y-35970591D01*
X52939712Y-35945842D01*
X52966507Y-35978493D01*
X53024047Y-36025714D01*
X53089693Y-36060803D01*
X53160923Y-36082410D01*
X53235000Y-36089706D01*
X54410000Y-36089706D01*
X54484077Y-36082410D01*
X54555307Y-36060803D01*
X54620953Y-36025714D01*
X54678493Y-35978493D01*
X54725714Y-35920953D01*
X54760803Y-35855307D01*
X54782410Y-35784077D01*
X54789706Y-35710000D01*
X54789706Y-35410000D01*
X54782410Y-35335923D01*
X54760803Y-35264693D01*
X54725714Y-35199047D01*
X54678493Y-35141507D01*
X54620953Y-35094286D01*
X54555307Y-35059197D01*
X54484077Y-35037590D01*
X54410000Y-35030294D01*
X53235000Y-35030294D01*
X53160923Y-35037590D01*
X53089693Y-35059197D01*
X53024047Y-35094286D01*
X52966507Y-35141507D01*
X52939712Y-35174158D01*
X52914963Y-35149409D01*
X52828386Y-35091560D01*
X52732187Y-35051713D01*
X52630063Y-35031400D01*
X52525937Y-35031400D01*
X52423813Y-35051713D01*
X52327614Y-35091560D01*
X52241037Y-35149409D01*
X52167409Y-35223037D01*
X52109560Y-35309614D01*
X52069713Y-35405813D01*
X52049400Y-35507937D01*
X51612800Y-35507937D01*
X51612800Y-34416251D01*
X52069252Y-33959800D01*
X52162890Y-33959800D01*
X52109560Y-34039614D01*
X52069713Y-34135813D01*
X52049400Y-34237937D01*
X52049400Y-34342063D01*
X52069713Y-34444187D01*
X52109560Y-34540386D01*
X52167409Y-34626963D01*
X52241037Y-34700591D01*
X52327614Y-34758440D01*
X52423813Y-34798287D01*
X52525937Y-34818600D01*
X52630063Y-34818600D01*
X52732187Y-34798287D01*
X52828386Y-34758440D01*
X52914963Y-34700591D01*
X52939712Y-34675842D01*
X52966507Y-34708493D01*
X53024047Y-34755714D01*
X53089693Y-34790803D01*
X53160923Y-34812410D01*
X53235000Y-34819706D01*
X54410000Y-34819706D01*
X54484077Y-34812410D01*
X54555307Y-34790803D01*
X54620953Y-34755714D01*
X54678493Y-34708493D01*
X54725714Y-34650953D01*
X54760803Y-34585307D01*
X54782410Y-34514077D01*
X54789706Y-34440000D01*
X54789706Y-34140000D01*
X54782410Y-34065923D01*
X54760803Y-33994693D01*
X54742152Y-33959800D01*
X55017955Y-33959800D01*
X55113626Y-34076375D01*
X55277864Y-34211162D01*
X55425360Y-34290000D01*
X55277863Y-34368838D01*
X55113625Y-34503625D01*
X54978838Y-34667863D01*
X54878683Y-34855242D01*
X54817007Y-35058559D01*
X54801400Y-35217021D01*
X54801400Y-35902980D01*
X54817007Y-36061442D01*
X54878684Y-36264759D01*
X54978839Y-36452137D01*
X55113626Y-36616375D01*
X55277864Y-36751162D01*
X55425360Y-36830000D01*
X55277863Y-36908838D01*
X55113625Y-37043625D01*
X54978838Y-37207863D01*
X54878683Y-37395242D01*
X54817007Y-37598559D01*
X54801400Y-37757021D01*
X54801400Y-38442980D01*
X54817007Y-38601442D01*
X54878684Y-38804759D01*
X54964548Y-38965401D01*
X54864749Y-39065200D01*
X54755729Y-39065200D01*
X54725714Y-39009047D01*
X54678493Y-38951507D01*
X54620953Y-38904286D01*
X54555307Y-38869197D01*
X54484077Y-38847590D01*
X54410000Y-38840294D01*
X53235000Y-38840294D01*
X53160923Y-38847590D01*
X53089693Y-38869197D01*
X53024047Y-38904286D01*
X52966507Y-38951507D01*
X52919286Y-39009047D01*
X52884197Y-39074693D01*
X52862590Y-39145923D01*
X52855294Y-39220000D01*
X52855294Y-39520000D01*
X52862590Y-39594077D01*
X52884197Y-39665307D01*
X52919286Y-39730953D01*
X52966507Y-39788493D01*
X53024047Y-39835714D01*
X53089693Y-39870803D01*
X53160923Y-39892410D01*
X53235000Y-39899706D01*
X54410000Y-39899706D01*
X54484077Y-39892410D01*
X54555307Y-39870803D01*
X54620953Y-39835714D01*
X54678493Y-39788493D01*
X54725714Y-39730953D01*
X54755729Y-39674800D01*
X54976042Y-39674800D01*
X54991000Y-39676273D01*
X55005958Y-39674800D01*
X55005966Y-39674800D01*
X55041687Y-39671282D01*
X54978838Y-39747863D01*
X54878683Y-39935242D01*
X54817007Y-40138559D01*
X54801400Y-40297021D01*
X54801400Y-40335200D01*
X54755729Y-40335200D01*
X54725714Y-40279047D01*
X54678493Y-40221507D01*
X54620953Y-40174286D01*
X54555307Y-40139197D01*
X54484077Y-40117590D01*
X54410000Y-40110294D01*
X53235000Y-40110294D01*
X53160923Y-40117590D01*
X53089693Y-40139197D01*
X53024047Y-40174286D01*
X52966507Y-40221507D01*
X52919286Y-40279047D01*
X52884197Y-40344693D01*
X52862590Y-40415923D01*
X52855294Y-40490000D01*
X52855294Y-40790000D01*
X52862590Y-40864077D01*
X52884197Y-40935307D01*
X52919286Y-41000953D01*
X52966507Y-41058493D01*
X53024047Y-41105714D01*
X53089693Y-41140803D01*
X53160923Y-41162410D01*
X53235000Y-41169706D01*
X54410000Y-41169706D01*
X54484077Y-41162410D01*
X54555307Y-41140803D01*
X54620953Y-41105714D01*
X54678493Y-41058493D01*
X54725714Y-41000953D01*
X54755729Y-40944800D01*
X54801400Y-40944800D01*
X54801400Y-40982980D01*
X54817007Y-41141442D01*
X54878684Y-41344759D01*
X54978839Y-41532137D01*
X55041688Y-41608718D01*
X55005966Y-41605200D01*
X55005958Y-41605200D01*
X54991000Y-41603727D01*
X54976042Y-41605200D01*
X54755729Y-41605200D01*
X54725714Y-41549047D01*
X54678493Y-41491507D01*
X54620953Y-41444286D01*
X54555307Y-41409197D01*
X54484077Y-41387590D01*
X54410000Y-41380294D01*
X53235000Y-41380294D01*
X53160923Y-41387590D01*
X53089693Y-41409197D01*
X53024047Y-41444286D01*
X52966507Y-41491507D01*
X52919286Y-41549047D01*
X52884197Y-41614693D01*
X52862590Y-41685923D01*
X52855294Y-41760000D01*
X52855294Y-42060000D01*
X52862590Y-42134077D01*
X52884197Y-42205307D01*
X52919286Y-42270953D01*
X52966507Y-42328493D01*
X53024047Y-42375714D01*
X53089693Y-42410803D01*
X53160923Y-42432410D01*
X53235000Y-42439706D01*
X54410000Y-42439706D01*
X54484077Y-42432410D01*
X54555307Y-42410803D01*
X54620953Y-42375714D01*
X54678493Y-42328493D01*
X54725714Y-42270953D01*
X54755729Y-42214800D01*
X54864749Y-42214800D01*
X54964548Y-42314599D01*
X54878683Y-42475242D01*
X54817007Y-42678559D01*
X54801400Y-42837021D01*
X54801400Y-43522980D01*
X54817007Y-43681442D01*
X54878684Y-43884759D01*
X54978839Y-44072137D01*
X55113626Y-44236375D01*
X55277864Y-44371162D01*
X55425360Y-44450000D01*
X55277863Y-44528838D01*
X55191097Y-44600045D01*
X54053612Y-43462561D01*
X54044068Y-43450932D01*
X53997657Y-43412842D01*
X53944706Y-43384540D01*
X53887251Y-43367111D01*
X53842466Y-43362700D01*
X53842458Y-43362700D01*
X53827500Y-43361227D01*
X53812542Y-43362700D01*
X52599706Y-43362700D01*
X52599706Y-43080000D01*
X52592410Y-43005923D01*
X52570803Y-42934693D01*
X52535714Y-42869047D01*
X52488493Y-42811507D01*
X52430953Y-42764286D01*
X52365307Y-42729197D01*
X52294077Y-42707590D01*
X52220000Y-42700294D01*
X51920000Y-42700294D01*
X51845923Y-42707590D01*
X51774693Y-42729197D01*
X51709047Y-42764286D01*
X51651507Y-42811507D01*
X51604286Y-42869047D01*
X51569197Y-42934693D01*
X51547590Y-43005923D01*
X51540294Y-43080000D01*
X51540294Y-44255000D01*
X51547590Y-44329077D01*
X51569197Y-44400307D01*
X51604286Y-44465953D01*
X51651507Y-44523493D01*
X51709047Y-44570714D01*
X51774693Y-44605803D01*
X51845923Y-44627410D01*
X51920000Y-44634706D01*
X52220000Y-44634706D01*
X52294077Y-44627410D01*
X52365307Y-44605803D01*
X52430953Y-44570714D01*
X52488493Y-44523493D01*
X52535714Y-44465953D01*
X52570803Y-44400307D01*
X52592410Y-44329077D01*
X52599706Y-44255000D01*
X52599706Y-43972300D01*
X53701249Y-43972300D01*
X54847380Y-45118432D01*
X54817007Y-45218559D01*
X54801400Y-45377021D01*
X54801400Y-46062980D01*
X54817007Y-46221442D01*
X54878684Y-46424759D01*
X54978839Y-46612137D01*
X55113626Y-46776375D01*
X55277864Y-46911162D01*
X55425360Y-46990000D01*
X55277863Y-47068838D01*
X55113625Y-47203625D01*
X54978838Y-47367863D01*
X54878683Y-47555242D01*
X54817007Y-47758559D01*
X54801400Y-47917021D01*
X54801400Y-47955200D01*
X54355252Y-47955200D01*
X51104800Y-44704749D01*
X51104800Y-44600729D01*
X51160953Y-44570714D01*
X51218493Y-44523493D01*
X51265714Y-44465953D01*
X51300803Y-44400307D01*
X51322410Y-44329077D01*
X51329706Y-44255000D01*
X51329706Y-43080000D01*
X51322410Y-43005923D01*
X51300803Y-42934693D01*
X51265714Y-42869047D01*
X51218493Y-42811507D01*
X51160953Y-42764286D01*
X51095307Y-42729197D01*
X51024077Y-42707590D01*
X50950000Y-42700294D01*
X50650000Y-42700294D01*
X50575923Y-42707590D01*
X50504693Y-42729197D01*
X50439047Y-42764286D01*
X50381507Y-42811507D01*
X50334286Y-42869047D01*
X50299197Y-42934693D01*
X50277590Y-43005923D01*
X50270294Y-43080000D01*
X50270294Y-44255000D01*
X50277590Y-44329077D01*
X50299197Y-44400307D01*
X50334286Y-44465953D01*
X50381507Y-44523493D01*
X50439047Y-44570714D01*
X50495201Y-44600729D01*
X50495201Y-44816032D01*
X50493727Y-44831000D01*
X50499611Y-44890751D01*
X50517040Y-44948205D01*
X50517041Y-44948206D01*
X50545343Y-45001157D01*
X50583433Y-45047568D01*
X50595057Y-45057108D01*
X54002892Y-48464944D01*
X54012432Y-48476568D01*
X54058843Y-48514658D01*
X54111794Y-48542960D01*
X54155876Y-48556332D01*
X54169248Y-48560389D01*
X54174889Y-48560945D01*
X54214034Y-48564800D01*
X54214041Y-48564800D01*
X54228999Y-48566273D01*
X54243957Y-48564800D01*
X54801400Y-48564800D01*
X54801400Y-48602980D01*
X54817007Y-48761442D01*
X54878684Y-48964759D01*
X54978839Y-49152137D01*
X55113626Y-49316375D01*
X55277864Y-49451162D01*
X55425360Y-49530000D01*
X55277863Y-49608838D01*
X55113625Y-49743625D01*
X55005467Y-49875415D01*
X49834800Y-44704749D01*
X49834800Y-44600729D01*
X49890953Y-44570714D01*
X49948493Y-44523493D01*
X49995714Y-44465953D01*
X50030803Y-44400307D01*
X50052410Y-44329077D01*
X50059706Y-44255000D01*
X50059706Y-43080000D01*
X50052410Y-43005923D01*
X50030803Y-42934693D01*
X49995714Y-42869047D01*
X49948493Y-42811507D01*
X49890953Y-42764286D01*
X49825307Y-42729197D01*
X49754077Y-42707590D01*
X49680000Y-42700294D01*
X49380000Y-42700294D01*
X49305923Y-42707590D01*
X49234693Y-42729197D01*
X49169047Y-42764286D01*
X49111507Y-42811507D01*
X49064286Y-42869047D01*
X49029197Y-42934693D01*
X49007590Y-43005923D01*
X49000294Y-43080000D01*
X49000294Y-44255000D01*
X49007590Y-44329077D01*
X49029197Y-44400307D01*
X49064286Y-44465953D01*
X49111507Y-44523493D01*
X49169047Y-44570714D01*
X49225201Y-44600729D01*
X49225201Y-44816032D01*
X49223727Y-44831000D01*
X49229611Y-44890751D01*
X49247040Y-44948205D01*
X49247041Y-44948206D01*
X49275343Y-45001157D01*
X49313433Y-45047568D01*
X49325057Y-45057108D01*
X54801400Y-50533452D01*
X54801400Y-51142980D01*
X54817007Y-51301442D01*
X54878684Y-51504759D01*
X54978839Y-51692137D01*
X55113626Y-51856375D01*
X55277864Y-51991162D01*
X55425360Y-52070000D01*
X55277863Y-52148838D01*
X55191097Y-52220045D01*
X48564800Y-45593749D01*
X48564800Y-44600729D01*
X48620953Y-44570714D01*
X48678493Y-44523493D01*
X48725714Y-44465953D01*
X48760803Y-44400307D01*
X48782410Y-44329077D01*
X48789706Y-44255000D01*
X48789706Y-43080000D01*
X48782410Y-43005923D01*
X48760803Y-42934693D01*
X48725714Y-42869047D01*
X48678493Y-42811507D01*
X48620953Y-42764286D01*
X48555307Y-42729197D01*
X48484077Y-42707590D01*
X48410000Y-42700294D01*
X48110000Y-42700294D01*
X48035923Y-42707590D01*
X47964693Y-42729197D01*
X47929800Y-42747848D01*
X47929800Y-42671251D01*
X52196252Y-38404800D01*
X52889271Y-38404800D01*
X52919286Y-38460953D01*
X52966507Y-38518493D01*
X53024047Y-38565714D01*
X53089693Y-38600803D01*
X53160923Y-38622410D01*
X53235000Y-38629706D01*
X54410000Y-38629706D01*
X54484077Y-38622410D01*
X54555307Y-38600803D01*
X54620953Y-38565714D01*
X54678493Y-38518493D01*
X54725714Y-38460953D01*
X54760803Y-38395307D01*
X54782410Y-38324077D01*
X54789706Y-38250000D01*
X54789706Y-37950000D01*
X54782410Y-37875923D01*
X54760803Y-37804693D01*
X54725714Y-37739047D01*
X54678493Y-37681507D01*
X54620953Y-37634286D01*
X54555307Y-37599197D01*
X54484077Y-37577590D01*
X54410000Y-37570294D01*
X53235000Y-37570294D01*
X53160923Y-37577590D01*
X53089693Y-37599197D01*
X53024047Y-37634286D01*
X52966507Y-37681507D01*
X52919286Y-37739047D01*
X52889271Y-37795200D01*
X52084957Y-37795200D01*
X52069999Y-37793727D01*
X52055041Y-37795200D01*
X52055034Y-37795200D01*
X52015889Y-37799055D01*
X52010248Y-37799611D01*
X51996876Y-37803668D01*
X51952794Y-37817040D01*
X51899843Y-37845342D01*
X51853432Y-37883432D01*
X51843892Y-37895056D01*
X47420057Y-42318892D01*
X47408433Y-42328432D01*
X47370343Y-42374843D01*
X47355215Y-42403146D01*
X47342040Y-42427795D01*
X47324611Y-42485249D01*
X47318727Y-42545000D01*
X47320201Y-42559968D01*
X47320201Y-42703269D01*
X47290000Y-42700294D01*
X47220950Y-42701400D01*
X47163800Y-42758550D01*
X47163800Y-43493700D01*
X47183800Y-43493700D01*
X47183800Y-43841300D01*
X47163800Y-43841300D01*
X47163800Y-44576450D01*
X47220950Y-44633600D01*
X47290000Y-44634706D01*
X47320200Y-44631731D01*
X47320200Y-45593748D01*
X45835057Y-47078892D01*
X45823433Y-47088432D01*
X45785343Y-47134843D01*
X45770215Y-47163146D01*
X45757040Y-47187795D01*
X45739611Y-47245249D01*
X45733727Y-47305000D01*
X45735201Y-47319968D01*
X45735201Y-47975620D01*
X45658275Y-47998955D01*
X45581824Y-48039819D01*
X45514813Y-48094813D01*
X45459819Y-48161824D01*
X45418955Y-48238275D01*
X45393791Y-48321230D01*
X45385294Y-48407500D01*
X45385294Y-49382500D01*
X45393791Y-49468770D01*
X45418955Y-49551725D01*
X45459819Y-49628176D01*
X45514813Y-49695187D01*
X45581824Y-49750181D01*
X45658275Y-49791045D01*
X45741230Y-49816209D01*
X45827500Y-49824706D01*
X46252500Y-49824706D01*
X46338770Y-49816209D01*
X46421725Y-49791045D01*
X46498176Y-49750181D01*
X46565187Y-49695187D01*
X46620181Y-49628176D01*
X46637913Y-49595000D01*
X47285294Y-49595000D01*
X47289708Y-49639813D01*
X47302779Y-49682905D01*
X47324006Y-49722618D01*
X47352573Y-49757427D01*
X47387382Y-49785994D01*
X47427095Y-49807221D01*
X47470187Y-49820292D01*
X47515000Y-49824706D01*
X47709050Y-49823600D01*
X47766200Y-49766450D01*
X47766200Y-49068800D01*
X48113800Y-49068800D01*
X48113800Y-49766450D01*
X48170950Y-49823600D01*
X48365000Y-49824706D01*
X48409813Y-49820292D01*
X48452905Y-49807221D01*
X48492618Y-49785994D01*
X48527427Y-49757427D01*
X48555994Y-49722618D01*
X48577221Y-49682905D01*
X48590292Y-49639813D01*
X48594706Y-49595000D01*
X48593600Y-49125950D01*
X48536450Y-49068800D01*
X48113800Y-49068800D01*
X47766200Y-49068800D01*
X47343550Y-49068800D01*
X47286400Y-49125950D01*
X47285294Y-49595000D01*
X46637913Y-49595000D01*
X46661045Y-49551725D01*
X46686209Y-49468770D01*
X46694706Y-49382500D01*
X46694706Y-48407500D01*
X46686209Y-48321230D01*
X46661045Y-48238275D01*
X46637914Y-48195000D01*
X47285294Y-48195000D01*
X47286400Y-48664050D01*
X47343550Y-48721200D01*
X47766200Y-48721200D01*
X47766200Y-48023550D01*
X48113800Y-48023550D01*
X48113800Y-48721200D01*
X48536450Y-48721200D01*
X48593600Y-48664050D01*
X48594706Y-48195000D01*
X48590292Y-48150187D01*
X48577221Y-48107095D01*
X48555994Y-48067382D01*
X48527427Y-48032573D01*
X48492618Y-48004006D01*
X48452905Y-47982779D01*
X48409813Y-47969708D01*
X48365000Y-47965294D01*
X48170950Y-47966400D01*
X48113800Y-48023550D01*
X47766200Y-48023550D01*
X47709050Y-47966400D01*
X47515000Y-47965294D01*
X47470187Y-47969708D01*
X47427095Y-47982779D01*
X47387382Y-48004006D01*
X47352573Y-48032573D01*
X47324006Y-48067382D01*
X47302779Y-48107095D01*
X47289708Y-48150187D01*
X47285294Y-48195000D01*
X46637914Y-48195000D01*
X46620181Y-48161824D01*
X46565187Y-48094813D01*
X46498176Y-48039819D01*
X46421725Y-47998955D01*
X46344800Y-47975620D01*
X46344800Y-47431251D01*
X47829945Y-45946107D01*
X47841568Y-45936568D01*
X47879658Y-45890157D01*
X47907960Y-45837206D01*
X47925389Y-45779751D01*
X47929800Y-45734966D01*
X47929800Y-45734959D01*
X47931273Y-45720001D01*
X47929800Y-45705043D01*
X47929800Y-44587152D01*
X47955200Y-44600729D01*
X47955201Y-45705032D01*
X47953727Y-45720000D01*
X47959611Y-45779751D01*
X47977040Y-45837205D01*
X47990215Y-45861854D01*
X48005343Y-45890157D01*
X48043433Y-45936568D01*
X48055057Y-45946108D01*
X54847380Y-52738432D01*
X54817007Y-52838559D01*
X54801400Y-52997021D01*
X54801400Y-53682980D01*
X54817007Y-53841442D01*
X54878684Y-54044759D01*
X54978839Y-54232137D01*
X55113626Y-54396375D01*
X55277864Y-54531162D01*
X55332565Y-54560400D01*
X41213081Y-54560400D01*
X41373470Y-54441841D01*
X41517759Y-54283149D01*
X41628316Y-54099357D01*
X41700893Y-53897528D01*
X41732700Y-53685418D01*
X41670766Y-53513800D01*
X40813800Y-53513800D01*
X40813800Y-53533800D01*
X40466200Y-53533800D01*
X40466200Y-53513800D01*
X40446200Y-53513800D01*
X40446200Y-53226617D01*
X42028800Y-53226617D01*
X42028800Y-53453383D01*
X42073040Y-53675793D01*
X42159820Y-53885298D01*
X42285805Y-54073847D01*
X42446153Y-54234195D01*
X42634702Y-54360180D01*
X42844207Y-54446960D01*
X43066617Y-54491200D01*
X43293383Y-54491200D01*
X43515793Y-54446960D01*
X43725298Y-54360180D01*
X43913847Y-54234195D01*
X44074195Y-54073847D01*
X44200180Y-53885298D01*
X44286960Y-53675793D01*
X44331200Y-53453383D01*
X44331200Y-53226617D01*
X52188800Y-53226617D01*
X52188800Y-53453383D01*
X52233040Y-53675793D01*
X52319820Y-53885298D01*
X52445805Y-54073847D01*
X52606153Y-54234195D01*
X52794702Y-54360180D01*
X53004207Y-54446960D01*
X53226617Y-54491200D01*
X53453383Y-54491200D01*
X53675793Y-54446960D01*
X53885298Y-54360180D01*
X54073847Y-54234195D01*
X54234195Y-54073847D01*
X54360180Y-53885298D01*
X54446960Y-53675793D01*
X54491200Y-53453383D01*
X54491200Y-53226617D01*
X54446960Y-53004207D01*
X54360180Y-52794702D01*
X54234195Y-52606153D01*
X54073847Y-52445805D01*
X53885298Y-52319820D01*
X53675793Y-52233040D01*
X53453383Y-52188800D01*
X53226617Y-52188800D01*
X53004207Y-52233040D01*
X52794702Y-52319820D01*
X52606153Y-52445805D01*
X52445805Y-52606153D01*
X52319820Y-52794702D01*
X52233040Y-53004207D01*
X52188800Y-53226617D01*
X44331200Y-53226617D01*
X44286960Y-53004207D01*
X44200180Y-52794702D01*
X44074195Y-52606153D01*
X43913847Y-52445805D01*
X43725298Y-52319820D01*
X43515793Y-52233040D01*
X43293383Y-52188800D01*
X43066617Y-52188800D01*
X42844207Y-52233040D01*
X42634702Y-52319820D01*
X42446153Y-52445805D01*
X42285805Y-52606153D01*
X42159820Y-52794702D01*
X42073040Y-53004207D01*
X42028800Y-53226617D01*
X40446200Y-53226617D01*
X40446200Y-53166200D01*
X40466200Y-53166200D01*
X40466200Y-53146200D01*
X40813800Y-53146200D01*
X40813800Y-53166200D01*
X41670766Y-53166200D01*
X41732700Y-52994582D01*
X41700893Y-52782472D01*
X41628316Y-52580643D01*
X41517759Y-52396851D01*
X41373470Y-52238159D01*
X41200994Y-52110665D01*
X41094476Y-52070088D01*
X41242137Y-51991162D01*
X41406375Y-51856375D01*
X41541162Y-51692137D01*
X41641317Y-51504758D01*
X41702993Y-51301441D01*
X41718600Y-51142979D01*
X41718600Y-50457020D01*
X41702993Y-50298558D01*
X41672620Y-50198431D01*
X45924945Y-45946107D01*
X45936568Y-45936568D01*
X45974658Y-45890157D01*
X46002960Y-45837206D01*
X46020389Y-45779751D01*
X46024800Y-45734966D01*
X46024800Y-45734958D01*
X46026273Y-45720000D01*
X46024800Y-45705042D01*
X46024800Y-44600729D01*
X46080953Y-44570714D01*
X46138493Y-44523493D01*
X46185714Y-44465953D01*
X46218294Y-44405000D01*
X46460294Y-44405000D01*
X46464708Y-44449813D01*
X46477779Y-44492905D01*
X46499006Y-44532618D01*
X46527573Y-44567427D01*
X46562382Y-44595994D01*
X46602095Y-44617221D01*
X46645187Y-44630292D01*
X46690000Y-44634706D01*
X46759050Y-44633600D01*
X46816200Y-44576450D01*
X46816200Y-43841300D01*
X46518550Y-43841300D01*
X46461400Y-43898450D01*
X46460294Y-44405000D01*
X46218294Y-44405000D01*
X46220803Y-44400307D01*
X46242410Y-44329077D01*
X46249706Y-44255000D01*
X46249706Y-43080000D01*
X46242410Y-43005923D01*
X46220803Y-42934693D01*
X46218295Y-42930000D01*
X46460294Y-42930000D01*
X46461400Y-43436550D01*
X46518550Y-43493700D01*
X46816200Y-43493700D01*
X46816200Y-42758550D01*
X46759050Y-42701400D01*
X46690000Y-42700294D01*
X46645187Y-42704708D01*
X46602095Y-42717779D01*
X46562382Y-42739006D01*
X46527573Y-42767573D01*
X46499006Y-42802382D01*
X46477779Y-42842095D01*
X46464708Y-42885187D01*
X46460294Y-42930000D01*
X46218295Y-42930000D01*
X46185714Y-42869047D01*
X46138493Y-42811507D01*
X46080953Y-42764286D01*
X46015307Y-42729197D01*
X45944077Y-42707590D01*
X45870000Y-42700294D01*
X45570000Y-42700294D01*
X45495923Y-42707590D01*
X45424693Y-42729197D01*
X45359047Y-42764286D01*
X45301507Y-42811507D01*
X45254286Y-42869047D01*
X45219197Y-42934693D01*
X45197590Y-43005923D01*
X45190294Y-43080000D01*
X45190294Y-44255000D01*
X45197590Y-44329077D01*
X45219197Y-44400307D01*
X45254286Y-44465953D01*
X45301507Y-44523493D01*
X45359047Y-44570714D01*
X45415201Y-44600729D01*
X45415200Y-45593748D01*
X41328903Y-49680045D01*
X41242137Y-49608838D01*
X41094640Y-49530000D01*
X41242137Y-49451162D01*
X41406375Y-49316375D01*
X41541162Y-49152137D01*
X41641317Y-48964758D01*
X41702993Y-48761441D01*
X41718600Y-48602979D01*
X41718600Y-47993451D01*
X44654945Y-45057107D01*
X44666568Y-45047568D01*
X44704658Y-45001157D01*
X44732960Y-44948206D01*
X44750389Y-44890751D01*
X44754800Y-44845966D01*
X44754800Y-44845959D01*
X44756273Y-44831001D01*
X44754800Y-44816043D01*
X44754800Y-44600729D01*
X44810953Y-44570714D01*
X44868493Y-44523493D01*
X44915714Y-44465953D01*
X44950803Y-44400307D01*
X44972410Y-44329077D01*
X44979706Y-44255000D01*
X44979706Y-43080000D01*
X44972410Y-43005923D01*
X44950803Y-42934693D01*
X44915714Y-42869047D01*
X44868493Y-42811507D01*
X44810953Y-42764286D01*
X44745307Y-42729197D01*
X44674077Y-42707590D01*
X44600000Y-42700294D01*
X44300000Y-42700294D01*
X44225923Y-42707590D01*
X44154693Y-42729197D01*
X44089047Y-42764286D01*
X44031507Y-42811507D01*
X43984286Y-42869047D01*
X43949197Y-42934693D01*
X43927590Y-43005923D01*
X43920294Y-43080000D01*
X43920294Y-44255000D01*
X43927590Y-44329077D01*
X43949197Y-44400307D01*
X43984286Y-44465953D01*
X44031507Y-44523493D01*
X44089047Y-44570714D01*
X44145200Y-44600729D01*
X44145200Y-44704748D01*
X41514533Y-47335416D01*
X41406375Y-47203625D01*
X41242137Y-47068838D01*
X41094640Y-46990000D01*
X41242137Y-46911162D01*
X41406375Y-46776375D01*
X41541162Y-46612137D01*
X41641317Y-46424758D01*
X41702993Y-46221441D01*
X41718600Y-46062979D01*
X41718600Y-45377020D01*
X41702993Y-45218558D01*
X41672620Y-45118432D01*
X42902444Y-43888608D01*
X42914068Y-43879068D01*
X42952158Y-43832657D01*
X42980460Y-43779706D01*
X42997889Y-43722251D01*
X43002300Y-43677466D01*
X43002300Y-43677459D01*
X43003773Y-43662501D01*
X43002300Y-43647543D01*
X43002300Y-42439706D01*
X43285000Y-42439706D01*
X43359077Y-42432410D01*
X43430307Y-42410803D01*
X43495953Y-42375714D01*
X43553493Y-42328493D01*
X43600714Y-42270953D01*
X43635803Y-42205307D01*
X43657410Y-42134077D01*
X43664706Y-42060000D01*
X43664706Y-41760000D01*
X43657410Y-41685923D01*
X43635803Y-41614693D01*
X43600714Y-41549047D01*
X43553493Y-41491507D01*
X43495953Y-41444286D01*
X43430307Y-41409197D01*
X43359077Y-41387590D01*
X43285000Y-41380294D01*
X42110000Y-41380294D01*
X42035923Y-41387590D01*
X41964693Y-41409197D01*
X41899047Y-41444286D01*
X41841507Y-41491507D01*
X41794286Y-41549047D01*
X41759197Y-41614693D01*
X41737590Y-41685923D01*
X41730294Y-41760000D01*
X41730294Y-42060000D01*
X41737590Y-42134077D01*
X41759197Y-42205307D01*
X41794286Y-42270953D01*
X41841507Y-42328493D01*
X41899047Y-42375714D01*
X41964693Y-42410803D01*
X42035923Y-42432410D01*
X42110000Y-42439706D01*
X42392700Y-42439706D01*
X42392701Y-43536247D01*
X41328903Y-44600045D01*
X41242137Y-44528838D01*
X41094640Y-44450000D01*
X41242137Y-44371162D01*
X41406375Y-44236375D01*
X41541162Y-44072137D01*
X41641317Y-43884758D01*
X41702993Y-43681441D01*
X41718600Y-43522979D01*
X41718600Y-42837020D01*
X41702993Y-42678558D01*
X41641317Y-42475241D01*
X41541162Y-42287863D01*
X41406375Y-42123625D01*
X41242137Y-41988838D01*
X41094640Y-41910000D01*
X41242137Y-41831162D01*
X41406375Y-41696375D01*
X41541162Y-41532137D01*
X41641317Y-41344758D01*
X41702993Y-41141441D01*
X41718600Y-40982979D01*
X41718600Y-40490000D01*
X41730294Y-40490000D01*
X41730294Y-40790000D01*
X41737590Y-40864077D01*
X41759197Y-40935307D01*
X41794286Y-41000953D01*
X41841507Y-41058493D01*
X41899047Y-41105714D01*
X41964693Y-41140803D01*
X42035923Y-41162410D01*
X42110000Y-41169706D01*
X43285000Y-41169706D01*
X43359077Y-41162410D01*
X43430307Y-41140803D01*
X43495953Y-41105714D01*
X43553493Y-41058493D01*
X43580288Y-41025842D01*
X43605037Y-41050591D01*
X43691614Y-41108440D01*
X43787813Y-41148287D01*
X43889937Y-41168600D01*
X43994063Y-41168600D01*
X44096187Y-41148287D01*
X44192386Y-41108440D01*
X44278963Y-41050591D01*
X44352591Y-40976963D01*
X44410440Y-40890386D01*
X44450287Y-40794187D01*
X44470600Y-40692063D01*
X44470600Y-40587937D01*
X44450287Y-40485813D01*
X44410440Y-40389614D01*
X44352591Y-40303037D01*
X44278963Y-40229409D01*
X44192386Y-40171560D01*
X44096187Y-40131713D01*
X43994063Y-40111400D01*
X43889937Y-40111400D01*
X43787813Y-40131713D01*
X43691614Y-40171560D01*
X43605037Y-40229409D01*
X43580288Y-40254158D01*
X43553493Y-40221507D01*
X43495953Y-40174286D01*
X43430307Y-40139197D01*
X43359077Y-40117590D01*
X43285000Y-40110294D01*
X42110000Y-40110294D01*
X42035923Y-40117590D01*
X41964693Y-40139197D01*
X41899047Y-40174286D01*
X41841507Y-40221507D01*
X41794286Y-40279047D01*
X41759197Y-40344693D01*
X41737590Y-40415923D01*
X41730294Y-40490000D01*
X41718600Y-40490000D01*
X41718600Y-40297020D01*
X41702993Y-40138558D01*
X41641317Y-39935241D01*
X41599690Y-39857362D01*
X41770534Y-39686517D01*
X41794286Y-39730953D01*
X41841507Y-39788493D01*
X41899047Y-39835714D01*
X41964693Y-39870803D01*
X42035923Y-39892410D01*
X42110000Y-39899706D01*
X43285000Y-39899706D01*
X43359077Y-39892410D01*
X43430307Y-39870803D01*
X43495953Y-39835714D01*
X43553493Y-39788493D01*
X43600714Y-39730953D01*
X43635803Y-39665307D01*
X43657410Y-39594077D01*
X43664706Y-39520000D01*
X43664706Y-39220000D01*
X43657410Y-39145923D01*
X43635803Y-39074693D01*
X43600714Y-39009047D01*
X43553493Y-38951507D01*
X43495953Y-38904286D01*
X43430307Y-38869197D01*
X43359077Y-38847590D01*
X43285000Y-38840294D01*
X42110000Y-38840294D01*
X42035923Y-38847590D01*
X41964693Y-38869197D01*
X41899047Y-38904286D01*
X41841507Y-38951507D01*
X41794286Y-39009047D01*
X41764271Y-39065200D01*
X41670958Y-39065200D01*
X41656000Y-39063727D01*
X41641042Y-39065200D01*
X41641034Y-39065200D01*
X41601403Y-39069103D01*
X41596248Y-39069611D01*
X41538794Y-39087040D01*
X41485843Y-39115342D01*
X41439432Y-39153432D01*
X41429892Y-39165056D01*
X41179559Y-39415390D01*
X41094640Y-39370000D01*
X41242137Y-39291162D01*
X41406375Y-39156375D01*
X41541162Y-38992137D01*
X41641317Y-38804758D01*
X41702993Y-38601441D01*
X41718600Y-38442979D01*
X41718600Y-38404800D01*
X41764271Y-38404800D01*
X41794286Y-38460953D01*
X41841507Y-38518493D01*
X41899047Y-38565714D01*
X41964693Y-38600803D01*
X42035923Y-38622410D01*
X42110000Y-38629706D01*
X43285000Y-38629706D01*
X43359077Y-38622410D01*
X43430307Y-38600803D01*
X43495953Y-38565714D01*
X43553493Y-38518493D01*
X43600714Y-38460953D01*
X43635803Y-38395307D01*
X43657410Y-38324077D01*
X43664706Y-38250000D01*
X43664706Y-37950000D01*
X43657410Y-37875923D01*
X43635803Y-37804693D01*
X43600714Y-37739047D01*
X43553493Y-37681507D01*
X43495953Y-37634286D01*
X43430307Y-37599197D01*
X43359077Y-37577590D01*
X43285000Y-37570294D01*
X42110000Y-37570294D01*
X42035923Y-37577590D01*
X41964693Y-37599197D01*
X41899047Y-37634286D01*
X41841507Y-37681507D01*
X41794286Y-37739047D01*
X41764271Y-37795200D01*
X41718600Y-37795200D01*
X41718600Y-37757020D01*
X41702993Y-37598558D01*
X41641317Y-37395241D01*
X41541162Y-37207863D01*
X41478313Y-37131282D01*
X41514034Y-37134800D01*
X41514042Y-37134800D01*
X41529000Y-37136273D01*
X41543958Y-37134800D01*
X41764271Y-37134800D01*
X41794286Y-37190953D01*
X41841507Y-37248493D01*
X41899047Y-37295714D01*
X41964693Y-37330803D01*
X42035923Y-37352410D01*
X42110000Y-37359706D01*
X43285000Y-37359706D01*
X43359077Y-37352410D01*
X43430307Y-37330803D01*
X43495953Y-37295714D01*
X43553493Y-37248493D01*
X43600714Y-37190953D01*
X43635803Y-37125307D01*
X43657410Y-37054077D01*
X43664706Y-36980000D01*
X43664706Y-36680000D01*
X43657410Y-36605923D01*
X43635803Y-36534693D01*
X43600714Y-36469047D01*
X43553493Y-36411507D01*
X43495953Y-36364286D01*
X43430307Y-36329197D01*
X43359077Y-36307590D01*
X43285000Y-36300294D01*
X42110000Y-36300294D01*
X42035923Y-36307590D01*
X41964693Y-36329197D01*
X41899047Y-36364286D01*
X41841507Y-36411507D01*
X41794286Y-36469047D01*
X41764271Y-36525200D01*
X41655252Y-36525200D01*
X41555453Y-36425401D01*
X41641317Y-36264758D01*
X41702993Y-36061441D01*
X41718600Y-35902979D01*
X41718600Y-35410000D01*
X41730294Y-35410000D01*
X41730294Y-35710000D01*
X41737590Y-35784077D01*
X41759197Y-35855307D01*
X41794286Y-35920953D01*
X41841507Y-35978493D01*
X41899047Y-36025714D01*
X41964693Y-36060803D01*
X42035923Y-36082410D01*
X42110000Y-36089706D01*
X43285000Y-36089706D01*
X43359077Y-36082410D01*
X43430307Y-36060803D01*
X43495953Y-36025714D01*
X43553493Y-35978493D01*
X43580288Y-35945842D01*
X43605037Y-35970591D01*
X43691614Y-36028440D01*
X43787813Y-36068287D01*
X43889937Y-36088600D01*
X43994063Y-36088600D01*
X44096187Y-36068287D01*
X44192386Y-36028440D01*
X44278963Y-35970591D01*
X44352591Y-35896963D01*
X44410440Y-35810386D01*
X44450287Y-35714187D01*
X44470600Y-35612063D01*
X44470600Y-35507937D01*
X44450287Y-35405813D01*
X44410440Y-35309614D01*
X44352591Y-35223037D01*
X44278963Y-35149409D01*
X44192386Y-35091560D01*
X44096187Y-35051713D01*
X43994063Y-35031400D01*
X43889937Y-35031400D01*
X43787813Y-35051713D01*
X43691614Y-35091560D01*
X43605037Y-35149409D01*
X43580288Y-35174158D01*
X43553493Y-35141507D01*
X43495953Y-35094286D01*
X43430307Y-35059197D01*
X43359077Y-35037590D01*
X43285000Y-35030294D01*
X42110000Y-35030294D01*
X42035923Y-35037590D01*
X41964693Y-35059197D01*
X41899047Y-35094286D01*
X41841507Y-35141507D01*
X41794286Y-35199047D01*
X41759197Y-35264693D01*
X41737590Y-35335923D01*
X41730294Y-35410000D01*
X41718600Y-35410000D01*
X41718600Y-35217020D01*
X41702993Y-35058558D01*
X41641317Y-34855241D01*
X41541162Y-34667863D01*
X41406375Y-34503625D01*
X41242137Y-34368838D01*
X41094640Y-34290000D01*
X41242137Y-34211162D01*
X41328847Y-34140000D01*
X41730294Y-34140000D01*
X41730294Y-34440000D01*
X41737590Y-34514077D01*
X41759197Y-34585307D01*
X41794286Y-34650953D01*
X41841507Y-34708493D01*
X41899047Y-34755714D01*
X41964693Y-34790803D01*
X42035923Y-34812410D01*
X42110000Y-34819706D01*
X43285000Y-34819706D01*
X43359077Y-34812410D01*
X43430307Y-34790803D01*
X43495953Y-34755714D01*
X43553493Y-34708493D01*
X43580288Y-34675842D01*
X43605037Y-34700591D01*
X43691614Y-34758440D01*
X43787813Y-34798287D01*
X43889937Y-34818600D01*
X43994063Y-34818600D01*
X44096187Y-34798287D01*
X44192386Y-34758440D01*
X44278963Y-34700591D01*
X44352591Y-34626963D01*
X44410440Y-34540386D01*
X44450287Y-34444187D01*
X44470600Y-34342063D01*
X44470600Y-34237937D01*
X44450287Y-34135813D01*
X44410440Y-34039614D01*
X44352591Y-33953037D01*
X44278963Y-33879409D01*
X44192386Y-33821560D01*
X44096187Y-33781713D01*
X43994063Y-33761400D01*
X43889937Y-33761400D01*
X43787813Y-33781713D01*
X43691614Y-33821560D01*
X43605037Y-33879409D01*
X43580288Y-33904158D01*
X43553493Y-33871507D01*
X43495953Y-33824286D01*
X43430307Y-33789197D01*
X43359077Y-33767590D01*
X43285000Y-33760294D01*
X42110000Y-33760294D01*
X42035923Y-33767590D01*
X41964693Y-33789197D01*
X41899047Y-33824286D01*
X41841507Y-33871507D01*
X41794286Y-33929047D01*
X41759197Y-33994693D01*
X41737590Y-34065923D01*
X41730294Y-34140000D01*
X41328847Y-34140000D01*
X41406375Y-34076375D01*
X41541162Y-33912137D01*
X41641317Y-33724758D01*
X41702993Y-33521441D01*
X41718600Y-33362979D01*
X41718600Y-32870000D01*
X41730294Y-32870000D01*
X41730294Y-33170000D01*
X41737590Y-33244077D01*
X41759197Y-33315307D01*
X41794286Y-33380953D01*
X41841507Y-33438493D01*
X41899047Y-33485714D01*
X41964693Y-33520803D01*
X42035923Y-33542410D01*
X42110000Y-33549706D01*
X43285000Y-33549706D01*
X43359077Y-33542410D01*
X43430307Y-33520803D01*
X43495953Y-33485714D01*
X43553493Y-33438493D01*
X43580288Y-33405842D01*
X43605037Y-33430591D01*
X43691614Y-33488440D01*
X43787813Y-33528287D01*
X43889937Y-33548600D01*
X43994063Y-33548600D01*
X44096187Y-33528287D01*
X44192386Y-33488440D01*
X44278963Y-33430591D01*
X44352591Y-33356963D01*
X44410440Y-33270386D01*
X44450287Y-33174187D01*
X44470600Y-33072063D01*
X44470600Y-32967937D01*
X44450287Y-32865813D01*
X44410440Y-32769614D01*
X44352591Y-32683037D01*
X44278963Y-32609409D01*
X44192386Y-32551560D01*
X44096187Y-32511713D01*
X43994063Y-32491400D01*
X43889937Y-32491400D01*
X43787813Y-32511713D01*
X43691614Y-32551560D01*
X43605037Y-32609409D01*
X43580288Y-32634158D01*
X43553493Y-32601507D01*
X43495953Y-32554286D01*
X43430307Y-32519197D01*
X43359077Y-32497590D01*
X43285000Y-32490294D01*
X42110000Y-32490294D01*
X42035923Y-32497590D01*
X41964693Y-32519197D01*
X41899047Y-32554286D01*
X41841507Y-32601507D01*
X41794286Y-32659047D01*
X41759197Y-32724693D01*
X41737590Y-32795923D01*
X41730294Y-32870000D01*
X41718600Y-32870000D01*
X41718600Y-32677020D01*
X41702993Y-32518558D01*
X41641317Y-32315241D01*
X41541162Y-32127863D01*
X41406375Y-31963625D01*
X41242137Y-31828838D01*
X41094640Y-31750000D01*
X41242137Y-31671162D01*
X41406375Y-31536375D01*
X41541162Y-31372137D01*
X41641317Y-31184758D01*
X41702993Y-30981441D01*
X41718600Y-30822979D01*
X41718600Y-30137020D01*
X41702993Y-29978558D01*
X41641317Y-29775241D01*
X41541162Y-29587863D01*
X41406375Y-29423625D01*
X41242137Y-29288838D01*
X41094640Y-29210000D01*
X41242137Y-29131162D01*
X41406375Y-28996375D01*
X41541162Y-28832137D01*
X41641317Y-28644758D01*
X41702993Y-28441441D01*
X41718600Y-28282979D01*
X41718600Y-27597020D01*
X41702993Y-27438558D01*
X41641317Y-27235241D01*
X41541162Y-27047863D01*
X41406375Y-26883625D01*
X41242137Y-26748838D01*
X41094640Y-26670000D01*
X41242137Y-26591162D01*
X41328903Y-26519955D01*
X42392701Y-27583753D01*
X42392700Y-31220294D01*
X42110000Y-31220294D01*
X42035923Y-31227590D01*
X41964693Y-31249197D01*
X41899047Y-31284286D01*
X41841507Y-31331507D01*
X41794286Y-31389047D01*
X41759197Y-31454693D01*
X41737590Y-31525923D01*
X41730294Y-31600000D01*
X41730294Y-31900000D01*
X41737590Y-31974077D01*
X41759197Y-32045307D01*
X41794286Y-32110953D01*
X41841507Y-32168493D01*
X41899047Y-32215714D01*
X41964693Y-32250803D01*
X42035923Y-32272410D01*
X42110000Y-32279706D01*
X43285000Y-32279706D01*
X43359077Y-32272410D01*
X43430307Y-32250803D01*
X43495953Y-32215714D01*
X43553493Y-32168493D01*
X43600714Y-32110953D01*
X43635803Y-32045307D01*
X43657410Y-31974077D01*
X43664706Y-31900000D01*
X43664706Y-31600000D01*
X43657410Y-31525923D01*
X43635803Y-31454693D01*
X43600714Y-31389047D01*
X43553493Y-31331507D01*
X43495953Y-31284286D01*
X43430307Y-31249197D01*
X43359077Y-31227590D01*
X43285000Y-31220294D01*
X43002300Y-31220294D01*
X43002300Y-27472457D01*
X43003773Y-27457499D01*
X43002300Y-27442541D01*
X43002300Y-27442534D01*
X42997889Y-27397749D01*
X42980460Y-27340294D01*
X42952158Y-27287343D01*
X42914068Y-27240932D01*
X42902444Y-27231392D01*
X41672620Y-26001568D01*
X41702993Y-25901441D01*
X41718600Y-25742979D01*
X41718600Y-25057020D01*
X41702993Y-24898558D01*
X41641317Y-24695241D01*
X41541162Y-24507863D01*
X41406375Y-24343625D01*
X41242137Y-24208838D01*
X41094640Y-24130000D01*
X41242137Y-24051162D01*
X41328903Y-23979955D01*
X44145201Y-26796253D01*
X44145200Y-29059271D01*
X44089047Y-29089286D01*
X44031507Y-29136507D01*
X43984286Y-29194047D01*
X43949197Y-29259693D01*
X43927590Y-29330923D01*
X43920294Y-29405000D01*
X43920294Y-30580000D01*
X43927590Y-30654077D01*
X43949197Y-30725307D01*
X43984286Y-30790953D01*
X44031507Y-30848493D01*
X44089047Y-30895714D01*
X44154693Y-30930803D01*
X44225923Y-30952410D01*
X44300000Y-30959706D01*
X44600000Y-30959706D01*
X44674077Y-30952410D01*
X44745307Y-30930803D01*
X44810953Y-30895714D01*
X44868493Y-30848493D01*
X44915714Y-30790953D01*
X44950803Y-30725307D01*
X44972410Y-30654077D01*
X44979706Y-30580000D01*
X44979706Y-29405000D01*
X44972410Y-29330923D01*
X44950803Y-29259693D01*
X44915714Y-29194047D01*
X44868493Y-29136507D01*
X44810953Y-29089286D01*
X44754800Y-29059271D01*
X44754800Y-26684958D01*
X44756273Y-26670000D01*
X44754800Y-26655042D01*
X44754800Y-26655034D01*
X44750389Y-26610249D01*
X44732960Y-26552794D01*
X44704658Y-26499843D01*
X44666568Y-26453432D01*
X44654944Y-26443892D01*
X41672619Y-23461568D01*
X41702993Y-23361441D01*
X41718600Y-23202979D01*
X41718600Y-22517020D01*
X41702993Y-22358558D01*
X41641317Y-22155241D01*
X41541162Y-21967863D01*
X41406375Y-21803625D01*
X41242137Y-21668838D01*
X41094640Y-21590000D01*
X41242137Y-21511162D01*
X41328903Y-21439955D01*
X45415201Y-25526253D01*
X45415200Y-29059271D01*
X45359047Y-29089286D01*
X45301507Y-29136507D01*
X45254286Y-29194047D01*
X45219197Y-29259693D01*
X45197590Y-29330923D01*
X45190294Y-29405000D01*
X45190294Y-30580000D01*
X45197590Y-30654077D01*
X45219197Y-30725307D01*
X45254286Y-30790953D01*
X45301507Y-30848493D01*
X45359047Y-30895714D01*
X45424693Y-30930803D01*
X45495923Y-30952410D01*
X45570000Y-30959706D01*
X45870000Y-30959706D01*
X45944077Y-30952410D01*
X46015307Y-30930803D01*
X46080953Y-30895714D01*
X46138493Y-30848493D01*
X46185714Y-30790953D01*
X46220803Y-30725307D01*
X46242410Y-30654077D01*
X46249706Y-30580000D01*
X46249706Y-29405000D01*
X46460294Y-29405000D01*
X46460294Y-30580000D01*
X46467590Y-30654077D01*
X46489197Y-30725307D01*
X46524286Y-30790953D01*
X46571507Y-30848493D01*
X46629047Y-30895714D01*
X46685201Y-30925729D01*
X46685200Y-33640042D01*
X46683727Y-33655000D01*
X46685200Y-33669958D01*
X46685200Y-33669965D01*
X46689611Y-33714750D01*
X46707040Y-33772205D01*
X46735342Y-33825156D01*
X46773432Y-33871568D01*
X46785061Y-33881112D01*
X49262946Y-36358998D01*
X49255400Y-36396937D01*
X49255400Y-36501063D01*
X49275713Y-36603187D01*
X49315560Y-36699386D01*
X49373409Y-36785963D01*
X49447037Y-36859591D01*
X49533614Y-36917440D01*
X49629813Y-36957287D01*
X49731937Y-36977600D01*
X49836063Y-36977600D01*
X49938187Y-36957287D01*
X50034386Y-36917440D01*
X50120963Y-36859591D01*
X50194591Y-36785963D01*
X50252440Y-36699386D01*
X50292287Y-36603187D01*
X50312600Y-36501063D01*
X50312600Y-36396937D01*
X50292287Y-36294813D01*
X50252440Y-36198614D01*
X50194591Y-36112037D01*
X50120963Y-36038409D01*
X50034386Y-35980560D01*
X49938187Y-35940713D01*
X49836063Y-35920400D01*
X49731937Y-35920400D01*
X49693998Y-35927946D01*
X47294800Y-33528749D01*
X47294800Y-30925729D01*
X47350953Y-30895714D01*
X47408493Y-30848493D01*
X47455714Y-30790953D01*
X47488294Y-30730000D01*
X47730294Y-30730000D01*
X47734708Y-30774813D01*
X47747779Y-30817905D01*
X47769006Y-30857618D01*
X47797573Y-30892427D01*
X47832382Y-30920994D01*
X47872095Y-30942221D01*
X47915187Y-30955292D01*
X47960000Y-30959706D01*
X48029050Y-30958600D01*
X48086200Y-30901450D01*
X48086200Y-30166300D01*
X48433800Y-30166300D01*
X48433800Y-30901450D01*
X48490950Y-30958600D01*
X48560000Y-30959706D01*
X48604813Y-30955292D01*
X48647905Y-30942221D01*
X48687618Y-30920994D01*
X48722427Y-30892427D01*
X48750994Y-30857618D01*
X48772221Y-30817905D01*
X48785292Y-30774813D01*
X48789706Y-30730000D01*
X48788600Y-30223450D01*
X48731450Y-30166300D01*
X48433800Y-30166300D01*
X48086200Y-30166300D01*
X47788550Y-30166300D01*
X47731400Y-30223450D01*
X47730294Y-30730000D01*
X47488294Y-30730000D01*
X47490803Y-30725307D01*
X47512410Y-30654077D01*
X47519706Y-30580000D01*
X47519706Y-29405000D01*
X47512410Y-29330923D01*
X47490803Y-29259693D01*
X47488295Y-29255000D01*
X47730294Y-29255000D01*
X47731400Y-29761550D01*
X47788550Y-29818700D01*
X48086200Y-29818700D01*
X48086200Y-29083550D01*
X48433800Y-29083550D01*
X48433800Y-29818700D01*
X48731450Y-29818700D01*
X48788600Y-29761550D01*
X48789706Y-29255000D01*
X48785292Y-29210187D01*
X48772221Y-29167095D01*
X48750994Y-29127382D01*
X48722427Y-29092573D01*
X48687618Y-29064006D01*
X48647905Y-29042779D01*
X48604813Y-29029708D01*
X48560000Y-29025294D01*
X48490950Y-29026400D01*
X48433800Y-29083550D01*
X48086200Y-29083550D01*
X48029050Y-29026400D01*
X47960000Y-29025294D01*
X47915187Y-29029708D01*
X47872095Y-29042779D01*
X47832382Y-29064006D01*
X47797573Y-29092573D01*
X47769006Y-29127382D01*
X47747779Y-29167095D01*
X47734708Y-29210187D01*
X47730294Y-29255000D01*
X47488295Y-29255000D01*
X47455714Y-29194047D01*
X47408493Y-29136507D01*
X47350953Y-29089286D01*
X47285307Y-29054197D01*
X47214077Y-29032590D01*
X47140000Y-29025294D01*
X46840000Y-29025294D01*
X46765923Y-29032590D01*
X46694693Y-29054197D01*
X46629047Y-29089286D01*
X46571507Y-29136507D01*
X46524286Y-29194047D01*
X46489197Y-29259693D01*
X46467590Y-29330923D01*
X46460294Y-29405000D01*
X46249706Y-29405000D01*
X46242410Y-29330923D01*
X46220803Y-29259693D01*
X46185714Y-29194047D01*
X46138493Y-29136507D01*
X46080953Y-29089286D01*
X46024800Y-29059271D01*
X46024800Y-27370000D01*
X47075294Y-27370000D01*
X47079708Y-27414813D01*
X47092779Y-27457905D01*
X47114006Y-27497618D01*
X47142573Y-27532427D01*
X47177382Y-27560994D01*
X47217095Y-27582221D01*
X47260187Y-27595292D01*
X47305000Y-27599706D01*
X47599050Y-27598600D01*
X47656200Y-27541450D01*
X47656200Y-26843800D01*
X48003800Y-26843800D01*
X48003800Y-27541450D01*
X48060950Y-27598600D01*
X48355000Y-27599706D01*
X48399813Y-27595292D01*
X48442905Y-27582221D01*
X48482618Y-27560994D01*
X48517427Y-27532427D01*
X48545994Y-27497618D01*
X48567221Y-27457905D01*
X48580292Y-27414813D01*
X48584706Y-27370000D01*
X48583600Y-26900950D01*
X48526450Y-26843800D01*
X48003800Y-26843800D01*
X47656200Y-26843800D01*
X47133550Y-26843800D01*
X47076400Y-26900950D01*
X47075294Y-27370000D01*
X46024800Y-27370000D01*
X46024800Y-25970000D01*
X47075294Y-25970000D01*
X47076400Y-26439050D01*
X47133550Y-26496200D01*
X47656200Y-26496200D01*
X47656200Y-25798550D01*
X48003800Y-25798550D01*
X48003800Y-26496200D01*
X48526450Y-26496200D01*
X48583600Y-26439050D01*
X48584706Y-25970000D01*
X48580292Y-25925187D01*
X48567221Y-25882095D01*
X48545994Y-25842382D01*
X48517427Y-25807573D01*
X48482618Y-25779006D01*
X48442905Y-25757779D01*
X48399813Y-25744708D01*
X48355000Y-25740294D01*
X48060950Y-25741400D01*
X48003800Y-25798550D01*
X47656200Y-25798550D01*
X47599050Y-25741400D01*
X47305000Y-25740294D01*
X47260187Y-25744708D01*
X47217095Y-25757779D01*
X47177382Y-25779006D01*
X47142573Y-25807573D01*
X47114006Y-25842382D01*
X47092779Y-25882095D01*
X47079708Y-25925187D01*
X47075294Y-25970000D01*
X46024800Y-25970000D01*
X46024800Y-25414958D01*
X46026273Y-25400000D01*
X46024800Y-25385042D01*
X46024800Y-25385034D01*
X46020389Y-25340249D01*
X46002960Y-25282794D01*
X45974658Y-25229843D01*
X45936568Y-25183432D01*
X45924944Y-25173892D01*
X41672619Y-20921568D01*
X41702993Y-20821441D01*
X41718600Y-20662979D01*
X41718600Y-20206617D01*
X42028800Y-20206617D01*
X42028800Y-20433383D01*
X42073040Y-20655793D01*
X42159820Y-20865298D01*
X42285805Y-21053847D01*
X42446153Y-21214195D01*
X42634702Y-21340180D01*
X42844207Y-21426960D01*
X43066617Y-21471200D01*
X43293383Y-21471200D01*
X43515793Y-21426960D01*
X43725298Y-21340180D01*
X43913847Y-21214195D01*
X44074195Y-21053847D01*
X44200180Y-20865298D01*
X44286960Y-20655793D01*
X44331200Y-20433383D01*
X44331200Y-20206617D01*
X44286960Y-19984207D01*
X44200180Y-19774702D01*
X44074195Y-19586153D01*
X43913847Y-19425805D01*
X43725298Y-19299820D01*
X43515793Y-19213040D01*
X43293383Y-19168800D01*
X43066617Y-19168800D01*
X42844207Y-19213040D01*
X42634702Y-19299820D01*
X42446153Y-19425805D01*
X42285805Y-19586153D01*
X42159820Y-19774702D01*
X42073040Y-19984207D01*
X42028800Y-20206617D01*
X41718600Y-20206617D01*
X41718600Y-19977020D01*
X41702993Y-19818558D01*
X41641317Y-19615241D01*
X41541162Y-19427863D01*
X41406375Y-19263625D01*
X41242137Y-19128838D01*
X41187436Y-19099600D01*
X55332564Y-19099600D01*
X55277863Y-19128838D01*
M02*
