G04 #@! TF.GenerationSoftware,KiCad,Pcbnew,(5.1.2-1)-1*
G04 #@! TF.CreationDate,2019-12-07T17:40:51-05:00*
G04 #@! TF.ProjectId,GW28R8128,47573238-5238-4313-9238-2e6b69636164,rev?*
G04 #@! TF.SameCoordinates,Original*
G04 #@! TF.FileFunction,Soldermask,Top*
G04 #@! TF.FilePolarity,Negative*
%FSLAX46Y46*%
G04 Gerber Fmt 4.6, Leading zero omitted, Abs format (unit mm)*
G04 Created by KiCad (PCBNEW (5.1.2-1)-1) date 2019-12-07 17:40:51*
%MOMM*%
%LPD*%
G04 APERTURE LIST*
%ADD10C,0.100000*%
G04 APERTURE END LIST*
D10*
G36*
X40821566Y-19117202D02*
G01*
X40996155Y-19170163D01*
X40996158Y-19170164D01*
X41140545Y-19247340D01*
X41157058Y-19256167D01*
X41298091Y-19371909D01*
X41413833Y-19512941D01*
X41430033Y-19543249D01*
X41499836Y-19673841D01*
X41499836Y-19673842D01*
X41499837Y-19673844D01*
X41552798Y-19848433D01*
X41566200Y-19984504D01*
X41566200Y-20655496D01*
X41552798Y-20791567D01*
X41502474Y-20957463D01*
X41499836Y-20966159D01*
X41456835Y-21046608D01*
X41413833Y-21127059D01*
X41298091Y-21268091D01*
X41157059Y-21383833D01*
X41076607Y-21426835D01*
X40996159Y-21469836D01*
X40996156Y-21469837D01*
X40821567Y-21522798D01*
X40780863Y-21526807D01*
X40768654Y-21529235D01*
X40757154Y-21533999D01*
X40746804Y-21540915D01*
X40738002Y-21549717D01*
X40731086Y-21560067D01*
X40726322Y-21571567D01*
X40723894Y-21583776D01*
X40723894Y-21596224D01*
X40726322Y-21608433D01*
X40731086Y-21619933D01*
X40738002Y-21630283D01*
X40746804Y-21639085D01*
X40757154Y-21646001D01*
X40768654Y-21650765D01*
X40780863Y-21653193D01*
X40821566Y-21657202D01*
X40996155Y-21710163D01*
X40996158Y-21710164D01*
X41140545Y-21787340D01*
X41157058Y-21796167D01*
X41298091Y-21911909D01*
X41413833Y-22052941D01*
X41456835Y-22133393D01*
X41499836Y-22213841D01*
X41499836Y-22213842D01*
X41499837Y-22213844D01*
X41552798Y-22388433D01*
X41566200Y-22524504D01*
X41566200Y-23195496D01*
X41552798Y-23331567D01*
X41499837Y-23506156D01*
X41499836Y-23506159D01*
X41456835Y-23586607D01*
X41413833Y-23667059D01*
X41298091Y-23808091D01*
X41157059Y-23923833D01*
X41076608Y-23966835D01*
X40996159Y-24009836D01*
X40996156Y-24009837D01*
X40821567Y-24062798D01*
X40780863Y-24066807D01*
X40768654Y-24069235D01*
X40757154Y-24073999D01*
X40746804Y-24080915D01*
X40738002Y-24089717D01*
X40731086Y-24100067D01*
X40726322Y-24111567D01*
X40723894Y-24123776D01*
X40723894Y-24136224D01*
X40726322Y-24148433D01*
X40731086Y-24159933D01*
X40738002Y-24170283D01*
X40746804Y-24179085D01*
X40757154Y-24186001D01*
X40768654Y-24190765D01*
X40780863Y-24193193D01*
X40821566Y-24197202D01*
X40996155Y-24250163D01*
X40996158Y-24250164D01*
X41140545Y-24327340D01*
X41157058Y-24336167D01*
X41298091Y-24451909D01*
X41413833Y-24592941D01*
X41419143Y-24602876D01*
X41499836Y-24753841D01*
X41499836Y-24753842D01*
X41499837Y-24753844D01*
X41552798Y-24928433D01*
X41566200Y-25064504D01*
X41566200Y-25735496D01*
X41552798Y-25871567D01*
X41509757Y-26013454D01*
X41499836Y-26046159D01*
X41492501Y-26059881D01*
X41413833Y-26207059D01*
X41298091Y-26348091D01*
X41157059Y-26463833D01*
X41088007Y-26500742D01*
X40996159Y-26549836D01*
X40996156Y-26549837D01*
X40821567Y-26602798D01*
X40780863Y-26606807D01*
X40768654Y-26609235D01*
X40757154Y-26613999D01*
X40746804Y-26620915D01*
X40738002Y-26629717D01*
X40731086Y-26640067D01*
X40726322Y-26651567D01*
X40723894Y-26663776D01*
X40723894Y-26676224D01*
X40726322Y-26688433D01*
X40731086Y-26699933D01*
X40738002Y-26710283D01*
X40746804Y-26719085D01*
X40757154Y-26726001D01*
X40768654Y-26730765D01*
X40780863Y-26733193D01*
X40821566Y-26737202D01*
X40996155Y-26790163D01*
X40996158Y-26790164D01*
X41140545Y-26867340D01*
X41157058Y-26876167D01*
X41298091Y-26991909D01*
X41413833Y-27132941D01*
X41420599Y-27145600D01*
X41499836Y-27293841D01*
X41499836Y-27293842D01*
X41499837Y-27293844D01*
X41552798Y-27468433D01*
X41566200Y-27604504D01*
X41566200Y-28275496D01*
X41552798Y-28411567D01*
X41499837Y-28586156D01*
X41499836Y-28586159D01*
X41456835Y-28666608D01*
X41413833Y-28747059D01*
X41298091Y-28888091D01*
X41157059Y-29003833D01*
X41076608Y-29046835D01*
X40996159Y-29089836D01*
X40996156Y-29089837D01*
X40821567Y-29142798D01*
X40780863Y-29146807D01*
X40768654Y-29149235D01*
X40757154Y-29153999D01*
X40746804Y-29160915D01*
X40738002Y-29169717D01*
X40731086Y-29180067D01*
X40726322Y-29191567D01*
X40723894Y-29203776D01*
X40723894Y-29216224D01*
X40726322Y-29228433D01*
X40731086Y-29239933D01*
X40738002Y-29250283D01*
X40746804Y-29259085D01*
X40757154Y-29266001D01*
X40768654Y-29270765D01*
X40780863Y-29273193D01*
X40821566Y-29277202D01*
X40996155Y-29330163D01*
X40996158Y-29330164D01*
X41140545Y-29407340D01*
X41157058Y-29416167D01*
X41298091Y-29531909D01*
X41413833Y-29672941D01*
X41456835Y-29753392D01*
X41499836Y-29833841D01*
X41499836Y-29833842D01*
X41499837Y-29833844D01*
X41552798Y-30008433D01*
X41566200Y-30144504D01*
X41566200Y-30815496D01*
X41552798Y-30951567D01*
X41499837Y-31126156D01*
X41499836Y-31126159D01*
X41456835Y-31206607D01*
X41413833Y-31287059D01*
X41298091Y-31428091D01*
X41157059Y-31543833D01*
X41076608Y-31586835D01*
X40996159Y-31629836D01*
X40996156Y-31629837D01*
X40821567Y-31682798D01*
X40780863Y-31686807D01*
X40768654Y-31689235D01*
X40757154Y-31693999D01*
X40746804Y-31700915D01*
X40738002Y-31709717D01*
X40731086Y-31720067D01*
X40726322Y-31731567D01*
X40723894Y-31743776D01*
X40723894Y-31756224D01*
X40726322Y-31768433D01*
X40731086Y-31779933D01*
X40738002Y-31790283D01*
X40746804Y-31799085D01*
X40757154Y-31806001D01*
X40768654Y-31810765D01*
X40780863Y-31813193D01*
X40821566Y-31817202D01*
X40996155Y-31870163D01*
X40996158Y-31870164D01*
X41123257Y-31938100D01*
X41157058Y-31956167D01*
X41298091Y-32071909D01*
X41413833Y-32212941D01*
X41456835Y-32293392D01*
X41499836Y-32373841D01*
X41499836Y-32373842D01*
X41499837Y-32373844D01*
X41552798Y-32548433D01*
X41566200Y-32684504D01*
X41566200Y-33355496D01*
X41552798Y-33491567D01*
X41499837Y-33666156D01*
X41499836Y-33666159D01*
X41456835Y-33746608D01*
X41413833Y-33827059D01*
X41298091Y-33968091D01*
X41157059Y-34083833D01*
X41076607Y-34126835D01*
X40996159Y-34169836D01*
X40996156Y-34169837D01*
X40821567Y-34222798D01*
X40780863Y-34226807D01*
X40768654Y-34229235D01*
X40757154Y-34233999D01*
X40746804Y-34240915D01*
X40738002Y-34249717D01*
X40731086Y-34260067D01*
X40726322Y-34271567D01*
X40723894Y-34283776D01*
X40723894Y-34296224D01*
X40726322Y-34308433D01*
X40731086Y-34319933D01*
X40738002Y-34330283D01*
X40746804Y-34339085D01*
X40757154Y-34346001D01*
X40768654Y-34350765D01*
X40780863Y-34353193D01*
X40821566Y-34357202D01*
X40996155Y-34410163D01*
X40996158Y-34410164D01*
X41123257Y-34478100D01*
X41157058Y-34496167D01*
X41298091Y-34611909D01*
X41413833Y-34752941D01*
X41456835Y-34833393D01*
X41499836Y-34913841D01*
X41499836Y-34913842D01*
X41499837Y-34913844D01*
X41552798Y-35088433D01*
X41566200Y-35224504D01*
X41566200Y-35895496D01*
X41552798Y-36031567D01*
X41499837Y-36206156D01*
X41499836Y-36206159D01*
X41456835Y-36286607D01*
X41413833Y-36367059D01*
X41298091Y-36508091D01*
X41157059Y-36623833D01*
X41076608Y-36666835D01*
X40996159Y-36709836D01*
X40996156Y-36709837D01*
X40821567Y-36762798D01*
X40780863Y-36766807D01*
X40768654Y-36769235D01*
X40757154Y-36773999D01*
X40746804Y-36780915D01*
X40738002Y-36789717D01*
X40731086Y-36800067D01*
X40726322Y-36811567D01*
X40723894Y-36823776D01*
X40723894Y-36836224D01*
X40726322Y-36848433D01*
X40731086Y-36859933D01*
X40738002Y-36870283D01*
X40746804Y-36879085D01*
X40757154Y-36886001D01*
X40768654Y-36890765D01*
X40780863Y-36893193D01*
X40821566Y-36897202D01*
X40996155Y-36950163D01*
X40996158Y-36950164D01*
X41123257Y-37018100D01*
X41157058Y-37036167D01*
X41298091Y-37151909D01*
X41413833Y-37292941D01*
X41456835Y-37373393D01*
X41499836Y-37453841D01*
X41499836Y-37453842D01*
X41499837Y-37453844D01*
X41552798Y-37628433D01*
X41566200Y-37764504D01*
X41566200Y-38435496D01*
X41552798Y-38571567D01*
X41499837Y-38746156D01*
X41499836Y-38746159D01*
X41456835Y-38826607D01*
X41413833Y-38907059D01*
X41298091Y-39048091D01*
X41157059Y-39163833D01*
X41076607Y-39206835D01*
X40996159Y-39249836D01*
X40996156Y-39249837D01*
X40821567Y-39302798D01*
X40780863Y-39306807D01*
X40768654Y-39309235D01*
X40757154Y-39313999D01*
X40746804Y-39320915D01*
X40738002Y-39329717D01*
X40731086Y-39340067D01*
X40726322Y-39351567D01*
X40723894Y-39363776D01*
X40723894Y-39376224D01*
X40726322Y-39388433D01*
X40731086Y-39399933D01*
X40738002Y-39410283D01*
X40746804Y-39419085D01*
X40757154Y-39426001D01*
X40768654Y-39430765D01*
X40780863Y-39433193D01*
X40821566Y-39437202D01*
X40996155Y-39490163D01*
X40996158Y-39490164D01*
X41123257Y-39558100D01*
X41157058Y-39576167D01*
X41298091Y-39691909D01*
X41413833Y-39832941D01*
X41456835Y-39913393D01*
X41499836Y-39993841D01*
X41499836Y-39993842D01*
X41499837Y-39993844D01*
X41552798Y-40168433D01*
X41566200Y-40304504D01*
X41566200Y-40975496D01*
X41552798Y-41111567D01*
X41499837Y-41286156D01*
X41499836Y-41286159D01*
X41456835Y-41366608D01*
X41413833Y-41447059D01*
X41298091Y-41588091D01*
X41157059Y-41703833D01*
X41076608Y-41746835D01*
X40996159Y-41789836D01*
X40996156Y-41789837D01*
X40821567Y-41842798D01*
X40780863Y-41846807D01*
X40768654Y-41849235D01*
X40757154Y-41853999D01*
X40746804Y-41860915D01*
X40738002Y-41869717D01*
X40731086Y-41880067D01*
X40726322Y-41891567D01*
X40723894Y-41903776D01*
X40723894Y-41916224D01*
X40726322Y-41928433D01*
X40731086Y-41939933D01*
X40738002Y-41950283D01*
X40746804Y-41959085D01*
X40757154Y-41966001D01*
X40768654Y-41970765D01*
X40780863Y-41973193D01*
X40821566Y-41977202D01*
X40996155Y-42030163D01*
X40996158Y-42030164D01*
X41123257Y-42098100D01*
X41157058Y-42116167D01*
X41298091Y-42231909D01*
X41413833Y-42372941D01*
X41456835Y-42453393D01*
X41499836Y-42533841D01*
X41499836Y-42533842D01*
X41499837Y-42533844D01*
X41552798Y-42708433D01*
X41566200Y-42844504D01*
X41566200Y-43515496D01*
X41552798Y-43651567D01*
X41499837Y-43826156D01*
X41499836Y-43826159D01*
X41456835Y-43906608D01*
X41413833Y-43987059D01*
X41298091Y-44128091D01*
X41157059Y-44243833D01*
X41076607Y-44286835D01*
X40996159Y-44329836D01*
X40996156Y-44329837D01*
X40821567Y-44382798D01*
X40780863Y-44386807D01*
X40768654Y-44389235D01*
X40757154Y-44393999D01*
X40746804Y-44400915D01*
X40738002Y-44409717D01*
X40731086Y-44420067D01*
X40726322Y-44431567D01*
X40723894Y-44443776D01*
X40723894Y-44456224D01*
X40726322Y-44468433D01*
X40731086Y-44479933D01*
X40738002Y-44490283D01*
X40746804Y-44499085D01*
X40757154Y-44506001D01*
X40768654Y-44510765D01*
X40780863Y-44513193D01*
X40821566Y-44517202D01*
X40996155Y-44570163D01*
X40996158Y-44570164D01*
X41140545Y-44647340D01*
X41157058Y-44656167D01*
X41298091Y-44771909D01*
X41413833Y-44912941D01*
X41456835Y-44993393D01*
X41499836Y-45073841D01*
X41499836Y-45073842D01*
X41499837Y-45073844D01*
X41552798Y-45248433D01*
X41566200Y-45384504D01*
X41566200Y-46055496D01*
X41552798Y-46191567D01*
X41499837Y-46366156D01*
X41499836Y-46366159D01*
X41456835Y-46446607D01*
X41413833Y-46527059D01*
X41298091Y-46668091D01*
X41157059Y-46783833D01*
X41076608Y-46826835D01*
X40996159Y-46869836D01*
X40996156Y-46869837D01*
X40821567Y-46922798D01*
X40780863Y-46926807D01*
X40768654Y-46929235D01*
X40757154Y-46933999D01*
X40746804Y-46940915D01*
X40738002Y-46949717D01*
X40731086Y-46960067D01*
X40726322Y-46971567D01*
X40723894Y-46983776D01*
X40723894Y-46996224D01*
X40726322Y-47008433D01*
X40731086Y-47019933D01*
X40738002Y-47030283D01*
X40746804Y-47039085D01*
X40757154Y-47046001D01*
X40768654Y-47050765D01*
X40780863Y-47053193D01*
X40821566Y-47057202D01*
X40996155Y-47110163D01*
X40996158Y-47110164D01*
X41140545Y-47187340D01*
X41157058Y-47196167D01*
X41298091Y-47311909D01*
X41413833Y-47452941D01*
X41456835Y-47533393D01*
X41499836Y-47613841D01*
X41499836Y-47613842D01*
X41499837Y-47613844D01*
X41552798Y-47788433D01*
X41566200Y-47924504D01*
X41566200Y-48595496D01*
X41552798Y-48731567D01*
X41499837Y-48906156D01*
X41499836Y-48906159D01*
X41456835Y-48986608D01*
X41413833Y-49067059D01*
X41298091Y-49208091D01*
X41157059Y-49323833D01*
X41076608Y-49366835D01*
X40996159Y-49409836D01*
X40996156Y-49409837D01*
X40821567Y-49462798D01*
X40780863Y-49466807D01*
X40768654Y-49469235D01*
X40757154Y-49473999D01*
X40746804Y-49480915D01*
X40738002Y-49489717D01*
X40731086Y-49500067D01*
X40726322Y-49511567D01*
X40723894Y-49523776D01*
X40723894Y-49536224D01*
X40726322Y-49548433D01*
X40731086Y-49559933D01*
X40738002Y-49570283D01*
X40746804Y-49579085D01*
X40757154Y-49586001D01*
X40768654Y-49590765D01*
X40780863Y-49593193D01*
X40821566Y-49597202D01*
X40996155Y-49650163D01*
X40996158Y-49650164D01*
X41035513Y-49671200D01*
X41157058Y-49736167D01*
X41298091Y-49851909D01*
X41413833Y-49992941D01*
X41456835Y-50073393D01*
X41499836Y-50153841D01*
X41499836Y-50153842D01*
X41499837Y-50153844D01*
X41552798Y-50328433D01*
X41566200Y-50464504D01*
X41566200Y-51135496D01*
X41552798Y-51271567D01*
X41499837Y-51446156D01*
X41499836Y-51446159D01*
X41456835Y-51526608D01*
X41413833Y-51607059D01*
X41298091Y-51748091D01*
X41157059Y-51863833D01*
X41076608Y-51906835D01*
X40996159Y-51949836D01*
X40996156Y-51949837D01*
X40821567Y-52002798D01*
X40780863Y-52006807D01*
X40768654Y-52009235D01*
X40757154Y-52013999D01*
X40746804Y-52020915D01*
X40738002Y-52029717D01*
X40731086Y-52040067D01*
X40726322Y-52051567D01*
X40723894Y-52063776D01*
X40723894Y-52076224D01*
X40726322Y-52088433D01*
X40731086Y-52099933D01*
X40738002Y-52110283D01*
X40746804Y-52119085D01*
X40757154Y-52126001D01*
X40768654Y-52130765D01*
X40780863Y-52133193D01*
X40821566Y-52137202D01*
X40996155Y-52190163D01*
X40996158Y-52190164D01*
X41140545Y-52267340D01*
X41157058Y-52276167D01*
X41298091Y-52391909D01*
X41413833Y-52532941D01*
X41430033Y-52563249D01*
X41499836Y-52693841D01*
X41499836Y-52693842D01*
X41499837Y-52693844D01*
X41552798Y-52868433D01*
X41566200Y-53004504D01*
X41566200Y-53675496D01*
X41552798Y-53811567D01*
X41502474Y-53977463D01*
X41499836Y-53986159D01*
X41456835Y-54066608D01*
X41413833Y-54147059D01*
X41298091Y-54288091D01*
X41157059Y-54403833D01*
X41076608Y-54446835D01*
X40996159Y-54489836D01*
X40996156Y-54489837D01*
X40821567Y-54542798D01*
X40640000Y-54560681D01*
X40458434Y-54542798D01*
X40283845Y-54489837D01*
X40283842Y-54489836D01*
X40203393Y-54446835D01*
X40122942Y-54403833D01*
X39981910Y-54288091D01*
X39866168Y-54147059D01*
X39780163Y-53986156D01*
X39727202Y-53811567D01*
X39713800Y-53675496D01*
X39713800Y-53004505D01*
X39727202Y-52868434D01*
X39780163Y-52693845D01*
X39780164Y-52693842D01*
X39866166Y-52532944D01*
X39866167Y-52532942D01*
X39981909Y-52391909D01*
X40122941Y-52276167D01*
X40203393Y-52233165D01*
X40283841Y-52190164D01*
X40283844Y-52190163D01*
X40458433Y-52137202D01*
X40499137Y-52133193D01*
X40511346Y-52130765D01*
X40522846Y-52126001D01*
X40533196Y-52119085D01*
X40541998Y-52110283D01*
X40548914Y-52099933D01*
X40553678Y-52088433D01*
X40556106Y-52076224D01*
X40556106Y-52063776D01*
X40553678Y-52051567D01*
X40548914Y-52040067D01*
X40541998Y-52029717D01*
X40533196Y-52020915D01*
X40522846Y-52013999D01*
X40511346Y-52009235D01*
X40499137Y-52006807D01*
X40494833Y-52006383D01*
X40458434Y-52002798D01*
X40283845Y-51949837D01*
X40283842Y-51949836D01*
X40203394Y-51906835D01*
X40122942Y-51863833D01*
X39981910Y-51748091D01*
X39866168Y-51607059D01*
X39780163Y-51446156D01*
X39727202Y-51271567D01*
X39713800Y-51135496D01*
X39713800Y-50464505D01*
X39727202Y-50328434D01*
X39780163Y-50153845D01*
X39780164Y-50153842D01*
X39866166Y-49992944D01*
X39866167Y-49992942D01*
X39981909Y-49851909D01*
X40122941Y-49736167D01*
X40244486Y-49671200D01*
X40283841Y-49650164D01*
X40283844Y-49650163D01*
X40458433Y-49597202D01*
X40499137Y-49593193D01*
X40511346Y-49590765D01*
X40522846Y-49586001D01*
X40533196Y-49579085D01*
X40541998Y-49570283D01*
X40548914Y-49559933D01*
X40553678Y-49548433D01*
X40556106Y-49536224D01*
X40556106Y-49523776D01*
X40553678Y-49511567D01*
X40548914Y-49500067D01*
X40541998Y-49489717D01*
X40533196Y-49480915D01*
X40522846Y-49473999D01*
X40511346Y-49469235D01*
X40499137Y-49466807D01*
X40494833Y-49466383D01*
X40458434Y-49462798D01*
X40283845Y-49409837D01*
X40283842Y-49409836D01*
X40203393Y-49366835D01*
X40122942Y-49323833D01*
X39981910Y-49208091D01*
X39866168Y-49067059D01*
X39780163Y-48906156D01*
X39727202Y-48731567D01*
X39713800Y-48595496D01*
X39713800Y-47924505D01*
X39727202Y-47788434D01*
X39780163Y-47613845D01*
X39780164Y-47613842D01*
X39866166Y-47452944D01*
X39866167Y-47452942D01*
X39981909Y-47311909D01*
X40122941Y-47196167D01*
X40203393Y-47153165D01*
X40283841Y-47110164D01*
X40283844Y-47110163D01*
X40458433Y-47057202D01*
X40499137Y-47053193D01*
X40511346Y-47050765D01*
X40522846Y-47046001D01*
X40533196Y-47039085D01*
X40541998Y-47030283D01*
X40548914Y-47019933D01*
X40553678Y-47008433D01*
X40556106Y-46996224D01*
X40556106Y-46983776D01*
X40553678Y-46971567D01*
X40548914Y-46960067D01*
X40541998Y-46949717D01*
X40533196Y-46940915D01*
X40522846Y-46933999D01*
X40511346Y-46929235D01*
X40499137Y-46926807D01*
X40494833Y-46926383D01*
X40458434Y-46922798D01*
X40283845Y-46869837D01*
X40283842Y-46869836D01*
X40203393Y-46826835D01*
X40122942Y-46783833D01*
X39981910Y-46668091D01*
X39866168Y-46527059D01*
X39780163Y-46366156D01*
X39727202Y-46191567D01*
X39713800Y-46055496D01*
X39713800Y-45384505D01*
X39727202Y-45248434D01*
X39780163Y-45073845D01*
X39780164Y-45073842D01*
X39866166Y-44912944D01*
X39866167Y-44912942D01*
X39981909Y-44771909D01*
X40122941Y-44656167D01*
X40203392Y-44613165D01*
X40283841Y-44570164D01*
X40283844Y-44570163D01*
X40458433Y-44517202D01*
X40499137Y-44513193D01*
X40511346Y-44510765D01*
X40522846Y-44506001D01*
X40533196Y-44499085D01*
X40541998Y-44490283D01*
X40548914Y-44479933D01*
X40553678Y-44468433D01*
X40556106Y-44456224D01*
X40556106Y-44443776D01*
X40553678Y-44431567D01*
X40548914Y-44420067D01*
X40541998Y-44409717D01*
X40533196Y-44400915D01*
X40522846Y-44393999D01*
X40511346Y-44389235D01*
X40499137Y-44386807D01*
X40494833Y-44386383D01*
X40458434Y-44382798D01*
X40283845Y-44329837D01*
X40283842Y-44329836D01*
X40203394Y-44286835D01*
X40122942Y-44243833D01*
X39981910Y-44128091D01*
X39866168Y-43987059D01*
X39780163Y-43826156D01*
X39727202Y-43651567D01*
X39713800Y-43515496D01*
X39713800Y-42844505D01*
X39727202Y-42708434D01*
X39780163Y-42533845D01*
X39780164Y-42533842D01*
X39866166Y-42372944D01*
X39866167Y-42372942D01*
X39981909Y-42231909D01*
X40122941Y-42116167D01*
X40203393Y-42073165D01*
X40283841Y-42030164D01*
X40283844Y-42030163D01*
X40458433Y-41977202D01*
X40499137Y-41973193D01*
X40511346Y-41970765D01*
X40522846Y-41966001D01*
X40533196Y-41959085D01*
X40541998Y-41950283D01*
X40548914Y-41939933D01*
X40553678Y-41928433D01*
X40556106Y-41916224D01*
X40556106Y-41903776D01*
X40553678Y-41891567D01*
X40548914Y-41880067D01*
X40541998Y-41869717D01*
X40533196Y-41860915D01*
X40522846Y-41853999D01*
X40511346Y-41849235D01*
X40499137Y-41846807D01*
X40494833Y-41846383D01*
X40458434Y-41842798D01*
X40283845Y-41789837D01*
X40283842Y-41789836D01*
X40203393Y-41746835D01*
X40122942Y-41703833D01*
X39981910Y-41588091D01*
X39866168Y-41447059D01*
X39780163Y-41286156D01*
X39727202Y-41111567D01*
X39713800Y-40975496D01*
X39713800Y-40304505D01*
X39727202Y-40168434D01*
X39780163Y-39993845D01*
X39780164Y-39993842D01*
X39866166Y-39832944D01*
X39866167Y-39832942D01*
X39981909Y-39691909D01*
X40122941Y-39576167D01*
X40203392Y-39533165D01*
X40283841Y-39490164D01*
X40283844Y-39490163D01*
X40458433Y-39437202D01*
X40499137Y-39433193D01*
X40511346Y-39430765D01*
X40522846Y-39426001D01*
X40533196Y-39419085D01*
X40541998Y-39410283D01*
X40548914Y-39399933D01*
X40553678Y-39388433D01*
X40556106Y-39376224D01*
X40556106Y-39363776D01*
X40553678Y-39351567D01*
X40548914Y-39340067D01*
X40541998Y-39329717D01*
X40533196Y-39320915D01*
X40522846Y-39313999D01*
X40511346Y-39309235D01*
X40499137Y-39306807D01*
X40494833Y-39306383D01*
X40458434Y-39302798D01*
X40283845Y-39249837D01*
X40283842Y-39249836D01*
X40203394Y-39206835D01*
X40122942Y-39163833D01*
X39981910Y-39048091D01*
X39866168Y-38907059D01*
X39780163Y-38746156D01*
X39727202Y-38571567D01*
X39713800Y-38435496D01*
X39713800Y-37764505D01*
X39727202Y-37628434D01*
X39780163Y-37453845D01*
X39780164Y-37453842D01*
X39866166Y-37292944D01*
X39866167Y-37292942D01*
X39981909Y-37151909D01*
X40122941Y-37036167D01*
X40203393Y-36993165D01*
X40283841Y-36950164D01*
X40283844Y-36950163D01*
X40458433Y-36897202D01*
X40499137Y-36893193D01*
X40511346Y-36890765D01*
X40522846Y-36886001D01*
X40533196Y-36879085D01*
X40541998Y-36870283D01*
X40548914Y-36859933D01*
X40553678Y-36848433D01*
X40556106Y-36836224D01*
X40556106Y-36823776D01*
X40553678Y-36811567D01*
X40548914Y-36800067D01*
X40541998Y-36789717D01*
X40533196Y-36780915D01*
X40522846Y-36773999D01*
X40511346Y-36769235D01*
X40499137Y-36766807D01*
X40494833Y-36766383D01*
X40458434Y-36762798D01*
X40283845Y-36709837D01*
X40283842Y-36709836D01*
X40203393Y-36666835D01*
X40122942Y-36623833D01*
X39981910Y-36508091D01*
X39866168Y-36367059D01*
X39780163Y-36206156D01*
X39727202Y-36031567D01*
X39713800Y-35895496D01*
X39713800Y-35224505D01*
X39727202Y-35088434D01*
X39780163Y-34913845D01*
X39780164Y-34913842D01*
X39866166Y-34752944D01*
X39866167Y-34752942D01*
X39981909Y-34611909D01*
X40122941Y-34496167D01*
X40203392Y-34453165D01*
X40283841Y-34410164D01*
X40283844Y-34410163D01*
X40458433Y-34357202D01*
X40499137Y-34353193D01*
X40511346Y-34350765D01*
X40522846Y-34346001D01*
X40533196Y-34339085D01*
X40541998Y-34330283D01*
X40548914Y-34319933D01*
X40553678Y-34308433D01*
X40556106Y-34296224D01*
X40556106Y-34283776D01*
X40553678Y-34271567D01*
X40548914Y-34260067D01*
X40541998Y-34249717D01*
X40533196Y-34240915D01*
X40522846Y-34233999D01*
X40511346Y-34229235D01*
X40499137Y-34226807D01*
X40494833Y-34226383D01*
X40458434Y-34222798D01*
X40283845Y-34169837D01*
X40283842Y-34169836D01*
X40203394Y-34126835D01*
X40122942Y-34083833D01*
X39981910Y-33968091D01*
X39866168Y-33827059D01*
X39780163Y-33666156D01*
X39727202Y-33491567D01*
X39713800Y-33355496D01*
X39713800Y-32684505D01*
X39727202Y-32548434D01*
X39780163Y-32373845D01*
X39780164Y-32373842D01*
X39866166Y-32212944D01*
X39866167Y-32212942D01*
X39981909Y-32071909D01*
X40122941Y-31956167D01*
X40203393Y-31913165D01*
X40283841Y-31870164D01*
X40283844Y-31870163D01*
X40458433Y-31817202D01*
X40499137Y-31813193D01*
X40511346Y-31810765D01*
X40522846Y-31806001D01*
X40533196Y-31799085D01*
X40541998Y-31790283D01*
X40548914Y-31779933D01*
X40553678Y-31768433D01*
X40556106Y-31756224D01*
X40556106Y-31743776D01*
X40553678Y-31731567D01*
X40548914Y-31720067D01*
X40541998Y-31709717D01*
X40533196Y-31700915D01*
X40522846Y-31693999D01*
X40511346Y-31689235D01*
X40499137Y-31686807D01*
X40494833Y-31686383D01*
X40458434Y-31682798D01*
X40283845Y-31629837D01*
X40283842Y-31629836D01*
X40203394Y-31586835D01*
X40122942Y-31543833D01*
X39981910Y-31428091D01*
X39866168Y-31287059D01*
X39780163Y-31126156D01*
X39727202Y-30951567D01*
X39713800Y-30815496D01*
X39713800Y-30144505D01*
X39727202Y-30008434D01*
X39780163Y-29833845D01*
X39780164Y-29833842D01*
X39866166Y-29672944D01*
X39866167Y-29672942D01*
X39981909Y-29531909D01*
X40122941Y-29416167D01*
X40203393Y-29373165D01*
X40283841Y-29330164D01*
X40283844Y-29330163D01*
X40458433Y-29277202D01*
X40499137Y-29273193D01*
X40511346Y-29270765D01*
X40522846Y-29266001D01*
X40533196Y-29259085D01*
X40541998Y-29250283D01*
X40548914Y-29239933D01*
X40553678Y-29228433D01*
X40556106Y-29216224D01*
X40556106Y-29203776D01*
X40553678Y-29191567D01*
X40548914Y-29180067D01*
X40541998Y-29169717D01*
X40533196Y-29160915D01*
X40522846Y-29153999D01*
X40511346Y-29149235D01*
X40499137Y-29146807D01*
X40494833Y-29146383D01*
X40458434Y-29142798D01*
X40283845Y-29089837D01*
X40283842Y-29089836D01*
X40203393Y-29046835D01*
X40122942Y-29003833D01*
X39981910Y-28888091D01*
X39866168Y-28747059D01*
X39780163Y-28586156D01*
X39727202Y-28411567D01*
X39713800Y-28275496D01*
X39713800Y-27604505D01*
X39727202Y-27468434D01*
X39780163Y-27293845D01*
X39780164Y-27293842D01*
X39866166Y-27132944D01*
X39866167Y-27132942D01*
X39981909Y-26991909D01*
X40122941Y-26876167D01*
X40203392Y-26833165D01*
X40283841Y-26790164D01*
X40283844Y-26790163D01*
X40458433Y-26737202D01*
X40499137Y-26733193D01*
X40511346Y-26730765D01*
X40522846Y-26726001D01*
X40533196Y-26719085D01*
X40541998Y-26710283D01*
X40548914Y-26699933D01*
X40553678Y-26688433D01*
X40556106Y-26676224D01*
X40556106Y-26663776D01*
X40553678Y-26651567D01*
X40548914Y-26640067D01*
X40541998Y-26629717D01*
X40533196Y-26620915D01*
X40522846Y-26613999D01*
X40511346Y-26609235D01*
X40499137Y-26606807D01*
X40494833Y-26606383D01*
X40458434Y-26602798D01*
X40283845Y-26549837D01*
X40283842Y-26549836D01*
X40191994Y-26500742D01*
X40122942Y-26463833D01*
X39981910Y-26348091D01*
X39866168Y-26207059D01*
X39780163Y-26046156D01*
X39727202Y-25871567D01*
X39713800Y-25735496D01*
X39713800Y-25064505D01*
X39727202Y-24928434D01*
X39780163Y-24753845D01*
X39780164Y-24753842D01*
X39866166Y-24592944D01*
X39866167Y-24592942D01*
X39981909Y-24451909D01*
X40122941Y-24336167D01*
X40203393Y-24293165D01*
X40283841Y-24250164D01*
X40283844Y-24250163D01*
X40458433Y-24197202D01*
X40499137Y-24193193D01*
X40511346Y-24190765D01*
X40522846Y-24186001D01*
X40533196Y-24179085D01*
X40541998Y-24170283D01*
X40548914Y-24159933D01*
X40553678Y-24148433D01*
X40556106Y-24136224D01*
X40556106Y-24123776D01*
X40553678Y-24111567D01*
X40548914Y-24100067D01*
X40541998Y-24089717D01*
X40533196Y-24080915D01*
X40522846Y-24073999D01*
X40511346Y-24069235D01*
X40499137Y-24066807D01*
X40494833Y-24066383D01*
X40458434Y-24062798D01*
X40283845Y-24009837D01*
X40283842Y-24009836D01*
X40203394Y-23966835D01*
X40122942Y-23923833D01*
X39981910Y-23808091D01*
X39866168Y-23667059D01*
X39780163Y-23506156D01*
X39727202Y-23331567D01*
X39713800Y-23195496D01*
X39713800Y-22524505D01*
X39727202Y-22388434D01*
X39780163Y-22213845D01*
X39780164Y-22213842D01*
X39866166Y-22052944D01*
X39866167Y-22052942D01*
X39981909Y-21911909D01*
X40122941Y-21796167D01*
X40203393Y-21753165D01*
X40283841Y-21710164D01*
X40283844Y-21710163D01*
X40458433Y-21657202D01*
X40499137Y-21653193D01*
X40511346Y-21650765D01*
X40522846Y-21646001D01*
X40533196Y-21639085D01*
X40541998Y-21630283D01*
X40548914Y-21619933D01*
X40553678Y-21608433D01*
X40556106Y-21596224D01*
X40556106Y-21583776D01*
X40553678Y-21571567D01*
X40548914Y-21560067D01*
X40541998Y-21549717D01*
X40533196Y-21540915D01*
X40522846Y-21533999D01*
X40511346Y-21529235D01*
X40499137Y-21526807D01*
X40494833Y-21526383D01*
X40458434Y-21522798D01*
X40283845Y-21469837D01*
X40283842Y-21469836D01*
X40203394Y-21426835D01*
X40122942Y-21383833D01*
X39981910Y-21268091D01*
X39866168Y-21127059D01*
X39780163Y-20966156D01*
X39727202Y-20791567D01*
X39713800Y-20655496D01*
X39713800Y-19984505D01*
X39727202Y-19848434D01*
X39780163Y-19673845D01*
X39780164Y-19673842D01*
X39866166Y-19512944D01*
X39866167Y-19512942D01*
X39981909Y-19371909D01*
X40122941Y-19256167D01*
X40203392Y-19213165D01*
X40283841Y-19170164D01*
X40283844Y-19170163D01*
X40458433Y-19117202D01*
X40640000Y-19099319D01*
X40821566Y-19117202D01*
X40821566Y-19117202D01*
G37*
G36*
X56061566Y-19117202D02*
G01*
X56236155Y-19170163D01*
X56236158Y-19170164D01*
X56380545Y-19247340D01*
X56397058Y-19256167D01*
X56538091Y-19371909D01*
X56653833Y-19512941D01*
X56670033Y-19543249D01*
X56739836Y-19673841D01*
X56739836Y-19673842D01*
X56739837Y-19673844D01*
X56792798Y-19848433D01*
X56806200Y-19984504D01*
X56806200Y-20655496D01*
X56792798Y-20791567D01*
X56742474Y-20957463D01*
X56739836Y-20966159D01*
X56696835Y-21046607D01*
X56653833Y-21127059D01*
X56538091Y-21268091D01*
X56397059Y-21383833D01*
X56316607Y-21426835D01*
X56236159Y-21469836D01*
X56236156Y-21469837D01*
X56061567Y-21522798D01*
X56020863Y-21526807D01*
X56008654Y-21529235D01*
X55997154Y-21533999D01*
X55986804Y-21540915D01*
X55978002Y-21549717D01*
X55971086Y-21560067D01*
X55966322Y-21571567D01*
X55963894Y-21583776D01*
X55963894Y-21596224D01*
X55966322Y-21608433D01*
X55971086Y-21619933D01*
X55978002Y-21630283D01*
X55986804Y-21639085D01*
X55997154Y-21646001D01*
X56008654Y-21650765D01*
X56020863Y-21653193D01*
X56061566Y-21657202D01*
X56236155Y-21710163D01*
X56236158Y-21710164D01*
X56380545Y-21787340D01*
X56397058Y-21796167D01*
X56538091Y-21911909D01*
X56653833Y-22052941D01*
X56696835Y-22133393D01*
X56739836Y-22213841D01*
X56739836Y-22213842D01*
X56739837Y-22213844D01*
X56792798Y-22388433D01*
X56806200Y-22524504D01*
X56806200Y-23195496D01*
X56792798Y-23331567D01*
X56739837Y-23506156D01*
X56739836Y-23506159D01*
X56696835Y-23586607D01*
X56653833Y-23667059D01*
X56538091Y-23808091D01*
X56397059Y-23923833D01*
X56316608Y-23966835D01*
X56236159Y-24009836D01*
X56236156Y-24009837D01*
X56061567Y-24062798D01*
X56020863Y-24066807D01*
X56008654Y-24069235D01*
X55997154Y-24073999D01*
X55986804Y-24080915D01*
X55978002Y-24089717D01*
X55971086Y-24100067D01*
X55966322Y-24111567D01*
X55963894Y-24123776D01*
X55963894Y-24136224D01*
X55966322Y-24148433D01*
X55971086Y-24159933D01*
X55978002Y-24170283D01*
X55986804Y-24179085D01*
X55997154Y-24186001D01*
X56008654Y-24190765D01*
X56020863Y-24193193D01*
X56061566Y-24197202D01*
X56236155Y-24250163D01*
X56236158Y-24250164D01*
X56380545Y-24327340D01*
X56397058Y-24336167D01*
X56538091Y-24451909D01*
X56653833Y-24592941D01*
X56659143Y-24602876D01*
X56739836Y-24753841D01*
X56739836Y-24753842D01*
X56739837Y-24753844D01*
X56792798Y-24928433D01*
X56806200Y-25064504D01*
X56806200Y-25735496D01*
X56792798Y-25871567D01*
X56749757Y-26013454D01*
X56739836Y-26046159D01*
X56732501Y-26059881D01*
X56653833Y-26207059D01*
X56538091Y-26348091D01*
X56397059Y-26463833D01*
X56328007Y-26500742D01*
X56236159Y-26549836D01*
X56236156Y-26549837D01*
X56061567Y-26602798D01*
X56020863Y-26606807D01*
X56008654Y-26609235D01*
X55997154Y-26613999D01*
X55986804Y-26620915D01*
X55978002Y-26629717D01*
X55971086Y-26640067D01*
X55966322Y-26651567D01*
X55963894Y-26663776D01*
X55963894Y-26676224D01*
X55966322Y-26688433D01*
X55971086Y-26699933D01*
X55978002Y-26710283D01*
X55986804Y-26719085D01*
X55997154Y-26726001D01*
X56008654Y-26730765D01*
X56020863Y-26733193D01*
X56061566Y-26737202D01*
X56236155Y-26790163D01*
X56236158Y-26790164D01*
X56380545Y-26867340D01*
X56397058Y-26876167D01*
X56538091Y-26991909D01*
X56653833Y-27132941D01*
X56660599Y-27145600D01*
X56739836Y-27293841D01*
X56739836Y-27293842D01*
X56739837Y-27293844D01*
X56792798Y-27468433D01*
X56806200Y-27604504D01*
X56806200Y-28275496D01*
X56792798Y-28411567D01*
X56739837Y-28586156D01*
X56739836Y-28586159D01*
X56696835Y-28666607D01*
X56653833Y-28747059D01*
X56538091Y-28888091D01*
X56397059Y-29003833D01*
X56316608Y-29046835D01*
X56236159Y-29089836D01*
X56236156Y-29089837D01*
X56061567Y-29142798D01*
X56020863Y-29146807D01*
X56008654Y-29149235D01*
X55997154Y-29153999D01*
X55986804Y-29160915D01*
X55978002Y-29169717D01*
X55971086Y-29180067D01*
X55966322Y-29191567D01*
X55963894Y-29203776D01*
X55963894Y-29216224D01*
X55966322Y-29228433D01*
X55971086Y-29239933D01*
X55978002Y-29250283D01*
X55986804Y-29259085D01*
X55997154Y-29266001D01*
X56008654Y-29270765D01*
X56020863Y-29273193D01*
X56061566Y-29277202D01*
X56236155Y-29330163D01*
X56236158Y-29330164D01*
X56380545Y-29407340D01*
X56397058Y-29416167D01*
X56538091Y-29531909D01*
X56653833Y-29672941D01*
X56696835Y-29753392D01*
X56739836Y-29833841D01*
X56739836Y-29833842D01*
X56739837Y-29833844D01*
X56792798Y-30008433D01*
X56806200Y-30144504D01*
X56806200Y-30815496D01*
X56792798Y-30951567D01*
X56739837Y-31126156D01*
X56739836Y-31126159D01*
X56696835Y-31206608D01*
X56653833Y-31287059D01*
X56538091Y-31428091D01*
X56397059Y-31543833D01*
X56316608Y-31586835D01*
X56236159Y-31629836D01*
X56236156Y-31629837D01*
X56061567Y-31682798D01*
X56020863Y-31686807D01*
X56008654Y-31689235D01*
X55997154Y-31693999D01*
X55986804Y-31700915D01*
X55978002Y-31709717D01*
X55971086Y-31720067D01*
X55966322Y-31731567D01*
X55963894Y-31743776D01*
X55963894Y-31756224D01*
X55966322Y-31768433D01*
X55971086Y-31779933D01*
X55978002Y-31790283D01*
X55986804Y-31799085D01*
X55997154Y-31806001D01*
X56008654Y-31810765D01*
X56020863Y-31813193D01*
X56061566Y-31817202D01*
X56236155Y-31870163D01*
X56236158Y-31870164D01*
X56363257Y-31938100D01*
X56397058Y-31956167D01*
X56538091Y-32071909D01*
X56653833Y-32212941D01*
X56696835Y-32293392D01*
X56739836Y-32373841D01*
X56739836Y-32373842D01*
X56739837Y-32373844D01*
X56792798Y-32548433D01*
X56806200Y-32684504D01*
X56806200Y-33355496D01*
X56792798Y-33491567D01*
X56739837Y-33666156D01*
X56739836Y-33666159D01*
X56696835Y-33746607D01*
X56653833Y-33827059D01*
X56538091Y-33968091D01*
X56397059Y-34083833D01*
X56316607Y-34126835D01*
X56236159Y-34169836D01*
X56236156Y-34169837D01*
X56061567Y-34222798D01*
X56020863Y-34226807D01*
X56008654Y-34229235D01*
X55997154Y-34233999D01*
X55986804Y-34240915D01*
X55978002Y-34249717D01*
X55971086Y-34260067D01*
X55966322Y-34271567D01*
X55963894Y-34283776D01*
X55963894Y-34296224D01*
X55966322Y-34308433D01*
X55971086Y-34319933D01*
X55978002Y-34330283D01*
X55986804Y-34339085D01*
X55997154Y-34346001D01*
X56008654Y-34350765D01*
X56020863Y-34353193D01*
X56061566Y-34357202D01*
X56236155Y-34410163D01*
X56236158Y-34410164D01*
X56363257Y-34478100D01*
X56397058Y-34496167D01*
X56538091Y-34611909D01*
X56653833Y-34752941D01*
X56696835Y-34833392D01*
X56739836Y-34913841D01*
X56739836Y-34913842D01*
X56739837Y-34913844D01*
X56792798Y-35088433D01*
X56806200Y-35224504D01*
X56806200Y-35895496D01*
X56792798Y-36031567D01*
X56739837Y-36206156D01*
X56739836Y-36206159D01*
X56696835Y-36286607D01*
X56653833Y-36367059D01*
X56538091Y-36508091D01*
X56397059Y-36623833D01*
X56316608Y-36666835D01*
X56236159Y-36709836D01*
X56236156Y-36709837D01*
X56061567Y-36762798D01*
X56020863Y-36766807D01*
X56008654Y-36769235D01*
X55997154Y-36773999D01*
X55986804Y-36780915D01*
X55978002Y-36789717D01*
X55971086Y-36800067D01*
X55966322Y-36811567D01*
X55963894Y-36823776D01*
X55963894Y-36836224D01*
X55966322Y-36848433D01*
X55971086Y-36859933D01*
X55978002Y-36870283D01*
X55986804Y-36879085D01*
X55997154Y-36886001D01*
X56008654Y-36890765D01*
X56020863Y-36893193D01*
X56061566Y-36897202D01*
X56236155Y-36950163D01*
X56236158Y-36950164D01*
X56363257Y-37018100D01*
X56397058Y-37036167D01*
X56538091Y-37151909D01*
X56653833Y-37292941D01*
X56696835Y-37373393D01*
X56739836Y-37453841D01*
X56739836Y-37453842D01*
X56739837Y-37453844D01*
X56792798Y-37628433D01*
X56806200Y-37764504D01*
X56806200Y-38435496D01*
X56792798Y-38571567D01*
X56739837Y-38746156D01*
X56739836Y-38746159D01*
X56696835Y-38826607D01*
X56653833Y-38907059D01*
X56538091Y-39048091D01*
X56397059Y-39163833D01*
X56316607Y-39206835D01*
X56236159Y-39249836D01*
X56236156Y-39249837D01*
X56061567Y-39302798D01*
X56020863Y-39306807D01*
X56008654Y-39309235D01*
X55997154Y-39313999D01*
X55986804Y-39320915D01*
X55978002Y-39329717D01*
X55971086Y-39340067D01*
X55966322Y-39351567D01*
X55963894Y-39363776D01*
X55963894Y-39376224D01*
X55966322Y-39388433D01*
X55971086Y-39399933D01*
X55978002Y-39410283D01*
X55986804Y-39419085D01*
X55997154Y-39426001D01*
X56008654Y-39430765D01*
X56020863Y-39433193D01*
X56061566Y-39437202D01*
X56236155Y-39490163D01*
X56236158Y-39490164D01*
X56363257Y-39558100D01*
X56397058Y-39576167D01*
X56538091Y-39691909D01*
X56653833Y-39832941D01*
X56696835Y-39913393D01*
X56739836Y-39993841D01*
X56739836Y-39993842D01*
X56739837Y-39993844D01*
X56792798Y-40168433D01*
X56806200Y-40304504D01*
X56806200Y-40975496D01*
X56792798Y-41111567D01*
X56739837Y-41286156D01*
X56739836Y-41286159D01*
X56696835Y-41366607D01*
X56653833Y-41447059D01*
X56538091Y-41588091D01*
X56397059Y-41703833D01*
X56316607Y-41746835D01*
X56236159Y-41789836D01*
X56236156Y-41789837D01*
X56061567Y-41842798D01*
X56020863Y-41846807D01*
X56008654Y-41849235D01*
X55997154Y-41853999D01*
X55986804Y-41860915D01*
X55978002Y-41869717D01*
X55971086Y-41880067D01*
X55966322Y-41891567D01*
X55963894Y-41903776D01*
X55963894Y-41916224D01*
X55966322Y-41928433D01*
X55971086Y-41939933D01*
X55978002Y-41950283D01*
X55986804Y-41959085D01*
X55997154Y-41966001D01*
X56008654Y-41970765D01*
X56020863Y-41973193D01*
X56061566Y-41977202D01*
X56236155Y-42030163D01*
X56236158Y-42030164D01*
X56363257Y-42098100D01*
X56397058Y-42116167D01*
X56538091Y-42231909D01*
X56653833Y-42372941D01*
X56696835Y-42453393D01*
X56739836Y-42533841D01*
X56739836Y-42533842D01*
X56739837Y-42533844D01*
X56792798Y-42708433D01*
X56806200Y-42844504D01*
X56806200Y-43515496D01*
X56792798Y-43651567D01*
X56739837Y-43826156D01*
X56739836Y-43826159D01*
X56696835Y-43906608D01*
X56653833Y-43987059D01*
X56538091Y-44128091D01*
X56397059Y-44243833D01*
X56316608Y-44286835D01*
X56236159Y-44329836D01*
X56236156Y-44329837D01*
X56061567Y-44382798D01*
X56020863Y-44386807D01*
X56008654Y-44389235D01*
X55997154Y-44393999D01*
X55986804Y-44400915D01*
X55978002Y-44409717D01*
X55971086Y-44420067D01*
X55966322Y-44431567D01*
X55963894Y-44443776D01*
X55963894Y-44456224D01*
X55966322Y-44468433D01*
X55971086Y-44479933D01*
X55978002Y-44490283D01*
X55986804Y-44499085D01*
X55997154Y-44506001D01*
X56008654Y-44510765D01*
X56020863Y-44513193D01*
X56061566Y-44517202D01*
X56236155Y-44570163D01*
X56236158Y-44570164D01*
X56380545Y-44647340D01*
X56397058Y-44656167D01*
X56538091Y-44771909D01*
X56653833Y-44912941D01*
X56696835Y-44993393D01*
X56739836Y-45073841D01*
X56739836Y-45073842D01*
X56739837Y-45073844D01*
X56792798Y-45248433D01*
X56806200Y-45384504D01*
X56806200Y-46055496D01*
X56792798Y-46191567D01*
X56739837Y-46366156D01*
X56739836Y-46366159D01*
X56696835Y-46446607D01*
X56653833Y-46527059D01*
X56538091Y-46668091D01*
X56397059Y-46783833D01*
X56316607Y-46826835D01*
X56236159Y-46869836D01*
X56236156Y-46869837D01*
X56061567Y-46922798D01*
X56020863Y-46926807D01*
X56008654Y-46929235D01*
X55997154Y-46933999D01*
X55986804Y-46940915D01*
X55978002Y-46949717D01*
X55971086Y-46960067D01*
X55966322Y-46971567D01*
X55963894Y-46983776D01*
X55963894Y-46996224D01*
X55966322Y-47008433D01*
X55971086Y-47019933D01*
X55978002Y-47030283D01*
X55986804Y-47039085D01*
X55997154Y-47046001D01*
X56008654Y-47050765D01*
X56020863Y-47053193D01*
X56061566Y-47057202D01*
X56236155Y-47110163D01*
X56236158Y-47110164D01*
X56380545Y-47187340D01*
X56397058Y-47196167D01*
X56538091Y-47311909D01*
X56653833Y-47452941D01*
X56696835Y-47533393D01*
X56739836Y-47613841D01*
X56739836Y-47613842D01*
X56739837Y-47613844D01*
X56792798Y-47788433D01*
X56806200Y-47924504D01*
X56806200Y-48595496D01*
X56792798Y-48731567D01*
X56739837Y-48906156D01*
X56739836Y-48906159D01*
X56696835Y-48986608D01*
X56653833Y-49067059D01*
X56538091Y-49208091D01*
X56397059Y-49323833D01*
X56316607Y-49366835D01*
X56236159Y-49409836D01*
X56236156Y-49409837D01*
X56061567Y-49462798D01*
X56020863Y-49466807D01*
X56008654Y-49469235D01*
X55997154Y-49473999D01*
X55986804Y-49480915D01*
X55978002Y-49489717D01*
X55971086Y-49500067D01*
X55966322Y-49511567D01*
X55963894Y-49523776D01*
X55963894Y-49536224D01*
X55966322Y-49548433D01*
X55971086Y-49559933D01*
X55978002Y-49570283D01*
X55986804Y-49579085D01*
X55997154Y-49586001D01*
X56008654Y-49590765D01*
X56020863Y-49593193D01*
X56061566Y-49597202D01*
X56236155Y-49650163D01*
X56236158Y-49650164D01*
X56275513Y-49671200D01*
X56397058Y-49736167D01*
X56538091Y-49851909D01*
X56653833Y-49992941D01*
X56696835Y-50073393D01*
X56739836Y-50153841D01*
X56739836Y-50153842D01*
X56739837Y-50153844D01*
X56792798Y-50328433D01*
X56806200Y-50464504D01*
X56806200Y-51135496D01*
X56792798Y-51271567D01*
X56739837Y-51446156D01*
X56739836Y-51446159D01*
X56696835Y-51526608D01*
X56653833Y-51607059D01*
X56538091Y-51748091D01*
X56397059Y-51863833D01*
X56316608Y-51906835D01*
X56236159Y-51949836D01*
X56236156Y-51949837D01*
X56061567Y-52002798D01*
X56020863Y-52006807D01*
X56008654Y-52009235D01*
X55997154Y-52013999D01*
X55986804Y-52020915D01*
X55978002Y-52029717D01*
X55971086Y-52040067D01*
X55966322Y-52051567D01*
X55963894Y-52063776D01*
X55963894Y-52076224D01*
X55966322Y-52088433D01*
X55971086Y-52099933D01*
X55978002Y-52110283D01*
X55986804Y-52119085D01*
X55997154Y-52126001D01*
X56008654Y-52130765D01*
X56020863Y-52133193D01*
X56061566Y-52137202D01*
X56236155Y-52190163D01*
X56236158Y-52190164D01*
X56380545Y-52267340D01*
X56397058Y-52276167D01*
X56538091Y-52391909D01*
X56653833Y-52532941D01*
X56670033Y-52563249D01*
X56739836Y-52693841D01*
X56739836Y-52693842D01*
X56739837Y-52693844D01*
X56792798Y-52868433D01*
X56806200Y-53004504D01*
X56806200Y-53675496D01*
X56792798Y-53811567D01*
X56742474Y-53977463D01*
X56739836Y-53986159D01*
X56696835Y-54066608D01*
X56653833Y-54147059D01*
X56538091Y-54288091D01*
X56397059Y-54403833D01*
X56316608Y-54446835D01*
X56236159Y-54489836D01*
X56236156Y-54489837D01*
X56061567Y-54542798D01*
X55880000Y-54560681D01*
X55698434Y-54542798D01*
X55523845Y-54489837D01*
X55523842Y-54489836D01*
X55443393Y-54446835D01*
X55362942Y-54403833D01*
X55221910Y-54288091D01*
X55106168Y-54147059D01*
X55020163Y-53986156D01*
X54967202Y-53811567D01*
X54953800Y-53675496D01*
X54953800Y-53004505D01*
X54967202Y-52868434D01*
X55020163Y-52693845D01*
X55020164Y-52693842D01*
X55106166Y-52532944D01*
X55106167Y-52532942D01*
X55221909Y-52391909D01*
X55362941Y-52276167D01*
X55443393Y-52233165D01*
X55523841Y-52190164D01*
X55523844Y-52190163D01*
X55698433Y-52137202D01*
X55739137Y-52133193D01*
X55751346Y-52130765D01*
X55762846Y-52126001D01*
X55773196Y-52119085D01*
X55781998Y-52110283D01*
X55788914Y-52099933D01*
X55793678Y-52088433D01*
X55796106Y-52076224D01*
X55796106Y-52063776D01*
X55793678Y-52051567D01*
X55788914Y-52040067D01*
X55781998Y-52029717D01*
X55773196Y-52020915D01*
X55762846Y-52013999D01*
X55751346Y-52009235D01*
X55739137Y-52006807D01*
X55734833Y-52006383D01*
X55698434Y-52002798D01*
X55523845Y-51949837D01*
X55523842Y-51949836D01*
X55443394Y-51906835D01*
X55362942Y-51863833D01*
X55221910Y-51748091D01*
X55106168Y-51607059D01*
X55020163Y-51446156D01*
X54967202Y-51271567D01*
X54953800Y-51135496D01*
X54953800Y-50464505D01*
X54967202Y-50328434D01*
X55020163Y-50153845D01*
X55020164Y-50153842D01*
X55106166Y-49992944D01*
X55106167Y-49992942D01*
X55221909Y-49851909D01*
X55362941Y-49736167D01*
X55484486Y-49671200D01*
X55523841Y-49650164D01*
X55523844Y-49650163D01*
X55698433Y-49597202D01*
X55739137Y-49593193D01*
X55751346Y-49590765D01*
X55762846Y-49586001D01*
X55773196Y-49579085D01*
X55781998Y-49570283D01*
X55788914Y-49559933D01*
X55793678Y-49548433D01*
X55796106Y-49536224D01*
X55796106Y-49523776D01*
X55793678Y-49511567D01*
X55788914Y-49500067D01*
X55781998Y-49489717D01*
X55773196Y-49480915D01*
X55762846Y-49473999D01*
X55751346Y-49469235D01*
X55739137Y-49466807D01*
X55734833Y-49466383D01*
X55698434Y-49462798D01*
X55523845Y-49409837D01*
X55523842Y-49409836D01*
X55443393Y-49366835D01*
X55362942Y-49323833D01*
X55221910Y-49208091D01*
X55106168Y-49067059D01*
X55020163Y-48906156D01*
X54967202Y-48731567D01*
X54953800Y-48595496D01*
X54953800Y-47924505D01*
X54967202Y-47788434D01*
X55020163Y-47613845D01*
X55020164Y-47613842D01*
X55106166Y-47452944D01*
X55106167Y-47452942D01*
X55221909Y-47311909D01*
X55362941Y-47196167D01*
X55443393Y-47153165D01*
X55523841Y-47110164D01*
X55523844Y-47110163D01*
X55698433Y-47057202D01*
X55739137Y-47053193D01*
X55751346Y-47050765D01*
X55762846Y-47046001D01*
X55773196Y-47039085D01*
X55781998Y-47030283D01*
X55788914Y-47019933D01*
X55793678Y-47008433D01*
X55796106Y-46996224D01*
X55796106Y-46983776D01*
X55793678Y-46971567D01*
X55788914Y-46960067D01*
X55781998Y-46949717D01*
X55773196Y-46940915D01*
X55762846Y-46933999D01*
X55751346Y-46929235D01*
X55739137Y-46926807D01*
X55734833Y-46926383D01*
X55698434Y-46922798D01*
X55523845Y-46869837D01*
X55523842Y-46869836D01*
X55443393Y-46826835D01*
X55362942Y-46783833D01*
X55221910Y-46668091D01*
X55106168Y-46527059D01*
X55020163Y-46366156D01*
X54967202Y-46191567D01*
X54953800Y-46055496D01*
X54953800Y-45384505D01*
X54967202Y-45248434D01*
X55020163Y-45073845D01*
X55020164Y-45073842D01*
X55106166Y-44912944D01*
X55106167Y-44912942D01*
X55221909Y-44771909D01*
X55362941Y-44656167D01*
X55443393Y-44613165D01*
X55523841Y-44570164D01*
X55523844Y-44570163D01*
X55698433Y-44517202D01*
X55739137Y-44513193D01*
X55751346Y-44510765D01*
X55762846Y-44506001D01*
X55773196Y-44499085D01*
X55781998Y-44490283D01*
X55788914Y-44479933D01*
X55793678Y-44468433D01*
X55796106Y-44456224D01*
X55796106Y-44443776D01*
X55793678Y-44431567D01*
X55788914Y-44420067D01*
X55781998Y-44409717D01*
X55773196Y-44400915D01*
X55762846Y-44393999D01*
X55751346Y-44389235D01*
X55739137Y-44386807D01*
X55734833Y-44386383D01*
X55698434Y-44382798D01*
X55523845Y-44329837D01*
X55523842Y-44329836D01*
X55443394Y-44286835D01*
X55362942Y-44243833D01*
X55221910Y-44128091D01*
X55106168Y-43987059D01*
X55020163Y-43826156D01*
X54967202Y-43651567D01*
X54953800Y-43515496D01*
X54953800Y-42844505D01*
X54967202Y-42708434D01*
X55020163Y-42533845D01*
X55020164Y-42533842D01*
X55106166Y-42372944D01*
X55106167Y-42372942D01*
X55221909Y-42231909D01*
X55362941Y-42116167D01*
X55443393Y-42073165D01*
X55523841Y-42030164D01*
X55523844Y-42030163D01*
X55698433Y-41977202D01*
X55739137Y-41973193D01*
X55751346Y-41970765D01*
X55762846Y-41966001D01*
X55773196Y-41959085D01*
X55781998Y-41950283D01*
X55788914Y-41939933D01*
X55793678Y-41928433D01*
X55796106Y-41916224D01*
X55796106Y-41903776D01*
X55793678Y-41891567D01*
X55788914Y-41880067D01*
X55781998Y-41869717D01*
X55773196Y-41860915D01*
X55762846Y-41853999D01*
X55751346Y-41849235D01*
X55739137Y-41846807D01*
X55734833Y-41846383D01*
X55698434Y-41842798D01*
X55523845Y-41789837D01*
X55523842Y-41789836D01*
X55443393Y-41746835D01*
X55362942Y-41703833D01*
X55221910Y-41588091D01*
X55106168Y-41447059D01*
X55020163Y-41286156D01*
X54967202Y-41111567D01*
X54953800Y-40975496D01*
X54953800Y-40304505D01*
X54967202Y-40168434D01*
X55020163Y-39993845D01*
X55020164Y-39993842D01*
X55106166Y-39832944D01*
X55106167Y-39832942D01*
X55221909Y-39691909D01*
X55362941Y-39576167D01*
X55443392Y-39533165D01*
X55523841Y-39490164D01*
X55523844Y-39490163D01*
X55698433Y-39437202D01*
X55739137Y-39433193D01*
X55751346Y-39430765D01*
X55762846Y-39426001D01*
X55773196Y-39419085D01*
X55781998Y-39410283D01*
X55788914Y-39399933D01*
X55793678Y-39388433D01*
X55796106Y-39376224D01*
X55796106Y-39363776D01*
X55793678Y-39351567D01*
X55788914Y-39340067D01*
X55781998Y-39329717D01*
X55773196Y-39320915D01*
X55762846Y-39313999D01*
X55751346Y-39309235D01*
X55739137Y-39306807D01*
X55734833Y-39306383D01*
X55698434Y-39302798D01*
X55523845Y-39249837D01*
X55523842Y-39249836D01*
X55443394Y-39206835D01*
X55362942Y-39163833D01*
X55221910Y-39048091D01*
X55106168Y-38907059D01*
X55020163Y-38746156D01*
X54967202Y-38571567D01*
X54953800Y-38435496D01*
X54953800Y-37764505D01*
X54967202Y-37628434D01*
X55020163Y-37453845D01*
X55020164Y-37453842D01*
X55106166Y-37292944D01*
X55106167Y-37292942D01*
X55221909Y-37151909D01*
X55362941Y-37036167D01*
X55443393Y-36993165D01*
X55523841Y-36950164D01*
X55523844Y-36950163D01*
X55698433Y-36897202D01*
X55739137Y-36893193D01*
X55751346Y-36890765D01*
X55762846Y-36886001D01*
X55773196Y-36879085D01*
X55781998Y-36870283D01*
X55788914Y-36859933D01*
X55793678Y-36848433D01*
X55796106Y-36836224D01*
X55796106Y-36823776D01*
X55793678Y-36811567D01*
X55788914Y-36800067D01*
X55781998Y-36789717D01*
X55773196Y-36780915D01*
X55762846Y-36773999D01*
X55751346Y-36769235D01*
X55739137Y-36766807D01*
X55734833Y-36766383D01*
X55698434Y-36762798D01*
X55523845Y-36709837D01*
X55523842Y-36709836D01*
X55443393Y-36666835D01*
X55362942Y-36623833D01*
X55221910Y-36508091D01*
X55106168Y-36367059D01*
X55020163Y-36206156D01*
X54967202Y-36031567D01*
X54953800Y-35895496D01*
X54953800Y-35224505D01*
X54967202Y-35088434D01*
X55020163Y-34913845D01*
X55020164Y-34913842D01*
X55106166Y-34752944D01*
X55106167Y-34752942D01*
X55221909Y-34611909D01*
X55362941Y-34496167D01*
X55443392Y-34453165D01*
X55523841Y-34410164D01*
X55523844Y-34410163D01*
X55698433Y-34357202D01*
X55739137Y-34353193D01*
X55751346Y-34350765D01*
X55762846Y-34346001D01*
X55773196Y-34339085D01*
X55781998Y-34330283D01*
X55788914Y-34319933D01*
X55793678Y-34308433D01*
X55796106Y-34296224D01*
X55796106Y-34283776D01*
X55793678Y-34271567D01*
X55788914Y-34260067D01*
X55781998Y-34249717D01*
X55773196Y-34240915D01*
X55762846Y-34233999D01*
X55751346Y-34229235D01*
X55739137Y-34226807D01*
X55734833Y-34226383D01*
X55698434Y-34222798D01*
X55523845Y-34169837D01*
X55523842Y-34169836D01*
X55443394Y-34126835D01*
X55362942Y-34083833D01*
X55221910Y-33968091D01*
X55106168Y-33827059D01*
X55020163Y-33666156D01*
X54967202Y-33491567D01*
X54953800Y-33355496D01*
X54953800Y-32684505D01*
X54967202Y-32548434D01*
X55020163Y-32373845D01*
X55020164Y-32373842D01*
X55106166Y-32212944D01*
X55106167Y-32212942D01*
X55221909Y-32071909D01*
X55362941Y-31956167D01*
X55443393Y-31913165D01*
X55523841Y-31870164D01*
X55523844Y-31870163D01*
X55698433Y-31817202D01*
X55739137Y-31813193D01*
X55751346Y-31810765D01*
X55762846Y-31806001D01*
X55773196Y-31799085D01*
X55781998Y-31790283D01*
X55788914Y-31779933D01*
X55793678Y-31768433D01*
X55796106Y-31756224D01*
X55796106Y-31743776D01*
X55793678Y-31731567D01*
X55788914Y-31720067D01*
X55781998Y-31709717D01*
X55773196Y-31700915D01*
X55762846Y-31693999D01*
X55751346Y-31689235D01*
X55739137Y-31686807D01*
X55734833Y-31686383D01*
X55698434Y-31682798D01*
X55523845Y-31629837D01*
X55523842Y-31629836D01*
X55443394Y-31586835D01*
X55362942Y-31543833D01*
X55221910Y-31428091D01*
X55106168Y-31287059D01*
X55020163Y-31126156D01*
X54967202Y-30951567D01*
X54953800Y-30815496D01*
X54953800Y-30144505D01*
X54967202Y-30008434D01*
X55020163Y-29833845D01*
X55020164Y-29833842D01*
X55106166Y-29672944D01*
X55106167Y-29672942D01*
X55221909Y-29531909D01*
X55362941Y-29416167D01*
X55443393Y-29373165D01*
X55523841Y-29330164D01*
X55523844Y-29330163D01*
X55698433Y-29277202D01*
X55739137Y-29273193D01*
X55751346Y-29270765D01*
X55762846Y-29266001D01*
X55773196Y-29259085D01*
X55781998Y-29250283D01*
X55788914Y-29239933D01*
X55793678Y-29228433D01*
X55796106Y-29216224D01*
X55796106Y-29203776D01*
X55793678Y-29191567D01*
X55788914Y-29180067D01*
X55781998Y-29169717D01*
X55773196Y-29160915D01*
X55762846Y-29153999D01*
X55751346Y-29149235D01*
X55739137Y-29146807D01*
X55734833Y-29146383D01*
X55698434Y-29142798D01*
X55523845Y-29089837D01*
X55523842Y-29089836D01*
X55443393Y-29046835D01*
X55362942Y-29003833D01*
X55221910Y-28888091D01*
X55106168Y-28747059D01*
X55020163Y-28586156D01*
X54967202Y-28411567D01*
X54953800Y-28275496D01*
X54953800Y-27604505D01*
X54967202Y-27468434D01*
X55020163Y-27293845D01*
X55020164Y-27293842D01*
X55106166Y-27132944D01*
X55106167Y-27132942D01*
X55221909Y-26991909D01*
X55362941Y-26876167D01*
X55443392Y-26833165D01*
X55523841Y-26790164D01*
X55523844Y-26790163D01*
X55698433Y-26737202D01*
X55739137Y-26733193D01*
X55751346Y-26730765D01*
X55762846Y-26726001D01*
X55773196Y-26719085D01*
X55781998Y-26710283D01*
X55788914Y-26699933D01*
X55793678Y-26688433D01*
X55796106Y-26676224D01*
X55796106Y-26663776D01*
X55793678Y-26651567D01*
X55788914Y-26640067D01*
X55781998Y-26629717D01*
X55773196Y-26620915D01*
X55762846Y-26613999D01*
X55751346Y-26609235D01*
X55739137Y-26606807D01*
X55734833Y-26606383D01*
X55698434Y-26602798D01*
X55523845Y-26549837D01*
X55523842Y-26549836D01*
X55431994Y-26500742D01*
X55362942Y-26463833D01*
X55221910Y-26348091D01*
X55106168Y-26207059D01*
X55020163Y-26046156D01*
X54967202Y-25871567D01*
X54953800Y-25735496D01*
X54953800Y-25064505D01*
X54967202Y-24928434D01*
X55020163Y-24753845D01*
X55020164Y-24753842D01*
X55106166Y-24592944D01*
X55106167Y-24592942D01*
X55221909Y-24451909D01*
X55362941Y-24336167D01*
X55443393Y-24293165D01*
X55523841Y-24250164D01*
X55523844Y-24250163D01*
X55698433Y-24197202D01*
X55739137Y-24193193D01*
X55751346Y-24190765D01*
X55762846Y-24186001D01*
X55773196Y-24179085D01*
X55781998Y-24170283D01*
X55788914Y-24159933D01*
X55793678Y-24148433D01*
X55796106Y-24136224D01*
X55796106Y-24123776D01*
X55793678Y-24111567D01*
X55788914Y-24100067D01*
X55781998Y-24089717D01*
X55773196Y-24080915D01*
X55762846Y-24073999D01*
X55751346Y-24069235D01*
X55739137Y-24066807D01*
X55734833Y-24066383D01*
X55698434Y-24062798D01*
X55523845Y-24009837D01*
X55523842Y-24009836D01*
X55443394Y-23966835D01*
X55362942Y-23923833D01*
X55221910Y-23808091D01*
X55106168Y-23667059D01*
X55020163Y-23506156D01*
X54967202Y-23331567D01*
X54953800Y-23195496D01*
X54953800Y-22524505D01*
X54967202Y-22388434D01*
X55020163Y-22213845D01*
X55020164Y-22213842D01*
X55106166Y-22052944D01*
X55106167Y-22052942D01*
X55221909Y-21911909D01*
X55362941Y-21796167D01*
X55443393Y-21753165D01*
X55523841Y-21710164D01*
X55523844Y-21710163D01*
X55698433Y-21657202D01*
X55739137Y-21653193D01*
X55751346Y-21650765D01*
X55762846Y-21646001D01*
X55773196Y-21639085D01*
X55781998Y-21630283D01*
X55788914Y-21619933D01*
X55793678Y-21608433D01*
X55796106Y-21596224D01*
X55796106Y-21583776D01*
X55793678Y-21571567D01*
X55788914Y-21560067D01*
X55781998Y-21549717D01*
X55773196Y-21540915D01*
X55762846Y-21533999D01*
X55751346Y-21529235D01*
X55739137Y-21526807D01*
X55734833Y-21526383D01*
X55698434Y-21522798D01*
X55523845Y-21469837D01*
X55523842Y-21469836D01*
X55443394Y-21426835D01*
X55362942Y-21383833D01*
X55221910Y-21268091D01*
X55106168Y-21127059D01*
X55020163Y-20966156D01*
X54967202Y-20791567D01*
X54953800Y-20655496D01*
X54953800Y-19984505D01*
X54967202Y-19848434D01*
X55020163Y-19673845D01*
X55020164Y-19673842D01*
X55106166Y-19512944D01*
X55106167Y-19512942D01*
X55221909Y-19371909D01*
X55362941Y-19256167D01*
X55443392Y-19213165D01*
X55523841Y-19170164D01*
X55523844Y-19170163D01*
X55698433Y-19117202D01*
X55880000Y-19099319D01*
X56061566Y-19117202D01*
X56061566Y-19117202D01*
G37*
G36*
X53631692Y-52378429D02*
G01*
X53813679Y-52453811D01*
X53977458Y-52563245D01*
X53977460Y-52563247D01*
X53977463Y-52563249D01*
X54116751Y-52702537D01*
X54116753Y-52702540D01*
X54116755Y-52702542D01*
X54226189Y-52866321D01*
X54301571Y-53048308D01*
X54340000Y-53241509D01*
X54340000Y-53438491D01*
X54301571Y-53631692D01*
X54226189Y-53813679D01*
X54116755Y-53977458D01*
X54116753Y-53977460D01*
X54116751Y-53977463D01*
X53977463Y-54116751D01*
X53977460Y-54116753D01*
X53977458Y-54116755D01*
X53813679Y-54226189D01*
X53631692Y-54301571D01*
X53438491Y-54340000D01*
X53241509Y-54340000D01*
X53048308Y-54301571D01*
X52866321Y-54226189D01*
X52702542Y-54116755D01*
X52702540Y-54116753D01*
X52702537Y-54116751D01*
X52563249Y-53977463D01*
X52563247Y-53977460D01*
X52563245Y-53977458D01*
X52453811Y-53813679D01*
X52378429Y-53631692D01*
X52340000Y-53438491D01*
X52340000Y-53241509D01*
X52378429Y-53048308D01*
X52453811Y-52866321D01*
X52563245Y-52702542D01*
X52563247Y-52702540D01*
X52563249Y-52702537D01*
X52702537Y-52563249D01*
X52702540Y-52563247D01*
X52702542Y-52563245D01*
X52866321Y-52453811D01*
X53048308Y-52378429D01*
X53241509Y-52340000D01*
X53438491Y-52340000D01*
X53631692Y-52378429D01*
X53631692Y-52378429D01*
G37*
G36*
X43471692Y-52378429D02*
G01*
X43653679Y-52453811D01*
X43817458Y-52563245D01*
X43817460Y-52563247D01*
X43817463Y-52563249D01*
X43956751Y-52702537D01*
X43956753Y-52702540D01*
X43956755Y-52702542D01*
X44066189Y-52866321D01*
X44141571Y-53048308D01*
X44180000Y-53241509D01*
X44180000Y-53438491D01*
X44141571Y-53631692D01*
X44066189Y-53813679D01*
X43956755Y-53977458D01*
X43956753Y-53977460D01*
X43956751Y-53977463D01*
X43817463Y-54116751D01*
X43817460Y-54116753D01*
X43817458Y-54116755D01*
X43653679Y-54226189D01*
X43471692Y-54301571D01*
X43278491Y-54340000D01*
X43081509Y-54340000D01*
X42888308Y-54301571D01*
X42706321Y-54226189D01*
X42542542Y-54116755D01*
X42542540Y-54116753D01*
X42542537Y-54116751D01*
X42403249Y-53977463D01*
X42403247Y-53977460D01*
X42403245Y-53977458D01*
X42293811Y-53813679D01*
X42218429Y-53631692D01*
X42180000Y-53438491D01*
X42180000Y-53241509D01*
X42218429Y-53048308D01*
X42293811Y-52866321D01*
X42403245Y-52702542D01*
X42403247Y-52702540D01*
X42403249Y-52702537D01*
X42542537Y-52563249D01*
X42542540Y-52563247D01*
X42542542Y-52563245D01*
X42706321Y-52453811D01*
X42888308Y-52378429D01*
X43081509Y-52340000D01*
X43278491Y-52340000D01*
X43471692Y-52378429D01*
X43471692Y-52378429D01*
G37*
G36*
X48264986Y-48123306D02*
G01*
X48305980Y-48135742D01*
X48343767Y-48155939D01*
X48376883Y-48183117D01*
X48404061Y-48216233D01*
X48424258Y-48254020D01*
X48436694Y-48295014D01*
X48441200Y-48340767D01*
X48441200Y-49449233D01*
X48436694Y-49494986D01*
X48424258Y-49535980D01*
X48404061Y-49573767D01*
X48376883Y-49606883D01*
X48343767Y-49634061D01*
X48305980Y-49654258D01*
X48264986Y-49666694D01*
X48219233Y-49671200D01*
X47660767Y-49671200D01*
X47615014Y-49666694D01*
X47574020Y-49654258D01*
X47536233Y-49634061D01*
X47503117Y-49606883D01*
X47475939Y-49573767D01*
X47455742Y-49535980D01*
X47443306Y-49494986D01*
X47438800Y-49449233D01*
X47438800Y-48340767D01*
X47443306Y-48295014D01*
X47455742Y-48254020D01*
X47475939Y-48216233D01*
X47503117Y-48183117D01*
X47536233Y-48155939D01*
X47574020Y-48135742D01*
X47615014Y-48123306D01*
X47660767Y-48118800D01*
X48219233Y-48118800D01*
X48264986Y-48123306D01*
X48264986Y-48123306D01*
G37*
G36*
X46364986Y-48123306D02*
G01*
X46405980Y-48135742D01*
X46443767Y-48155939D01*
X46476883Y-48183117D01*
X46504061Y-48216233D01*
X46524258Y-48254020D01*
X46536694Y-48295014D01*
X46541200Y-48340767D01*
X46541200Y-49449233D01*
X46536694Y-49494986D01*
X46524258Y-49535980D01*
X46504061Y-49573767D01*
X46476883Y-49606883D01*
X46443767Y-49634061D01*
X46405980Y-49654258D01*
X46364986Y-49666694D01*
X46319233Y-49671200D01*
X45760767Y-49671200D01*
X45715014Y-49666694D01*
X45674020Y-49654258D01*
X45636233Y-49634061D01*
X45603117Y-49606883D01*
X45575939Y-49573767D01*
X45555742Y-49535980D01*
X45543306Y-49494986D01*
X45538800Y-49449233D01*
X45538800Y-48340767D01*
X45543306Y-48295014D01*
X45555742Y-48254020D01*
X45575939Y-48216233D01*
X45603117Y-48183117D01*
X45636233Y-48155939D01*
X45674020Y-48135742D01*
X45715014Y-48123306D01*
X45760767Y-48118800D01*
X46319233Y-48118800D01*
X46364986Y-48123306D01*
X46364986Y-48123306D01*
G37*
G36*
X45970290Y-42857105D02*
G01*
X45999568Y-42865986D01*
X46026545Y-42880406D01*
X46050190Y-42899810D01*
X46069594Y-42923455D01*
X46084014Y-42950432D01*
X46092895Y-42979710D01*
X46096200Y-43013267D01*
X46096200Y-44321733D01*
X46092895Y-44355290D01*
X46084014Y-44384568D01*
X46069594Y-44411545D01*
X46050190Y-44435190D01*
X46026545Y-44454594D01*
X45999568Y-44469014D01*
X45970290Y-44477895D01*
X45936733Y-44481200D01*
X45503267Y-44481200D01*
X45469710Y-44477895D01*
X45440432Y-44469014D01*
X45413455Y-44454594D01*
X45389810Y-44435190D01*
X45370406Y-44411545D01*
X45355986Y-44384568D01*
X45347105Y-44355290D01*
X45343800Y-44321733D01*
X45343800Y-43013267D01*
X45347105Y-42979710D01*
X45355986Y-42950432D01*
X45370406Y-42923455D01*
X45389810Y-42899810D01*
X45413455Y-42880406D01*
X45440432Y-42865986D01*
X45469710Y-42857105D01*
X45503267Y-42853800D01*
X45936733Y-42853800D01*
X45970290Y-42857105D01*
X45970290Y-42857105D01*
G37*
G36*
X44700290Y-42857105D02*
G01*
X44729568Y-42865986D01*
X44756545Y-42880406D01*
X44780190Y-42899810D01*
X44799594Y-42923455D01*
X44814014Y-42950432D01*
X44822895Y-42979710D01*
X44826200Y-43013267D01*
X44826200Y-44321733D01*
X44822895Y-44355290D01*
X44814014Y-44384568D01*
X44799594Y-44411545D01*
X44780190Y-44435190D01*
X44756545Y-44454594D01*
X44729568Y-44469014D01*
X44700290Y-44477895D01*
X44666733Y-44481200D01*
X44233267Y-44481200D01*
X44199710Y-44477895D01*
X44170432Y-44469014D01*
X44143455Y-44454594D01*
X44119810Y-44435190D01*
X44100406Y-44411545D01*
X44085986Y-44384568D01*
X44077105Y-44355290D01*
X44073800Y-44321733D01*
X44073800Y-43013267D01*
X44077105Y-42979710D01*
X44085986Y-42950432D01*
X44100406Y-42923455D01*
X44119810Y-42899810D01*
X44143455Y-42880406D01*
X44170432Y-42865986D01*
X44199710Y-42857105D01*
X44233267Y-42853800D01*
X44666733Y-42853800D01*
X44700290Y-42857105D01*
X44700290Y-42857105D01*
G37*
G36*
X52320290Y-42857105D02*
G01*
X52349568Y-42865986D01*
X52376545Y-42880406D01*
X52400190Y-42899810D01*
X52419594Y-42923455D01*
X52434014Y-42950432D01*
X52442895Y-42979710D01*
X52446200Y-43013267D01*
X52446200Y-44321733D01*
X52442895Y-44355290D01*
X52434014Y-44384568D01*
X52419594Y-44411545D01*
X52400190Y-44435190D01*
X52376545Y-44454594D01*
X52349568Y-44469014D01*
X52320290Y-44477895D01*
X52286733Y-44481200D01*
X51853267Y-44481200D01*
X51819710Y-44477895D01*
X51790432Y-44469014D01*
X51763455Y-44454594D01*
X51739810Y-44435190D01*
X51720406Y-44411545D01*
X51705986Y-44384568D01*
X51697105Y-44355290D01*
X51693800Y-44321733D01*
X51693800Y-43013267D01*
X51697105Y-42979710D01*
X51705986Y-42950432D01*
X51720406Y-42923455D01*
X51739810Y-42899810D01*
X51763455Y-42880406D01*
X51790432Y-42865986D01*
X51819710Y-42857105D01*
X51853267Y-42853800D01*
X52286733Y-42853800D01*
X52320290Y-42857105D01*
X52320290Y-42857105D01*
G37*
G36*
X51050290Y-42857105D02*
G01*
X51079568Y-42865986D01*
X51106545Y-42880406D01*
X51130190Y-42899810D01*
X51149594Y-42923455D01*
X51164014Y-42950432D01*
X51172895Y-42979710D01*
X51176200Y-43013267D01*
X51176200Y-44321733D01*
X51172895Y-44355290D01*
X51164014Y-44384568D01*
X51149594Y-44411545D01*
X51130190Y-44435190D01*
X51106545Y-44454594D01*
X51079568Y-44469014D01*
X51050290Y-44477895D01*
X51016733Y-44481200D01*
X50583267Y-44481200D01*
X50549710Y-44477895D01*
X50520432Y-44469014D01*
X50493455Y-44454594D01*
X50469810Y-44435190D01*
X50450406Y-44411545D01*
X50435986Y-44384568D01*
X50427105Y-44355290D01*
X50423800Y-44321733D01*
X50423800Y-43013267D01*
X50427105Y-42979710D01*
X50435986Y-42950432D01*
X50450406Y-42923455D01*
X50469810Y-42899810D01*
X50493455Y-42880406D01*
X50520432Y-42865986D01*
X50549710Y-42857105D01*
X50583267Y-42853800D01*
X51016733Y-42853800D01*
X51050290Y-42857105D01*
X51050290Y-42857105D01*
G37*
G36*
X49780290Y-42857105D02*
G01*
X49809568Y-42865986D01*
X49836545Y-42880406D01*
X49860190Y-42899810D01*
X49879594Y-42923455D01*
X49894014Y-42950432D01*
X49902895Y-42979710D01*
X49906200Y-43013267D01*
X49906200Y-44321733D01*
X49902895Y-44355290D01*
X49894014Y-44384568D01*
X49879594Y-44411545D01*
X49860190Y-44435190D01*
X49836545Y-44454594D01*
X49809568Y-44469014D01*
X49780290Y-44477895D01*
X49746733Y-44481200D01*
X49313267Y-44481200D01*
X49279710Y-44477895D01*
X49250432Y-44469014D01*
X49223455Y-44454594D01*
X49199810Y-44435190D01*
X49180406Y-44411545D01*
X49165986Y-44384568D01*
X49157105Y-44355290D01*
X49153800Y-44321733D01*
X49153800Y-43013267D01*
X49157105Y-42979710D01*
X49165986Y-42950432D01*
X49180406Y-42923455D01*
X49199810Y-42899810D01*
X49223455Y-42880406D01*
X49250432Y-42865986D01*
X49279710Y-42857105D01*
X49313267Y-42853800D01*
X49746733Y-42853800D01*
X49780290Y-42857105D01*
X49780290Y-42857105D01*
G37*
G36*
X48510290Y-42857105D02*
G01*
X48539568Y-42865986D01*
X48566545Y-42880406D01*
X48590190Y-42899810D01*
X48609594Y-42923455D01*
X48624014Y-42950432D01*
X48632895Y-42979710D01*
X48636200Y-43013267D01*
X48636200Y-44321733D01*
X48632895Y-44355290D01*
X48624014Y-44384568D01*
X48609594Y-44411545D01*
X48590190Y-44435190D01*
X48566545Y-44454594D01*
X48539568Y-44469014D01*
X48510290Y-44477895D01*
X48476733Y-44481200D01*
X48043267Y-44481200D01*
X48009710Y-44477895D01*
X47980432Y-44469014D01*
X47953455Y-44454594D01*
X47929810Y-44435190D01*
X47910406Y-44411545D01*
X47895986Y-44384568D01*
X47887105Y-44355290D01*
X47883800Y-44321733D01*
X47883800Y-43013267D01*
X47887105Y-42979710D01*
X47895986Y-42950432D01*
X47910406Y-42923455D01*
X47929810Y-42899810D01*
X47953455Y-42880406D01*
X47980432Y-42865986D01*
X48009710Y-42857105D01*
X48043267Y-42853800D01*
X48476733Y-42853800D01*
X48510290Y-42857105D01*
X48510290Y-42857105D01*
G37*
G36*
X47240290Y-42857105D02*
G01*
X47269568Y-42865986D01*
X47296545Y-42880406D01*
X47320190Y-42899810D01*
X47339594Y-42923455D01*
X47354014Y-42950432D01*
X47362895Y-42979710D01*
X47366200Y-43013267D01*
X47366200Y-44321733D01*
X47362895Y-44355290D01*
X47354014Y-44384568D01*
X47339594Y-44411545D01*
X47320190Y-44435190D01*
X47296545Y-44454594D01*
X47269568Y-44469014D01*
X47240290Y-44477895D01*
X47206733Y-44481200D01*
X46773267Y-44481200D01*
X46739710Y-44477895D01*
X46710432Y-44469014D01*
X46683455Y-44454594D01*
X46659810Y-44435190D01*
X46640406Y-44411545D01*
X46625986Y-44384568D01*
X46617105Y-44355290D01*
X46613800Y-44321733D01*
X46613800Y-43013267D01*
X46617105Y-42979710D01*
X46625986Y-42950432D01*
X46640406Y-42923455D01*
X46659810Y-42899810D01*
X46683455Y-42880406D01*
X46710432Y-42865986D01*
X46739710Y-42857105D01*
X46773267Y-42853800D01*
X47206733Y-42853800D01*
X47240290Y-42857105D01*
X47240290Y-42857105D01*
G37*
G36*
X54510290Y-41537105D02*
G01*
X54539568Y-41545986D01*
X54566545Y-41560406D01*
X54590190Y-41579810D01*
X54609594Y-41603455D01*
X54624014Y-41630432D01*
X54632895Y-41659710D01*
X54636200Y-41693267D01*
X54636200Y-42126733D01*
X54632895Y-42160290D01*
X54624014Y-42189568D01*
X54609594Y-42216545D01*
X54590190Y-42240190D01*
X54566545Y-42259594D01*
X54539568Y-42274014D01*
X54510290Y-42282895D01*
X54476733Y-42286200D01*
X53168267Y-42286200D01*
X53134710Y-42282895D01*
X53105432Y-42274014D01*
X53078455Y-42259594D01*
X53054810Y-42240190D01*
X53035406Y-42216545D01*
X53020986Y-42189568D01*
X53012105Y-42160290D01*
X53008800Y-42126733D01*
X53008800Y-41693267D01*
X53012105Y-41659710D01*
X53020986Y-41630432D01*
X53035406Y-41603455D01*
X53054810Y-41579810D01*
X53078455Y-41560406D01*
X53105432Y-41545986D01*
X53134710Y-41537105D01*
X53168267Y-41533800D01*
X54476733Y-41533800D01*
X54510290Y-41537105D01*
X54510290Y-41537105D01*
G37*
G36*
X43385290Y-41537105D02*
G01*
X43414568Y-41545986D01*
X43441545Y-41560406D01*
X43465190Y-41579810D01*
X43484594Y-41603455D01*
X43499014Y-41630432D01*
X43507895Y-41659710D01*
X43511200Y-41693267D01*
X43511200Y-42126733D01*
X43507895Y-42160290D01*
X43499014Y-42189568D01*
X43484594Y-42216545D01*
X43465190Y-42240190D01*
X43441545Y-42259594D01*
X43414568Y-42274014D01*
X43385290Y-42282895D01*
X43351733Y-42286200D01*
X42043267Y-42286200D01*
X42009710Y-42282895D01*
X41980432Y-42274014D01*
X41953455Y-42259594D01*
X41929810Y-42240190D01*
X41910406Y-42216545D01*
X41895986Y-42189568D01*
X41887105Y-42160290D01*
X41883800Y-42126733D01*
X41883800Y-41693267D01*
X41887105Y-41659710D01*
X41895986Y-41630432D01*
X41910406Y-41603455D01*
X41929810Y-41579810D01*
X41953455Y-41560406D01*
X41980432Y-41545986D01*
X42009710Y-41537105D01*
X42043267Y-41533800D01*
X43351733Y-41533800D01*
X43385290Y-41537105D01*
X43385290Y-41537105D01*
G37*
G36*
X54510290Y-40267105D02*
G01*
X54539568Y-40275986D01*
X54566545Y-40290406D01*
X54590190Y-40309810D01*
X54609594Y-40333455D01*
X54624014Y-40360432D01*
X54632895Y-40389710D01*
X54636200Y-40423267D01*
X54636200Y-40856733D01*
X54632895Y-40890290D01*
X54624014Y-40919568D01*
X54609594Y-40946545D01*
X54590190Y-40970190D01*
X54566545Y-40989594D01*
X54539568Y-41004014D01*
X54510290Y-41012895D01*
X54476733Y-41016200D01*
X53168267Y-41016200D01*
X53134710Y-41012895D01*
X53105432Y-41004014D01*
X53078455Y-40989594D01*
X53054810Y-40970190D01*
X53035406Y-40946545D01*
X53020986Y-40919568D01*
X53012105Y-40890290D01*
X53008800Y-40856733D01*
X53008800Y-40423267D01*
X53012105Y-40389710D01*
X53020986Y-40360432D01*
X53035406Y-40333455D01*
X53054810Y-40309810D01*
X53078455Y-40290406D01*
X53105432Y-40275986D01*
X53134710Y-40267105D01*
X53168267Y-40263800D01*
X54476733Y-40263800D01*
X54510290Y-40267105D01*
X54510290Y-40267105D01*
G37*
G36*
X43385290Y-40267105D02*
G01*
X43414568Y-40275986D01*
X43441545Y-40290406D01*
X43465190Y-40309810D01*
X43484594Y-40333455D01*
X43499014Y-40360432D01*
X43507895Y-40389710D01*
X43511200Y-40423267D01*
X43511200Y-40856733D01*
X43507895Y-40890290D01*
X43499014Y-40919568D01*
X43484594Y-40946545D01*
X43465190Y-40970190D01*
X43441545Y-40989594D01*
X43414568Y-41004014D01*
X43385290Y-41012895D01*
X43351733Y-41016200D01*
X42043267Y-41016200D01*
X42009710Y-41012895D01*
X41980432Y-41004014D01*
X41953455Y-40989594D01*
X41929810Y-40970190D01*
X41910406Y-40946545D01*
X41895986Y-40919568D01*
X41887105Y-40890290D01*
X41883800Y-40856733D01*
X41883800Y-40423267D01*
X41887105Y-40389710D01*
X41895986Y-40360432D01*
X41910406Y-40333455D01*
X41929810Y-40309810D01*
X41953455Y-40290406D01*
X41980432Y-40275986D01*
X42009710Y-40267105D01*
X42043267Y-40263800D01*
X43351733Y-40263800D01*
X43385290Y-40267105D01*
X43385290Y-40267105D01*
G37*
G36*
X54510290Y-38997105D02*
G01*
X54539568Y-39005986D01*
X54566545Y-39020406D01*
X54590190Y-39039810D01*
X54609594Y-39063455D01*
X54624014Y-39090432D01*
X54632895Y-39119710D01*
X54636200Y-39153267D01*
X54636200Y-39586733D01*
X54632895Y-39620290D01*
X54624014Y-39649568D01*
X54609594Y-39676545D01*
X54590190Y-39700190D01*
X54566545Y-39719594D01*
X54539568Y-39734014D01*
X54510290Y-39742895D01*
X54476733Y-39746200D01*
X53168267Y-39746200D01*
X53134710Y-39742895D01*
X53105432Y-39734014D01*
X53078455Y-39719594D01*
X53054810Y-39700190D01*
X53035406Y-39676545D01*
X53020986Y-39649568D01*
X53012105Y-39620290D01*
X53008800Y-39586733D01*
X53008800Y-39153267D01*
X53012105Y-39119710D01*
X53020986Y-39090432D01*
X53035406Y-39063455D01*
X53054810Y-39039810D01*
X53078455Y-39020406D01*
X53105432Y-39005986D01*
X53134710Y-38997105D01*
X53168267Y-38993800D01*
X54476733Y-38993800D01*
X54510290Y-38997105D01*
X54510290Y-38997105D01*
G37*
G36*
X43385290Y-38997105D02*
G01*
X43414568Y-39005986D01*
X43441545Y-39020406D01*
X43465190Y-39039810D01*
X43484594Y-39063455D01*
X43499014Y-39090432D01*
X43507895Y-39119710D01*
X43511200Y-39153267D01*
X43511200Y-39586733D01*
X43507895Y-39620290D01*
X43499014Y-39649568D01*
X43484594Y-39676545D01*
X43465190Y-39700190D01*
X43441545Y-39719594D01*
X43414568Y-39734014D01*
X43385290Y-39742895D01*
X43351733Y-39746200D01*
X42043267Y-39746200D01*
X42009710Y-39742895D01*
X41980432Y-39734014D01*
X41953455Y-39719594D01*
X41929810Y-39700190D01*
X41910406Y-39676545D01*
X41895986Y-39649568D01*
X41887105Y-39620290D01*
X41883800Y-39586733D01*
X41883800Y-39153267D01*
X41887105Y-39119710D01*
X41895986Y-39090432D01*
X41910406Y-39063455D01*
X41929810Y-39039810D01*
X41953455Y-39020406D01*
X41980432Y-39005986D01*
X42009710Y-38997105D01*
X42043267Y-38993800D01*
X43351733Y-38993800D01*
X43385290Y-38997105D01*
X43385290Y-38997105D01*
G37*
G36*
X54510290Y-37727105D02*
G01*
X54539568Y-37735986D01*
X54566545Y-37750406D01*
X54590190Y-37769810D01*
X54609594Y-37793455D01*
X54624014Y-37820432D01*
X54632895Y-37849710D01*
X54636200Y-37883267D01*
X54636200Y-38316733D01*
X54632895Y-38350290D01*
X54624014Y-38379568D01*
X54609594Y-38406545D01*
X54590190Y-38430190D01*
X54566545Y-38449594D01*
X54539568Y-38464014D01*
X54510290Y-38472895D01*
X54476733Y-38476200D01*
X53168267Y-38476200D01*
X53134710Y-38472895D01*
X53105432Y-38464014D01*
X53078455Y-38449594D01*
X53054810Y-38430190D01*
X53035406Y-38406545D01*
X53020986Y-38379568D01*
X53012105Y-38350290D01*
X53008800Y-38316733D01*
X53008800Y-37883267D01*
X53012105Y-37849710D01*
X53020986Y-37820432D01*
X53035406Y-37793455D01*
X53054810Y-37769810D01*
X53078455Y-37750406D01*
X53105432Y-37735986D01*
X53134710Y-37727105D01*
X53168267Y-37723800D01*
X54476733Y-37723800D01*
X54510290Y-37727105D01*
X54510290Y-37727105D01*
G37*
G36*
X43385290Y-37727105D02*
G01*
X43414568Y-37735986D01*
X43441545Y-37750406D01*
X43465190Y-37769810D01*
X43484594Y-37793455D01*
X43499014Y-37820432D01*
X43507895Y-37849710D01*
X43511200Y-37883267D01*
X43511200Y-38316733D01*
X43507895Y-38350290D01*
X43499014Y-38379568D01*
X43484594Y-38406545D01*
X43465190Y-38430190D01*
X43441545Y-38449594D01*
X43414568Y-38464014D01*
X43385290Y-38472895D01*
X43351733Y-38476200D01*
X42043267Y-38476200D01*
X42009710Y-38472895D01*
X41980432Y-38464014D01*
X41953455Y-38449594D01*
X41929810Y-38430190D01*
X41910406Y-38406545D01*
X41895986Y-38379568D01*
X41887105Y-38350290D01*
X41883800Y-38316733D01*
X41883800Y-37883267D01*
X41887105Y-37849710D01*
X41895986Y-37820432D01*
X41910406Y-37793455D01*
X41929810Y-37769810D01*
X41953455Y-37750406D01*
X41980432Y-37735986D01*
X42009710Y-37727105D01*
X42043267Y-37723800D01*
X43351733Y-37723800D01*
X43385290Y-37727105D01*
X43385290Y-37727105D01*
G37*
G36*
X54510290Y-36457105D02*
G01*
X54539568Y-36465986D01*
X54566545Y-36480406D01*
X54590190Y-36499810D01*
X54609594Y-36523455D01*
X54624014Y-36550432D01*
X54632895Y-36579710D01*
X54636200Y-36613267D01*
X54636200Y-37046733D01*
X54632895Y-37080290D01*
X54624014Y-37109568D01*
X54609594Y-37136545D01*
X54590190Y-37160190D01*
X54566545Y-37179594D01*
X54539568Y-37194014D01*
X54510290Y-37202895D01*
X54476733Y-37206200D01*
X53168267Y-37206200D01*
X53134710Y-37202895D01*
X53105432Y-37194014D01*
X53078455Y-37179594D01*
X53054810Y-37160190D01*
X53035406Y-37136545D01*
X53020986Y-37109568D01*
X53012105Y-37080290D01*
X53008800Y-37046733D01*
X53008800Y-36613267D01*
X53012105Y-36579710D01*
X53020986Y-36550432D01*
X53035406Y-36523455D01*
X53054810Y-36499810D01*
X53078455Y-36480406D01*
X53105432Y-36465986D01*
X53134710Y-36457105D01*
X53168267Y-36453800D01*
X54476733Y-36453800D01*
X54510290Y-36457105D01*
X54510290Y-36457105D01*
G37*
G36*
X43385290Y-36457105D02*
G01*
X43414568Y-36465986D01*
X43441545Y-36480406D01*
X43465190Y-36499810D01*
X43484594Y-36523455D01*
X43499014Y-36550432D01*
X43507895Y-36579710D01*
X43511200Y-36613267D01*
X43511200Y-37046733D01*
X43507895Y-37080290D01*
X43499014Y-37109568D01*
X43484594Y-37136545D01*
X43465190Y-37160190D01*
X43441545Y-37179594D01*
X43414568Y-37194014D01*
X43385290Y-37202895D01*
X43351733Y-37206200D01*
X42043267Y-37206200D01*
X42009710Y-37202895D01*
X41980432Y-37194014D01*
X41953455Y-37179594D01*
X41929810Y-37160190D01*
X41910406Y-37136545D01*
X41895986Y-37109568D01*
X41887105Y-37080290D01*
X41883800Y-37046733D01*
X41883800Y-36613267D01*
X41887105Y-36579710D01*
X41895986Y-36550432D01*
X41910406Y-36523455D01*
X41929810Y-36499810D01*
X41953455Y-36480406D01*
X41980432Y-36465986D01*
X42009710Y-36457105D01*
X42043267Y-36453800D01*
X43351733Y-36453800D01*
X43385290Y-36457105D01*
X43385290Y-36457105D01*
G37*
G36*
X54510290Y-35187105D02*
G01*
X54539568Y-35195986D01*
X54566545Y-35210406D01*
X54590190Y-35229810D01*
X54609594Y-35253455D01*
X54624014Y-35280432D01*
X54632895Y-35309710D01*
X54636200Y-35343267D01*
X54636200Y-35776733D01*
X54632895Y-35810290D01*
X54624014Y-35839568D01*
X54609594Y-35866545D01*
X54590190Y-35890190D01*
X54566545Y-35909594D01*
X54539568Y-35924014D01*
X54510290Y-35932895D01*
X54476733Y-35936200D01*
X53168267Y-35936200D01*
X53134710Y-35932895D01*
X53105432Y-35924014D01*
X53078455Y-35909594D01*
X53054810Y-35890190D01*
X53035406Y-35866545D01*
X53020986Y-35839568D01*
X53012105Y-35810290D01*
X53008800Y-35776733D01*
X53008800Y-35343267D01*
X53012105Y-35309710D01*
X53020986Y-35280432D01*
X53035406Y-35253455D01*
X53054810Y-35229810D01*
X53078455Y-35210406D01*
X53105432Y-35195986D01*
X53134710Y-35187105D01*
X53168267Y-35183800D01*
X54476733Y-35183800D01*
X54510290Y-35187105D01*
X54510290Y-35187105D01*
G37*
G36*
X43385290Y-35187105D02*
G01*
X43414568Y-35195986D01*
X43441545Y-35210406D01*
X43465190Y-35229810D01*
X43484594Y-35253455D01*
X43499014Y-35280432D01*
X43507895Y-35309710D01*
X43511200Y-35343267D01*
X43511200Y-35776733D01*
X43507895Y-35810290D01*
X43499014Y-35839568D01*
X43484594Y-35866545D01*
X43465190Y-35890190D01*
X43441545Y-35909594D01*
X43414568Y-35924014D01*
X43385290Y-35932895D01*
X43351733Y-35936200D01*
X42043267Y-35936200D01*
X42009710Y-35932895D01*
X41980432Y-35924014D01*
X41953455Y-35909594D01*
X41929810Y-35890190D01*
X41910406Y-35866545D01*
X41895986Y-35839568D01*
X41887105Y-35810290D01*
X41883800Y-35776733D01*
X41883800Y-35343267D01*
X41887105Y-35309710D01*
X41895986Y-35280432D01*
X41910406Y-35253455D01*
X41929810Y-35229810D01*
X41953455Y-35210406D01*
X41980432Y-35195986D01*
X42009710Y-35187105D01*
X42043267Y-35183800D01*
X43351733Y-35183800D01*
X43385290Y-35187105D01*
X43385290Y-35187105D01*
G37*
G36*
X54510290Y-33917105D02*
G01*
X54539568Y-33925986D01*
X54566545Y-33940406D01*
X54590190Y-33959810D01*
X54609594Y-33983455D01*
X54624014Y-34010432D01*
X54632895Y-34039710D01*
X54636200Y-34073267D01*
X54636200Y-34506733D01*
X54632895Y-34540290D01*
X54624014Y-34569568D01*
X54609594Y-34596545D01*
X54590190Y-34620190D01*
X54566545Y-34639594D01*
X54539568Y-34654014D01*
X54510290Y-34662895D01*
X54476733Y-34666200D01*
X53168267Y-34666200D01*
X53134710Y-34662895D01*
X53105432Y-34654014D01*
X53078455Y-34639594D01*
X53054810Y-34620190D01*
X53035406Y-34596545D01*
X53020986Y-34569568D01*
X53012105Y-34540290D01*
X53008800Y-34506733D01*
X53008800Y-34073267D01*
X53012105Y-34039710D01*
X53020986Y-34010432D01*
X53035406Y-33983455D01*
X53054810Y-33959810D01*
X53078455Y-33940406D01*
X53105432Y-33925986D01*
X53134710Y-33917105D01*
X53168267Y-33913800D01*
X54476733Y-33913800D01*
X54510290Y-33917105D01*
X54510290Y-33917105D01*
G37*
G36*
X43385290Y-33917105D02*
G01*
X43414568Y-33925986D01*
X43441545Y-33940406D01*
X43465190Y-33959810D01*
X43484594Y-33983455D01*
X43499014Y-34010432D01*
X43507895Y-34039710D01*
X43511200Y-34073267D01*
X43511200Y-34506733D01*
X43507895Y-34540290D01*
X43499014Y-34569568D01*
X43484594Y-34596545D01*
X43465190Y-34620190D01*
X43441545Y-34639594D01*
X43414568Y-34654014D01*
X43385290Y-34662895D01*
X43351733Y-34666200D01*
X42043267Y-34666200D01*
X42009710Y-34662895D01*
X41980432Y-34654014D01*
X41953455Y-34639594D01*
X41929810Y-34620190D01*
X41910406Y-34596545D01*
X41895986Y-34569568D01*
X41887105Y-34540290D01*
X41883800Y-34506733D01*
X41883800Y-34073267D01*
X41887105Y-34039710D01*
X41895986Y-34010432D01*
X41910406Y-33983455D01*
X41929810Y-33959810D01*
X41953455Y-33940406D01*
X41980432Y-33925986D01*
X42009710Y-33917105D01*
X42043267Y-33913800D01*
X43351733Y-33913800D01*
X43385290Y-33917105D01*
X43385290Y-33917105D01*
G37*
G36*
X43385290Y-32647105D02*
G01*
X43414568Y-32655986D01*
X43441545Y-32670406D01*
X43465190Y-32689810D01*
X43484594Y-32713455D01*
X43499014Y-32740432D01*
X43507895Y-32769710D01*
X43511200Y-32803267D01*
X43511200Y-33236733D01*
X43507895Y-33270290D01*
X43499014Y-33299568D01*
X43484594Y-33326545D01*
X43465190Y-33350190D01*
X43441545Y-33369594D01*
X43414568Y-33384014D01*
X43385290Y-33392895D01*
X43351733Y-33396200D01*
X42043267Y-33396200D01*
X42009710Y-33392895D01*
X41980432Y-33384014D01*
X41953455Y-33369594D01*
X41929810Y-33350190D01*
X41910406Y-33326545D01*
X41895986Y-33299568D01*
X41887105Y-33270290D01*
X41883800Y-33236733D01*
X41883800Y-32803267D01*
X41887105Y-32769710D01*
X41895986Y-32740432D01*
X41910406Y-32713455D01*
X41929810Y-32689810D01*
X41953455Y-32670406D01*
X41980432Y-32655986D01*
X42009710Y-32647105D01*
X42043267Y-32643800D01*
X43351733Y-32643800D01*
X43385290Y-32647105D01*
X43385290Y-32647105D01*
G37*
G36*
X54510290Y-32647105D02*
G01*
X54539568Y-32655986D01*
X54566545Y-32670406D01*
X54590190Y-32689810D01*
X54609594Y-32713455D01*
X54624014Y-32740432D01*
X54632895Y-32769710D01*
X54636200Y-32803267D01*
X54636200Y-33236733D01*
X54632895Y-33270290D01*
X54624014Y-33299568D01*
X54609594Y-33326545D01*
X54590190Y-33350190D01*
X54566545Y-33369594D01*
X54539568Y-33384014D01*
X54510290Y-33392895D01*
X54476733Y-33396200D01*
X53168267Y-33396200D01*
X53134710Y-33392895D01*
X53105432Y-33384014D01*
X53078455Y-33369594D01*
X53054810Y-33350190D01*
X53035406Y-33326545D01*
X53020986Y-33299568D01*
X53012105Y-33270290D01*
X53008800Y-33236733D01*
X53008800Y-32803267D01*
X53012105Y-32769710D01*
X53020986Y-32740432D01*
X53035406Y-32713455D01*
X53054810Y-32689810D01*
X53078455Y-32670406D01*
X53105432Y-32655986D01*
X53134710Y-32647105D01*
X53168267Y-32643800D01*
X54476733Y-32643800D01*
X54510290Y-32647105D01*
X54510290Y-32647105D01*
G37*
G36*
X54510290Y-31377105D02*
G01*
X54539568Y-31385986D01*
X54566545Y-31400406D01*
X54590190Y-31419810D01*
X54609594Y-31443455D01*
X54624014Y-31470432D01*
X54632895Y-31499710D01*
X54636200Y-31533267D01*
X54636200Y-31966733D01*
X54632895Y-32000290D01*
X54624014Y-32029568D01*
X54609594Y-32056545D01*
X54590190Y-32080190D01*
X54566545Y-32099594D01*
X54539568Y-32114014D01*
X54510290Y-32122895D01*
X54476733Y-32126200D01*
X53168267Y-32126200D01*
X53134710Y-32122895D01*
X53105432Y-32114014D01*
X53078455Y-32099594D01*
X53054810Y-32080190D01*
X53035406Y-32056545D01*
X53020986Y-32029568D01*
X53012105Y-32000290D01*
X53008800Y-31966733D01*
X53008800Y-31533267D01*
X53012105Y-31499710D01*
X53020986Y-31470432D01*
X53035406Y-31443455D01*
X53054810Y-31419810D01*
X53078455Y-31400406D01*
X53105432Y-31385986D01*
X53134710Y-31377105D01*
X53168267Y-31373800D01*
X54476733Y-31373800D01*
X54510290Y-31377105D01*
X54510290Y-31377105D01*
G37*
G36*
X43385290Y-31377105D02*
G01*
X43414568Y-31385986D01*
X43441545Y-31400406D01*
X43465190Y-31419810D01*
X43484594Y-31443455D01*
X43499014Y-31470432D01*
X43507895Y-31499710D01*
X43511200Y-31533267D01*
X43511200Y-31966733D01*
X43507895Y-32000290D01*
X43499014Y-32029568D01*
X43484594Y-32056545D01*
X43465190Y-32080190D01*
X43441545Y-32099594D01*
X43414568Y-32114014D01*
X43385290Y-32122895D01*
X43351733Y-32126200D01*
X42043267Y-32126200D01*
X42009710Y-32122895D01*
X41980432Y-32114014D01*
X41953455Y-32099594D01*
X41929810Y-32080190D01*
X41910406Y-32056545D01*
X41895986Y-32029568D01*
X41887105Y-32000290D01*
X41883800Y-31966733D01*
X41883800Y-31533267D01*
X41887105Y-31499710D01*
X41895986Y-31470432D01*
X41910406Y-31443455D01*
X41929810Y-31419810D01*
X41953455Y-31400406D01*
X41980432Y-31385986D01*
X42009710Y-31377105D01*
X42043267Y-31373800D01*
X43351733Y-31373800D01*
X43385290Y-31377105D01*
X43385290Y-31377105D01*
G37*
G36*
X45970290Y-29182105D02*
G01*
X45999568Y-29190986D01*
X46026545Y-29205406D01*
X46050190Y-29224810D01*
X46069594Y-29248455D01*
X46084014Y-29275432D01*
X46092895Y-29304710D01*
X46096200Y-29338267D01*
X46096200Y-30646733D01*
X46092895Y-30680290D01*
X46084014Y-30709568D01*
X46069594Y-30736545D01*
X46050190Y-30760190D01*
X46026545Y-30779594D01*
X45999568Y-30794014D01*
X45970290Y-30802895D01*
X45936733Y-30806200D01*
X45503267Y-30806200D01*
X45469710Y-30802895D01*
X45440432Y-30794014D01*
X45413455Y-30779594D01*
X45389810Y-30760190D01*
X45370406Y-30736545D01*
X45355986Y-30709568D01*
X45347105Y-30680290D01*
X45343800Y-30646733D01*
X45343800Y-29338267D01*
X45347105Y-29304710D01*
X45355986Y-29275432D01*
X45370406Y-29248455D01*
X45389810Y-29224810D01*
X45413455Y-29205406D01*
X45440432Y-29190986D01*
X45469710Y-29182105D01*
X45503267Y-29178800D01*
X45936733Y-29178800D01*
X45970290Y-29182105D01*
X45970290Y-29182105D01*
G37*
G36*
X44700290Y-29182105D02*
G01*
X44729568Y-29190986D01*
X44756545Y-29205406D01*
X44780190Y-29224810D01*
X44799594Y-29248455D01*
X44814014Y-29275432D01*
X44822895Y-29304710D01*
X44826200Y-29338267D01*
X44826200Y-30646733D01*
X44822895Y-30680290D01*
X44814014Y-30709568D01*
X44799594Y-30736545D01*
X44780190Y-30760190D01*
X44756545Y-30779594D01*
X44729568Y-30794014D01*
X44700290Y-30802895D01*
X44666733Y-30806200D01*
X44233267Y-30806200D01*
X44199710Y-30802895D01*
X44170432Y-30794014D01*
X44143455Y-30779594D01*
X44119810Y-30760190D01*
X44100406Y-30736545D01*
X44085986Y-30709568D01*
X44077105Y-30680290D01*
X44073800Y-30646733D01*
X44073800Y-29338267D01*
X44077105Y-29304710D01*
X44085986Y-29275432D01*
X44100406Y-29248455D01*
X44119810Y-29224810D01*
X44143455Y-29205406D01*
X44170432Y-29190986D01*
X44199710Y-29182105D01*
X44233267Y-29178800D01*
X44666733Y-29178800D01*
X44700290Y-29182105D01*
X44700290Y-29182105D01*
G37*
G36*
X47240290Y-29182105D02*
G01*
X47269568Y-29190986D01*
X47296545Y-29205406D01*
X47320190Y-29224810D01*
X47339594Y-29248455D01*
X47354014Y-29275432D01*
X47362895Y-29304710D01*
X47366200Y-29338267D01*
X47366200Y-30646733D01*
X47362895Y-30680290D01*
X47354014Y-30709568D01*
X47339594Y-30736545D01*
X47320190Y-30760190D01*
X47296545Y-30779594D01*
X47269568Y-30794014D01*
X47240290Y-30802895D01*
X47206733Y-30806200D01*
X46773267Y-30806200D01*
X46739710Y-30802895D01*
X46710432Y-30794014D01*
X46683455Y-30779594D01*
X46659810Y-30760190D01*
X46640406Y-30736545D01*
X46625986Y-30709568D01*
X46617105Y-30680290D01*
X46613800Y-30646733D01*
X46613800Y-29338267D01*
X46617105Y-29304710D01*
X46625986Y-29275432D01*
X46640406Y-29248455D01*
X46659810Y-29224810D01*
X46683455Y-29205406D01*
X46710432Y-29190986D01*
X46739710Y-29182105D01*
X46773267Y-29178800D01*
X47206733Y-29178800D01*
X47240290Y-29182105D01*
X47240290Y-29182105D01*
G37*
G36*
X49780290Y-29182105D02*
G01*
X49809568Y-29190986D01*
X49836545Y-29205406D01*
X49860190Y-29224810D01*
X49879594Y-29248455D01*
X49894014Y-29275432D01*
X49902895Y-29304710D01*
X49906200Y-29338267D01*
X49906200Y-30646733D01*
X49902895Y-30680290D01*
X49894014Y-30709568D01*
X49879594Y-30736545D01*
X49860190Y-30760190D01*
X49836545Y-30779594D01*
X49809568Y-30794014D01*
X49780290Y-30802895D01*
X49746733Y-30806200D01*
X49313267Y-30806200D01*
X49279710Y-30802895D01*
X49250432Y-30794014D01*
X49223455Y-30779594D01*
X49199810Y-30760190D01*
X49180406Y-30736545D01*
X49165986Y-30709568D01*
X49157105Y-30680290D01*
X49153800Y-30646733D01*
X49153800Y-29338267D01*
X49157105Y-29304710D01*
X49165986Y-29275432D01*
X49180406Y-29248455D01*
X49199810Y-29224810D01*
X49223455Y-29205406D01*
X49250432Y-29190986D01*
X49279710Y-29182105D01*
X49313267Y-29178800D01*
X49746733Y-29178800D01*
X49780290Y-29182105D01*
X49780290Y-29182105D01*
G37*
G36*
X48510290Y-29182105D02*
G01*
X48539568Y-29190986D01*
X48566545Y-29205406D01*
X48590190Y-29224810D01*
X48609594Y-29248455D01*
X48624014Y-29275432D01*
X48632895Y-29304710D01*
X48636200Y-29338267D01*
X48636200Y-30646733D01*
X48632895Y-30680290D01*
X48624014Y-30709568D01*
X48609594Y-30736545D01*
X48590190Y-30760190D01*
X48566545Y-30779594D01*
X48539568Y-30794014D01*
X48510290Y-30802895D01*
X48476733Y-30806200D01*
X48043267Y-30806200D01*
X48009710Y-30802895D01*
X47980432Y-30794014D01*
X47953455Y-30779594D01*
X47929810Y-30760190D01*
X47910406Y-30736545D01*
X47895986Y-30709568D01*
X47887105Y-30680290D01*
X47883800Y-30646733D01*
X47883800Y-29338267D01*
X47887105Y-29304710D01*
X47895986Y-29275432D01*
X47910406Y-29248455D01*
X47929810Y-29224810D01*
X47953455Y-29205406D01*
X47980432Y-29190986D01*
X48009710Y-29182105D01*
X48043267Y-29178800D01*
X48476733Y-29178800D01*
X48510290Y-29182105D01*
X48510290Y-29182105D01*
G37*
G36*
X51050290Y-29182105D02*
G01*
X51079568Y-29190986D01*
X51106545Y-29205406D01*
X51130190Y-29224810D01*
X51149594Y-29248455D01*
X51164014Y-29275432D01*
X51172895Y-29304710D01*
X51176200Y-29338267D01*
X51176200Y-30646733D01*
X51172895Y-30680290D01*
X51164014Y-30709568D01*
X51149594Y-30736545D01*
X51130190Y-30760190D01*
X51106545Y-30779594D01*
X51079568Y-30794014D01*
X51050290Y-30802895D01*
X51016733Y-30806200D01*
X50583267Y-30806200D01*
X50549710Y-30802895D01*
X50520432Y-30794014D01*
X50493455Y-30779594D01*
X50469810Y-30760190D01*
X50450406Y-30736545D01*
X50435986Y-30709568D01*
X50427105Y-30680290D01*
X50423800Y-30646733D01*
X50423800Y-29338267D01*
X50427105Y-29304710D01*
X50435986Y-29275432D01*
X50450406Y-29248455D01*
X50469810Y-29224810D01*
X50493455Y-29205406D01*
X50520432Y-29190986D01*
X50549710Y-29182105D01*
X50583267Y-29178800D01*
X51016733Y-29178800D01*
X51050290Y-29182105D01*
X51050290Y-29182105D01*
G37*
G36*
X52320290Y-29182105D02*
G01*
X52349568Y-29190986D01*
X52376545Y-29205406D01*
X52400190Y-29224810D01*
X52419594Y-29248455D01*
X52434014Y-29275432D01*
X52442895Y-29304710D01*
X52446200Y-29338267D01*
X52446200Y-30646733D01*
X52442895Y-30680290D01*
X52434014Y-30709568D01*
X52419594Y-30736545D01*
X52400190Y-30760190D01*
X52376545Y-30779594D01*
X52349568Y-30794014D01*
X52320290Y-30802895D01*
X52286733Y-30806200D01*
X51853267Y-30806200D01*
X51819710Y-30802895D01*
X51790432Y-30794014D01*
X51763455Y-30779594D01*
X51739810Y-30760190D01*
X51720406Y-30736545D01*
X51705986Y-30709568D01*
X51697105Y-30680290D01*
X51693800Y-30646733D01*
X51693800Y-29338267D01*
X51697105Y-29304710D01*
X51705986Y-29275432D01*
X51720406Y-29248455D01*
X51739810Y-29224810D01*
X51763455Y-29205406D01*
X51790432Y-29190986D01*
X51819710Y-29182105D01*
X51853267Y-29178800D01*
X52286733Y-29178800D01*
X52320290Y-29182105D01*
X52320290Y-29182105D01*
G37*
G36*
X52669986Y-26488306D02*
G01*
X52710980Y-26500742D01*
X52748767Y-26520939D01*
X52781883Y-26548117D01*
X52809061Y-26581233D01*
X52829258Y-26619020D01*
X52841694Y-26660014D01*
X52846200Y-26705767D01*
X52846200Y-27264233D01*
X52841694Y-27309986D01*
X52829258Y-27350980D01*
X52809061Y-27388767D01*
X52781883Y-27421883D01*
X52748767Y-27449061D01*
X52710980Y-27469258D01*
X52669986Y-27481694D01*
X52624233Y-27486200D01*
X51515767Y-27486200D01*
X51470014Y-27481694D01*
X51429020Y-27469258D01*
X51391233Y-27449061D01*
X51358117Y-27421883D01*
X51330939Y-27388767D01*
X51310742Y-27350980D01*
X51298306Y-27309986D01*
X51293800Y-27264233D01*
X51293800Y-26705767D01*
X51298306Y-26660014D01*
X51310742Y-26619020D01*
X51330939Y-26581233D01*
X51358117Y-26548117D01*
X51391233Y-26520939D01*
X51429020Y-26500742D01*
X51470014Y-26488306D01*
X51515767Y-26483800D01*
X52624233Y-26483800D01*
X52669986Y-26488306D01*
X52669986Y-26488306D01*
G37*
G36*
X48214737Y-25899267D02*
G01*
X48265119Y-25914550D01*
X48311546Y-25939366D01*
X48352239Y-25972761D01*
X48385634Y-26013454D01*
X48410450Y-26059881D01*
X48425733Y-26110263D01*
X48431200Y-26165767D01*
X48431200Y-27174233D01*
X48425733Y-27229737D01*
X48410450Y-27280119D01*
X48385634Y-27326546D01*
X48352239Y-27367239D01*
X48311546Y-27400634D01*
X48265119Y-27425450D01*
X48214737Y-27440733D01*
X48159233Y-27446200D01*
X47500767Y-27446200D01*
X47445263Y-27440733D01*
X47394881Y-27425450D01*
X47348454Y-27400634D01*
X47307761Y-27367239D01*
X47274366Y-27326546D01*
X47249550Y-27280119D01*
X47234267Y-27229737D01*
X47228800Y-27174233D01*
X47228800Y-26165767D01*
X47234267Y-26110263D01*
X47249550Y-26059881D01*
X47274366Y-26013454D01*
X47307761Y-25972761D01*
X47348454Y-25939366D01*
X47394881Y-25914550D01*
X47445263Y-25899267D01*
X47500767Y-25893800D01*
X48159233Y-25893800D01*
X48214737Y-25899267D01*
X48214737Y-25899267D01*
G37*
G36*
X49914737Y-25899267D02*
G01*
X49965119Y-25914550D01*
X50011546Y-25939366D01*
X50052239Y-25972761D01*
X50085634Y-26013454D01*
X50110450Y-26059881D01*
X50125733Y-26110263D01*
X50131200Y-26165767D01*
X50131200Y-27174233D01*
X50125733Y-27229737D01*
X50110450Y-27280119D01*
X50085634Y-27326546D01*
X50052239Y-27367239D01*
X50011546Y-27400634D01*
X49965119Y-27425450D01*
X49914737Y-27440733D01*
X49859233Y-27446200D01*
X49200767Y-27446200D01*
X49145263Y-27440733D01*
X49094881Y-27425450D01*
X49048454Y-27400634D01*
X49007761Y-27367239D01*
X48974366Y-27326546D01*
X48949550Y-27280119D01*
X48934267Y-27229737D01*
X48928800Y-27174233D01*
X48928800Y-26165767D01*
X48934267Y-26110263D01*
X48949550Y-26059881D01*
X48974366Y-26013454D01*
X49007761Y-25972761D01*
X49048454Y-25939366D01*
X49094881Y-25914550D01*
X49145263Y-25899267D01*
X49200767Y-25893800D01*
X49859233Y-25893800D01*
X49914737Y-25899267D01*
X49914737Y-25899267D01*
G37*
G36*
X52669986Y-24588306D02*
G01*
X52710980Y-24600742D01*
X52748767Y-24620939D01*
X52781883Y-24648117D01*
X52809061Y-24681233D01*
X52829258Y-24719020D01*
X52841694Y-24760014D01*
X52846200Y-24805767D01*
X52846200Y-25364233D01*
X52841694Y-25409986D01*
X52829258Y-25450980D01*
X52809061Y-25488767D01*
X52781883Y-25521883D01*
X52748767Y-25549061D01*
X52710980Y-25569258D01*
X52669986Y-25581694D01*
X52624233Y-25586200D01*
X51515767Y-25586200D01*
X51470014Y-25581694D01*
X51429020Y-25569258D01*
X51391233Y-25549061D01*
X51358117Y-25521883D01*
X51330939Y-25488767D01*
X51310742Y-25450980D01*
X51298306Y-25409986D01*
X51293800Y-25364233D01*
X51293800Y-24805767D01*
X51298306Y-24760014D01*
X51310742Y-24719020D01*
X51330939Y-24681233D01*
X51358117Y-24648117D01*
X51391233Y-24620939D01*
X51429020Y-24600742D01*
X51470014Y-24588306D01*
X51515767Y-24583800D01*
X52624233Y-24583800D01*
X52669986Y-24588306D01*
X52669986Y-24588306D01*
G37*
G36*
X43471692Y-19358429D02*
G01*
X43653679Y-19433811D01*
X43817458Y-19543245D01*
X43817460Y-19543247D01*
X43817463Y-19543249D01*
X43956751Y-19682537D01*
X43956753Y-19682540D01*
X43956755Y-19682542D01*
X44066189Y-19846321D01*
X44141571Y-20028308D01*
X44180000Y-20221509D01*
X44180000Y-20418491D01*
X44141571Y-20611692D01*
X44066189Y-20793679D01*
X43956755Y-20957458D01*
X43956753Y-20957460D01*
X43956751Y-20957463D01*
X43817463Y-21096751D01*
X43817460Y-21096753D01*
X43817458Y-21096755D01*
X43653679Y-21206189D01*
X43471692Y-21281571D01*
X43278491Y-21320000D01*
X43081509Y-21320000D01*
X42888308Y-21281571D01*
X42706321Y-21206189D01*
X42542542Y-21096755D01*
X42542540Y-21096753D01*
X42542537Y-21096751D01*
X42403249Y-20957463D01*
X42403247Y-20957460D01*
X42403245Y-20957458D01*
X42293811Y-20793679D01*
X42218429Y-20611692D01*
X42180000Y-20418491D01*
X42180000Y-20221509D01*
X42218429Y-20028308D01*
X42293811Y-19846321D01*
X42403245Y-19682542D01*
X42403247Y-19682540D01*
X42403249Y-19682537D01*
X42542537Y-19543249D01*
X42542540Y-19543247D01*
X42542542Y-19543245D01*
X42706321Y-19433811D01*
X42888308Y-19358429D01*
X43081509Y-19320000D01*
X43278491Y-19320000D01*
X43471692Y-19358429D01*
X43471692Y-19358429D01*
G37*
M02*
