M48
; DRILL file {KiCad 7.0.1-0} date 2023 December 28, Thursday 18:54:55
; FORMAT={-:-/ absolute / inch / decimal}
; #@! TF.CreationDate,2023-12-28T18:54:55-05:00
; #@! TF.GenerationSoftware,Kicad,Pcbnew,7.0.1-0
; #@! TF.FileFunction,MixedPlating,1,2
FMAT,2
INCH
; #@! TA.AperFunction,Plated,PTH,ViaDrill
T1C0.0118
; #@! TA.AperFunction,Plated,PTH,ViaDrill
T2C0.0157
; #@! TA.AperFunction,Plated,PTH,ViaDrill
T3C0.0197
; #@! TA.AperFunction,Plated,PTH,ComponentDrill
T4C0.0354
%
G90
G05
T1
X1.665Y-2.1
X1.67Y-1.21
X1.6825Y-1.16
X1.73Y-1.3
X1.73Y-1.35
X1.73Y-1.4
X1.73Y-1.6
X1.7475Y-1.245
X1.81Y-1.4275
X1.815Y-1.97
X1.85Y-1.67
X1.85Y-1.77
X1.9Y-1.23
X1.94Y-1.4425
X2.0Y-1.2275
X2.025Y-1.6
X2.05Y-1.0278
X2.05Y-1.13
X2.05Y-1.23
X2.07Y-1.3
X2.07Y-1.35
X2.07Y-1.4
X2.0925Y-0.98
X2.125Y-1.825
X2.125Y-1.975
X2.14Y-1.0275
X2.14Y-1.11
X2.14Y-1.19
T2
X2.0925Y-1.07
T3
X1.7275Y-0.97
X1.7275Y-1.12
X2.0421Y-0.8669
X2.095Y-0.9125
T4
X1.6Y-0.7823G85X1.6Y-0.8177
G05
X1.6Y-0.8823G85X1.6Y-0.9177
G05
X1.6Y-0.9823G85X1.6Y-1.0177
G05
X1.6Y-1.0823G85X1.6Y-1.1177
G05
X1.6Y-1.1823G85X1.6Y-1.2177
G05
X1.6Y-1.2823G85X1.6Y-1.3177
G05
X1.6Y-1.3823G85X1.6Y-1.4177
G05
X1.6Y-1.4823G85X1.6Y-1.5177
G05
X1.6Y-1.5823G85X1.6Y-1.6177
G05
X1.6Y-1.6823G85X1.6Y-1.7177
G05
X1.6Y-1.7823G85X1.6Y-1.8177
G05
X1.6Y-1.8823G85X1.6Y-1.9177
G05
X1.6Y-1.9823G85X1.6Y-2.0177
G05
X1.6Y-2.0823G85X1.6Y-2.1177
G05
X2.2Y-0.7823G85X2.2Y-0.8177
G05
X2.2Y-0.8823G85X2.2Y-0.9177
G05
X2.2Y-0.9823G85X2.2Y-1.0177
G05
X2.2Y-1.0823G85X2.2Y-1.1177
G05
X2.2Y-1.1823G85X2.2Y-1.2177
G05
X2.2Y-1.2823G85X2.2Y-1.3177
G05
X2.2Y-1.3823G85X2.2Y-1.4177
G05
X2.2Y-1.4823G85X2.2Y-1.5177
G05
X2.2Y-1.5823G85X2.2Y-1.6177
G05
X2.2Y-1.6823G85X2.2Y-1.7177
G05
X2.2Y-1.7823G85X2.2Y-1.8177
G05
X2.2Y-1.8823G85X2.2Y-1.9177
G05
X2.2Y-1.9823G85X2.2Y-2.0177
G05
X2.2Y-2.0823G85X2.2Y-2.1177
G05
T0
M30
