G04 #@! TF.GenerationSoftware,KiCad,Pcbnew,(5.1.5-0-10_14)*
G04 #@! TF.CreationDate,2021-04-02T23:51:13-04:00*
G04 #@! TF.ProjectId,GW28R8128,47573238-5238-4313-9238-2e6b69636164,rev?*
G04 #@! TF.SameCoordinates,Original*
G04 #@! TF.FileFunction,Soldermask,Bot*
G04 #@! TF.FilePolarity,Negative*
%FSLAX46Y46*%
G04 Gerber Fmt 4.6, Leading zero omitted, Abs format (unit mm)*
G04 Created by KiCad (PCBNEW (5.1.5-0-10_14)) date 2021-04-02 23:51:13*
%MOMM*%
%LPD*%
G04 APERTURE LIST*
%ADD10C,0.100000*%
G04 APERTURE END LIST*
D10*
G36*
X56222404Y-52184695D02*
G01*
X56347257Y-52222568D01*
X56462316Y-52284068D01*
X56563166Y-52366834D01*
X56645932Y-52467684D01*
X56707432Y-52582743D01*
X56745305Y-52707596D01*
X56758400Y-52840547D01*
X56758400Y-53839453D01*
X56745305Y-53972404D01*
X56707432Y-54097257D01*
X56645932Y-54212316D01*
X56563166Y-54313166D01*
X56462316Y-54395932D01*
X56347257Y-54457432D01*
X56222404Y-54495305D01*
X56089453Y-54508400D01*
X55470547Y-54508400D01*
X55337596Y-54495305D01*
X55212743Y-54457432D01*
X55097684Y-54395932D01*
X54996834Y-54313166D01*
X54914068Y-54212316D01*
X54852568Y-54097257D01*
X54814695Y-53972404D01*
X54801600Y-53839453D01*
X54801600Y-52840547D01*
X54814695Y-52707596D01*
X54852568Y-52582743D01*
X54914068Y-52467684D01*
X54996834Y-52366834D01*
X55097684Y-52284068D01*
X55212743Y-52222568D01*
X55337596Y-52184695D01*
X55470547Y-52171600D01*
X56089453Y-52171600D01*
X56222404Y-52184695D01*
G37*
G36*
X41182404Y-52184695D02*
G01*
X41307257Y-52222568D01*
X41422316Y-52284068D01*
X41523166Y-52366834D01*
X41605932Y-52467684D01*
X41667432Y-52582743D01*
X41705305Y-52707596D01*
X41718400Y-52840547D01*
X41718400Y-53839453D01*
X41705305Y-53972404D01*
X41667432Y-54097257D01*
X41605932Y-54212316D01*
X41523166Y-54313166D01*
X41422316Y-54395932D01*
X41307257Y-54457432D01*
X41182404Y-54495305D01*
X41049453Y-54508400D01*
X40430547Y-54508400D01*
X40297596Y-54495305D01*
X40172743Y-54457432D01*
X40057684Y-54395932D01*
X39956834Y-54313166D01*
X39874068Y-54212316D01*
X39812568Y-54097257D01*
X39774695Y-53972404D01*
X39761600Y-53839453D01*
X39761600Y-52840547D01*
X39774695Y-52707596D01*
X39812568Y-52582743D01*
X39874068Y-52467684D01*
X39956834Y-52366834D01*
X40057684Y-52284068D01*
X40172743Y-52222568D01*
X40297596Y-52184695D01*
X40430547Y-52171600D01*
X41049453Y-52171600D01*
X41182404Y-52184695D01*
G37*
G36*
X56278748Y-49643350D02*
G01*
X56390469Y-49677239D01*
X56493427Y-49732271D01*
X56583669Y-49806331D01*
X56657729Y-49896573D01*
X56712761Y-49999531D01*
X56746650Y-50111252D01*
X56758400Y-50230547D01*
X56758400Y-51369453D01*
X56746650Y-51488748D01*
X56712761Y-51600469D01*
X56657729Y-51703427D01*
X56583669Y-51793669D01*
X56493427Y-51867729D01*
X56390469Y-51922761D01*
X56278748Y-51956650D01*
X56159453Y-51968400D01*
X55600547Y-51968400D01*
X55481252Y-51956650D01*
X55369531Y-51922761D01*
X55266573Y-51867729D01*
X55176331Y-51793669D01*
X55102271Y-51703427D01*
X55047239Y-51600469D01*
X55013350Y-51488748D01*
X55001600Y-51369453D01*
X55001600Y-50230547D01*
X55013350Y-50111252D01*
X55047239Y-49999531D01*
X55102271Y-49896573D01*
X55176331Y-49806331D01*
X55266573Y-49732271D01*
X55369531Y-49677239D01*
X55481252Y-49643350D01*
X55600547Y-49631600D01*
X56159453Y-49631600D01*
X56278748Y-49643350D01*
G37*
G36*
X41038748Y-49643350D02*
G01*
X41150469Y-49677239D01*
X41253427Y-49732271D01*
X41343669Y-49806331D01*
X41417729Y-49896573D01*
X41472761Y-49999531D01*
X41506650Y-50111252D01*
X41518400Y-50230547D01*
X41518400Y-51369453D01*
X41506650Y-51488748D01*
X41472761Y-51600469D01*
X41417729Y-51703427D01*
X41343669Y-51793669D01*
X41253427Y-51867729D01*
X41150469Y-51922761D01*
X41038748Y-51956650D01*
X40919453Y-51968400D01*
X40360547Y-51968400D01*
X40241252Y-51956650D01*
X40129531Y-51922761D01*
X40026573Y-51867729D01*
X39936331Y-51793669D01*
X39862271Y-51703427D01*
X39807239Y-51600469D01*
X39773350Y-51488748D01*
X39761600Y-51369453D01*
X39761600Y-50230547D01*
X39773350Y-50111252D01*
X39807239Y-49999531D01*
X39862271Y-49896573D01*
X39936331Y-49806331D01*
X40026573Y-49732271D01*
X40129531Y-49677239D01*
X40241252Y-49643350D01*
X40360547Y-49631600D01*
X40919453Y-49631600D01*
X41038748Y-49643350D01*
G37*
G36*
X56278748Y-47103350D02*
G01*
X56390469Y-47137239D01*
X56493427Y-47192271D01*
X56583669Y-47266331D01*
X56657729Y-47356573D01*
X56712761Y-47459531D01*
X56746650Y-47571252D01*
X56758400Y-47690547D01*
X56758400Y-48829453D01*
X56746650Y-48948748D01*
X56712761Y-49060469D01*
X56657729Y-49163427D01*
X56583669Y-49253669D01*
X56493427Y-49327729D01*
X56390469Y-49382761D01*
X56278748Y-49416650D01*
X56159453Y-49428400D01*
X55600547Y-49428400D01*
X55481252Y-49416650D01*
X55369531Y-49382761D01*
X55266573Y-49327729D01*
X55176331Y-49253669D01*
X55102271Y-49163427D01*
X55047239Y-49060469D01*
X55013350Y-48948748D01*
X55001600Y-48829453D01*
X55001600Y-47690547D01*
X55013350Y-47571252D01*
X55047239Y-47459531D01*
X55102271Y-47356573D01*
X55176331Y-47266331D01*
X55266573Y-47192271D01*
X55369531Y-47137239D01*
X55481252Y-47103350D01*
X55600547Y-47091600D01*
X56159453Y-47091600D01*
X56278748Y-47103350D01*
G37*
G36*
X41038748Y-47103350D02*
G01*
X41150469Y-47137239D01*
X41253427Y-47192271D01*
X41343669Y-47266331D01*
X41417729Y-47356573D01*
X41472761Y-47459531D01*
X41506650Y-47571252D01*
X41518400Y-47690547D01*
X41518400Y-48829453D01*
X41506650Y-48948748D01*
X41472761Y-49060469D01*
X41417729Y-49163427D01*
X41343669Y-49253669D01*
X41253427Y-49327729D01*
X41150469Y-49382761D01*
X41038748Y-49416650D01*
X40919453Y-49428400D01*
X40360547Y-49428400D01*
X40241252Y-49416650D01*
X40129531Y-49382761D01*
X40026573Y-49327729D01*
X39936331Y-49253669D01*
X39862271Y-49163427D01*
X39807239Y-49060469D01*
X39773350Y-48948748D01*
X39761600Y-48829453D01*
X39761600Y-47690547D01*
X39773350Y-47571252D01*
X39807239Y-47459531D01*
X39862271Y-47356573D01*
X39936331Y-47266331D01*
X40026573Y-47192271D01*
X40129531Y-47137239D01*
X40241252Y-47103350D01*
X40360547Y-47091600D01*
X40919453Y-47091600D01*
X41038748Y-47103350D01*
G37*
G36*
X41038748Y-44563350D02*
G01*
X41150469Y-44597239D01*
X41253427Y-44652271D01*
X41343669Y-44726331D01*
X41417729Y-44816573D01*
X41472761Y-44919531D01*
X41506650Y-45031252D01*
X41518400Y-45150547D01*
X41518400Y-46289453D01*
X41506650Y-46408748D01*
X41472761Y-46520469D01*
X41417729Y-46623427D01*
X41343669Y-46713669D01*
X41253427Y-46787729D01*
X41150469Y-46842761D01*
X41038748Y-46876650D01*
X40919453Y-46888400D01*
X40360547Y-46888400D01*
X40241252Y-46876650D01*
X40129531Y-46842761D01*
X40026573Y-46787729D01*
X39936331Y-46713669D01*
X39862271Y-46623427D01*
X39807239Y-46520469D01*
X39773350Y-46408748D01*
X39761600Y-46289453D01*
X39761600Y-45150547D01*
X39773350Y-45031252D01*
X39807239Y-44919531D01*
X39862271Y-44816573D01*
X39936331Y-44726331D01*
X40026573Y-44652271D01*
X40129531Y-44597239D01*
X40241252Y-44563350D01*
X40360547Y-44551600D01*
X40919453Y-44551600D01*
X41038748Y-44563350D01*
G37*
G36*
X56278748Y-44563350D02*
G01*
X56390469Y-44597239D01*
X56493427Y-44652271D01*
X56583669Y-44726331D01*
X56657729Y-44816573D01*
X56712761Y-44919531D01*
X56746650Y-45031252D01*
X56758400Y-45150547D01*
X56758400Y-46289453D01*
X56746650Y-46408748D01*
X56712761Y-46520469D01*
X56657729Y-46623427D01*
X56583669Y-46713669D01*
X56493427Y-46787729D01*
X56390469Y-46842761D01*
X56278748Y-46876650D01*
X56159453Y-46888400D01*
X55600547Y-46888400D01*
X55481252Y-46876650D01*
X55369531Y-46842761D01*
X55266573Y-46787729D01*
X55176331Y-46713669D01*
X55102271Y-46623427D01*
X55047239Y-46520469D01*
X55013350Y-46408748D01*
X55001600Y-46289453D01*
X55001600Y-45150547D01*
X55013350Y-45031252D01*
X55047239Y-44919531D01*
X55102271Y-44816573D01*
X55176331Y-44726331D01*
X55266573Y-44652271D01*
X55369531Y-44597239D01*
X55481252Y-44563350D01*
X55600547Y-44551600D01*
X56159453Y-44551600D01*
X56278748Y-44563350D01*
G37*
G36*
X41038748Y-42023350D02*
G01*
X41150469Y-42057239D01*
X41253427Y-42112271D01*
X41343669Y-42186331D01*
X41417729Y-42276573D01*
X41472761Y-42379531D01*
X41506650Y-42491252D01*
X41518400Y-42610547D01*
X41518400Y-43749453D01*
X41506650Y-43868748D01*
X41472761Y-43980469D01*
X41417729Y-44083427D01*
X41343669Y-44173669D01*
X41253427Y-44247729D01*
X41150469Y-44302761D01*
X41038748Y-44336650D01*
X40919453Y-44348400D01*
X40360547Y-44348400D01*
X40241252Y-44336650D01*
X40129531Y-44302761D01*
X40026573Y-44247729D01*
X39936331Y-44173669D01*
X39862271Y-44083427D01*
X39807239Y-43980469D01*
X39773350Y-43868748D01*
X39761600Y-43749453D01*
X39761600Y-42610547D01*
X39773350Y-42491252D01*
X39807239Y-42379531D01*
X39862271Y-42276573D01*
X39936331Y-42186331D01*
X40026573Y-42112271D01*
X40129531Y-42057239D01*
X40241252Y-42023350D01*
X40360547Y-42011600D01*
X40919453Y-42011600D01*
X41038748Y-42023350D01*
G37*
G36*
X56278748Y-42023350D02*
G01*
X56390469Y-42057239D01*
X56493427Y-42112271D01*
X56583669Y-42186331D01*
X56657729Y-42276573D01*
X56712761Y-42379531D01*
X56746650Y-42491252D01*
X56758400Y-42610547D01*
X56758400Y-43749453D01*
X56746650Y-43868748D01*
X56712761Y-43980469D01*
X56657729Y-44083427D01*
X56583669Y-44173669D01*
X56493427Y-44247729D01*
X56390469Y-44302761D01*
X56278748Y-44336650D01*
X56159453Y-44348400D01*
X55600547Y-44348400D01*
X55481252Y-44336650D01*
X55369531Y-44302761D01*
X55266573Y-44247729D01*
X55176331Y-44173669D01*
X55102271Y-44083427D01*
X55047239Y-43980469D01*
X55013350Y-43868748D01*
X55001600Y-43749453D01*
X55001600Y-42610547D01*
X55013350Y-42491252D01*
X55047239Y-42379531D01*
X55102271Y-42276573D01*
X55176331Y-42186331D01*
X55266573Y-42112271D01*
X55369531Y-42057239D01*
X55481252Y-42023350D01*
X55600547Y-42011600D01*
X56159453Y-42011600D01*
X56278748Y-42023350D01*
G37*
G36*
X56278748Y-39483350D02*
G01*
X56390469Y-39517239D01*
X56493427Y-39572271D01*
X56583669Y-39646331D01*
X56657729Y-39736573D01*
X56712761Y-39839531D01*
X56746650Y-39951252D01*
X56758400Y-40070547D01*
X56758400Y-41209453D01*
X56746650Y-41328748D01*
X56712761Y-41440469D01*
X56657729Y-41543427D01*
X56583669Y-41633669D01*
X56493427Y-41707729D01*
X56390469Y-41762761D01*
X56278748Y-41796650D01*
X56159453Y-41808400D01*
X55600547Y-41808400D01*
X55481252Y-41796650D01*
X55369531Y-41762761D01*
X55266573Y-41707729D01*
X55176331Y-41633669D01*
X55102271Y-41543427D01*
X55047239Y-41440469D01*
X55013350Y-41328748D01*
X55001600Y-41209453D01*
X55001600Y-40070547D01*
X55013350Y-39951252D01*
X55047239Y-39839531D01*
X55102271Y-39736573D01*
X55176331Y-39646331D01*
X55266573Y-39572271D01*
X55369531Y-39517239D01*
X55481252Y-39483350D01*
X55600547Y-39471600D01*
X56159453Y-39471600D01*
X56278748Y-39483350D01*
G37*
G36*
X41038748Y-39483350D02*
G01*
X41150469Y-39517239D01*
X41253427Y-39572271D01*
X41343669Y-39646331D01*
X41417729Y-39736573D01*
X41472761Y-39839531D01*
X41506650Y-39951252D01*
X41518400Y-40070547D01*
X41518400Y-41209453D01*
X41506650Y-41328748D01*
X41472761Y-41440469D01*
X41417729Y-41543427D01*
X41343669Y-41633669D01*
X41253427Y-41707729D01*
X41150469Y-41762761D01*
X41038748Y-41796650D01*
X40919453Y-41808400D01*
X40360547Y-41808400D01*
X40241252Y-41796650D01*
X40129531Y-41762761D01*
X40026573Y-41707729D01*
X39936331Y-41633669D01*
X39862271Y-41543427D01*
X39807239Y-41440469D01*
X39773350Y-41328748D01*
X39761600Y-41209453D01*
X39761600Y-40070547D01*
X39773350Y-39951252D01*
X39807239Y-39839531D01*
X39862271Y-39736573D01*
X39936331Y-39646331D01*
X40026573Y-39572271D01*
X40129531Y-39517239D01*
X40241252Y-39483350D01*
X40360547Y-39471600D01*
X40919453Y-39471600D01*
X41038748Y-39483350D01*
G37*
G36*
X41038748Y-36943350D02*
G01*
X41150469Y-36977239D01*
X41253427Y-37032271D01*
X41343669Y-37106331D01*
X41417729Y-37196573D01*
X41472761Y-37299531D01*
X41506650Y-37411252D01*
X41518400Y-37530547D01*
X41518400Y-38669453D01*
X41506650Y-38788748D01*
X41472761Y-38900469D01*
X41417729Y-39003427D01*
X41343669Y-39093669D01*
X41253427Y-39167729D01*
X41150469Y-39222761D01*
X41038748Y-39256650D01*
X40919453Y-39268400D01*
X40360547Y-39268400D01*
X40241252Y-39256650D01*
X40129531Y-39222761D01*
X40026573Y-39167729D01*
X39936331Y-39093669D01*
X39862271Y-39003427D01*
X39807239Y-38900469D01*
X39773350Y-38788748D01*
X39761600Y-38669453D01*
X39761600Y-37530547D01*
X39773350Y-37411252D01*
X39807239Y-37299531D01*
X39862271Y-37196573D01*
X39936331Y-37106331D01*
X40026573Y-37032271D01*
X40129531Y-36977239D01*
X40241252Y-36943350D01*
X40360547Y-36931600D01*
X40919453Y-36931600D01*
X41038748Y-36943350D01*
G37*
G36*
X56278748Y-36943350D02*
G01*
X56390469Y-36977239D01*
X56493427Y-37032271D01*
X56583669Y-37106331D01*
X56657729Y-37196573D01*
X56712761Y-37299531D01*
X56746650Y-37411252D01*
X56758400Y-37530547D01*
X56758400Y-38669453D01*
X56746650Y-38788748D01*
X56712761Y-38900469D01*
X56657729Y-39003427D01*
X56583669Y-39093669D01*
X56493427Y-39167729D01*
X56390469Y-39222761D01*
X56278748Y-39256650D01*
X56159453Y-39268400D01*
X55600547Y-39268400D01*
X55481252Y-39256650D01*
X55369531Y-39222761D01*
X55266573Y-39167729D01*
X55176331Y-39093669D01*
X55102271Y-39003427D01*
X55047239Y-38900469D01*
X55013350Y-38788748D01*
X55001600Y-38669453D01*
X55001600Y-37530547D01*
X55013350Y-37411252D01*
X55047239Y-37299531D01*
X55102271Y-37196573D01*
X55176331Y-37106331D01*
X55266573Y-37032271D01*
X55369531Y-36977239D01*
X55481252Y-36943350D01*
X55600547Y-36931600D01*
X56159453Y-36931600D01*
X56278748Y-36943350D01*
G37*
G36*
X41038748Y-34403350D02*
G01*
X41150469Y-34437239D01*
X41253427Y-34492271D01*
X41343669Y-34566331D01*
X41417729Y-34656573D01*
X41472761Y-34759531D01*
X41506650Y-34871252D01*
X41518400Y-34990547D01*
X41518400Y-36129453D01*
X41506650Y-36248748D01*
X41472761Y-36360469D01*
X41417729Y-36463427D01*
X41343669Y-36553669D01*
X41253427Y-36627729D01*
X41150469Y-36682761D01*
X41038748Y-36716650D01*
X40919453Y-36728400D01*
X40360547Y-36728400D01*
X40241252Y-36716650D01*
X40129531Y-36682761D01*
X40026573Y-36627729D01*
X39936331Y-36553669D01*
X39862271Y-36463427D01*
X39807239Y-36360469D01*
X39773350Y-36248748D01*
X39761600Y-36129453D01*
X39761600Y-34990547D01*
X39773350Y-34871252D01*
X39807239Y-34759531D01*
X39862271Y-34656573D01*
X39936331Y-34566331D01*
X40026573Y-34492271D01*
X40129531Y-34437239D01*
X40241252Y-34403350D01*
X40360547Y-34391600D01*
X40919453Y-34391600D01*
X41038748Y-34403350D01*
G37*
G36*
X56278748Y-34403350D02*
G01*
X56390469Y-34437239D01*
X56493427Y-34492271D01*
X56583669Y-34566331D01*
X56657729Y-34656573D01*
X56712761Y-34759531D01*
X56746650Y-34871252D01*
X56758400Y-34990547D01*
X56758400Y-36129453D01*
X56746650Y-36248748D01*
X56712761Y-36360469D01*
X56657729Y-36463427D01*
X56583669Y-36553669D01*
X56493427Y-36627729D01*
X56390469Y-36682761D01*
X56278748Y-36716650D01*
X56159453Y-36728400D01*
X55600547Y-36728400D01*
X55481252Y-36716650D01*
X55369531Y-36682761D01*
X55266573Y-36627729D01*
X55176331Y-36553669D01*
X55102271Y-36463427D01*
X55047239Y-36360469D01*
X55013350Y-36248748D01*
X55001600Y-36129453D01*
X55001600Y-34990547D01*
X55013350Y-34871252D01*
X55047239Y-34759531D01*
X55102271Y-34656573D01*
X55176331Y-34566331D01*
X55266573Y-34492271D01*
X55369531Y-34437239D01*
X55481252Y-34403350D01*
X55600547Y-34391600D01*
X56159453Y-34391600D01*
X56278748Y-34403350D01*
G37*
G36*
X41038748Y-31863350D02*
G01*
X41150469Y-31897239D01*
X41253427Y-31952271D01*
X41343669Y-32026331D01*
X41417729Y-32116573D01*
X41472761Y-32219531D01*
X41506650Y-32331252D01*
X41518400Y-32450547D01*
X41518400Y-33589453D01*
X41506650Y-33708748D01*
X41472761Y-33820469D01*
X41417729Y-33923427D01*
X41343669Y-34013669D01*
X41253427Y-34087729D01*
X41150469Y-34142761D01*
X41038748Y-34176650D01*
X40919453Y-34188400D01*
X40360547Y-34188400D01*
X40241252Y-34176650D01*
X40129531Y-34142761D01*
X40026573Y-34087729D01*
X39936331Y-34013669D01*
X39862271Y-33923427D01*
X39807239Y-33820469D01*
X39773350Y-33708748D01*
X39761600Y-33589453D01*
X39761600Y-32450547D01*
X39773350Y-32331252D01*
X39807239Y-32219531D01*
X39862271Y-32116573D01*
X39936331Y-32026331D01*
X40026573Y-31952271D01*
X40129531Y-31897239D01*
X40241252Y-31863350D01*
X40360547Y-31851600D01*
X40919453Y-31851600D01*
X41038748Y-31863350D01*
G37*
G36*
X56278748Y-31863350D02*
G01*
X56390469Y-31897239D01*
X56493427Y-31952271D01*
X56583669Y-32026331D01*
X56657729Y-32116573D01*
X56712761Y-32219531D01*
X56746650Y-32331252D01*
X56758400Y-32450547D01*
X56758400Y-33589453D01*
X56746650Y-33708748D01*
X56712761Y-33820469D01*
X56657729Y-33923427D01*
X56583669Y-34013669D01*
X56493427Y-34087729D01*
X56390469Y-34142761D01*
X56278748Y-34176650D01*
X56159453Y-34188400D01*
X55600547Y-34188400D01*
X55481252Y-34176650D01*
X55369531Y-34142761D01*
X55266573Y-34087729D01*
X55176331Y-34013669D01*
X55102271Y-33923427D01*
X55047239Y-33820469D01*
X55013350Y-33708748D01*
X55001600Y-33589453D01*
X55001600Y-32450547D01*
X55013350Y-32331252D01*
X55047239Y-32219531D01*
X55102271Y-32116573D01*
X55176331Y-32026331D01*
X55266573Y-31952271D01*
X55369531Y-31897239D01*
X55481252Y-31863350D01*
X55600547Y-31851600D01*
X56159453Y-31851600D01*
X56278748Y-31863350D01*
G37*
G36*
X56278748Y-29323350D02*
G01*
X56390469Y-29357239D01*
X56493427Y-29412271D01*
X56583669Y-29486331D01*
X56657729Y-29576573D01*
X56712761Y-29679531D01*
X56746650Y-29791252D01*
X56758400Y-29910547D01*
X56758400Y-31049453D01*
X56746650Y-31168748D01*
X56712761Y-31280469D01*
X56657729Y-31383427D01*
X56583669Y-31473669D01*
X56493427Y-31547729D01*
X56390469Y-31602761D01*
X56278748Y-31636650D01*
X56159453Y-31648400D01*
X55600547Y-31648400D01*
X55481252Y-31636650D01*
X55369531Y-31602761D01*
X55266573Y-31547729D01*
X55176331Y-31473669D01*
X55102271Y-31383427D01*
X55047239Y-31280469D01*
X55013350Y-31168748D01*
X55001600Y-31049453D01*
X55001600Y-29910547D01*
X55013350Y-29791252D01*
X55047239Y-29679531D01*
X55102271Y-29576573D01*
X55176331Y-29486331D01*
X55266573Y-29412271D01*
X55369531Y-29357239D01*
X55481252Y-29323350D01*
X55600547Y-29311600D01*
X56159453Y-29311600D01*
X56278748Y-29323350D01*
G37*
G36*
X41038748Y-29323350D02*
G01*
X41150469Y-29357239D01*
X41253427Y-29412271D01*
X41343669Y-29486331D01*
X41417729Y-29576573D01*
X41472761Y-29679531D01*
X41506650Y-29791252D01*
X41518400Y-29910547D01*
X41518400Y-31049453D01*
X41506650Y-31168748D01*
X41472761Y-31280469D01*
X41417729Y-31383427D01*
X41343669Y-31473669D01*
X41253427Y-31547729D01*
X41150469Y-31602761D01*
X41038748Y-31636650D01*
X40919453Y-31648400D01*
X40360547Y-31648400D01*
X40241252Y-31636650D01*
X40129531Y-31602761D01*
X40026573Y-31547729D01*
X39936331Y-31473669D01*
X39862271Y-31383427D01*
X39807239Y-31280469D01*
X39773350Y-31168748D01*
X39761600Y-31049453D01*
X39761600Y-29910547D01*
X39773350Y-29791252D01*
X39807239Y-29679531D01*
X39862271Y-29576573D01*
X39936331Y-29486331D01*
X40026573Y-29412271D01*
X40129531Y-29357239D01*
X40241252Y-29323350D01*
X40360547Y-29311600D01*
X40919453Y-29311600D01*
X41038748Y-29323350D01*
G37*
G36*
X56278748Y-26783350D02*
G01*
X56390469Y-26817239D01*
X56493427Y-26872271D01*
X56583669Y-26946331D01*
X56657729Y-27036573D01*
X56712761Y-27139531D01*
X56746650Y-27251252D01*
X56758400Y-27370547D01*
X56758400Y-28509453D01*
X56746650Y-28628748D01*
X56712761Y-28740469D01*
X56657729Y-28843427D01*
X56583669Y-28933669D01*
X56493427Y-29007729D01*
X56390469Y-29062761D01*
X56278748Y-29096650D01*
X56159453Y-29108400D01*
X55600547Y-29108400D01*
X55481252Y-29096650D01*
X55369531Y-29062761D01*
X55266573Y-29007729D01*
X55176331Y-28933669D01*
X55102271Y-28843427D01*
X55047239Y-28740469D01*
X55013350Y-28628748D01*
X55001600Y-28509453D01*
X55001600Y-27370547D01*
X55013350Y-27251252D01*
X55047239Y-27139531D01*
X55102271Y-27036573D01*
X55176331Y-26946331D01*
X55266573Y-26872271D01*
X55369531Y-26817239D01*
X55481252Y-26783350D01*
X55600547Y-26771600D01*
X56159453Y-26771600D01*
X56278748Y-26783350D01*
G37*
G36*
X41038748Y-26783350D02*
G01*
X41150469Y-26817239D01*
X41253427Y-26872271D01*
X41343669Y-26946331D01*
X41417729Y-27036573D01*
X41472761Y-27139531D01*
X41506650Y-27251252D01*
X41518400Y-27370547D01*
X41518400Y-28509453D01*
X41506650Y-28628748D01*
X41472761Y-28740469D01*
X41417729Y-28843427D01*
X41343669Y-28933669D01*
X41253427Y-29007729D01*
X41150469Y-29062761D01*
X41038748Y-29096650D01*
X40919453Y-29108400D01*
X40360547Y-29108400D01*
X40241252Y-29096650D01*
X40129531Y-29062761D01*
X40026573Y-29007729D01*
X39936331Y-28933669D01*
X39862271Y-28843427D01*
X39807239Y-28740469D01*
X39773350Y-28628748D01*
X39761600Y-28509453D01*
X39761600Y-27370547D01*
X39773350Y-27251252D01*
X39807239Y-27139531D01*
X39862271Y-27036573D01*
X39936331Y-26946331D01*
X40026573Y-26872271D01*
X40129531Y-26817239D01*
X40241252Y-26783350D01*
X40360547Y-26771600D01*
X40919453Y-26771600D01*
X41038748Y-26783350D01*
G37*
G36*
X56278748Y-24243350D02*
G01*
X56390469Y-24277239D01*
X56493427Y-24332271D01*
X56583669Y-24406331D01*
X56657729Y-24496573D01*
X56712761Y-24599531D01*
X56746650Y-24711252D01*
X56758400Y-24830547D01*
X56758400Y-25969453D01*
X56746650Y-26088748D01*
X56712761Y-26200469D01*
X56657729Y-26303427D01*
X56583669Y-26393669D01*
X56493427Y-26467729D01*
X56390469Y-26522761D01*
X56278748Y-26556650D01*
X56159453Y-26568400D01*
X55600547Y-26568400D01*
X55481252Y-26556650D01*
X55369531Y-26522761D01*
X55266573Y-26467729D01*
X55176331Y-26393669D01*
X55102271Y-26303427D01*
X55047239Y-26200469D01*
X55013350Y-26088748D01*
X55001600Y-25969453D01*
X55001600Y-24830547D01*
X55013350Y-24711252D01*
X55047239Y-24599531D01*
X55102271Y-24496573D01*
X55176331Y-24406331D01*
X55266573Y-24332271D01*
X55369531Y-24277239D01*
X55481252Y-24243350D01*
X55600547Y-24231600D01*
X56159453Y-24231600D01*
X56278748Y-24243350D01*
G37*
G36*
X41038748Y-24243350D02*
G01*
X41150469Y-24277239D01*
X41253427Y-24332271D01*
X41343669Y-24406331D01*
X41417729Y-24496573D01*
X41472761Y-24599531D01*
X41506650Y-24711252D01*
X41518400Y-24830547D01*
X41518400Y-25969453D01*
X41506650Y-26088748D01*
X41472761Y-26200469D01*
X41417729Y-26303427D01*
X41343669Y-26393669D01*
X41253427Y-26467729D01*
X41150469Y-26522761D01*
X41038748Y-26556650D01*
X40919453Y-26568400D01*
X40360547Y-26568400D01*
X40241252Y-26556650D01*
X40129531Y-26522761D01*
X40026573Y-26467729D01*
X39936331Y-26393669D01*
X39862271Y-26303427D01*
X39807239Y-26200469D01*
X39773350Y-26088748D01*
X39761600Y-25969453D01*
X39761600Y-24830547D01*
X39773350Y-24711252D01*
X39807239Y-24599531D01*
X39862271Y-24496573D01*
X39936331Y-24406331D01*
X40026573Y-24332271D01*
X40129531Y-24277239D01*
X40241252Y-24243350D01*
X40360547Y-24231600D01*
X40919453Y-24231600D01*
X41038748Y-24243350D01*
G37*
G36*
X41038748Y-21703350D02*
G01*
X41150469Y-21737239D01*
X41253427Y-21792271D01*
X41343669Y-21866331D01*
X41417729Y-21956573D01*
X41472761Y-22059531D01*
X41506650Y-22171252D01*
X41518400Y-22290547D01*
X41518400Y-23429453D01*
X41506650Y-23548748D01*
X41472761Y-23660469D01*
X41417729Y-23763427D01*
X41343669Y-23853669D01*
X41253427Y-23927729D01*
X41150469Y-23982761D01*
X41038748Y-24016650D01*
X40919453Y-24028400D01*
X40360547Y-24028400D01*
X40241252Y-24016650D01*
X40129531Y-23982761D01*
X40026573Y-23927729D01*
X39936331Y-23853669D01*
X39862271Y-23763427D01*
X39807239Y-23660469D01*
X39773350Y-23548748D01*
X39761600Y-23429453D01*
X39761600Y-22290547D01*
X39773350Y-22171252D01*
X39807239Y-22059531D01*
X39862271Y-21956573D01*
X39936331Y-21866331D01*
X40026573Y-21792271D01*
X40129531Y-21737239D01*
X40241252Y-21703350D01*
X40360547Y-21691600D01*
X40919453Y-21691600D01*
X41038748Y-21703350D01*
G37*
G36*
X56278748Y-21703350D02*
G01*
X56390469Y-21737239D01*
X56493427Y-21792271D01*
X56583669Y-21866331D01*
X56657729Y-21956573D01*
X56712761Y-22059531D01*
X56746650Y-22171252D01*
X56758400Y-22290547D01*
X56758400Y-23429453D01*
X56746650Y-23548748D01*
X56712761Y-23660469D01*
X56657729Y-23763427D01*
X56583669Y-23853669D01*
X56493427Y-23927729D01*
X56390469Y-23982761D01*
X56278748Y-24016650D01*
X56159453Y-24028400D01*
X55600547Y-24028400D01*
X55481252Y-24016650D01*
X55369531Y-23982761D01*
X55266573Y-23927729D01*
X55176331Y-23853669D01*
X55102271Y-23763427D01*
X55047239Y-23660469D01*
X55013350Y-23548748D01*
X55001600Y-23429453D01*
X55001600Y-22290547D01*
X55013350Y-22171252D01*
X55047239Y-22059531D01*
X55102271Y-21956573D01*
X55176331Y-21866331D01*
X55266573Y-21792271D01*
X55369531Y-21737239D01*
X55481252Y-21703350D01*
X55600547Y-21691600D01*
X56159453Y-21691600D01*
X56278748Y-21703350D01*
G37*
G36*
X56222404Y-19164695D02*
G01*
X56347257Y-19202568D01*
X56462316Y-19264068D01*
X56563166Y-19346834D01*
X56645932Y-19447684D01*
X56707432Y-19562743D01*
X56745305Y-19687596D01*
X56758400Y-19820547D01*
X56758400Y-20819453D01*
X56745305Y-20952404D01*
X56707432Y-21077257D01*
X56645932Y-21192316D01*
X56563166Y-21293166D01*
X56462316Y-21375932D01*
X56347257Y-21437432D01*
X56222404Y-21475305D01*
X56089453Y-21488400D01*
X55470547Y-21488400D01*
X55337596Y-21475305D01*
X55212743Y-21437432D01*
X55097684Y-21375932D01*
X54996834Y-21293166D01*
X54914068Y-21192316D01*
X54852568Y-21077257D01*
X54814695Y-20952404D01*
X54801600Y-20819453D01*
X54801600Y-19820547D01*
X54814695Y-19687596D01*
X54852568Y-19562743D01*
X54914068Y-19447684D01*
X54996834Y-19346834D01*
X55097684Y-19264068D01*
X55212743Y-19202568D01*
X55337596Y-19164695D01*
X55470547Y-19151600D01*
X56089453Y-19151600D01*
X56222404Y-19164695D01*
G37*
G36*
X41182404Y-19164695D02*
G01*
X41307257Y-19202568D01*
X41422316Y-19264068D01*
X41523166Y-19346834D01*
X41605932Y-19447684D01*
X41667432Y-19562743D01*
X41705305Y-19687596D01*
X41718400Y-19820547D01*
X41718400Y-20819453D01*
X41705305Y-20952404D01*
X41667432Y-21077257D01*
X41605932Y-21192316D01*
X41523166Y-21293166D01*
X41422316Y-21375932D01*
X41307257Y-21437432D01*
X41182404Y-21475305D01*
X41049453Y-21488400D01*
X40430547Y-21488400D01*
X40297596Y-21475305D01*
X40172743Y-21437432D01*
X40057684Y-21375932D01*
X39956834Y-21293166D01*
X39874068Y-21192316D01*
X39812568Y-21077257D01*
X39774695Y-20952404D01*
X39761600Y-20819453D01*
X39761600Y-19820547D01*
X39774695Y-19687596D01*
X39812568Y-19562743D01*
X39874068Y-19447684D01*
X39956834Y-19346834D01*
X40057684Y-19264068D01*
X40172743Y-19202568D01*
X40297596Y-19164695D01*
X40430547Y-19151600D01*
X41049453Y-19151600D01*
X41182404Y-19164695D01*
G37*
M02*
