G04 #@! TF.GenerationSoftware,KiCad,Pcbnew,7.0.1-0*
G04 #@! TF.CreationDate,2023-12-28T18:54:55-05:00*
G04 #@! TF.ProjectId,GW28R8128,47573238-5238-4313-9238-2e6b69636164,rev?*
G04 #@! TF.SameCoordinates,Original*
G04 #@! TF.FileFunction,Soldermask,Top*
G04 #@! TF.FilePolarity,Negative*
%FSLAX46Y46*%
G04 Gerber Fmt 4.6, Leading zero omitted, Abs format (unit mm)*
G04 Created by KiCad (PCBNEW 7.0.1-0) date 2023-12-28 18:54:55*
%MOMM*%
%LPD*%
G01*
G04 APERTURE LIST*
G04 Aperture macros list*
%AMRoundRect*
0 Rectangle with rounded corners*
0 $1 Rounding radius*
0 $2 $3 $4 $5 $6 $7 $8 $9 X,Y pos of 4 corners*
0 Add a 4 corners polygon primitive as box body*
4,1,4,$2,$3,$4,$5,$6,$7,$8,$9,$2,$3,0*
0 Add four circle primitives for the rounded corners*
1,1,$1+$1,$2,$3*
1,1,$1+$1,$4,$5*
1,1,$1+$1,$6,$7*
1,1,$1+$1,$8,$9*
0 Add four rect primitives between the rounded corners*
20,1,$1+$1,$2,$3,$4,$5,0*
20,1,$1+$1,$4,$5,$6,$7,0*
20,1,$1+$1,$6,$7,$8,$9,0*
20,1,$1+$1,$8,$9,$2,$3,0*%
G04 Aperture macros list end*
%ADD10RoundRect,0.200000X-0.150000X-0.587500X0.150000X-0.587500X0.150000X0.587500X-0.150000X0.587500X0*%
%ADD11RoundRect,0.200000X-0.587500X-0.150000X0.587500X-0.150000X0.587500X0.150000X-0.587500X0.150000X0*%
%ADD12RoundRect,0.312500X-0.437500X0.262500X-0.437500X-0.262500X0.437500X-0.262500X0.437500X0.262500X0*%
%ADD13RoundRect,0.262500X0.212500X0.487500X-0.212500X0.487500X-0.212500X-0.487500X0.212500X-0.487500X0*%
%ADD14RoundRect,0.262500X-0.212500X-0.487500X0.212500X-0.487500X0.212500X0.487500X-0.212500X0.487500X0*%
%ADD15RoundRect,0.645000X-0.255000X-0.545000X0.255000X-0.545000X0.255000X0.545000X-0.255000X0.545000X0*%
%ADD16RoundRect,0.275000X-0.625000X-0.225000X0.625000X-0.225000X0.625000X0.225000X-0.625000X0.225000X0*%
%ADD17RoundRect,0.350000X0.300000X1.100000X-0.300000X1.100000X-0.300000X-1.100000X0.300000X-1.100000X0*%
%ADD18RoundRect,0.365000X0.735000X0.935000X-0.735000X0.935000X-0.735000X-0.935000X0.735000X-0.935000X0*%
%ADD19RoundRect,0.312500X-0.262500X-0.437500X0.262500X-0.437500X0.262500X0.437500X-0.262500X0.437500X0*%
G04 APERTURE END LIST*
D10*
X48260000Y-29992500D03*
X46990000Y-29992500D03*
X45720000Y-29992500D03*
X44450000Y-29992500D03*
D11*
X42697500Y-31750000D03*
X42697500Y-33020000D03*
X42697500Y-34290000D03*
X42697500Y-35560000D03*
X42697500Y-36830000D03*
X42697500Y-38100000D03*
X42697500Y-39370000D03*
X42697500Y-40640000D03*
X42697500Y-41910000D03*
D10*
X44450000Y-43667500D03*
X45720000Y-43667500D03*
X46990000Y-43667500D03*
X48260000Y-43667500D03*
X49530000Y-43667500D03*
X50800000Y-43667500D03*
X52070000Y-43667500D03*
D11*
X53822500Y-41910000D03*
X53822500Y-40640000D03*
X53822500Y-39370000D03*
X53822500Y-38100000D03*
X53822500Y-36830000D03*
X53822500Y-35560000D03*
X53822500Y-34290000D03*
X53822500Y-33020000D03*
X53822500Y-31750000D03*
D10*
X52070000Y-29992500D03*
X50800000Y-29992500D03*
X49530000Y-29992500D03*
D12*
X53213000Y-20320000D03*
X53213000Y-22020000D03*
D13*
X47940000Y-48895000D03*
X46040000Y-48895000D03*
D14*
X50355500Y-24892000D03*
X52255500Y-24892000D03*
D15*
X40640000Y-20320000D03*
X40640000Y-22860000D03*
X40640000Y-25400000D03*
X40640000Y-27940000D03*
X40640000Y-30480000D03*
X40640000Y-33020000D03*
X40640000Y-35560000D03*
X40640000Y-38100000D03*
X40640000Y-40640000D03*
X40640000Y-43180000D03*
X40640000Y-45720000D03*
X40640000Y-48260000D03*
X40640000Y-50800000D03*
X40640000Y-53340000D03*
X55880000Y-53340000D03*
X55880000Y-50800000D03*
X55880000Y-48260000D03*
X55880000Y-45720000D03*
X55880000Y-43180000D03*
X55880000Y-40640000D03*
X55880000Y-38100000D03*
X55880000Y-35560000D03*
X55880000Y-33020000D03*
X55880000Y-30480000D03*
X55880000Y-27940000D03*
X55880000Y-25400000D03*
X55880000Y-22860000D03*
X55880000Y-20320000D03*
D16*
X49784000Y-51943000D03*
X46736000Y-51943000D03*
D17*
X49760000Y-22161500D03*
X46760000Y-22161500D03*
D18*
X47879000Y-26543000D03*
X43879000Y-26543000D03*
D19*
X50394500Y-27241500D03*
X52094500Y-27241500D03*
M02*
