G04 #@! TF.GenerationSoftware,KiCad,Pcbnew,(5.1.2-1)-1*
G04 #@! TF.CreationDate,2019-07-23T15:32:14-04:00*
G04 #@! TF.ProjectId,GW28R8128,47573238-5238-4313-9238-2e6b69636164,rev?*
G04 #@! TF.SameCoordinates,Original*
G04 #@! TF.FileFunction,Soldermask,Bot*
G04 #@! TF.FilePolarity,Negative*
%FSLAX46Y46*%
G04 Gerber Fmt 4.6, Leading zero omitted, Abs format (unit mm)*
G04 Created by KiCad (PCBNEW (5.1.2-1)-1) date 2019-07-23 15:32:14*
%MOMM*%
%LPD*%
G04 APERTURE LIST*
%ADD10C,0.100000*%
G04 APERTURE END LIST*
D10*
G36*
X56023297Y-52373179D02*
G01*
X56164750Y-52401315D01*
X56342405Y-52474902D01*
X56502287Y-52581732D01*
X56638268Y-52717713D01*
X56745098Y-52877595D01*
X56818685Y-53055250D01*
X56856200Y-53243854D01*
X56856200Y-53436146D01*
X56818685Y-53624750D01*
X56745098Y-53802405D01*
X56638268Y-53962287D01*
X56502287Y-54098268D01*
X56342405Y-54205098D01*
X56164750Y-54278685D01*
X56047158Y-54302075D01*
X55976147Y-54316200D01*
X55783853Y-54316200D01*
X55712842Y-54302075D01*
X55595250Y-54278685D01*
X55417595Y-54205098D01*
X55257713Y-54098268D01*
X55121732Y-53962287D01*
X55014902Y-53802405D01*
X54941315Y-53624750D01*
X54903800Y-53436146D01*
X54903800Y-53243854D01*
X54941315Y-53055250D01*
X55014902Y-52877595D01*
X55121732Y-52717713D01*
X55257713Y-52581732D01*
X55417595Y-52474902D01*
X55595250Y-52401315D01*
X55736703Y-52373179D01*
X55783853Y-52363800D01*
X55976147Y-52363800D01*
X56023297Y-52373179D01*
X56023297Y-52373179D01*
G37*
G36*
X40831369Y-52377925D02*
G01*
X41015383Y-52433745D01*
X41184972Y-52524392D01*
X41333617Y-52646383D01*
X41455608Y-52795028D01*
X41546255Y-52964617D01*
X41602075Y-53148631D01*
X41620923Y-53340000D01*
X41602075Y-53531369D01*
X41546255Y-53715383D01*
X41455608Y-53884972D01*
X41333617Y-54033617D01*
X41184972Y-54155608D01*
X41015383Y-54246255D01*
X40831369Y-54302075D01*
X40687954Y-54316200D01*
X40592046Y-54316200D01*
X40448631Y-54302075D01*
X40264617Y-54246255D01*
X40095028Y-54155608D01*
X39946383Y-54033617D01*
X39824392Y-53884972D01*
X39733745Y-53715383D01*
X39677925Y-53531369D01*
X39659077Y-53340000D01*
X39677925Y-53148631D01*
X39733745Y-52964617D01*
X39824392Y-52795028D01*
X39946383Y-52646383D01*
X40095028Y-52524392D01*
X40264617Y-52433745D01*
X40448631Y-52377925D01*
X40592046Y-52363800D01*
X40687954Y-52363800D01*
X40831369Y-52377925D01*
X40831369Y-52377925D01*
G37*
G36*
X56061567Y-49887202D02*
G01*
X56236156Y-49940163D01*
X56236159Y-49940164D01*
X56316608Y-49983165D01*
X56397059Y-50026167D01*
X56538091Y-50141909D01*
X56653833Y-50282941D01*
X56696835Y-50363392D01*
X56739836Y-50443841D01*
X56739837Y-50443844D01*
X56792798Y-50618433D01*
X56810681Y-50800000D01*
X56792798Y-50981567D01*
X56739837Y-51156156D01*
X56739836Y-51156159D01*
X56696835Y-51236607D01*
X56653833Y-51317059D01*
X56538091Y-51458091D01*
X56397059Y-51573833D01*
X56316607Y-51616835D01*
X56236159Y-51659836D01*
X56236156Y-51659837D01*
X56061567Y-51712798D01*
X55925496Y-51726200D01*
X55834504Y-51726200D01*
X55698433Y-51712798D01*
X55523844Y-51659837D01*
X55523841Y-51659836D01*
X55443392Y-51616835D01*
X55362941Y-51573833D01*
X55221909Y-51458091D01*
X55106167Y-51317059D01*
X55063165Y-51236608D01*
X55020164Y-51156159D01*
X55020163Y-51156156D01*
X54967202Y-50981567D01*
X54949319Y-50800000D01*
X54967202Y-50618433D01*
X55020163Y-50443844D01*
X55020164Y-50443841D01*
X55063165Y-50363393D01*
X55106167Y-50282941D01*
X55221909Y-50141909D01*
X55362941Y-50026167D01*
X55443393Y-49983165D01*
X55523841Y-49940164D01*
X55523844Y-49940163D01*
X55698433Y-49887202D01*
X55834504Y-49873800D01*
X55925496Y-49873800D01*
X56061567Y-49887202D01*
X56061567Y-49887202D01*
G37*
G36*
X40821567Y-49887202D02*
G01*
X40996156Y-49940163D01*
X40996159Y-49940164D01*
X41076608Y-49983165D01*
X41157059Y-50026167D01*
X41298091Y-50141909D01*
X41413833Y-50282941D01*
X41456835Y-50363392D01*
X41499836Y-50443841D01*
X41499837Y-50443844D01*
X41552798Y-50618433D01*
X41570681Y-50800000D01*
X41552798Y-50981567D01*
X41499837Y-51156156D01*
X41499836Y-51156159D01*
X41456835Y-51236607D01*
X41413833Y-51317059D01*
X41298091Y-51458091D01*
X41157059Y-51573833D01*
X41076607Y-51616835D01*
X40996159Y-51659836D01*
X40996156Y-51659837D01*
X40821567Y-51712798D01*
X40685496Y-51726200D01*
X40594504Y-51726200D01*
X40458433Y-51712798D01*
X40283844Y-51659837D01*
X40283841Y-51659836D01*
X40203392Y-51616835D01*
X40122941Y-51573833D01*
X39981909Y-51458091D01*
X39866167Y-51317059D01*
X39823165Y-51236608D01*
X39780164Y-51156159D01*
X39780163Y-51156156D01*
X39727202Y-50981567D01*
X39709319Y-50800000D01*
X39727202Y-50618433D01*
X39780163Y-50443844D01*
X39780164Y-50443841D01*
X39823165Y-50363392D01*
X39866167Y-50282941D01*
X39981909Y-50141909D01*
X40122941Y-50026167D01*
X40203392Y-49983165D01*
X40283841Y-49940164D01*
X40283844Y-49940163D01*
X40458433Y-49887202D01*
X40594504Y-49873800D01*
X40685496Y-49873800D01*
X40821567Y-49887202D01*
X40821567Y-49887202D01*
G37*
G36*
X56061567Y-47347202D02*
G01*
X56236156Y-47400163D01*
X56236159Y-47400164D01*
X56316608Y-47443165D01*
X56397059Y-47486167D01*
X56538091Y-47601909D01*
X56653833Y-47742941D01*
X56696835Y-47823392D01*
X56739836Y-47903841D01*
X56739837Y-47903844D01*
X56792798Y-48078433D01*
X56810681Y-48260000D01*
X56792798Y-48441567D01*
X56739837Y-48616156D01*
X56739836Y-48616159D01*
X56696835Y-48696608D01*
X56653833Y-48777059D01*
X56538091Y-48918091D01*
X56397059Y-49033833D01*
X56316607Y-49076835D01*
X56236159Y-49119836D01*
X56236156Y-49119837D01*
X56061567Y-49172798D01*
X55925496Y-49186200D01*
X55834504Y-49186200D01*
X55698433Y-49172798D01*
X55523844Y-49119837D01*
X55523841Y-49119836D01*
X55443393Y-49076835D01*
X55362941Y-49033833D01*
X55221909Y-48918091D01*
X55106167Y-48777059D01*
X55063165Y-48696608D01*
X55020164Y-48616159D01*
X55020163Y-48616156D01*
X54967202Y-48441567D01*
X54949319Y-48260000D01*
X54967202Y-48078433D01*
X55020163Y-47903844D01*
X55020164Y-47903841D01*
X55063165Y-47823393D01*
X55106167Y-47742941D01*
X55221909Y-47601909D01*
X55362941Y-47486167D01*
X55443392Y-47443165D01*
X55523841Y-47400164D01*
X55523844Y-47400163D01*
X55698433Y-47347202D01*
X55834504Y-47333800D01*
X55925496Y-47333800D01*
X56061567Y-47347202D01*
X56061567Y-47347202D01*
G37*
G36*
X40821567Y-47347202D02*
G01*
X40996156Y-47400163D01*
X40996159Y-47400164D01*
X41076608Y-47443165D01*
X41157059Y-47486167D01*
X41298091Y-47601909D01*
X41413833Y-47742941D01*
X41456835Y-47823392D01*
X41499836Y-47903841D01*
X41499837Y-47903844D01*
X41552798Y-48078433D01*
X41570681Y-48260000D01*
X41552798Y-48441567D01*
X41499837Y-48616156D01*
X41499836Y-48616159D01*
X41456835Y-48696608D01*
X41413833Y-48777059D01*
X41298091Y-48918091D01*
X41157059Y-49033833D01*
X41076607Y-49076835D01*
X40996159Y-49119836D01*
X40996156Y-49119837D01*
X40821567Y-49172798D01*
X40685496Y-49186200D01*
X40594504Y-49186200D01*
X40458433Y-49172798D01*
X40283844Y-49119837D01*
X40283841Y-49119836D01*
X40203393Y-49076835D01*
X40122941Y-49033833D01*
X39981909Y-48918091D01*
X39866167Y-48777059D01*
X39823165Y-48696608D01*
X39780164Y-48616159D01*
X39780163Y-48616156D01*
X39727202Y-48441567D01*
X39709319Y-48260000D01*
X39727202Y-48078433D01*
X39780163Y-47903844D01*
X39780164Y-47903841D01*
X39823165Y-47823393D01*
X39866167Y-47742941D01*
X39981909Y-47601909D01*
X40122941Y-47486167D01*
X40203392Y-47443165D01*
X40283841Y-47400164D01*
X40283844Y-47400163D01*
X40458433Y-47347202D01*
X40594504Y-47333800D01*
X40685496Y-47333800D01*
X40821567Y-47347202D01*
X40821567Y-47347202D01*
G37*
G36*
X40821567Y-44807202D02*
G01*
X40996156Y-44860163D01*
X40996159Y-44860164D01*
X41076607Y-44903165D01*
X41157059Y-44946167D01*
X41298091Y-45061909D01*
X41413833Y-45202941D01*
X41456835Y-45283392D01*
X41499836Y-45363841D01*
X41499837Y-45363844D01*
X41552798Y-45538433D01*
X41570681Y-45720000D01*
X41552798Y-45901567D01*
X41499837Y-46076156D01*
X41499836Y-46076159D01*
X41456835Y-46156608D01*
X41413833Y-46237059D01*
X41298091Y-46378091D01*
X41157059Y-46493833D01*
X41076608Y-46536835D01*
X40996159Y-46579836D01*
X40996156Y-46579837D01*
X40821567Y-46632798D01*
X40685496Y-46646200D01*
X40594504Y-46646200D01*
X40458433Y-46632798D01*
X40283844Y-46579837D01*
X40283841Y-46579836D01*
X40203392Y-46536835D01*
X40122941Y-46493833D01*
X39981909Y-46378091D01*
X39866167Y-46237059D01*
X39823165Y-46156607D01*
X39780164Y-46076159D01*
X39780163Y-46076156D01*
X39727202Y-45901567D01*
X39709319Y-45720000D01*
X39727202Y-45538433D01*
X39780163Y-45363844D01*
X39780164Y-45363841D01*
X39823165Y-45283392D01*
X39866167Y-45202941D01*
X39981909Y-45061909D01*
X40122941Y-44946167D01*
X40203393Y-44903165D01*
X40283841Y-44860164D01*
X40283844Y-44860163D01*
X40458433Y-44807202D01*
X40594504Y-44793800D01*
X40685496Y-44793800D01*
X40821567Y-44807202D01*
X40821567Y-44807202D01*
G37*
G36*
X56061567Y-44807202D02*
G01*
X56236156Y-44860163D01*
X56236159Y-44860164D01*
X56316607Y-44903165D01*
X56397059Y-44946167D01*
X56538091Y-45061909D01*
X56653833Y-45202941D01*
X56696835Y-45283392D01*
X56739836Y-45363841D01*
X56739837Y-45363844D01*
X56792798Y-45538433D01*
X56810681Y-45720000D01*
X56792798Y-45901567D01*
X56739837Y-46076156D01*
X56739836Y-46076159D01*
X56696835Y-46156607D01*
X56653833Y-46237059D01*
X56538091Y-46378091D01*
X56397059Y-46493833D01*
X56316608Y-46536835D01*
X56236159Y-46579836D01*
X56236156Y-46579837D01*
X56061567Y-46632798D01*
X55925496Y-46646200D01*
X55834504Y-46646200D01*
X55698433Y-46632798D01*
X55523844Y-46579837D01*
X55523841Y-46579836D01*
X55443392Y-46536835D01*
X55362941Y-46493833D01*
X55221909Y-46378091D01*
X55106167Y-46237059D01*
X55063165Y-46156607D01*
X55020164Y-46076159D01*
X55020163Y-46076156D01*
X54967202Y-45901567D01*
X54949319Y-45720000D01*
X54967202Y-45538433D01*
X55020163Y-45363844D01*
X55020164Y-45363841D01*
X55063165Y-45283393D01*
X55106167Y-45202941D01*
X55221909Y-45061909D01*
X55362941Y-44946167D01*
X55443392Y-44903165D01*
X55523841Y-44860164D01*
X55523844Y-44860163D01*
X55698433Y-44807202D01*
X55834504Y-44793800D01*
X55925496Y-44793800D01*
X56061567Y-44807202D01*
X56061567Y-44807202D01*
G37*
G36*
X40821567Y-42267202D02*
G01*
X40996156Y-42320163D01*
X40996159Y-42320164D01*
X41076608Y-42363165D01*
X41157059Y-42406167D01*
X41298091Y-42521909D01*
X41413833Y-42662941D01*
X41456835Y-42743392D01*
X41499836Y-42823841D01*
X41499837Y-42823844D01*
X41552798Y-42998433D01*
X41570681Y-43180000D01*
X41552798Y-43361567D01*
X41499837Y-43536156D01*
X41499836Y-43536159D01*
X41456835Y-43616608D01*
X41413833Y-43697059D01*
X41298091Y-43838091D01*
X41157059Y-43953833D01*
X41076607Y-43996835D01*
X40996159Y-44039836D01*
X40996156Y-44039837D01*
X40821567Y-44092798D01*
X40685496Y-44106200D01*
X40594504Y-44106200D01*
X40458433Y-44092798D01*
X40283844Y-44039837D01*
X40283841Y-44039836D01*
X40203393Y-43996835D01*
X40122941Y-43953833D01*
X39981909Y-43838091D01*
X39866167Y-43697059D01*
X39823165Y-43616607D01*
X39780164Y-43536159D01*
X39780163Y-43536156D01*
X39727202Y-43361567D01*
X39709319Y-43180000D01*
X39727202Y-42998433D01*
X39780163Y-42823844D01*
X39780164Y-42823841D01*
X39823165Y-42743392D01*
X39866167Y-42662941D01*
X39981909Y-42521909D01*
X40122941Y-42406167D01*
X40203392Y-42363165D01*
X40283841Y-42320164D01*
X40283844Y-42320163D01*
X40458433Y-42267202D01*
X40594504Y-42253800D01*
X40685496Y-42253800D01*
X40821567Y-42267202D01*
X40821567Y-42267202D01*
G37*
G36*
X56061567Y-42267202D02*
G01*
X56236156Y-42320163D01*
X56236159Y-42320164D01*
X56316608Y-42363165D01*
X56397059Y-42406167D01*
X56538091Y-42521909D01*
X56653833Y-42662941D01*
X56696835Y-42743392D01*
X56739836Y-42823841D01*
X56739837Y-42823844D01*
X56792798Y-42998433D01*
X56810681Y-43180000D01*
X56792798Y-43361567D01*
X56739837Y-43536156D01*
X56739836Y-43536159D01*
X56696835Y-43616608D01*
X56653833Y-43697059D01*
X56538091Y-43838091D01*
X56397059Y-43953833D01*
X56316607Y-43996835D01*
X56236159Y-44039836D01*
X56236156Y-44039837D01*
X56061567Y-44092798D01*
X55925496Y-44106200D01*
X55834504Y-44106200D01*
X55698433Y-44092798D01*
X55523844Y-44039837D01*
X55523841Y-44039836D01*
X55443393Y-43996835D01*
X55362941Y-43953833D01*
X55221909Y-43838091D01*
X55106167Y-43697059D01*
X55063165Y-43616607D01*
X55020164Y-43536159D01*
X55020163Y-43536156D01*
X54967202Y-43361567D01*
X54949319Y-43180000D01*
X54967202Y-42998433D01*
X55020163Y-42823844D01*
X55020164Y-42823841D01*
X55063165Y-42743392D01*
X55106167Y-42662941D01*
X55221909Y-42521909D01*
X55362941Y-42406167D01*
X55443393Y-42363165D01*
X55523841Y-42320164D01*
X55523844Y-42320163D01*
X55698433Y-42267202D01*
X55834504Y-42253800D01*
X55925496Y-42253800D01*
X56061567Y-42267202D01*
X56061567Y-42267202D01*
G37*
G36*
X56061567Y-39727202D02*
G01*
X56236156Y-39780163D01*
X56236159Y-39780164D01*
X56316607Y-39823165D01*
X56397059Y-39866167D01*
X56538091Y-39981909D01*
X56653833Y-40122941D01*
X56696835Y-40203393D01*
X56739836Y-40283841D01*
X56739837Y-40283844D01*
X56792798Y-40458433D01*
X56810681Y-40640000D01*
X56792798Y-40821567D01*
X56739837Y-40996156D01*
X56739836Y-40996159D01*
X56696835Y-41076607D01*
X56653833Y-41157059D01*
X56538091Y-41298091D01*
X56397059Y-41413833D01*
X56316607Y-41456835D01*
X56236159Y-41499836D01*
X56236156Y-41499837D01*
X56061567Y-41552798D01*
X55925496Y-41566200D01*
X55834504Y-41566200D01*
X55698433Y-41552798D01*
X55523844Y-41499837D01*
X55523841Y-41499836D01*
X55443393Y-41456835D01*
X55362941Y-41413833D01*
X55221909Y-41298091D01*
X55106167Y-41157059D01*
X55063165Y-41076608D01*
X55020164Y-40996159D01*
X55020163Y-40996156D01*
X54967202Y-40821567D01*
X54949319Y-40640000D01*
X54967202Y-40458433D01*
X55020163Y-40283844D01*
X55020164Y-40283841D01*
X55063165Y-40203392D01*
X55106167Y-40122941D01*
X55221909Y-39981909D01*
X55362941Y-39866167D01*
X55443393Y-39823165D01*
X55523841Y-39780164D01*
X55523844Y-39780163D01*
X55698433Y-39727202D01*
X55834504Y-39713800D01*
X55925496Y-39713800D01*
X56061567Y-39727202D01*
X56061567Y-39727202D01*
G37*
G36*
X40821567Y-39727202D02*
G01*
X40996156Y-39780163D01*
X40996159Y-39780164D01*
X41076607Y-39823165D01*
X41157059Y-39866167D01*
X41298091Y-39981909D01*
X41413833Y-40122941D01*
X41456835Y-40203393D01*
X41499836Y-40283841D01*
X41499837Y-40283844D01*
X41552798Y-40458433D01*
X41570681Y-40640000D01*
X41552798Y-40821567D01*
X41499837Y-40996156D01*
X41499836Y-40996159D01*
X41456835Y-41076607D01*
X41413833Y-41157059D01*
X41298091Y-41298091D01*
X41157059Y-41413833D01*
X41076607Y-41456835D01*
X40996159Y-41499836D01*
X40996156Y-41499837D01*
X40821567Y-41552798D01*
X40685496Y-41566200D01*
X40594504Y-41566200D01*
X40458433Y-41552798D01*
X40283844Y-41499837D01*
X40283841Y-41499836D01*
X40203393Y-41456835D01*
X40122941Y-41413833D01*
X39981909Y-41298091D01*
X39866167Y-41157059D01*
X39823165Y-41076608D01*
X39780164Y-40996159D01*
X39780163Y-40996156D01*
X39727202Y-40821567D01*
X39709319Y-40640000D01*
X39727202Y-40458433D01*
X39780163Y-40283844D01*
X39780164Y-40283841D01*
X39823165Y-40203393D01*
X39866167Y-40122941D01*
X39981909Y-39981909D01*
X40122941Y-39866167D01*
X40203393Y-39823165D01*
X40283841Y-39780164D01*
X40283844Y-39780163D01*
X40458433Y-39727202D01*
X40594504Y-39713800D01*
X40685496Y-39713800D01*
X40821567Y-39727202D01*
X40821567Y-39727202D01*
G37*
G36*
X56061567Y-37187202D02*
G01*
X56236156Y-37240163D01*
X56236159Y-37240164D01*
X56316608Y-37283165D01*
X56397059Y-37326167D01*
X56538091Y-37441909D01*
X56653833Y-37582941D01*
X56696835Y-37663393D01*
X56739836Y-37743841D01*
X56739837Y-37743844D01*
X56792798Y-37918433D01*
X56810681Y-38100000D01*
X56792798Y-38281567D01*
X56739837Y-38456156D01*
X56739836Y-38456159D01*
X56696835Y-38536607D01*
X56653833Y-38617059D01*
X56538091Y-38758091D01*
X56397059Y-38873833D01*
X56316608Y-38916835D01*
X56236159Y-38959836D01*
X56236156Y-38959837D01*
X56061567Y-39012798D01*
X55925496Y-39026200D01*
X55834504Y-39026200D01*
X55698433Y-39012798D01*
X55523844Y-38959837D01*
X55523841Y-38959836D01*
X55443392Y-38916835D01*
X55362941Y-38873833D01*
X55221909Y-38758091D01*
X55106167Y-38617059D01*
X55063165Y-38536607D01*
X55020164Y-38456159D01*
X55020163Y-38456156D01*
X54967202Y-38281567D01*
X54949319Y-38100000D01*
X54967202Y-37918433D01*
X55020163Y-37743844D01*
X55020164Y-37743841D01*
X55063165Y-37663393D01*
X55106167Y-37582941D01*
X55221909Y-37441909D01*
X55362941Y-37326167D01*
X55443392Y-37283165D01*
X55523841Y-37240164D01*
X55523844Y-37240163D01*
X55698433Y-37187202D01*
X55834504Y-37173800D01*
X55925496Y-37173800D01*
X56061567Y-37187202D01*
X56061567Y-37187202D01*
G37*
G36*
X40821567Y-37187202D02*
G01*
X40996156Y-37240163D01*
X40996159Y-37240164D01*
X41076608Y-37283165D01*
X41157059Y-37326167D01*
X41298091Y-37441909D01*
X41413833Y-37582941D01*
X41456835Y-37663393D01*
X41499836Y-37743841D01*
X41499837Y-37743844D01*
X41552798Y-37918433D01*
X41570681Y-38100000D01*
X41552798Y-38281567D01*
X41499837Y-38456156D01*
X41499836Y-38456159D01*
X41456835Y-38536607D01*
X41413833Y-38617059D01*
X41298091Y-38758091D01*
X41157059Y-38873833D01*
X41076608Y-38916835D01*
X40996159Y-38959836D01*
X40996156Y-38959837D01*
X40821567Y-39012798D01*
X40685496Y-39026200D01*
X40594504Y-39026200D01*
X40458433Y-39012798D01*
X40283844Y-38959837D01*
X40283841Y-38959836D01*
X40203392Y-38916835D01*
X40122941Y-38873833D01*
X39981909Y-38758091D01*
X39866167Y-38617059D01*
X39823165Y-38536608D01*
X39780164Y-38456159D01*
X39780163Y-38456156D01*
X39727202Y-38281567D01*
X39709319Y-38100000D01*
X39727202Y-37918433D01*
X39780163Y-37743844D01*
X39780164Y-37743841D01*
X39823165Y-37663393D01*
X39866167Y-37582941D01*
X39981909Y-37441909D01*
X40122941Y-37326167D01*
X40203392Y-37283165D01*
X40283841Y-37240164D01*
X40283844Y-37240163D01*
X40458433Y-37187202D01*
X40594504Y-37173800D01*
X40685496Y-37173800D01*
X40821567Y-37187202D01*
X40821567Y-37187202D01*
G37*
G36*
X40821567Y-34647202D02*
G01*
X40996156Y-34700163D01*
X40996159Y-34700164D01*
X41076608Y-34743165D01*
X41157059Y-34786167D01*
X41298091Y-34901909D01*
X41413833Y-35042941D01*
X41456835Y-35123392D01*
X41499836Y-35203841D01*
X41499837Y-35203844D01*
X41552798Y-35378433D01*
X41570681Y-35560000D01*
X41552798Y-35741567D01*
X41499837Y-35916156D01*
X41499836Y-35916159D01*
X41456835Y-35996608D01*
X41413833Y-36077059D01*
X41298091Y-36218091D01*
X41157059Y-36333833D01*
X41076607Y-36376835D01*
X40996159Y-36419836D01*
X40996156Y-36419837D01*
X40821567Y-36472798D01*
X40685496Y-36486200D01*
X40594504Y-36486200D01*
X40458433Y-36472798D01*
X40283844Y-36419837D01*
X40283841Y-36419836D01*
X40203393Y-36376835D01*
X40122941Y-36333833D01*
X39981909Y-36218091D01*
X39866167Y-36077059D01*
X39823165Y-35996608D01*
X39780164Y-35916159D01*
X39780163Y-35916156D01*
X39727202Y-35741567D01*
X39709319Y-35560000D01*
X39727202Y-35378433D01*
X39780163Y-35203844D01*
X39780164Y-35203841D01*
X39823165Y-35123393D01*
X39866167Y-35042941D01*
X39981909Y-34901909D01*
X40122941Y-34786167D01*
X40203392Y-34743165D01*
X40283841Y-34700164D01*
X40283844Y-34700163D01*
X40458433Y-34647202D01*
X40594504Y-34633800D01*
X40685496Y-34633800D01*
X40821567Y-34647202D01*
X40821567Y-34647202D01*
G37*
G36*
X56061567Y-34647202D02*
G01*
X56236156Y-34700163D01*
X56236159Y-34700164D01*
X56316608Y-34743165D01*
X56397059Y-34786167D01*
X56538091Y-34901909D01*
X56653833Y-35042941D01*
X56696835Y-35123393D01*
X56739836Y-35203841D01*
X56739837Y-35203844D01*
X56792798Y-35378433D01*
X56810681Y-35560000D01*
X56792798Y-35741567D01*
X56739837Y-35916156D01*
X56739836Y-35916159D01*
X56696835Y-35996608D01*
X56653833Y-36077059D01*
X56538091Y-36218091D01*
X56397059Y-36333833D01*
X56316607Y-36376835D01*
X56236159Y-36419836D01*
X56236156Y-36419837D01*
X56061567Y-36472798D01*
X55925496Y-36486200D01*
X55834504Y-36486200D01*
X55698433Y-36472798D01*
X55523844Y-36419837D01*
X55523841Y-36419836D01*
X55443393Y-36376835D01*
X55362941Y-36333833D01*
X55221909Y-36218091D01*
X55106167Y-36077059D01*
X55063165Y-35996608D01*
X55020164Y-35916159D01*
X55020163Y-35916156D01*
X54967202Y-35741567D01*
X54949319Y-35560000D01*
X54967202Y-35378433D01*
X55020163Y-35203844D01*
X55020164Y-35203841D01*
X55063165Y-35123392D01*
X55106167Y-35042941D01*
X55221909Y-34901909D01*
X55362941Y-34786167D01*
X55443392Y-34743165D01*
X55523841Y-34700164D01*
X55523844Y-34700163D01*
X55698433Y-34647202D01*
X55834504Y-34633800D01*
X55925496Y-34633800D01*
X56061567Y-34647202D01*
X56061567Y-34647202D01*
G37*
G36*
X40821567Y-32107202D02*
G01*
X40996156Y-32160163D01*
X40996159Y-32160164D01*
X41076607Y-32203165D01*
X41157059Y-32246167D01*
X41298091Y-32361909D01*
X41413833Y-32502941D01*
X41456835Y-32583392D01*
X41499836Y-32663841D01*
X41499837Y-32663844D01*
X41552798Y-32838433D01*
X41570681Y-33020000D01*
X41552798Y-33201567D01*
X41499837Y-33376156D01*
X41499836Y-33376159D01*
X41456835Y-33456607D01*
X41413833Y-33537059D01*
X41298091Y-33678091D01*
X41157059Y-33793833D01*
X41076607Y-33836835D01*
X40996159Y-33879836D01*
X40996156Y-33879837D01*
X40821567Y-33932798D01*
X40685496Y-33946200D01*
X40594504Y-33946200D01*
X40458433Y-33932798D01*
X40283844Y-33879837D01*
X40283841Y-33879836D01*
X40203393Y-33836835D01*
X40122941Y-33793833D01*
X39981909Y-33678091D01*
X39866167Y-33537059D01*
X39823165Y-33456607D01*
X39780164Y-33376159D01*
X39780163Y-33376156D01*
X39727202Y-33201567D01*
X39709319Y-33020000D01*
X39727202Y-32838433D01*
X39780163Y-32663844D01*
X39780164Y-32663841D01*
X39823165Y-32583392D01*
X39866167Y-32502941D01*
X39981909Y-32361909D01*
X40122941Y-32246167D01*
X40203393Y-32203165D01*
X40283841Y-32160164D01*
X40283844Y-32160163D01*
X40458433Y-32107202D01*
X40594504Y-32093800D01*
X40685496Y-32093800D01*
X40821567Y-32107202D01*
X40821567Y-32107202D01*
G37*
G36*
X56061567Y-32107202D02*
G01*
X56236156Y-32160163D01*
X56236159Y-32160164D01*
X56316607Y-32203165D01*
X56397059Y-32246167D01*
X56538091Y-32361909D01*
X56653833Y-32502941D01*
X56696835Y-32583392D01*
X56739836Y-32663841D01*
X56739837Y-32663844D01*
X56792798Y-32838433D01*
X56810681Y-33020000D01*
X56792798Y-33201567D01*
X56739837Y-33376156D01*
X56739836Y-33376159D01*
X56696835Y-33456607D01*
X56653833Y-33537059D01*
X56538091Y-33678091D01*
X56397059Y-33793833D01*
X56316607Y-33836835D01*
X56236159Y-33879836D01*
X56236156Y-33879837D01*
X56061567Y-33932798D01*
X55925496Y-33946200D01*
X55834504Y-33946200D01*
X55698433Y-33932798D01*
X55523844Y-33879837D01*
X55523841Y-33879836D01*
X55443393Y-33836835D01*
X55362941Y-33793833D01*
X55221909Y-33678091D01*
X55106167Y-33537059D01*
X55063165Y-33456607D01*
X55020164Y-33376159D01*
X55020163Y-33376156D01*
X54967202Y-33201567D01*
X54949319Y-33020000D01*
X54967202Y-32838433D01*
X55020163Y-32663844D01*
X55020164Y-32663841D01*
X55063165Y-32583392D01*
X55106167Y-32502941D01*
X55221909Y-32361909D01*
X55362941Y-32246167D01*
X55443393Y-32203165D01*
X55523841Y-32160164D01*
X55523844Y-32160163D01*
X55698433Y-32107202D01*
X55834504Y-32093800D01*
X55925496Y-32093800D01*
X56061567Y-32107202D01*
X56061567Y-32107202D01*
G37*
G36*
X56061567Y-29567202D02*
G01*
X56236156Y-29620163D01*
X56236159Y-29620164D01*
X56316607Y-29663165D01*
X56397059Y-29706167D01*
X56538091Y-29821909D01*
X56653833Y-29962941D01*
X56696835Y-30043392D01*
X56739836Y-30123841D01*
X56739837Y-30123844D01*
X56792798Y-30298433D01*
X56810681Y-30480000D01*
X56792798Y-30661567D01*
X56739837Y-30836156D01*
X56739836Y-30836159D01*
X56696835Y-30916607D01*
X56653833Y-30997059D01*
X56538091Y-31138091D01*
X56397059Y-31253833D01*
X56316607Y-31296835D01*
X56236159Y-31339836D01*
X56236156Y-31339837D01*
X56061567Y-31392798D01*
X55925496Y-31406200D01*
X55834504Y-31406200D01*
X55698433Y-31392798D01*
X55523844Y-31339837D01*
X55523841Y-31339836D01*
X55443393Y-31296835D01*
X55362941Y-31253833D01*
X55221909Y-31138091D01*
X55106167Y-30997059D01*
X55063165Y-30916607D01*
X55020164Y-30836159D01*
X55020163Y-30836156D01*
X54967202Y-30661567D01*
X54949319Y-30480000D01*
X54967202Y-30298433D01*
X55020163Y-30123844D01*
X55020164Y-30123841D01*
X55063165Y-30043392D01*
X55106167Y-29962941D01*
X55221909Y-29821909D01*
X55362941Y-29706167D01*
X55443392Y-29663165D01*
X55523841Y-29620164D01*
X55523844Y-29620163D01*
X55698433Y-29567202D01*
X55834504Y-29553800D01*
X55925496Y-29553800D01*
X56061567Y-29567202D01*
X56061567Y-29567202D01*
G37*
G36*
X40821567Y-29567202D02*
G01*
X40996156Y-29620163D01*
X40996159Y-29620164D01*
X41076607Y-29663165D01*
X41157059Y-29706167D01*
X41298091Y-29821909D01*
X41413833Y-29962941D01*
X41456835Y-30043392D01*
X41499836Y-30123841D01*
X41499837Y-30123844D01*
X41552798Y-30298433D01*
X41570681Y-30480000D01*
X41552798Y-30661567D01*
X41499837Y-30836156D01*
X41499836Y-30836159D01*
X41456835Y-30916607D01*
X41413833Y-30997059D01*
X41298091Y-31138091D01*
X41157059Y-31253833D01*
X41076607Y-31296835D01*
X40996159Y-31339836D01*
X40996156Y-31339837D01*
X40821567Y-31392798D01*
X40685496Y-31406200D01*
X40594504Y-31406200D01*
X40458433Y-31392798D01*
X40283844Y-31339837D01*
X40283841Y-31339836D01*
X40203393Y-31296835D01*
X40122941Y-31253833D01*
X39981909Y-31138091D01*
X39866167Y-30997059D01*
X39823165Y-30916608D01*
X39780164Y-30836159D01*
X39780163Y-30836156D01*
X39727202Y-30661567D01*
X39709319Y-30480000D01*
X39727202Y-30298433D01*
X39780163Y-30123844D01*
X39780164Y-30123841D01*
X39823165Y-30043392D01*
X39866167Y-29962941D01*
X39981909Y-29821909D01*
X40122941Y-29706167D01*
X40203392Y-29663165D01*
X40283841Y-29620164D01*
X40283844Y-29620163D01*
X40458433Y-29567202D01*
X40594504Y-29553800D01*
X40685496Y-29553800D01*
X40821567Y-29567202D01*
X40821567Y-29567202D01*
G37*
G36*
X40821567Y-27027202D02*
G01*
X40996156Y-27080163D01*
X40996159Y-27080164D01*
X41076608Y-27123165D01*
X41157059Y-27166167D01*
X41298091Y-27281909D01*
X41413833Y-27422941D01*
X41456835Y-27503393D01*
X41499836Y-27583841D01*
X41499837Y-27583844D01*
X41552798Y-27758433D01*
X41570681Y-27940000D01*
X41552798Y-28121567D01*
X41499837Y-28296156D01*
X41499836Y-28296159D01*
X41456835Y-28376608D01*
X41413833Y-28457059D01*
X41298091Y-28598091D01*
X41157059Y-28713833D01*
X41076608Y-28756835D01*
X40996159Y-28799836D01*
X40996156Y-28799837D01*
X40821567Y-28852798D01*
X40685496Y-28866200D01*
X40594504Y-28866200D01*
X40458433Y-28852798D01*
X40283844Y-28799837D01*
X40283841Y-28799836D01*
X40203392Y-28756835D01*
X40122941Y-28713833D01*
X39981909Y-28598091D01*
X39866167Y-28457059D01*
X39823165Y-28376608D01*
X39780164Y-28296159D01*
X39780163Y-28296156D01*
X39727202Y-28121567D01*
X39709319Y-27940000D01*
X39727202Y-27758433D01*
X39780163Y-27583844D01*
X39780164Y-27583841D01*
X39823165Y-27503393D01*
X39866167Y-27422941D01*
X39981909Y-27281909D01*
X40122941Y-27166167D01*
X40203392Y-27123165D01*
X40283841Y-27080164D01*
X40283844Y-27080163D01*
X40458433Y-27027202D01*
X40594504Y-27013800D01*
X40685496Y-27013800D01*
X40821567Y-27027202D01*
X40821567Y-27027202D01*
G37*
G36*
X56061567Y-27027202D02*
G01*
X56236156Y-27080163D01*
X56236159Y-27080164D01*
X56316608Y-27123165D01*
X56397059Y-27166167D01*
X56538091Y-27281909D01*
X56653833Y-27422941D01*
X56696835Y-27503393D01*
X56739836Y-27583841D01*
X56739837Y-27583844D01*
X56792798Y-27758433D01*
X56810681Y-27940000D01*
X56792798Y-28121567D01*
X56739837Y-28296156D01*
X56739836Y-28296159D01*
X56696835Y-28376608D01*
X56653833Y-28457059D01*
X56538091Y-28598091D01*
X56397059Y-28713833D01*
X56316608Y-28756835D01*
X56236159Y-28799836D01*
X56236156Y-28799837D01*
X56061567Y-28852798D01*
X55925496Y-28866200D01*
X55834504Y-28866200D01*
X55698433Y-28852798D01*
X55523844Y-28799837D01*
X55523841Y-28799836D01*
X55443392Y-28756835D01*
X55362941Y-28713833D01*
X55221909Y-28598091D01*
X55106167Y-28457059D01*
X55063165Y-28376608D01*
X55020164Y-28296159D01*
X55020163Y-28296156D01*
X54967202Y-28121567D01*
X54949319Y-27940000D01*
X54967202Y-27758433D01*
X55020163Y-27583844D01*
X55020164Y-27583841D01*
X55063165Y-27503392D01*
X55106167Y-27422941D01*
X55221909Y-27281909D01*
X55362941Y-27166167D01*
X55443392Y-27123165D01*
X55523841Y-27080164D01*
X55523844Y-27080163D01*
X55698433Y-27027202D01*
X55834504Y-27013800D01*
X55925496Y-27013800D01*
X56061567Y-27027202D01*
X56061567Y-27027202D01*
G37*
G36*
X40821567Y-24487202D02*
G01*
X40996156Y-24540163D01*
X40996159Y-24540164D01*
X41076608Y-24583165D01*
X41157059Y-24626167D01*
X41298091Y-24741909D01*
X41413833Y-24882941D01*
X41456835Y-24963392D01*
X41499836Y-25043841D01*
X41499837Y-25043844D01*
X41552798Y-25218433D01*
X41570681Y-25400000D01*
X41552798Y-25581567D01*
X41499837Y-25756156D01*
X41499836Y-25756159D01*
X41456835Y-25836607D01*
X41413833Y-25917059D01*
X41298091Y-26058091D01*
X41157059Y-26173833D01*
X41076608Y-26216835D01*
X40996159Y-26259836D01*
X40996156Y-26259837D01*
X40821567Y-26312798D01*
X40685496Y-26326200D01*
X40594504Y-26326200D01*
X40458433Y-26312798D01*
X40283844Y-26259837D01*
X40283841Y-26259836D01*
X40203392Y-26216835D01*
X40122941Y-26173833D01*
X39981909Y-26058091D01*
X39866167Y-25917059D01*
X39823165Y-25836607D01*
X39780164Y-25756159D01*
X39780163Y-25756156D01*
X39727202Y-25581567D01*
X39709319Y-25400000D01*
X39727202Y-25218433D01*
X39780163Y-25043844D01*
X39780164Y-25043841D01*
X39823165Y-24963392D01*
X39866167Y-24882941D01*
X39981909Y-24741909D01*
X40122941Y-24626167D01*
X40203393Y-24583165D01*
X40283841Y-24540164D01*
X40283844Y-24540163D01*
X40458433Y-24487202D01*
X40594504Y-24473800D01*
X40685496Y-24473800D01*
X40821567Y-24487202D01*
X40821567Y-24487202D01*
G37*
G36*
X56061567Y-24487202D02*
G01*
X56236156Y-24540163D01*
X56236159Y-24540164D01*
X56316608Y-24583165D01*
X56397059Y-24626167D01*
X56538091Y-24741909D01*
X56653833Y-24882941D01*
X56696835Y-24963392D01*
X56739836Y-25043841D01*
X56739837Y-25043844D01*
X56792798Y-25218433D01*
X56810681Y-25400000D01*
X56792798Y-25581567D01*
X56739837Y-25756156D01*
X56739836Y-25756159D01*
X56696835Y-25836608D01*
X56653833Y-25917059D01*
X56538091Y-26058091D01*
X56397059Y-26173833D01*
X56316608Y-26216835D01*
X56236159Y-26259836D01*
X56236156Y-26259837D01*
X56061567Y-26312798D01*
X55925496Y-26326200D01*
X55834504Y-26326200D01*
X55698433Y-26312798D01*
X55523844Y-26259837D01*
X55523841Y-26259836D01*
X55443392Y-26216835D01*
X55362941Y-26173833D01*
X55221909Y-26058091D01*
X55106167Y-25917059D01*
X55063165Y-25836607D01*
X55020164Y-25756159D01*
X55020163Y-25756156D01*
X54967202Y-25581567D01*
X54949319Y-25400000D01*
X54967202Y-25218433D01*
X55020163Y-25043844D01*
X55020164Y-25043841D01*
X55063165Y-24963393D01*
X55106167Y-24882941D01*
X55221909Y-24741909D01*
X55362941Y-24626167D01*
X55443393Y-24583165D01*
X55523841Y-24540164D01*
X55523844Y-24540163D01*
X55698433Y-24487202D01*
X55834504Y-24473800D01*
X55925496Y-24473800D01*
X56061567Y-24487202D01*
X56061567Y-24487202D01*
G37*
G36*
X40821567Y-21947202D02*
G01*
X40996156Y-22000163D01*
X40996159Y-22000164D01*
X41076607Y-22043165D01*
X41157059Y-22086167D01*
X41298091Y-22201909D01*
X41413833Y-22342941D01*
X41456835Y-22423393D01*
X41499836Y-22503841D01*
X41499837Y-22503844D01*
X41552798Y-22678433D01*
X41570681Y-22860000D01*
X41552798Y-23041567D01*
X41499837Y-23216156D01*
X41499836Y-23216159D01*
X41456835Y-23296608D01*
X41413833Y-23377059D01*
X41298091Y-23518091D01*
X41157059Y-23633833D01*
X41076607Y-23676835D01*
X40996159Y-23719836D01*
X40996156Y-23719837D01*
X40821567Y-23772798D01*
X40685496Y-23786200D01*
X40594504Y-23786200D01*
X40458433Y-23772798D01*
X40283844Y-23719837D01*
X40283841Y-23719836D01*
X40203392Y-23676835D01*
X40122941Y-23633833D01*
X39981909Y-23518091D01*
X39866167Y-23377059D01*
X39823165Y-23296608D01*
X39780164Y-23216159D01*
X39780163Y-23216156D01*
X39727202Y-23041567D01*
X39709319Y-22860000D01*
X39727202Y-22678433D01*
X39780163Y-22503844D01*
X39780164Y-22503841D01*
X39823165Y-22423392D01*
X39866167Y-22342941D01*
X39981909Y-22201909D01*
X40122941Y-22086167D01*
X40203392Y-22043165D01*
X40283841Y-22000164D01*
X40283844Y-22000163D01*
X40458433Y-21947202D01*
X40594504Y-21933800D01*
X40685496Y-21933800D01*
X40821567Y-21947202D01*
X40821567Y-21947202D01*
G37*
G36*
X56061567Y-21947202D02*
G01*
X56236156Y-22000163D01*
X56236159Y-22000164D01*
X56316607Y-22043165D01*
X56397059Y-22086167D01*
X56538091Y-22201909D01*
X56653833Y-22342941D01*
X56696835Y-22423392D01*
X56739836Y-22503841D01*
X56739837Y-22503844D01*
X56792798Y-22678433D01*
X56810681Y-22860000D01*
X56792798Y-23041567D01*
X56739837Y-23216156D01*
X56739836Y-23216159D01*
X56696835Y-23296608D01*
X56653833Y-23377059D01*
X56538091Y-23518091D01*
X56397059Y-23633833D01*
X56316607Y-23676835D01*
X56236159Y-23719836D01*
X56236156Y-23719837D01*
X56061567Y-23772798D01*
X55925496Y-23786200D01*
X55834504Y-23786200D01*
X55698433Y-23772798D01*
X55523844Y-23719837D01*
X55523841Y-23719836D01*
X55443392Y-23676835D01*
X55362941Y-23633833D01*
X55221909Y-23518091D01*
X55106167Y-23377059D01*
X55063165Y-23296608D01*
X55020164Y-23216159D01*
X55020163Y-23216156D01*
X54967202Y-23041567D01*
X54949319Y-22860000D01*
X54967202Y-22678433D01*
X55020163Y-22503844D01*
X55020164Y-22503841D01*
X55063165Y-22423392D01*
X55106167Y-22342941D01*
X55221909Y-22201909D01*
X55362941Y-22086167D01*
X55443392Y-22043165D01*
X55523841Y-22000164D01*
X55523844Y-22000163D01*
X55698433Y-21947202D01*
X55834504Y-21933800D01*
X55925496Y-21933800D01*
X56061567Y-21947202D01*
X56061567Y-21947202D01*
G37*
G36*
X56023297Y-19353179D02*
G01*
X56164750Y-19381315D01*
X56342405Y-19454902D01*
X56502287Y-19561732D01*
X56638268Y-19697713D01*
X56745098Y-19857595D01*
X56818685Y-20035250D01*
X56856200Y-20223854D01*
X56856200Y-20416146D01*
X56818685Y-20604750D01*
X56745098Y-20782405D01*
X56638268Y-20942287D01*
X56502287Y-21078268D01*
X56342405Y-21185098D01*
X56164750Y-21258685D01*
X56023297Y-21286821D01*
X55976147Y-21296200D01*
X55783853Y-21296200D01*
X55736703Y-21286821D01*
X55595250Y-21258685D01*
X55417595Y-21185098D01*
X55257713Y-21078268D01*
X55121732Y-20942287D01*
X55014902Y-20782405D01*
X54941315Y-20604750D01*
X54903800Y-20416146D01*
X54903800Y-20223854D01*
X54941315Y-20035250D01*
X55014902Y-19857595D01*
X55121732Y-19697713D01*
X55257713Y-19561732D01*
X55417595Y-19454902D01*
X55595250Y-19381315D01*
X55736703Y-19353179D01*
X55783853Y-19343800D01*
X55976147Y-19343800D01*
X56023297Y-19353179D01*
X56023297Y-19353179D01*
G37*
G36*
X41566200Y-21246200D02*
G01*
X39713800Y-21246200D01*
X39713800Y-19393800D01*
X41566200Y-19393800D01*
X41566200Y-21246200D01*
X41566200Y-21246200D01*
G37*
M02*
