G04 #@! TF.GenerationSoftware,KiCad,Pcbnew,(5.1.5-0-10_14)*
G04 #@! TF.CreationDate,2021-04-02T23:38:05-04:00*
G04 #@! TF.ProjectId,GW28R8128,47573238-5238-4313-9238-2e6b69636164,rev?*
G04 #@! TF.SameCoordinates,Original*
G04 #@! TF.FileFunction,Legend,Bot*
G04 #@! TF.FilePolarity,Positive*
%FSLAX46Y46*%
G04 Gerber Fmt 4.6, Leading zero omitted, Abs format (unit mm)*
G04 Created by KiCad (PCBNEW (5.1.5-0-10_14)) date 2021-04-02 23:38:05*
%MOMM*%
%LPD*%
G04 APERTURE LIST*
%ADD10C,0.203200*%
%ADD11C,0.300000*%
%ADD12C,0.225000*%
%ADD13C,0.120000*%
%ADD14C,0.100000*%
G04 APERTURE END LIST*
D10*
X51243895Y-33866666D02*
X51824466Y-33866666D01*
X51940580Y-33827961D01*
X52017990Y-33750552D01*
X52056695Y-33634438D01*
X52056695Y-33557028D01*
X52056695Y-34640761D02*
X52056695Y-34253714D01*
X51243895Y-34253714D01*
X51979285Y-35376152D02*
X52017990Y-35337447D01*
X52056695Y-35221333D01*
X52056695Y-35143923D01*
X52017990Y-35027809D01*
X51940580Y-34950400D01*
X51863171Y-34911695D01*
X51708352Y-34872990D01*
X51592238Y-34872990D01*
X51437419Y-34911695D01*
X51360009Y-34950400D01*
X51282600Y-35027809D01*
X51243895Y-35143923D01*
X51243895Y-35221333D01*
X51282600Y-35337447D01*
X51321304Y-35376152D01*
X51243895Y-35956723D02*
X51824466Y-35956723D01*
X51940580Y-35918019D01*
X52017990Y-35840609D01*
X52056695Y-35724495D01*
X52056695Y-35647085D01*
X52056695Y-36730819D02*
X52056695Y-36343771D01*
X51243895Y-36343771D01*
X51979285Y-37466209D02*
X52017990Y-37427504D01*
X52056695Y-37311390D01*
X52056695Y-37233980D01*
X52017990Y-37117866D01*
X51940580Y-37040457D01*
X51863171Y-37001752D01*
X51708352Y-36963047D01*
X51592238Y-36963047D01*
X51437419Y-37001752D01*
X51360009Y-37040457D01*
X51282600Y-37117866D01*
X51243895Y-37233980D01*
X51243895Y-37311390D01*
X51282600Y-37427504D01*
X51321304Y-37466209D01*
X51243895Y-38046780D02*
X51824466Y-38046780D01*
X51940580Y-38008076D01*
X52017990Y-37930666D01*
X52056695Y-37814552D01*
X52056695Y-37737142D01*
X52056695Y-38820876D02*
X52056695Y-38433828D01*
X51243895Y-38433828D01*
X51979285Y-39556266D02*
X52017990Y-39517561D01*
X52056695Y-39401447D01*
X52056695Y-39324038D01*
X52017990Y-39207923D01*
X51940580Y-39130514D01*
X51863171Y-39091809D01*
X51708352Y-39053104D01*
X51592238Y-39053104D01*
X51437419Y-39091809D01*
X51360009Y-39130514D01*
X51282600Y-39207923D01*
X51243895Y-39324038D01*
X51243895Y-39401447D01*
X51282600Y-39517561D01*
X51321304Y-39556266D01*
X50278695Y-32763580D02*
X50278695Y-32299123D01*
X50278695Y-32531352D02*
X49465895Y-32531352D01*
X49582009Y-32453942D01*
X49659419Y-32376533D01*
X49698123Y-32299123D01*
X49543304Y-33073219D02*
X49504600Y-33111923D01*
X49465895Y-33189333D01*
X49465895Y-33382857D01*
X49504600Y-33460266D01*
X49543304Y-33498971D01*
X49620714Y-33537676D01*
X49698123Y-33537676D01*
X49814238Y-33498971D01*
X50278695Y-33034514D01*
X50278695Y-33537676D01*
X49814238Y-34002133D02*
X49775533Y-33924723D01*
X49736828Y-33886019D01*
X49659419Y-33847314D01*
X49620714Y-33847314D01*
X49543304Y-33886019D01*
X49504600Y-33924723D01*
X49465895Y-34002133D01*
X49465895Y-34156952D01*
X49504600Y-34234361D01*
X49543304Y-34273066D01*
X49620714Y-34311771D01*
X49659419Y-34311771D01*
X49736828Y-34273066D01*
X49775533Y-34234361D01*
X49814238Y-34156952D01*
X49814238Y-34002133D01*
X49852942Y-33924723D01*
X49891647Y-33886019D01*
X49969057Y-33847314D01*
X50123876Y-33847314D01*
X50201285Y-33886019D01*
X50239990Y-33924723D01*
X50278695Y-34002133D01*
X50278695Y-34156952D01*
X50239990Y-34234361D01*
X50201285Y-34273066D01*
X50123876Y-34311771D01*
X49969057Y-34311771D01*
X49891647Y-34273066D01*
X49852942Y-34234361D01*
X49814238Y-34156952D01*
X50278695Y-34660114D02*
X49465895Y-34660114D01*
X49969057Y-34737523D02*
X50278695Y-34969752D01*
X49736828Y-34969752D02*
X50046466Y-34660114D01*
X50278695Y-35859961D02*
X49736828Y-36285714D01*
X49736828Y-35859961D02*
X50278695Y-36285714D01*
X49814238Y-37330742D02*
X49775533Y-37253333D01*
X49736828Y-37214628D01*
X49659419Y-37175923D01*
X49620714Y-37175923D01*
X49543304Y-37214628D01*
X49504600Y-37253333D01*
X49465895Y-37330742D01*
X49465895Y-37485561D01*
X49504600Y-37562971D01*
X49543304Y-37601676D01*
X49620714Y-37640380D01*
X49659419Y-37640380D01*
X49736828Y-37601676D01*
X49775533Y-37562971D01*
X49814238Y-37485561D01*
X49814238Y-37330742D01*
X49852942Y-37253333D01*
X49891647Y-37214628D01*
X49969057Y-37175923D01*
X50123876Y-37175923D01*
X50201285Y-37214628D01*
X50239990Y-37253333D01*
X50278695Y-37330742D01*
X50278695Y-37485561D01*
X50239990Y-37562971D01*
X50201285Y-37601676D01*
X50123876Y-37640380D01*
X49969057Y-37640380D01*
X49891647Y-37601676D01*
X49852942Y-37562971D01*
X49814238Y-37485561D01*
X50278695Y-39072457D02*
X49891647Y-38801523D01*
X50278695Y-38608000D02*
X49465895Y-38608000D01*
X49465895Y-38917638D01*
X49504600Y-38995047D01*
X49543304Y-39033752D01*
X49620714Y-39072457D01*
X49736828Y-39072457D01*
X49814238Y-39033752D01*
X49852942Y-38995047D01*
X49891647Y-38917638D01*
X49891647Y-38608000D01*
X49465895Y-39575619D02*
X49465895Y-39730438D01*
X49504600Y-39807847D01*
X49582009Y-39885257D01*
X49736828Y-39923961D01*
X50007761Y-39923961D01*
X50162580Y-39885257D01*
X50239990Y-39807847D01*
X50278695Y-39730438D01*
X50278695Y-39575619D01*
X50239990Y-39498209D01*
X50162580Y-39420800D01*
X50007761Y-39382095D01*
X49736828Y-39382095D01*
X49582009Y-39420800D01*
X49504600Y-39498209D01*
X49465895Y-39575619D01*
X50278695Y-40272304D02*
X49465895Y-40272304D01*
X50046466Y-40543238D01*
X49465895Y-40814171D01*
X50278695Y-40814171D01*
D11*
X47697571Y-39079714D02*
X47625000Y-38934571D01*
X47552428Y-38862000D01*
X47407285Y-38789428D01*
X47334714Y-38789428D01*
X47189571Y-38862000D01*
X47117000Y-38934571D01*
X47044428Y-39079714D01*
X47044428Y-39370000D01*
X47117000Y-39515142D01*
X47189571Y-39587714D01*
X47334714Y-39660285D01*
X47407285Y-39660285D01*
X47552428Y-39587714D01*
X47625000Y-39515142D01*
X47697571Y-39370000D01*
X47697571Y-39079714D01*
X47770142Y-38934571D01*
X47842714Y-38862000D01*
X47987857Y-38789428D01*
X48278142Y-38789428D01*
X48423285Y-38862000D01*
X48495857Y-38934571D01*
X48568428Y-39079714D01*
X48568428Y-39370000D01*
X48495857Y-39515142D01*
X48423285Y-39587714D01*
X48278142Y-39660285D01*
X47987857Y-39660285D01*
X47842714Y-39587714D01*
X47770142Y-39515142D01*
X47697571Y-39370000D01*
X48568428Y-41111714D02*
X48568428Y-40240857D01*
X48568428Y-40676285D02*
X47044428Y-40676285D01*
X47262142Y-40531142D01*
X47407285Y-40386000D01*
X47479857Y-40240857D01*
X47189571Y-41692285D02*
X47117000Y-41764857D01*
X47044428Y-41910000D01*
X47044428Y-42272857D01*
X47117000Y-42418000D01*
X47189571Y-42490571D01*
X47334714Y-42563142D01*
X47479857Y-42563142D01*
X47697571Y-42490571D01*
X48568428Y-41619714D01*
X48568428Y-42563142D01*
X47697571Y-43434000D02*
X47625000Y-43288857D01*
X47552428Y-43216285D01*
X47407285Y-43143714D01*
X47334714Y-43143714D01*
X47189571Y-43216285D01*
X47117000Y-43288857D01*
X47044428Y-43434000D01*
X47044428Y-43724285D01*
X47117000Y-43869428D01*
X47189571Y-43942000D01*
X47334714Y-44014571D01*
X47407285Y-44014571D01*
X47552428Y-43942000D01*
X47625000Y-43869428D01*
X47697571Y-43724285D01*
X47697571Y-43434000D01*
X47770142Y-43288857D01*
X47842714Y-43216285D01*
X47987857Y-43143714D01*
X48278142Y-43143714D01*
X48423285Y-43216285D01*
X48495857Y-43288857D01*
X48568428Y-43434000D01*
X48568428Y-43724285D01*
X48495857Y-43869428D01*
X48423285Y-43942000D01*
X48278142Y-44014571D01*
X47987857Y-44014571D01*
X47842714Y-43942000D01*
X47770142Y-43869428D01*
X47697571Y-43724285D01*
X48568428Y-37809714D02*
X47842714Y-37301714D01*
X48568428Y-36938857D02*
X47044428Y-36938857D01*
X47044428Y-37519428D01*
X47117000Y-37664571D01*
X47189571Y-37737142D01*
X47334714Y-37809714D01*
X47552428Y-37809714D01*
X47697571Y-37737142D01*
X47770142Y-37664571D01*
X47842714Y-37519428D01*
X47842714Y-36938857D01*
X47189571Y-33636857D02*
X47117000Y-33709428D01*
X47044428Y-33854571D01*
X47044428Y-34217428D01*
X47117000Y-34362571D01*
X47189571Y-34435142D01*
X47334714Y-34507714D01*
X47479857Y-34507714D01*
X47697571Y-34435142D01*
X48568428Y-33564285D01*
X48568428Y-34507714D01*
X47697571Y-35378571D02*
X47625000Y-35233428D01*
X47552428Y-35160857D01*
X47407285Y-35088285D01*
X47334714Y-35088285D01*
X47189571Y-35160857D01*
X47117000Y-35233428D01*
X47044428Y-35378571D01*
X47044428Y-35668857D01*
X47117000Y-35814000D01*
X47189571Y-35886571D01*
X47334714Y-35959142D01*
X47407285Y-35959142D01*
X47552428Y-35886571D01*
X47625000Y-35814000D01*
X47697571Y-35668857D01*
X47697571Y-35378571D01*
X47770142Y-35233428D01*
X47842714Y-35160857D01*
X47987857Y-35088285D01*
X48278142Y-35088285D01*
X48423285Y-35160857D01*
X48495857Y-35233428D01*
X48568428Y-35378571D01*
X48568428Y-35668857D01*
X48495857Y-35814000D01*
X48423285Y-35886571D01*
X48278142Y-35959142D01*
X47987857Y-35959142D01*
X47842714Y-35886571D01*
X47770142Y-35814000D01*
X47697571Y-35668857D01*
X47117000Y-30897285D02*
X47044428Y-30752142D01*
X47044428Y-30534428D01*
X47117000Y-30316714D01*
X47262142Y-30171571D01*
X47407285Y-30099000D01*
X47697571Y-30026428D01*
X47915285Y-30026428D01*
X48205571Y-30099000D01*
X48350714Y-30171571D01*
X48495857Y-30316714D01*
X48568428Y-30534428D01*
X48568428Y-30679571D01*
X48495857Y-30897285D01*
X48423285Y-30969857D01*
X47915285Y-30969857D01*
X47915285Y-30679571D01*
X47044428Y-31477857D02*
X48568428Y-31840714D01*
X47479857Y-32131000D01*
X48568428Y-32421285D01*
X47044428Y-32784142D01*
D12*
X44589000Y-27076000D02*
X44517571Y-26933142D01*
X44517571Y-26718857D01*
X44589000Y-26504571D01*
X44731857Y-26361714D01*
X44874714Y-26290285D01*
X45160428Y-26218857D01*
X45374714Y-26218857D01*
X45660428Y-26290285D01*
X45803285Y-26361714D01*
X45946142Y-26504571D01*
X46017571Y-26718857D01*
X46017571Y-26861714D01*
X45946142Y-27076000D01*
X45874714Y-27147428D01*
X45374714Y-27147428D01*
X45374714Y-26861714D01*
X46017571Y-28433142D02*
X45231857Y-28433142D01*
X45089000Y-28361714D01*
X45017571Y-28218857D01*
X45017571Y-27933142D01*
X45089000Y-27790285D01*
X45946142Y-28433142D02*
X46017571Y-28290285D01*
X46017571Y-27933142D01*
X45946142Y-27790285D01*
X45803285Y-27718857D01*
X45660428Y-27718857D01*
X45517571Y-27790285D01*
X45446142Y-27933142D01*
X45446142Y-28290285D01*
X45374714Y-28433142D01*
X46017571Y-29147428D02*
X45017571Y-29147428D01*
X45303285Y-29147428D02*
X45160428Y-29218857D01*
X45089000Y-29290285D01*
X45017571Y-29433142D01*
X45017571Y-29576000D01*
X46017571Y-30076000D02*
X45017571Y-30076000D01*
X45303285Y-30076000D02*
X45160428Y-30147428D01*
X45089000Y-30218857D01*
X45017571Y-30361714D01*
X45017571Y-30504571D01*
X45946142Y-31576000D02*
X46017571Y-31433142D01*
X46017571Y-31147428D01*
X45946142Y-31004571D01*
X45803285Y-30933142D01*
X45231857Y-30933142D01*
X45089000Y-31004571D01*
X45017571Y-31147428D01*
X45017571Y-31433142D01*
X45089000Y-31576000D01*
X45231857Y-31647428D01*
X45374714Y-31647428D01*
X45517571Y-30933142D01*
X45017571Y-32076000D02*
X45017571Y-32647428D01*
X44517571Y-32290285D02*
X45803285Y-32290285D01*
X45946142Y-32361714D01*
X46017571Y-32504571D01*
X46017571Y-32647428D01*
X45017571Y-32933142D02*
X45017571Y-33504571D01*
X44517571Y-33147428D02*
X45803285Y-33147428D01*
X45946142Y-33218857D01*
X46017571Y-33361714D01*
X46017571Y-33504571D01*
X44517571Y-34076000D02*
X44589000Y-34076000D01*
X44731857Y-34004571D01*
X44803285Y-33933142D01*
X45946142Y-34647428D02*
X46017571Y-34790285D01*
X46017571Y-35076000D01*
X45946142Y-35218857D01*
X45803285Y-35290285D01*
X45731857Y-35290285D01*
X45589000Y-35218857D01*
X45517571Y-35076000D01*
X45517571Y-34861714D01*
X45446142Y-34718857D01*
X45303285Y-34647428D01*
X45231857Y-34647428D01*
X45089000Y-34718857D01*
X45017571Y-34861714D01*
X45017571Y-35076000D01*
X45089000Y-35218857D01*
X44517571Y-36933142D02*
X46017571Y-37290285D01*
X44946142Y-37576000D01*
X46017571Y-37861714D01*
X44517571Y-38218857D01*
X46017571Y-39004571D02*
X45946142Y-38861714D01*
X45874714Y-38790285D01*
X45731857Y-38718857D01*
X45303285Y-38718857D01*
X45160428Y-38790285D01*
X45089000Y-38861714D01*
X45017571Y-39004571D01*
X45017571Y-39218857D01*
X45089000Y-39361714D01*
X45160428Y-39433142D01*
X45303285Y-39504571D01*
X45731857Y-39504571D01*
X45874714Y-39433142D01*
X45946142Y-39361714D01*
X46017571Y-39218857D01*
X46017571Y-39004571D01*
X46017571Y-40147428D02*
X45017571Y-40147428D01*
X45303285Y-40147428D02*
X45160428Y-40218857D01*
X45089000Y-40290285D01*
X45017571Y-40433142D01*
X45017571Y-40576000D01*
X46017571Y-41076000D02*
X44517571Y-41076000D01*
X45446142Y-41218857D02*
X46017571Y-41647428D01*
X45017571Y-41647428D02*
X45589000Y-41076000D01*
X45946142Y-42218857D02*
X46017571Y-42361714D01*
X46017571Y-42647428D01*
X45946142Y-42790285D01*
X45803285Y-42861714D01*
X45731857Y-42861714D01*
X45589000Y-42790285D01*
X45517571Y-42647428D01*
X45517571Y-42433142D01*
X45446142Y-42290285D01*
X45303285Y-42218857D01*
X45231857Y-42218857D01*
X45089000Y-42290285D01*
X45017571Y-42433142D01*
X45017571Y-42647428D01*
X45089000Y-42790285D01*
X46017571Y-43504571D02*
X44517571Y-43504571D01*
X46017571Y-44147428D02*
X45231857Y-44147428D01*
X45089000Y-44076000D01*
X45017571Y-43933142D01*
X45017571Y-43718857D01*
X45089000Y-43576000D01*
X45160428Y-43504571D01*
X46017571Y-45076000D02*
X45946142Y-44933142D01*
X45874714Y-44861714D01*
X45731857Y-44790285D01*
X45303285Y-44790285D01*
X45160428Y-44861714D01*
X45089000Y-44933142D01*
X45017571Y-45076000D01*
X45017571Y-45290285D01*
X45089000Y-45433142D01*
X45160428Y-45504571D01*
X45303285Y-45576000D01*
X45731857Y-45576000D01*
X45874714Y-45504571D01*
X45946142Y-45433142D01*
X46017571Y-45290285D01*
X46017571Y-45076000D01*
X45017571Y-46218857D02*
X46517571Y-46218857D01*
X45089000Y-46218857D02*
X45017571Y-46361714D01*
X45017571Y-46647428D01*
X45089000Y-46790285D01*
X45160428Y-46861714D01*
X45303285Y-46933142D01*
X45731857Y-46933142D01*
X45874714Y-46861714D01*
X45946142Y-46790285D01*
X46017571Y-46647428D01*
X46017571Y-46361714D01*
X45946142Y-46218857D01*
D13*
X49260000Y-18990000D02*
G75*
G02X47260000Y-18990000I-1000000J0D01*
G01*
X47260000Y-18990000D02*
X42200000Y-18990000D01*
X42200000Y-18990000D02*
X42200000Y-54670000D01*
X42200000Y-54670000D02*
X54320000Y-54670000D01*
X54320000Y-54670000D02*
X54320000Y-18990000D01*
X54320000Y-18990000D02*
X49260000Y-18990000D01*
%LPC*%
D14*
G36*
X41118270Y-19107259D02*
G01*
X41188001Y-19117603D01*
X41256383Y-19134731D01*
X41322757Y-19158480D01*
X41386483Y-19188621D01*
X41446948Y-19224862D01*
X41503570Y-19266856D01*
X41555803Y-19314197D01*
X41603144Y-19366430D01*
X41645138Y-19423052D01*
X41681379Y-19483517D01*
X41711520Y-19547243D01*
X41735269Y-19613617D01*
X41752397Y-19681999D01*
X41762741Y-19751730D01*
X41766200Y-19822140D01*
X41766200Y-20817860D01*
X41762741Y-20888270D01*
X41752397Y-20958001D01*
X41735269Y-21026383D01*
X41711520Y-21092757D01*
X41681379Y-21156483D01*
X41645138Y-21216948D01*
X41603144Y-21273570D01*
X41555803Y-21325803D01*
X41503570Y-21373144D01*
X41446948Y-21415138D01*
X41386483Y-21451379D01*
X41322757Y-21481520D01*
X41256383Y-21505269D01*
X41188001Y-21522397D01*
X41118270Y-21532741D01*
X41047860Y-21536200D01*
X40432140Y-21536200D01*
X40361730Y-21532741D01*
X40291999Y-21522397D01*
X40223617Y-21505269D01*
X40157243Y-21481520D01*
X40093517Y-21451379D01*
X40033052Y-21415138D01*
X39976430Y-21373144D01*
X39924197Y-21325803D01*
X39876856Y-21273570D01*
X39834862Y-21216948D01*
X39798621Y-21156483D01*
X39768480Y-21092757D01*
X39744731Y-21026383D01*
X39727603Y-20958001D01*
X39717259Y-20888270D01*
X39713800Y-20817860D01*
X39713800Y-19822140D01*
X39717259Y-19751730D01*
X39727603Y-19681999D01*
X39744731Y-19613617D01*
X39768480Y-19547243D01*
X39798621Y-19483517D01*
X39834862Y-19423052D01*
X39876856Y-19366430D01*
X39924197Y-19314197D01*
X39976430Y-19266856D01*
X40033052Y-19224862D01*
X40093517Y-19188621D01*
X40157243Y-19158480D01*
X40223617Y-19134731D01*
X40291999Y-19117603D01*
X40361730Y-19107259D01*
X40432140Y-19103800D01*
X41047860Y-19103800D01*
X41118270Y-19107259D01*
G37*
G36*
X56158270Y-52127259D02*
G01*
X56228001Y-52137603D01*
X56296383Y-52154731D01*
X56362757Y-52178480D01*
X56426483Y-52208621D01*
X56486948Y-52244862D01*
X56543570Y-52286856D01*
X56595803Y-52334197D01*
X56643144Y-52386430D01*
X56685138Y-52443052D01*
X56721379Y-52503517D01*
X56751520Y-52567243D01*
X56775269Y-52633617D01*
X56792397Y-52701999D01*
X56802741Y-52771730D01*
X56806200Y-52842140D01*
X56806200Y-53837860D01*
X56802741Y-53908270D01*
X56792397Y-53978001D01*
X56775269Y-54046383D01*
X56751520Y-54112757D01*
X56721379Y-54176483D01*
X56685138Y-54236948D01*
X56643144Y-54293570D01*
X56595803Y-54345803D01*
X56543570Y-54393144D01*
X56486948Y-54435138D01*
X56426483Y-54471379D01*
X56362757Y-54501520D01*
X56296383Y-54525269D01*
X56228001Y-54542397D01*
X56158270Y-54552741D01*
X56087860Y-54556200D01*
X55472140Y-54556200D01*
X55401730Y-54552741D01*
X55331999Y-54542397D01*
X55263617Y-54525269D01*
X55197243Y-54501520D01*
X55133517Y-54471379D01*
X55073052Y-54435138D01*
X55016430Y-54393144D01*
X54964197Y-54345803D01*
X54916856Y-54293570D01*
X54874862Y-54236948D01*
X54838621Y-54176483D01*
X54808480Y-54112757D01*
X54784731Y-54046383D01*
X54767603Y-53978001D01*
X54757259Y-53908270D01*
X54753800Y-53837860D01*
X54753800Y-52842140D01*
X54757259Y-52771730D01*
X54767603Y-52701999D01*
X54784731Y-52633617D01*
X54808480Y-52567243D01*
X54838621Y-52503517D01*
X54874862Y-52443052D01*
X54916856Y-52386430D01*
X54964197Y-52334197D01*
X55016430Y-52286856D01*
X55073052Y-52244862D01*
X55133517Y-52208621D01*
X55197243Y-52178480D01*
X55263617Y-52154731D01*
X55331999Y-52137603D01*
X55401730Y-52127259D01*
X55472140Y-52123800D01*
X56087860Y-52123800D01*
X56158270Y-52127259D01*
G37*
G36*
X40981408Y-21646922D02*
G01*
X41044345Y-21656258D01*
X41106063Y-21671717D01*
X41165969Y-21693152D01*
X41223485Y-21720355D01*
X41278058Y-21753065D01*
X41329163Y-21790966D01*
X41376306Y-21833694D01*
X41419034Y-21880837D01*
X41456935Y-21931942D01*
X41489645Y-21986515D01*
X41516848Y-22044031D01*
X41538283Y-22103937D01*
X41553742Y-22165655D01*
X41563078Y-22228592D01*
X41566200Y-22292140D01*
X41566200Y-23427860D01*
X41563078Y-23491408D01*
X41553742Y-23554345D01*
X41538283Y-23616063D01*
X41516848Y-23675969D01*
X41489645Y-23733485D01*
X41456935Y-23788058D01*
X41419034Y-23839163D01*
X41376306Y-23886306D01*
X41329163Y-23929034D01*
X41278058Y-23966935D01*
X41223485Y-23999645D01*
X41165969Y-24026848D01*
X41106063Y-24048283D01*
X41044345Y-24063742D01*
X40981408Y-24073078D01*
X40917860Y-24076200D01*
X40362140Y-24076200D01*
X40298592Y-24073078D01*
X40235655Y-24063742D01*
X40173937Y-24048283D01*
X40114031Y-24026848D01*
X40056515Y-23999645D01*
X40001942Y-23966935D01*
X39950837Y-23929034D01*
X39903694Y-23886306D01*
X39860966Y-23839163D01*
X39823065Y-23788058D01*
X39790355Y-23733485D01*
X39763152Y-23675969D01*
X39741717Y-23616063D01*
X39726258Y-23554345D01*
X39716922Y-23491408D01*
X39713800Y-23427860D01*
X39713800Y-22292140D01*
X39716922Y-22228592D01*
X39726258Y-22165655D01*
X39741717Y-22103937D01*
X39763152Y-22044031D01*
X39790355Y-21986515D01*
X39823065Y-21931942D01*
X39860966Y-21880837D01*
X39903694Y-21833694D01*
X39950837Y-21790966D01*
X40001942Y-21753065D01*
X40056515Y-21720355D01*
X40114031Y-21693152D01*
X40173937Y-21671717D01*
X40235655Y-21656258D01*
X40298592Y-21646922D01*
X40362140Y-21643800D01*
X40917860Y-21643800D01*
X40981408Y-21646922D01*
G37*
G36*
X56221408Y-49586922D02*
G01*
X56284345Y-49596258D01*
X56346063Y-49611717D01*
X56405969Y-49633152D01*
X56463485Y-49660355D01*
X56518058Y-49693065D01*
X56569163Y-49730966D01*
X56616306Y-49773694D01*
X56659034Y-49820837D01*
X56696935Y-49871942D01*
X56729645Y-49926515D01*
X56756848Y-49984031D01*
X56778283Y-50043937D01*
X56793742Y-50105655D01*
X56803078Y-50168592D01*
X56806200Y-50232140D01*
X56806200Y-51367860D01*
X56803078Y-51431408D01*
X56793742Y-51494345D01*
X56778283Y-51556063D01*
X56756848Y-51615969D01*
X56729645Y-51673485D01*
X56696935Y-51728058D01*
X56659034Y-51779163D01*
X56616306Y-51826306D01*
X56569163Y-51869034D01*
X56518058Y-51906935D01*
X56463485Y-51939645D01*
X56405969Y-51966848D01*
X56346063Y-51988283D01*
X56284345Y-52003742D01*
X56221408Y-52013078D01*
X56157860Y-52016200D01*
X55602140Y-52016200D01*
X55538592Y-52013078D01*
X55475655Y-52003742D01*
X55413937Y-51988283D01*
X55354031Y-51966848D01*
X55296515Y-51939645D01*
X55241942Y-51906935D01*
X55190837Y-51869034D01*
X55143694Y-51826306D01*
X55100966Y-51779163D01*
X55063065Y-51728058D01*
X55030355Y-51673485D01*
X55003152Y-51615969D01*
X54981717Y-51556063D01*
X54966258Y-51494345D01*
X54956922Y-51431408D01*
X54953800Y-51367860D01*
X54953800Y-50232140D01*
X54956922Y-50168592D01*
X54966258Y-50105655D01*
X54981717Y-50043937D01*
X55003152Y-49984031D01*
X55030355Y-49926515D01*
X55063065Y-49871942D01*
X55100966Y-49820837D01*
X55143694Y-49773694D01*
X55190837Y-49730966D01*
X55241942Y-49693065D01*
X55296515Y-49660355D01*
X55354031Y-49633152D01*
X55413937Y-49611717D01*
X55475655Y-49596258D01*
X55538592Y-49586922D01*
X55602140Y-49583800D01*
X56157860Y-49583800D01*
X56221408Y-49586922D01*
G37*
G36*
X40981408Y-24186922D02*
G01*
X41044345Y-24196258D01*
X41106063Y-24211717D01*
X41165969Y-24233152D01*
X41223485Y-24260355D01*
X41278058Y-24293065D01*
X41329163Y-24330966D01*
X41376306Y-24373694D01*
X41419034Y-24420837D01*
X41456935Y-24471942D01*
X41489645Y-24526515D01*
X41516848Y-24584031D01*
X41538283Y-24643937D01*
X41553742Y-24705655D01*
X41563078Y-24768592D01*
X41566200Y-24832140D01*
X41566200Y-25967860D01*
X41563078Y-26031408D01*
X41553742Y-26094345D01*
X41538283Y-26156063D01*
X41516848Y-26215969D01*
X41489645Y-26273485D01*
X41456935Y-26328058D01*
X41419034Y-26379163D01*
X41376306Y-26426306D01*
X41329163Y-26469034D01*
X41278058Y-26506935D01*
X41223485Y-26539645D01*
X41165969Y-26566848D01*
X41106063Y-26588283D01*
X41044345Y-26603742D01*
X40981408Y-26613078D01*
X40917860Y-26616200D01*
X40362140Y-26616200D01*
X40298592Y-26613078D01*
X40235655Y-26603742D01*
X40173937Y-26588283D01*
X40114031Y-26566848D01*
X40056515Y-26539645D01*
X40001942Y-26506935D01*
X39950837Y-26469034D01*
X39903694Y-26426306D01*
X39860966Y-26379163D01*
X39823065Y-26328058D01*
X39790355Y-26273485D01*
X39763152Y-26215969D01*
X39741717Y-26156063D01*
X39726258Y-26094345D01*
X39716922Y-26031408D01*
X39713800Y-25967860D01*
X39713800Y-24832140D01*
X39716922Y-24768592D01*
X39726258Y-24705655D01*
X39741717Y-24643937D01*
X39763152Y-24584031D01*
X39790355Y-24526515D01*
X39823065Y-24471942D01*
X39860966Y-24420837D01*
X39903694Y-24373694D01*
X39950837Y-24330966D01*
X40001942Y-24293065D01*
X40056515Y-24260355D01*
X40114031Y-24233152D01*
X40173937Y-24211717D01*
X40235655Y-24196258D01*
X40298592Y-24186922D01*
X40362140Y-24183800D01*
X40917860Y-24183800D01*
X40981408Y-24186922D01*
G37*
G36*
X56221408Y-47046922D02*
G01*
X56284345Y-47056258D01*
X56346063Y-47071717D01*
X56405969Y-47093152D01*
X56463485Y-47120355D01*
X56518058Y-47153065D01*
X56569163Y-47190966D01*
X56616306Y-47233694D01*
X56659034Y-47280837D01*
X56696935Y-47331942D01*
X56729645Y-47386515D01*
X56756848Y-47444031D01*
X56778283Y-47503937D01*
X56793742Y-47565655D01*
X56803078Y-47628592D01*
X56806200Y-47692140D01*
X56806200Y-48827860D01*
X56803078Y-48891408D01*
X56793742Y-48954345D01*
X56778283Y-49016063D01*
X56756848Y-49075969D01*
X56729645Y-49133485D01*
X56696935Y-49188058D01*
X56659034Y-49239163D01*
X56616306Y-49286306D01*
X56569163Y-49329034D01*
X56518058Y-49366935D01*
X56463485Y-49399645D01*
X56405969Y-49426848D01*
X56346063Y-49448283D01*
X56284345Y-49463742D01*
X56221408Y-49473078D01*
X56157860Y-49476200D01*
X55602140Y-49476200D01*
X55538592Y-49473078D01*
X55475655Y-49463742D01*
X55413937Y-49448283D01*
X55354031Y-49426848D01*
X55296515Y-49399645D01*
X55241942Y-49366935D01*
X55190837Y-49329034D01*
X55143694Y-49286306D01*
X55100966Y-49239163D01*
X55063065Y-49188058D01*
X55030355Y-49133485D01*
X55003152Y-49075969D01*
X54981717Y-49016063D01*
X54966258Y-48954345D01*
X54956922Y-48891408D01*
X54953800Y-48827860D01*
X54953800Y-47692140D01*
X54956922Y-47628592D01*
X54966258Y-47565655D01*
X54981717Y-47503937D01*
X55003152Y-47444031D01*
X55030355Y-47386515D01*
X55063065Y-47331942D01*
X55100966Y-47280837D01*
X55143694Y-47233694D01*
X55190837Y-47190966D01*
X55241942Y-47153065D01*
X55296515Y-47120355D01*
X55354031Y-47093152D01*
X55413937Y-47071717D01*
X55475655Y-47056258D01*
X55538592Y-47046922D01*
X55602140Y-47043800D01*
X56157860Y-47043800D01*
X56221408Y-47046922D01*
G37*
G36*
X40981408Y-26726922D02*
G01*
X41044345Y-26736258D01*
X41106063Y-26751717D01*
X41165969Y-26773152D01*
X41223485Y-26800355D01*
X41278058Y-26833065D01*
X41329163Y-26870966D01*
X41376306Y-26913694D01*
X41419034Y-26960837D01*
X41456935Y-27011942D01*
X41489645Y-27066515D01*
X41516848Y-27124031D01*
X41538283Y-27183937D01*
X41553742Y-27245655D01*
X41563078Y-27308592D01*
X41566200Y-27372140D01*
X41566200Y-28507860D01*
X41563078Y-28571408D01*
X41553742Y-28634345D01*
X41538283Y-28696063D01*
X41516848Y-28755969D01*
X41489645Y-28813485D01*
X41456935Y-28868058D01*
X41419034Y-28919163D01*
X41376306Y-28966306D01*
X41329163Y-29009034D01*
X41278058Y-29046935D01*
X41223485Y-29079645D01*
X41165969Y-29106848D01*
X41106063Y-29128283D01*
X41044345Y-29143742D01*
X40981408Y-29153078D01*
X40917860Y-29156200D01*
X40362140Y-29156200D01*
X40298592Y-29153078D01*
X40235655Y-29143742D01*
X40173937Y-29128283D01*
X40114031Y-29106848D01*
X40056515Y-29079645D01*
X40001942Y-29046935D01*
X39950837Y-29009034D01*
X39903694Y-28966306D01*
X39860966Y-28919163D01*
X39823065Y-28868058D01*
X39790355Y-28813485D01*
X39763152Y-28755969D01*
X39741717Y-28696063D01*
X39726258Y-28634345D01*
X39716922Y-28571408D01*
X39713800Y-28507860D01*
X39713800Y-27372140D01*
X39716922Y-27308592D01*
X39726258Y-27245655D01*
X39741717Y-27183937D01*
X39763152Y-27124031D01*
X39790355Y-27066515D01*
X39823065Y-27011942D01*
X39860966Y-26960837D01*
X39903694Y-26913694D01*
X39950837Y-26870966D01*
X40001942Y-26833065D01*
X40056515Y-26800355D01*
X40114031Y-26773152D01*
X40173937Y-26751717D01*
X40235655Y-26736258D01*
X40298592Y-26726922D01*
X40362140Y-26723800D01*
X40917860Y-26723800D01*
X40981408Y-26726922D01*
G37*
G36*
X56221408Y-44506922D02*
G01*
X56284345Y-44516258D01*
X56346063Y-44531717D01*
X56405969Y-44553152D01*
X56463485Y-44580355D01*
X56518058Y-44613065D01*
X56569163Y-44650966D01*
X56616306Y-44693694D01*
X56659034Y-44740837D01*
X56696935Y-44791942D01*
X56729645Y-44846515D01*
X56756848Y-44904031D01*
X56778283Y-44963937D01*
X56793742Y-45025655D01*
X56803078Y-45088592D01*
X56806200Y-45152140D01*
X56806200Y-46287860D01*
X56803078Y-46351408D01*
X56793742Y-46414345D01*
X56778283Y-46476063D01*
X56756848Y-46535969D01*
X56729645Y-46593485D01*
X56696935Y-46648058D01*
X56659034Y-46699163D01*
X56616306Y-46746306D01*
X56569163Y-46789034D01*
X56518058Y-46826935D01*
X56463485Y-46859645D01*
X56405969Y-46886848D01*
X56346063Y-46908283D01*
X56284345Y-46923742D01*
X56221408Y-46933078D01*
X56157860Y-46936200D01*
X55602140Y-46936200D01*
X55538592Y-46933078D01*
X55475655Y-46923742D01*
X55413937Y-46908283D01*
X55354031Y-46886848D01*
X55296515Y-46859645D01*
X55241942Y-46826935D01*
X55190837Y-46789034D01*
X55143694Y-46746306D01*
X55100966Y-46699163D01*
X55063065Y-46648058D01*
X55030355Y-46593485D01*
X55003152Y-46535969D01*
X54981717Y-46476063D01*
X54966258Y-46414345D01*
X54956922Y-46351408D01*
X54953800Y-46287860D01*
X54953800Y-45152140D01*
X54956922Y-45088592D01*
X54966258Y-45025655D01*
X54981717Y-44963937D01*
X55003152Y-44904031D01*
X55030355Y-44846515D01*
X55063065Y-44791942D01*
X55100966Y-44740837D01*
X55143694Y-44693694D01*
X55190837Y-44650966D01*
X55241942Y-44613065D01*
X55296515Y-44580355D01*
X55354031Y-44553152D01*
X55413937Y-44531717D01*
X55475655Y-44516258D01*
X55538592Y-44506922D01*
X55602140Y-44503800D01*
X56157860Y-44503800D01*
X56221408Y-44506922D01*
G37*
G36*
X40981408Y-29266922D02*
G01*
X41044345Y-29276258D01*
X41106063Y-29291717D01*
X41165969Y-29313152D01*
X41223485Y-29340355D01*
X41278058Y-29373065D01*
X41329163Y-29410966D01*
X41376306Y-29453694D01*
X41419034Y-29500837D01*
X41456935Y-29551942D01*
X41489645Y-29606515D01*
X41516848Y-29664031D01*
X41538283Y-29723937D01*
X41553742Y-29785655D01*
X41563078Y-29848592D01*
X41566200Y-29912140D01*
X41566200Y-31047860D01*
X41563078Y-31111408D01*
X41553742Y-31174345D01*
X41538283Y-31236063D01*
X41516848Y-31295969D01*
X41489645Y-31353485D01*
X41456935Y-31408058D01*
X41419034Y-31459163D01*
X41376306Y-31506306D01*
X41329163Y-31549034D01*
X41278058Y-31586935D01*
X41223485Y-31619645D01*
X41165969Y-31646848D01*
X41106063Y-31668283D01*
X41044345Y-31683742D01*
X40981408Y-31693078D01*
X40917860Y-31696200D01*
X40362140Y-31696200D01*
X40298592Y-31693078D01*
X40235655Y-31683742D01*
X40173937Y-31668283D01*
X40114031Y-31646848D01*
X40056515Y-31619645D01*
X40001942Y-31586935D01*
X39950837Y-31549034D01*
X39903694Y-31506306D01*
X39860966Y-31459163D01*
X39823065Y-31408058D01*
X39790355Y-31353485D01*
X39763152Y-31295969D01*
X39741717Y-31236063D01*
X39726258Y-31174345D01*
X39716922Y-31111408D01*
X39713800Y-31047860D01*
X39713800Y-29912140D01*
X39716922Y-29848592D01*
X39726258Y-29785655D01*
X39741717Y-29723937D01*
X39763152Y-29664031D01*
X39790355Y-29606515D01*
X39823065Y-29551942D01*
X39860966Y-29500837D01*
X39903694Y-29453694D01*
X39950837Y-29410966D01*
X40001942Y-29373065D01*
X40056515Y-29340355D01*
X40114031Y-29313152D01*
X40173937Y-29291717D01*
X40235655Y-29276258D01*
X40298592Y-29266922D01*
X40362140Y-29263800D01*
X40917860Y-29263800D01*
X40981408Y-29266922D01*
G37*
G36*
X56221408Y-41966922D02*
G01*
X56284345Y-41976258D01*
X56346063Y-41991717D01*
X56405969Y-42013152D01*
X56463485Y-42040355D01*
X56518058Y-42073065D01*
X56569163Y-42110966D01*
X56616306Y-42153694D01*
X56659034Y-42200837D01*
X56696935Y-42251942D01*
X56729645Y-42306515D01*
X56756848Y-42364031D01*
X56778283Y-42423937D01*
X56793742Y-42485655D01*
X56803078Y-42548592D01*
X56806200Y-42612140D01*
X56806200Y-43747860D01*
X56803078Y-43811408D01*
X56793742Y-43874345D01*
X56778283Y-43936063D01*
X56756848Y-43995969D01*
X56729645Y-44053485D01*
X56696935Y-44108058D01*
X56659034Y-44159163D01*
X56616306Y-44206306D01*
X56569163Y-44249034D01*
X56518058Y-44286935D01*
X56463485Y-44319645D01*
X56405969Y-44346848D01*
X56346063Y-44368283D01*
X56284345Y-44383742D01*
X56221408Y-44393078D01*
X56157860Y-44396200D01*
X55602140Y-44396200D01*
X55538592Y-44393078D01*
X55475655Y-44383742D01*
X55413937Y-44368283D01*
X55354031Y-44346848D01*
X55296515Y-44319645D01*
X55241942Y-44286935D01*
X55190837Y-44249034D01*
X55143694Y-44206306D01*
X55100966Y-44159163D01*
X55063065Y-44108058D01*
X55030355Y-44053485D01*
X55003152Y-43995969D01*
X54981717Y-43936063D01*
X54966258Y-43874345D01*
X54956922Y-43811408D01*
X54953800Y-43747860D01*
X54953800Y-42612140D01*
X54956922Y-42548592D01*
X54966258Y-42485655D01*
X54981717Y-42423937D01*
X55003152Y-42364031D01*
X55030355Y-42306515D01*
X55063065Y-42251942D01*
X55100966Y-42200837D01*
X55143694Y-42153694D01*
X55190837Y-42110966D01*
X55241942Y-42073065D01*
X55296515Y-42040355D01*
X55354031Y-42013152D01*
X55413937Y-41991717D01*
X55475655Y-41976258D01*
X55538592Y-41966922D01*
X55602140Y-41963800D01*
X56157860Y-41963800D01*
X56221408Y-41966922D01*
G37*
G36*
X40981408Y-31806922D02*
G01*
X41044345Y-31816258D01*
X41106063Y-31831717D01*
X41165969Y-31853152D01*
X41223485Y-31880355D01*
X41278058Y-31913065D01*
X41329163Y-31950966D01*
X41376306Y-31993694D01*
X41419034Y-32040837D01*
X41456935Y-32091942D01*
X41489645Y-32146515D01*
X41516848Y-32204031D01*
X41538283Y-32263937D01*
X41553742Y-32325655D01*
X41563078Y-32388592D01*
X41566200Y-32452140D01*
X41566200Y-33587860D01*
X41563078Y-33651408D01*
X41553742Y-33714345D01*
X41538283Y-33776063D01*
X41516848Y-33835969D01*
X41489645Y-33893485D01*
X41456935Y-33948058D01*
X41419034Y-33999163D01*
X41376306Y-34046306D01*
X41329163Y-34089034D01*
X41278058Y-34126935D01*
X41223485Y-34159645D01*
X41165969Y-34186848D01*
X41106063Y-34208283D01*
X41044345Y-34223742D01*
X40981408Y-34233078D01*
X40917860Y-34236200D01*
X40362140Y-34236200D01*
X40298592Y-34233078D01*
X40235655Y-34223742D01*
X40173937Y-34208283D01*
X40114031Y-34186848D01*
X40056515Y-34159645D01*
X40001942Y-34126935D01*
X39950837Y-34089034D01*
X39903694Y-34046306D01*
X39860966Y-33999163D01*
X39823065Y-33948058D01*
X39790355Y-33893485D01*
X39763152Y-33835969D01*
X39741717Y-33776063D01*
X39726258Y-33714345D01*
X39716922Y-33651408D01*
X39713800Y-33587860D01*
X39713800Y-32452140D01*
X39716922Y-32388592D01*
X39726258Y-32325655D01*
X39741717Y-32263937D01*
X39763152Y-32204031D01*
X39790355Y-32146515D01*
X39823065Y-32091942D01*
X39860966Y-32040837D01*
X39903694Y-31993694D01*
X39950837Y-31950966D01*
X40001942Y-31913065D01*
X40056515Y-31880355D01*
X40114031Y-31853152D01*
X40173937Y-31831717D01*
X40235655Y-31816258D01*
X40298592Y-31806922D01*
X40362140Y-31803800D01*
X40917860Y-31803800D01*
X40981408Y-31806922D01*
G37*
G36*
X56221408Y-39426922D02*
G01*
X56284345Y-39436258D01*
X56346063Y-39451717D01*
X56405969Y-39473152D01*
X56463485Y-39500355D01*
X56518058Y-39533065D01*
X56569163Y-39570966D01*
X56616306Y-39613694D01*
X56659034Y-39660837D01*
X56696935Y-39711942D01*
X56729645Y-39766515D01*
X56756848Y-39824031D01*
X56778283Y-39883937D01*
X56793742Y-39945655D01*
X56803078Y-40008592D01*
X56806200Y-40072140D01*
X56806200Y-41207860D01*
X56803078Y-41271408D01*
X56793742Y-41334345D01*
X56778283Y-41396063D01*
X56756848Y-41455969D01*
X56729645Y-41513485D01*
X56696935Y-41568058D01*
X56659034Y-41619163D01*
X56616306Y-41666306D01*
X56569163Y-41709034D01*
X56518058Y-41746935D01*
X56463485Y-41779645D01*
X56405969Y-41806848D01*
X56346063Y-41828283D01*
X56284345Y-41843742D01*
X56221408Y-41853078D01*
X56157860Y-41856200D01*
X55602140Y-41856200D01*
X55538592Y-41853078D01*
X55475655Y-41843742D01*
X55413937Y-41828283D01*
X55354031Y-41806848D01*
X55296515Y-41779645D01*
X55241942Y-41746935D01*
X55190837Y-41709034D01*
X55143694Y-41666306D01*
X55100966Y-41619163D01*
X55063065Y-41568058D01*
X55030355Y-41513485D01*
X55003152Y-41455969D01*
X54981717Y-41396063D01*
X54966258Y-41334345D01*
X54956922Y-41271408D01*
X54953800Y-41207860D01*
X54953800Y-40072140D01*
X54956922Y-40008592D01*
X54966258Y-39945655D01*
X54981717Y-39883937D01*
X55003152Y-39824031D01*
X55030355Y-39766515D01*
X55063065Y-39711942D01*
X55100966Y-39660837D01*
X55143694Y-39613694D01*
X55190837Y-39570966D01*
X55241942Y-39533065D01*
X55296515Y-39500355D01*
X55354031Y-39473152D01*
X55413937Y-39451717D01*
X55475655Y-39436258D01*
X55538592Y-39426922D01*
X55602140Y-39423800D01*
X56157860Y-39423800D01*
X56221408Y-39426922D01*
G37*
G36*
X40981408Y-34346922D02*
G01*
X41044345Y-34356258D01*
X41106063Y-34371717D01*
X41165969Y-34393152D01*
X41223485Y-34420355D01*
X41278058Y-34453065D01*
X41329163Y-34490966D01*
X41376306Y-34533694D01*
X41419034Y-34580837D01*
X41456935Y-34631942D01*
X41489645Y-34686515D01*
X41516848Y-34744031D01*
X41538283Y-34803937D01*
X41553742Y-34865655D01*
X41563078Y-34928592D01*
X41566200Y-34992140D01*
X41566200Y-36127860D01*
X41563078Y-36191408D01*
X41553742Y-36254345D01*
X41538283Y-36316063D01*
X41516848Y-36375969D01*
X41489645Y-36433485D01*
X41456935Y-36488058D01*
X41419034Y-36539163D01*
X41376306Y-36586306D01*
X41329163Y-36629034D01*
X41278058Y-36666935D01*
X41223485Y-36699645D01*
X41165969Y-36726848D01*
X41106063Y-36748283D01*
X41044345Y-36763742D01*
X40981408Y-36773078D01*
X40917860Y-36776200D01*
X40362140Y-36776200D01*
X40298592Y-36773078D01*
X40235655Y-36763742D01*
X40173937Y-36748283D01*
X40114031Y-36726848D01*
X40056515Y-36699645D01*
X40001942Y-36666935D01*
X39950837Y-36629034D01*
X39903694Y-36586306D01*
X39860966Y-36539163D01*
X39823065Y-36488058D01*
X39790355Y-36433485D01*
X39763152Y-36375969D01*
X39741717Y-36316063D01*
X39726258Y-36254345D01*
X39716922Y-36191408D01*
X39713800Y-36127860D01*
X39713800Y-34992140D01*
X39716922Y-34928592D01*
X39726258Y-34865655D01*
X39741717Y-34803937D01*
X39763152Y-34744031D01*
X39790355Y-34686515D01*
X39823065Y-34631942D01*
X39860966Y-34580837D01*
X39903694Y-34533694D01*
X39950837Y-34490966D01*
X40001942Y-34453065D01*
X40056515Y-34420355D01*
X40114031Y-34393152D01*
X40173937Y-34371717D01*
X40235655Y-34356258D01*
X40298592Y-34346922D01*
X40362140Y-34343800D01*
X40917860Y-34343800D01*
X40981408Y-34346922D01*
G37*
G36*
X56221408Y-36886922D02*
G01*
X56284345Y-36896258D01*
X56346063Y-36911717D01*
X56405969Y-36933152D01*
X56463485Y-36960355D01*
X56518058Y-36993065D01*
X56569163Y-37030966D01*
X56616306Y-37073694D01*
X56659034Y-37120837D01*
X56696935Y-37171942D01*
X56729645Y-37226515D01*
X56756848Y-37284031D01*
X56778283Y-37343937D01*
X56793742Y-37405655D01*
X56803078Y-37468592D01*
X56806200Y-37532140D01*
X56806200Y-38667860D01*
X56803078Y-38731408D01*
X56793742Y-38794345D01*
X56778283Y-38856063D01*
X56756848Y-38915969D01*
X56729645Y-38973485D01*
X56696935Y-39028058D01*
X56659034Y-39079163D01*
X56616306Y-39126306D01*
X56569163Y-39169034D01*
X56518058Y-39206935D01*
X56463485Y-39239645D01*
X56405969Y-39266848D01*
X56346063Y-39288283D01*
X56284345Y-39303742D01*
X56221408Y-39313078D01*
X56157860Y-39316200D01*
X55602140Y-39316200D01*
X55538592Y-39313078D01*
X55475655Y-39303742D01*
X55413937Y-39288283D01*
X55354031Y-39266848D01*
X55296515Y-39239645D01*
X55241942Y-39206935D01*
X55190837Y-39169034D01*
X55143694Y-39126306D01*
X55100966Y-39079163D01*
X55063065Y-39028058D01*
X55030355Y-38973485D01*
X55003152Y-38915969D01*
X54981717Y-38856063D01*
X54966258Y-38794345D01*
X54956922Y-38731408D01*
X54953800Y-38667860D01*
X54953800Y-37532140D01*
X54956922Y-37468592D01*
X54966258Y-37405655D01*
X54981717Y-37343937D01*
X55003152Y-37284031D01*
X55030355Y-37226515D01*
X55063065Y-37171942D01*
X55100966Y-37120837D01*
X55143694Y-37073694D01*
X55190837Y-37030966D01*
X55241942Y-36993065D01*
X55296515Y-36960355D01*
X55354031Y-36933152D01*
X55413937Y-36911717D01*
X55475655Y-36896258D01*
X55538592Y-36886922D01*
X55602140Y-36883800D01*
X56157860Y-36883800D01*
X56221408Y-36886922D01*
G37*
G36*
X40981408Y-36886922D02*
G01*
X41044345Y-36896258D01*
X41106063Y-36911717D01*
X41165969Y-36933152D01*
X41223485Y-36960355D01*
X41278058Y-36993065D01*
X41329163Y-37030966D01*
X41376306Y-37073694D01*
X41419034Y-37120837D01*
X41456935Y-37171942D01*
X41489645Y-37226515D01*
X41516848Y-37284031D01*
X41538283Y-37343937D01*
X41553742Y-37405655D01*
X41563078Y-37468592D01*
X41566200Y-37532140D01*
X41566200Y-38667860D01*
X41563078Y-38731408D01*
X41553742Y-38794345D01*
X41538283Y-38856063D01*
X41516848Y-38915969D01*
X41489645Y-38973485D01*
X41456935Y-39028058D01*
X41419034Y-39079163D01*
X41376306Y-39126306D01*
X41329163Y-39169034D01*
X41278058Y-39206935D01*
X41223485Y-39239645D01*
X41165969Y-39266848D01*
X41106063Y-39288283D01*
X41044345Y-39303742D01*
X40981408Y-39313078D01*
X40917860Y-39316200D01*
X40362140Y-39316200D01*
X40298592Y-39313078D01*
X40235655Y-39303742D01*
X40173937Y-39288283D01*
X40114031Y-39266848D01*
X40056515Y-39239645D01*
X40001942Y-39206935D01*
X39950837Y-39169034D01*
X39903694Y-39126306D01*
X39860966Y-39079163D01*
X39823065Y-39028058D01*
X39790355Y-38973485D01*
X39763152Y-38915969D01*
X39741717Y-38856063D01*
X39726258Y-38794345D01*
X39716922Y-38731408D01*
X39713800Y-38667860D01*
X39713800Y-37532140D01*
X39716922Y-37468592D01*
X39726258Y-37405655D01*
X39741717Y-37343937D01*
X39763152Y-37284031D01*
X39790355Y-37226515D01*
X39823065Y-37171942D01*
X39860966Y-37120837D01*
X39903694Y-37073694D01*
X39950837Y-37030966D01*
X40001942Y-36993065D01*
X40056515Y-36960355D01*
X40114031Y-36933152D01*
X40173937Y-36911717D01*
X40235655Y-36896258D01*
X40298592Y-36886922D01*
X40362140Y-36883800D01*
X40917860Y-36883800D01*
X40981408Y-36886922D01*
G37*
G36*
X56221408Y-34346922D02*
G01*
X56284345Y-34356258D01*
X56346063Y-34371717D01*
X56405969Y-34393152D01*
X56463485Y-34420355D01*
X56518058Y-34453065D01*
X56569163Y-34490966D01*
X56616306Y-34533694D01*
X56659034Y-34580837D01*
X56696935Y-34631942D01*
X56729645Y-34686515D01*
X56756848Y-34744031D01*
X56778283Y-34803937D01*
X56793742Y-34865655D01*
X56803078Y-34928592D01*
X56806200Y-34992140D01*
X56806200Y-36127860D01*
X56803078Y-36191408D01*
X56793742Y-36254345D01*
X56778283Y-36316063D01*
X56756848Y-36375969D01*
X56729645Y-36433485D01*
X56696935Y-36488058D01*
X56659034Y-36539163D01*
X56616306Y-36586306D01*
X56569163Y-36629034D01*
X56518058Y-36666935D01*
X56463485Y-36699645D01*
X56405969Y-36726848D01*
X56346063Y-36748283D01*
X56284345Y-36763742D01*
X56221408Y-36773078D01*
X56157860Y-36776200D01*
X55602140Y-36776200D01*
X55538592Y-36773078D01*
X55475655Y-36763742D01*
X55413937Y-36748283D01*
X55354031Y-36726848D01*
X55296515Y-36699645D01*
X55241942Y-36666935D01*
X55190837Y-36629034D01*
X55143694Y-36586306D01*
X55100966Y-36539163D01*
X55063065Y-36488058D01*
X55030355Y-36433485D01*
X55003152Y-36375969D01*
X54981717Y-36316063D01*
X54966258Y-36254345D01*
X54956922Y-36191408D01*
X54953800Y-36127860D01*
X54953800Y-34992140D01*
X54956922Y-34928592D01*
X54966258Y-34865655D01*
X54981717Y-34803937D01*
X55003152Y-34744031D01*
X55030355Y-34686515D01*
X55063065Y-34631942D01*
X55100966Y-34580837D01*
X55143694Y-34533694D01*
X55190837Y-34490966D01*
X55241942Y-34453065D01*
X55296515Y-34420355D01*
X55354031Y-34393152D01*
X55413937Y-34371717D01*
X55475655Y-34356258D01*
X55538592Y-34346922D01*
X55602140Y-34343800D01*
X56157860Y-34343800D01*
X56221408Y-34346922D01*
G37*
G36*
X40981408Y-39426922D02*
G01*
X41044345Y-39436258D01*
X41106063Y-39451717D01*
X41165969Y-39473152D01*
X41223485Y-39500355D01*
X41278058Y-39533065D01*
X41329163Y-39570966D01*
X41376306Y-39613694D01*
X41419034Y-39660837D01*
X41456935Y-39711942D01*
X41489645Y-39766515D01*
X41516848Y-39824031D01*
X41538283Y-39883937D01*
X41553742Y-39945655D01*
X41563078Y-40008592D01*
X41566200Y-40072140D01*
X41566200Y-41207860D01*
X41563078Y-41271408D01*
X41553742Y-41334345D01*
X41538283Y-41396063D01*
X41516848Y-41455969D01*
X41489645Y-41513485D01*
X41456935Y-41568058D01*
X41419034Y-41619163D01*
X41376306Y-41666306D01*
X41329163Y-41709034D01*
X41278058Y-41746935D01*
X41223485Y-41779645D01*
X41165969Y-41806848D01*
X41106063Y-41828283D01*
X41044345Y-41843742D01*
X40981408Y-41853078D01*
X40917860Y-41856200D01*
X40362140Y-41856200D01*
X40298592Y-41853078D01*
X40235655Y-41843742D01*
X40173937Y-41828283D01*
X40114031Y-41806848D01*
X40056515Y-41779645D01*
X40001942Y-41746935D01*
X39950837Y-41709034D01*
X39903694Y-41666306D01*
X39860966Y-41619163D01*
X39823065Y-41568058D01*
X39790355Y-41513485D01*
X39763152Y-41455969D01*
X39741717Y-41396063D01*
X39726258Y-41334345D01*
X39716922Y-41271408D01*
X39713800Y-41207860D01*
X39713800Y-40072140D01*
X39716922Y-40008592D01*
X39726258Y-39945655D01*
X39741717Y-39883937D01*
X39763152Y-39824031D01*
X39790355Y-39766515D01*
X39823065Y-39711942D01*
X39860966Y-39660837D01*
X39903694Y-39613694D01*
X39950837Y-39570966D01*
X40001942Y-39533065D01*
X40056515Y-39500355D01*
X40114031Y-39473152D01*
X40173937Y-39451717D01*
X40235655Y-39436258D01*
X40298592Y-39426922D01*
X40362140Y-39423800D01*
X40917860Y-39423800D01*
X40981408Y-39426922D01*
G37*
G36*
X56221408Y-31806922D02*
G01*
X56284345Y-31816258D01*
X56346063Y-31831717D01*
X56405969Y-31853152D01*
X56463485Y-31880355D01*
X56518058Y-31913065D01*
X56569163Y-31950966D01*
X56616306Y-31993694D01*
X56659034Y-32040837D01*
X56696935Y-32091942D01*
X56729645Y-32146515D01*
X56756848Y-32204031D01*
X56778283Y-32263937D01*
X56793742Y-32325655D01*
X56803078Y-32388592D01*
X56806200Y-32452140D01*
X56806200Y-33587860D01*
X56803078Y-33651408D01*
X56793742Y-33714345D01*
X56778283Y-33776063D01*
X56756848Y-33835969D01*
X56729645Y-33893485D01*
X56696935Y-33948058D01*
X56659034Y-33999163D01*
X56616306Y-34046306D01*
X56569163Y-34089034D01*
X56518058Y-34126935D01*
X56463485Y-34159645D01*
X56405969Y-34186848D01*
X56346063Y-34208283D01*
X56284345Y-34223742D01*
X56221408Y-34233078D01*
X56157860Y-34236200D01*
X55602140Y-34236200D01*
X55538592Y-34233078D01*
X55475655Y-34223742D01*
X55413937Y-34208283D01*
X55354031Y-34186848D01*
X55296515Y-34159645D01*
X55241942Y-34126935D01*
X55190837Y-34089034D01*
X55143694Y-34046306D01*
X55100966Y-33999163D01*
X55063065Y-33948058D01*
X55030355Y-33893485D01*
X55003152Y-33835969D01*
X54981717Y-33776063D01*
X54966258Y-33714345D01*
X54956922Y-33651408D01*
X54953800Y-33587860D01*
X54953800Y-32452140D01*
X54956922Y-32388592D01*
X54966258Y-32325655D01*
X54981717Y-32263937D01*
X55003152Y-32204031D01*
X55030355Y-32146515D01*
X55063065Y-32091942D01*
X55100966Y-32040837D01*
X55143694Y-31993694D01*
X55190837Y-31950966D01*
X55241942Y-31913065D01*
X55296515Y-31880355D01*
X55354031Y-31853152D01*
X55413937Y-31831717D01*
X55475655Y-31816258D01*
X55538592Y-31806922D01*
X55602140Y-31803800D01*
X56157860Y-31803800D01*
X56221408Y-31806922D01*
G37*
G36*
X40981408Y-41966922D02*
G01*
X41044345Y-41976258D01*
X41106063Y-41991717D01*
X41165969Y-42013152D01*
X41223485Y-42040355D01*
X41278058Y-42073065D01*
X41329163Y-42110966D01*
X41376306Y-42153694D01*
X41419034Y-42200837D01*
X41456935Y-42251942D01*
X41489645Y-42306515D01*
X41516848Y-42364031D01*
X41538283Y-42423937D01*
X41553742Y-42485655D01*
X41563078Y-42548592D01*
X41566200Y-42612140D01*
X41566200Y-43747860D01*
X41563078Y-43811408D01*
X41553742Y-43874345D01*
X41538283Y-43936063D01*
X41516848Y-43995969D01*
X41489645Y-44053485D01*
X41456935Y-44108058D01*
X41419034Y-44159163D01*
X41376306Y-44206306D01*
X41329163Y-44249034D01*
X41278058Y-44286935D01*
X41223485Y-44319645D01*
X41165969Y-44346848D01*
X41106063Y-44368283D01*
X41044345Y-44383742D01*
X40981408Y-44393078D01*
X40917860Y-44396200D01*
X40362140Y-44396200D01*
X40298592Y-44393078D01*
X40235655Y-44383742D01*
X40173937Y-44368283D01*
X40114031Y-44346848D01*
X40056515Y-44319645D01*
X40001942Y-44286935D01*
X39950837Y-44249034D01*
X39903694Y-44206306D01*
X39860966Y-44159163D01*
X39823065Y-44108058D01*
X39790355Y-44053485D01*
X39763152Y-43995969D01*
X39741717Y-43936063D01*
X39726258Y-43874345D01*
X39716922Y-43811408D01*
X39713800Y-43747860D01*
X39713800Y-42612140D01*
X39716922Y-42548592D01*
X39726258Y-42485655D01*
X39741717Y-42423937D01*
X39763152Y-42364031D01*
X39790355Y-42306515D01*
X39823065Y-42251942D01*
X39860966Y-42200837D01*
X39903694Y-42153694D01*
X39950837Y-42110966D01*
X40001942Y-42073065D01*
X40056515Y-42040355D01*
X40114031Y-42013152D01*
X40173937Y-41991717D01*
X40235655Y-41976258D01*
X40298592Y-41966922D01*
X40362140Y-41963800D01*
X40917860Y-41963800D01*
X40981408Y-41966922D01*
G37*
G36*
X56221408Y-29266922D02*
G01*
X56284345Y-29276258D01*
X56346063Y-29291717D01*
X56405969Y-29313152D01*
X56463485Y-29340355D01*
X56518058Y-29373065D01*
X56569163Y-29410966D01*
X56616306Y-29453694D01*
X56659034Y-29500837D01*
X56696935Y-29551942D01*
X56729645Y-29606515D01*
X56756848Y-29664031D01*
X56778283Y-29723937D01*
X56793742Y-29785655D01*
X56803078Y-29848592D01*
X56806200Y-29912140D01*
X56806200Y-31047860D01*
X56803078Y-31111408D01*
X56793742Y-31174345D01*
X56778283Y-31236063D01*
X56756848Y-31295969D01*
X56729645Y-31353485D01*
X56696935Y-31408058D01*
X56659034Y-31459163D01*
X56616306Y-31506306D01*
X56569163Y-31549034D01*
X56518058Y-31586935D01*
X56463485Y-31619645D01*
X56405969Y-31646848D01*
X56346063Y-31668283D01*
X56284345Y-31683742D01*
X56221408Y-31693078D01*
X56157860Y-31696200D01*
X55602140Y-31696200D01*
X55538592Y-31693078D01*
X55475655Y-31683742D01*
X55413937Y-31668283D01*
X55354031Y-31646848D01*
X55296515Y-31619645D01*
X55241942Y-31586935D01*
X55190837Y-31549034D01*
X55143694Y-31506306D01*
X55100966Y-31459163D01*
X55063065Y-31408058D01*
X55030355Y-31353485D01*
X55003152Y-31295969D01*
X54981717Y-31236063D01*
X54966258Y-31174345D01*
X54956922Y-31111408D01*
X54953800Y-31047860D01*
X54953800Y-29912140D01*
X54956922Y-29848592D01*
X54966258Y-29785655D01*
X54981717Y-29723937D01*
X55003152Y-29664031D01*
X55030355Y-29606515D01*
X55063065Y-29551942D01*
X55100966Y-29500837D01*
X55143694Y-29453694D01*
X55190837Y-29410966D01*
X55241942Y-29373065D01*
X55296515Y-29340355D01*
X55354031Y-29313152D01*
X55413937Y-29291717D01*
X55475655Y-29276258D01*
X55538592Y-29266922D01*
X55602140Y-29263800D01*
X56157860Y-29263800D01*
X56221408Y-29266922D01*
G37*
G36*
X40981408Y-44506922D02*
G01*
X41044345Y-44516258D01*
X41106063Y-44531717D01*
X41165969Y-44553152D01*
X41223485Y-44580355D01*
X41278058Y-44613065D01*
X41329163Y-44650966D01*
X41376306Y-44693694D01*
X41419034Y-44740837D01*
X41456935Y-44791942D01*
X41489645Y-44846515D01*
X41516848Y-44904031D01*
X41538283Y-44963937D01*
X41553742Y-45025655D01*
X41563078Y-45088592D01*
X41566200Y-45152140D01*
X41566200Y-46287860D01*
X41563078Y-46351408D01*
X41553742Y-46414345D01*
X41538283Y-46476063D01*
X41516848Y-46535969D01*
X41489645Y-46593485D01*
X41456935Y-46648058D01*
X41419034Y-46699163D01*
X41376306Y-46746306D01*
X41329163Y-46789034D01*
X41278058Y-46826935D01*
X41223485Y-46859645D01*
X41165969Y-46886848D01*
X41106063Y-46908283D01*
X41044345Y-46923742D01*
X40981408Y-46933078D01*
X40917860Y-46936200D01*
X40362140Y-46936200D01*
X40298592Y-46933078D01*
X40235655Y-46923742D01*
X40173937Y-46908283D01*
X40114031Y-46886848D01*
X40056515Y-46859645D01*
X40001942Y-46826935D01*
X39950837Y-46789034D01*
X39903694Y-46746306D01*
X39860966Y-46699163D01*
X39823065Y-46648058D01*
X39790355Y-46593485D01*
X39763152Y-46535969D01*
X39741717Y-46476063D01*
X39726258Y-46414345D01*
X39716922Y-46351408D01*
X39713800Y-46287860D01*
X39713800Y-45152140D01*
X39716922Y-45088592D01*
X39726258Y-45025655D01*
X39741717Y-44963937D01*
X39763152Y-44904031D01*
X39790355Y-44846515D01*
X39823065Y-44791942D01*
X39860966Y-44740837D01*
X39903694Y-44693694D01*
X39950837Y-44650966D01*
X40001942Y-44613065D01*
X40056515Y-44580355D01*
X40114031Y-44553152D01*
X40173937Y-44531717D01*
X40235655Y-44516258D01*
X40298592Y-44506922D01*
X40362140Y-44503800D01*
X40917860Y-44503800D01*
X40981408Y-44506922D01*
G37*
G36*
X56221408Y-26726922D02*
G01*
X56284345Y-26736258D01*
X56346063Y-26751717D01*
X56405969Y-26773152D01*
X56463485Y-26800355D01*
X56518058Y-26833065D01*
X56569163Y-26870966D01*
X56616306Y-26913694D01*
X56659034Y-26960837D01*
X56696935Y-27011942D01*
X56729645Y-27066515D01*
X56756848Y-27124031D01*
X56778283Y-27183937D01*
X56793742Y-27245655D01*
X56803078Y-27308592D01*
X56806200Y-27372140D01*
X56806200Y-28507860D01*
X56803078Y-28571408D01*
X56793742Y-28634345D01*
X56778283Y-28696063D01*
X56756848Y-28755969D01*
X56729645Y-28813485D01*
X56696935Y-28868058D01*
X56659034Y-28919163D01*
X56616306Y-28966306D01*
X56569163Y-29009034D01*
X56518058Y-29046935D01*
X56463485Y-29079645D01*
X56405969Y-29106848D01*
X56346063Y-29128283D01*
X56284345Y-29143742D01*
X56221408Y-29153078D01*
X56157860Y-29156200D01*
X55602140Y-29156200D01*
X55538592Y-29153078D01*
X55475655Y-29143742D01*
X55413937Y-29128283D01*
X55354031Y-29106848D01*
X55296515Y-29079645D01*
X55241942Y-29046935D01*
X55190837Y-29009034D01*
X55143694Y-28966306D01*
X55100966Y-28919163D01*
X55063065Y-28868058D01*
X55030355Y-28813485D01*
X55003152Y-28755969D01*
X54981717Y-28696063D01*
X54966258Y-28634345D01*
X54956922Y-28571408D01*
X54953800Y-28507860D01*
X54953800Y-27372140D01*
X54956922Y-27308592D01*
X54966258Y-27245655D01*
X54981717Y-27183937D01*
X55003152Y-27124031D01*
X55030355Y-27066515D01*
X55063065Y-27011942D01*
X55100966Y-26960837D01*
X55143694Y-26913694D01*
X55190837Y-26870966D01*
X55241942Y-26833065D01*
X55296515Y-26800355D01*
X55354031Y-26773152D01*
X55413937Y-26751717D01*
X55475655Y-26736258D01*
X55538592Y-26726922D01*
X55602140Y-26723800D01*
X56157860Y-26723800D01*
X56221408Y-26726922D01*
G37*
G36*
X40981408Y-47046922D02*
G01*
X41044345Y-47056258D01*
X41106063Y-47071717D01*
X41165969Y-47093152D01*
X41223485Y-47120355D01*
X41278058Y-47153065D01*
X41329163Y-47190966D01*
X41376306Y-47233694D01*
X41419034Y-47280837D01*
X41456935Y-47331942D01*
X41489645Y-47386515D01*
X41516848Y-47444031D01*
X41538283Y-47503937D01*
X41553742Y-47565655D01*
X41563078Y-47628592D01*
X41566200Y-47692140D01*
X41566200Y-48827860D01*
X41563078Y-48891408D01*
X41553742Y-48954345D01*
X41538283Y-49016063D01*
X41516848Y-49075969D01*
X41489645Y-49133485D01*
X41456935Y-49188058D01*
X41419034Y-49239163D01*
X41376306Y-49286306D01*
X41329163Y-49329034D01*
X41278058Y-49366935D01*
X41223485Y-49399645D01*
X41165969Y-49426848D01*
X41106063Y-49448283D01*
X41044345Y-49463742D01*
X40981408Y-49473078D01*
X40917860Y-49476200D01*
X40362140Y-49476200D01*
X40298592Y-49473078D01*
X40235655Y-49463742D01*
X40173937Y-49448283D01*
X40114031Y-49426848D01*
X40056515Y-49399645D01*
X40001942Y-49366935D01*
X39950837Y-49329034D01*
X39903694Y-49286306D01*
X39860966Y-49239163D01*
X39823065Y-49188058D01*
X39790355Y-49133485D01*
X39763152Y-49075969D01*
X39741717Y-49016063D01*
X39726258Y-48954345D01*
X39716922Y-48891408D01*
X39713800Y-48827860D01*
X39713800Y-47692140D01*
X39716922Y-47628592D01*
X39726258Y-47565655D01*
X39741717Y-47503937D01*
X39763152Y-47444031D01*
X39790355Y-47386515D01*
X39823065Y-47331942D01*
X39860966Y-47280837D01*
X39903694Y-47233694D01*
X39950837Y-47190966D01*
X40001942Y-47153065D01*
X40056515Y-47120355D01*
X40114031Y-47093152D01*
X40173937Y-47071717D01*
X40235655Y-47056258D01*
X40298592Y-47046922D01*
X40362140Y-47043800D01*
X40917860Y-47043800D01*
X40981408Y-47046922D01*
G37*
G36*
X56221408Y-24186922D02*
G01*
X56284345Y-24196258D01*
X56346063Y-24211717D01*
X56405969Y-24233152D01*
X56463485Y-24260355D01*
X56518058Y-24293065D01*
X56569163Y-24330966D01*
X56616306Y-24373694D01*
X56659034Y-24420837D01*
X56696935Y-24471942D01*
X56729645Y-24526515D01*
X56756848Y-24584031D01*
X56778283Y-24643937D01*
X56793742Y-24705655D01*
X56803078Y-24768592D01*
X56806200Y-24832140D01*
X56806200Y-25967860D01*
X56803078Y-26031408D01*
X56793742Y-26094345D01*
X56778283Y-26156063D01*
X56756848Y-26215969D01*
X56729645Y-26273485D01*
X56696935Y-26328058D01*
X56659034Y-26379163D01*
X56616306Y-26426306D01*
X56569163Y-26469034D01*
X56518058Y-26506935D01*
X56463485Y-26539645D01*
X56405969Y-26566848D01*
X56346063Y-26588283D01*
X56284345Y-26603742D01*
X56221408Y-26613078D01*
X56157860Y-26616200D01*
X55602140Y-26616200D01*
X55538592Y-26613078D01*
X55475655Y-26603742D01*
X55413937Y-26588283D01*
X55354031Y-26566848D01*
X55296515Y-26539645D01*
X55241942Y-26506935D01*
X55190837Y-26469034D01*
X55143694Y-26426306D01*
X55100966Y-26379163D01*
X55063065Y-26328058D01*
X55030355Y-26273485D01*
X55003152Y-26215969D01*
X54981717Y-26156063D01*
X54966258Y-26094345D01*
X54956922Y-26031408D01*
X54953800Y-25967860D01*
X54953800Y-24832140D01*
X54956922Y-24768592D01*
X54966258Y-24705655D01*
X54981717Y-24643937D01*
X55003152Y-24584031D01*
X55030355Y-24526515D01*
X55063065Y-24471942D01*
X55100966Y-24420837D01*
X55143694Y-24373694D01*
X55190837Y-24330966D01*
X55241942Y-24293065D01*
X55296515Y-24260355D01*
X55354031Y-24233152D01*
X55413937Y-24211717D01*
X55475655Y-24196258D01*
X55538592Y-24186922D01*
X55602140Y-24183800D01*
X56157860Y-24183800D01*
X56221408Y-24186922D01*
G37*
G36*
X40981408Y-49586922D02*
G01*
X41044345Y-49596258D01*
X41106063Y-49611717D01*
X41165969Y-49633152D01*
X41223485Y-49660355D01*
X41278058Y-49693065D01*
X41329163Y-49730966D01*
X41376306Y-49773694D01*
X41419034Y-49820837D01*
X41456935Y-49871942D01*
X41489645Y-49926515D01*
X41516848Y-49984031D01*
X41538283Y-50043937D01*
X41553742Y-50105655D01*
X41563078Y-50168592D01*
X41566200Y-50232140D01*
X41566200Y-51367860D01*
X41563078Y-51431408D01*
X41553742Y-51494345D01*
X41538283Y-51556063D01*
X41516848Y-51615969D01*
X41489645Y-51673485D01*
X41456935Y-51728058D01*
X41419034Y-51779163D01*
X41376306Y-51826306D01*
X41329163Y-51869034D01*
X41278058Y-51906935D01*
X41223485Y-51939645D01*
X41165969Y-51966848D01*
X41106063Y-51988283D01*
X41044345Y-52003742D01*
X40981408Y-52013078D01*
X40917860Y-52016200D01*
X40362140Y-52016200D01*
X40298592Y-52013078D01*
X40235655Y-52003742D01*
X40173937Y-51988283D01*
X40114031Y-51966848D01*
X40056515Y-51939645D01*
X40001942Y-51906935D01*
X39950837Y-51869034D01*
X39903694Y-51826306D01*
X39860966Y-51779163D01*
X39823065Y-51728058D01*
X39790355Y-51673485D01*
X39763152Y-51615969D01*
X39741717Y-51556063D01*
X39726258Y-51494345D01*
X39716922Y-51431408D01*
X39713800Y-51367860D01*
X39713800Y-50232140D01*
X39716922Y-50168592D01*
X39726258Y-50105655D01*
X39741717Y-50043937D01*
X39763152Y-49984031D01*
X39790355Y-49926515D01*
X39823065Y-49871942D01*
X39860966Y-49820837D01*
X39903694Y-49773694D01*
X39950837Y-49730966D01*
X40001942Y-49693065D01*
X40056515Y-49660355D01*
X40114031Y-49633152D01*
X40173937Y-49611717D01*
X40235655Y-49596258D01*
X40298592Y-49586922D01*
X40362140Y-49583800D01*
X40917860Y-49583800D01*
X40981408Y-49586922D01*
G37*
G36*
X56221408Y-21646922D02*
G01*
X56284345Y-21656258D01*
X56346063Y-21671717D01*
X56405969Y-21693152D01*
X56463485Y-21720355D01*
X56518058Y-21753065D01*
X56569163Y-21790966D01*
X56616306Y-21833694D01*
X56659034Y-21880837D01*
X56696935Y-21931942D01*
X56729645Y-21986515D01*
X56756848Y-22044031D01*
X56778283Y-22103937D01*
X56793742Y-22165655D01*
X56803078Y-22228592D01*
X56806200Y-22292140D01*
X56806200Y-23427860D01*
X56803078Y-23491408D01*
X56793742Y-23554345D01*
X56778283Y-23616063D01*
X56756848Y-23675969D01*
X56729645Y-23733485D01*
X56696935Y-23788058D01*
X56659034Y-23839163D01*
X56616306Y-23886306D01*
X56569163Y-23929034D01*
X56518058Y-23966935D01*
X56463485Y-23999645D01*
X56405969Y-24026848D01*
X56346063Y-24048283D01*
X56284345Y-24063742D01*
X56221408Y-24073078D01*
X56157860Y-24076200D01*
X55602140Y-24076200D01*
X55538592Y-24073078D01*
X55475655Y-24063742D01*
X55413937Y-24048283D01*
X55354031Y-24026848D01*
X55296515Y-23999645D01*
X55241942Y-23966935D01*
X55190837Y-23929034D01*
X55143694Y-23886306D01*
X55100966Y-23839163D01*
X55063065Y-23788058D01*
X55030355Y-23733485D01*
X55003152Y-23675969D01*
X54981717Y-23616063D01*
X54966258Y-23554345D01*
X54956922Y-23491408D01*
X54953800Y-23427860D01*
X54953800Y-22292140D01*
X54956922Y-22228592D01*
X54966258Y-22165655D01*
X54981717Y-22103937D01*
X55003152Y-22044031D01*
X55030355Y-21986515D01*
X55063065Y-21931942D01*
X55100966Y-21880837D01*
X55143694Y-21833694D01*
X55190837Y-21790966D01*
X55241942Y-21753065D01*
X55296515Y-21720355D01*
X55354031Y-21693152D01*
X55413937Y-21671717D01*
X55475655Y-21656258D01*
X55538592Y-21646922D01*
X55602140Y-21643800D01*
X56157860Y-21643800D01*
X56221408Y-21646922D01*
G37*
G36*
X41118270Y-52127259D02*
G01*
X41188001Y-52137603D01*
X41256383Y-52154731D01*
X41322757Y-52178480D01*
X41386483Y-52208621D01*
X41446948Y-52244862D01*
X41503570Y-52286856D01*
X41555803Y-52334197D01*
X41603144Y-52386430D01*
X41645138Y-52443052D01*
X41681379Y-52503517D01*
X41711520Y-52567243D01*
X41735269Y-52633617D01*
X41752397Y-52701999D01*
X41762741Y-52771730D01*
X41766200Y-52842140D01*
X41766200Y-53837860D01*
X41762741Y-53908270D01*
X41752397Y-53978001D01*
X41735269Y-54046383D01*
X41711520Y-54112757D01*
X41681379Y-54176483D01*
X41645138Y-54236948D01*
X41603144Y-54293570D01*
X41555803Y-54345803D01*
X41503570Y-54393144D01*
X41446948Y-54435138D01*
X41386483Y-54471379D01*
X41322757Y-54501520D01*
X41256383Y-54525269D01*
X41188001Y-54542397D01*
X41118270Y-54552741D01*
X41047860Y-54556200D01*
X40432140Y-54556200D01*
X40361730Y-54552741D01*
X40291999Y-54542397D01*
X40223617Y-54525269D01*
X40157243Y-54501520D01*
X40093517Y-54471379D01*
X40033052Y-54435138D01*
X39976430Y-54393144D01*
X39924197Y-54345803D01*
X39876856Y-54293570D01*
X39834862Y-54236948D01*
X39798621Y-54176483D01*
X39768480Y-54112757D01*
X39744731Y-54046383D01*
X39727603Y-53978001D01*
X39717259Y-53908270D01*
X39713800Y-53837860D01*
X39713800Y-52842140D01*
X39717259Y-52771730D01*
X39727603Y-52701999D01*
X39744731Y-52633617D01*
X39768480Y-52567243D01*
X39798621Y-52503517D01*
X39834862Y-52443052D01*
X39876856Y-52386430D01*
X39924197Y-52334197D01*
X39976430Y-52286856D01*
X40033052Y-52244862D01*
X40093517Y-52208621D01*
X40157243Y-52178480D01*
X40223617Y-52154731D01*
X40291999Y-52137603D01*
X40361730Y-52127259D01*
X40432140Y-52123800D01*
X41047860Y-52123800D01*
X41118270Y-52127259D01*
G37*
G36*
X56158270Y-19107259D02*
G01*
X56228001Y-19117603D01*
X56296383Y-19134731D01*
X56362757Y-19158480D01*
X56426483Y-19188621D01*
X56486948Y-19224862D01*
X56543570Y-19266856D01*
X56595803Y-19314197D01*
X56643144Y-19366430D01*
X56685138Y-19423052D01*
X56721379Y-19483517D01*
X56751520Y-19547243D01*
X56775269Y-19613617D01*
X56792397Y-19681999D01*
X56802741Y-19751730D01*
X56806200Y-19822140D01*
X56806200Y-20817860D01*
X56802741Y-20888270D01*
X56792397Y-20958001D01*
X56775269Y-21026383D01*
X56751520Y-21092757D01*
X56721379Y-21156483D01*
X56685138Y-21216948D01*
X56643144Y-21273570D01*
X56595803Y-21325803D01*
X56543570Y-21373144D01*
X56486948Y-21415138D01*
X56426483Y-21451379D01*
X56362757Y-21481520D01*
X56296383Y-21505269D01*
X56228001Y-21522397D01*
X56158270Y-21532741D01*
X56087860Y-21536200D01*
X55472140Y-21536200D01*
X55401730Y-21532741D01*
X55331999Y-21522397D01*
X55263617Y-21505269D01*
X55197243Y-21481520D01*
X55133517Y-21451379D01*
X55073052Y-21415138D01*
X55016430Y-21373144D01*
X54964197Y-21325803D01*
X54916856Y-21273570D01*
X54874862Y-21216948D01*
X54838621Y-21156483D01*
X54808480Y-21092757D01*
X54784731Y-21026383D01*
X54767603Y-20958001D01*
X54757259Y-20888270D01*
X54753800Y-20817860D01*
X54753800Y-19822140D01*
X54757259Y-19751730D01*
X54767603Y-19681999D01*
X54784731Y-19613617D01*
X54808480Y-19547243D01*
X54838621Y-19483517D01*
X54874862Y-19423052D01*
X54916856Y-19366430D01*
X54964197Y-19314197D01*
X55016430Y-19266856D01*
X55073052Y-19224862D01*
X55133517Y-19188621D01*
X55197243Y-19158480D01*
X55263617Y-19134731D01*
X55331999Y-19117603D01*
X55401730Y-19107259D01*
X55472140Y-19103800D01*
X56087860Y-19103800D01*
X56158270Y-19107259D01*
G37*
M02*
